<svg id="Calque_1" data-name="Calque 1" xmlns="http://www.w3.org/2000/svg" viewBox="0 0 712.14 523.55"><defs><style>.cls-1,.cls-2{fill:none;}.cls-1,.cls-2,.cls-3{stroke:#1d1d1b;stroke-miterlimit:10;}.cls-1{stroke-width:3px;}.cls-3{fill:#ffed00;}.cls-4{font-size:36px;font-family:FiraCode-Retina, Fira Code;}.cls-4,.cls-5{fill:#1d1d1b;}</style></defs><line class="cls-1" x1="2.22" x2="1.5" y2="521.02"/><line class="cls-1" x1="126.14" y1="3.63" x2="125.41" y2="521.74"/><line class="cls-1" x1="269.33" y1="1.81" x2="268.61" y2="522.83"/><line class="cls-1" x1="393.24" y1="5.44" x2="392.52" y2="523.55"/><rect class="cls-2" x="269.19" y="101.45" width="123.69" height="100"/><rect class="cls-2" x="1.86" y="281.16" width="123.91" height="100"/><rect class="cls-3" x="448.6" y="245.65" width="263.04" height="245.65"/><text class="cls-4" transform="translate(47.63 331.16)">6</text><text class="cls-4" transform="translate(314.36 151.45)">5</text><text class="cls-4" transform="translate(467.28 281.16)">P</text><polygon class="cls-5" points="137.44 298.92 237.04 193.05 245.47 200.97 251.5 175.37 226.31 182.95 234.73 190.87 135.13 296.74 137.44 298.92"/><polygon class="cls-5" points="138.46 361.01 400.45 361.01 400.45 372.58 423.24 359.42 400.45 346.27 400.45 357.83 138.46 357.83 138.46 361.01"/><polygon class="cls-5" points="399.31 172.35 429.64 244.81 418.97 249.28 439.91 265.22 443.24 239.12 432.57 243.59 402.24 171.13 399.31 172.35"/><rect class="cls-3" x="342.08" y="163.77" width="50" height="18.84"/><rect class="cls-3" x="72.51" y="347.1" width="51.45" height="18.12"/></svg>