<svg id="Calque_1" data-name="Calque 1" xmlns="http://www.w3.org/2000/svg" viewBox="0 0 712.14 523.55"><defs><style>.cls-1,.cls-2{fill:none;}.cls-1,.cls-2,.cls-3{stroke:#1d1d1b;stroke-miterlimit:10;}.cls-1{stroke-width:3px;}.cls-3{fill:#ffed00;}.cls-4{isolation:isolate;}.cls-5{fill:#1d1d1b;}</style></defs><line class="cls-1" x1="2.22" x2="1.5" y2="521.02"/><line class="cls-1" x1="126.14" y1="3.63" x2="125.41" y2="521.74"/><line class="cls-1" x1="269.33" y1="1.81" x2="268.61" y2="522.83"/><line class="cls-1" x1="393.24" y1="5.44" x2="392.52" y2="523.55"/><rect class="cls-2" x="269.19" y="101.45" width="123.69" height="100"/><rect class="cls-2" x="1.86" y="281.16" width="123.91" height="100"/><rect class="cls-3" x="448.6" y="245.65" width="263.04" height="245.65"/><g class="cls-4"><path class="cls-5" d="M59.8,305.91a9.2,9.2,0,0,1,2.69.38,8.93,8.93,0,0,1,2.29,1.09l-1.35,2.29a6.76,6.76,0,0,0-3.67-1.05,4.79,4.79,0,0,0-4.28,2.56,14,14,0,0,0-1.66,6.91,7.4,7.4,0,0,1,2.64-2.42,7,7,0,0,1,3.21-.75,7.25,7.25,0,0,1,3.51.87,6.29,6.29,0,0,1,2.56,2.62,9.19,9.19,0,0,1,1,4.4,9.74,9.74,0,0,1-1.06,4.68,7.66,7.66,0,0,1-2.86,3.05,7.81,7.81,0,0,1-4.05,1.07,7.5,7.5,0,0,1-4.91-1.52,8.52,8.52,0,0,1-2.67-4.24,21.85,21.85,0,0,1-.83-6.34,20.57,20.57,0,0,1,1.14-7.18,10.5,10.5,0,0,1,3.24-4.74A8,8,0,0,1,59.8,305.91ZM59,317.64a5.22,5.22,0,0,0-3,.89,8,8,0,0,0-2.23,2.35A13.15,13.15,0,0,0,55.06,327a3.93,3.93,0,0,0,3.66,1.94,3.77,3.77,0,0,0,3.34-1.62,7.66,7.66,0,0,0,1.1-4.35c0-2-.37-3.36-1.13-4.13A4,4,0,0,0,59,317.64Z" transform="translate(0 0)"/></g><g class="cls-4"><path class="cls-5" d="M332.05,126.65l-.48,2.66h-9.69v7.43a8.84,8.84,0,0,1,2.12-.8,9.6,9.6,0,0,1,2.08-.22,6.36,6.36,0,0,1,4.9,2.05,8.17,8.17,0,0,1,1.9,5.78,8.69,8.69,0,0,1-1.06,4.36,7.45,7.45,0,0,1-3,2.94,9.37,9.37,0,0,1-4.54,1.05,9.82,9.82,0,0,1-4.13-.83,10.54,10.54,0,0,1-3.23-2.28l2.08-2a6.91,6.91,0,0,0,5.22,2.3,4.82,4.82,0,0,0,3.72-1.44,5.89,5.89,0,0,0,1.34-4.16c0-1.92-.41-3.25-1.24-4a4.37,4.37,0,0,0-3-1.13,7.58,7.58,0,0,0-1.87.21,16.35,16.35,0,0,0-1.88.62h-2.66V126.65Z" transform="translate(0 0)"/></g><g class="cls-4"><path class="cls-5" d="M484.4,270.21a8,8,0,0,1-1.24,4.67,7,7,0,0,1-3.41,2.58,14.21,14.21,0,0,1-5,.81h-3.1v9.06h-3.58V262.52h6.57a12,12,0,0,1,7.13,1.88A6.69,6.69,0,0,1,484.4,270.21Zm-3.78,0a4.41,4.41,0,0,0-1.58-3.85,6.86,6.86,0,0,0-4-1.11h-3.33v10.18H475a8.54,8.54,0,0,0,2.93-.46,4,4,0,0,0,2-1.61A5.82,5.82,0,0,0,480.62,270.24Z" transform="translate(0 0)"/></g><polygon class="cls-5" points="137.44 298.92 237.04 193.05 245.47 200.97 251.5 175.37 226.31 182.95 234.73 190.87 135.13 296.74 137.44 298.92"/><polygon class="cls-5" points="138.46 361.01 400.45 361.01 400.45 372.58 423.24 359.42 400.45 346.27 400.45 357.83 138.46 357.83 138.46 361.01"/><polygon class="cls-5" points="399.31 172.35 429.64 244.81 418.97 249.28 439.91 265.22 443.24 239.12 432.57 243.59 402.24 171.13 399.31 172.35"/><rect class="cls-3" x="342.08" y="163.77" width="50" height="18.84"/><rect class="cls-3" x="72.51" y="347.1" width="51.45" height="18.12"/></svg>