<?xml version="1.0" encoding="utf-8"?>
<!-- Generator: Adobe Illustrator 25.0.1, SVG Export Plug-In . SVG Version: 6.00 Build 0)  -->
<svg version="1.1" id="Calque_1" xmlns="http://www.w3.org/2000/svg" xmlns:xlink="http://www.w3.org/1999/xlink" x="0px" y="0px"
	 viewBox="0 0 712.1 523.5" style="enable-background:new 0 0 712.1 523.5;" xml:space="preserve">
<style type="text/css">
	.st0{fill:none;stroke:#1D1D1B;stroke-width:3;stroke-miterlimit:10;}
	.st1{fill:none;stroke:#1D1D1B;stroke-width:3;stroke-miterlimit:10;stroke-dasharray:11.8965,11.8965;}
	.st2{fill:none;stroke:#1D1D1B;stroke-miterlimit:10;}
	.st3{fill:#FFED00;}
	.st4{fill:#1D1D1B;}
	.st5{fill:#4EC9B0;}
	.st6{fill:#F44747;}
	.st7{fill:none;}
	.st8{enable-background:new    ;}
</style>
<g>
	<g>
		<line class="st0" x1="407.8" y1="0" x2="407.8" y2="6"/>
		<line class="st1" x1="407.8" y1="17.9" x2="407.2" y2="511.6"/>
		<line class="st0" x1="407.2" y1="517.5" x2="407.2" y2="523.5"/>
	</g>
</g>
<line class="st0" x1="5.8" y1="96.3" x2="5.2" y2="518.9"/>
<line class="st0" x1="106.3" y1="99.3" x2="105.7" y2="519.5"/>
<line class="st0" x1="222.5" y1="97.8" x2="221.9" y2="520.4"/>
<line class="st0" x1="323" y1="100.8" x2="322.4" y2="521"/>
<rect x="222.3" y="178.6" class="st2" width="100.3" height="81.1"/>
<rect x="5.5" y="324.4" class="st2" width="100.5" height="81.1"/>
<rect x="479.8" y="295.6" class="st3" width="213.4" height="199.2"/>
<g>
	<path class="st4" d="M26.1,333.1c0.7,0,1.5,0.1,2.2,0.3c0.7,0.2,1.3,0.5,1.9,0.9l-1.1,1.9c-0.9-0.6-1.9-0.9-3-0.9
		c-1.5,0-2.8,0.8-3.5,2.1c-0.9,1.7-1.4,3.7-1.3,5.6c0.5-0.8,1.3-1.5,2.1-2c0.8-0.4,1.7-0.6,2.6-0.6c1,0,2,0.2,2.8,0.7
		c0.9,0.5,1.6,1.2,2.1,2.1c0.6,1.1,0.8,2.3,0.8,3.6c0,1.3-0.3,2.6-0.9,3.8c-0.5,1-1.3,1.9-2.3,2.5s-2.1,0.9-3.3,0.9
		c-1.4,0.1-2.8-0.4-4-1.2c-1.1-0.9-1.8-2.1-2.2-3.4c-0.5-1.7-0.7-3.4-0.7-5.1c0-2,0.3-4,0.9-5.8c0.5-1.5,1.4-2.8,2.6-3.8
		C23.2,333.5,24.6,333,26.1,333.1z M25.5,342.6c-0.9,0-1.7,0.2-2.4,0.7s-1.3,1.2-1.8,1.9c-0.1,1.7,0.3,3.4,1,5c0.6,1,1.8,1.7,3,1.6
		c1.1,0.1,2.1-0.4,2.7-1.3c0.6-1.1,1-2.3,0.9-3.5c0-1.6-0.3-2.7-0.9-3.3C27.3,342.9,26.4,342.5,25.5,342.6z"/>
</g>
<g>
	<path d="M247.5,188.9l-0.4,2.2h-7.9v6c0.5-0.3,1.1-0.5,1.7-0.6s1.1-0.2,1.7-0.2c1.5-0.1,3,0.6,4,1.7c1.1,1.3,1.7,3,1.5,4.7
		c0,1.2-0.3,2.5-0.9,3.5s-1.4,1.8-2.4,2.4c-1.1,0.6-2.4,0.9-3.7,0.9c-1.2,0-2.3-0.2-3.3-0.7c-1-0.4-1.9-1.1-2.6-1.8l1.7-1.6
		c1.1,1.2,2.6,1.9,4.2,1.9c1.1,0.1,2.2-0.4,3-1.2c0.8-0.9,1.2-2.2,1.1-3.4c0-1.6-0.3-2.6-1-3.2c-0.7-0.6-1.5-0.9-2.4-0.9
		c-0.5,0-1,0.1-1.5,0.2c-0.5,0.1-1,0.3-1.5,0.5h-2.2v-10.2h10.9L247.5,188.9L247.5,188.9z"/>
</g>
<g>
	<path class="st4" d="M512.4,315.9c0.1,1.3-0.3,2.7-1,3.8c-0.7,1-1.6,1.7-2.8,2.1c-1.3,0.5-2.7,0.7-4.1,0.7H502v7.3h-2.9v-20.1h5.3
		c2-0.1,4.1,0.4,5.8,1.5C511.8,312.3,512.6,314.1,512.4,315.9z M509.4,315.9c0.1-1.2-0.4-2.4-1.3-3.1c-1-0.6-2.1-0.9-3.2-0.9h-2.7
		v8.3h2.7c0.8,0,1.6-0.1,2.4-0.4c0.7-0.2,1.2-0.7,1.6-1.3C509.2,317.7,509.4,316.8,509.4,315.9L509.4,315.9z"/>
</g>
<polygon class="st5" points="115.5,338.8 196.3,252.9 203.1,259.3 208,238.6 187.6,244.7 194.4,251.2 113.6,337 "/>
<polygon class="st6" points="116.5,387.1 451.1,387.1 451.1,396.5 471.5,385.9 451.1,375.2 451.1,384.6 116.5,384.6 "/>
<rect x="280.7" y="229.2" class="st6" width="40.6" height="15.3"/>
<rect x="62.7" y="377.9" class="st6" width="41.7" height="14.7"/>
<rect x="230.1" y="15.9" class="st7" width="95.3" height="72.3"/>
<g class="st8">
	<path d="M238.5,32.4l-5.1-13.1c0,0.3,0,0.7,0.1,1.3c0,0.6,0.1,1.3,0.1,2.1c0,0.8,0.1,1.6,0.1,2.4v7.3h-2V17.3h2.9l5.1,13.1
		c0-0.2,0-0.7-0.1-1.2c-0.1-0.6-0.1-1.3-0.1-2.1s-0.1-1.6-0.1-2.5v-7.3h2v15.1H238.5z"/>
	<path d="M247,27.3c0.1,1.3,0.4,2.2,1,2.8c0.6,0.6,1.4,0.9,2.2,0.9c0.6,0,1.1-0.1,1.6-0.3s1-0.4,1.5-0.8l1,1.3
		c-0.5,0.4-1.2,0.8-1.9,1c-0.7,0.3-1.4,0.4-2.2,0.4c-1.2,0-2.1-0.3-2.9-0.8c-0.8-0.5-1.4-1.2-1.8-2.1c-0.4-0.9-0.6-2-0.6-3.2
		s0.2-2.2,0.6-3.1c0.4-0.9,1-1.6,1.8-2.2c0.8-0.5,1.7-0.8,2.7-0.8c1.5,0,2.7,0.5,3.5,1.5s1.3,2.4,1.3,4.2c0,0.2,0,0.4,0,0.6
		s0,0.3,0,0.5H247V27.3z M250,22.2c-0.8,0-1.5,0.3-2,0.9s-0.9,1.5-0.9,2.7h5.7c0-1.2-0.3-2.1-0.8-2.7S250.8,22.2,250,22.2z"/>
	<path d="M267.2,32.4h-2.8L263,24l-1.5,8.3h-2.7l-2-11.5h2.1l1.4,10.2l1.7-8.8h2.3l1.6,8.8l1.4-10.2h2L267.2,32.4z"/>
</g>
<g class="st8">
	<path d="M233.9,52.9c0.1,1.3,0.4,2.2,1,2.8s1.4,0.9,2.2,0.9c0.6,0,1.1-0.1,1.6-0.3s1-0.4,1.5-0.8l1,1.3c-0.5,0.4-1.2,0.8-1.9,1
		c-0.7,0.3-1.4,0.4-2.2,0.4c-1.2,0-2.1-0.3-2.9-0.8c-0.8-0.5-1.4-1.2-1.8-2.1c-0.4-0.9-0.6-2-0.6-3.2s0.2-2.2,0.6-3.1
		c0.4-0.9,1-1.6,1.8-2.2c0.8-0.5,1.7-0.8,2.7-0.8c1.5,0,2.7,0.5,3.5,1.5s1.3,2.4,1.3,4.2c0,0.2,0,0.4,0,0.6c0,0.2,0,0.3,0,0.5
		L233.9,52.9L233.9,52.9z M236.8,47.8c-0.8,0-1.5,0.3-2,0.9c-0.5,0.6-0.9,1.5-0.9,2.7h5.7c0-1.2-0.3-2.1-0.8-2.7
		S237.7,47.8,236.8,47.8z"/>
	<path d="M250,41.8V55c0,0.6,0.2,0.9,0.5,1.2s0.8,0.3,1.3,0.3c0.3,0,0.7,0,1-0.1s0.6-0.2,0.9-0.3l0.5,1.5c-0.3,0.2-0.7,0.3-1.2,0.4
		s-1,0.2-1.6,0.2c-1.1,0-1.9-0.3-2.6-0.9c-0.6-0.6-1-1.4-1-2.5V43.4h-3.5v-1.6C244.3,41.8,250,41.8,250,41.8z"/>
	<path d="M260.1,52.9c0.1,1.3,0.4,2.2,1,2.8s1.4,0.9,2.2,0.9c0.6,0,1.1-0.1,1.6-0.3s1-0.4,1.5-0.8l1,1.3c-0.5,0.4-1.2,0.8-1.9,1
		c-0.7,0.3-1.4,0.4-2.2,0.4c-1.2,0-2.1-0.3-2.9-0.8s-1.4-1.2-1.8-2.1c-0.4-0.9-0.6-2-0.6-3.2s0.2-2.2,0.6-3.1c0.4-0.9,1-1.6,1.8-2.2
		c0.8-0.5,1.7-0.8,2.7-0.8c1.5,0,2.7,0.5,3.5,1.5s1.3,2.4,1.3,4.2c0,0.2,0,0.4,0,0.6c0,0.2,0,0.3,0,0.5L260.1,52.9L260.1,52.9z
		 M263.1,47.8c-0.8,0-1.5,0.3-2,0.9c-0.5,0.6-0.9,1.5-0.9,2.7h5.7c0-1.2-0.3-2.1-0.8-2.7C264.6,48.1,263.9,47.8,263.1,47.8z"/>
	<path d="M279.3,46.2c0.4,0,0.8,0.1,1.1,0.3c0.3,0.2,0.6,0.5,0.8,1c0.2,0.5,0.3,1.1,0.3,2V58h-1.9v-8.3c0-0.7,0-1.2-0.1-1.5
		s-0.3-0.4-0.7-0.4c-0.3,0-0.6,0.1-1,0.3c-0.3,0.2-0.6,0.5-0.9,1V58h-1.8v-8.3c0-0.7,0-1.2-0.1-1.5s-0.3-0.4-0.7-0.4
		c-0.3,0-0.6,0.1-1,0.3c-0.3,0.2-0.6,0.5-0.9,1V58h-1.9V46.4h1.6l0.1,1.3c0.3-0.4,0.7-0.8,1.1-1.1s0.9-0.4,1.4-0.4
		c0.4,0,0.8,0.1,1.2,0.3c0.4,0.2,0.7,0.6,0.8,1.2c0.3-0.4,0.7-0.8,1.1-1.1C278.2,46.3,278.7,46.2,279.3,46.2z"/>
	<path d="M286.4,52.9c0.1,1.3,0.4,2.2,1,2.8s1.4,0.9,2.2,0.9c0.6,0,1.1-0.1,1.6-0.3s1-0.4,1.5-0.8l1,1.3c-0.5,0.4-1.2,0.8-1.9,1
		c-0.7,0.3-1.4,0.4-2.2,0.4c-1.2,0-2.1-0.3-2.9-0.8s-1.4-1.2-1.8-2.1c-0.4-0.9-0.6-2-0.6-3.2s0.2-2.2,0.6-3.1c0.4-0.9,1-1.6,1.8-2.2
		c0.8-0.5,1.7-0.8,2.7-0.8c1.5,0,2.7,0.5,3.5,1.5s1.3,2.4,1.3,4.2c0,0.2,0,0.4,0,0.6c0,0.2,0,0.3,0,0.5L286.4,52.9L286.4,52.9z
		 M289.3,47.8c-0.8,0-1.5,0.3-2,0.9c-0.5,0.6-0.9,1.5-0.9,2.7h5.7c0-1.2-0.3-2.1-0.8-2.7C290.9,48.1,290.2,47.8,289.3,47.8z"/>
	<path d="M297.8,58V46.4h1.8l0.2,1.6c0.5-0.6,1.1-1,1.7-1.4s1.4-0.5,2-0.5c1.1,0,1.9,0.3,2.5,0.9c0.5,0.6,0.8,1.4,0.8,2.5V58h-2.1
		v-7.1c0-0.7,0-1.3-0.1-1.8s-0.3-0.8-0.5-1s-0.7-0.3-1.2-0.3c-0.6,0-1.2,0.2-1.7,0.6c-0.5,0.4-0.9,0.8-1.2,1.2V58H297.8z"/>
	<path d="M320.3,57.4c-0.4,0.3-0.9,0.5-1.5,0.6c-0.6,0.2-1.2,0.2-1.7,0.2c-1.3,0-2.3-0.3-2.9-1c-0.7-0.7-1-1.5-1-2.6V48h-2.6v-1.6
		h2.6v-2.6l2.1-0.3v2.9h3.9L319,48h-3.7v6.6c0,0.6,0.2,1.1,0.5,1.4c0.3,0.3,0.9,0.5,1.6,0.5c0.4,0,0.8,0,1.2-0.1
		c0.4-0.1,0.7-0.2,1-0.4L320.3,57.4z"/>
</g>
<g class="st8">
	<path d="M240.7,80.9c0,0.5,0.1,0.8,0.2,1c0.1,0.2,0.4,0.4,0.7,0.5l-0.5,1.4c-0.5-0.1-1-0.2-1.4-0.5s-0.7-0.6-0.9-1.1
		c-0.4,0.5-0.9,0.9-1.6,1.2c-0.6,0.3-1.3,0.4-2.1,0.4c-1.2,0-2.1-0.3-2.7-1s-1-1.5-1-2.6c0-1.2,0.5-2.1,1.4-2.8s2.3-1,4-1h1.7v-0.9
		c0-0.8-0.2-1.4-0.7-1.7c-0.5-0.3-1.1-0.5-2-0.5c-0.4,0-0.8,0-1.4,0.1c-0.5,0.1-1.1,0.2-1.7,0.4l-0.5-1.5c0.7-0.3,1.4-0.5,2-0.6
		c0.7-0.1,1.3-0.2,1.8-0.2c1.5,0,2.6,0.3,3.3,1s1.1,1.6,1.1,2.8v5.6H240.7z M235.8,82.3c0.5,0,1-0.1,1.5-0.4s0.9-0.7,1.2-1.2v-2.8
		H237c-1.2,0-2.1,0.2-2.6,0.6s-0.8,1-0.8,1.7C233.7,81.6,234.4,82.3,235.8,82.3z"/>
	<path d="M245.4,83.6V82h1.8v-8.4h-1.8V72h3.4l0.4,2.7c0.4-1,1-1.7,1.6-2.2s1.5-0.8,2.5-0.8c0.3,0,0.6,0,0.9,0.1s0.5,0.1,0.8,0.2
		l-0.3,4H253v-2.4l0,0c-1.7,0-3,1.2-3.7,3.7V82h2.3v1.6H245.4z"/>
	<path d="M258.5,83.6V82h1.8v-8.4h-1.8V72h3.4l0.4,2.7c0.4-1,1-1.7,1.6-2.2s1.5-0.8,2.5-0.8c0.3,0,0.6,0,0.9,0.1s0.5,0.1,0.8,0.2
		l-0.3,4h-1.6v-2.4l0,0c-1.7,0-3,1.2-3.7,3.7V82h2.3v1.6H258.5z"/>
	<path d="M280,80.9c0,0.5,0.1,0.8,0.2,1s0.4,0.4,0.7,0.5l-0.5,1.4c-0.5-0.1-1-0.2-1.4-0.5s-0.7-0.6-0.9-1.1
		c-0.4,0.5-0.9,0.9-1.6,1.2c-0.6,0.3-1.3,0.4-2.1,0.4c-1.2,0-2.1-0.3-2.7-1s-1-1.5-1-2.6c0-1.2,0.5-2.1,1.4-2.8s2.3-1,4-1h1.7v-0.9
		c0-0.8-0.2-1.4-0.7-1.7c-0.5-0.3-1.1-0.5-2-0.5c-0.4,0-0.8,0-1.4,0.1c-0.5,0.1-1.1,0.2-1.7,0.4l-0.5-1.5c0.7-0.3,1.4-0.5,2-0.6
		c0.7-0.1,1.3-0.2,1.8-0.2c1.5,0,2.6,0.3,3.3,1c0.7,0.7,1.1,1.6,1.1,2.8v5.6H280z M275.2,82.3c0.5,0,1-0.1,1.5-0.4s0.9-0.7,1.2-1.2
		v-2.8h-1.5c-1.2,0-2.1,0.2-2.6,0.6s-0.8,1-0.8,1.7C273.1,81.6,273.8,82.3,275.2,82.3z"/>
	<path d="M294.5,72l-4,11.6c-0.3,0.8-0.6,1.6-1.1,2.2s-1,1.2-1.7,1.6s-1.6,0.7-2.6,0.8l-0.3-1.6c0.8-0.1,1.4-0.3,1.9-0.6
		c0.5-0.3,0.8-0.6,1.1-1c0.3-0.4,0.5-0.9,0.7-1.5h-0.7l-4-11.5h2.2l3.1,10l3.1-10H294.5z"/>
</g>
<polygon class="st6" points="332.9,239.5 450.9,352.6 444.4,359.4 466.5,365.9 459.3,344 452.7,350.8 334.7,237.7 "/>
<rect x="415.5" y="-31.8" class="st7" width="25.3" height="270.4"/>
<g class="st8">
	<path d="M432,231.8c0,1.8-0.6,3.3-1.9,4.3c-1.3,1.1-3.2,1.6-5.8,1.6c-1.3,0-2.4-0.2-3.4-0.5s-1.8-0.8-2.4-1.4
		c-0.6-0.6-1.1-1.3-1.4-2c-0.3-0.8-0.5-1.5-0.5-2.4c0-1,0.1-1.8,0.4-2.5s0.7-1.3,1.2-1.9l1.3,1.2c-0.8,0.9-1.2,1.9-1.2,3
		c0,0.7,0.2,1.4,0.6,2s1,1.1,1.9,1.5s2,0.6,3.5,0.6c2.1,0,3.6-0.3,4.6-1s1.4-1.6,1.4-2.8c0-0.9-0.2-1.8-0.7-2.7h-4.3v2.7l-1.7,0.2
		v-5.1h7.1c0.4,0.7,0.7,1.4,0.9,2.2C431.8,229.8,432,230.7,432,231.8z"/>
	<path d="M421.5,213.6c1.2,0,2.1,0.2,2.8,0.7c0.7,0.5,1.2,1.2,1.5,2c0.3,0.9,0.5,1.9,0.5,3v1.9h5.4v2.1h-14.8v-3.9
		c0-1.8,0.4-3.2,1.1-4.3C418.7,214.1,419.9,213.6,421.5,213.6z M421.5,215.9c-1.1,0-1.9,0.3-2.3,0.9c-0.4,0.6-0.7,1.4-0.7,2.4v2h6.1
		v-2c0-0.7-0.1-1.2-0.3-1.8s-0.5-0.9-1-1.2C422.9,216,422.3,215.9,421.5,215.9z"/>
	<path d="M416.9,201.3h10c1,0,1.9,0.2,2.7,0.6c0.8,0.4,1.4,1,1.8,1.7c0.4,0.8,0.6,1.6,0.6,2.7c0,1-0.2,1.9-0.6,2.7s-1,1.3-1.8,1.7
		s-1.7,0.6-2.7,0.6h-10v-2.1h9.8c2.3,0,3.5-1,3.5-2.9s-1.2-2.9-3.5-2.9h-9.8V201.3z"/>
	<path d="M415.5,178.1l0.2-2.1h15.9v1.8l-1.5,0.2c1.1,0.8,1.7,1.9,1.7,3.2c0,1-0.2,1.8-0.7,2.4c-0.5,0.6-1.2,1.1-2.1,1.4
		c-0.9,0.3-1.9,0.5-3.1,0.5c-1.1,0-2.2-0.2-3.1-0.5s-1.6-0.9-2.1-1.5c-0.5-0.7-0.8-1.5-0.8-2.4c0-1.2,0.4-2.2,1.3-3L415.5,178.1
		L415.5,178.1z M421.7,180.5c0,0.9,0.4,1.6,1.1,2.1s1.8,0.7,3.3,0.7s2.5-0.2,3.2-0.7c0.7-0.4,1.1-1.1,1.1-1.9c0-0.6-0.2-1.1-0.5-1.5
		s-0.7-0.8-1.2-1.1h-5.5c-0.4,0.3-0.8,0.6-1,1.1C421.8,179.6,421.7,180,421.7,180.5z"/>
	<path d="M420.3,162.3l11.4,4c0.8,0.3,1.5,0.6,2.2,1.1c0.7,0.4,1.2,1,1.6,1.7s0.7,1.5,0.8,2.6l-1.6,0.3c-0.1-0.8-0.3-1.4-0.6-1.8
		c-0.3-0.5-0.6-0.8-1-1.1s-0.9-0.5-1.5-0.7v0.7l-11.4,3.9v-2.2l9.8-3.1l-9.8-3.1v-2.3H420.3z"/>
	<path d="M431.7,159h-11.4v-1.8l1.5-0.2c-0.6-0.5-1-1-1.3-1.7s-0.5-1.3-0.5-2c0-1.1,0.3-1.9,0.9-2.4s1.4-0.8,2.5-0.8h8.3v2.1h-7
		c-0.7,0-1.3,0-1.7,0.1c-0.4,0.1-0.8,0.3-1,0.5c-0.2,0.3-0.3,0.6-0.3,1.2c0,0.6,0.2,1.2,0.6,1.7s0.8,0.9,1.2,1.2h8.2L431.7,159
		L431.7,159z"/>
	<path d="M429.1,137.7c0.5,0,0.8-0.1,1-0.2c0.2-0.1,0.4-0.4,0.5-0.7l1.4,0.5c-0.1,0.5-0.2,1-0.5,1.4c-0.2,0.4-0.6,0.7-1.1,0.8
		c0.5,0.4,0.9,0.9,1.2,1.6c0.3,0.6,0.4,1.3,0.4,2c0,1.1-0.3,2-1,2.7c-0.6,0.7-1.5,1-2.6,1c-1.2,0-2.1-0.5-2.7-1.4s-1-2.2-1-4v-1.6
		h-0.9c-0.8,0-1.3,0.2-1.7,0.7c-0.3,0.5-0.5,1.1-0.5,1.9c0,0.4,0,0.8,0.1,1.3s0.2,1.1,0.4,1.6l-1.5,0.5c-0.3-0.7-0.5-1.4-0.6-2
		s-0.2-1.2-0.2-1.8c0-1.5,0.3-2.6,1-3.3s1.6-1.1,2.7-1.1h5.6V137.7z M430.4,142.5c0-0.5-0.1-1-0.4-1.5s-0.7-0.9-1.1-1.2h-2.7v1.5
		c0,1.2,0.2,2,0.6,2.6c0.4,0.5,1,0.8,1.7,0.8C429.7,144.6,430.4,143.9,430.4,142.5z"/>
	<path d="M420.1,125.5c0-0.4,0.1-0.8,0.3-1.1c0.2-0.3,0.5-0.6,0.9-0.8c0.5-0.2,1.1-0.3,2-0.3h8.4v1.9h-8.1c-0.7,0-1.1,0-1.4,0.1
		s-0.4,0.3-0.4,0.7c0,0.3,0.1,0.6,0.3,0.9c0.2,0.3,0.5,0.6,1,0.9h8.7v1.8h-8.1c-0.7,0-1.1,0-1.4,0.1s-0.4,0.3-0.4,0.7
		c0,0.3,0.1,0.6,0.3,0.9c0.2,0.3,0.5,0.6,1,0.9h8.7v1.9h-11.4v-1.6l1.3-0.1c-0.4-0.3-0.8-0.7-1.1-1c-0.3-0.4-0.4-0.9-0.4-1.4
		c0-0.4,0.1-0.8,0.3-1.2c0.2-0.4,0.6-0.6,1.2-0.8c-0.4-0.3-0.8-0.7-1.1-1.1C420.2,126.6,420.1,126.1,420.1,125.5z"/>
	<path d="M414.9,115.8c0-0.4,0.1-0.8,0.4-1c0.3-0.3,0.6-0.4,1-0.4s0.7,0.1,1,0.4s0.4,0.6,0.4,1s-0.1,0.8-0.4,1
		c-0.3,0.3-0.6,0.4-1,0.4s-0.7-0.1-1-0.4C415,116.6,414.9,116.2,414.9,115.8z M420.3,114.3h9.8v-3.2h1.6v8.7h-1.6v-3.5h-8.2v3.3
		h-1.6L420.3,114.3L420.3,114.3z"/>
	<path d="M430.2,102c0-0.6-0.1-1.1-0.3-1.5s-0.4-0.9-0.7-1.3l1.3-1c0.4,0.5,0.8,1.1,1,1.8c0.3,0.7,0.4,1.4,0.4,2.1
		c0,1.1-0.2,2.1-0.7,2.9s-1.2,1.4-2.1,1.8s-1.9,0.6-3.1,0.6c-1.1,0-2.2-0.2-3.1-0.6s-1.6-1-2.1-1.9c-0.5-0.8-0.8-1.8-0.8-2.9
		c0-1.5,0.4-2.8,1.3-3.9l1.3,1c-0.7,1-1,1.9-1,2.9c0,0.9,0.4,1.7,1.1,2.3c0.7,0.6,1.8,0.9,3.3,0.9s2.5-0.3,3.2-0.9
		C429.9,103.7,430.2,103,430.2,102z"/>
	<path d="M420.1,73.8c0-0.4,0.1-0.8,0.3-1.1c0.2-0.3,0.5-0.6,0.9-0.8s1.1-0.3,2-0.3h8.4v1.9h-8.1c-0.7,0-1.1,0-1.4,0.1
		s-0.4,0.3-0.4,0.7c0,0.3,0.1,0.6,0.3,0.9c0.2,0.3,0.5,0.6,1,0.9h8.7V78h-8.1c-0.7,0-1.1,0-1.4,0.1s-0.4,0.3-0.4,0.7
		c0,0.3,0.1,0.6,0.3,0.9c0.2,0.3,0.5,0.6,1,0.9h8.7v1.9h-11.4v-1.6l1.3-0.1c-0.4-0.3-0.8-0.7-1.1-1c-0.3-0.4-0.4-0.9-0.4-1.4
		c0-0.4,0.1-0.8,0.3-1.2c0.2-0.4,0.6-0.6,1.2-0.8c-0.4-0.3-0.8-0.7-1.1-1.1C420.2,74.9,420.1,74.4,420.1,73.8z"/>
	<path d="M426.7,66.9c1.2-0.1,2.2-0.4,2.7-1c0.6-0.6,0.9-1.4,0.9-2.2c0-0.6-0.1-1.1-0.3-1.6c-0.2-0.5-0.4-1-0.8-1.4l1.3-0.9
		c0.4,0.5,0.8,1.1,1,1.8s0.4,1.4,0.4,2.2c0,1.1-0.2,2.1-0.7,2.9c-0.5,0.8-1.2,1.4-2.1,1.8s-1.9,0.6-3.1,0.6c-1.1,0-2.2-0.2-3.1-0.6
		s-1.6-1-2.1-1.8S420,65,420,64c0-1.5,0.5-2.6,1.5-3.5c1-0.8,2.4-1.3,4.1-1.3c0.2,0,0.4,0,0.6,0s0.3,0,0.5,0V66.9z M421.7,63.9
		c0,0.8,0.3,1.5,0.9,2s1.5,0.8,2.7,0.9v-5.6c-1.1,0-2,0.3-2.6,0.7S421.7,63.1,421.7,63.9z"/>
	<path d="M420.1,48c0-0.4,0.1-0.8,0.3-1.1c0.2-0.3,0.5-0.6,0.9-0.8s1.1-0.3,2-0.3h8.4v1.9h-8.1c-0.7,0-1.1,0-1.4,0.1
		s-0.4,0.3-0.4,0.7c0,0.3,0.1,0.6,0.3,0.9c0.2,0.3,0.5,0.6,1,0.9h8.7v1.8h-8.1c-0.7,0-1.1,0-1.4,0.1s-0.4,0.3-0.4,0.7
		c0,0.3,0.1,0.6,0.3,0.9c0.2,0.3,0.5,0.6,1,0.9h8.7v1.9h-11.4V55l1.3-0.1c-0.4-0.3-0.8-0.7-1.1-1c-0.3-0.4-0.4-0.9-0.4-1.4
		c0-0.4,0.1-0.8,0.3-1.2c0.2-0.4,0.6-0.6,1.2-0.8c-0.4-0.3-0.8-0.7-1.1-1.1C420.2,49,420.1,48.5,420.1,48z"/>
	<path d="M420.1,38.3c0-1.6,0.5-2.9,1.6-3.7s2.5-1.3,4.3-1.3c1.2,0,2.2,0.2,3.1,0.6c0.9,0.4,1.6,0.9,2.1,1.7
		c0.5,0.7,0.8,1.6,0.8,2.7c0,1.6-0.5,2.9-1.6,3.7c-1.1,0.9-2.5,1.3-4.3,1.3c-1.2,0-2.2-0.2-3.1-0.6c-0.9-0.4-1.6-0.9-2.1-1.7
		C420.3,40.3,420.1,39.3,420.1,38.3z M421.7,38.3c0,0.9,0.4,1.6,1.1,2.1s1.8,0.7,3.3,0.7s2.5-0.2,3.2-0.7s1-1.2,1-2.1
		c0-0.9-0.3-1.6-1-2.1s-1.8-0.7-3.3-0.7s-2.5,0.2-3.2,0.7S421.7,37.3,421.7,38.3z"/>
	<path d="M431.7,29.7h-1.5V28h-8.3v1.7h-1.5v-3.3L423,26c-0.9-0.4-1.7-1-2.2-1.6S420,23,420,22c0-0.3,0-0.6,0.1-0.9s0.1-0.5,0.2-0.8
		l4,0.3v1.6H422l0,0c0,1.7,1.2,2.9,3.7,3.7h4.6v-2.3h1.5v6.1H431.7z"/>
	<path d="M420.3,7.2l11.4,4c0.8,0.3,1.5,0.6,2.2,1.1c0.7,0.4,1.2,1,1.6,1.7s0.7,1.5,0.8,2.6l-1.6,0.3c-0.1-0.8-0.3-1.4-0.6-1.8
		c-0.3-0.5-0.6-0.8-1-1.1s-0.9-0.5-1.5-0.7V14l-11.4,3.9v-2.2l9.8-3.1l-9.8-3.1V7.2H420.3z"/>
</g>
<rect x="381.8" y="-35.3" class="st7" width="25.3" height="286.1"/>
<g class="st8">
	<path d="M382.9,243c0-1,0.1-1.8,0.4-2.5s0.6-1.3,1.1-1.9l1.4,1.2c-0.4,0.5-0.7,0.9-0.8,1.5c-0.2,0.5-0.3,1.1-0.3,1.6
		c0,0.8,0.2,1.5,0.6,2.2s1,1.2,1.9,1.6c0.9,0.4,2,0.6,3.5,0.6c1.4,0,2.6-0.2,3.4-0.6c0.9-0.4,1.5-0.9,1.9-1.6s0.6-1.4,0.6-2.2
		s-0.1-1.5-0.4-2s-0.5-1-0.9-1.4l1.4-1.1c0.5,0.5,0.9,1.1,1.2,1.8s0.5,1.6,0.5,2.7c0,1.2-0.3,2.3-0.9,3.3s-1.5,1.8-2.6,2.3
		c-1.1,0.6-2.5,0.9-4.2,0.9s-3.1-0.3-4.2-0.9c-1.1-0.6-2-1.4-2.6-2.3S382.9,244.2,382.9,243z"/>
	<path d="M383.2,226.3h10c1,0,1.9,0.2,2.7,0.6c0.8,0.4,1.4,1,1.8,1.7c0.4,0.8,0.6,1.6,0.6,2.7c0,1-0.2,1.9-0.6,2.7s-1,1.3-1.8,1.7
		s-1.7,0.6-2.7,0.6h-10v-2.1h9.8c2.3,0,3.5-1,3.5-2.9s-1.2-2.9-3.5-2.9h-9.8V226.3z"/>
	<path d="M390.5,212.9c1.5,0,2.8,0.2,3.8,0.6c1,0.4,1.7,0.9,2.3,1.6s0.9,1.4,1.1,2.2s0.3,1.6,0.3,2.4v3.5h-14.8v-3.3
		c0-0.9,0.1-1.7,0.3-2.6c0.2-0.8,0.6-1.6,1.1-2.3s1.3-1.2,2.2-1.6C387.7,213.1,389,212.9,390.5,212.9z M390.5,215.2
		c-1.2,0-2.2,0.1-3,0.4s-1.3,0.6-1.7,1c-0.4,0.4-0.6,0.9-0.8,1.4c-0.1,0.5-0.2,1-0.2,1.5v1.6h11.5v-1.6c0-0.5-0.1-1-0.2-1.6
		s-0.5-1-0.9-1.4s-1-0.7-1.8-1C392.7,215.3,391.7,215.2,390.5,215.2z"/>
	<path d="M394.3,202.7v5.6l3.7,1.1v2.1l-14.8-4.8V204l14.8-4.8v2.3L394.3,202.7z M392.6,207.9v-4.6l-7.7,2.3L392.6,207.9z"/>
	<path d="M398,183.9h-1.5v-1.7h-8.3v1.7h-1.5v-3.3l2.7-0.4c-0.9-0.4-1.7-1-2.2-1.6s-0.8-1.4-0.8-2.5c0-0.3,0-0.6,0.1-0.9
		c0.1-0.3,0.1-0.5,0.2-0.8l4,0.3v1.6h-2.4l0,0c0,1.7,1.2,2.9,3.7,3.7h4.6v-2.3h1.5v6.2H398z"/>
	<path d="M386.7,169.1h8c0.7,0,1.2-0.1,1.5-0.4c0.3-0.3,0.5-0.7,0.5-1.4c0-0.6-0.2-1.1-0.5-1.7c-0.3-0.5-0.7-0.9-1.2-1.2h-8.3v-2.1
		H398v1.8l-1.5,0.2c0.6,0.4,1,1,1.3,1.6s0.5,1.3,0.5,2c0,1.1-0.3,1.9-0.9,2.5c-0.6,0.5-1.4,0.8-2.5,0.8h-8.2L386.7,169.1
		L386.7,169.1z"/>
	<path d="M398,158.2h-11.4v-1.8l1.5-0.2c-0.6-0.5-1-1-1.3-1.7s-0.5-1.3-0.5-2c0-1.1,0.3-1.9,0.9-2.4s1.4-0.8,2.5-0.8h8.3v2.1h-7
		c-0.7,0-1.3,0-1.7,0.1c-0.4,0.1-0.8,0.3-1,0.5c-0.2,0.3-0.3,0.6-0.3,1.2c0,0.6,0.2,1.2,0.6,1.7s0.8,0.9,1.2,1.2h8.2L398,158.2
		L398,158.2z"/>
	<path d="M397.4,136.1c0.3,0.4,0.5,0.9,0.6,1.4c0.2,0.6,0.2,1.1,0.2,1.7c0,1.3-0.3,2.2-1,2.9s-1.5,1-2.6,1h-6.5v2.6h-1.6v-2.6h-2.6
		l-0.2-2.1h2.8v-3.9l1.6,0.2v3.6h6.5c0.6,0,1.1-0.2,1.4-0.5s0.5-0.9,0.5-1.6c0-0.4,0-0.8-0.1-1.2s-0.2-0.7-0.4-1L397.4,136.1z"/>
	<path d="M381.2,128c0-0.4,0.1-0.8,0.4-1c0.3-0.3,0.6-0.4,1-0.4s0.7,0.1,1,0.4s0.4,0.6,0.4,1c0,0.4-0.1,0.8-0.4,1
		c-0.3,0.3-0.6,0.4-1,0.4s-0.7-0.1-1-0.4C381.4,128.7,381.2,128.4,381.2,128z M386.7,126.4h9.8v-3.2h1.6v8.7h-1.6v-3.5h-8.2v3.3
		h-1.6L386.7,126.4L386.7,126.4z"/>
	<path d="M386.4,111.8c0-0.4,0.1-0.8,0.3-1.1c0.2-0.3,0.5-0.6,0.9-0.8s1.1-0.3,2-0.3h8.4v1.9h-8.1c-0.7,0-1.1,0-1.4,0.1
		s-0.4,0.3-0.4,0.7c0,0.3,0.1,0.6,0.3,0.9c0.2,0.3,0.5,0.6,1,0.9h8.7v1.8H390c-0.7,0-1.1,0-1.4,0.1s-0.4,0.3-0.4,0.7
		c0,0.3,0.1,0.6,0.3,0.9c0.2,0.3,0.5,0.6,1,0.9h8.7v1.9h-11.4v-1.6l1.3-0.1c-0.4-0.3-0.8-0.7-1.1-1c-0.3-0.4-0.4-0.9-0.4-1.4
		c0-0.4,0.1-0.8,0.3-1.2c0.2-0.4,0.6-0.6,1.2-0.8c-0.4-0.3-0.8-0.7-1.1-1.1C386.5,112.8,386.4,112.4,386.4,111.8z"/>
	<path d="M393,104.8c1.2-0.1,2.2-0.4,2.7-1c0.6-0.6,0.9-1.4,0.9-2.2c0-0.6-0.1-1.1-0.3-1.6c-0.2-0.5-0.4-1-0.8-1.4l1.3-0.9
		c0.4,0.5,0.8,1.1,1,1.8c0.2,0.7,0.4,1.4,0.4,2.2c0,1.1-0.2,2.1-0.7,2.9s-1.2,1.4-2.1,1.8s-1.9,0.6-3.1,0.6c-1.1,0-2.2-0.2-3.1-0.6
		s-1.6-1-2.1-1.8s-0.8-1.7-0.8-2.7c0-1.5,0.5-2.6,1.5-3.5c1-0.8,2.4-1.3,4.1-1.3c0.2,0,0.4,0,0.6,0s0.3,0,0.5,0V104.8z M388,101.9
		c0,0.8,0.3,1.5,0.9,2s1.5,0.8,2.7,0.9v-5.6c-1.1,0-2,0.3-2.6,0.7S388,101.1,388,101.9z"/>
	<path d="M386.4,73c0-0.4,0.1-0.8,0.3-1.1c0.2-0.3,0.5-0.6,0.9-0.8s1.1-0.3,2-0.3h8.4v1.9h-8.1c-0.7,0-1.1,0-1.4,0.1
		s-0.4,0.3-0.4,0.7c0,0.3,0.1,0.6,0.3,0.9c0.2,0.3,0.5,0.6,1,0.9h8.7v1.8H390c-0.7,0-1.1,0-1.4,0.1s-0.4,0.3-0.4,0.7
		c0,0.3,0.1,0.6,0.3,0.9c0.2,0.3,0.5,0.6,1,0.9h8.7v1.9h-11.4V80l1.3-0.1c-0.4-0.3-0.8-0.7-1.1-1c-0.3-0.4-0.4-0.9-0.4-1.4
		c0-0.4,0.1-0.8,0.3-1.2c0.2-0.4,0.6-0.6,1.2-0.8c-0.4-0.3-0.8-0.7-1.1-1.1C386.5,74.1,386.4,73.6,386.4,73z"/>
	<path d="M393,66.1c1.2-0.1,2.2-0.4,2.7-1c0.6-0.6,0.9-1.4,0.9-2.2c0-0.6-0.1-1.1-0.3-1.6c-0.2-0.5-0.4-1-0.8-1.4l1.3-0.9
		c0.4,0.5,0.8,1.1,1,1.8s0.4,1.4,0.4,2.2c0,1.1-0.2,2.1-0.7,2.9c-0.5,0.8-1.2,1.4-2.1,1.8s-1.9,0.6-3.1,0.6c-1.1,0-2.2-0.2-3.1-0.6
		s-1.6-1-2.1-1.8s-0.8-1.7-0.8-2.7c0-1.5,0.5-2.6,1.5-3.5c1-0.8,2.4-1.3,4.1-1.3c0.2,0,0.4,0,0.6,0s0.3,0,0.5,0V66.1z M388,63.1
		c0,0.8,0.3,1.5,0.9,2s1.5,0.8,2.7,0.9v-5.6c-1.1,0-2,0.3-2.6,0.7S388,62.3,388,63.1z"/>
	<path d="M386.4,47.2c0-0.4,0.1-0.8,0.3-1.1c0.2-0.3,0.5-0.6,0.9-0.8s1.1-0.3,2-0.3h8.4v1.9h-8.1c-0.7,0-1.1,0-1.4,0.1
		s-0.4,0.3-0.4,0.7c0,0.3,0.1,0.6,0.3,0.9c0.2,0.3,0.5,0.6,1,0.9h8.7v1.8H390c-0.7,0-1.1,0-1.4,0.1s-0.4,0.3-0.4,0.7
		c0,0.3,0.1,0.6,0.3,0.9c0.2,0.3,0.5,0.6,1,0.9h8.7v1.9h-11.4v-1.6l1.3-0.1c-0.4-0.3-0.8-0.7-1.1-1c-0.3-0.4-0.4-0.9-0.4-1.4
		c0-0.4,0.1-0.8,0.3-1.2c0.2-0.4,0.6-0.6,1.2-0.8c-0.4-0.3-0.8-0.7-1.1-1.1C386.5,48.2,386.4,47.8,386.4,47.2z"/>
	<path d="M386.4,37.5c0-1.6,0.5-2.9,1.6-3.7s2.5-1.3,4.3-1.3c1.2,0,2.2,0.2,3.1,0.6c0.9,0.4,1.6,0.9,2.1,1.7
		c0.5,0.7,0.8,1.6,0.8,2.7c0,1.6-0.5,2.9-1.6,3.7c-1.1,0.9-2.5,1.3-4.3,1.3c-1.2,0-2.2-0.2-3.1-0.6c-0.9-0.4-1.6-0.9-2.1-1.7
		C386.6,39.5,386.4,38.6,386.4,37.5z M388,37.5c0,0.9,0.4,1.6,1.1,2.1s1.8,0.7,3.3,0.7s2.5-0.2,3.2-0.7s1-1.2,1-2.1
		c0-0.9-0.3-1.6-1-2.1s-1.8-0.7-3.3-0.7s-2.5,0.2-3.2,0.7S388,36.6,388,37.5z"/>
	<path d="M398,28.9h-1.5v-1.7h-8.3v1.7h-1.5v-3.3l2.7-0.4c-0.9-0.4-1.7-1-2.2-1.6s-0.8-1.4-0.8-2.4c0-0.3,0-0.6,0.1-0.9
		s0.1-0.5,0.2-0.8l4,0.3v1.6h-2.4l0,0c0,1.7,1.2,2.9,3.7,3.7h4.6v-2.3h1.5v6.1H398z"/>
	<path d="M386.7,6.4l11.4,4c0.8,0.3,1.5,0.6,2.2,1.1c0.7,0.4,1.2,1,1.6,1.7s0.7,1.5,0.8,2.6l-1.6,0.3c-0.1-0.8-0.3-1.4-0.6-1.8
		c-0.3-0.5-0.6-0.8-1-1.1s-0.9-0.5-1.5-0.7V13l-11.4,3.9v-2.2l9.8-3.1l-9.8-3.1V6.4H386.7z"/>
</g>
<rect x="15" y="15.9" class="st7" width="95.3" height="72.3"/>
<g class="st8">
	<path d="M27.2,24.8c0,1.5-0.2,2.9-0.6,4.1s-1.1,2.1-1.9,2.8s-1.9,1-3.1,1s-2.3-0.3-3.1-1c-0.8-0.6-1.5-1.6-1.9-2.7S16,26.4,16,24.9
		s0.2-2.9,0.6-4.1s1.1-2.1,1.9-2.8c0.8-0.7,1.9-1,3.1-1s2.3,0.3,3.1,1c0.8,0.6,1.5,1.6,1.9,2.7C27,21.9,27.2,23.3,27.2,24.8z
		 M25,24.8c0-2-0.3-3.5-0.8-4.5s-1.4-1.5-2.6-1.5s-2.1,0.5-2.6,1.6c-0.5,1-0.8,2.5-0.8,4.5s0.3,3.5,0.8,4.5s1.4,1.5,2.6,1.5
		s2.1-0.5,2.6-1.5C24.7,28.3,25,26.8,25,24.8z"/>
	<path d="M35,16.2v13.2c0,0.6,0.2,0.9,0.5,1.2s0.8,0.3,1.3,0.3c0.3,0,0.7,0,1-0.1s0.6-0.2,0.9-0.3l0.5,1.5c-0.3,0.2-0.7,0.3-1.2,0.4
		s-1,0.2-1.6,0.2c-1.1,0-1.9-0.3-2.6-0.9c-0.6-0.6-1-1.4-1-2.5V17.8h-3.5v-1.6C29.3,16.2,35,16.2,35,16.2z"/>
	<path d="M50.2,15.9l2.1,0.3v16.2h-1.8l-0.2-1.5c-0.8,1.2-1.9,1.8-3.3,1.8c-1,0-1.8-0.3-2.5-0.8s-1.1-1.2-1.4-2.1s-0.5-2-0.5-3.2
		s0.2-2.2,0.5-3.1c0.4-0.9,0.9-1.6,1.6-2.1s1.5-0.8,2.4-0.8c1.2,0,2.2,0.4,3,1.3v-6H50.2z M47.8,22.2c-0.9,0-1.6,0.4-2.1,1.1
		S45,25.1,45,26.6s0.2,2.6,0.7,3.3c0.4,0.7,1.1,1.1,1.9,1.1c0.6,0,1.1-0.2,1.6-0.5s0.8-0.8,1.1-1.2v-5.6c-0.3-0.4-0.7-0.8-1.1-1
		S48.3,22.2,47.8,22.2z"/>
</g>
<g class="st8">
	<path d="M18.8,52.9c0.1,1.3,0.4,2.2,1,2.8s1.4,0.9,2.2,0.9c0.6,0,1.1-0.1,1.6-0.3s1-0.4,1.5-0.8l1,1.3c-0.5,0.4-1.2,0.8-1.9,1
		c-0.7,0.3-1.4,0.4-2.2,0.4c-1.2,0-2.1-0.3-2.9-0.8s-1.4-1.2-1.8-2.1c-0.4-0.9-0.6-2-0.6-3.2s0.2-2.2,0.6-3.1c0.4-0.9,1-1.6,1.8-2.2
		c0.8-0.5,1.7-0.8,2.7-0.8c1.5,0,2.7,0.5,3.5,1.5s1.3,2.4,1.3,4.2c0,0.2,0,0.4,0,0.6c0,0.2,0,0.3,0,0.5L18.8,52.9L18.8,52.9z
		 M21.8,47.8c-0.8,0-1.5,0.3-2,0.9c-0.5,0.6-0.9,1.5-0.9,2.7h5.7c0-1.2-0.3-2.1-0.8-2.7S22.6,47.8,21.8,47.8z"/>
	<path d="M35,41.8V55c0,0.6,0.2,0.9,0.5,1.2s0.8,0.3,1.3,0.3c0.3,0,0.7,0,1-0.1s0.6-0.2,0.9-0.3l0.5,1.5c-0.3,0.2-0.7,0.3-1.2,0.4
		s-1,0.2-1.6,0.2c-1.1,0-1.9-0.3-2.6-0.9c-0.6-0.6-1-1.4-1-2.5V43.4h-3.5v-1.6C29.3,41.8,35,41.8,35,41.8z"/>
	<path d="M45.1,52.9c0.1,1.3,0.4,2.2,1,2.8s1.4,0.9,2.2,0.9c0.6,0,1.1-0.1,1.6-0.3s1-0.4,1.5-0.8l1,1.3c-0.5,0.4-1.2,0.8-1.9,1
		c-0.7,0.3-1.4,0.4-2.2,0.4c-1.2,0-2.1-0.3-2.9-0.8c-0.8-0.5-1.4-1.2-1.8-2.1c-0.4-0.9-0.6-2-0.6-3.2s0.2-2.2,0.6-3.1
		c0.4-0.9,1-1.6,1.8-2.2c0.8-0.5,1.7-0.8,2.7-0.8c1.5,0,2.7,0.5,3.5,1.5s1.3,2.4,1.3,4.2c0,0.2,0,0.4,0,0.6c0,0.2,0,0.3,0,0.5
		L45.1,52.9L45.1,52.9z M48.1,47.8c-0.8,0-1.5,0.3-2,0.9c-0.5,0.6-0.9,1.5-0.9,2.7h5.7c0-1.2-0.3-2.1-0.8-2.7S48.9,47.8,48.1,47.8z"
		/>
	<path d="M64.3,46.2c0.4,0,0.8,0.1,1.1,0.3c0.3,0.2,0.6,0.5,0.8,1c0.2,0.5,0.3,1.1,0.3,2V58h-1.9v-8.3c0-0.7,0-1.2-0.1-1.5
		s-0.3-0.4-0.7-0.4c-0.3,0-0.6,0.1-1,0.3c-0.3,0.2-0.6,0.5-0.9,1V58h-1.8v-8.3c0-0.7,0-1.2-0.1-1.5s-0.3-0.4-0.7-0.4
		c-0.3,0-0.6,0.1-1,0.3c-0.3,0.2-0.6,0.5-0.9,1V58h-1.9V46.4h1.6l0.1,1.3c0.3-0.4,0.7-0.8,1.1-1.1c0.4-0.3,0.9-0.4,1.4-0.4
		c0.4,0,0.8,0.1,1.2,0.3s0.7,0.6,0.8,1.2c0.3-0.4,0.7-0.8,1.1-1.1C63.2,46.3,63.7,46.2,64.3,46.2z"/>
	<path d="M71.3,52.9c0.1,1.3,0.4,2.2,1,2.8s1.4,0.9,2.2,0.9c0.6,0,1.1-0.1,1.6-0.3s1-0.4,1.5-0.8l1,1.3c-0.5,0.4-1.2,0.8-1.9,1
		c-0.7,0.3-1.4,0.4-2.2,0.4c-1.2,0-2.1-0.3-2.9-0.8s-1.4-1.2-1.8-2.1c-0.4-0.9-0.6-2-0.6-3.2s0.2-2.2,0.6-3.1c0.4-0.9,1-1.6,1.8-2.2
		c0.8-0.5,1.7-0.8,2.7-0.8c1.5,0,2.7,0.5,3.5,1.5s1.3,2.4,1.3,4.2c0,0.2,0,0.4,0,0.6c0,0.2,0,0.3,0,0.5L71.3,52.9L71.3,52.9z
		 M74.3,47.8c-0.8,0-1.5,0.3-2,0.9c-0.5,0.6-0.9,1.5-0.9,2.7h5.7c0-1.2-0.3-2.1-0.8-2.7C75.8,48.1,75.2,47.8,74.3,47.8z"/>
	<path d="M82.8,58V46.4h1.8l0.2,1.6c0.5-0.6,1.1-1,1.7-1.4s1.4-0.5,2-0.5c1.1,0,1.9,0.3,2.5,0.9c0.5,0.6,0.8,1.4,0.8,2.5V58h-2.1
		v-7.1c0-0.7,0-1.3-0.1-1.8s-0.3-0.8-0.5-1s-0.7-0.3-1.2-0.3c-0.6,0-1.2,0.2-1.7,0.6c-0.5,0.4-0.9,0.8-1.2,1.2V58H82.8z"/>
	<path d="M105.3,57.4c-0.4,0.3-0.9,0.5-1.5,0.6c-0.6,0.2-1.2,0.2-1.7,0.2c-1.3,0-2.3-0.3-2.9-1c-0.7-0.7-1-1.5-1-2.6V48h-2.6v-1.6
		h2.6v-2.6l2.1-0.3v2.9h3.9L104,48h-3.7v6.6c0,0.6,0.2,1.1,0.5,1.4c0.3,0.3,0.9,0.5,1.6,0.5c0.4,0,0.8,0,1.2-0.1
		c0.4-0.1,0.7-0.2,1-0.4L105.3,57.4z"/>
</g>
<g class="st8">
	<path d="M25.6,80.9c0,0.5,0.1,0.8,0.2,1s0.4,0.4,0.7,0.5L26,83.8c-0.5-0.1-1-0.2-1.4-0.5s-0.7-0.6-0.9-1.1
		c-0.4,0.5-0.9,0.9-1.6,1.2c-0.6,0.3-1.3,0.4-2.1,0.4c-1.2,0-2.1-0.3-2.7-1s-1-1.5-1-2.6c0-1.2,0.5-2.1,1.4-2.8s2.3-1,4-1h1.7v-0.9
		c0-0.8-0.2-1.4-0.7-1.7c-0.5-0.3-1.1-0.5-2-0.5c-0.4,0-0.8,0-1.4,0.1c-0.5,0.1-1.1,0.2-1.7,0.4l-0.5-1.5c0.7-0.3,1.4-0.5,2-0.6
		c0.7-0.1,1.3-0.2,1.8-0.2c1.5,0,2.6,0.3,3.3,1c0.7,0.7,1.1,1.6,1.1,2.8v5.6H25.6z M20.8,82.3c0.5,0,1-0.1,1.5-0.4s0.9-0.7,1.2-1.2
		v-2.8H22c-1.2,0-2.1,0.2-2.6,0.6s-0.8,1-0.8,1.7C18.7,81.6,19.4,82.3,20.8,82.3z"/>
	<path d="M30.4,83.6V82h1.8v-8.4h-1.8V72h3.4l0.4,2.7c0.4-1,1-1.7,1.6-2.2s1.5-0.8,2.5-0.8c0.3,0,0.6,0,0.9,0.1s0.5,0.1,0.8,0.2
		l-0.3,4H38v-2.4l0,0c-1.7,0-3,1.2-3.7,3.7V82h2.3v1.6H30.4z"/>
	<path d="M43.5,83.6V82h1.8v-8.4h-1.8V72h3.4l0.4,2.7c0.4-1,1-1.7,1.6-2.2s1.5-0.8,2.5-0.8c0.3,0,0.6,0,0.9,0.1s0.5,0.1,0.8,0.2
		l-0.3,4h-1.6v-2.4l0,0c-1.7,0-3,1.2-3.7,3.7V82h2.3v1.6H43.5z"/>
	<path d="M65,80.9c0,0.5,0.1,0.8,0.2,1s0.4,0.4,0.7,0.5l-0.5,1.4c-0.5-0.1-1-0.2-1.4-0.5s-0.7-0.6-0.9-1.1c-0.4,0.5-0.9,0.9-1.6,1.2
		c-0.6,0.3-1.3,0.4-2.1,0.4c-1.2,0-2.1-0.3-2.7-1s-1-1.5-1-2.6c0-1.2,0.5-2.1,1.4-2.8s2.3-1,4-1h1.7v-0.9c0-0.8-0.2-1.4-0.7-1.7
		c-0.5-0.3-1.1-0.5-2-0.5c-0.4,0-0.8,0-1.4,0.1c-0.5,0.1-1.1,0.2-1.7,0.4l-0.5-1.5c0.7-0.3,1.4-0.5,2-0.6c0.7-0.1,1.3-0.2,1.8-0.2
		c1.5,0,2.6,0.3,3.3,1c0.7,0.7,1.1,1.6,1.1,2.8v5.6H65z M60.1,82.3c0.5,0,1-0.1,1.5-0.4s0.9-0.7,1.2-1.2v-2.8h-1.5
		c-1.2,0-2.1,0.2-2.6,0.6s-0.8,1-0.8,1.7C58,81.6,58.7,82.3,60.1,82.3z"/>
	<path d="M79.5,72l-4,11.6c-0.3,0.8-0.6,1.6-1.1,2.2s-1,1.2-1.7,1.6s-1.6,0.7-2.6,0.8l-0.3-1.6c0.8-0.1,1.4-0.3,1.9-0.6
		c0.5-0.3,0.8-0.6,1.1-1c0.3-0.4,0.5-0.9,0.7-1.5h-0.7l-4-11.5H71l3.1,10l3.1-10H79.5z"/>
</g>
</svg>
