<svg id="Calque_1" data-name="Calque 1" xmlns="http://www.w3.org/2000/svg" viewBox="0 0 405.08 460.06"><defs><style>.cls-1{fill:#fff;stroke:#1d1d1b;stroke-miterlimit:10;}.cls-2{fill:#1d1d1b;}.cls-3{fill:none;}</style></defs><rect class="cls-1" x="45.16" y="0.5" width="44.93" height="44.93"/><rect class="cls-1" x="90.09" y="0.5" width="44.93" height="44.93"/><rect class="cls-1" x="135.02" y="0.5" width="44.93" height="44.93"/><rect class="cls-1" x="179.94" y="0.5" width="44.93" height="44.93"/><rect class="cls-1" x="224.87" y="0.5" width="44.93" height="44.93"/><rect class="cls-1" x="269.8" y="0.5" width="44.93" height="44.93"/><rect class="cls-1" x="314.72" y="0.5" width="44.93" height="44.93"/><rect class="cls-1" x="359.65" y="0.5" width="44.93" height="44.93"/><rect class="cls-1" x="44.7" y="138.54" width="44.93" height="44.93"/><rect class="cls-1" x="89.62" y="138.54" width="44.93" height="44.93"/><rect class="cls-1" x="134.55" y="138.54" width="44.93" height="44.93"/><rect class="cls-1" x="179.48" y="138.54" width="44.93" height="44.93"/><rect class="cls-1" x="224.4" y="138.54" width="44.93" height="44.93"/><rect class="cls-1" x="269.33" y="138.54" width="44.93" height="44.93"/><rect class="cls-1" x="314.26" y="138.54" width="44.93" height="44.93"/><rect class="cls-1" x="359.19" y="138.54" width="44.93" height="44.93"/><rect class="cls-1" x="45.16" y="276.59" width="44.93" height="44.93"/><rect class="cls-1" x="90.09" y="276.59" width="44.93" height="44.93"/><rect class="cls-1" x="135.02" y="276.59" width="44.93" height="44.93"/><rect class="cls-1" x="179.94" y="276.59" width="44.93" height="44.93"/><rect class="cls-1" x="224.87" y="276.59" width="44.93" height="44.93"/><rect class="cls-1" x="269.8" y="276.59" width="44.93" height="44.93"/><rect class="cls-1" x="314.72" y="276.59" width="44.93" height="44.93"/><rect class="cls-1" x="358.95" y="276.59" width="44.93" height="44.93"/><rect class="cls-1" x="44.7" y="414.63" width="44.93" height="44.93"/><rect class="cls-1" x="89.62" y="414.63" width="44.93" height="44.93"/><rect class="cls-1" x="134.55" y="414.63" width="44.93" height="44.93"/><rect class="cls-1" x="179.48" y="414.63" width="44.93" height="44.93"/><rect class="cls-1" x="224.4" y="414.63" width="44.93" height="44.93"/><rect class="cls-1" x="269.33" y="414.63" width="44.93" height="44.93"/><rect class="cls-1" x="314.26" y="414.63" width="44.93" height="44.93"/><rect class="cls-1" x="359.19" y="414.63" width="44.93" height="44.93"/><circle class="cls-1" cx="67.63" cy="91.99" r="16.25"/><circle class="cls-1" cx="112.55" cy="91.99" r="16.25"/><circle class="cls-1" cx="157.48" cy="91.99" r="16.25"/><circle class="cls-1" cx="202.41" cy="91.99" r="16.25"/><circle class="cls-1" cx="67.16" cy="230.03" r="16.25"/><circle class="cls-1" cx="112.55" cy="230.03" r="16.25"/><circle class="cls-1" cx="67.63" cy="368.07" r="16.25"/><path class="cls-2" d="M139.69,266.11a4.54,4.54,0,0,1,4.11,2.23,15.06,15.06,0,0,1,0,12.68,4.9,4.9,0,0,1-8.22,0,15.15,15.15,0,0,1,0-12.68A4.56,4.56,0,0,1,139.69,266.11Zm0,1.81a2.56,2.56,0,0,0-2.31,1.58,11.81,11.81,0,0,0-.83,5.17,18.16,18.16,0,0,0,.37,4.17l4.9-9.9A2.44,2.44,0,0,0,139.69,267.92Zm3.15,6.75a18.7,18.7,0,0,0-.35-4.06l-4.86,9.88a2.44,2.44,0,0,0,2.06.95,2.56,2.56,0,0,0,2.33-1.58A12.09,12.09,0,0,0,142.84,274.67Z" transform="translate(-72.53 -181.94)"/><path class="cls-2" d="M139.69,404.16a4.55,4.55,0,0,1,4.11,2.22,15.06,15.06,0,0,1,0,12.68,4.9,4.9,0,0,1-8.22,0,15.15,15.15,0,0,1,0-12.68A4.57,4.57,0,0,1,139.69,404.16Zm0,1.81a2.55,2.55,0,0,0-2.31,1.57,11.84,11.84,0,0,0-.83,5.17,18.25,18.25,0,0,0,.37,4.18l4.9-9.9A2.44,2.44,0,0,0,139.69,406Zm3.15,6.74a18.54,18.54,0,0,0-.35-4l-4.86,9.87a2.44,2.44,0,0,0,2.06,1A2.56,2.56,0,0,0,142,417.9,12.09,12.09,0,0,0,142.84,412.71Z" transform="translate(-72.53 -181.94)"/><path class="cls-2" d="M190.44,419.14V421H180.7v-1.85h4.05V406.88L181,409.16l-1-1.63,5-3.07h2v14.68Z" transform="translate(-72.53 -181.94)"/><path class="cls-2" d="M190.44,281.1V283H180.7V281.1h4.05V268.84L181,271.12l-1-1.64,5-3.07h2V281.1Z" transform="translate(-72.53 -181.94)"/><path class="cls-2" d="M230.84,266.11a5.73,5.73,0,0,1,2.75.62,4.34,4.34,0,0,1,1.75,1.67,4.65,4.65,0,0,1,.6,2.36,6.31,6.31,0,0,1-.39,2.18,8.89,8.89,0,0,1-1.24,2.24,25.38,25.38,0,0,1-2.25,2.6c-.93,1-2.06,2-3.41,3.26h7.67L236,283H226v-1.81q2.29-2.2,3.76-3.73a28.51,28.51,0,0,0,2.29-2.64,8,8,0,0,0,1.14-2,5.53,5.53,0,0,0,.33-1.89,2.9,2.9,0,0,0-.75-2.1,2.8,2.8,0,0,0-2.09-.76,4,4,0,0,0-1.94.42,5.68,5.68,0,0,0-1.54,1.33l-1.53-1.19a6.7,6.7,0,0,1,2.19-1.83A6.54,6.54,0,0,1,230.84,266.11Z" transform="translate(-72.53 -181.94)"/><path class="cls-2" d="M139.69,542.2a4.54,4.54,0,0,1,4.11,2.23,15,15,0,0,1,0,12.67,4.89,4.89,0,0,1-8.22,0,15.13,15.13,0,0,1,0-12.67A4.56,4.56,0,0,1,139.69,542.2Zm0,1.81a2.57,2.57,0,0,0-2.31,1.57,11.86,11.86,0,0,0-.83,5.18,18.22,18.22,0,0,0,.37,4.17l4.9-9.9A2.44,2.44,0,0,0,139.69,544Zm3.15,6.75a18.64,18.64,0,0,0-.35-4.06l-4.86,9.88a2.44,2.44,0,0,0,2.06.94A2.55,2.55,0,0,0,142,556,12.15,12.15,0,0,0,142.84,550.76Z" transform="translate(-72.53 -181.94)"/><path class="cls-2" d="M274.2,266.11a6.16,6.16,0,0,1,2.75.57,4.54,4.54,0,0,1,1.79,1.51,3.66,3.66,0,0,1,.63,2.07,3.7,3.7,0,0,1-.95,2.57,4.23,4.23,0,0,1-2.3,1.31,5,5,0,0,1,1.86.56,3.72,3.72,0,0,1,1.39,1.34,4.12,4.12,0,0,1,.53,2.16,4.73,4.73,0,0,1-.73,2.57,5.1,5.1,0,0,1-2.05,1.81,6.64,6.64,0,0,1-3.07.67,7.64,7.64,0,0,1-2.85-.55,5.61,5.61,0,0,1-2.35-1.71l1.48-1.25A4.18,4.18,0,0,0,272,281a5,5,0,0,0,2,.41,3.71,3.71,0,0,0,2.59-.86,3.06,3.06,0,0,0,.94-2.36,2.69,2.69,0,0,0-.94-2.37,4,4,0,0,0-2.39-.67h-1.4l.28-1.75h1a3.74,3.74,0,0,0,1.49-.3,2.65,2.65,0,0,0,1.13-.91,2.71,2.71,0,0,0,.43-1.56,2.38,2.38,0,0,0-.88-2,3.32,3.32,0,0,0-2.13-.69,4.32,4.32,0,0,0-1.86.38,6,6,0,0,0-1.61,1.14l-1.25-1.37a6.91,6.91,0,0,1,4.85-2Z" transform="translate(-72.53 -181.94)"/><line class="cls-3" x1="67.16" y1="51.04" x2="67.63" y2="64.81"/><line class="cls-3" x1="112.09" y1="51.77" x2="112.09" y2="66.26"/><line class="cls-3" y1="45.43" y2="59.01"/><polygon class="cls-2" points="66.56 49.87 66.53 58.67 66.53 59.04 61.9 59.02 67.13 68.16 72.42 59.06 67.8 59.04 67.8 58.68 67.83 49.87 66.56 49.87"/><polygon class="cls-2" points="111.49 50.04 111.45 58.84 111.45 59.21 106.82 59.19 112.05 68.33 117.35 59.23 112.72 59.22 112.72 58.85 112.76 50.04 111.49 50.04"/><polygon class="cls-2" points="156.88 49.87 156.85 58.67 156.85 59.04 152.22 59.02 157.45 68.16 162.75 59.06 158.12 59.04 158.12 58.68 158.15 49.87 156.88 49.87"/><polygon class="cls-2" points="201.34 50.38 201.31 59.19 201.31 59.55 196.68 59.54 201.91 68.67 207.21 59.58 202.58 59.56 202.58 59.19 202.61 50.38 201.34 50.38"/><polygon class="cls-2" points="66.79 114.24 66.76 123.04 66.76 123.41 62.13 123.39 67.36 132.53 72.66 123.44 68.03 123.42 68.03 123.05 68.06 114.24 66.79 114.24"/><polygon class="cls-2" points="111.24 114.24 111.21 123.04 111.21 123.41 106.58 123.39 111.81 132.53 117.11 123.44 112.48 123.42 112.48 123.05 112.51 114.24 111.24 114.24"/><polygon class="cls-2" points="156.63 114.58 156.6 123.39 156.6 123.75 151.97 123.74 157.2 132.88 162.5 123.78 157.87 123.76 157.87 123.39 157.9 114.59 156.63 114.58"/><polygon class="cls-2" points="201.1 114.24 201.06 123.04 201.06 123.41 196.43 123.39 201.66 132.53 206.96 123.44 202.33 123.42 202.33 123.05 202.37 114.24 201.1 114.24"/><polygon class="cls-2" points="67.03 189.48 66.99 198.28 66.99 198.65 62.36 198.63 67.59 207.77 72.89 198.67 68.26 198.66 68.26 198.29 68.3 189.48 67.03 189.48"/><polygon class="cls-2" points="111.95 189.65 111.92 198.46 111.92 198.82 107.29 198.81 112.52 207.94 117.82 198.84 113.19 198.83 113.19 198.46 113.22 189.65 111.95 189.65"/><polygon class="cls-2" points="66.79 252.28 66.76 261.09 66.76 261.46 62.13 261.44 67.36 270.58 72.66 261.48 68.03 261.46 68.03 261.09 68.06 252.29 66.79 252.28"/><polygon class="cls-2" points="111.72 252.45 111.68 261.26 111.68 261.63 107.05 261.61 112.28 270.75 117.58 261.65 112.95 261.63 112.95 261.26 112.98 252.46 111.72 252.45"/><polygon class="cls-2" points="67.03 327.52 66.99 336.33 66.99 336.69 62.36 336.68 67.59 345.82 72.89 336.72 68.26 336.7 68.26 336.33 68.3 327.53 67.03 327.52"/><polygon class="cls-2" points="67.03 390.33 66.99 399.13 66.99 399.5 62.36 399.48 67.59 408.62 72.89 399.52 68.26 399.5 68.26 399.14 68.3 390.33 67.03 390.33"/><polygon class="cls-2" points="111.58 330.13 84.83 341.51 82.89 336.93 76.09 345.97 87.32 347.34 85.37 342.76 112.11 331.38 111.58 330.13"/><polygon class="cls-2" points="156.88 189.53 86.29 203.54 85.32 198.66 76.81 206.12 87.52 209.76 86.55 204.88 157.15 190.87 156.88 189.53"/><polygon class="cls-2" points="206.96 190.52 135.19 205.61 134.17 200.74 125.74 208.29 136.49 211.81 135.47 206.94 207.24 191.86 206.96 190.52"/><polygon class="cls-2" points="249.84 48.58 85.37 67.05 84.82 62.1 75.71 68.82 86.08 73.34 85.53 68.4 249.99 49.93 249.84 48.58"/><polygon class="cls-2" points="296.87 50.3 127.56 69.55 127 64.61 117.91 71.33 128.28 75.85 127.72 70.91 297.03 51.66 296.87 50.3"/><polygon class="cls-2" points="341.41 49.79 173.42 70.89 172.8 65.95 163.79 72.78 174.21 77.17 173.59 72.24 341.58 51.14 341.41 49.79"/><polygon class="cls-2" points="384.01 50.5 217.07 70.92 216.47 65.98 207.43 72.78 217.84 77.21 217.24 72.27 384.17 51.85 384.01 50.5"/><path class="cls-2" d="M133,200.35a2.66,2.66,0,0,1,2.4,1.3,8.83,8.83,0,0,1,0,7.39,2.87,2.87,0,0,1-4.8,0,8.83,8.83,0,0,1,0-7.39A2.64,2.64,0,0,1,133,200.35Zm0,1.05a1.49,1.49,0,0,0-1.35.92,6.92,6.92,0,0,0-.49,3,10.8,10.8,0,0,0,.22,2.43L134.2,202A1.42,1.42,0,0,0,133,201.4Zm1.83,3.94a11.28,11.28,0,0,0-.2-2.37l-2.84,5.76a1.44,1.44,0,0,0,1.21.56,1.49,1.49,0,0,0,1.35-.92A7,7,0,0,0,134.79,205.34Z" transform="translate(-72.53 -181.94)"/><path class="cls-2" d="M140.07,209.05a1.28,1.28,0,0,1,1.27-1.28,1.27,1.27,0,0,1,.93.38,1.23,1.23,0,0,1,.37.9,1.31,1.31,0,0,1-.37.92,1.26,1.26,0,0,1-.93.37,1.19,1.19,0,0,1-.9-.37A1.27,1.27,0,0,1,140.07,209.05Z" transform="translate(-72.53 -181.94)"/><path class="cls-2" d="M152.88,209.09v1.08h-5.69v-1.08h2.37v-7.15l-2.18,1.33-.58-1,2.91-1.79h1.19v8.57Z" transform="translate(-72.53 -181.94)"/><path class="cls-2" d="M177.36,200.35a2.66,2.66,0,0,1,2.4,1.3,8.83,8.83,0,0,1,0,7.39,2.87,2.87,0,0,1-4.8,0,8.83,8.83,0,0,1,0-7.39A2.64,2.64,0,0,1,177.36,200.35Zm0,1.05a1.5,1.5,0,0,0-1.35.92,6.92,6.92,0,0,0-.49,3,10.8,10.8,0,0,0,.22,2.43L178.6,202A1.42,1.42,0,0,0,177.36,201.4Zm1.83,3.94A11.28,11.28,0,0,0,179,203l-2.84,5.76a1.45,1.45,0,0,0,1.21.56,1.49,1.49,0,0,0,1.35-.92A7,7,0,0,0,179.19,205.34Z" transform="translate(-72.53 -181.94)"/><path class="cls-2" d="M184.47,209.05a1.28,1.28,0,0,1,1.27-1.28,1.27,1.27,0,0,1,.93.38,1.19,1.19,0,0,1,.37.9,1.26,1.26,0,0,1-1.3,1.29,1.19,1.19,0,0,1-.9-.37A1.27,1.27,0,0,1,184.47,209.05Z" transform="translate(-72.53 -181.94)"/><path class="cls-2" d="M193.72,200.35a3.64,3.64,0,0,1,1.61.33,2.59,2.59,0,0,1,1,.88,2.1,2.1,0,0,1,.37,1.21,2.08,2.08,0,0,1-.56,1.49,2.41,2.41,0,0,1-1.34.77,2.94,2.94,0,0,1,1.09.33,2.16,2.16,0,0,1,.81.78,2.35,2.35,0,0,1,.31,1.26,2.71,2.71,0,0,1-.43,1.5,3,3,0,0,1-1.19,1.06,4,4,0,0,1-1.79.38A4.62,4.62,0,0,1,192,210a3.48,3.48,0,0,1-1.37-1l.87-.73a2.54,2.54,0,0,0,1,.72,3.06,3.06,0,0,0,1.15.23,2.18,2.18,0,0,0,1.51-.5,1.74,1.74,0,0,0,.55-1.37,1.58,1.58,0,0,0-.55-1.39,2.33,2.33,0,0,0-1.39-.39h-.82l.16-1h.58a2.27,2.27,0,0,0,.86-.17,1.64,1.64,0,0,0,.66-.53,1.55,1.55,0,0,0,.25-.91,1.39,1.39,0,0,0-.51-1.16,1.93,1.93,0,0,0-1.24-.41,2.5,2.5,0,0,0-1.09.23,3.52,3.52,0,0,0-.94.66l-.72-.8a3.91,3.91,0,0,1,2.82-1.14Z" transform="translate(-72.53 -181.94)"/><path class="cls-2" d="M217.42,200.35a2.64,2.64,0,0,1,2.39,1.3,8.74,8.74,0,0,1,0,7.39,2.86,2.86,0,0,1-4.79,0,8.74,8.74,0,0,1,0-7.39A2.64,2.64,0,0,1,217.42,200.35Zm0,1.05a1.49,1.49,0,0,0-1.35.92,6.77,6.77,0,0,0-.49,3,10.24,10.24,0,0,0,.22,2.43l2.85-5.77A1.41,1.41,0,0,0,217.42,201.4Zm1.83,3.94a11.28,11.28,0,0,0-.2-2.37l-2.84,5.76a1.43,1.43,0,0,0,1.21.56,1.49,1.49,0,0,0,1.35-.92A7,7,0,0,0,219.25,205.34Z" transform="translate(-72.53 -181.94)"/><path class="cls-2" d="M224.53,209.05a1.22,1.22,0,0,1,.36-.9,1.29,1.29,0,0,1,1.83,0,1.2,1.2,0,0,1,.38.9,1.28,1.28,0,0,1-.38.92,1.32,1.32,0,0,1-1.83,0A1.3,1.3,0,0,1,224.53,209.05Z" transform="translate(-72.53 -181.94)"/><path class="cls-2" d="M237.34,209.09v1.08h-5.69v-1.08H234v-7.15l-2.18,1.33-.58-1,2.91-1.79h1.18v8.57Z" transform="translate(-72.53 -181.94)"/><path class="cls-2" d="M245.29,200.52l-.18,1h-3.77v2.89a3.33,3.33,0,0,1,.82-.31,3.59,3.59,0,0,1,.81-.09,2.51,2.51,0,0,1,1.91.8,3.19,3.19,0,0,1,.74,2.25,3.31,3.31,0,0,1-.42,1.69,2.83,2.83,0,0,1-1.16,1.14,3.56,3.56,0,0,1-1.77.41,3.76,3.76,0,0,1-1.61-.32,4,4,0,0,1-1.25-.89l.81-.77a2.71,2.71,0,0,0,2,.89,1.83,1.83,0,0,0,1.44-.56,2.27,2.27,0,0,0,.53-1.62,2,2,0,0,0-.49-1.55,1.69,1.69,0,0,0-1.18-.44,3.26,3.26,0,0,0-.73.08,5.12,5.12,0,0,0-.73.24h-1v-4.88Z" transform="translate(-72.53 -181.94)"/><path class="cls-2" d="M265.83,200.35a2.65,2.65,0,0,1,2.4,1.3,8.83,8.83,0,0,1,0,7.39,2.87,2.87,0,0,1-4.8,0,8.83,8.83,0,0,1,0-7.39A2.66,2.66,0,0,1,265.83,200.35Zm0,1.05a1.51,1.51,0,0,0-1.35.92,6.94,6.94,0,0,0-.48,3,10.9,10.9,0,0,0,.21,2.43l2.86-5.77A1.41,1.41,0,0,0,265.83,201.4Zm1.84,3.94a10.55,10.55,0,0,0-.21-2.37l-2.83,5.76a1.42,1.42,0,0,0,1.2.56,1.5,1.5,0,0,0,1.36-.92A7.18,7.18,0,0,0,267.67,205.34Z" transform="translate(-72.53 -181.94)"/><path class="cls-2" d="M272.94,209.05a1.19,1.19,0,0,1,.37-.9,1.22,1.22,0,0,1,.91-.38,1.26,1.26,0,0,1,.92.38,1.19,1.19,0,0,1,.37.9,1.27,1.27,0,0,1-.37.92,1.25,1.25,0,0,1-.92.37,1.21,1.21,0,0,1-.91-.37A1.27,1.27,0,0,1,272.94,209.05Z" transform="translate(-72.53 -181.94)"/><path class="cls-2" d="M285.58,202.82a1.79,1.79,0,0,1-.43,1.21,4.14,4.14,0,0,1-1.22.95,3.93,3.93,0,0,1,1.49,1.06,2.35,2.35,0,0,1,.54,1.54,2.52,2.52,0,0,1-.4,1.4,2.79,2.79,0,0,1-1.16,1,4.13,4.13,0,0,1-1.8.36,4.05,4.05,0,0,1-1.79-.36,2.75,2.75,0,0,1-1.13-1,2.6,2.6,0,0,1-.38-1.38,2.23,2.23,0,0,1,.52-1.5,3.73,3.73,0,0,1,1.38-1,3.16,3.16,0,0,1-1.14-.9,2.17,2.17,0,0,1-.38-1.32,2.28,2.28,0,0,1,.27-1.13,2.42,2.42,0,0,1,.7-.79,3,3,0,0,1,1-.47,3.72,3.72,0,0,1,1-.15,4,4,0,0,1,1.42.26,2.52,2.52,0,0,1,1.1.82A2.2,2.2,0,0,1,285.58,202.82Zm-1,4.77a1.49,1.49,0,0,0-.31-1,2.29,2.29,0,0,0-.86-.61c-.37-.16-.8-.33-1.3-.5a2.92,2.92,0,0,0-1,.76,2,2,0,0,0-.42,1.34,1.64,1.64,0,0,0,.48,1.24,2.44,2.44,0,0,0,2.89,0A1.6,1.6,0,0,0,284.57,207.59ZM281,202.9a1.3,1.3,0,0,0,.24.83,1.74,1.74,0,0,0,.68.51c.3.13.66.27,1.08.41a3.55,3.55,0,0,0,.95-.77,1.53,1.53,0,0,0,.31-1,1.47,1.47,0,0,0-.42-1.11,1.66,1.66,0,0,0-1.21-.41,1.69,1.69,0,0,0-1.2.4A1.48,1.48,0,0,0,281,202.9Z" transform="translate(-72.53 -181.94)"/><path class="cls-2" d="M306.8,200.35a2.64,2.64,0,0,1,2.4,1.3,8.74,8.74,0,0,1,0,7.39,2.87,2.87,0,0,1-4.8,0,8.83,8.83,0,0,1,0-7.39A2.66,2.66,0,0,1,306.8,200.35Zm0,1.05a1.51,1.51,0,0,0-1.35.92,6.94,6.94,0,0,0-.48,3,10.24,10.24,0,0,0,.22,2.43L308,202A1.41,1.41,0,0,0,306.8,201.4Zm1.84,3.94a10.55,10.55,0,0,0-.21-2.37l-2.83,5.76a1.42,1.42,0,0,0,1.2.56,1.49,1.49,0,0,0,1.36-.92A7,7,0,0,0,308.64,205.34Z" transform="translate(-72.53 -181.94)"/><path class="cls-2" d="M313.91,209.05a1.28,1.28,0,0,1,1.28-1.28,1.24,1.24,0,0,1,.92.38,1.19,1.19,0,0,1,.37.9,1.27,1.27,0,0,1-.37.92,1.32,1.32,0,0,1-1.83,0A1.31,1.31,0,0,1,313.91,209.05Z" transform="translate(-72.53 -181.94)"/><path class="cls-2" d="M323.6,200.35a2.65,2.65,0,0,1,2.4,1.3,8.83,8.83,0,0,1,0,7.39,2.87,2.87,0,0,1-4.8,0,8.83,8.83,0,0,1,0-7.39A2.66,2.66,0,0,1,323.6,200.35Zm0,1.05a1.51,1.51,0,0,0-1.35.92,6.94,6.94,0,0,0-.48,3,10.9,10.9,0,0,0,.21,2.43l2.86-5.77A1.41,1.41,0,0,0,323.6,201.4Zm1.84,3.94a10.55,10.55,0,0,0-.21-2.37l-2.83,5.76a1.42,1.42,0,0,0,1.2.56,1.5,1.5,0,0,0,1.36-.92A7.18,7.18,0,0,0,325.44,205.34Z" transform="translate(-72.53 -181.94)"/><path class="cls-2" d="M334.68,200.52l-.19,1h-3.76v2.89a3.19,3.19,0,0,1,.82-.31,3.59,3.59,0,0,1,.81-.09,2.51,2.51,0,0,1,1.91.8,3.19,3.19,0,0,1,.73,2.25,3.31,3.31,0,0,1-.41,1.69,2.86,2.86,0,0,1-1.17,1.14,3.55,3.55,0,0,1-1.76.41,3.76,3.76,0,0,1-1.61-.32,4.07,4.07,0,0,1-1.26-.89l.82-.77a2.69,2.69,0,0,0,2,.89,1.85,1.85,0,0,0,1.44-.56,2.27,2.27,0,0,0,.52-1.62,2,2,0,0,0-.48-1.55,1.71,1.71,0,0,0-1.18-.44,3.2,3.2,0,0,0-.73.08,4.74,4.74,0,0,0-.73.24h-1v-4.88Z" transform="translate(-72.53 -181.94)"/><path class="cls-2" d="M355.93,200.35a2.66,2.66,0,0,1,2.4,1.3,8.83,8.83,0,0,1,0,7.39,2.87,2.87,0,0,1-4.8,0,8.83,8.83,0,0,1,0-7.39A2.64,2.64,0,0,1,355.93,200.35Zm0,1.05a1.49,1.49,0,0,0-1.35.92,6.92,6.92,0,0,0-.49,3,10.8,10.8,0,0,0,.22,2.43l2.86-5.77A1.42,1.42,0,0,0,355.93,201.4Zm1.83,3.94a11.28,11.28,0,0,0-.2-2.37l-2.84,5.76a1.44,1.44,0,0,0,1.21.56,1.49,1.49,0,0,0,1.35-.92A7,7,0,0,0,357.76,205.34Z" transform="translate(-72.53 -181.94)"/><path class="cls-2" d="M363,209.05a1.28,1.28,0,0,1,1.27-1.28,1.27,1.27,0,0,1,.93.38,1.23,1.23,0,0,1,.37.9,1.31,1.31,0,0,1-.37.92,1.26,1.26,0,0,1-.93.37,1.19,1.19,0,0,1-.9-.37A1.27,1.27,0,0,1,363,209.05Z" transform="translate(-72.53 -181.94)"/><path class="cls-2" d="M372.31,200.35a3.33,3.33,0,0,1,1.61.36,2.45,2.45,0,0,1,1,1,2.77,2.77,0,0,1,.35,1.38,3.7,3.7,0,0,1-.23,1.27,5.07,5.07,0,0,1-.72,1.31,14.23,14.23,0,0,1-1.31,1.51c-.54.56-1.21,1.19-2,1.91h4.47l-.16,1.11h-5.84v-1.06c.89-.85,1.62-1.58,2.19-2.17A17.48,17.48,0,0,0,373,205.4a4.87,4.87,0,0,0,.67-1.18,3.18,3.18,0,0,0,.19-1.1,1.66,1.66,0,0,0-.44-1.22,1.61,1.61,0,0,0-1.21-.45,2.41,2.41,0,0,0-1.14.24,3.27,3.27,0,0,0-.89.78l-.9-.69a3.88,3.88,0,0,1,1.28-1.07A3.8,3.8,0,0,1,372.31,200.35Z" transform="translate(-72.53 -181.94)"/><path class="cls-2" d="M396.66,200.35a2.64,2.64,0,0,1,2.39,1.3,8.74,8.74,0,0,1,0,7.39,2.86,2.86,0,0,1-4.79,0,8.74,8.74,0,0,1,0-7.39A2.64,2.64,0,0,1,396.66,200.35Zm0,1.05a1.49,1.49,0,0,0-1.35.92,6.77,6.77,0,0,0-.49,3,10.24,10.24,0,0,0,.22,2.43L397.9,202A1.44,1.44,0,0,0,396.66,201.4Zm1.83,3.94a11.28,11.28,0,0,0-.2-2.37l-2.84,5.76a1.43,1.43,0,0,0,1.21.56,1.49,1.49,0,0,0,1.35-.92A7,7,0,0,0,398.49,205.34Z" transform="translate(-72.53 -181.94)"/><path class="cls-2" d="M403.77,209.05a1.22,1.22,0,0,1,.36-.9,1.24,1.24,0,0,1,.91-.38,1.27,1.27,0,0,1,.93.38,1.23,1.23,0,0,1,.37.9,1.31,1.31,0,0,1-.37.92,1.26,1.26,0,0,1-.93.37,1.23,1.23,0,0,1-.91-.37A1.3,1.3,0,0,1,403.77,209.05Z" transform="translate(-72.53 -181.94)"/><path class="cls-2" d="M412.56,210.32l-1.26-.39,3.73-8.32h-4.48v-1.09h5.84v1Z" transform="translate(-72.53 -181.94)"/><path class="cls-2" d="M424.53,200.52l-.18,1h-3.77v2.89a3.33,3.33,0,0,1,.82-.31,3.72,3.72,0,0,1,.81-.09,2.49,2.49,0,0,1,1.91.8,3.19,3.19,0,0,1,.74,2.25,3.31,3.31,0,0,1-.42,1.69,2.83,2.83,0,0,1-1.16,1.14,3.56,3.56,0,0,1-1.77.41,3.76,3.76,0,0,1-1.61-.32,4.15,4.15,0,0,1-1.25-.89l.81-.77a2.71,2.71,0,0,0,2,.89,1.86,1.86,0,0,0,1.45-.56,2.32,2.32,0,0,0,.52-1.62,2,2,0,0,0-.49-1.55,1.69,1.69,0,0,0-1.18-.44,3.26,3.26,0,0,0-.73.08,5.12,5.12,0,0,0-.73.24h-1v-4.88Z" transform="translate(-72.53 -181.94)"/><path class="cls-2" d="M441.35,200.35a2.66,2.66,0,0,1,2.4,1.3,8.83,8.83,0,0,1,0,7.39,2.87,2.87,0,0,1-4.8,0,8.83,8.83,0,0,1,0-7.39A2.64,2.64,0,0,1,441.35,200.35Zm0,1.05a1.5,1.5,0,0,0-1.35.92,6.94,6.94,0,0,0-.48,3,10.9,10.9,0,0,0,.21,2.43l2.86-5.77A1.41,1.41,0,0,0,441.35,201.4Zm1.83,3.94A11.28,11.28,0,0,0,443,203l-2.83,5.76a1.42,1.42,0,0,0,1.2.56,1.49,1.49,0,0,0,1.35-.92A7,7,0,0,0,443.18,205.34Z" transform="translate(-72.53 -181.94)"/><path class="cls-2" d="M448.46,209.05a1.28,1.28,0,0,1,1.27-1.28,1.27,1.27,0,0,1,.93.38,1.19,1.19,0,0,1,.37.9,1.26,1.26,0,0,1-1.3,1.29,1.19,1.19,0,0,1-.9-.37A1.27,1.27,0,0,1,448.46,209.05Z" transform="translate(-72.53 -181.94)"/><path class="cls-2" d="M460.2,204.15v2.67h1.2v1.05h-1.2v2.3h-1.3v-2.3h-4v-1l2.81-6.57,1.13.46-2.52,6h2.6l.17-2.67Z" transform="translate(-72.53 -181.94)"/><path class="cls-2" d="M465.65,210.32l-1.26-.39,3.73-8.32h-4.48v-1.09h5.84v1Z" transform="translate(-72.53 -181.94)"/><path class="cls-2" d="M307.2,614.48a2.64,2.64,0,0,1,2.4,1.3,8.74,8.74,0,0,1,0,7.39,2.86,2.86,0,0,1-4.79,0,8.74,8.74,0,0,1,0-7.39A2.64,2.64,0,0,1,307.2,614.48Zm0,1.06a1.47,1.47,0,0,0-1.34.91,6.77,6.77,0,0,0-.49,3,10.39,10.39,0,0,0,.22,2.44l2.85-5.78A1.4,1.4,0,0,0,307.2,615.54Zm1.84,3.93a10.55,10.55,0,0,0-.21-2.37L306,622.86a1.42,1.42,0,0,0,1.2.56,1.49,1.49,0,0,0,1.36-.92A7,7,0,0,0,309,619.47Z" transform="translate(-72.53 -181.94)"/><path class="cls-2" d="M314.31,623.18a1.29,1.29,0,0,1,2.2-.9,1.19,1.19,0,0,1,.37.9,1.27,1.27,0,0,1-.37.92,1.32,1.32,0,0,1-1.83,0A1.31,1.31,0,0,1,314.31,623.18Z" transform="translate(-72.53 -181.94)"/><path class="cls-2" d="M324,614.48a2.64,2.64,0,0,1,2.4,1.3,8.74,8.74,0,0,1,0,7.39,2.87,2.87,0,0,1-4.8,0,8.83,8.83,0,0,1,0-7.39A2.66,2.66,0,0,1,324,614.48Zm0,1.06a1.5,1.5,0,0,0-1.35.91,6.94,6.94,0,0,0-.48,3,10.39,10.39,0,0,0,.22,2.44l2.85-5.78A1.4,1.4,0,0,0,324,615.54Zm1.84,3.93a10.55,10.55,0,0,0-.21-2.37l-2.83,5.76a1.42,1.42,0,0,0,1.2.56,1.49,1.49,0,0,0,1.36-.92A7,7,0,0,0,325.84,619.47Z" transform="translate(-72.53 -181.94)"/><path class="cls-2" d="M335.08,614.65l-.19,1h-3.76v2.89a3.33,3.33,0,0,1,.82-.31,3.59,3.59,0,0,1,.81-.09,2.51,2.51,0,0,1,1.91.8,3.19,3.19,0,0,1,.73,2.25,3.31,3.31,0,0,1-.41,1.69,2.83,2.83,0,0,1-1.16,1.14,3.62,3.62,0,0,1-1.77.41,3.76,3.76,0,0,1-1.61-.32,3.92,3.92,0,0,1-1.25-.89l.81-.77a2.69,2.69,0,0,0,2,.89,1.84,1.84,0,0,0,1.44-.56,2.26,2.26,0,0,0,.52-1.61,2,2,0,0,0-.48-1.56,1.69,1.69,0,0,0-1.18-.44,3.26,3.26,0,0,0-.73.08c-.21.06-.46.14-.73.24h-1v-4.88Z" transform="translate(-72.53 -181.94)"/><path class="cls-2" d="M356.33,614.48a2.65,2.65,0,0,1,2.4,1.3,8.83,8.83,0,0,1,0,7.39,2.87,2.87,0,0,1-4.8,0,8.83,8.83,0,0,1,0-7.39A2.66,2.66,0,0,1,356.33,614.48Zm0,1.06a1.5,1.5,0,0,0-1.35.91,6.94,6.94,0,0,0-.48,3,11.06,11.06,0,0,0,.21,2.44l2.86-5.78A1.4,1.4,0,0,0,356.33,615.54Zm1.83,3.93a10.64,10.64,0,0,0-.2-2.37l-2.83,5.76a1.42,1.42,0,0,0,1.2.56,1.51,1.51,0,0,0,1.36-.92A7.21,7.21,0,0,0,358.16,619.47Z" transform="translate(-72.53 -181.94)"/><path class="cls-2" d="M363.44,623.18a1.19,1.19,0,0,1,.37-.9,1.21,1.21,0,0,1,.91-.37,1.25,1.25,0,0,1,.92.37,1.19,1.19,0,0,1,.37.9,1.27,1.27,0,0,1-.37.92,1.25,1.25,0,0,1-.92.37,1.21,1.21,0,0,1-.91-.37A1.27,1.27,0,0,1,363.44,623.18Z" transform="translate(-72.53 -181.94)"/><path class="cls-2" d="M372.72,614.48a3.32,3.32,0,0,1,1.6.36,2.45,2.45,0,0,1,1,1,2.77,2.77,0,0,1,.35,1.38,3.69,3.69,0,0,1-.22,1.27,5.12,5.12,0,0,1-.73,1.31,14.23,14.23,0,0,1-1.31,1.51c-.54.56-1.2,1.19-2,1.91h4.48l-.17,1.11h-5.84v-1.06c.89-.85,1.62-1.58,2.19-2.17a17.48,17.48,0,0,0,1.33-1.54,4.55,4.55,0,0,0,.67-1.18,3.18,3.18,0,0,0,.19-1.1,1.62,1.62,0,0,0-.44-1.22,1.6,1.6,0,0,0-1.21-.45,2.34,2.34,0,0,0-1.13.24,3.3,3.3,0,0,0-.9.78l-.9-.69a4,4,0,0,1,1.28-1.07A3.81,3.81,0,0,1,372.72,614.48Z" transform="translate(-72.53 -181.94)"/><path class="cls-2" d="M397.06,614.48a2.66,2.66,0,0,1,2.4,1.3,8.83,8.83,0,0,1,0,7.39,2.87,2.87,0,0,1-4.8,0,8.83,8.83,0,0,1,0-7.39A2.64,2.64,0,0,1,397.06,614.48Zm0,1.06a1.48,1.48,0,0,0-1.35.91,6.92,6.92,0,0,0-.49,3,11,11,0,0,0,.22,2.44l2.86-5.78A1.42,1.42,0,0,0,397.06,615.54Zm1.83,3.93a11.28,11.28,0,0,0-.2-2.37l-2.84,5.76a1.44,1.44,0,0,0,1.21.56,1.49,1.49,0,0,0,1.35-.92A7,7,0,0,0,398.89,619.47Z" transform="translate(-72.53 -181.94)"/><path class="cls-2" d="M404.17,623.18a1.26,1.26,0,0,1,1.27-1.27,1.26,1.26,0,0,1,.93.37,1.23,1.23,0,0,1,.37.9,1.31,1.31,0,0,1-.37.92,1.26,1.26,0,0,1-.93.37,1.19,1.19,0,0,1-.9-.37A1.27,1.27,0,0,1,404.17,623.18Z" transform="translate(-72.53 -181.94)"/><path class="cls-2" d="M413,624.45l-1.26-.39,3.73-8.32H411v-1.09h5.84v1Z" transform="translate(-72.53 -181.94)"/><path class="cls-2" d="M424.94,614.65l-.19,1H421v2.89a3.49,3.49,0,0,1,.82-.31,3.72,3.72,0,0,1,.81-.09,2.49,2.49,0,0,1,1.91.8,3.19,3.19,0,0,1,.74,2.25,3.41,3.41,0,0,1-.41,1.69,2.92,2.92,0,0,1-1.17,1.14,3.56,3.56,0,0,1-1.77.41,3.72,3.72,0,0,1-1.6-.32,4.07,4.07,0,0,1-1.26-.89l.81-.77a2.71,2.71,0,0,0,2,.89,1.86,1.86,0,0,0,1.45-.56,2.26,2.26,0,0,0,.52-1.61,2,2,0,0,0-.48-1.56,1.73,1.73,0,0,0-1.19-.44,3.11,3.11,0,0,0-.72.08c-.22.06-.46.14-.73.24h-1v-4.88Z" transform="translate(-72.53 -181.94)"/><path class="cls-2" d="M441.75,614.48a2.65,2.65,0,0,1,2.4,1.3,8.83,8.83,0,0,1,0,7.39,2.87,2.87,0,0,1-4.8,0,8.83,8.83,0,0,1,0-7.39A2.66,2.66,0,0,1,441.75,614.48Zm0,1.06a1.5,1.5,0,0,0-1.35.91,6.94,6.94,0,0,0-.48,3,11.06,11.06,0,0,0,.21,2.44l2.86-5.78A1.4,1.4,0,0,0,441.75,615.54Zm1.84,3.93a10.55,10.55,0,0,0-.21-2.37l-2.83,5.76a1.42,1.42,0,0,0,1.2.56,1.5,1.5,0,0,0,1.36-.92A7,7,0,0,0,443.59,619.47Z" transform="translate(-72.53 -181.94)"/><path class="cls-2" d="M448.86,623.18a1.19,1.19,0,0,1,.37-.9,1.32,1.32,0,0,1,1.83,0,1.19,1.19,0,0,1,.37.9,1.27,1.27,0,0,1-.37.92,1.32,1.32,0,0,1-1.83,0A1.27,1.27,0,0,1,448.86,623.18Z" transform="translate(-72.53 -181.94)"/><path class="cls-2" d="M460.6,618.28V621h1.21v1H460.6v2.3h-1.29V622h-4v-1l2.8-6.57,1.13.46-2.52,6h2.6l.17-2.67Z" transform="translate(-72.53 -181.94)"/><path class="cls-2" d="M466.05,624.45l-1.26-.39,3.73-8.32H464v-1.09h5.84v1Z" transform="translate(-72.53 -181.94)"/><path class="cls-2" d="M306.74,476.44a2.68,2.68,0,0,1,2.4,1.29,8.86,8.86,0,0,1,0,7.4,2.87,2.87,0,0,1-4.8,0,8.76,8.76,0,0,1,0-7.4A2.65,2.65,0,0,1,306.74,476.44Zm0,1.05a1.49,1.49,0,0,0-1.35.92,6.92,6.92,0,0,0-.49,3,10.92,10.92,0,0,0,.22,2.43l2.86-5.77A1.42,1.42,0,0,0,306.74,477.49Zm1.83,3.94a11.15,11.15,0,0,0-.2-2.37l-2.84,5.76a1.43,1.43,0,0,0,1.21.55,1.47,1.47,0,0,0,1.35-.92A6.94,6.94,0,0,0,308.57,481.43Z" transform="translate(-72.53 -181.94)"/><path class="cls-2" d="M313.85,485.14a1.23,1.23,0,0,1,.37-.91,1.19,1.19,0,0,1,.9-.37,1.26,1.26,0,0,1,1.3,1.28,1.29,1.29,0,0,1-.37.91,1.23,1.23,0,0,1-.93.38,1.17,1.17,0,0,1-.9-.38A1.25,1.25,0,0,1,313.85,485.14Z" transform="translate(-72.53 -181.94)"/><path class="cls-2" d="M323.54,476.44a2.65,2.65,0,0,1,2.39,1.29,8.76,8.76,0,0,1,0,7.4,2.86,2.86,0,0,1-4.79,0,8.76,8.76,0,0,1,0-7.4A2.65,2.65,0,0,1,323.54,476.44Zm0,1.05a1.49,1.49,0,0,0-1.35.92,6.77,6.77,0,0,0-.49,3,10.35,10.35,0,0,0,.22,2.43l2.86-5.77A1.42,1.42,0,0,0,323.54,477.49Zm1.83,3.94a11.15,11.15,0,0,0-.2-2.37l-2.84,5.76a1.42,1.42,0,0,0,1.21.55,1.47,1.47,0,0,0,1.35-.92A6.94,6.94,0,0,0,325.37,481.43Z" transform="translate(-72.53 -181.94)"/><path class="cls-2" d="M334.62,476.61l-.19,1h-3.77v2.89a3.1,3.1,0,0,1,.82-.31,3.72,3.72,0,0,1,.81-.09,2.46,2.46,0,0,1,1.91.8,3.18,3.18,0,0,1,.74,2.24,3.45,3.45,0,0,1-.41,1.7,2.92,2.92,0,0,1-1.17,1.14,3.67,3.67,0,0,1-1.77.41,3.87,3.87,0,0,1-1.6-.32,4.25,4.25,0,0,1-1.26-.89l.81-.78a2.68,2.68,0,0,0,2,.9,1.9,1.9,0,0,0,1.45-.56,2.32,2.32,0,0,0,.52-1.62,2.06,2.06,0,0,0-.48-1.56,1.73,1.73,0,0,0-1.19-.43,2.64,2.64,0,0,0-.72.08,4.74,4.74,0,0,0-.73.24h-1v-4.88Z" transform="translate(-72.53 -181.94)"/><path class="cls-2" d="M355.86,476.44a2.65,2.65,0,0,1,2.4,1.29,8.76,8.76,0,0,1,0,7.4,2.86,2.86,0,0,1-4.79,0,8.76,8.76,0,0,1,0-7.4A2.65,2.65,0,0,1,355.86,476.44Zm0,1.05a1.48,1.48,0,0,0-1.34.92,6.77,6.77,0,0,0-.49,3,10.35,10.35,0,0,0,.22,2.43l2.85-5.77A1.41,1.41,0,0,0,355.86,477.49Zm1.84,3.94a10.43,10.43,0,0,0-.21-2.37l-2.83,5.76a1.41,1.41,0,0,0,1.2.55,1.47,1.47,0,0,0,1.36-.92A6.94,6.94,0,0,0,357.7,481.43Z" transform="translate(-72.53 -181.94)"/><path class="cls-2" d="M363,485.14a1.29,1.29,0,0,1,2.19-.91,1.3,1.3,0,0,1,0,1.82,1.29,1.29,0,0,1-1.83,0A1.26,1.26,0,0,1,363,485.14Z" transform="translate(-72.53 -181.94)"/><path class="cls-2" d="M372.25,476.44a3.39,3.39,0,0,1,1.61.36,2.49,2.49,0,0,1,1,1,2.66,2.66,0,0,1,.35,1.37,3.75,3.75,0,0,1-.22,1.28,5.34,5.34,0,0,1-.72,1.3,15.73,15.73,0,0,1-1.32,1.52c-.54.55-1.2,1.19-2,1.9h4.47l-.16,1.12h-5.85V485.2c.89-.85,1.62-1.58,2.19-2.17a17.84,17.84,0,0,0,1.34-1.54,5.06,5.06,0,0,0,.67-1.18,3.43,3.43,0,0,0,.18-1.1,1.69,1.69,0,0,0-.43-1.23,1.62,1.62,0,0,0-1.22-.45,2.39,2.39,0,0,0-1.13.25,3.14,3.14,0,0,0-.9.78l-.89-.7a3.56,3.56,0,0,1,3-1.42Z" transform="translate(-72.53 -181.94)"/><path class="cls-2" d="M396.59,476.44a2.66,2.66,0,0,1,2.4,1.29,8.86,8.86,0,0,1,0,7.4,2.87,2.87,0,0,1-4.8,0,8.86,8.86,0,0,1,0-7.4A2.68,2.68,0,0,1,396.59,476.44Zm0,1.05a1.51,1.51,0,0,0-1.35.92,6.94,6.94,0,0,0-.48,3,11,11,0,0,0,.21,2.43l2.86-5.77A1.41,1.41,0,0,0,396.59,477.49Zm1.84,3.94a10.43,10.43,0,0,0-.21-2.37l-2.83,5.76a1.41,1.41,0,0,0,1.2.55,1.48,1.48,0,0,0,1.36-.92A6.94,6.94,0,0,0,398.43,481.43Z" transform="translate(-72.53 -181.94)"/><path class="cls-2" d="M403.7,485.14a1.23,1.23,0,0,1,.37-.91,1.21,1.21,0,0,1,.91-.37,1.29,1.29,0,0,1,.92,2.19,1.21,1.21,0,0,1-.92.38,1.19,1.19,0,0,1-.91-.38A1.25,1.25,0,0,1,403.7,485.14Z" transform="translate(-72.53 -181.94)"/><path class="cls-2" d="M412.49,486.4l-1.26-.38,3.74-8.33h-4.49v-1.08h5.84v1Z" transform="translate(-72.53 -181.94)"/><path class="cls-2" d="M424.47,476.61l-.19,1h-3.76v2.89a2.86,2.86,0,0,1,.82-.31,3.59,3.59,0,0,1,.81-.09,2.44,2.44,0,0,1,1.9.8,3.14,3.14,0,0,1,.74,2.24,3.45,3.45,0,0,1-.41,1.7,2.86,2.86,0,0,1-1.17,1.14,3.66,3.66,0,0,1-1.76.41,3.89,3.89,0,0,1-1.61-.32,4.25,4.25,0,0,1-1.26-.89l.82-.78a2.67,2.67,0,0,0,2,.9,1.89,1.89,0,0,0,1.44-.56,2.27,2.27,0,0,0,.52-1.62,2.06,2.06,0,0,0-.48-1.56,1.7,1.7,0,0,0-1.18-.43,2.72,2.72,0,0,0-.73.08,4.74,4.74,0,0,0-.73.24h-1v-4.88Z" transform="translate(-72.53 -181.94)"/><path class="cls-2" d="M441.28,476.44a2.65,2.65,0,0,1,2.4,1.29,8.76,8.76,0,0,1,0,7.4,2.86,2.86,0,0,1-4.79,0,8.76,8.76,0,0,1,0-7.4A2.65,2.65,0,0,1,441.28,476.44Zm0,1.05a1.48,1.48,0,0,0-1.34.92,6.77,6.77,0,0,0-.49,3,10.35,10.35,0,0,0,.22,2.43l2.85-5.77A1.41,1.41,0,0,0,441.28,477.49Zm1.84,3.94a11.15,11.15,0,0,0-.2-2.37l-2.84,5.76a1.41,1.41,0,0,0,1.2.55,1.47,1.47,0,0,0,1.36-.92A6.94,6.94,0,0,0,443.12,481.43Z" transform="translate(-72.53 -181.94)"/><path class="cls-2" d="M448.4,485.14a1.29,1.29,0,0,1,2.19-.91,1.28,1.28,0,0,1,0,1.82,1.29,1.29,0,0,1-1.83,0A1.26,1.26,0,0,1,448.4,485.14Z" transform="translate(-72.53 -181.94)"/><path class="cls-2" d="M460.13,480.24v2.66h1.21V484h-1.21v2.3h-1.29V484h-4V483l2.81-6.57,1.12.46-2.52,6h2.61l.16-2.66Z" transform="translate(-72.53 -181.94)"/><path class="cls-2" d="M465.59,486.4l-1.26-.38,3.73-8.33h-4.48v-1.08h5.84v1Z" transform="translate(-72.53 -181.94)"/><path class="cls-2" d="M307.2,338.39a2.64,2.64,0,0,1,2.4,1.3,8.76,8.76,0,0,1,0,7.4,2.86,2.86,0,0,1-4.79,0,8.76,8.76,0,0,1,0-7.4A2.64,2.64,0,0,1,307.2,338.39Zm0,1.06a1.47,1.47,0,0,0-1.34.92,6.72,6.72,0,0,0-.49,3,10.39,10.39,0,0,0,.22,2.44l2.85-5.78A1.43,1.43,0,0,0,307.2,339.45Zm1.84,3.93a10.39,10.39,0,0,0-.21-2.36L306,346.78a1.41,1.41,0,0,0,1.2.55,1.49,1.49,0,0,0,1.36-.92A7,7,0,0,0,309,343.38Z" transform="translate(-72.53 -181.94)"/><path class="cls-2" d="M314.31,347.09a1.26,1.26,0,0,1,.37-.9,1.29,1.29,0,0,1,2.2.9,1.25,1.25,0,0,1-.37.92,1.29,1.29,0,0,1-1.83,0A1.29,1.29,0,0,1,314.31,347.09Z" transform="translate(-72.53 -181.94)"/><path class="cls-2" d="M324,338.39a2.64,2.64,0,0,1,2.4,1.3,8.76,8.76,0,0,1,0,7.4,2.87,2.87,0,0,1-4.8,0,8.86,8.86,0,0,1,0-7.4A2.66,2.66,0,0,1,324,338.39Zm0,1.06a1.49,1.49,0,0,0-1.35.92,6.89,6.89,0,0,0-.48,3,10.39,10.39,0,0,0,.22,2.44l2.85-5.78A1.43,1.43,0,0,0,324,339.45Zm1.84,3.93a10.39,10.39,0,0,0-.21-2.36l-2.83,5.76a1.41,1.41,0,0,0,1.2.55,1.49,1.49,0,0,0,1.36-.92A7,7,0,0,0,325.84,343.38Z" transform="translate(-72.53 -181.94)"/><path class="cls-2" d="M335.08,338.57l-.19,1h-3.76v2.89a3.33,3.33,0,0,1,.82-.31,3.59,3.59,0,0,1,.81-.09,2.51,2.51,0,0,1,1.91.8,3.19,3.19,0,0,1,.73,2.25,3.37,3.37,0,0,1-.41,1.7,2.89,2.89,0,0,1-1.16,1.14,3.73,3.73,0,0,1-1.77.41,3.92,3.92,0,0,1-1.61-.32,4.25,4.25,0,0,1-1.25-.89l.81-.78a2.67,2.67,0,0,0,2,.9,1.88,1.88,0,0,0,1.44-.56,2.3,2.3,0,0,0,.52-1.62,2,2,0,0,0-.48-1.56,1.69,1.69,0,0,0-1.18-.44,3.26,3.26,0,0,0-.73.08,7.09,7.09,0,0,0-.73.25h-1v-4.88Z" transform="translate(-72.53 -181.94)"/><path class="cls-2" d="M356.33,338.39a2.65,2.65,0,0,1,2.4,1.3,8.86,8.86,0,0,1,0,7.4,2.87,2.87,0,0,1-4.8,0,8.86,8.86,0,0,1,0-7.4A2.66,2.66,0,0,1,356.33,338.39Zm0,1.06a1.49,1.49,0,0,0-1.35.92,6.89,6.89,0,0,0-.48,3,11.06,11.06,0,0,0,.21,2.44l2.86-5.78A1.43,1.43,0,0,0,356.33,339.45Zm1.83,3.93A10.48,10.48,0,0,0,358,341l-2.83,5.76a1.41,1.41,0,0,0,1.2.55,1.51,1.51,0,0,0,1.36-.92A7.15,7.15,0,0,0,358.16,343.38Z" transform="translate(-72.53 -181.94)"/><path class="cls-2" d="M363.44,347.09a1.26,1.26,0,0,1,1.28-1.27,1.25,1.25,0,0,1,.92.37,1.22,1.22,0,0,1,.37.9,1.28,1.28,0,0,1-1.29,1.3,1.22,1.22,0,0,1-.91-.38A1.25,1.25,0,0,1,363.44,347.09Z" transform="translate(-72.53 -181.94)"/><path class="cls-2" d="M372.72,338.39a3.32,3.32,0,0,1,1.6.36,2.48,2.48,0,0,1,1,1,2.71,2.71,0,0,1,.35,1.37,3.69,3.69,0,0,1-.22,1.27,5,5,0,0,1-.73,1.31,15.29,15.29,0,0,1-1.31,1.52c-.54.55-1.2,1.19-2,1.9h4.48l-.17,1.11h-5.84v-1c.89-.86,1.62-1.58,2.19-2.18a16.15,16.15,0,0,0,1.33-1.54,4.4,4.4,0,0,0,.67-1.18,3.14,3.14,0,0,0,.19-1.1,1.65,1.65,0,0,0-.44-1.22,1.6,1.6,0,0,0-1.21-.45,2.23,2.23,0,0,0-1.13.25,3.25,3.25,0,0,0-.9.77l-.9-.69a4,4,0,0,1,1.28-1.07A3.81,3.81,0,0,1,372.72,338.39Z" transform="translate(-72.53 -181.94)"/><path class="cls-2" d="M397.06,338.39a2.66,2.66,0,0,1,2.4,1.3,8.86,8.86,0,0,1,0,7.4,2.87,2.87,0,0,1-4.8,0,8.86,8.86,0,0,1,0-7.4A2.64,2.64,0,0,1,397.06,338.39Zm0,1.06a1.47,1.47,0,0,0-1.35.92,6.87,6.87,0,0,0-.49,3,11,11,0,0,0,.22,2.44L398.3,340A1.44,1.44,0,0,0,397.06,339.45Zm1.83,3.93a11.11,11.11,0,0,0-.2-2.36l-2.84,5.76a1.43,1.43,0,0,0,1.21.55,1.49,1.49,0,0,0,1.35-.92A7,7,0,0,0,398.89,343.38Z" transform="translate(-72.53 -181.94)"/><path class="cls-2" d="M404.17,347.09a1.22,1.22,0,0,1,.37-.9,1.19,1.19,0,0,1,.9-.37,1.26,1.26,0,0,1,1.3,1.27,1.29,1.29,0,0,1-.37.92,1.27,1.27,0,0,1-.93.38,1.2,1.2,0,0,1-.9-.38A1.25,1.25,0,0,1,404.17,347.09Z" transform="translate(-72.53 -181.94)"/><path class="cls-2" d="M413,348.36,411.7,348l3.73-8.32H411v-1.08h5.84v1Z" transform="translate(-72.53 -181.94)"/><path class="cls-2" d="M424.94,338.57l-.19,1H421v2.89a3.49,3.49,0,0,1,.82-.31,3.72,3.72,0,0,1,.81-.09,2.49,2.49,0,0,1,1.91.8,3.19,3.19,0,0,1,.74,2.25,3.48,3.48,0,0,1-.41,1.7,3,3,0,0,1-1.17,1.14,3.67,3.67,0,0,1-1.77.41,3.87,3.87,0,0,1-1.6-.32,4.44,4.44,0,0,1-1.26-.89l.81-.78a2.68,2.68,0,0,0,2,.9,1.9,1.9,0,0,0,1.45-.56,2.3,2.3,0,0,0,.52-1.62,2,2,0,0,0-.48-1.56,1.73,1.73,0,0,0-1.19-.44,3.11,3.11,0,0,0-.72.08,6.36,6.36,0,0,0-.73.25h-1v-4.88Z" transform="translate(-72.53 -181.94)"/><path class="cls-2" d="M441.75,338.39a2.65,2.65,0,0,1,2.4,1.3,8.86,8.86,0,0,1,0,7.4,2.87,2.87,0,0,1-4.8,0,8.86,8.86,0,0,1,0-7.4A2.66,2.66,0,0,1,441.75,338.39Zm0,1.06a1.49,1.49,0,0,0-1.35.92,6.89,6.89,0,0,0-.48,3,11.06,11.06,0,0,0,.21,2.44L443,340A1.43,1.43,0,0,0,441.75,339.45Zm1.84,3.93a10.39,10.39,0,0,0-.21-2.36l-2.83,5.76a1.41,1.41,0,0,0,1.2.55,1.5,1.5,0,0,0,1.36-.92A7,7,0,0,0,443.59,343.38Z" transform="translate(-72.53 -181.94)"/><path class="cls-2" d="M448.86,347.09a1.26,1.26,0,0,1,1.28-1.27,1.24,1.24,0,0,1,.92.37,1.22,1.22,0,0,1,.37.9,1.28,1.28,0,0,1-1.29,1.3,1.24,1.24,0,0,1-.91-.38A1.25,1.25,0,0,1,448.86,347.09Z" transform="translate(-72.53 -181.94)"/><path class="cls-2" d="M460.6,342.19v2.67h1.21v1.06H460.6v2.29h-1.29v-2.29h-4v-1l2.8-6.57,1.13.46-2.52,6h2.6l.17-2.67Z" transform="translate(-72.53 -181.94)"/><path class="cls-2" d="M466.05,348.36l-1.26-.39,3.73-8.32H464v-1.08h5.84v1Z" transform="translate(-72.53 -181.94)"/><path class="cls-2" d="M126.71,338.39a2.64,2.64,0,0,1,2.39,1.3,8.76,8.76,0,0,1,0,7.4,2.86,2.86,0,0,1-4.79,0,8.76,8.76,0,0,1,0-7.4A2.64,2.64,0,0,1,126.71,338.39Zm0,1.06a1.47,1.47,0,0,0-1.35.92,6.72,6.72,0,0,0-.49,3,10.39,10.39,0,0,0,.22,2.44l2.85-5.78A1.42,1.42,0,0,0,126.71,339.45Zm1.83,3.93a11.11,11.11,0,0,0-.2-2.36l-2.84,5.76a1.42,1.42,0,0,0,1.21.55,1.49,1.49,0,0,0,1.35-.92A7,7,0,0,0,128.54,343.38Z" transform="translate(-72.53 -181.94)"/><path class="cls-2" d="M133.82,347.09a1.25,1.25,0,0,1,.36-.9,1.3,1.3,0,0,1,2.21.9,1.26,1.26,0,0,1-.38.92,1.29,1.29,0,0,1-1.83,0A1.28,1.28,0,0,1,133.82,347.09Z" transform="translate(-72.53 -181.94)"/><path class="cls-2" d="M143.5,338.39a2.64,2.64,0,0,1,2.4,1.3,8.76,8.76,0,0,1,0,7.4,2.86,2.86,0,0,1-4.79,0,8.76,8.76,0,0,1,0-7.4A2.64,2.64,0,0,1,143.5,338.39Zm0,1.06a1.47,1.47,0,0,0-1.34.92,6.72,6.72,0,0,0-.49,3,10.39,10.39,0,0,0,.22,2.44l2.85-5.78A1.43,1.43,0,0,0,143.5,339.45Zm1.84,3.93a10.39,10.39,0,0,0-.21-2.36l-2.83,5.76a1.41,1.41,0,0,0,1.2.55,1.49,1.49,0,0,0,1.36-.92A7,7,0,0,0,145.34,343.38Z" transform="translate(-72.53 -181.94)"/><path class="cls-2" d="M154.58,338.57l-.18,1h-3.77v2.89a3.33,3.33,0,0,1,.82-.31,3.59,3.59,0,0,1,.81-.09,2.51,2.51,0,0,1,1.91.8,3.19,3.19,0,0,1,.74,2.25,3.37,3.37,0,0,1-.42,1.7,2.89,2.89,0,0,1-1.16,1.14,3.67,3.67,0,0,1-1.77.41,3.92,3.92,0,0,1-1.61-.32,4.39,4.39,0,0,1-1.25-.89l.81-.78a2.68,2.68,0,0,0,2,.9,1.86,1.86,0,0,0,1.44-.56,2.31,2.31,0,0,0,.53-1.62,2,2,0,0,0-.49-1.56,1.69,1.69,0,0,0-1.18-.44,3.26,3.26,0,0,0-.73.08,7.09,7.09,0,0,0-.73.25h-1v-4.88Z" transform="translate(-72.53 -181.94)"/><path class="cls-2" d="M176.69,338.39a2.64,2.64,0,0,1,2.39,1.3,8.76,8.76,0,0,1,0,7.4,2.86,2.86,0,0,1-4.79,0,8.76,8.76,0,0,1,0-7.4A2.64,2.64,0,0,1,176.69,338.39Zm0,1.06a1.47,1.47,0,0,0-1.35.92,6.87,6.87,0,0,0-.49,3,11,11,0,0,0,.22,2.44l2.86-5.78A1.44,1.44,0,0,0,176.69,339.45Zm1.83,3.93a11.11,11.11,0,0,0-.2-2.36l-2.84,5.76a1.43,1.43,0,0,0,1.21.55,1.49,1.49,0,0,0,1.35-.92A7,7,0,0,0,178.52,343.38Z" transform="translate(-72.53 -181.94)"/><path class="cls-2" d="M183.8,347.09a1.22,1.22,0,0,1,.37-.9,1.19,1.19,0,0,1,.9-.37,1.26,1.26,0,0,1,1.3,1.27,1.29,1.29,0,0,1-.37.92,1.27,1.27,0,0,1-.93.38,1.2,1.2,0,0,1-.9-.38A1.25,1.25,0,0,1,183.8,347.09Z" transform="translate(-72.53 -181.94)"/><path class="cls-2" d="M193.07,338.39a3.36,3.36,0,0,1,1.61.36,2.6,2.6,0,0,1,1,1,2.71,2.71,0,0,1,.35,1.37,3.7,3.7,0,0,1-.23,1.27,5.21,5.21,0,0,1-.72,1.31,15.29,15.29,0,0,1-1.31,1.52c-.54.55-1.21,1.19-2,1.9h4.47l-.16,1.11h-5.84v-1c.89-.86,1.62-1.58,2.19-2.18a16.15,16.15,0,0,0,1.33-1.54,4.69,4.69,0,0,0,.67-1.18,3.39,3.39,0,0,0,.19-1.1,1.69,1.69,0,0,0-.44-1.22,1.61,1.61,0,0,0-1.21-.45,2.29,2.29,0,0,0-1.14.25,3.08,3.08,0,0,0-.89.77l-.9-.69a4,4,0,0,1,1.28-1.07A3.8,3.8,0,0,1,193.07,338.39Z" transform="translate(-72.53 -181.94)"/><path class="cls-2" d="M217,338.39a2.66,2.66,0,0,1,2.4,1.3,8.86,8.86,0,0,1,0,7.4,2.87,2.87,0,0,1-4.8,0,8.86,8.86,0,0,1,0-7.4A2.64,2.64,0,0,1,217,338.39Zm0,1.06a1.47,1.47,0,0,0-1.35.92,6.87,6.87,0,0,0-.49,3,11,11,0,0,0,.22,2.44l2.86-5.78A1.44,1.44,0,0,0,217,339.45Zm1.83,3.93a11.11,11.11,0,0,0-.2-2.36l-2.84,5.76a1.43,1.43,0,0,0,1.21.55,1.49,1.49,0,0,0,1.35-.92A7,7,0,0,0,218.78,343.38Z" transform="translate(-72.53 -181.94)"/><path class="cls-2" d="M224.06,347.09a1.22,1.22,0,0,1,.37-.9,1.19,1.19,0,0,1,.9-.37,1.26,1.26,0,0,1,1.3,1.27,1.29,1.29,0,0,1-.37.92,1.27,1.27,0,0,1-.93.38,1.2,1.2,0,0,1-.9-.38A1.25,1.25,0,0,1,224.06,347.09Z" transform="translate(-72.53 -181.94)"/><path class="cls-2" d="M236.87,347.13v1.08h-5.69v-1.08h2.37V340l-2.18,1.33-.58-.95,2.92-1.79h1.18v8.56Z" transform="translate(-72.53 -181.94)"/><path class="cls-2" d="M244.83,338.57l-.19,1h-3.77v2.89a3.49,3.49,0,0,1,.82-.31,3.72,3.72,0,0,1,.81-.09,2.49,2.49,0,0,1,1.91.8,3.19,3.19,0,0,1,.74,2.25,3.48,3.48,0,0,1-.41,1.7,3,3,0,0,1-1.17,1.14,3.67,3.67,0,0,1-1.77.41,3.87,3.87,0,0,1-1.6-.32,4.44,4.44,0,0,1-1.26-.89l.81-.78a2.68,2.68,0,0,0,2,.9,1.9,1.9,0,0,0,1.45-.56,2.3,2.3,0,0,0,.52-1.62,2,2,0,0,0-.48-1.56,1.73,1.73,0,0,0-1.19-.44,3.11,3.11,0,0,0-.72.08,6.36,6.36,0,0,0-.73.25h-1v-4.88Z" transform="translate(-72.53 -181.94)"/><path class="cls-2" d="M261.88,338.39a2.64,2.64,0,0,1,2.39,1.3,8.76,8.76,0,0,1,0,7.4,2.86,2.86,0,0,1-4.79,0,8.76,8.76,0,0,1,0-7.4A2.64,2.64,0,0,1,261.88,338.39Zm0,1.06a1.47,1.47,0,0,0-1.35.92,6.72,6.72,0,0,0-.49,3,10.39,10.39,0,0,0,.22,2.44l2.85-5.78A1.42,1.42,0,0,0,261.88,339.45Zm1.83,3.93a11.11,11.11,0,0,0-.2-2.36l-2.84,5.76a1.42,1.42,0,0,0,1.21.55,1.49,1.49,0,0,0,1.35-.92A7,7,0,0,0,263.71,343.38Z" transform="translate(-72.53 -181.94)"/><path class="cls-2" d="M269,347.09a1.25,1.25,0,0,1,.36-.9,1.3,1.3,0,0,1,2.21.9,1.26,1.26,0,0,1-.38.92,1.29,1.29,0,0,1-1.83,0A1.28,1.28,0,0,1,269,347.09Z" transform="translate(-72.53 -181.94)"/><path class="cls-2" d="M280.72,342.19v2.67h1.21v1.06h-1.21v2.29h-1.29v-2.29h-4v-1l2.81-6.57,1.12.46-2.52,6h2.61l.16-2.67Z" transform="translate(-72.53 -181.94)"/><path class="cls-2" d="M286.18,348.36l-1.26-.39,3.73-8.32h-4.48v-1.08H290v1Z" transform="translate(-72.53 -181.94)"/><path class="cls-2" d="M127.09,476.44a2.65,2.65,0,0,1,2.4,1.29,8.76,8.76,0,0,1,0,7.4,2.86,2.86,0,0,1-4.79,0,8.76,8.76,0,0,1,0-7.4A2.65,2.65,0,0,1,127.09,476.44Zm0,1.05a1.48,1.48,0,0,0-1.34.92,6.77,6.77,0,0,0-.49,3,10.35,10.35,0,0,0,.22,2.43l2.85-5.77A1.41,1.41,0,0,0,127.09,477.49Zm1.84,3.94a11.15,11.15,0,0,0-.2-2.37l-2.84,5.76a1.41,1.41,0,0,0,1.2.55,1.47,1.47,0,0,0,1.36-.92A6.94,6.94,0,0,0,128.93,481.43Z" transform="translate(-72.53 -181.94)"/><path class="cls-2" d="M134.21,485.14a1.29,1.29,0,0,1,2.19-.91,1.3,1.3,0,0,1,0,1.82,1.29,1.29,0,0,1-1.83,0A1.26,1.26,0,0,1,134.21,485.14Z" transform="translate(-72.53 -181.94)"/><path class="cls-2" d="M143.89,476.44a2.65,2.65,0,0,1,2.4,1.29,8.76,8.76,0,0,1,0,7.4,2.86,2.86,0,0,1-4.79,0,8.76,8.76,0,0,1,0-7.4A2.65,2.65,0,0,1,143.89,476.44Zm0,1.05a1.48,1.48,0,0,0-1.34.92,6.77,6.77,0,0,0-.49,3,10.35,10.35,0,0,0,.22,2.43l2.85-5.77A1.41,1.41,0,0,0,143.89,477.49Zm1.84,3.94a10.43,10.43,0,0,0-.21-2.37l-2.83,5.76a1.41,1.41,0,0,0,1.2.55,1.47,1.47,0,0,0,1.36-.92A6.94,6.94,0,0,0,145.73,481.43Z" transform="translate(-72.53 -181.94)"/><path class="cls-2" d="M155,476.61l-.19,1H151v2.89a3,3,0,0,1,.82-.31,3.59,3.59,0,0,1,.81-.09,2.47,2.47,0,0,1,1.91.8,3.18,3.18,0,0,1,.74,2.24,3.35,3.35,0,0,1-.42,1.7,2.83,2.83,0,0,1-1.16,1.14,3.67,3.67,0,0,1-1.77.41,3.92,3.92,0,0,1-1.61-.32,4.08,4.08,0,0,1-1.25-.89l.81-.78a2.68,2.68,0,0,0,2,.9,1.88,1.88,0,0,0,1.44-.56,2.27,2.27,0,0,0,.53-1.62,2.08,2.08,0,0,0-.49-1.56,1.68,1.68,0,0,0-1.18-.43,2.77,2.77,0,0,0-.73.08,5.12,5.12,0,0,0-.73.24h-1v-4.88Z" transform="translate(-72.53 -181.94)"/><path class="cls-2" d="M176.45,476.44a2.68,2.68,0,0,1,2.4,1.29,8.86,8.86,0,0,1,0,7.4,2.87,2.87,0,0,1-4.8,0,8.76,8.76,0,0,1,0-7.4A2.65,2.65,0,0,1,176.45,476.44Zm0,1.05a1.49,1.49,0,0,0-1.35.92,6.92,6.92,0,0,0-.49,3,10.92,10.92,0,0,0,.22,2.43l2.86-5.77A1.42,1.42,0,0,0,176.45,477.49Zm1.83,3.94a11.15,11.15,0,0,0-.2-2.37l-2.84,5.76a1.43,1.43,0,0,0,1.21.55,1.47,1.47,0,0,0,1.35-.92A6.94,6.94,0,0,0,178.28,481.43Z" transform="translate(-72.53 -181.94)"/><path class="cls-2" d="M183.56,485.14a1.26,1.26,0,0,1,1.27-1.28,1.3,1.3,0,0,1,.93.37,1.3,1.3,0,0,1,0,1.82,1.23,1.23,0,0,1-.93.38,1.17,1.17,0,0,1-.9-.38A1.23,1.23,0,0,1,183.56,485.14Z" transform="translate(-72.53 -181.94)"/><path class="cls-2" d="M192.83,476.44a3.36,3.36,0,0,1,1.61.36,2.45,2.45,0,0,1,1,1,2.76,2.76,0,0,1,.35,1.37,3.76,3.76,0,0,1-.23,1.28,5,5,0,0,1-.72,1.3,14.24,14.24,0,0,1-1.31,1.52c-.54.55-1.21,1.19-2,1.9H196l-.16,1.12H190V485.2c.89-.85,1.62-1.58,2.19-2.17a17.48,17.48,0,0,0,1.33-1.54,5.06,5.06,0,0,0,.67-1.18,3.18,3.18,0,0,0,.19-1.1A1.7,1.7,0,0,0,194,478a1.61,1.61,0,0,0-1.21-.45,2.4,2.4,0,0,0-1.14.25,3,3,0,0,0-.89.78l-.9-.7a4,4,0,0,1,1.28-1.06A3.8,3.8,0,0,1,192.83,476.44Z" transform="translate(-72.53 -181.94)"/><path class="cls-2" d="M127.56,614.48a2.65,2.65,0,0,1,2.4,1.3,8.83,8.83,0,0,1,0,7.39,2.87,2.87,0,0,1-4.8,0,8.83,8.83,0,0,1,0-7.39A2.66,2.66,0,0,1,127.56,614.48Zm0,1.06a1.5,1.5,0,0,0-1.35.91,6.94,6.94,0,0,0-.48,3,11.06,11.06,0,0,0,.21,2.44l2.86-5.78A1.4,1.4,0,0,0,127.56,615.54Zm1.84,3.93a10.55,10.55,0,0,0-.21-2.37l-2.83,5.76a1.42,1.42,0,0,0,1.2.56,1.5,1.5,0,0,0,1.36-.92A7.18,7.18,0,0,0,129.4,619.47Z" transform="translate(-72.53 -181.94)"/><path class="cls-2" d="M134.67,623.18a1.19,1.19,0,0,1,.37-.9,1.21,1.21,0,0,1,.91-.37,1.25,1.25,0,0,1,.92.37,1.19,1.19,0,0,1,.37.9,1.27,1.27,0,0,1-.37.92,1.25,1.25,0,0,1-.92.37,1.21,1.21,0,0,1-.91-.37A1.27,1.27,0,0,1,134.67,623.18Z" transform="translate(-72.53 -181.94)"/><path class="cls-2" d="M144.36,614.48a2.66,2.66,0,0,1,2.4,1.3,8.83,8.83,0,0,1,0,7.39,2.87,2.87,0,0,1-4.8,0,8.83,8.83,0,0,1,0-7.39A2.66,2.66,0,0,1,144.36,614.48Zm0,1.06a1.5,1.5,0,0,0-1.35.91,6.94,6.94,0,0,0-.48,3,11.06,11.06,0,0,0,.21,2.44l2.86-5.78A1.4,1.4,0,0,0,144.36,615.54Zm1.83,3.93a10.64,10.64,0,0,0-.2-2.37l-2.83,5.76a1.42,1.42,0,0,0,1.2.56,1.49,1.49,0,0,0,1.35-.92A7,7,0,0,0,146.19,619.47Z" transform="translate(-72.53 -181.94)"/><path class="cls-2" d="M155.44,614.65l-.19,1h-3.77v2.89a3.39,3.39,0,0,1,.83-.31,3.59,3.59,0,0,1,.81-.09,2.47,2.47,0,0,1,1.9.8,3.15,3.15,0,0,1,.74,2.25,3.41,3.41,0,0,1-.41,1.69,2.86,2.86,0,0,1-1.17,1.14,3.55,3.55,0,0,1-1.76.41,3.73,3.73,0,0,1-1.61-.32,4.07,4.07,0,0,1-1.26-.89l.81-.77a2.73,2.73,0,0,0,2,.89,1.85,1.85,0,0,0,1.44-.56,2.26,2.26,0,0,0,.52-1.61,2,2,0,0,0-.48-1.56,1.71,1.71,0,0,0-1.18-.44,3.2,3.2,0,0,0-.73.08c-.22.06-.46.14-.73.24h-1v-4.88Z" transform="translate(-72.53 -181.94)"/><path class="cls-2" d="M218.94,476.44a2.65,2.65,0,0,1,2.4,1.29,8.76,8.76,0,0,1,0,7.4,2.86,2.86,0,0,1-4.79,0,8.76,8.76,0,0,1,0-7.4A2.65,2.65,0,0,1,218.94,476.44Zm0,1.05a1.48,1.48,0,0,0-1.34.92,6.77,6.77,0,0,0-.49,3,10.35,10.35,0,0,0,.22,2.43l2.85-5.77A1.41,1.41,0,0,0,218.94,477.49Zm1.84,3.94a11.15,11.15,0,0,0-.2-2.37l-2.84,5.76a1.41,1.41,0,0,0,1.2.55,1.47,1.47,0,0,0,1.36-.92A6.94,6.94,0,0,0,220.78,481.43Z" transform="translate(-72.53 -181.94)"/><path class="cls-2" d="M226.06,485.14a1.29,1.29,0,0,1,2.19-.91,1.3,1.3,0,0,1,0,1.82,1.29,1.29,0,0,1-1.83,0A1.26,1.26,0,0,1,226.06,485.14Z" transform="translate(-72.53 -181.94)"/><path class="cls-2" d="M238.87,485.18v1.08h-5.69v-1.08h2.37V478l-2.18,1.33-.58-1,2.91-1.79h1.18v8.57Z" transform="translate(-72.53 -181.94)"/><path class="cls-2" d="M246.82,476.61l-.19,1h-3.76v2.89a3,3,0,0,1,.82-.31,3.59,3.59,0,0,1,.81-.09,2.47,2.47,0,0,1,1.91.8,3.18,3.18,0,0,1,.74,2.24,3.35,3.35,0,0,1-.42,1.7,2.83,2.83,0,0,1-1.16,1.14,3.67,3.67,0,0,1-1.77.41,3.92,3.92,0,0,1-1.61-.32,4.08,4.08,0,0,1-1.25-.89l.81-.78a2.68,2.68,0,0,0,2,.9,1.88,1.88,0,0,0,1.44-.56,2.27,2.27,0,0,0,.53-1.62,2.08,2.08,0,0,0-.49-1.56,1.68,1.68,0,0,0-1.18-.43,2.77,2.77,0,0,0-.73.08,5.12,5.12,0,0,0-.73.24h-1v-4.88Z" transform="translate(-72.53 -181.94)"/><path class="cls-2" d="M217,614.48a2.66,2.66,0,0,1,2.4,1.3,8.83,8.83,0,0,1,0,7.39,2.87,2.87,0,0,1-4.8,0,8.83,8.83,0,0,1,0-7.39A2.64,2.64,0,0,1,217,614.48Zm0,1.06a1.48,1.48,0,0,0-1.35.91,6.92,6.92,0,0,0-.49,3,11,11,0,0,0,.22,2.44l2.86-5.78A1.42,1.42,0,0,0,217,615.54Zm1.83,3.93a11.28,11.28,0,0,0-.2-2.37l-2.84,5.76a1.44,1.44,0,0,0,1.21.56,1.49,1.49,0,0,0,1.35-.92A7,7,0,0,0,218.78,619.47Z" transform="translate(-72.53 -181.94)"/><path class="cls-2" d="M224.06,623.18a1.26,1.26,0,0,1,1.27-1.27,1.26,1.26,0,0,1,.93.37,1.23,1.23,0,0,1,.37.9,1.31,1.31,0,0,1-.37.92,1.26,1.26,0,0,1-.93.37,1.19,1.19,0,0,1-.9-.37A1.27,1.27,0,0,1,224.06,623.18Z" transform="translate(-72.53 -181.94)"/><path class="cls-2" d="M236.87,623.22v1.08h-5.69v-1.08h2.37v-7.15l-2.18,1.33-.58-.95,2.92-1.8h1.18v8.57Z" transform="translate(-72.53 -181.94)"/><path class="cls-2" d="M244.83,614.65l-.19,1h-3.77v2.89a3.49,3.49,0,0,1,.82-.31,3.72,3.72,0,0,1,.81-.09,2.49,2.49,0,0,1,1.91.8,3.19,3.19,0,0,1,.74,2.25,3.41,3.41,0,0,1-.41,1.69,2.92,2.92,0,0,1-1.17,1.14,3.56,3.56,0,0,1-1.77.41,3.72,3.72,0,0,1-1.6-.32,4.07,4.07,0,0,1-1.26-.89l.81-.77a2.71,2.71,0,0,0,2,.89,1.86,1.86,0,0,0,1.45-.56,2.26,2.26,0,0,0,.52-1.61,2,2,0,0,0-.48-1.56,1.73,1.73,0,0,0-1.19-.44,3.11,3.11,0,0,0-.72.08c-.22.06-.46.14-.73.24h-1v-4.88Z" transform="translate(-72.53 -181.94)"/><path class="cls-2" d="M176.45,614.48a2.66,2.66,0,0,1,2.4,1.3,8.83,8.83,0,0,1,0,7.39,2.87,2.87,0,0,1-4.8,0,8.74,8.74,0,0,1,0-7.39A2.64,2.64,0,0,1,176.45,614.48Zm0,1.06a1.48,1.48,0,0,0-1.35.91,6.92,6.92,0,0,0-.49,3,11,11,0,0,0,.22,2.44l2.86-5.78A1.42,1.42,0,0,0,176.45,615.54Zm1.83,3.93a11.28,11.28,0,0,0-.2-2.37l-2.84,5.76a1.44,1.44,0,0,0,1.21.56,1.49,1.49,0,0,0,1.35-.92A7,7,0,0,0,178.28,619.47Z" transform="translate(-72.53 -181.94)"/><path class="cls-2" d="M183.56,623.18a1.26,1.26,0,0,1,1.27-1.27,1.26,1.26,0,0,1,.93.37,1.23,1.23,0,0,1,.37.9,1.31,1.31,0,0,1-.37.92,1.26,1.26,0,0,1-.93.37,1.19,1.19,0,0,1-.9-.37A1.27,1.27,0,0,1,183.56,623.18Z" transform="translate(-72.53 -181.94)"/><path class="cls-2" d="M192.83,614.48a3.36,3.36,0,0,1,1.61.36,2.45,2.45,0,0,1,1,1,2.77,2.77,0,0,1,.35,1.38,3.7,3.7,0,0,1-.23,1.27,5.07,5.07,0,0,1-.72,1.31,14.23,14.23,0,0,1-1.31,1.51c-.54.56-1.21,1.19-2,1.91H196l-.16,1.11H190v-1.06c.89-.85,1.62-1.58,2.19-2.17a17.48,17.48,0,0,0,1.33-1.54,4.87,4.87,0,0,0,.67-1.18,3.18,3.18,0,0,0,.19-1.1A1.66,1.66,0,0,0,194,616a1.61,1.61,0,0,0-1.21-.45,2.41,2.41,0,0,0-1.14.24,3.13,3.13,0,0,0-.89.78l-.9-.69a4,4,0,0,1,1.28-1.07A3.8,3.8,0,0,1,192.83,614.48Z" transform="translate(-72.53 -181.94)"/><path class="cls-2" d="M261,476.44a2.66,2.66,0,0,1,2.4,1.29,8.86,8.86,0,0,1,0,7.4,2.87,2.87,0,0,1-4.8,0,8.86,8.86,0,0,1,0-7.4A2.68,2.68,0,0,1,261,476.44Zm0,1.05a1.51,1.51,0,0,0-1.35.92,6.94,6.94,0,0,0-.48,3,11,11,0,0,0,.21,2.43l2.86-5.77A1.41,1.41,0,0,0,261,477.49Zm1.83,3.94a10.52,10.52,0,0,0-.2-2.37l-2.83,5.76a1.41,1.41,0,0,0,1.2.55,1.48,1.48,0,0,0,1.36-.92A7.13,7.13,0,0,0,262.79,481.43Z" transform="translate(-72.53 -181.94)"/><path class="cls-2" d="M268.07,485.14a1.23,1.23,0,0,1,.37-.91,1.25,1.25,0,0,1,.91-.37,1.29,1.29,0,0,1,.92.37,1.29,1.29,0,0,1-.92,2.2,1.19,1.19,0,0,1-.91-.38A1.23,1.23,0,0,1,268.07,485.14Z" transform="translate(-72.53 -181.94)"/><path class="cls-2" d="M279.81,480.24v2.66H281V484h-1.2v2.3h-1.29V484h-4V483l2.81-6.57,1.13.46-2.52,6h2.6l.17-2.66Z" transform="translate(-72.53 -181.94)"/><path class="cls-2" d="M285.26,486.4,284,486l3.73-8.33h-4.48v-1.08h5.84v1Z" transform="translate(-72.53 -181.94)"/><path class="cls-2" d="M261.63,614.48a2.65,2.65,0,0,1,2.4,1.3,8.83,8.83,0,0,1,0,7.39,2.87,2.87,0,0,1-4.8,0,8.83,8.83,0,0,1,0-7.39A2.66,2.66,0,0,1,261.63,614.48Zm0,1.06a1.5,1.5,0,0,0-1.35.91,6.94,6.94,0,0,0-.48,3,11.06,11.06,0,0,0,.21,2.44l2.86-5.78A1.4,1.4,0,0,0,261.63,615.54Zm1.84,3.93a10.55,10.55,0,0,0-.21-2.37l-2.83,5.76a1.42,1.42,0,0,0,1.2.56,1.5,1.5,0,0,0,1.36-.92A7,7,0,0,0,263.47,619.47Z" transform="translate(-72.53 -181.94)"/><path class="cls-2" d="M268.74,623.18a1.19,1.19,0,0,1,.37-.9,1.21,1.21,0,0,1,.91-.37,1.24,1.24,0,0,1,.92.37,1.19,1.19,0,0,1,.37.9,1.27,1.27,0,0,1-.37.92,1.24,1.24,0,0,1-.92.37,1.21,1.21,0,0,1-.91-.37A1.27,1.27,0,0,1,268.74,623.18Z" transform="translate(-72.53 -181.94)"/><path class="cls-2" d="M280.48,618.28V621h1.21v1h-1.21v2.3h-1.29V622h-4v-1l2.8-6.57,1.13.46-2.52,6h2.6l.17-2.67Z" transform="translate(-72.53 -181.94)"/><path class="cls-2" d="M285.93,624.45l-1.26-.39,3.73-8.32h-4.48v-1.09h5.84v1Z" transform="translate(-72.53 -181.94)"/></svg>