<svg id="Calque_1" data-name="Calque 1" xmlns="http://www.w3.org/2000/svg" viewBox="0 0 405.08 460.06"><defs><style>.cls-1{fill:#fff;stroke:#1d1d1b;stroke-miterlimit:10;}.cls-2{font-size:24px;}.cls-2,.cls-4,.cls-5{fill:#1d1d1b;}.cls-2,.cls-5{font-family:FiraCode-Retina, Fira Code;}.cls-3{fill:none;}.cls-5{font-size:14px;}</style></defs><rect class="cls-1" x="45.16" y="0.5" width="44.93" height="44.93"/><rect class="cls-1" x="90.09" y="0.5" width="44.93" height="44.93"/><rect class="cls-1" x="135.02" y="0.5" width="44.93" height="44.93"/><rect class="cls-1" x="179.94" y="0.5" width="44.93" height="44.93"/><rect class="cls-1" x="224.87" y="0.5" width="44.93" height="44.93"/><rect class="cls-1" x="269.8" y="0.5" width="44.93" height="44.93"/><rect class="cls-1" x="314.72" y="0.5" width="44.93" height="44.93"/><rect class="cls-1" x="359.65" y="0.5" width="44.93" height="44.93"/><rect class="cls-1" x="44.7" y="138.54" width="44.93" height="44.93"/><rect class="cls-1" x="89.62" y="138.54" width="44.93" height="44.93"/><rect class="cls-1" x="134.55" y="138.54" width="44.93" height="44.93"/><rect class="cls-1" x="179.48" y="138.54" width="44.93" height="44.93"/><rect class="cls-1" x="224.4" y="138.54" width="44.93" height="44.93"/><rect class="cls-1" x="269.33" y="138.54" width="44.93" height="44.93"/><rect class="cls-1" x="314.26" y="138.54" width="44.93" height="44.93"/><rect class="cls-1" x="359.19" y="138.54" width="44.93" height="44.93"/><rect class="cls-1" x="45.16" y="276.59" width="44.93" height="44.93"/><rect class="cls-1" x="90.09" y="276.59" width="44.93" height="44.93"/><rect class="cls-1" x="135.02" y="276.59" width="44.93" height="44.93"/><rect class="cls-1" x="179.94" y="276.59" width="44.93" height="44.93"/><rect class="cls-1" x="224.87" y="276.59" width="44.93" height="44.93"/><rect class="cls-1" x="269.8" y="276.59" width="44.93" height="44.93"/><rect class="cls-1" x="314.72" y="276.59" width="44.93" height="44.93"/><rect class="cls-1" x="358.95" y="276.59" width="44.93" height="44.93"/><rect class="cls-1" x="44.7" y="414.63" width="44.93" height="44.93"/><rect class="cls-1" x="89.62" y="414.63" width="44.93" height="44.93"/><rect class="cls-1" x="134.55" y="414.63" width="44.93" height="44.93"/><rect class="cls-1" x="179.48" y="414.63" width="44.93" height="44.93"/><rect class="cls-1" x="224.4" y="414.63" width="44.93" height="44.93"/><rect class="cls-1" x="269.33" y="414.63" width="44.93" height="44.93"/><rect class="cls-1" x="314.26" y="414.63" width="44.93" height="44.93"/><rect class="cls-1" x="359.19" y="414.63" width="44.93" height="44.93"/><circle class="cls-1" cx="67.63" cy="91.99" r="16.25"/><circle class="cls-1" cx="112.55" cy="91.99" r="16.25"/><circle class="cls-1" cx="157.48" cy="91.99" r="16.25"/><circle class="cls-1" cx="202.41" cy="91.99" r="16.25"/><circle class="cls-1" cx="67.16" cy="230.03" r="16.25"/><circle class="cls-1" cx="112.55" cy="230.03" r="16.25"/><circle class="cls-1" cx="67.63" cy="368.07" r="16.25"/><text class="cls-2" transform="translate(59.96 101)">0</text><text class="cls-2" transform="translate(59.96 239.05)">0</text><text class="cls-2" transform="translate(105.35 239.05)">1</text><text class="cls-2" transform="translate(105.35 101)">1</text><text class="cls-2" transform="translate(151.81 101)">2</text><text class="cls-2" transform="translate(59.96 377.09)">0</text><text class="cls-2" transform="translate(195.21 101)">3</text><line class="cls-3" x1="67.16" y1="51.04" x2="67.63" y2="64.81"/><line class="cls-3" x1="112.09" y1="51.77" x2="112.09" y2="66.26"/><line class="cls-3" y1="45.43" y2="59.01"/><polygon class="cls-4" points="66.56 49.87 66.53 58.67 66.53 59.04 61.9 59.02 67.13 68.16 72.42 59.06 67.8 59.04 67.8 58.68 67.83 49.87 66.56 49.87"/><polygon class="cls-4" points="111.49 50.04 111.45 58.84 111.45 59.21 106.82 59.19 112.05 68.33 117.35 59.23 112.72 59.22 112.72 58.85 112.76 50.04 111.49 50.04"/><polygon class="cls-4" points="156.88 49.87 156.85 58.67 156.85 59.04 152.22 59.02 157.45 68.16 162.75 59.06 158.12 59.04 158.12 58.68 158.15 49.87 156.88 49.87"/><polygon class="cls-4" points="201.34 50.38 201.31 59.19 201.31 59.55 196.68 59.54 201.91 68.67 207.21 59.58 202.58 59.56 202.58 59.19 202.61 50.38 201.34 50.38"/><polygon class="cls-4" points="66.79 114.24 66.76 123.04 66.76 123.41 62.13 123.39 67.36 132.53 72.66 123.44 68.03 123.42 68.03 123.05 68.06 114.24 66.79 114.24"/><polygon class="cls-4" points="111.24 114.24 111.21 123.04 111.21 123.41 106.58 123.39 111.81 132.53 117.11 123.44 112.48 123.42 112.48 123.05 112.51 114.24 111.24 114.24"/><polygon class="cls-4" points="156.63 114.58 156.6 123.39 156.6 123.75 151.97 123.74 157.2 132.88 162.5 123.78 157.87 123.76 157.87 123.39 157.9 114.59 156.63 114.58"/><polygon class="cls-4" points="201.1 114.24 201.06 123.04 201.06 123.41 196.43 123.39 201.66 132.53 206.96 123.44 202.33 123.42 202.33 123.05 202.37 114.24 201.1 114.24"/><polygon class="cls-4" points="67.03 189.48 66.99 198.28 66.99 198.65 62.36 198.63 67.59 207.77 72.89 198.67 68.26 198.66 68.26 198.29 68.3 189.48 67.03 189.48"/><polygon class="cls-4" points="111.95 189.65 111.92 198.46 111.92 198.82 107.29 198.81 112.52 207.94 117.82 198.84 113.19 198.83 113.19 198.46 113.22 189.65 111.95 189.65"/><polygon class="cls-4" points="66.79 252.28 66.76 261.09 66.76 261.46 62.13 261.44 67.36 270.58 72.66 261.48 68.03 261.46 68.03 261.09 68.06 252.29 66.79 252.28"/><polygon class="cls-4" points="111.72 252.45 111.68 261.26 111.68 261.63 107.05 261.61 112.28 270.75 117.58 261.65 112.95 261.63 112.95 261.26 112.98 252.46 111.72 252.45"/><polygon class="cls-4" points="67.03 327.52 66.99 336.33 66.99 336.69 62.36 336.68 67.59 345.82 72.89 336.72 68.26 336.7 68.26 336.33 68.3 327.53 67.03 327.52"/><polygon class="cls-4" points="67.03 390.33 66.99 399.13 66.99 399.5 62.36 399.48 67.59 408.62 72.89 399.52 68.26 399.5 68.26 399.14 68.3 390.33 67.03 390.33"/><polygon class="cls-4" points="111.58 330.13 84.83 341.51 82.89 336.93 76.09 345.97 87.32 347.34 85.37 342.76 112.11 331.38 111.58 330.13"/><polygon class="cls-4" points="156.88 189.53 86.29 203.54 85.32 198.66 76.81 206.12 87.52 209.76 86.55 204.88 157.15 190.87 156.88 189.53"/><polygon class="cls-4" points="206.96 190.52 135.19 205.61 134.17 200.74 125.74 208.29 136.49 211.81 135.47 206.94 207.24 191.86 206.96 190.52"/><polygon class="cls-4" points="249.84 48.58 85.37 67.05 84.82 62.1 75.71 68.82 86.08 73.34 85.53 68.4 249.99 49.93 249.84 48.58"/><polygon class="cls-4" points="296.87 50.3 127.56 69.55 127 64.61 117.91 71.33 128.28 75.85 127.72 70.91 297.03 51.66 296.87 50.3"/><polygon class="cls-4" points="341.41 49.79 173.42 70.89 172.8 65.95 163.79 72.78 174.21 77.17 173.59 72.24 341.58 51.14 341.41 49.79"/><polygon class="cls-4" points="384.01 50.5 217.07 70.92 216.47 65.98 207.43 72.78 217.84 77.21 217.24 72.27 384.17 51.85 384.01 50.5"/><text class="cls-5" transform="translate(56.22 28.22)">0.1</text><text class="cls-5" transform="translate(100.63 28.22)">0.3</text><text class="cls-5" transform="translate(140.68 28.22)">0.15</text><text class="cls-5" transform="translate(189.1 28.22)">0.8</text><text class="cls-5" transform="translate(230.07 28.22)">0.05</text><text class="cls-5" transform="translate(279.19 28.22)">0.2</text><text class="cls-5" transform="translate(319.92 28.22)">0.75</text><text class="cls-5" transform="translate(364.62 28.22)">0.47</text><text class="cls-5" transform="translate(230.47 442.35)">0.05</text><text class="cls-5" transform="translate(279.6 442.35)">0.2</text><text class="cls-5" transform="translate(320.32 442.35)">0.75</text><text class="cls-5" transform="translate(365.02 442.35)">0.47</text><text class="cls-5" transform="translate(230 304.31)">0.05</text><text class="cls-5" transform="translate(279.13 304.31)">0.2</text><text class="cls-5" transform="translate(319.86 304.31)">0.75</text><text class="cls-5" transform="translate(364.55 304.31)">0.47</text><text class="cls-5" transform="translate(230.47 166.27)">0.05</text><text class="cls-5" transform="translate(279.6 166.27)">0.2</text><text class="cls-5" transform="translate(320.32 166.27)">0.75</text><text class="cls-5" transform="translate(365.02 166.27)">0.47</text><text class="cls-5" transform="translate(49.97 166.27)">0.05</text><text class="cls-5" transform="translate(99.95 166.27)">0.2</text><text class="cls-5" transform="translate(140.21 166.27)">0.15</text><text class="cls-5" transform="translate(185.14 166.27)">0.47</text><text class="cls-5" transform="translate(50.36 304.31)">0.05</text><text class="cls-5" transform="translate(99.71 304.31)">0.2</text><text class="cls-5" transform="translate(50.83 442.35)">0.05</text><text class="cls-5" transform="translate(142.21 304.31)">0.15</text><text class="cls-5" transform="translate(140.21 442.35)">0.15</text><text class="cls-5" transform="translate(99.71 442.35)">0.2</text><text class="cls-5" transform="translate(184.23 304.31)">0.47</text><text class="cls-5" transform="translate(184.9 442.35)">0.47</text></svg>