<svg id="Calque_1" data-name="Calque 1" xmlns="http://www.w3.org/2000/svg" viewBox="0 0 569.44 417.09"><defs><style>.cls-1{fill:#fff;stroke:#1d1d1b;stroke-miterlimit:10;stroke-width:3px;}.cls-2{font-size:24px;font-family:FiraCode, Fira Code;}.cls-2,.cls-4{fill:#1d1d1b;}.cls-3{fill:none;}</style></defs><rect class="cls-1" x="1.5" y="1.5" width="141.61" height="141.61"/><rect class="cls-1" x="143.11" y="1.5" width="141.61" height="141.61"/><rect class="cls-1" x="284.72" y="1.5" width="141.61" height="141.61"/><rect class="cls-1" x="426.33" y="1.5" width="141.61" height="141.61"/><rect class="cls-1" x="1.5" y="273.98" width="141.61" height="141.61"/><rect class="cls-1" x="143.11" y="273.98" width="141.61" height="141.61"/><rect class="cls-1" x="284.72" y="273.98" width="141.61" height="141.61"/><rect class="cls-1" x="426.33" y="273.98" width="141.61" height="141.61"/><text class="cls-2" transform="translate(29.11 353.81)">(1, 1)</text><text class="cls-2" transform="translate(170.72 353.81)">(1, 2)</text><text class="cls-2" transform="translate(312.33 353.81)">(1, 3)</text><text class="cls-2" transform="translate(453.94 353.81)">(1, 4)</text><text class="cls-2" transform="translate(453.94 81.32)">(2, 4)</text><text class="cls-2" transform="translate(312.33 81.32)">(2, 3)</text><text class="cls-2" transform="translate(29.11 81.32)">(2, 1)</text><text class="cls-2" transform="translate(170.72 81.32)">(2, 2)</text><rect class="cls-3" x="59.15" y="178.98" width="26.31" height="45.7"/><polygon class="cls-4" points="73.89 224.69 73.89 201.77 85.46 201.77 72.31 178.98 59.15 201.77 70.72 201.77 70.72 224.69 73.89 224.69"/><rect class="cls-3" x="200.76" y="178.98" width="26.31" height="45.7"/><polygon class="cls-4" points="215.5 224.69 215.5 201.77 227.07 201.77 213.92 178.98 200.76 201.77 212.33 201.77 212.33 224.69 215.5 224.69"/><rect class="cls-3" x="483.98" y="178.98" width="26.31" height="45.7"/><polygon class="cls-4" points="498.72 224.69 498.72 201.77 510.29 201.77 497.14 178.98 483.98 201.77 495.55 201.77 495.55 224.69 498.72 224.69"/><rect class="cls-3" x="342.37" y="178.98" width="26.31" height="45.7"/><polygon class="cls-4" points="357.11 224.69 357.11 201.77 368.68 201.77 355.53 178.98 342.37 201.77 353.94 201.77 353.94 224.69 357.11 224.69"/></svg>