<svg id="Calque_1" data-name="Calque 1" xmlns="http://www.w3.org/2000/svg" viewBox="0 0 658.61 417.09"><defs><style>.cls-1{fill:#fff;stroke:#1d1d1b;stroke-miterlimit:10;stroke-width:3px;}.cls-2{font-size:24px;font-family:FiraCode-Retina, Fira Code;}.cls-2,.cls-4{fill:#1d1d1b;}.cls-3{fill:none;}</style></defs><rect class="cls-1" x="1.5" y="1.5" width="141.61" height="141.61"/><rect class="cls-1" x="170.66" y="1.5" width="141.61" height="141.61"/><rect class="cls-1" x="345.83" y="1.5" width="141.61" height="141.61"/><rect class="cls-1" x="515.5" y="1.5" width="141.61" height="141.61"/><rect class="cls-1" x="1.5" y="273.98" width="141.61" height="141.61"/><rect class="cls-1" x="170.66" y="273.98" width="141.61" height="141.61"/><rect class="cls-1" x="345.83" y="273.98" width="141.61" height="141.61"/><rect class="cls-1" x="515.5" y="273.98" width="141.61" height="141.61"/><text class="cls-2" transform="translate(65.11 353.81)">1</text><text class="cls-2" transform="translate(234.26 353.81)">2</text><text class="cls-2" transform="translate(409.43 353.81)">3</text><text class="cls-2" transform="translate(579.11 353.81)">4</text><text class="cls-2" transform="translate(571.91 81.32)">96</text><text class="cls-2" transform="translate(409.43 81.32)">2</text><text class="cls-2" transform="translate(57.91 81.32)">12</text><text class="cls-2" transform="translate(227.06 81.32)">14</text><rect class="cls-3" x="59.15" y="178.98" width="26.31" height="45.7"/><polygon class="cls-4" points="73.89 224.69 73.89 201.77 85.46 201.77 72.31 178.98 59.15 201.77 70.72 201.77 70.72 224.69 73.89 224.69"/><rect class="cls-3" x="228.31" y="178.98" width="26.31" height="45.7"/><polygon class="cls-4" points="243.05 224.69 243.05 201.77 254.62 201.77 241.46 178.98 228.31 201.77 239.88 201.77 239.88 224.69 243.05 224.69"/><rect class="cls-3" x="573.15" y="178.98" width="26.31" height="45.7"/><polygon class="cls-4" points="587.89 224.69 587.89 201.77 599.46 201.77 586.3 178.98 573.15 201.77 584.72 201.77 584.72 224.69 587.89 224.69"/><rect class="cls-3" x="403.48" y="178.98" width="26.31" height="45.7"/><polygon class="cls-4" points="418.22 224.69 418.22 201.77 429.79 201.77 416.63 178.98 403.48 201.77 415.04 201.77 415.04 224.69 418.22 224.69"/></svg>