<svg id="Calque_1" data-name="Calque 1" xmlns="http://www.w3.org/2000/svg" viewBox="0 0 262.00081 128.99993"><defs><style>.cls-1,.cls-3{fill:none;}.cls-1,.cls-2,.cls-3{stroke:#000;stroke-miterlimit:10;}.cls-1{stroke-width:2px;}.cls-2{fill:#f44747;}.cls-4{font-size:12px;font-family:FiraCode-Retina, Fira Code;}.cls-5{fill:#1d1d1d;}</style></defs><line class="cls-1" x1="0.83499" y1="1.00026" x2="204.83516" y2="1"/><line class="cls-1" x1="0.83484" y1="31.00012" x2="204.83516" y2="31.00026"/><rect class="cls-2" x="30.33516" y="1.49981" width="29" height="29"/><rect class="cls-3" x="59.33516" y="1.49981" width="29" height="29"/><rect class="cls-3" x="88.33516" y="1.49981" width="29" height="29"/><rect class="cls-2" x="117.33516" y="1.49981" width="29" height="29"/><rect class="cls-3" x="146.33516" y="1.49981" width="29" height="29"/><rect class="cls-3" x="175.33516" y="1.49981" width="29" height="29"/><text class="cls-4" transform="translate(4.48116 14.28008)">0</text><text class="cls-4" transform="translate(33.44466 14.24799)">1</text><text class="cls-4" transform="translate(62.44481 14.24813)">2</text><text class="cls-4" transform="translate(91.14009 14.85026)">3</text><text class="cls-4" transform="translate(121.14009 14.85026)">4</text><text class="cls-4" transform="translate(149.32643 14.85026)">5</text><rect class="cls-3" x="1.33516" y="1.49981" width="29" height="29"/><text class="cls-4" transform="translate(178.22704 14.66839)">6</text><line class="cls-1" x1="0.00071" y1="97.88441" x2="261.83518" y2="97.99962"/><line class="cls-1" x1="0.00044" y1="127.88416" x2="261.83518" y2="127.99993"/><rect class="cls-2" x="29.50081" y="98.38387" width="29" height="29"/><rect class="cls-3" x="58.50081" y="98.38387" width="29" height="29"/><rect class="cls-3" x="87.50081" y="98.38387" width="29" height="29"/><rect class="cls-2" x="116.50081" y="98.38387" width="29" height="29"/><rect class="cls-3" x="145.50081" y="98.38387" width="29" height="29"/><rect class="cls-3" x="174.50081" y="98.38387" width="29" height="29"/><text class="cls-4" transform="translate(3.64681 111.16414)">0</text><text class="cls-4" transform="translate(32.61032 111.13206)">1</text><text class="cls-4" transform="translate(61.61046 111.13219)">2</text><text class="cls-4" transform="translate(90.30576 111.73432)">3</text><text class="cls-4" transform="translate(120.30576 111.73432)">4</text><text class="cls-4" transform="translate(148.4921 111.73432)">5</text><rect class="cls-2" x="203.50081" y="98.38387" width="29" height="29"/><rect class="cls-2" x="232.50081" y="98.38387" width="29" height="29"/><rect class="cls-3" x="0.50081" y="98.38387" width="29" height="29"/><text class="cls-4" transform="translate(177.39269 111.55245)">6</text><text class="cls-4" transform="translate(206.3562 111.52036)">7</text><text class="cls-4" transform="translate(235.35634 111.5205)">8</text><polygon class="cls-5" points="15.828 36.5 15.828 85.209 12.126 85.209 16.335 92.5 20.544 85.209 16.843 85.209 16.843 36.5 15.828 36.5"/><polygon class="cls-5" points="43.828 36.5 43.828 85.709 40.126 85.709 44.335 93 48.544 85.709 44.843 85.709 44.843 36.5 43.828 36.5"/><polygon class="cls-5" points="72.48 36.88 72.48 85.589 68.778 85.589 72.987 92.88 77.197 85.589 73.495 85.589 73.495 36.88 72.48 36.88"/><polygon class="cls-5" points="100.48 36.88 100.48 86.089 96.778 86.089 100.987 93.38 105.197 86.089 101.495 86.089 101.495 36.88 100.48 36.88"/><polygon class="cls-5" points="130.654 36.69 130.654 85.399 126.952 85.399 131.161 92.69 135.371 85.399 131.669 85.399 131.669 36.69 130.654 36.69"/><polygon class="cls-5" points="158.654 36.69 158.654 85.899 154.952 85.899 159.161 93.19 163.371 85.899 159.669 85.899 159.669 36.69 158.654 36.69"/><polygon class="cls-5" points="187.306 37.07 187.306 85.779 183.604 85.779 187.813 93.07 192.023 85.779 188.321 85.779 188.321 37.07 187.306 37.07"/><polygon class="cls-5" points="44.175 36.981 208.735 91.749 207.566 95.262 215.813 93.571 210.225 87.274 209.056 90.786 44.496 36.018 44.175 36.981"/><polygon class="cls-5" points="131.111 36.955 240.015 90.625 238.378 93.945 246.779 93.393 242.1 86.394 240.464 89.714 131.56 36.044 131.111 36.955"/></svg>