<svg id="Calque_1" data-name="Calque 1" xmlns="http://www.w3.org/2000/svg" viewBox="0 0 378.00295 128.88433"><defs><style>.cls-1,.cls-3{fill:none;}.cls-1,.cls-2,.cls-3{stroke:#000;stroke-miterlimit:10;}.cls-1{stroke-width:2px;}.cls-2{fill:#f44747;}.cls-4{font-size:12px;font-family:FiraCode-Retina, Fira Code;}.cls-5{fill:#1d1d1d;}</style></defs><line class="cls-1" x1="0.83449" y1="1.00026" x2="204.83466" y2="1"/><line class="cls-1" x1="0.83435" y1="31.00012" x2="204.83466" y2="31.00026"/><rect class="cls-2" x="30.33466" y="1.49981" width="29" height="29"/><rect class="cls-3" x="59.33466" y="1.49981" width="29" height="29"/><rect class="cls-3" x="88.33466" y="1.49981" width="29" height="29"/><rect class="cls-3" x="117.33466" y="1.49981" width="29" height="29"/><rect class="cls-2" x="146.33466" y="1.49981" width="29" height="29"/><rect class="cls-3" x="175.33466" y="1.49981" width="29" height="29"/><text class="cls-4" transform="translate(4.48066 14.28008)">0</text><text class="cls-4" transform="translate(33.44416 14.24799)">1</text><text class="cls-4" transform="translate(62.44431 14.24813)">2</text><text class="cls-4" transform="translate(91.1396 14.85026)">3</text><text class="cls-4" transform="translate(121.1396 14.85026)">4</text><text class="cls-4" transform="translate(149.32594 14.85026)">5</text><rect class="cls-3" x="1.33466" y="1.49981" width="29" height="29"/><text class="cls-4" transform="translate(178.22654 14.66839)">6</text><line class="cls-1" x1="0.00015" y1="97.88433" x2="378.00032" y2="97.88407"/><line class="cls-1" y1="127.88418" x2="378.00295" y2="127.88433"/><rect class="cls-2" x="29.50032" y="98.38387" width="29" height="29"/><rect class="cls-2" x="58.50032" y="98.38387" width="29" height="29"/><rect class="cls-2" x="87.50032" y="98.38387" width="29" height="29"/><rect class="cls-2" x="116.50032" y="98.38387" width="29" height="29"/><rect class="cls-3" x="145.50032" y="98.38387" width="29" height="29"/><rect class="cls-3" x="174.50032" y="98.38387" width="29" height="29"/><text class="cls-4" transform="translate(3.64631 111.16414)">0</text><text class="cls-4" transform="translate(32.60983 111.13206)">1</text><text class="cls-4" transform="translate(61.60997 111.13219)">2</text><text class="cls-4" transform="translate(90.30526 111.73432)">3</text><text class="cls-4" transform="translate(120.30526 111.73432)">4</text><text class="cls-4" transform="translate(148.4916 111.73432)">5</text><rect class="cls-3" x="203.50032" y="98.38387" width="29" height="29"/><rect class="cls-2" x="232.50032" y="98.38387" width="29" height="29"/><rect class="cls-2" x="261.50032" y="98.38387" width="29" height="29"/><rect class="cls-2" x="290.50032" y="98.38387" width="29" height="29"/><rect class="cls-2" x="319.50032" y="98.38387" width="29" height="29"/><rect class="cls-3" x="348.50032" y="98.38387" width="29" height="29"/><rect class="cls-3" x="0.50032" y="98.38387" width="29" height="29"/><text class="cls-4" transform="translate(177.39219 111.55245)">6</text><text class="cls-4" transform="translate(206.35571 111.52036)">7</text><text class="cls-4" transform="translate(235.35584 111.5205)">8</text><text class="cls-4" transform="translate(264.05114 112.12263)">9</text><text class="cls-4" transform="translate(294.05116 112.12263)">10</text><text class="cls-4" transform="translate(322.2375 112.12263)">11</text><text class="cls-4" transform="translate(350.81467 111.82148)">12</text><polygon class="cls-5" points="15.827 36.5 15.827 85.209 12.125 85.209 16.335 92.5 20.544 85.209 16.843 85.209 16.843 36.5 15.827 36.5"/><polygon class="cls-5" points="42.827 36.5 42.827 85.709 39.125 85.709 43.335 93 47.544 85.709 43.843 85.709 43.843 36.5 42.827 36.5"/><polygon class="cls-5" points="42.883 36.732 68.554 86.745 65.26 88.435 72.335 93 72.75 84.591 69.457 86.281 43.787 36.268 42.883 36.732"/><polygon class="cls-5" points="42.984 36.866 96.718 88.323 94.157 90.997 102.335 93 99.98 84.917 97.42 87.59 43.686 36.133 42.984 36.866"/><polygon class="cls-5" points="43.061 36.927 124.925 89.488 122.925 92.603 131.335 93 127.473 85.519 125.474 88.633 43.609 36.072 43.061 36.927"/><polygon class="cls-5" points="74.054 36.922 152.982 89.386 150.932 92.469 159.335 93 155.593 85.458 153.544 88.541 74.616 36.077 74.054 36.922"/><polygon class="cls-5" points="103.054 36.922 181.982 89.386 179.932 92.469 188.335 93 184.593 85.458 182.544 88.541 103.616 36.077 103.054 36.922"/><polygon class="cls-5" points="132.058 36.925 211.141 88.355 209.123 91.459 217.53 91.905 213.713 84.401 211.695 87.504 132.612 36.074 132.058 36.925"/><polygon class="cls-5" points="161.052 36.921 238.196 88.76 236.131 91.832 244.53 92.405 240.826 84.845 238.762 87.917 161.618 36.078 161.052 36.921"/><polygon class="cls-5" points="161.108 36.954 266.778 89.608 265.127 92.921 273.53 92.405 268.882 85.386 267.231 88.699 161.561 36.045 161.108 36.954"/><polygon class="cls-5" points="161.149 36.972 296.559 90.21 295.205 93.655 303.53 92.405 298.285 85.82 296.931 89.265 161.521 36.027 161.149 36.972"/><polygon class="cls-5" points="161.177 36.982 325.442 90.624 324.293 94.143 332.53 92.405 326.906 86.14 325.757 89.659 161.492 36.017 161.177 36.982"/><polygon class="cls-5" points="190.176 36.982 353.445 90.612 352.29 94.129 360.53 92.405 354.917 86.131 353.762 89.647 190.493 36.017 190.176 36.982"/></svg>