<?xml version="1.0" encoding="utf-8" standalone="no"?>
<!DOCTYPE svg PUBLIC "-//W3C//DTD SVG 1.1//EN"
  "http://www.w3.org/Graphics/SVG/1.1/DTD/svg11.dtd">
<svg xmlns:xlink="http://www.w3.org/1999/xlink" width="576pt" height="576pt" viewBox="0 0 576 576" xmlns="http://www.w3.org/2000/svg" version="1.1">
 <metadata>
  <rdf:RDF xmlns:dc="http://purl.org/dc/elements/1.1/" xmlns:cc="http://creativecommons.org/ns#" xmlns:rdf="http://www.w3.org/1999/02/22-rdf-syntax-ns#">
   <cc:Work>
    <dc:type rdf:resource="http://purl.org/dc/dcmitype/StillImage"/>
    <dc:date>2021-12-16T17:13:28.510392</dc:date>
    <dc:format>image/svg+xml</dc:format>
    <dc:creator>
     <cc:Agent>
      <dc:title>Matplotlib v3.5.0, https://matplotlib.org/</dc:title>
     </cc:Agent>
    </dc:creator>
   </cc:Work>
  </rdf:RDF>
 </metadata>
 <defs>
  <style type="text/css">*{stroke-linejoin: round; stroke-linecap: butt}</style>
 </defs>
 <g id="figure_1">
  <g id="patch_1">
   <path d="M 0 576 
L 576 576 
L 576 0 
L 0 0 
L 0 576 
z
" style="fill: none"/>
  </g>
  <g id="axes_1">
   <g id="line2d_1">
    <path d="M 168 528 
L 168 408 
L 48 408 
L 48 528 
L 168 528 
" clip-path="url(#p6fc334e792)" style="fill: none; stroke: #252525; stroke-width: 3; stroke-linecap: square"/>
   </g>
   <g id="line2d_2">
    <path d="M 288 528 
L 288 408 
L 168 408 
L 168 528 
L 288 528 
" clip-path="url(#p6fc334e792)" style="fill: none; stroke: #252525; stroke-width: 3; stroke-linecap: square"/>
   </g>
   <g id="line2d_3">
    <path d="M 288 408 
L 288 288 
L 168 288 
L 168 408 
L 288 408 
" clip-path="url(#p6fc334e792)" style="fill: none; stroke: #252525; stroke-width: 3; stroke-linecap: square"/>
   </g>
   <g id="line2d_4">
    <path d="M 168 408 
L 168 288 
L 48 288 
L 48 408 
L 168 408 
" clip-path="url(#p6fc334e792)" style="fill: none; stroke: #252525; stroke-width: 3; stroke-linecap: square"/>
   </g>
   <g id="line2d_5">
    <path d="M 168 288 
L 168 168 
L 48 168 
L 48 288 
L 168 288 
" clip-path="url(#p6fc334e792)" style="fill: none; stroke: #252525; stroke-width: 3; stroke-linecap: square"/>
   </g>
   <g id="line2d_6">
    <path d="M 168 168 
L 168 48 
L 48 48 
L 48 168 
L 168 168 
" clip-path="url(#p6fc334e792)" style="fill: none; stroke: #252525; stroke-width: 3; stroke-linecap: square"/>
   </g>
   <g id="line2d_7">
    <path d="M 288 168 
L 288 48 
L 168 48 
L 168 168 
L 288 168 
" clip-path="url(#p6fc334e792)" style="fill: none; stroke: #252525; stroke-width: 3; stroke-linecap: square"/>
   </g>
   <g id="line2d_8">
    <path d="M 288 288 
L 288 168 
L 168 168 
L 168 288 
L 288 288 
" clip-path="url(#p6fc334e792)" style="fill: none; stroke: #252525; stroke-width: 3; stroke-linecap: square"/>
   </g>
   <g id="line2d_9">
    <path d="M 408 288 
L 408 168 
L 288 168 
L 288 288 
L 408 288 
" clip-path="url(#p6fc334e792)" style="fill: none; stroke: #252525; stroke-width: 3; stroke-linecap: square"/>
   </g>
   <g id="line2d_10">
    <path d="M 408 168 
L 408 48 
L 288 48 
L 288 168 
L 408 168 
" clip-path="url(#p6fc334e792)" style="fill: none; stroke: #252525; stroke-width: 3; stroke-linecap: square"/>
   </g>
   <g id="line2d_11">
    <path d="M 528 168 
L 528 48 
L 408 48 
L 408 168 
L 528 168 
" clip-path="url(#p6fc334e792)" style="fill: none; stroke: #252525; stroke-width: 3; stroke-linecap: square"/>
   </g>
   <g id="line2d_12">
    <path d="M 528 288 
L 528 168 
L 408 168 
L 408 288 
L 528 288 
" clip-path="url(#p6fc334e792)" style="fill: none; stroke: #252525; stroke-width: 3; stroke-linecap: square"/>
   </g>
   <g id="line2d_13">
    <path d="M 528 408 
L 528 288 
L 408 288 
L 408 408 
L 528 408 
" clip-path="url(#p6fc334e792)" style="fill: none; stroke: #252525; stroke-width: 3; stroke-linecap: square"/>
   </g>
   <g id="line2d_14">
    <path d="M 408 408 
L 408 288 
L 288 288 
L 288 408 
L 408 408 
" clip-path="url(#p6fc334e792)" style="fill: none; stroke: #252525; stroke-width: 3; stroke-linecap: square"/>
   </g>
   <g id="line2d_15">
    <path d="M 408 528 
L 408 408 
L 288 408 
L 288 528 
L 408 528 
" clip-path="url(#p6fc334e792)" style="fill: none; stroke: #252525; stroke-width: 3; stroke-linecap: square"/>
   </g>
   <g id="line2d_16">
    <path d="M 528 528 
L 528 408 
L 408 408 
L 408 528 
L 528 528 
" clip-path="url(#p6fc334e792)" style="fill: none; stroke: #252525; stroke-width: 3; stroke-linecap: square"/>
   </g>
   <g id="line2d_17">
    <defs>
     <path id="mda4e63881f" d="M 0 3 
C 0.795609 3 1.55874 2.683901 2.12132 2.12132 
C 2.683901 1.55874 3 0.795609 3 0 
C 3 -0.795609 2.683901 -1.55874 2.12132 -2.12132 
C 1.55874 -2.683901 0.795609 -3 0 -3 
C -0.795609 -3 -1.55874 -2.683901 -2.12132 -2.12132 
C -2.683901 -1.55874 -3 -0.795609 -3 0 
C -3 0.795609 -2.683901 1.55874 -2.12132 2.12132 
C -1.55874 2.683901 -0.795609 3 0 3 
z
" style="stroke: #c586c0"/>
    </defs>
    <g clip-path="url(#p6fc334e792)">
     <use xlink:href="#mda4e63881f" x="48" y="528" style="fill: #c586c0; stroke: #c586c0"/>
     <use xlink:href="#mda4e63881f" x="48" y="408" style="fill: #c586c0; stroke: #c586c0"/>
     <use xlink:href="#mda4e63881f" x="48" y="288" style="fill: #c586c0; stroke: #c586c0"/>
     <use xlink:href="#mda4e63881f" x="48" y="168" style="fill: #c586c0; stroke: #c586c0"/>
     <use xlink:href="#mda4e63881f" x="48" y="48" style="fill: #c586c0; stroke: #c586c0"/>
     <use xlink:href="#mda4e63881f" x="168" y="528" style="fill: #c586c0; stroke: #c586c0"/>
     <use xlink:href="#mda4e63881f" x="168" y="408" style="fill: #c586c0; stroke: #c586c0"/>
     <use xlink:href="#mda4e63881f" x="168" y="288" style="fill: #c586c0; stroke: #c586c0"/>
     <use xlink:href="#mda4e63881f" x="168" y="168" style="fill: #c586c0; stroke: #c586c0"/>
     <use xlink:href="#mda4e63881f" x="168" y="48" style="fill: #c586c0; stroke: #c586c0"/>
     <use xlink:href="#mda4e63881f" x="288" y="528" style="fill: #c586c0; stroke: #c586c0"/>
     <use xlink:href="#mda4e63881f" x="288" y="408" style="fill: #c586c0; stroke: #c586c0"/>
     <use xlink:href="#mda4e63881f" x="288" y="288" style="fill: #c586c0; stroke: #c586c0"/>
     <use xlink:href="#mda4e63881f" x="288" y="168" style="fill: #c586c0; stroke: #c586c0"/>
     <use xlink:href="#mda4e63881f" x="288" y="48" style="fill: #c586c0; stroke: #c586c0"/>
     <use xlink:href="#mda4e63881f" x="408" y="528" style="fill: #c586c0; stroke: #c586c0"/>
     <use xlink:href="#mda4e63881f" x="408" y="408" style="fill: #c586c0; stroke: #c586c0"/>
     <use xlink:href="#mda4e63881f" x="408" y="288" style="fill: #c586c0; stroke: #c586c0"/>
     <use xlink:href="#mda4e63881f" x="408" y="168" style="fill: #c586c0; stroke: #c586c0"/>
     <use xlink:href="#mda4e63881f" x="408" y="48" style="fill: #c586c0; stroke: #c586c0"/>
     <use xlink:href="#mda4e63881f" x="528" y="528" style="fill: #c586c0; stroke: #c586c0"/>
     <use xlink:href="#mda4e63881f" x="528" y="408" style="fill: #c586c0; stroke: #c586c0"/>
     <use xlink:href="#mda4e63881f" x="528" y="288" style="fill: #c586c0; stroke: #c586c0"/>
     <use xlink:href="#mda4e63881f" x="528" y="168" style="fill: #c586c0; stroke: #c586c0"/>
     <use xlink:href="#mda4e63881f" x="528" y="48" style="fill: #c586c0; stroke: #c586c0"/>
    </g>
   </g>
   <g id="line2d_18">
    <path d="M 108 468 
L 228 468 
L 228 348 
L 108 348 
L 108 228 
L 108 108 
L 228 108 
L 228 228 
L 348 228 
L 348 108 
L 468 108 
L 468 228 
L 468 348 
L 348 348 
L 348 468 
L 468 468 
" clip-path="url(#p6fc334e792)" style="fill: none; stroke: #6a9955; stroke-width: 5; stroke-linecap: square"/>
   </g>
  </g>
 </g>
 <defs>
  <clipPath id="p6fc334e792">
   <rect x="0" y="0" width="576" height="576"/>
  </clipPath>
 </defs>
</svg>
