<?xml version="1.0" encoding="utf-8" standalone="no"?>
<!DOCTYPE svg PUBLIC "-//W3C//DTD SVG 1.1//EN"
  "http://www.w3.org/Graphics/SVG/1.1/DTD/svg11.dtd">
<svg xmlns:xlink="http://www.w3.org/1999/xlink" width="288pt" height="288pt" viewBox="0 0 288 288" xmlns="http://www.w3.org/2000/svg" version="1.1">
 <metadata>
  <rdf:RDF xmlns:dc="http://purl.org/dc/elements/1.1/" xmlns:cc="http://creativecommons.org/ns#" xmlns:rdf="http://www.w3.org/1999/02/22-rdf-syntax-ns#">
   <cc:Work>
    <dc:type rdf:resource="http://purl.org/dc/dcmitype/StillImage"/>
    <dc:date>2022-01-14T17:51:04.939953</dc:date>
    <dc:format>image/svg+xml</dc:format>
    <dc:creator>
     <cc:Agent>
      <dc:title>Matplotlib v3.5.0, https://matplotlib.org/</dc:title>
     </cc:Agent>
    </dc:creator>
   </cc:Work>
  </rdf:RDF>
 </metadata>
 <defs>
  <style type="text/css">*{stroke-linejoin: round; stroke-linecap: butt}</style>
 </defs>
 <g id="figure_1">
  <g id="patch_1">
   <path d="M 0 288 
L 288 288 
L 288 0 
L 0 0 
L 0 288 
z
" style="fill: none"/>
  </g>
  <g id="axes_1">
   <g id="line2d_1">
    <path d="M 24 264 
L 144 264 
L 144 144 
L 24 144 
L 24 264 
" clip-path="url(#pe086dc323b)" style="fill: none; stroke: #252525; stroke-width: 3; stroke-linecap: square"/>
   </g>
   <g id="line2d_2">
    <path d="M 144 264 
L 264 264 
L 264 144 
L 144 144 
L 144 264 
" clip-path="url(#pe086dc323b)" style="fill: none; stroke: #252525; stroke-width: 3; stroke-linecap: square"/>
   </g>
   <g id="line2d_3">
    <path d="M 144 144 
L 264 144 
L 264 24 
L 144 24 
L 144 144 
" clip-path="url(#pe086dc323b)" style="fill: none; stroke: #252525; stroke-width: 3; stroke-linecap: square"/>
   </g>
   <g id="line2d_4">
    <path d="M 24 144 
L 144 144 
L 144 24 
L 24 24 
L 24 144 
" clip-path="url(#pe086dc323b)" style="fill: none; stroke: #252525; stroke-width: 3; stroke-linecap: square"/>
   </g>
   <g id="line2d_5">
    <path d="M 84 204 
L 84 84 
L 204 84 
L 204 204 
" clip-path="url(#pe086dc323b)" style="fill: none; stroke: #b5cea8; stroke-width: 5; stroke-linecap: square"/>
   </g>
   <g id="text_1">
    <!-- A -->
    <g style="fill: #252525" transform="translate(73.2 213.475313)scale(0.36 -0.36)">
     <defs>
      <path id="FiraCode-Regular-41" d="M 2774 1123 
L 1030 1123 
L 678 0 
L 131 0 
L 1565 4406 
L 2275 4406 
L 3709 0 
L 3126 0 
L 2774 1123 
z
M 1174 1584 
L 2630 1584 
L 1907 3939 
L 1174 1584 
z
" transform="scale(0.015625)"/>
     </defs>
     <use xlink:href="#FiraCode-Regular-41"/>
    </g>
   </g>
   <g id="text_2">
    <!-- B -->
    <g style="fill: #252525" transform="translate(193.2 213.475313)scale(0.36 -0.36)">
     <defs>
      <path id="FiraCode-Regular-42" d="M 3453 1258 
Q 3453 896 3310 654 
Q 3168 413 2929 269 
Q 2691 125 2398 62 
Q 2106 0 1802 0 
L 618 0 
L 618 4406 
L 1702 4406 
Q 1990 4406 2268 4353 
Q 2547 4301 2771 4174 
Q 2995 4048 3128 3833 
Q 3261 3619 3261 3296 
Q 3261 3011 3144 2814 
Q 3027 2618 2840 2499 
Q 2653 2381 2442 2333 
Q 2685 2291 2917 2180 
Q 3149 2070 3301 1849 
Q 3453 1629 3453 1258 
z
M 2691 3267 
Q 2691 3642 2459 3800 
Q 2227 3958 1827 3958 
L 1171 3958 
L 1171 2531 
L 1882 2531 
Q 2272 2531 2481 2705 
Q 2691 2880 2691 3267 
z
M 2867 1238 
Q 2867 1571 2737 1752 
Q 2608 1933 2393 2003 
Q 2179 2074 1923 2074 
L 1171 2074 
L 1171 458 
L 1898 458 
Q 2115 458 2339 517 
Q 2563 576 2715 744 
Q 2867 912 2867 1238 
z
" transform="scale(0.015625)"/>
     </defs>
     <use xlink:href="#FiraCode-Regular-42"/>
    </g>
   </g>
   <g id="text_3">
    <!-- H -->
    <g style="fill: #252525" transform="translate(193.2 93.475313)scale(0.36 -0.36)">
     <defs>
      <path id="FiraCode-Regular-48" d="M 2752 0 
L 2752 2090 
L 1088 2090 
L 1088 0 
L 534 0 
L 534 4406 
L 1088 4406 
L 1088 2544 
L 2752 2544 
L 2752 4406 
L 3306 4406 
L 3306 0 
L 2752 0 
z
" transform="scale(0.015625)"/>
     </defs>
     <use xlink:href="#FiraCode-Regular-48"/>
    </g>
   </g>
   <g id="text_4">
    <!-- H -->
    <g style="fill: #252525" transform="translate(73.2 93.475313)scale(0.36 -0.36)">
     <use xlink:href="#FiraCode-Regular-48"/>
    </g>
   </g>
  </g>
 </g>
 <defs>
  <clipPath id="pe086dc323b">
   <rect x="0" y="0" width="288" height="288"/>
  </clipPath>
 </defs>
</svg>
