<?xml version="1.0" encoding="utf-8" standalone="no"?>
<!DOCTYPE svg PUBLIC "-//W3C//DTD SVG 1.1//EN"
  "http://www.w3.org/Graphics/SVG/1.1/DTD/svg11.dtd">
<svg xmlns:xlink="http://www.w3.org/1999/xlink" width="576pt" height="576pt" viewBox="0 0 576 576" xmlns="http://www.w3.org/2000/svg" version="1.1">
 <metadata>
  <rdf:RDF xmlns:dc="http://purl.org/dc/elements/1.1/" xmlns:cc="http://creativecommons.org/ns#" xmlns:rdf="http://www.w3.org/1999/02/22-rdf-syntax-ns#">
   <cc:Work>
    <dc:type rdf:resource="http://purl.org/dc/dcmitype/StillImage"/>
    <dc:date>2021-12-16T17:13:28.173395</dc:date>
    <dc:format>image/svg+xml</dc:format>
    <dc:creator>
     <cc:Agent>
      <dc:title>Matplotlib v3.5.0, https://matplotlib.org/</dc:title>
     </cc:Agent>
    </dc:creator>
   </cc:Work>
  </rdf:RDF>
 </metadata>
 <defs>
  <style type="text/css">*{stroke-linejoin: round; stroke-linecap: butt}</style>
 </defs>
 <g id="figure_1">
  <g id="patch_1">
   <path d="M 0 576 
L 576 576 
L 576 0 
L 0 0 
L 0 576 
z
" style="fill: none"/>
  </g>
  <g id="axes_1">
   <g id="line2d_1">
    <path d="M 288 528 
L 288 288 
L 48 288 
L 48 528 
L 288 528 
" clip-path="url(#p348f905d4e)" style="fill: none; stroke: #252525; stroke-width: 3; stroke-linecap: square"/>
   </g>
   <g id="line2d_2">
    <path d="M 288 288 
L 288 48 
L 48 48 
L 48 288 
L 288 288 
" clip-path="url(#p348f905d4e)" style="fill: none; stroke: #252525; stroke-width: 3; stroke-linecap: square"/>
   </g>
   <g id="line2d_3">
    <path d="M 528 288 
L 528 48 
L 288 48 
L 288 288 
L 528 288 
" clip-path="url(#p348f905d4e)" style="fill: none; stroke: #252525; stroke-width: 3; stroke-linecap: square"/>
   </g>
   <g id="line2d_4">
    <path d="M 528 528 
L 528 288 
L 288 288 
L 288 528 
L 528 528 
" clip-path="url(#p348f905d4e)" style="fill: none; stroke: #252525; stroke-width: 3; stroke-linecap: square"/>
   </g>
   <g id="line2d_5">
    <defs>
     <path id="mfa4c310f11" d="M 0 3 
C 0.795609 3 1.55874 2.683901 2.12132 2.12132 
C 2.683901 1.55874 3 0.795609 3 0 
C 3 -0.795609 2.683901 -1.55874 2.12132 -2.12132 
C 1.55874 -2.683901 0.795609 -3 0 -3 
C -0.795609 -3 -1.55874 -2.683901 -2.12132 -2.12132 
C -2.683901 -1.55874 -3 -0.795609 -3 0 
C -3 0.795609 -2.683901 1.55874 -2.12132 2.12132 
C -1.55874 2.683901 -0.795609 3 0 3 
z
" style="stroke: #c586c0"/>
    </defs>
    <g clip-path="url(#p348f905d4e)">
     <use xlink:href="#mfa4c310f11" x="48" y="528" style="fill: #c586c0; stroke: #c586c0"/>
     <use xlink:href="#mfa4c310f11" x="48" y="288" style="fill: #c586c0; stroke: #c586c0"/>
     <use xlink:href="#mfa4c310f11" x="48" y="48" style="fill: #c586c0; stroke: #c586c0"/>
     <use xlink:href="#mfa4c310f11" x="288" y="528" style="fill: #c586c0; stroke: #c586c0"/>
     <use xlink:href="#mfa4c310f11" x="288" y="288" style="fill: #c586c0; stroke: #c586c0"/>
     <use xlink:href="#mfa4c310f11" x="288" y="48" style="fill: #c586c0; stroke: #c586c0"/>
     <use xlink:href="#mfa4c310f11" x="528" y="528" style="fill: #c586c0; stroke: #c586c0"/>
     <use xlink:href="#mfa4c310f11" x="528" y="288" style="fill: #c586c0; stroke: #c586c0"/>
     <use xlink:href="#mfa4c310f11" x="528" y="48" style="fill: #c586c0; stroke: #c586c0"/>
    </g>
   </g>
   <g id="line2d_6">
    <path d="M 168 408 
L 168 168 
L 408 168 
L 408 408 
" clip-path="url(#p348f905d4e)" style="fill: none; stroke: #6a9955; stroke-width: 5; stroke-linecap: square"/>
   </g>
  </g>
 </g>
 <defs>
  <clipPath id="p348f905d4e">
   <rect x="0" y="0" width="576" height="576"/>
  </clipPath>
 </defs>
</svg>
