<?xml version="1.0" encoding="utf-8" standalone="no"?>
<!DOCTYPE svg PUBLIC "-//W3C//DTD SVG 1.1//EN"
  "http://www.w3.org/Graphics/SVG/1.1/DTD/svg11.dtd">
<svg xmlns:xlink="http://www.w3.org/1999/xlink" width="288pt" height="288pt" viewBox="0 0 288 288" xmlns="http://www.w3.org/2000/svg" version="1.1">
 <metadata>
  <rdf:RDF xmlns:dc="http://purl.org/dc/elements/1.1/" xmlns:cc="http://creativecommons.org/ns#" xmlns:rdf="http://www.w3.org/1999/02/22-rdf-syntax-ns#">
   <cc:Work>
    <dc:type rdf:resource="http://purl.org/dc/dcmitype/StillImage"/>
    <dc:date>2022-01-17T10:59:03.311959</dc:date>
    <dc:format>image/svg+xml</dc:format>
    <dc:creator>
     <cc:Agent>
      <dc:title>Matplotlib v3.5.0, https://matplotlib.org/</dc:title>
     </cc:Agent>
    </dc:creator>
   </cc:Work>
  </rdf:RDF>
 </metadata>
 <defs>
  <style type="text/css">*{stroke-linejoin: round; stroke-linecap: butt}</style>
 </defs>
 <g id="figure_1">
  <g id="patch_1">
   <path d="M 0 288 
L 288 288 
L 288 0 
L 0 0 
L 0 288 
z
" style="fill: none"/>
  </g>
  <g id="axes_1">
   <g id="line2d_1">
    <path d="M 24 264 
L 144 264 
L 144 144 
L 24 144 
L 24 264 
" clip-path="url(#p962c729459)" style="fill: none; stroke: #252525; stroke-width: 3; stroke-linecap: square"/>
   </g>
   <g id="line2d_2">
    <path d="M 144 264 
L 264 264 
L 264 144 
L 144 144 
L 144 264 
" clip-path="url(#p962c729459)" style="fill: none; stroke: #252525; stroke-width: 3; stroke-linecap: square"/>
   </g>
   <g id="line2d_3">
    <path d="M 144 144 
L 264 144 
L 264 24 
L 144 24 
L 144 144 
" clip-path="url(#p962c729459)" style="fill: none; stroke: #252525; stroke-width: 3; stroke-linecap: square"/>
   </g>
   <g id="line2d_4">
    <path d="M 24 144 
L 144 144 
L 144 24 
L 24 24 
L 24 144 
" clip-path="url(#p962c729459)" style="fill: none; stroke: #252525; stroke-width: 3; stroke-linecap: square"/>
   </g>
   <g id="line2d_5">
    <path d="M 84 204 
L 84 84 
L 204 84 
L 204 204 
" clip-path="url(#p962c729459)" style="fill: none; stroke: #b5cea8; stroke-width: 5; stroke-linecap: square"/>
   </g>
   <g id="text_1">
    <!-- H -->
    <g style="fill: #252525" transform="translate(73.2 213.475313)scale(0.36 -0.36)">
     <defs>
      <path id="FiraCode-Regular-48" d="M 2752 0 
L 2752 2090 
L 1088 2090 
L 1088 0 
L 534 0 
L 534 4406 
L 1088 4406 
L 1088 2544 
L 2752 2544 
L 2752 4406 
L 3306 4406 
L 3306 0 
L 2752 0 
z
" transform="scale(0.015625)"/>
     </defs>
     <use xlink:href="#FiraCode-Regular-48"/>
    </g>
   </g>
   <g id="text_2">
    <!-- R -->
    <g style="fill: #252525" transform="translate(193.2 213.475313)scale(0.36 -0.36)">
     <defs>
      <path id="FiraCode-Regular-52" d="M 3440 3171 
Q 3440 2675 3129 2369 
Q 2819 2064 2365 1955 
L 3670 0 
L 3005 0 
L 1802 1891 
L 1206 1891 
L 1206 0 
L 650 0 
L 650 4406 
L 1782 4406 
Q 2598 4406 3019 4094 
Q 3440 3782 3440 3171 
z
M 2845 3171 
Q 2845 3594 2600 3779 
Q 2355 3965 1846 3965 
L 1206 3965 
L 1206 2326 
L 1846 2326 
Q 2320 2326 2582 2520 
Q 2845 2714 2845 3171 
z
" transform="scale(0.015625)"/>
     </defs>
     <use xlink:href="#FiraCode-Regular-52"/>
    </g>
   </g>
   <g id="text_3">
    <!-- R -->
    <g style="fill: #252525" transform="translate(193.2 93.475313)scale(0.36 -0.36)">
     <use xlink:href="#FiraCode-Regular-52"/>
    </g>
   </g>
   <g id="text_4">
    <!-- H -->
    <g style="fill: #252525" transform="translate(73.2 93.475313)scale(0.36 -0.36)">
     <use xlink:href="#FiraCode-Regular-48"/>
    </g>
   </g>
  </g>
 </g>
 <defs>
  <clipPath id="p962c729459">
   <rect x="0" y="0" width="288" height="288"/>
  </clipPath>
 </defs>
</svg>
