<?xml version="1.0" encoding="utf-8" standalone="no"?>
<!DOCTYPE svg PUBLIC "-//W3C//DTD SVG 1.1//EN"
  "http://www.w3.org/Graphics/SVG/1.1/DTD/svg11.dtd">
<svg xmlns:xlink="http://www.w3.org/1999/xlink" width="576pt" height="576pt" viewBox="0 0 576 576" xmlns="http://www.w3.org/2000/svg" version="1.1">
 <metadata>
  <rdf:RDF xmlns:dc="http://purl.org/dc/elements/1.1/" xmlns:cc="http://creativecommons.org/ns#" xmlns:rdf="http://www.w3.org/1999/02/22-rdf-syntax-ns#">
   <cc:Work>
    <dc:type rdf:resource="http://purl.org/dc/dcmitype/StillImage"/>
    <dc:date>2021-12-16T17:13:28.871406</dc:date>
    <dc:format>image/svg+xml</dc:format>
    <dc:creator>
     <cc:Agent>
      <dc:title>Matplotlib v3.5.0, https://matplotlib.org/</dc:title>
     </cc:Agent>
    </dc:creator>
   </cc:Work>
  </rdf:RDF>
 </metadata>
 <defs>
  <style type="text/css">*{stroke-linejoin: round; stroke-linecap: butt}</style>
 </defs>
 <g id="figure_1">
  <g id="patch_1">
   <path d="M 0 576 
L 576 576 
L 576 0 
L 0 0 
L 0 576 
z
" style="fill: none"/>
  </g>
  <g id="axes_1">
   <g id="line2d_1">
    <path d="M 108 528 
L 108 468 
L 48 468 
L 48 528 
L 108 528 
" clip-path="url(#p19940cce9e)" style="fill: none; stroke: #252525; stroke-width: 3; stroke-linecap: square"/>
   </g>
   <g id="line2d_2">
    <path d="M 108 468 
L 108 408 
L 48 408 
L 48 468 
L 108 468 
" clip-path="url(#p19940cce9e)" style="fill: none; stroke: #252525; stroke-width: 3; stroke-linecap: square"/>
   </g>
   <g id="line2d_3">
    <path d="M 168 468 
L 168 408 
L 108 408 
L 108 468 
L 168 468 
" clip-path="url(#p19940cce9e)" style="fill: none; stroke: #252525; stroke-width: 3; stroke-linecap: square"/>
   </g>
   <g id="line2d_4">
    <path d="M 168 528 
L 168 468 
L 108 468 
L 108 528 
L 168 528 
" clip-path="url(#p19940cce9e)" style="fill: none; stroke: #252525; stroke-width: 3; stroke-linecap: square"/>
   </g>
   <g id="line2d_5">
    <path d="M 228 528 
L 228 468 
L 168 468 
L 168 528 
L 228 528 
" clip-path="url(#p19940cce9e)" style="fill: none; stroke: #252525; stroke-width: 3; stroke-linecap: square"/>
   </g>
   <g id="line2d_6">
    <path d="M 288 528 
L 288 468 
L 228 468 
L 228 528 
L 288 528 
" clip-path="url(#p19940cce9e)" style="fill: none; stroke: #252525; stroke-width: 3; stroke-linecap: square"/>
   </g>
   <g id="line2d_7">
    <path d="M 288 468 
L 288 408 
L 228 408 
L 228 468 
L 288 468 
" clip-path="url(#p19940cce9e)" style="fill: none; stroke: #252525; stroke-width: 3; stroke-linecap: square"/>
   </g>
   <g id="line2d_8">
    <path d="M 228 468 
L 228 408 
L 168 408 
L 168 468 
L 228 468 
" clip-path="url(#p19940cce9e)" style="fill: none; stroke: #252525; stroke-width: 3; stroke-linecap: square"/>
   </g>
   <g id="line2d_9">
    <path d="M 228 408 
L 228 348 
L 168 348 
L 168 408 
L 228 408 
" clip-path="url(#p19940cce9e)" style="fill: none; stroke: #252525; stroke-width: 3; stroke-linecap: square"/>
   </g>
   <g id="line2d_10">
    <path d="M 288 408 
L 288 348 
L 228 348 
L 228 408 
L 288 408 
" clip-path="url(#p19940cce9e)" style="fill: none; stroke: #252525; stroke-width: 3; stroke-linecap: square"/>
   </g>
   <g id="line2d_11">
    <path d="M 288 348 
L 288 288 
L 228 288 
L 228 348 
L 288 348 
" clip-path="url(#p19940cce9e)" style="fill: none; stroke: #252525; stroke-width: 3; stroke-linecap: square"/>
   </g>
   <g id="line2d_12">
    <path d="M 228 348 
L 228 288 
L 168 288 
L 168 348 
L 228 348 
" clip-path="url(#p19940cce9e)" style="fill: none; stroke: #252525; stroke-width: 3; stroke-linecap: square"/>
   </g>
   <g id="line2d_13">
    <path d="M 168 348 
L 168 288 
L 108 288 
L 108 348 
L 168 348 
" clip-path="url(#p19940cce9e)" style="fill: none; stroke: #252525; stroke-width: 3; stroke-linecap: square"/>
   </g>
   <g id="line2d_14">
    <path d="M 168 408 
L 168 348 
L 108 348 
L 108 408 
L 168 408 
" clip-path="url(#p19940cce9e)" style="fill: none; stroke: #252525; stroke-width: 3; stroke-linecap: square"/>
   </g>
   <g id="line2d_15">
    <path d="M 108 408 
L 108 348 
L 48 348 
L 48 408 
L 108 408 
" clip-path="url(#p19940cce9e)" style="fill: none; stroke: #252525; stroke-width: 3; stroke-linecap: square"/>
   </g>
   <g id="line2d_16">
    <path d="M 108 348 
L 108 288 
L 48 288 
L 48 348 
L 108 348 
" clip-path="url(#p19940cce9e)" style="fill: none; stroke: #252525; stroke-width: 3; stroke-linecap: square"/>
   </g>
   <g id="line2d_17">
    <path d="M 108 288 
L 108 228 
L 48 228 
L 48 288 
L 108 288 
" clip-path="url(#p19940cce9e)" style="fill: none; stroke: #252525; stroke-width: 3; stroke-linecap: square"/>
   </g>
   <g id="line2d_18">
    <path d="M 168 288 
L 168 228 
L 108 228 
L 108 288 
L 168 288 
" clip-path="url(#p19940cce9e)" style="fill: none; stroke: #252525; stroke-width: 3; stroke-linecap: square"/>
   </g>
   <g id="line2d_19">
    <path d="M 168 228 
L 168 168 
L 108 168 
L 108 228 
L 168 228 
" clip-path="url(#p19940cce9e)" style="fill: none; stroke: #252525; stroke-width: 3; stroke-linecap: square"/>
   </g>
   <g id="line2d_20">
    <path d="M 108 228 
L 108 168 
L 48 168 
L 48 228 
L 108 228 
" clip-path="url(#p19940cce9e)" style="fill: none; stroke: #252525; stroke-width: 3; stroke-linecap: square"/>
   </g>
   <g id="line2d_21">
    <path d="M 108 168 
L 108 108 
L 48 108 
L 48 168 
L 108 168 
" clip-path="url(#p19940cce9e)" style="fill: none; stroke: #252525; stroke-width: 3; stroke-linecap: square"/>
   </g>
   <g id="line2d_22">
    <path d="M 108 108 
L 108 48 
L 48 48 
L 48 108 
L 108 108 
" clip-path="url(#p19940cce9e)" style="fill: none; stroke: #252525; stroke-width: 3; stroke-linecap: square"/>
   </g>
   <g id="line2d_23">
    <path d="M 168 108 
L 168 48 
L 108 48 
L 108 108 
L 168 108 
" clip-path="url(#p19940cce9e)" style="fill: none; stroke: #252525; stroke-width: 3; stroke-linecap: square"/>
   </g>
   <g id="line2d_24">
    <path d="M 168 168 
L 168 108 
L 108 108 
L 108 168 
L 168 168 
" clip-path="url(#p19940cce9e)" style="fill: none; stroke: #252525; stroke-width: 3; stroke-linecap: square"/>
   </g>
   <g id="line2d_25">
    <path d="M 228 168 
L 228 108 
L 168 108 
L 168 168 
L 228 168 
" clip-path="url(#p19940cce9e)" style="fill: none; stroke: #252525; stroke-width: 3; stroke-linecap: square"/>
   </g>
   <g id="line2d_26">
    <path d="M 228 108 
L 228 48 
L 168 48 
L 168 108 
L 228 108 
" clip-path="url(#p19940cce9e)" style="fill: none; stroke: #252525; stroke-width: 3; stroke-linecap: square"/>
   </g>
   <g id="line2d_27">
    <path d="M 288 108 
L 288 48 
L 228 48 
L 228 108 
L 288 108 
" clip-path="url(#p19940cce9e)" style="fill: none; stroke: #252525; stroke-width: 3; stroke-linecap: square"/>
   </g>
   <g id="line2d_28">
    <path d="M 288 168 
L 288 108 
L 228 108 
L 228 168 
L 288 168 
" clip-path="url(#p19940cce9e)" style="fill: none; stroke: #252525; stroke-width: 3; stroke-linecap: square"/>
   </g>
   <g id="line2d_29">
    <path d="M 288 228 
L 288 168 
L 228 168 
L 228 228 
L 288 228 
" clip-path="url(#p19940cce9e)" style="fill: none; stroke: #252525; stroke-width: 3; stroke-linecap: square"/>
   </g>
   <g id="line2d_30">
    <path d="M 228 228 
L 228 168 
L 168 168 
L 168 228 
L 228 228 
" clip-path="url(#p19940cce9e)" style="fill: none; stroke: #252525; stroke-width: 3; stroke-linecap: square"/>
   </g>
   <g id="line2d_31">
    <path d="M 228 288 
L 228 228 
L 168 228 
L 168 288 
L 228 288 
" clip-path="url(#p19940cce9e)" style="fill: none; stroke: #252525; stroke-width: 3; stroke-linecap: square"/>
   </g>
   <g id="line2d_32">
    <path d="M 288 288 
L 288 228 
L 228 228 
L 228 288 
L 288 288 
" clip-path="url(#p19940cce9e)" style="fill: none; stroke: #252525; stroke-width: 3; stroke-linecap: square"/>
   </g>
   <g id="line2d_33">
    <path d="M 348 288 
L 348 228 
L 288 228 
L 288 288 
L 348 288 
" clip-path="url(#p19940cce9e)" style="fill: none; stroke: #252525; stroke-width: 3; stroke-linecap: square"/>
   </g>
   <g id="line2d_34">
    <path d="M 408 288 
L 408 228 
L 348 228 
L 348 288 
L 408 288 
" clip-path="url(#p19940cce9e)" style="fill: none; stroke: #252525; stroke-width: 3; stroke-linecap: square"/>
   </g>
   <g id="line2d_35">
    <path d="M 408 228 
L 408 168 
L 348 168 
L 348 228 
L 408 228 
" clip-path="url(#p19940cce9e)" style="fill: none; stroke: #252525; stroke-width: 3; stroke-linecap: square"/>
   </g>
   <g id="line2d_36">
    <path d="M 348 228 
L 348 168 
L 288 168 
L 288 228 
L 348 228 
" clip-path="url(#p19940cce9e)" style="fill: none; stroke: #252525; stroke-width: 3; stroke-linecap: square"/>
   </g>
   <g id="line2d_37">
    <path d="M 348 168 
L 348 108 
L 288 108 
L 288 168 
L 348 168 
" clip-path="url(#p19940cce9e)" style="fill: none; stroke: #252525; stroke-width: 3; stroke-linecap: square"/>
   </g>
   <g id="line2d_38">
    <path d="M 348 108 
L 348 48 
L 288 48 
L 288 108 
L 348 108 
" clip-path="url(#p19940cce9e)" style="fill: none; stroke: #252525; stroke-width: 3; stroke-linecap: square"/>
   </g>
   <g id="line2d_39">
    <path d="M 408 108 
L 408 48 
L 348 48 
L 348 108 
L 408 108 
" clip-path="url(#p19940cce9e)" style="fill: none; stroke: #252525; stroke-width: 3; stroke-linecap: square"/>
   </g>
   <g id="line2d_40">
    <path d="M 408 168 
L 408 108 
L 348 108 
L 348 168 
L 408 168 
" clip-path="url(#p19940cce9e)" style="fill: none; stroke: #252525; stroke-width: 3; stroke-linecap: square"/>
   </g>
   <g id="line2d_41">
    <path d="M 468 168 
L 468 108 
L 408 108 
L 408 168 
L 468 168 
" clip-path="url(#p19940cce9e)" style="fill: none; stroke: #252525; stroke-width: 3; stroke-linecap: square"/>
   </g>
   <g id="line2d_42">
    <path d="M 468 108 
L 468 48 
L 408 48 
L 408 108 
L 468 108 
" clip-path="url(#p19940cce9e)" style="fill: none; stroke: #252525; stroke-width: 3; stroke-linecap: square"/>
   </g>
   <g id="line2d_43">
    <path d="M 528 108 
L 528 48 
L 468 48 
L 468 108 
L 528 108 
" clip-path="url(#p19940cce9e)" style="fill: none; stroke: #252525; stroke-width: 3; stroke-linecap: square"/>
   </g>
   <g id="line2d_44">
    <path d="M 528 168 
L 528 108 
L 468 108 
L 468 168 
L 528 168 
" clip-path="url(#p19940cce9e)" style="fill: none; stroke: #252525; stroke-width: 3; stroke-linecap: square"/>
   </g>
   <g id="line2d_45">
    <path d="M 528 228 
L 528 168 
L 468 168 
L 468 228 
L 528 228 
" clip-path="url(#p19940cce9e)" style="fill: none; stroke: #252525; stroke-width: 3; stroke-linecap: square"/>
   </g>
   <g id="line2d_46">
    <path d="M 468 228 
L 468 168 
L 408 168 
L 408 228 
L 468 228 
" clip-path="url(#p19940cce9e)" style="fill: none; stroke: #252525; stroke-width: 3; stroke-linecap: square"/>
   </g>
   <g id="line2d_47">
    <path d="M 468 288 
L 468 228 
L 408 228 
L 408 288 
L 468 288 
" clip-path="url(#p19940cce9e)" style="fill: none; stroke: #252525; stroke-width: 3; stroke-linecap: square"/>
   </g>
   <g id="line2d_48">
    <path d="M 528 288 
L 528 228 
L 468 228 
L 468 288 
L 528 288 
" clip-path="url(#p19940cce9e)" style="fill: none; stroke: #252525; stroke-width: 3; stroke-linecap: square"/>
   </g>
   <g id="line2d_49">
    <path d="M 528 348 
L 528 288 
L 468 288 
L 468 348 
L 528 348 
" clip-path="url(#p19940cce9e)" style="fill: none; stroke: #252525; stroke-width: 3; stroke-linecap: square"/>
   </g>
   <g id="line2d_50">
    <path d="M 528 408 
L 528 348 
L 468 348 
L 468 408 
L 528 408 
" clip-path="url(#p19940cce9e)" style="fill: none; stroke: #252525; stroke-width: 3; stroke-linecap: square"/>
   </g>
   <g id="line2d_51">
    <path d="M 468 408 
L 468 348 
L 408 348 
L 408 408 
L 468 408 
" clip-path="url(#p19940cce9e)" style="fill: none; stroke: #252525; stroke-width: 3; stroke-linecap: square"/>
   </g>
   <g id="line2d_52">
    <path d="M 468 348 
L 468 288 
L 408 288 
L 408 348 
L 468 348 
" clip-path="url(#p19940cce9e)" style="fill: none; stroke: #252525; stroke-width: 3; stroke-linecap: square"/>
   </g>
   <g id="line2d_53">
    <path d="M 408 348 
L 408 288 
L 348 288 
L 348 348 
L 408 348 
" clip-path="url(#p19940cce9e)" style="fill: none; stroke: #252525; stroke-width: 3; stroke-linecap: square"/>
   </g>
   <g id="line2d_54">
    <path d="M 348 348 
L 348 288 
L 288 288 
L 288 348 
L 348 348 
" clip-path="url(#p19940cce9e)" style="fill: none; stroke: #252525; stroke-width: 3; stroke-linecap: square"/>
   </g>
   <g id="line2d_55">
    <path d="M 348 408 
L 348 348 
L 288 348 
L 288 408 
L 348 408 
" clip-path="url(#p19940cce9e)" style="fill: none; stroke: #252525; stroke-width: 3; stroke-linecap: square"/>
   </g>
   <g id="line2d_56">
    <path d="M 408 408 
L 408 348 
L 348 348 
L 348 408 
L 408 408 
" clip-path="url(#p19940cce9e)" style="fill: none; stroke: #252525; stroke-width: 3; stroke-linecap: square"/>
   </g>
   <g id="line2d_57">
    <path d="M 408 468 
L 408 408 
L 348 408 
L 348 468 
L 408 468 
" clip-path="url(#p19940cce9e)" style="fill: none; stroke: #252525; stroke-width: 3; stroke-linecap: square"/>
   </g>
   <g id="line2d_58">
    <path d="M 348 468 
L 348 408 
L 288 408 
L 288 468 
L 348 468 
" clip-path="url(#p19940cce9e)" style="fill: none; stroke: #252525; stroke-width: 3; stroke-linecap: square"/>
   </g>
   <g id="line2d_59">
    <path d="M 348 528 
L 348 468 
L 288 468 
L 288 528 
L 348 528 
" clip-path="url(#p19940cce9e)" style="fill: none; stroke: #252525; stroke-width: 3; stroke-linecap: square"/>
   </g>
   <g id="line2d_60">
    <path d="M 408 528 
L 408 468 
L 348 468 
L 348 528 
L 408 528 
" clip-path="url(#p19940cce9e)" style="fill: none; stroke: #252525; stroke-width: 3; stroke-linecap: square"/>
   </g>
   <g id="line2d_61">
    <path d="M 468 528 
L 468 468 
L 408 468 
L 408 528 
L 468 528 
" clip-path="url(#p19940cce9e)" style="fill: none; stroke: #252525; stroke-width: 3; stroke-linecap: square"/>
   </g>
   <g id="line2d_62">
    <path d="M 468 468 
L 468 408 
L 408 408 
L 408 468 
L 468 468 
" clip-path="url(#p19940cce9e)" style="fill: none; stroke: #252525; stroke-width: 3; stroke-linecap: square"/>
   </g>
   <g id="line2d_63">
    <path d="M 528 468 
L 528 408 
L 468 408 
L 468 468 
L 528 468 
" clip-path="url(#p19940cce9e)" style="fill: none; stroke: #252525; stroke-width: 3; stroke-linecap: square"/>
   </g>
   <g id="line2d_64">
    <path d="M 528 528 
L 528 468 
L 468 468 
L 468 528 
L 528 528 
" clip-path="url(#p19940cce9e)" style="fill: none; stroke: #252525; stroke-width: 3; stroke-linecap: square"/>
   </g>
   <g id="line2d_65">
    <defs>
     <path id="md66c3fee65" d="M 0 3 
C 0.795609 3 1.55874 2.683901 2.12132 2.12132 
C 2.683901 1.55874 3 0.795609 3 0 
C 3 -0.795609 2.683901 -1.55874 2.12132 -2.12132 
C 1.55874 -2.683901 0.795609 -3 0 -3 
C -0.795609 -3 -1.55874 -2.683901 -2.12132 -2.12132 
C -2.683901 -1.55874 -3 -0.795609 -3 0 
C -3 0.795609 -2.683901 1.55874 -2.12132 2.12132 
C -1.55874 2.683901 -0.795609 3 0 3 
z
" style="stroke: #c586c0"/>
    </defs>
    <g clip-path="url(#p19940cce9e)">
     <use xlink:href="#md66c3fee65" x="48" y="528" style="fill: #c586c0; stroke: #c586c0"/>
     <use xlink:href="#md66c3fee65" x="48" y="468" style="fill: #c586c0; stroke: #c586c0"/>
     <use xlink:href="#md66c3fee65" x="48" y="408" style="fill: #c586c0; stroke: #c586c0"/>
     <use xlink:href="#md66c3fee65" x="48" y="348" style="fill: #c586c0; stroke: #c586c0"/>
     <use xlink:href="#md66c3fee65" x="48" y="288" style="fill: #c586c0; stroke: #c586c0"/>
     <use xlink:href="#md66c3fee65" x="48" y="228" style="fill: #c586c0; stroke: #c586c0"/>
     <use xlink:href="#md66c3fee65" x="48" y="168" style="fill: #c586c0; stroke: #c586c0"/>
     <use xlink:href="#md66c3fee65" x="48" y="108" style="fill: #c586c0; stroke: #c586c0"/>
     <use xlink:href="#md66c3fee65" x="48" y="48" style="fill: #c586c0; stroke: #c586c0"/>
     <use xlink:href="#md66c3fee65" x="108" y="528" style="fill: #c586c0; stroke: #c586c0"/>
     <use xlink:href="#md66c3fee65" x="108" y="468" style="fill: #c586c0; stroke: #c586c0"/>
     <use xlink:href="#md66c3fee65" x="108" y="408" style="fill: #c586c0; stroke: #c586c0"/>
     <use xlink:href="#md66c3fee65" x="108" y="348" style="fill: #c586c0; stroke: #c586c0"/>
     <use xlink:href="#md66c3fee65" x="108" y="288" style="fill: #c586c0; stroke: #c586c0"/>
     <use xlink:href="#md66c3fee65" x="108" y="228" style="fill: #c586c0; stroke: #c586c0"/>
     <use xlink:href="#md66c3fee65" x="108" y="168" style="fill: #c586c0; stroke: #c586c0"/>
     <use xlink:href="#md66c3fee65" x="108" y="108" style="fill: #c586c0; stroke: #c586c0"/>
     <use xlink:href="#md66c3fee65" x="108" y="48" style="fill: #c586c0; stroke: #c586c0"/>
     <use xlink:href="#md66c3fee65" x="168" y="528" style="fill: #c586c0; stroke: #c586c0"/>
     <use xlink:href="#md66c3fee65" x="168" y="468" style="fill: #c586c0; stroke: #c586c0"/>
     <use xlink:href="#md66c3fee65" x="168" y="408" style="fill: #c586c0; stroke: #c586c0"/>
     <use xlink:href="#md66c3fee65" x="168" y="348" style="fill: #c586c0; stroke: #c586c0"/>
     <use xlink:href="#md66c3fee65" x="168" y="288" style="fill: #c586c0; stroke: #c586c0"/>
     <use xlink:href="#md66c3fee65" x="168" y="228" style="fill: #c586c0; stroke: #c586c0"/>
     <use xlink:href="#md66c3fee65" x="168" y="168" style="fill: #c586c0; stroke: #c586c0"/>
     <use xlink:href="#md66c3fee65" x="168" y="108" style="fill: #c586c0; stroke: #c586c0"/>
     <use xlink:href="#md66c3fee65" x="168" y="48" style="fill: #c586c0; stroke: #c586c0"/>
     <use xlink:href="#md66c3fee65" x="228" y="528" style="fill: #c586c0; stroke: #c586c0"/>
     <use xlink:href="#md66c3fee65" x="228" y="468" style="fill: #c586c0; stroke: #c586c0"/>
     <use xlink:href="#md66c3fee65" x="228" y="408" style="fill: #c586c0; stroke: #c586c0"/>
     <use xlink:href="#md66c3fee65" x="228" y="348" style="fill: #c586c0; stroke: #c586c0"/>
     <use xlink:href="#md66c3fee65" x="228" y="288" style="fill: #c586c0; stroke: #c586c0"/>
     <use xlink:href="#md66c3fee65" x="228" y="228" style="fill: #c586c0; stroke: #c586c0"/>
     <use xlink:href="#md66c3fee65" x="228" y="168" style="fill: #c586c0; stroke: #c586c0"/>
     <use xlink:href="#md66c3fee65" x="228" y="108" style="fill: #c586c0; stroke: #c586c0"/>
     <use xlink:href="#md66c3fee65" x="228" y="48" style="fill: #c586c0; stroke: #c586c0"/>
     <use xlink:href="#md66c3fee65" x="288" y="528" style="fill: #c586c0; stroke: #c586c0"/>
     <use xlink:href="#md66c3fee65" x="288" y="468" style="fill: #c586c0; stroke: #c586c0"/>
     <use xlink:href="#md66c3fee65" x="288" y="408" style="fill: #c586c0; stroke: #c586c0"/>
     <use xlink:href="#md66c3fee65" x="288" y="348" style="fill: #c586c0; stroke: #c586c0"/>
     <use xlink:href="#md66c3fee65" x="288" y="288" style="fill: #c586c0; stroke: #c586c0"/>
     <use xlink:href="#md66c3fee65" x="288" y="228" style="fill: #c586c0; stroke: #c586c0"/>
     <use xlink:href="#md66c3fee65" x="288" y="168" style="fill: #c586c0; stroke: #c586c0"/>
     <use xlink:href="#md66c3fee65" x="288" y="108" style="fill: #c586c0; stroke: #c586c0"/>
     <use xlink:href="#md66c3fee65" x="288" y="48" style="fill: #c586c0; stroke: #c586c0"/>
     <use xlink:href="#md66c3fee65" x="348" y="528" style="fill: #c586c0; stroke: #c586c0"/>
     <use xlink:href="#md66c3fee65" x="348" y="468" style="fill: #c586c0; stroke: #c586c0"/>
     <use xlink:href="#md66c3fee65" x="348" y="408" style="fill: #c586c0; stroke: #c586c0"/>
     <use xlink:href="#md66c3fee65" x="348" y="348" style="fill: #c586c0; stroke: #c586c0"/>
     <use xlink:href="#md66c3fee65" x="348" y="288" style="fill: #c586c0; stroke: #c586c0"/>
     <use xlink:href="#md66c3fee65" x="348" y="228" style="fill: #c586c0; stroke: #c586c0"/>
     <use xlink:href="#md66c3fee65" x="348" y="168" style="fill: #c586c0; stroke: #c586c0"/>
     <use xlink:href="#md66c3fee65" x="348" y="108" style="fill: #c586c0; stroke: #c586c0"/>
     <use xlink:href="#md66c3fee65" x="348" y="48" style="fill: #c586c0; stroke: #c586c0"/>
     <use xlink:href="#md66c3fee65" x="408" y="528" style="fill: #c586c0; stroke: #c586c0"/>
     <use xlink:href="#md66c3fee65" x="408" y="468" style="fill: #c586c0; stroke: #c586c0"/>
     <use xlink:href="#md66c3fee65" x="408" y="408" style="fill: #c586c0; stroke: #c586c0"/>
     <use xlink:href="#md66c3fee65" x="408" y="348" style="fill: #c586c0; stroke: #c586c0"/>
     <use xlink:href="#md66c3fee65" x="408" y="288" style="fill: #c586c0; stroke: #c586c0"/>
     <use xlink:href="#md66c3fee65" x="408" y="228" style="fill: #c586c0; stroke: #c586c0"/>
     <use xlink:href="#md66c3fee65" x="408" y="168" style="fill: #c586c0; stroke: #c586c0"/>
     <use xlink:href="#md66c3fee65" x="408" y="108" style="fill: #c586c0; stroke: #c586c0"/>
     <use xlink:href="#md66c3fee65" x="408" y="48" style="fill: #c586c0; stroke: #c586c0"/>
     <use xlink:href="#md66c3fee65" x="468" y="528" style="fill: #c586c0; stroke: #c586c0"/>
     <use xlink:href="#md66c3fee65" x="468" y="468" style="fill: #c586c0; stroke: #c586c0"/>
     <use xlink:href="#md66c3fee65" x="468" y="408" style="fill: #c586c0; stroke: #c586c0"/>
     <use xlink:href="#md66c3fee65" x="468" y="348" style="fill: #c586c0; stroke: #c586c0"/>
     <use xlink:href="#md66c3fee65" x="468" y="288" style="fill: #c586c0; stroke: #c586c0"/>
     <use xlink:href="#md66c3fee65" x="468" y="228" style="fill: #c586c0; stroke: #c586c0"/>
     <use xlink:href="#md66c3fee65" x="468" y="168" style="fill: #c586c0; stroke: #c586c0"/>
     <use xlink:href="#md66c3fee65" x="468" y="108" style="fill: #c586c0; stroke: #c586c0"/>
     <use xlink:href="#md66c3fee65" x="468" y="48" style="fill: #c586c0; stroke: #c586c0"/>
     <use xlink:href="#md66c3fee65" x="528" y="528" style="fill: #c586c0; stroke: #c586c0"/>
     <use xlink:href="#md66c3fee65" x="528" y="468" style="fill: #c586c0; stroke: #c586c0"/>
     <use xlink:href="#md66c3fee65" x="528" y="408" style="fill: #c586c0; stroke: #c586c0"/>
     <use xlink:href="#md66c3fee65" x="528" y="348" style="fill: #c586c0; stroke: #c586c0"/>
     <use xlink:href="#md66c3fee65" x="528" y="288" style="fill: #c586c0; stroke: #c586c0"/>
     <use xlink:href="#md66c3fee65" x="528" y="228" style="fill: #c586c0; stroke: #c586c0"/>
     <use xlink:href="#md66c3fee65" x="528" y="168" style="fill: #c586c0; stroke: #c586c0"/>
     <use xlink:href="#md66c3fee65" x="528" y="108" style="fill: #c586c0; stroke: #c586c0"/>
     <use xlink:href="#md66c3fee65" x="528" y="48" style="fill: #c586c0; stroke: #c586c0"/>
    </g>
   </g>
   <g id="line2d_66">
    <path d="M 78 498 
L 78 438 
L 138 438 
L 138 498 
L 198 498 
L 258 498 
L 258 438 
L 198 438 
L 198 378 
L 258 378 
L 258 318 
L 198 318 
L 138 318 
L 138 378 
L 78 378 
L 78 318 
L 78 258 
L 138 258 
L 138 198 
L 78 198 
L 78 138 
L 78 78 
L 138 78 
L 138 138 
L 198 138 
L 198 78 
L 258 78 
L 258 138 
L 258 198 
L 198 198 
L 198 258 
L 258 258 
L 318 258 
L 378 258 
L 378 198 
L 318 198 
L 318 138 
L 318 78 
L 378 78 
L 378 138 
L 438 138 
L 438 78 
L 498 78 
L 498 138 
L 498 198 
L 438 198 
L 438 258 
L 498 258 
L 498 318 
L 498 378 
L 438 378 
L 438 318 
L 378 318 
L 318 318 
L 318 378 
L 378 378 
L 378 438 
L 318 438 
L 318 498 
L 378 498 
L 438 498 
L 438 438 
L 498 438 
L 498 498 
" clip-path="url(#p19940cce9e)" style="fill: none; stroke: #6a9955; stroke-width: 5; stroke-linecap: square"/>
   </g>
  </g>
 </g>
 <defs>
  <clipPath id="p19940cce9e">
   <rect x="0" y="0" width="576" height="576"/>
  </clipPath>
 </defs>
</svg>
