<?xml version="1.0" encoding="utf-8" standalone="no"?>
<!DOCTYPE svg PUBLIC "-//W3C//DTD SVG 1.1//EN"
  "http://www.w3.org/Graphics/SVG/1.1/DTD/svg11.dtd">
<svg xmlns:xlink="http://www.w3.org/1999/xlink" width="288pt" height="288pt" viewBox="0 0 288 288" xmlns="http://www.w3.org/2000/svg" version="1.1">
 <metadata>
  <rdf:RDF xmlns:dc="http://purl.org/dc/elements/1.1/" xmlns:cc="http://creativecommons.org/ns#" xmlns:rdf="http://www.w3.org/1999/02/22-rdf-syntax-ns#">
   <cc:Work>
    <dc:type rdf:resource="http://purl.org/dc/dcmitype/StillImage"/>
    <dc:date>2022-01-31T15:15:39.322742</dc:date>
    <dc:format>image/svg+xml</dc:format>
    <dc:creator>
     <cc:Agent>
      <dc:title>Matplotlib v3.5.0, https://matplotlib.org/</dc:title>
     </cc:Agent>
    </dc:creator>
   </cc:Work>
  </rdf:RDF>
 </metadata>
 <defs>
  <style type="text/css">*{stroke-linejoin: round; stroke-linecap: butt}</style>
 </defs>
 <g id="figure_1">
  <g id="patch_1">
   <path d="M 0 288 
L 288 288 
L 288 0 
L 0 0 
L 0 288 
z
" style="fill: none"/>
  </g>
  <g id="axes_1">
   <g id="line2d_1">
    <path d="M 84 264 
L 84 204 
L 24 204 
L 24 264 
L 84 264 
" clip-path="url(#pbcafc021d6)" style="fill: none; stroke: #252525; stroke-width: 3; stroke-linecap: square"/>
   </g>
   <g id="line2d_2">
    <path d="M 144 264 
L 144 204 
L 84 204 
L 84 264 
L 144 264 
" clip-path="url(#pbcafc021d6)" style="fill: none; stroke: #252525; stroke-width: 3; stroke-linecap: square"/>
   </g>
   <g id="line2d_3">
    <path d="M 144 204 
L 144 144 
L 84 144 
L 84 204 
L 144 204 
" clip-path="url(#pbcafc021d6)" style="fill: none; stroke: #252525; stroke-width: 3; stroke-linecap: square"/>
   </g>
   <g id="line2d_4">
    <path d="M 84 204 
L 84 144 
L 24 144 
L 24 204 
L 84 204 
" clip-path="url(#pbcafc021d6)" style="fill: none; stroke: #252525; stroke-width: 3; stroke-linecap: square"/>
   </g>
   <g id="line2d_5">
    <path d="M 84 144 
L 84 84 
L 24 84 
L 24 144 
L 84 144 
" clip-path="url(#pbcafc021d6)" style="fill: none; stroke: #252525; stroke-width: 3; stroke-linecap: square"/>
   </g>
   <g id="line2d_6">
    <path d="M 84 84 
L 84 24 
L 24 24 
L 24 84 
L 84 84 
" clip-path="url(#pbcafc021d6)" style="fill: none; stroke: #252525; stroke-width: 3; stroke-linecap: square"/>
   </g>
   <g id="line2d_7">
    <path d="M 144 84 
L 144 24 
L 84 24 
L 84 84 
L 144 84 
" clip-path="url(#pbcafc021d6)" style="fill: none; stroke: #252525; stroke-width: 3; stroke-linecap: square"/>
   </g>
   <g id="line2d_8">
    <path d="M 144 144 
L 144 84 
L 84 84 
L 84 144 
L 144 144 
" clip-path="url(#pbcafc021d6)" style="fill: none; stroke: #252525; stroke-width: 3; stroke-linecap: square"/>
   </g>
   <g id="line2d_9">
    <path d="M 204 144 
L 204 84 
L 144 84 
L 144 144 
L 204 144 
" clip-path="url(#pbcafc021d6)" style="fill: none; stroke: #252525; stroke-width: 3; stroke-linecap: square"/>
   </g>
   <g id="line2d_10">
    <path d="M 204 84 
L 204 24 
L 144 24 
L 144 84 
L 204 84 
" clip-path="url(#pbcafc021d6)" style="fill: none; stroke: #252525; stroke-width: 3; stroke-linecap: square"/>
   </g>
   <g id="line2d_11">
    <path d="M 264 84 
L 264 24 
L 204 24 
L 204 84 
L 264 84 
" clip-path="url(#pbcafc021d6)" style="fill: none; stroke: #252525; stroke-width: 3; stroke-linecap: square"/>
   </g>
   <g id="line2d_12">
    <path d="M 264 144 
L 264 84 
L 204 84 
L 204 144 
L 264 144 
" clip-path="url(#pbcafc021d6)" style="fill: none; stroke: #252525; stroke-width: 3; stroke-linecap: square"/>
   </g>
   <g id="line2d_13">
    <path d="M 264 204 
L 264 144 
L 204 144 
L 204 204 
L 264 204 
" clip-path="url(#pbcafc021d6)" style="fill: none; stroke: #252525; stroke-width: 3; stroke-linecap: square"/>
   </g>
   <g id="line2d_14">
    <path d="M 204 204 
L 204 144 
L 144 144 
L 144 204 
L 204 204 
" clip-path="url(#pbcafc021d6)" style="fill: none; stroke: #252525; stroke-width: 3; stroke-linecap: square"/>
   </g>
   <g id="line2d_15">
    <path d="M 204 264 
L 204 204 
L 144 204 
L 144 264 
L 204 264 
" clip-path="url(#pbcafc021d6)" style="fill: none; stroke: #252525; stroke-width: 3; stroke-linecap: square"/>
   </g>
   <g id="line2d_16">
    <path d="M 264 264 
L 264 204 
L 204 204 
L 204 264 
L 264 264 
" clip-path="url(#pbcafc021d6)" style="fill: none; stroke: #252525; stroke-width: 3; stroke-linecap: square"/>
   </g>
   <g id="line2d_17">
    <defs>
     <path id="m70c647b4eb" d="M 0 3 
C 0.795609 3 1.55874 2.683901 2.12132 2.12132 
C 2.683901 1.55874 3 0.795609 3 0 
C 3 -0.795609 2.683901 -1.55874 2.12132 -2.12132 
C 1.55874 -2.683901 0.795609 -3 0 -3 
C -0.795609 -3 -1.55874 -2.683901 -2.12132 -2.12132 
C -2.683901 -1.55874 -3 -0.795609 -3 0 
C -3 0.795609 -2.683901 1.55874 -2.12132 2.12132 
C -1.55874 2.683901 -0.795609 3 0 3 
z
" style="stroke: #c586c0"/>
    </defs>
    <g clip-path="url(#pbcafc021d6)">
     <use xlink:href="#m70c647b4eb" x="24" y="264" style="fill: #c586c0; stroke: #c586c0"/>
     <use xlink:href="#m70c647b4eb" x="24" y="204" style="fill: #c586c0; stroke: #c586c0"/>
     <use xlink:href="#m70c647b4eb" x="24" y="144" style="fill: #c586c0; stroke: #c586c0"/>
     <use xlink:href="#m70c647b4eb" x="24" y="84" style="fill: #c586c0; stroke: #c586c0"/>
     <use xlink:href="#m70c647b4eb" x="24" y="24" style="fill: #c586c0; stroke: #c586c0"/>
     <use xlink:href="#m70c647b4eb" x="84" y="264" style="fill: #c586c0; stroke: #c586c0"/>
     <use xlink:href="#m70c647b4eb" x="84" y="204" style="fill: #c586c0; stroke: #c586c0"/>
     <use xlink:href="#m70c647b4eb" x="84" y="144" style="fill: #c586c0; stroke: #c586c0"/>
     <use xlink:href="#m70c647b4eb" x="84" y="84" style="fill: #c586c0; stroke: #c586c0"/>
     <use xlink:href="#m70c647b4eb" x="84" y="24" style="fill: #c586c0; stroke: #c586c0"/>
     <use xlink:href="#m70c647b4eb" x="144" y="264" style="fill: #c586c0; stroke: #c586c0"/>
     <use xlink:href="#m70c647b4eb" x="144" y="204" style="fill: #c586c0; stroke: #c586c0"/>
     <use xlink:href="#m70c647b4eb" x="144" y="144" style="fill: #c586c0; stroke: #c586c0"/>
     <use xlink:href="#m70c647b4eb" x="144" y="84" style="fill: #c586c0; stroke: #c586c0"/>
     <use xlink:href="#m70c647b4eb" x="144" y="24" style="fill: #c586c0; stroke: #c586c0"/>
     <use xlink:href="#m70c647b4eb" x="204" y="264" style="fill: #c586c0; stroke: #c586c0"/>
     <use xlink:href="#m70c647b4eb" x="204" y="204" style="fill: #c586c0; stroke: #c586c0"/>
     <use xlink:href="#m70c647b4eb" x="204" y="144" style="fill: #c586c0; stroke: #c586c0"/>
     <use xlink:href="#m70c647b4eb" x="204" y="84" style="fill: #c586c0; stroke: #c586c0"/>
     <use xlink:href="#m70c647b4eb" x="204" y="24" style="fill: #c586c0; stroke: #c586c0"/>
     <use xlink:href="#m70c647b4eb" x="264" y="264" style="fill: #c586c0; stroke: #c586c0"/>
     <use xlink:href="#m70c647b4eb" x="264" y="204" style="fill: #c586c0; stroke: #c586c0"/>
     <use xlink:href="#m70c647b4eb" x="264" y="144" style="fill: #c586c0; stroke: #c586c0"/>
     <use xlink:href="#m70c647b4eb" x="264" y="84" style="fill: #c586c0; stroke: #c586c0"/>
     <use xlink:href="#m70c647b4eb" x="264" y="24" style="fill: #c586c0; stroke: #c586c0"/>
    </g>
   </g>
   <g id="line2d_18">
    <path d="M 54 234 
L 114 234 
L 114 174 
L 54 174 
L 54 114 
L 54 54 
L 114 54 
L 114 114 
L 174 114 
L 174 54 
L 234 54 
L 234 114 
L 234 174 
L 174 174 
L 174 234 
L 234 234 
" clip-path="url(#pbcafc021d6)" style="fill: none; stroke: #6a9955; stroke-width: 5; stroke-linecap: square"/>
   </g>
  </g>
 </g>
 <defs>
  <clipPath id="pbcafc021d6">
   <rect x="0" y="0" width="288" height="288"/>
  </clipPath>
 </defs>
</svg>
