<?xml version="1.0" encoding="utf-8" standalone="no"?>
<!DOCTYPE svg PUBLIC "-//W3C//DTD SVG 1.1//EN"
  "http://www.w3.org/Graphics/SVG/1.1/DTD/svg11.dtd">
<svg xmlns:xlink="http://www.w3.org/1999/xlink" width="288pt" height="720pt" viewBox="0 0 288 720" xmlns="http://www.w3.org/2000/svg" version="1.1">
 <metadata>
  <rdf:RDF xmlns:dc="http://purl.org/dc/elements/1.1/" xmlns:cc="http://creativecommons.org/ns#" xmlns:rdf="http://www.w3.org/1999/02/22-rdf-syntax-ns#">
   <cc:Work>
    <dc:type rdf:resource="http://purl.org/dc/dcmitype/StillImage"/>
    <dc:date>2022-01-14T14:50:56.210396</dc:date>
    <dc:format>image/svg+xml</dc:format>
    <dc:creator>
     <cc:Agent>
      <dc:title>Matplotlib v3.5.0, https://matplotlib.org/</dc:title>
     </cc:Agent>
    </dc:creator>
   </cc:Work>
  </rdf:RDF>
 </metadata>
 <defs>
  <style type="text/css">*{stroke-linejoin: round; stroke-linecap: butt}</style>
 </defs>
 <g id="figure_1">
  <g id="patch_1">
   <path d="M 0 720 
L 288 720 
L 288 0 
L 0 0 
L 0 720 
z
" style="fill: none"/>
  </g>
  <g id="axes_1">
   <g id="patch_2">
    <path d="M 144 395.294118 
L 133.411765 381.176471 
L 140.470588 381.176471 
L 140.470588 324.705882 
L 147.529412 324.705882 
L 147.529412 381.176471 
L 154.588235 381.176471 
z
" clip-path="url(#pd6f0ac9c14)" style="fill: #252525; stroke: #252525; stroke-linejoin: miter"/>
   </g>
   <g id="patch_3">
    <path d="M 214.588235 607.058824 
L 204 592.941176 
L 211.058824 592.941176 
L 211.058824 536.470588 
L 218.117647 536.470588 
L 218.117647 592.941176 
L 225.176471 592.941176 
z
" clip-path="url(#pd6f0ac9c14)" style="fill: #6a9955; stroke: #6a9955; stroke-linejoin: miter"/>
   </g>
   <g id="patch_4">
    <path d="M 108.705882 642.352941 
L 122.823529 631.764706 
L 122.823529 638.823529 
L 179.294118 638.823529 
L 179.294118 645.882353 
L 122.823529 645.882353 
L 122.823529 652.941176 
z
" clip-path="url(#pd6f0ac9c14)" style="fill: #6a9955; stroke: #6a9955; stroke-linejoin: miter"/>
   </g>
   <g id="patch_5">
    <path d="M 73.411765 536.470588 
L 84 550.588235 
L 76.941176 550.588235 
L 76.941176 607.058824 
L 69.882353 607.058824 
L 69.882353 550.588235 
L 62.823529 550.588235 
z
" clip-path="url(#pd6f0ac9c14)" style="fill: #6a9955; stroke: #6a9955; stroke-linejoin: miter"/>
   </g>
   <g id="line2d_1">
    <path d="M 2.823529 289.411765 
L 285.176471 289.411765 
L 285.176471 7.058824 
L 2.823529 7.058824 
L 2.823529 289.411765 
" clip-path="url(#pd6f0ac9c14)" style="fill: none; stroke: #252525; stroke-width: 3; stroke-linecap: square"/>
   </g>
   <g id="line2d_2">
    <path d="M 2.823529 712.941176 
L 144 712.941176 
L 144 571.764706 
L 2.823529 571.764706 
L 2.823529 712.941176 
" clip-path="url(#pd6f0ac9c14)" style="fill: none; stroke: #252525; stroke-width: 3; stroke-linecap: square"/>
   </g>
   <g id="line2d_3">
    <path d="M 144 712.941176 
L 285.176471 712.941176 
L 285.176471 571.764706 
L 144 571.764706 
L 144 712.941176 
" clip-path="url(#pd6f0ac9c14)" style="fill: none; stroke: #252525; stroke-width: 3; stroke-linecap: square"/>
   </g>
   <g id="line2d_4">
    <path d="M 144 571.764706 
L 285.176471 571.764706 
L 285.176471 430.588235 
L 144 430.588235 
L 144 571.764706 
" clip-path="url(#pd6f0ac9c14)" style="fill: none; stroke: #252525; stroke-width: 3; stroke-linecap: square"/>
   </g>
   <g id="line2d_5">
    <path d="M 2.823529 571.764706 
L 144 571.764706 
L 144 430.588235 
L 2.823529 430.588235 
L 2.823529 571.764706 
" clip-path="url(#pd6f0ac9c14)" style="fill: none; stroke: #252525; stroke-width: 3; stroke-linecap: square"/>
   </g>
   <g id="text_1">
    <!-- R -->
    <g style="fill: #252525" transform="translate(133.2 157.710607)scale(0.36 -0.36)">
     <defs>
      <path id="FiraCode-Regular-52" d="M 3440 3171 
Q 3440 2675 3129 2369 
Q 2819 2064 2365 1955 
L 3670 0 
L 3005 0 
L 1802 1891 
L 1206 1891 
L 1206 0 
L 650 0 
L 650 4406 
L 1782 4406 
Q 2598 4406 3019 4094 
Q 3440 3782 3440 3171 
z
M 2845 3171 
Q 2845 3594 2600 3779 
Q 2355 3965 1846 3965 
L 1206 3965 
L 1206 2326 
L 1846 2326 
Q 2320 2326 2582 2520 
Q 2845 2714 2845 3171 
z
" transform="scale(0.015625)"/>
     </defs>
     <use xlink:href="#FiraCode-Regular-52"/>
    </g>
   </g>
   <g id="text_2">
    <!-- R -->
    <g style="fill: #4ec9b0" transform="translate(62.611765 651.828254)scale(0.36 -0.36)">
     <use xlink:href="#FiraCode-Regular-52"/>
    </g>
   </g>
   <g id="text_3">
    <!-- R -->
    <g style="fill: #4ec9b0" transform="translate(203.788235 651.828254)scale(0.36 -0.36)">
     <use xlink:href="#FiraCode-Regular-52"/>
    </g>
   </g>
   <g id="text_4">
    <!-- B -->
    <g style="fill: #4ec9b0" transform="translate(203.788235 510.651783)scale(0.36 -0.36)">
     <defs>
      <path id="FiraCode-Regular-42" d="M 3453 1258 
Q 3453 896 3310 654 
Q 3168 413 2929 269 
Q 2691 125 2398 62 
Q 2106 0 1802 0 
L 618 0 
L 618 4406 
L 1702 4406 
Q 1990 4406 2268 4353 
Q 2547 4301 2771 4174 
Q 2995 4048 3128 3833 
Q 3261 3619 3261 3296 
Q 3261 3011 3144 2814 
Q 3027 2618 2840 2499 
Q 2653 2381 2442 2333 
Q 2685 2291 2917 2180 
Q 3149 2070 3301 1849 
Q 3453 1629 3453 1258 
z
M 2691 3267 
Q 2691 3642 2459 3800 
Q 2227 3958 1827 3958 
L 1171 3958 
L 1171 2531 
L 1882 2531 
Q 2272 2531 2481 2705 
Q 2691 2880 2691 3267 
z
M 2867 1238 
Q 2867 1571 2737 1752 
Q 2608 1933 2393 2003 
Q 2179 2074 1923 2074 
L 1171 2074 
L 1171 458 
L 1898 458 
Q 2115 458 2339 517 
Q 2563 576 2715 744 
Q 2867 912 2867 1238 
z
" transform="scale(0.015625)"/>
     </defs>
     <use xlink:href="#FiraCode-Regular-42"/>
    </g>
   </g>
   <g id="text_5">
    <!-- A -->
    <g style="fill: #4ec9b0" transform="translate(62.611765 510.651783)scale(0.36 -0.36)">
     <defs>
      <path id="FiraCode-Regular-41" d="M 2774 1123 
L 1030 1123 
L 678 0 
L 131 0 
L 1565 4406 
L 2275 4406 
L 3709 0 
L 3126 0 
L 2774 1123 
z
M 1174 1584 
L 2630 1584 
L 1907 3939 
L 1174 1584 
z
" transform="scale(0.015625)"/>
     </defs>
     <use xlink:href="#FiraCode-Regular-41"/>
    </g>
   </g>
  </g>
 </g>
 <defs>
  <clipPath id="pd6f0ac9c14">
   <rect x="0" y="4.235294" width="288" height="711.529412"/>
  </clipPath>
 </defs>
</svg>
