<?xml version="1.0" encoding="utf-8" standalone="no"?>
<!DOCTYPE svg PUBLIC "-//W3C//DTD SVG 1.1//EN"
  "http://www.w3.org/Graphics/SVG/1.1/DTD/svg11.dtd">
<svg xmlns:xlink="http://www.w3.org/1999/xlink" width="288pt" height="720pt" viewBox="0 0 288 720" xmlns="http://www.w3.org/2000/svg" version="1.1">
 <metadata>
  <rdf:RDF xmlns:dc="http://purl.org/dc/elements/1.1/" xmlns:cc="http://creativecommons.org/ns#" xmlns:rdf="http://www.w3.org/1999/02/22-rdf-syntax-ns#">
   <cc:Work>
    <dc:type rdf:resource="http://purl.org/dc/dcmitype/StillImage"/>
    <dc:date>2022-01-31T15:15:42.527284</dc:date>
    <dc:format>image/svg+xml</dc:format>
    <dc:creator>
     <cc:Agent>
      <dc:title>Matplotlib v3.5.0, https://matplotlib.org/</dc:title>
     </cc:Agent>
    </dc:creator>
   </cc:Work>
  </rdf:RDF>
 </metadata>
 <defs>
  <style type="text/css">*{stroke-linejoin: round; stroke-linecap: butt}</style>
 </defs>
 <g id="figure_1">
  <g id="patch_1">
   <path d="M 0 720 
L 288 720 
L 288 0 
L 0 0 
L 0 720 
z
" style="fill: none"/>
  </g>
  <g id="axes_1">
   <g id="patch_2">
    <path d="M 144 218.360656 
L 132.196721 227.213115 
L 132.196721 221.311475 
L 2.360656 221.311475 
L 2.360656 215.409836 
L 132.196721 215.409836 
L 132.196721 209.508197 
z
" clip-path="url(#p789ed2a91a)" style="fill: #6a9955; stroke: #6a9955; stroke-linejoin: miter"/>
   </g>
   <g id="patch_3">
    <path d="M 2.360656 171.147541 
L 14.163934 162.295082 
L 14.163934 168.196721 
L 144 168.196721 
L 144 174.098361 
L 14.163934 174.098361 
L 14.163934 180 
z
" clip-path="url(#p789ed2a91a)" style="fill: #6a9955; stroke: #6a9955; stroke-linejoin: miter"/>
   </g>
   <g id="patch_4">
    <path d="M 144 401.311475 
L 135.147541 389.508197 
L 141.04918 389.508197 
L 141.04918 342.295082 
L 146.95082 342.295082 
L 146.95082 389.508197 
L 152.852459 389.508197 
z
" clip-path="url(#p789ed2a91a)" style="fill: #252525; stroke: #252525; stroke-linejoin: miter"/>
   </g>
   <g id="patch_5">
    <path d="M 173.508197 607.868852 
L 161.704918 616.721311 
L 161.704918 610.819672 
L 114.491803 610.819672 
L 114.491803 604.918033 
L 161.704918 604.918033 
L 161.704918 599.016393 
z
" clip-path="url(#p789ed2a91a)" style="fill: #6a9955; stroke: #6a9955; stroke-linejoin: miter"/>
   </g>
   <g id="patch_6">
    <path d="M 203.016393 519.344262 
L 211.868852 531.147541 
L 205.967213 531.147541 
L 205.967213 578.360656 
L 200.065574 578.360656 
L 200.065574 531.147541 
L 194.163934 531.147541 
z
" clip-path="url(#p789ed2a91a)" style="fill: #6a9955; stroke: #6a9955; stroke-linejoin: miter"/>
   </g>
   <g id="patch_7">
    <path d="M 114.491803 489.836066 
L 126.295082 480.983607 
L 126.295082 486.885246 
L 173.508197 486.885246 
L 173.508197 492.786885 
L 126.295082 492.786885 
L 126.295082 498.688525 
z
" clip-path="url(#p789ed2a91a)" style="fill: #6a9955; stroke: #6a9955; stroke-linejoin: miter"/>
   </g>
   <g id="line2d_1">
    <path d="M 25.967213 312.786885 
L 262.032787 312.786885 
L 262.032787 76.721311 
L 25.967213 76.721311 
L 25.967213 312.786885 
" clip-path="url(#p789ed2a91a)" style="fill: none; stroke: #252525; stroke-width: 3; stroke-linecap: square"/>
   </g>
   <g id="line2d_2">
    <path d="M 25.967213 666.885246 
L 144 666.885246 
L 144 548.852459 
L 25.967213 548.852459 
L 25.967213 666.885246 
" clip-path="url(#p789ed2a91a)" style="fill: none; stroke: #252525; stroke-width: 3; stroke-linecap: square"/>
   </g>
   <g id="line2d_3">
    <path d="M 144 666.885246 
L 262.032787 666.885246 
L 262.032787 548.852459 
L 144 548.852459 
L 144 666.885246 
" clip-path="url(#p789ed2a91a)" style="fill: none; stroke: #252525; stroke-width: 3; stroke-linecap: square"/>
   </g>
   <g id="line2d_4">
    <path d="M 144 548.852459 
L 262.032787 548.852459 
L 262.032787 430.819672 
L 144 430.819672 
L 144 548.852459 
" clip-path="url(#p789ed2a91a)" style="fill: none; stroke: #252525; stroke-width: 3; stroke-linecap: square"/>
   </g>
   <g id="line2d_5">
    <path d="M 25.967213 548.852459 
L 144 548.852459 
L 144 430.819672 
L 25.967213 430.819672 
L 25.967213 548.852459 
" clip-path="url(#p789ed2a91a)" style="fill: none; stroke: #252525; stroke-width: 3; stroke-linecap: square"/>
   </g>
   <g id="text_1">
    <!-- H -->
    <g style="fill: #4fc1ff" transform="translate(74.183607 617.344165)scale(0.36 -0.36)">
     <defs>
      <path id="FiraCode-Regular-48" d="M 2752 0 
L 2752 2090 
L 1088 2090 
L 1088 0 
L 534 0 
L 534 4406 
L 1088 4406 
L 1088 2544 
L 2752 2544 
L 2752 4406 
L 3306 4406 
L 3306 0 
L 2752 0 
z
" transform="scale(0.015625)"/>
     </defs>
     <use xlink:href="#FiraCode-Regular-48"/>
    </g>
   </g>
   <g id="text_2">
    <!-- A -->
    <g style="fill: #4fc1ff" transform="translate(192.216393 617.344165)scale(0.36 -0.36)">
     <defs>
      <path id="FiraCode-Regular-41" d="M 2774 1123 
L 1030 1123 
L 678 0 
L 131 0 
L 1565 4406 
L 2275 4406 
L 3709 0 
L 3126 0 
L 2774 1123 
z
M 1174 1584 
L 2630 1584 
L 1907 3939 
L 1174 1584 
z
" transform="scale(0.015625)"/>
     </defs>
     <use xlink:href="#FiraCode-Regular-41"/>
    </g>
   </g>
   <g id="text_3">
    <!-- A -->
    <g style="fill: #4fc1ff" transform="translate(192.216393 499.311378)scale(0.36 -0.36)">
     <use xlink:href="#FiraCode-Regular-41"/>
    </g>
   </g>
   <g id="text_4">
    <!-- R -->
    <g style="fill: #4fc1ff" transform="translate(74.183607 499.311378)scale(0.36 -0.36)">
     <defs>
      <path id="FiraCode-Regular-52" d="M 3440 3171 
Q 3440 2675 3129 2369 
Q 2819 2064 2365 1955 
L 3670 0 
L 3005 0 
L 1802 1891 
L 1206 1891 
L 1206 0 
L 650 0 
L 650 4406 
L 1782 4406 
Q 2598 4406 3019 4094 
Q 3440 3782 3440 3171 
z
M 2845 3171 
Q 2845 3594 2600 3779 
Q 2355 3965 1846 3965 
L 1206 3965 
L 1206 2326 
L 1846 2326 
Q 2320 2326 2582 2520 
Q 2845 2714 2845 3171 
z
" transform="scale(0.015625)"/>
     </defs>
     <use xlink:href="#FiraCode-Regular-52"/>
    </g>
   </g>
  </g>
 </g>
 <defs>
  <clipPath id="p789ed2a91a">
   <rect x="0" y="50.754098" width="288" height="618.491803"/>
  </clipPath>
 </defs>
</svg>
