<?xml version="1.0" encoding="utf-8" standalone="no"?>
<!DOCTYPE svg PUBLIC "-//W3C//DTD SVG 1.1//EN"
  "http://www.w3.org/Graphics/SVG/1.1/DTD/svg11.dtd">
<svg xmlns:xlink="http://www.w3.org/1999/xlink" width="201.6pt" height="201.6pt" viewBox="0 0 201.6 201.6" xmlns="http://www.w3.org/2000/svg" version="1.1">
 <metadata>
  <rdf:RDF xmlns:dc="http://purl.org/dc/elements/1.1/" xmlns:cc="http://creativecommons.org/ns#" xmlns:rdf="http://www.w3.org/1999/02/22-rdf-syntax-ns#">
   <cc:Work>
    <dc:type rdf:resource="http://purl.org/dc/dcmitype/StillImage"/>
    <dc:date>2022-01-31T15:15:44.533366</dc:date>
    <dc:format>image/svg+xml</dc:format>
    <dc:creator>
     <cc:Agent>
      <dc:title>Matplotlib v3.5.0, https://matplotlib.org/</dc:title>
     </cc:Agent>
    </dc:creator>
   </cc:Work>
  </rdf:RDF>
 </metadata>
 <defs>
  <style type="text/css">*{stroke-linejoin: round; stroke-linecap: butt}</style>
 </defs>
 <g id="figure_1">
  <g id="patch_1">
   <path d="M 0 201.6 
L 201.6 201.6 
L 201.6 0 
L 0 0 
L 0 201.6 
z
" style="fill: none"/>
  </g>
  <g id="axes_1">
   <g id="patch_2">
    <path d="M 100.8 71.152941 
L 96.352941 65.223529 
L 99.317647 65.223529 
L 99.317647 11.858824 
L 102.282353 11.858824 
L 102.282353 65.223529 
L 105.247059 65.223529 
z
" clip-path="url(#p14a6dc3ea9)" style="fill: #6a9955; stroke: #6a9955; stroke-linejoin: miter"/>
   </g>
   <g id="patch_3">
    <path d="M 11.858824 100.8 
L 17.788235 96.352941 
L 17.788235 99.317647 
L 71.152941 99.317647 
L 71.152941 102.282353 
L 17.788235 102.282353 
L 17.788235 105.247059 
z
" clip-path="url(#p14a6dc3ea9)" style="fill: #6a9955; stroke: #6a9955; stroke-linejoin: miter"/>
   </g>
   <g id="line2d_1">
    <path d="M 41.505882 160.094118 
L 160.094118 160.094118 
L 160.094118 41.505882 
L 41.505882 41.505882 
L 41.505882 160.094118 
" clip-path="url(#p14a6dc3ea9)" style="fill: none; stroke: #252525; stroke-width: 3; stroke-linecap: square"/>
   </g>
   <g id="line2d_2">
    <defs>
     <path id="m5d19cb3483" d="M 0 3 
C 0.795609 3 1.55874 2.683901 2.12132 2.12132 
C 2.683901 1.55874 3 0.795609 3 0 
C 3 -0.795609 2.683901 -1.55874 2.12132 -2.12132 
C 1.55874 -2.683901 0.795609 -3 0 -3 
C -0.795609 -3 -1.55874 -2.683901 -2.12132 -2.12132 
C -2.683901 -1.55874 -3 -0.795609 -3 0 
C -3 0.795609 -2.683901 1.55874 -2.12132 2.12132 
C -1.55874 2.683901 -0.795609 3 0 3 
z
" style="stroke: #c586c0"/>
    </defs>
    <g clip-path="url(#p14a6dc3ea9)">
     <use xlink:href="#m5d19cb3483" x="41.505882" y="160.094118" style="fill: #c586c0; stroke: #c586c0"/>
     <use xlink:href="#m5d19cb3483" x="160.094118" y="160.094118" style="fill: #c586c0; stroke: #c586c0"/>
     <use xlink:href="#m5d19cb3483" x="160.094118" y="41.505882" style="fill: #c586c0; stroke: #c586c0"/>
     <use xlink:href="#m5d19cb3483" x="41.505882" y="41.505882" style="fill: #c586c0; stroke: #c586c0"/>
    </g>
   </g>
   <g id="text_1">
    <!-- 0 -->
    <g style="fill: #c586c0" transform="translate(53.364706 143.146544)scale(0.24 -0.24)">
     <defs>
      <path id="FiraCode-Regular-30" d="M 1920 4477 
Q 2630 4477 2996 3888 
Q 3363 3299 3363 2205 
Q 3363 1107 2996 516 
Q 2630 -74 1920 -74 
Q 1210 -74 843 516 
Q 477 1107 477 2205 
Q 477 3299 843 3888 
Q 1210 4477 1920 4477 
z
M 1920 4045 
Q 1514 4045 1280 3614 
Q 1046 3184 1046 2205 
Q 1046 1472 1158 1053 
L 2506 3760 
Q 2304 4045 1920 4045 
z
M 2797 2205 
Q 2797 2944 2682 3360 
L 1341 643 
Q 1542 362 1920 362 
Q 2330 362 2563 794 
Q 2797 1226 2797 2205 
z
" transform="scale(0.015625)"/>
     </defs>
     <use xlink:href="#FiraCode-Regular-30"/>
    </g>
   </g>
   <g id="text_2">
    <!-- 1 -->
    <g style="fill: #c586c0" transform="translate(133.835294 143.146544)scale(0.24 -0.24)">
     <defs>
      <path id="FiraCode-Regular-31" d="M 3312 438 
L 3312 0 
L 768 0 
L 768 438 
L 1853 438 
L 1853 3824 
L 842 3210 
L 608 3594 
L 1920 4406 
L 2390 4406 
L 2390 438 
L 3312 438 
z
" transform="scale(0.015625)"/>
     </defs>
     <use xlink:href="#FiraCode-Regular-31"/>
    </g>
   </g>
   <g id="text_3">
    <!-- 2 -->
    <g style="fill: #c586c0" transform="translate(133.835294 71.087206)scale(0.24 -0.24)">
     <defs>
      <path id="FiraCode-Regular-32" d="M 1725 4477 
Q 2141 4477 2438 4315 
Q 2736 4154 2894 3875 
Q 3053 3597 3053 3248 
Q 3053 2944 2947 2654 
Q 2842 2365 2610 2046 
Q 2378 1728 2000 1341 
Q 1622 954 1078 458 
L 3155 458 
L 3088 0 
L 467 0 
L 467 438 
Q 1091 1037 1486 1449 
Q 1882 1862 2099 2161 
Q 2317 2461 2401 2710 
Q 2486 2960 2486 3229 
Q 2486 3600 2278 3814 
Q 2070 4029 1699 4029 
Q 1373 4029 1165 3917 
Q 957 3805 749 3558 
L 378 3846 
Q 640 4166 958 4321 
Q 1277 4477 1725 4477 
z
" transform="scale(0.015625)"/>
     </defs>
     <use xlink:href="#FiraCode-Regular-32"/>
    </g>
   </g>
   <g id="text_4">
    <!-- 3 -->
    <g style="fill: #c586c0" transform="translate(53.364706 71.087206)scale(0.24 -0.24)">
     <defs>
      <path id="FiraCode-Regular-33" d="M 1718 4477 
Q 2134 4477 2438 4326 
Q 2742 4176 2907 3926 
Q 3072 3677 3072 3376 
Q 3072 3107 2953 2891 
Q 2835 2675 2640 2534 
Q 2445 2394 2211 2349 
Q 2470 2330 2699 2203 
Q 2928 2077 3070 1843 
Q 3213 1610 3213 1270 
Q 3213 890 3021 584 
Q 2829 278 2485 102 
Q 2141 -74 1683 -74 
Q 1312 -74 947 67 
Q 582 208 330 515 
L 691 810 
Q 880 589 1141 480 
Q 1402 371 1670 371 
Q 2131 371 2390 612 
Q 2650 854 2650 1270 
Q 2650 1741 2389 1923 
Q 2128 2106 1738 2106 
L 1366 2106 
L 1434 2531 
L 1693 2531 
Q 1907 2531 2097 2614 
Q 2288 2698 2409 2867 
Q 2531 3037 2531 3299 
Q 2531 3664 2288 3856 
Q 2045 4048 1699 4048 
Q 1411 4048 1196 3947 
Q 982 3846 765 3642 
L 467 3971 
Q 749 4237 1065 4357 
Q 1382 4477 1718 4477 
z
" transform="scale(0.015625)"/>
     </defs>
     <use xlink:href="#FiraCode-Regular-33"/>
    </g>
   </g>
   <g id="text_5">
    <!-- R -->
    <g style="fill: #252525" transform="translate(90 110.275313)scale(0.36 -0.36)">
     <defs>
      <path id="FiraCode-Regular-52" d="M 3440 3171 
Q 3440 2675 3129 2369 
Q 2819 2064 2365 1955 
L 3670 0 
L 3005 0 
L 1802 1891 
L 1206 1891 
L 1206 0 
L 650 0 
L 650 4406 
L 1782 4406 
Q 2598 4406 3019 4094 
Q 3440 3782 3440 3171 
z
M 2845 3171 
Q 2845 3594 2600 3779 
Q 2355 3965 1846 3965 
L 1206 3965 
L 1206 2326 
L 1846 2326 
Q 2320 2326 2582 2520 
Q 2845 2714 2845 3171 
z
" transform="scale(0.015625)"/>
     </defs>
     <use xlink:href="#FiraCode-Regular-52"/>
    </g>
   </g>
  </g>
 </g>
 <defs>
  <clipPath id="p14a6dc3ea9">
   <rect x="0" y="0" width="201.6" height="201.6"/>
  </clipPath>
 </defs>
</svg>
