<?xml version="1.0" encoding="utf-8" standalone="no"?>
<!DOCTYPE svg PUBLIC "-//W3C//DTD SVG 1.1//EN"
  "http://www.w3.org/Graphics/SVG/1.1/DTD/svg11.dtd">
<svg xmlns:xlink="http://www.w3.org/1999/xlink" width="864pt" height="498.24pt" viewBox="0 0 864 498.24" xmlns="http://www.w3.org/2000/svg" version="1.1">
 <metadata>
  <rdf:RDF xmlns:dc="http://purl.org/dc/elements/1.1/" xmlns:cc="http://creativecommons.org/ns#" xmlns:rdf="http://www.w3.org/1999/02/22-rdf-syntax-ns#">
   <cc:Work>
    <dc:type rdf:resource="http://purl.org/dc/dcmitype/StillImage"/>
    <dc:date>2021-12-13T11:40:21.967895</dc:date>
    <dc:format>image/svg+xml</dc:format>
    <dc:creator>
     <cc:Agent>
      <dc:title>Matplotlib v3.5.0, https://matplotlib.org/</dc:title>
     </cc:Agent>
    </dc:creator>
   </cc:Work>
  </rdf:RDF>
 </metadata>
 <defs>
  <style type="text/css">*{stroke-linejoin: round; stroke-linecap: butt}</style>
 </defs>
 <g id="figure_1">
  <g id="patch_1">
   <path d="M 0 498.24 
L 864 498.24 
L 864 0 
L 0 0 
z
" style="fill: #ffffff"/>
  </g>
  <g id="axes_1">
   <g id="patch_2">
    <path d="M 314.9184 443.4336 
L 570.6816 443.4336 
L 570.6816 59.7888 
L 314.9184 59.7888 
z
" style="fill: #ffffff"/>
   </g>
   <g id="matplotlib.axis_1">
    <g id="xtick_1">
     <g id="line2d_1">
      <defs>
       <path id="m3cd140c46b" d="M 0 0 
L 0 3.5 
" style="stroke: #000000; stroke-width: 0.8"/>
      </defs>
      <g>
       <use xlink:href="#m3cd140c46b" x="326.544" y="443.4336" style="stroke: #000000; stroke-width: 0.8"/>
      </g>
     </g>
     <g id="text_1">
      <!-- 0.0 -->
      <g transform="translate(318.592437 458.032038)scale(0.1 -0.1)">
       <defs>
        <path id="DejaVuSans-30" d="M 2034 4250 
Q 1547 4250 1301 3770 
Q 1056 3291 1056 2328 
Q 1056 1369 1301 889 
Q 1547 409 2034 409 
Q 2525 409 2770 889 
Q 3016 1369 3016 2328 
Q 3016 3291 2770 3770 
Q 2525 4250 2034 4250 
z
M 2034 4750 
Q 2819 4750 3233 4129 
Q 3647 3509 3647 2328 
Q 3647 1150 3233 529 
Q 2819 -91 2034 -91 
Q 1250 -91 836 529 
Q 422 1150 422 2328 
Q 422 3509 836 4129 
Q 1250 4750 2034 4750 
z
" transform="scale(0.015625)"/>
        <path id="DejaVuSans-2e" d="M 684 794 
L 1344 794 
L 1344 0 
L 684 0 
L 684 794 
z
" transform="scale(0.015625)"/>
       </defs>
       <use xlink:href="#DejaVuSans-30"/>
       <use xlink:href="#DejaVuSans-2e" x="63.623047"/>
       <use xlink:href="#DejaVuSans-30" x="95.410156"/>
      </g>
     </g>
    </g>
    <g id="xtick_2">
     <g id="line2d_2">
      <g>
       <use xlink:href="#m3cd140c46b" x="373.0464" y="443.4336" style="stroke: #000000; stroke-width: 0.8"/>
      </g>
     </g>
     <g id="text_2">
      <!-- 0.1 -->
      <g transform="translate(365.094837 458.032038)scale(0.1 -0.1)">
       <defs>
        <path id="DejaVuSans-31" d="M 794 531 
L 1825 531 
L 1825 4091 
L 703 3866 
L 703 4441 
L 1819 4666 
L 2450 4666 
L 2450 531 
L 3481 531 
L 3481 0 
L 794 0 
L 794 531 
z
" transform="scale(0.015625)"/>
       </defs>
       <use xlink:href="#DejaVuSans-30"/>
       <use xlink:href="#DejaVuSans-2e" x="63.623047"/>
       <use xlink:href="#DejaVuSans-31" x="95.410156"/>
      </g>
     </g>
    </g>
    <g id="xtick_3">
     <g id="line2d_3">
      <g>
       <use xlink:href="#m3cd140c46b" x="419.5488" y="443.4336" style="stroke: #000000; stroke-width: 0.8"/>
      </g>
     </g>
     <g id="text_3">
      <!-- 0.2 -->
      <g transform="translate(411.597237 458.032038)scale(0.1 -0.1)">
       <defs>
        <path id="DejaVuSans-32" d="M 1228 531 
L 3431 531 
L 3431 0 
L 469 0 
L 469 531 
Q 828 903 1448 1529 
Q 2069 2156 2228 2338 
Q 2531 2678 2651 2914 
Q 2772 3150 2772 3378 
Q 2772 3750 2511 3984 
Q 2250 4219 1831 4219 
Q 1534 4219 1204 4116 
Q 875 4013 500 3803 
L 500 4441 
Q 881 4594 1212 4672 
Q 1544 4750 1819 4750 
Q 2544 4750 2975 4387 
Q 3406 4025 3406 3419 
Q 3406 3131 3298 2873 
Q 3191 2616 2906 2266 
Q 2828 2175 2409 1742 
Q 1991 1309 1228 531 
z
" transform="scale(0.015625)"/>
       </defs>
       <use xlink:href="#DejaVuSans-30"/>
       <use xlink:href="#DejaVuSans-2e" x="63.623047"/>
       <use xlink:href="#DejaVuSans-32" x="95.410156"/>
      </g>
     </g>
    </g>
    <g id="xtick_4">
     <g id="line2d_4">
      <g>
       <use xlink:href="#m3cd140c46b" x="466.0512" y="443.4336" style="stroke: #000000; stroke-width: 0.8"/>
      </g>
     </g>
     <g id="text_4">
      <!-- 0.3 -->
      <g transform="translate(458.099637 458.032038)scale(0.1 -0.1)">
       <defs>
        <path id="DejaVuSans-33" d="M 2597 2516 
Q 3050 2419 3304 2112 
Q 3559 1806 3559 1356 
Q 3559 666 3084 287 
Q 2609 -91 1734 -91 
Q 1441 -91 1130 -33 
Q 819 25 488 141 
L 488 750 
Q 750 597 1062 519 
Q 1375 441 1716 441 
Q 2309 441 2620 675 
Q 2931 909 2931 1356 
Q 2931 1769 2642 2001 
Q 2353 2234 1838 2234 
L 1294 2234 
L 1294 2753 
L 1863 2753 
Q 2328 2753 2575 2939 
Q 2822 3125 2822 3475 
Q 2822 3834 2567 4026 
Q 2313 4219 1838 4219 
Q 1578 4219 1281 4162 
Q 984 4106 628 3988 
L 628 4550 
Q 988 4650 1302 4700 
Q 1616 4750 1894 4750 
Q 2613 4750 3031 4423 
Q 3450 4097 3450 3541 
Q 3450 3153 3228 2886 
Q 3006 2619 2597 2516 
z
" transform="scale(0.015625)"/>
       </defs>
       <use xlink:href="#DejaVuSans-30"/>
       <use xlink:href="#DejaVuSans-2e" x="63.623047"/>
       <use xlink:href="#DejaVuSans-33" x="95.410156"/>
      </g>
     </g>
    </g>
    <g id="xtick_5">
     <g id="line2d_5">
      <g>
       <use xlink:href="#m3cd140c46b" x="512.5536" y="443.4336" style="stroke: #000000; stroke-width: 0.8"/>
      </g>
     </g>
     <g id="text_5">
      <!-- 0.4 -->
      <g transform="translate(504.602037 458.032038)scale(0.1 -0.1)">
       <defs>
        <path id="DejaVuSans-34" d="M 2419 4116 
L 825 1625 
L 2419 1625 
L 2419 4116 
z
M 2253 4666 
L 3047 4666 
L 3047 1625 
L 3713 1625 
L 3713 1100 
L 3047 1100 
L 3047 0 
L 2419 0 
L 2419 1100 
L 313 1100 
L 313 1709 
L 2253 4666 
z
" transform="scale(0.015625)"/>
       </defs>
       <use xlink:href="#DejaVuSans-30"/>
       <use xlink:href="#DejaVuSans-2e" x="63.623047"/>
       <use xlink:href="#DejaVuSans-34" x="95.410156"/>
      </g>
     </g>
    </g>
    <g id="xtick_6">
     <g id="line2d_6">
      <g>
       <use xlink:href="#m3cd140c46b" x="559.056" y="443.4336" style="stroke: #000000; stroke-width: 0.8"/>
      </g>
     </g>
     <g id="text_6">
      <!-- 0.5 -->
      <g transform="translate(551.104437 458.032038)scale(0.1 -0.1)">
       <defs>
        <path id="DejaVuSans-35" d="M 691 4666 
L 3169 4666 
L 3169 4134 
L 1269 4134 
L 1269 2991 
Q 1406 3038 1543 3061 
Q 1681 3084 1819 3084 
Q 2600 3084 3056 2656 
Q 3513 2228 3513 1497 
Q 3513 744 3044 326 
Q 2575 -91 1722 -91 
Q 1428 -91 1123 -41 
Q 819 9 494 109 
L 494 744 
Q 775 591 1075 516 
Q 1375 441 1709 441 
Q 2250 441 2565 725 
Q 2881 1009 2881 1497 
Q 2881 1984 2565 2268 
Q 2250 2553 1709 2553 
Q 1456 2553 1204 2497 
Q 953 2441 691 2322 
L 691 4666 
z
" transform="scale(0.015625)"/>
       </defs>
       <use xlink:href="#DejaVuSans-30"/>
       <use xlink:href="#DejaVuSans-2e" x="63.623047"/>
       <use xlink:href="#DejaVuSans-35" x="95.410156"/>
      </g>
     </g>
    </g>
    <g id="text_7">
     <!-- x -->
     <g transform="translate(439.840625 471.710163)scale(0.1 -0.1)">
      <defs>
       <path id="DejaVuSans-78" d="M 3513 3500 
L 2247 1797 
L 3578 0 
L 2900 0 
L 1881 1375 
L 863 0 
L 184 0 
L 1544 1831 
L 300 3500 
L 978 3500 
L 1906 2253 
L 2834 3500 
L 3513 3500 
z
" transform="scale(0.015625)"/>
      </defs>
      <use xlink:href="#DejaVuSans-78"/>
     </g>
    </g>
   </g>
   <g id="matplotlib.axis_2">
    <g id="ytick_1">
     <g id="line2d_7">
      <defs>
       <path id="m230a5edaf8" d="M 0 0 
L -3.5 0 
" style="stroke: #000000; stroke-width: 0.8"/>
      </defs>
      <g>
       <use xlink:href="#m230a5edaf8" x="314.9184" y="402.744" style="stroke: #000000; stroke-width: 0.8"/>
      </g>
     </g>
     <g id="text_8">
      <!-- 0.3 -->
      <g transform="translate(292.015275 406.543219)scale(0.1 -0.1)">
       <use xlink:href="#DejaVuSans-30"/>
       <use xlink:href="#DejaVuSans-2e" x="63.623047"/>
       <use xlink:href="#DejaVuSans-33" x="95.410156"/>
      </g>
     </g>
    </g>
    <g id="ytick_2">
     <g id="line2d_8">
      <g>
       <use xlink:href="#m230a5edaf8" x="314.9184" y="356.2416" style="stroke: #000000; stroke-width: 0.8"/>
      </g>
     </g>
     <g id="text_9">
      <!-- 0.4 -->
      <g transform="translate(292.015275 360.040819)scale(0.1 -0.1)">
       <use xlink:href="#DejaVuSans-30"/>
       <use xlink:href="#DejaVuSans-2e" x="63.623047"/>
       <use xlink:href="#DejaVuSans-34" x="95.410156"/>
      </g>
     </g>
    </g>
    <g id="ytick_3">
     <g id="line2d_9">
      <g>
       <use xlink:href="#m230a5edaf8" x="314.9184" y="309.7392" style="stroke: #000000; stroke-width: 0.8"/>
      </g>
     </g>
     <g id="text_10">
      <!-- 0.5 -->
      <g transform="translate(292.015275 313.538419)scale(0.1 -0.1)">
       <use xlink:href="#DejaVuSans-30"/>
       <use xlink:href="#DejaVuSans-2e" x="63.623047"/>
       <use xlink:href="#DejaVuSans-35" x="95.410156"/>
      </g>
     </g>
    </g>
    <g id="ytick_4">
     <g id="line2d_10">
      <g>
       <use xlink:href="#m230a5edaf8" x="314.9184" y="263.2368" style="stroke: #000000; stroke-width: 0.8"/>
      </g>
     </g>
     <g id="text_11">
      <!-- 0.6 -->
      <g transform="translate(292.015275 267.036019)scale(0.1 -0.1)">
       <defs>
        <path id="DejaVuSans-36" d="M 2113 2584 
Q 1688 2584 1439 2293 
Q 1191 2003 1191 1497 
Q 1191 994 1439 701 
Q 1688 409 2113 409 
Q 2538 409 2786 701 
Q 3034 994 3034 1497 
Q 3034 2003 2786 2293 
Q 2538 2584 2113 2584 
z
M 3366 4563 
L 3366 3988 
Q 3128 4100 2886 4159 
Q 2644 4219 2406 4219 
Q 1781 4219 1451 3797 
Q 1122 3375 1075 2522 
Q 1259 2794 1537 2939 
Q 1816 3084 2150 3084 
Q 2853 3084 3261 2657 
Q 3669 2231 3669 1497 
Q 3669 778 3244 343 
Q 2819 -91 2113 -91 
Q 1303 -91 875 529 
Q 447 1150 447 2328 
Q 447 3434 972 4092 
Q 1497 4750 2381 4750 
Q 2619 4750 2861 4703 
Q 3103 4656 3366 4563 
z
" transform="scale(0.015625)"/>
       </defs>
       <use xlink:href="#DejaVuSans-30"/>
       <use xlink:href="#DejaVuSans-2e" x="63.623047"/>
       <use xlink:href="#DejaVuSans-36" x="95.410156"/>
      </g>
     </g>
    </g>
    <g id="ytick_5">
     <g id="line2d_11">
      <g>
       <use xlink:href="#m230a5edaf8" x="314.9184" y="216.7344" style="stroke: #000000; stroke-width: 0.8"/>
      </g>
     </g>
     <g id="text_12">
      <!-- 0.7 -->
      <g transform="translate(292.015275 220.533619)scale(0.1 -0.1)">
       <defs>
        <path id="DejaVuSans-37" d="M 525 4666 
L 3525 4666 
L 3525 4397 
L 1831 0 
L 1172 0 
L 2766 4134 
L 525 4134 
L 525 4666 
z
" transform="scale(0.015625)"/>
       </defs>
       <use xlink:href="#DejaVuSans-30"/>
       <use xlink:href="#DejaVuSans-2e" x="63.623047"/>
       <use xlink:href="#DejaVuSans-37" x="95.410156"/>
      </g>
     </g>
    </g>
    <g id="ytick_6">
     <g id="line2d_12">
      <g>
       <use xlink:href="#m230a5edaf8" x="314.9184" y="170.232" style="stroke: #000000; stroke-width: 0.8"/>
      </g>
     </g>
     <g id="text_13">
      <!-- 0.8 -->
      <g transform="translate(292.015275 174.031219)scale(0.1 -0.1)">
       <defs>
        <path id="DejaVuSans-38" d="M 2034 2216 
Q 1584 2216 1326 1975 
Q 1069 1734 1069 1313 
Q 1069 891 1326 650 
Q 1584 409 2034 409 
Q 2484 409 2743 651 
Q 3003 894 3003 1313 
Q 3003 1734 2745 1975 
Q 2488 2216 2034 2216 
z
M 1403 2484 
Q 997 2584 770 2862 
Q 544 3141 544 3541 
Q 544 4100 942 4425 
Q 1341 4750 2034 4750 
Q 2731 4750 3128 4425 
Q 3525 4100 3525 3541 
Q 3525 3141 3298 2862 
Q 3072 2584 2669 2484 
Q 3125 2378 3379 2068 
Q 3634 1759 3634 1313 
Q 3634 634 3220 271 
Q 2806 -91 2034 -91 
Q 1263 -91 848 271 
Q 434 634 434 1313 
Q 434 1759 690 2068 
Q 947 2378 1403 2484 
z
M 1172 3481 
Q 1172 3119 1398 2916 
Q 1625 2713 2034 2713 
Q 2441 2713 2670 2916 
Q 2900 3119 2900 3481 
Q 2900 3844 2670 4047 
Q 2441 4250 2034 4250 
Q 1625 4250 1398 4047 
Q 1172 3844 1172 3481 
z
" transform="scale(0.015625)"/>
       </defs>
       <use xlink:href="#DejaVuSans-30"/>
       <use xlink:href="#DejaVuSans-2e" x="63.623047"/>
       <use xlink:href="#DejaVuSans-38" x="95.410156"/>
      </g>
     </g>
    </g>
    <g id="ytick_7">
     <g id="line2d_13">
      <g>
       <use xlink:href="#m230a5edaf8" x="314.9184" y="123.7296" style="stroke: #000000; stroke-width: 0.8"/>
      </g>
     </g>
     <g id="text_14">
      <!-- 0.9 -->
      <g transform="translate(292.015275 127.528819)scale(0.1 -0.1)">
       <defs>
        <path id="DejaVuSans-39" d="M 703 97 
L 703 672 
Q 941 559 1184 500 
Q 1428 441 1663 441 
Q 2288 441 2617 861 
Q 2947 1281 2994 2138 
Q 2813 1869 2534 1725 
Q 2256 1581 1919 1581 
Q 1219 1581 811 2004 
Q 403 2428 403 3163 
Q 403 3881 828 4315 
Q 1253 4750 1959 4750 
Q 2769 4750 3195 4129 
Q 3622 3509 3622 2328 
Q 3622 1225 3098 567 
Q 2575 -91 1691 -91 
Q 1453 -91 1209 -44 
Q 966 3 703 97 
z
M 1959 2075 
Q 2384 2075 2632 2365 
Q 2881 2656 2881 3163 
Q 2881 3666 2632 3958 
Q 2384 4250 1959 4250 
Q 1534 4250 1286 3958 
Q 1038 3666 1038 3163 
Q 1038 2656 1286 2365 
Q 1534 2075 1959 2075 
z
" transform="scale(0.015625)"/>
       </defs>
       <use xlink:href="#DejaVuSans-30"/>
       <use xlink:href="#DejaVuSans-2e" x="63.623047"/>
       <use xlink:href="#DejaVuSans-39" x="95.410156"/>
      </g>
     </g>
    </g>
    <g id="ytick_8">
     <g id="line2d_14">
      <g>
       <use xlink:href="#m230a5edaf8" x="314.9184" y="77.2272" style="stroke: #000000; stroke-width: 0.8"/>
      </g>
     </g>
     <g id="text_15">
      <!-- 1.0 -->
      <g transform="translate(292.015275 81.026419)scale(0.1 -0.1)">
       <use xlink:href="#DejaVuSans-31"/>
       <use xlink:href="#DejaVuSans-2e" x="63.623047"/>
       <use xlink:href="#DejaVuSans-30" x="95.410156"/>
      </g>
     </g>
    </g>
    <g id="text_16">
     <!-- y -->
     <g transform="translate(285.935587 254.570575)rotate(-90)scale(0.1 -0.1)">
      <defs>
       <path id="DejaVuSans-79" d="M 2059 -325 
Q 1816 -950 1584 -1140 
Q 1353 -1331 966 -1331 
L 506 -1331 
L 506 -850 
L 844 -850 
Q 1081 -850 1212 -737 
Q 1344 -625 1503 -206 
L 1606 56 
L 191 3500 
L 800 3500 
L 1894 763 
L 2988 3500 
L 3597 3500 
L 2059 -325 
z
" transform="scale(0.015625)"/>
      </defs>
      <use xlink:href="#DejaVuSans-79"/>
     </g>
    </g>
   </g>
   <g id="line2d_15">
    <path d="M 559.056 425.9952 
L 559.056 367.8672 
L 500.928 367.8672 
L 500.928 425.9952 
L 559.056 425.9952 
" clip-path="url(#pb4fbd62025)" style="fill: none; stroke: #252525; stroke-width: 3; stroke-linecap: square"/>
   </g>
   <g id="line2d_16">
    <path d="M 559.056 367.8672 
L 559.056 309.7392 
L 500.928 309.7392 
L 500.928 367.8672 
L 559.056 367.8672 
" clip-path="url(#pb4fbd62025)" style="fill: none; stroke: #252525; stroke-width: 3; stroke-linecap: square"/>
   </g>
   <g id="line2d_17">
    <path d="M 500.928 367.8672 
L 500.928 309.7392 
L 442.8 309.7392 
L 442.8 367.8672 
L 500.928 367.8672 
" clip-path="url(#pb4fbd62025)" style="fill: none; stroke: #252525; stroke-width: 3; stroke-linecap: square"/>
   </g>
   <g id="line2d_18">
    <path d="M 442.8 367.8672 
L 442.8 309.7392 
L 384.672 309.7392 
L 384.672 367.8672 
L 442.8 367.8672 
" clip-path="url(#pb4fbd62025)" style="fill: none; stroke: #252525; stroke-width: 3; stroke-linecap: square"/>
   </g>
   <g id="line2d_19">
    <path d="M 442.8 425.9952 
L 442.8 367.8672 
L 384.672 367.8672 
L 384.672 425.9952 
L 442.8 425.9952 
" clip-path="url(#pb4fbd62025)" style="fill: none; stroke: #252525; stroke-width: 3; stroke-linecap: square"/>
   </g>
   <g id="line2d_20">
    <path d="M 384.672 425.9952 
L 384.672 367.8672 
L 326.544 367.8672 
L 326.544 425.9952 
L 384.672 425.9952 
" clip-path="url(#pb4fbd62025)" style="fill: none; stroke: #252525; stroke-width: 3; stroke-linecap: square"/>
   </g>
   <g id="line2d_21">
    <path d="M 384.672 367.8672 
L 384.672 309.7392 
L 326.544 309.7392 
L 326.544 367.8672 
L 384.672 367.8672 
" clip-path="url(#pb4fbd62025)" style="fill: none; stroke: #252525; stroke-width: 3; stroke-linecap: square"/>
   </g>
   <g id="line2d_22">
    <path d="M 384.672 309.7392 
L 384.672 251.6112 
L 326.544 251.6112 
L 326.544 309.7392 
L 384.672 309.7392 
" clip-path="url(#pb4fbd62025)" style="fill: none; stroke: #252525; stroke-width: 3; stroke-linecap: square"/>
   </g>
   <g id="line2d_23">
    <path d="M 442.8 309.7392 
L 442.8 251.6112 
L 384.672 251.6112 
L 384.672 309.7392 
L 442.8 309.7392 
" clip-path="url(#pb4fbd62025)" style="fill: none; stroke: #252525; stroke-width: 3; stroke-linecap: square"/>
   </g>
   <g id="line2d_24">
    <path d="M 442.8 303.9264 
L 442.8 257.424 
" clip-path="url(#pb4fbd62025)" style="fill: none; stroke: #569cd6; stroke-linecap: square"/>
   </g>
   <g id="line2d_25">
    <path d="M 332.3568 309.7392 
L 378.8592 309.7392 
" clip-path="url(#pb4fbd62025)" style="fill: none; stroke: #569cd6; stroke-linecap: square"/>
   </g>
   <g id="line2d_26">
    <path d="M 436.9872 251.6112 
L 390.4848 251.6112 
" clip-path="url(#pb4fbd62025)" style="fill: none; stroke: #569cd6; stroke-linecap: square"/>
   </g>
   <g id="line2d_27">
    <path d="M 332.3568 251.6112 
L 378.8592 251.6112 
" clip-path="url(#pb4fbd62025)" style="fill: none; stroke: #569cd6; stroke-linecap: square"/>
   </g>
   <g id="line2d_28">
    <path d="M 384.672 303.9264 
L 384.672 257.424 
" clip-path="url(#pb4fbd62025)" style="fill: none; stroke: #569cd6; stroke-linecap: square"/>
   </g>
   <g id="line2d_29">
    <path d="M 326.544 257.424 
L 326.544 303.9264 
" clip-path="url(#pb4fbd62025)" style="fill: none; stroke: #569cd6; stroke-linecap: square"/>
   </g>
   <g id="line2d_30">
    <path d="M 390.4848 309.7392 
L 436.9872 309.7392 
" clip-path="url(#pb4fbd62025)" style="fill: none; stroke: #569cd6; stroke-linecap: square"/>
   </g>
   <g id="line2d_31">
    <path d="M 559.056 420.1824 
L 559.056 373.68 
" clip-path="url(#pb4fbd62025)" style="fill: none; stroke: #569cd6; stroke-linecap: square"/>
   </g>
   <g id="line2d_32">
    <path d="M 553.2432 367.8672 
L 506.7408 367.8672 
" clip-path="url(#pb4fbd62025)" style="fill: none; stroke: #569cd6; stroke-linecap: square"/>
   </g>
   <g id="line2d_33">
    <path d="M 500.928 373.68 
L 500.928 420.1824 
" clip-path="url(#pb4fbd62025)" style="fill: none; stroke: #569cd6; stroke-linecap: square"/>
   </g>
   <g id="line2d_34">
    <path d="M 506.7408 425.9952 
L 553.2432 425.9952 
" clip-path="url(#pb4fbd62025)" style="fill: none; stroke: #569cd6; stroke-linecap: square"/>
   </g>
   <g id="line2d_35">
    <path d="M 559.056 362.0544 
L 559.056 315.552 
" clip-path="url(#pb4fbd62025)" style="fill: none; stroke: #569cd6; stroke-linecap: square"/>
   </g>
   <g id="line2d_36">
    <path d="M 553.2432 309.7392 
L 506.7408 309.7392 
" clip-path="url(#pb4fbd62025)" style="fill: none; stroke: #569cd6; stroke-linecap: square"/>
   </g>
   <g id="line2d_37">
    <path d="M 500.928 315.552 
L 500.928 362.0544 
" clip-path="url(#pb4fbd62025)" style="fill: none; stroke: #569cd6; stroke-linecap: square"/>
   </g>
   <g id="line2d_38">
    <path d="M 495.1152 309.7392 
L 448.6128 309.7392 
" clip-path="url(#pb4fbd62025)" style="fill: none; stroke: #569cd6; stroke-linecap: square"/>
   </g>
   <g id="line2d_39">
    <path d="M 442.8 315.552 
L 442.8 362.0544 
" clip-path="url(#pb4fbd62025)" style="fill: none; stroke: #569cd6; stroke-linecap: square"/>
   </g>
   <g id="line2d_40">
    <path d="M 448.6128 367.8672 
L 495.1152 367.8672 
" clip-path="url(#pb4fbd62025)" style="fill: none; stroke: #569cd6; stroke-linecap: square"/>
   </g>
   <g id="line2d_41">
    <path d="M 384.672 315.552 
L 384.672 362.0544 
" clip-path="url(#pb4fbd62025)" style="fill: none; stroke: #569cd6; stroke-linecap: square"/>
   </g>
   <g id="line2d_42">
    <path d="M 390.4848 367.8672 
L 436.9872 367.8672 
" clip-path="url(#pb4fbd62025)" style="fill: none; stroke: #569cd6; stroke-linecap: square"/>
   </g>
   <g id="line2d_43">
    <path d="M 442.8 420.1824 
L 442.8 373.68 
" clip-path="url(#pb4fbd62025)" style="fill: none; stroke: #569cd6; stroke-linecap: square"/>
   </g>
   <g id="line2d_44">
    <path d="M 384.672 373.68 
L 384.672 420.1824 
" clip-path="url(#pb4fbd62025)" style="fill: none; stroke: #569cd6; stroke-linecap: square"/>
   </g>
   <g id="line2d_45">
    <path d="M 390.4848 425.9952 
L 436.9872 425.9952 
" clip-path="url(#pb4fbd62025)" style="fill: none; stroke: #569cd6; stroke-linecap: square"/>
   </g>
   <g id="line2d_46">
    <path d="M 378.8592 367.8672 
L 332.3568 367.8672 
" clip-path="url(#pb4fbd62025)" style="fill: none; stroke: #569cd6; stroke-linecap: square"/>
   </g>
   <g id="line2d_47">
    <path d="M 326.544 373.68 
L 326.544 420.1824 
" clip-path="url(#pb4fbd62025)" style="fill: none; stroke: #569cd6; stroke-linecap: square"/>
   </g>
   <g id="line2d_48">
    <path d="M 332.3568 425.9952 
L 378.8592 425.9952 
" clip-path="url(#pb4fbd62025)" style="fill: none; stroke: #569cd6; stroke-linecap: square"/>
   </g>
   <g id="line2d_49">
    <path d="M 326.544 315.552 
L 326.544 362.0544 
" clip-path="url(#pb4fbd62025)" style="fill: none; stroke: #569cd6; stroke-linecap: square"/>
   </g>
   <g id="line2d_50">
    <defs>
     <path id="m5002bf40cc" d="M 0 3 
C 0.795609 3 1.55874 2.683901 2.12132 2.12132 
C 2.683901 1.55874 3 0.795609 3 0 
C 3 -0.795609 2.683901 -1.55874 2.12132 -2.12132 
C 1.55874 -2.683901 0.795609 -3 0 -3 
C -0.795609 -3 -1.55874 -2.683901 -2.12132 -2.12132 
C -2.683901 -1.55874 -3 -0.795609 -3 0 
C -3 0.795609 -2.683901 1.55874 -2.12132 2.12132 
C -1.55874 2.683901 -0.795609 3 0 3 
z
" style="stroke: #c586c0"/>
    </defs>
    <g clip-path="url(#pb4fbd62025)">
     <use xlink:href="#m5002bf40cc" x="326.544" y="309.7392" style="fill: #c586c0; stroke: #c586c0"/>
     <use xlink:href="#m5002bf40cc" x="326.544" y="193.4832" style="fill: #c586c0; stroke: #c586c0"/>
     <use xlink:href="#m5002bf40cc" x="326.544" y="77.2272" style="fill: #c586c0; stroke: #c586c0"/>
     <use xlink:href="#m5002bf40cc" x="442.8" y="309.7392" style="fill: #c586c0; stroke: #c586c0"/>
     <use xlink:href="#m5002bf40cc" x="442.8" y="193.4832" style="fill: #c586c0; stroke: #c586c0"/>
     <use xlink:href="#m5002bf40cc" x="442.8" y="77.2272" style="fill: #c586c0; stroke: #c586c0"/>
     <use xlink:href="#m5002bf40cc" x="559.056" y="309.7392" style="fill: #c586c0; stroke: #c586c0"/>
     <use xlink:href="#m5002bf40cc" x="559.056" y="193.4832" style="fill: #c586c0; stroke: #c586c0"/>
     <use xlink:href="#m5002bf40cc" x="559.056" y="77.2272" style="fill: #c586c0; stroke: #c586c0"/>
     <use xlink:href="#m5002bf40cc" x="384.672" y="251.6112" style="fill: #c586c0; stroke: #c586c0"/>
     <use xlink:href="#m5002bf40cc" x="442.8" y="251.6112" style="fill: #c586c0; stroke: #c586c0"/>
     <use xlink:href="#m5002bf40cc" x="384.672" y="193.4832" style="fill: #c586c0; stroke: #c586c0"/>
     <use xlink:href="#m5002bf40cc" x="326.544" y="251.6112" style="fill: #c586c0; stroke: #c586c0"/>
     <use xlink:href="#m5002bf40cc" x="384.672" y="309.7392" style="fill: #c586c0; stroke: #c586c0"/>
     <use xlink:href="#m5002bf40cc" x="500.928" y="309.7392" style="fill: #c586c0; stroke: #c586c0"/>
     <use xlink:href="#m5002bf40cc" x="559.056" y="425.9952" style="fill: #c586c0; stroke: #c586c0"/>
     <use xlink:href="#m5002bf40cc" x="559.056" y="367.8672" style="fill: #c586c0; stroke: #c586c0"/>
     <use xlink:href="#m5002bf40cc" x="500.928" y="367.8672" style="fill: #c586c0; stroke: #c586c0"/>
     <use xlink:href="#m5002bf40cc" x="500.928" y="425.9952" style="fill: #c586c0; stroke: #c586c0"/>
     <use xlink:href="#m5002bf40cc" x="442.8" y="367.8672" style="fill: #c586c0; stroke: #c586c0"/>
     <use xlink:href="#m5002bf40cc" x="384.672" y="367.8672" style="fill: #c586c0; stroke: #c586c0"/>
     <use xlink:href="#m5002bf40cc" x="442.8" y="425.9952" style="fill: #c586c0; stroke: #c586c0"/>
     <use xlink:href="#m5002bf40cc" x="384.672" y="425.9952" style="fill: #c586c0; stroke: #c586c0"/>
     <use xlink:href="#m5002bf40cc" x="326.544" y="367.8672" style="fill: #c586c0; stroke: #c586c0"/>
     <use xlink:href="#m5002bf40cc" x="326.544" y="425.9952" style="fill: #c586c0; stroke: #c586c0"/>
    </g>
   </g>
   <g id="patch_3">
    <path d="M 314.9184 443.4336 
L 314.9184 59.7888 
" style="fill: none; stroke: #000000; stroke-width: 0.8; stroke-linejoin: miter; stroke-linecap: square"/>
   </g>
   <g id="patch_4">
    <path d="M 570.6816 443.4336 
L 570.6816 59.7888 
" style="fill: none; stroke: #000000; stroke-width: 0.8; stroke-linejoin: miter; stroke-linecap: square"/>
   </g>
   <g id="patch_5">
    <path d="M 314.9184 443.4336 
L 570.6816 443.4336 
" style="fill: none; stroke: #000000; stroke-width: 0.8; stroke-linejoin: miter; stroke-linecap: square"/>
   </g>
   <g id="patch_6">
    <path d="M 314.9184 59.7888 
L 570.6816 59.7888 
" style="fill: none; stroke: #000000; stroke-width: 0.8; stroke-linejoin: miter; stroke-linecap: square"/>
   </g>
   <g id="text_17">
    <!-- 0 -->
    <g style="fill: #252525" transform="translate(525.792 400.616044)scale(0.14 -0.14)">
     <defs>
      <path id="FiraCode-Regular-30" d="M 1920 4477 
Q 2630 4477 2996 3888 
Q 3363 3299 3363 2205 
Q 3363 1107 2996 516 
Q 2630 -74 1920 -74 
Q 1210 -74 843 516 
Q 477 1107 477 2205 
Q 477 3299 843 3888 
Q 1210 4477 1920 4477 
z
M 1920 4045 
Q 1514 4045 1280 3614 
Q 1046 3184 1046 2205 
Q 1046 1472 1158 1053 
L 2506 3760 
Q 2304 4045 1920 4045 
z
M 2797 2205 
Q 2797 2944 2682 3360 
L 1341 643 
Q 1542 362 1920 362 
Q 2330 362 2563 794 
Q 2797 1226 2797 2205 
z
" transform="scale(0.015625)"/>
     </defs>
     <use xlink:href="#FiraCode-Regular-30"/>
    </g>
   </g>
   <g id="text_18">
    <!-- 1 -->
    <g style="fill: #252525" transform="translate(525.792 342.488044)scale(0.14 -0.14)">
     <defs>
      <path id="FiraCode-Regular-31" d="M 3312 438 
L 3312 0 
L 768 0 
L 768 438 
L 1853 438 
L 1853 3824 
L 842 3210 
L 608 3594 
L 1920 4406 
L 2390 4406 
L 2390 438 
L 3312 438 
z
" transform="scale(0.015625)"/>
     </defs>
     <use xlink:href="#FiraCode-Regular-31"/>
    </g>
   </g>
   <g id="text_19">
    <!-- 2 -->
    <g style="fill: #252525" transform="translate(467.664 342.488044)scale(0.14 -0.14)">
     <defs>
      <path id="FiraCode-Regular-32" d="M 1725 4477 
Q 2141 4477 2438 4315 
Q 2736 4154 2894 3875 
Q 3053 3597 3053 3248 
Q 3053 2944 2947 2654 
Q 2842 2365 2610 2046 
Q 2378 1728 2000 1341 
Q 1622 954 1078 458 
L 3155 458 
L 3088 0 
L 467 0 
L 467 438 
Q 1091 1037 1486 1449 
Q 1882 1862 2099 2161 
Q 2317 2461 2401 2710 
Q 2486 2960 2486 3229 
Q 2486 3600 2278 3814 
Q 2070 4029 1699 4029 
Q 1373 4029 1165 3917 
Q 957 3805 749 3558 
L 378 3846 
Q 640 4166 958 4321 
Q 1277 4477 1725 4477 
z
" transform="scale(0.015625)"/>
     </defs>
     <use xlink:href="#FiraCode-Regular-32"/>
    </g>
   </g>
   <g id="text_20">
    <!-- 3 -->
    <g style="fill: #252525" transform="translate(409.536 342.488044)scale(0.14 -0.14)">
     <defs>
      <path id="FiraCode-Regular-33" d="M 1718 4477 
Q 2134 4477 2438 4326 
Q 2742 4176 2907 3926 
Q 3072 3677 3072 3376 
Q 3072 3107 2953 2891 
Q 2835 2675 2640 2534 
Q 2445 2394 2211 2349 
Q 2470 2330 2699 2203 
Q 2928 2077 3070 1843 
Q 3213 1610 3213 1270 
Q 3213 890 3021 584 
Q 2829 278 2485 102 
Q 2141 -74 1683 -74 
Q 1312 -74 947 67 
Q 582 208 330 515 
L 691 810 
Q 880 589 1141 480 
Q 1402 371 1670 371 
Q 2131 371 2390 612 
Q 2650 854 2650 1270 
Q 2650 1741 2389 1923 
Q 2128 2106 1738 2106 
L 1366 2106 
L 1434 2531 
L 1693 2531 
Q 1907 2531 2097 2614 
Q 2288 2698 2409 2867 
Q 2531 3037 2531 3299 
Q 2531 3664 2288 3856 
Q 2045 4048 1699 4048 
Q 1411 4048 1196 3947 
Q 982 3846 765 3642 
L 467 3971 
Q 749 4237 1065 4357 
Q 1382 4477 1718 4477 
z
" transform="scale(0.015625)"/>
     </defs>
     <use xlink:href="#FiraCode-Regular-33"/>
    </g>
   </g>
   <g id="text_21">
    <!-- 4 -->
    <g style="fill: #252525" transform="translate(409.536 400.616044)scale(0.14 -0.14)">
     <defs>
      <path id="FiraCode-Regular-34" d="M 2813 2752 
L 2813 1501 
L 3382 1501 
L 3382 1072 
L 2813 1072 
L 2813 0 
L 2294 0 
L 2291 1072 
L 461 1072 
L 461 1462 
L 1754 4477 
L 2202 4288 
L 1030 1501 
L 2294 1501 
L 2365 2752 
L 2813 2752 
z
" transform="scale(0.015625)"/>
     </defs>
     <use xlink:href="#FiraCode-Regular-34"/>
    </g>
   </g>
   <g id="text_22">
    <!-- 5 -->
    <g style="fill: #252525" transform="translate(351.408 400.616044)scale(0.14 -0.14)">
     <defs>
      <path id="FiraCode-Regular-35" d="M 3117 4406 
L 3037 3978 
L 1296 3978 
L 1296 2589 
Q 1498 2694 1678 2736 
Q 1859 2778 2058 2778 
Q 2595 2778 2928 2416 
Q 3261 2054 3261 1395 
Q 3261 954 3077 624 
Q 2893 294 2558 110 
Q 2224 -74 1770 -74 
Q 1373 -74 1061 67 
Q 749 208 493 458 
L 826 778 
Q 1219 371 1776 371 
Q 2211 371 2454 635 
Q 2698 899 2698 1411 
Q 2698 1766 2592 1971 
Q 2486 2176 2305 2264 
Q 2125 2352 1904 2352 
Q 1709 2352 1558 2313 
Q 1408 2275 1216 2205 
L 784 2205 
L 784 4406 
L 3117 4406 
z
" transform="scale(0.015625)"/>
     </defs>
     <use xlink:href="#FiraCode-Regular-35"/>
    </g>
   </g>
   <g id="text_23">
    <!-- 6 -->
    <g style="fill: #252525" transform="translate(351.408 342.488044)scale(0.14 -0.14)">
     <defs>
      <path id="FiraCode-Regular-36" d="M 2147 4477 
Q 2400 4477 2616 4411 
Q 2832 4346 3018 4221 
L 2806 3856 
Q 2499 4042 2138 4042 
Q 1629 4042 1347 3562 
Q 1066 3082 1046 2275 
Q 1258 2589 1522 2729 
Q 1786 2870 2109 2870 
Q 2448 2870 2733 2718 
Q 3018 2566 3187 2259 
Q 3357 1952 3357 1482 
Q 3357 995 3169 646 
Q 2982 298 2667 112 
Q 2352 -74 1971 -74 
Q 1437 -74 1115 192 
Q 794 458 651 942 
Q 509 1427 509 2083 
Q 509 2813 702 3350 
Q 896 3888 1264 4182 
Q 1632 4477 2147 4477 
z
M 2026 2429 
Q 1709 2429 1462 2256 
Q 1216 2083 1053 1805 
Q 1069 1059 1285 710 
Q 1501 362 1968 362 
Q 2387 362 2596 658 
Q 2806 954 2806 1469 
Q 2806 2010 2592 2219 
Q 2378 2429 2026 2429 
z
" transform="scale(0.015625)"/>
     </defs>
     <use xlink:href="#FiraCode-Regular-36"/>
    </g>
   </g>
   <g id="text_24">
    <!-- 7 -->
    <g style="fill: #252525" transform="translate(351.408 284.360044)scale(0.14 -0.14)">
     <defs>
      <path id="FiraCode-Regular-37" d="M 1475 -61 
L 973 93 
L 2691 3958 
L 624 3958 
L 624 4406 
L 3232 4406 
L 3232 3994 
L 1475 -61 
z
" transform="scale(0.015625)"/>
     </defs>
     <use xlink:href="#FiraCode-Regular-37"/>
    </g>
   </g>
   <g id="text_25">
    <!-- 8 -->
    <g style="fill: #252525" transform="translate(409.536 284.360044)scale(0.14 -0.14)">
     <defs>
      <path id="FiraCode-Regular-38" d="M 3242 3357 
Q 3242 3034 3043 2800 
Q 2845 2566 2477 2365 
Q 2909 2186 3165 1886 
Q 3421 1587 3421 1181 
Q 3421 822 3235 537 
Q 3050 253 2710 89 
Q 2371 -74 1907 -74 
Q 1437 -74 1104 91 
Q 771 256 595 537 
Q 419 819 419 1171 
Q 419 1578 660 1856 
Q 902 2134 1302 2320 
Q 954 2486 776 2723 
Q 598 2960 598 3328 
Q 598 3632 721 3849 
Q 845 4067 1041 4206 
Q 1238 4346 1470 4411 
Q 1702 4477 1920 4477 
Q 2240 4477 2544 4360 
Q 2848 4243 3045 3995 
Q 3242 3747 3242 3357 
z
M 1130 3322 
Q 1130 3069 1246 2923 
Q 1363 2778 1580 2686 
Q 1798 2595 2096 2499 
Q 2403 2672 2556 2854 
Q 2710 3037 2710 3338 
Q 2710 3670 2504 3865 
Q 2298 4061 1920 4061 
Q 1546 4061 1338 3865 
Q 1130 3670 1130 3322 
z
M 2854 1174 
Q 2854 1472 2704 1645 
Q 2554 1818 2288 1933 
Q 2022 2048 1674 2166 
Q 1402 2042 1194 1813 
Q 986 1584 986 1168 
Q 986 794 1216 578 
Q 1446 362 1904 362 
Q 2365 362 2609 594 
Q 2854 826 2854 1174 
z
" transform="scale(0.015625)"/>
     </defs>
     <use xlink:href="#FiraCode-Regular-38"/>
    </g>
   </g>
   <g id="text_26">
    <!-- 0 -->
    <g style="fill: #569cd6" transform="translate(445.6128 283.307231)scale(0.1 -0.1)">
     <use xlink:href="#FiraCode-Regular-30"/>
    </g>
   </g>
   <g id="text_27">
    <!-- 1 -->
    <g style="fill: #569cd6" transform="translate(352.608 318.184031)scale(0.1 -0.1)">
     <use xlink:href="#FiraCode-Regular-31"/>
    </g>
   </g>
   <g id="text_28">
    <!-- 2 -->
    <g style="fill: #569cd6" transform="translate(410.736 248.430431)scale(0.1 -0.1)">
     <use xlink:href="#FiraCode-Regular-32"/>
    </g>
   </g>
   <g id="text_29">
    <!-- 3 -->
    <g style="fill: #569cd6" transform="translate(352.608 260.056031)scale(0.1 -0.1)">
     <use xlink:href="#FiraCode-Regular-33"/>
    </g>
   </g>
   <g id="text_30">
    <!-- 4 -->
    <g style="fill: #569cd6" transform="translate(387.4848 283.307231)scale(0.1 -0.1)">
     <use xlink:href="#FiraCode-Regular-34"/>
    </g>
   </g>
   <g id="text_31">
    <!-- 5 -->
    <g style="fill: #569cd6" transform="translate(317.7312 283.307231)scale(0.1 -0.1)">
     <use xlink:href="#FiraCode-Regular-35"/>
    </g>
   </g>
   <g id="text_32">
    <!-- 6 -->
    <g style="fill: #569cd6" transform="translate(410.736 318.184031)scale(0.1 -0.1)">
     <use xlink:href="#FiraCode-Regular-36"/>
    </g>
   </g>
   <g id="text_33">
    <!-- 7 -->
    <g style="fill: #569cd6" transform="translate(561.8688 399.563231)scale(0.1 -0.1)">
     <use xlink:href="#FiraCode-Regular-37"/>
    </g>
   </g>
   <g id="text_34">
    <!-- 8 -->
    <g style="fill: #569cd6" transform="translate(526.992 364.686431)scale(0.1 -0.1)">
     <use xlink:href="#FiraCode-Regular-38"/>
    </g>
   </g>
   <g id="text_35">
    <!-- 9 -->
    <g style="fill: #569cd6" transform="translate(492.1152 399.563231)scale(0.1 -0.1)">
     <defs>
      <path id="FiraCode-Regular-39" d="M 1853 4470 
Q 2573 4470 2931 3984 
Q 3290 3498 3290 2669 
Q 3290 2000 3154 1539 
Q 3018 1078 2733 768 
Q 2448 458 2003 246 
Q 1558 35 941 -134 
L 816 275 
Q 1427 445 1838 678 
Q 2250 912 2467 1265 
Q 2685 1619 2717 2141 
Q 2525 1907 2272 1761 
Q 2019 1616 1686 1616 
Q 1318 1616 1035 1784 
Q 752 1952 589 2267 
Q 426 2582 426 3024 
Q 426 3494 618 3817 
Q 810 4141 1133 4305 
Q 1456 4470 1853 4470 
z
M 982 3005 
Q 982 2499 1195 2272 
Q 1408 2045 1786 2045 
Q 2083 2045 2308 2198 
Q 2534 2352 2730 2618 
Q 2720 3395 2505 3715 
Q 2291 4035 1853 4035 
Q 982 4035 982 3005 
z
" transform="scale(0.015625)"/>
     </defs>
     <use xlink:href="#FiraCode-Regular-39"/>
    </g>
   </g>
   <g id="text_36">
    <!-- 10 -->
    <g style="fill: #569cd6" transform="translate(523.992 434.440031)scale(0.1 -0.1)">
     <use xlink:href="#FiraCode-Regular-31"/>
     <use xlink:href="#FiraCode-Regular-30" x="60.000015"/>
    </g>
   </g>
   <g id="text_37">
    <!-- 11 -->
    <g style="fill: #569cd6" transform="translate(558.8688 341.435231)scale(0.1 -0.1)">
     <use xlink:href="#FiraCode-Regular-31"/>
     <use xlink:href="#FiraCode-Regular-31" x="60.000015"/>
    </g>
   </g>
   <g id="text_38">
    <!-- 12 -->
    <g style="fill: #569cd6" transform="translate(523.992 306.558431)scale(0.1 -0.1)">
     <use xlink:href="#FiraCode-Regular-31"/>
     <use xlink:href="#FiraCode-Regular-32" x="60.000015"/>
    </g>
   </g>
   <g id="text_39">
    <!-- 13 -->
    <g style="fill: #569cd6" transform="translate(489.1152 341.435231)scale(0.1 -0.1)">
     <use xlink:href="#FiraCode-Regular-31"/>
     <use xlink:href="#FiraCode-Regular-33" x="60.000015"/>
    </g>
   </g>
   <g id="text_40">
    <!-- 14 -->
    <g style="fill: #569cd6" transform="translate(465.864 306.558431)scale(0.1 -0.1)">
     <use xlink:href="#FiraCode-Regular-31"/>
     <use xlink:href="#FiraCode-Regular-34" x="60.000015"/>
    </g>
   </g>
   <g id="text_41">
    <!-- 15 -->
    <g style="fill: #569cd6" transform="translate(430.9872 341.435231)scale(0.1 -0.1)">
     <use xlink:href="#FiraCode-Regular-31"/>
     <use xlink:href="#FiraCode-Regular-35" x="60.000015"/>
    </g>
   </g>
   <g id="text_42">
    <!-- 16 -->
    <g style="fill: #569cd6" transform="translate(465.864 376.312031)scale(0.1 -0.1)">
     <use xlink:href="#FiraCode-Regular-31"/>
     <use xlink:href="#FiraCode-Regular-36" x="60.000015"/>
    </g>
   </g>
   <g id="text_43">
    <!-- 17 -->
    <g style="fill: #569cd6" transform="translate(372.8592 341.435231)scale(0.1 -0.1)">
     <use xlink:href="#FiraCode-Regular-31"/>
     <use xlink:href="#FiraCode-Regular-37" x="60.000015"/>
    </g>
   </g>
   <g id="text_44">
    <!-- 18 -->
    <g style="fill: #569cd6" transform="translate(407.736 376.312031)scale(0.1 -0.1)">
     <use xlink:href="#FiraCode-Regular-31"/>
     <use xlink:href="#FiraCode-Regular-38" x="60.000015"/>
    </g>
   </g>
   <g id="text_45">
    <!-- 19 -->
    <g style="fill: #569cd6" transform="translate(442.6128 399.563231)scale(0.1 -0.1)">
     <use xlink:href="#FiraCode-Regular-31"/>
     <use xlink:href="#FiraCode-Regular-39" x="60.000015"/>
    </g>
   </g>
   <g id="text_46">
    <!-- 20 -->
    <g style="fill: #569cd6" transform="translate(372.8592 399.563231)scale(0.1 -0.1)">
     <use xlink:href="#FiraCode-Regular-32"/>
     <use xlink:href="#FiraCode-Regular-30" x="60.000015"/>
    </g>
   </g>
   <g id="text_47">
    <!-- 21 -->
    <g style="fill: #569cd6" transform="translate(407.736 434.440031)scale(0.1 -0.1)">
     <use xlink:href="#FiraCode-Regular-32"/>
     <use xlink:href="#FiraCode-Regular-31" x="60.000015"/>
    </g>
   </g>
   <g id="text_48">
    <!-- 22 -->
    <g style="fill: #569cd6" transform="translate(349.608 364.686431)scale(0.1 -0.1)">
     <use xlink:href="#FiraCode-Regular-32"/>
     <use xlink:href="#FiraCode-Regular-32" x="60.000015"/>
    </g>
   </g>
   <g id="text_49">
    <!-- 23 -->
    <g style="fill: #569cd6" transform="translate(314.7312 399.563231)scale(0.1 -0.1)">
     <use xlink:href="#FiraCode-Regular-32"/>
     <use xlink:href="#FiraCode-Regular-33" x="60.000015"/>
    </g>
   </g>
   <g id="text_50">
    <!-- 24 -->
    <g style="fill: #569cd6" transform="translate(349.608 434.440031)scale(0.1 -0.1)">
     <use xlink:href="#FiraCode-Regular-32"/>
     <use xlink:href="#FiraCode-Regular-34" x="60.000015"/>
    </g>
   </g>
   <g id="text_51">
    <!-- 25 -->
    <g style="fill: #569cd6" transform="translate(314.7312 341.435231)scale(0.1 -0.1)">
     <use xlink:href="#FiraCode-Regular-32"/>
     <use xlink:href="#FiraCode-Regular-35" x="60.000015"/>
    </g>
   </g>
   <g id="text_52">
    <!-- 0 -->
    <g style="fill: #c586c0" transform="translate(317.01888 320.92557)scale(0.12 -0.12)">
     <use xlink:href="#FiraCode-Regular-30"/>
    </g>
   </g>
   <g id="text_53">
    <!-- 1 -->
    <g style="fill: #c586c0" transform="translate(317.01888 204.66957)scale(0.12 -0.12)">
     <use xlink:href="#FiraCode-Regular-31"/>
    </g>
   </g>
   <g id="text_54">
    <!-- 2 -->
    <g style="fill: #c586c0" transform="translate(317.01888 88.41357)scale(0.12 -0.12)">
     <use xlink:href="#FiraCode-Regular-32"/>
    </g>
   </g>
   <g id="text_55">
    <!-- 3 -->
    <g style="fill: #c586c0" transform="translate(433.27488 320.92557)scale(0.12 -0.12)">
     <use xlink:href="#FiraCode-Regular-33"/>
    </g>
   </g>
   <g id="text_56">
    <!-- 4 -->
    <g style="fill: #c586c0" transform="translate(433.27488 204.66957)scale(0.12 -0.12)">
     <use xlink:href="#FiraCode-Regular-34"/>
    </g>
   </g>
   <g id="text_57">
    <!-- 5 -->
    <g style="fill: #c586c0" transform="translate(433.27488 88.41357)scale(0.12 -0.12)">
     <use xlink:href="#FiraCode-Regular-35"/>
    </g>
   </g>
   <g id="text_58">
    <!-- 6 -->
    <g style="fill: #c586c0" transform="translate(549.53088 320.92557)scale(0.12 -0.12)">
     <use xlink:href="#FiraCode-Regular-36"/>
    </g>
   </g>
   <g id="text_59">
    <!-- 7 -->
    <g style="fill: #c586c0" transform="translate(549.53088 204.66957)scale(0.12 -0.12)">
     <use xlink:href="#FiraCode-Regular-37"/>
    </g>
   </g>
   <g id="text_60">
    <!-- 8 -->
    <g style="fill: #c586c0" transform="translate(549.53088 88.41357)scale(0.12 -0.12)">
     <use xlink:href="#FiraCode-Regular-38"/>
    </g>
   </g>
   <g id="text_61">
    <!-- 9 -->
    <g style="fill: #c586c0" transform="translate(375.14688 262.79757)scale(0.12 -0.12)">
     <use xlink:href="#FiraCode-Regular-39"/>
    </g>
   </g>
   <g id="text_62">
    <!-- 10 -->
    <g style="fill: #c586c0" transform="translate(426.07488 262.79757)scale(0.12 -0.12)">
     <use xlink:href="#FiraCode-Regular-31"/>
     <use xlink:href="#FiraCode-Regular-30" x="60.000015"/>
    </g>
   </g>
   <g id="text_63">
    <!-- 11 -->
    <g style="fill: #c586c0" transform="translate(367.94688 204.66957)scale(0.12 -0.12)">
     <use xlink:href="#FiraCode-Regular-31"/>
     <use xlink:href="#FiraCode-Regular-31" x="60.000015"/>
    </g>
   </g>
   <g id="text_64">
    <!-- 12 -->
    <g style="fill: #c586c0" transform="translate(309.81888 262.79757)scale(0.12 -0.12)">
     <use xlink:href="#FiraCode-Regular-31"/>
     <use xlink:href="#FiraCode-Regular-32" x="60.000015"/>
    </g>
   </g>
   <g id="text_65">
    <!-- 13 -->
    <g style="fill: #c586c0" transform="translate(367.94688 320.92557)scale(0.12 -0.12)">
     <use xlink:href="#FiraCode-Regular-31"/>
     <use xlink:href="#FiraCode-Regular-33" x="60.000015"/>
    </g>
   </g>
   <g id="text_66">
    <!-- 14 -->
    <g style="fill: #c586c0" transform="translate(484.20288 320.92557)scale(0.12 -0.12)">
     <use xlink:href="#FiraCode-Regular-31"/>
     <use xlink:href="#FiraCode-Regular-34" x="60.000015"/>
    </g>
   </g>
   <g id="text_67">
    <!-- 15 -->
    <g style="fill: #c586c0" transform="translate(542.33088 437.18157)scale(0.12 -0.12)">
     <use xlink:href="#FiraCode-Regular-31"/>
     <use xlink:href="#FiraCode-Regular-35" x="60.000015"/>
    </g>
   </g>
   <g id="text_68">
    <!-- 16 -->
    <g style="fill: #c586c0" transform="translate(542.33088 379.05357)scale(0.12 -0.12)">
     <use xlink:href="#FiraCode-Regular-31"/>
     <use xlink:href="#FiraCode-Regular-36" x="60.000015"/>
    </g>
   </g>
   <g id="text_69">
    <!-- 17 -->
    <g style="fill: #c586c0" transform="translate(484.20288 379.05357)scale(0.12 -0.12)">
     <use xlink:href="#FiraCode-Regular-31"/>
     <use xlink:href="#FiraCode-Regular-37" x="60.000015"/>
    </g>
   </g>
   <g id="text_70">
    <!-- 18 -->
    <g style="fill: #c586c0" transform="translate(484.20288 437.18157)scale(0.12 -0.12)">
     <use xlink:href="#FiraCode-Regular-31"/>
     <use xlink:href="#FiraCode-Regular-38" x="60.000015"/>
    </g>
   </g>
   <g id="text_71">
    <!-- 19 -->
    <g style="fill: #c586c0" transform="translate(426.07488 379.05357)scale(0.12 -0.12)">
     <use xlink:href="#FiraCode-Regular-31"/>
     <use xlink:href="#FiraCode-Regular-39" x="60.000015"/>
    </g>
   </g>
   <g id="text_72">
    <!-- 20 -->
    <g style="fill: #c586c0" transform="translate(367.94688 379.05357)scale(0.12 -0.12)">
     <use xlink:href="#FiraCode-Regular-32"/>
     <use xlink:href="#FiraCode-Regular-30" x="60.000015"/>
    </g>
   </g>
   <g id="text_73">
    <!-- 21 -->
    <g style="fill: #c586c0" transform="translate(426.07488 437.18157)scale(0.12 -0.12)">
     <use xlink:href="#FiraCode-Regular-32"/>
     <use xlink:href="#FiraCode-Regular-31" x="60.000015"/>
    </g>
   </g>
   <g id="text_74">
    <!-- 22 -->
    <g style="fill: #c586c0" transform="translate(367.94688 437.18157)scale(0.12 -0.12)">
     <use xlink:href="#FiraCode-Regular-32"/>
     <use xlink:href="#FiraCode-Regular-32" x="60.000015"/>
    </g>
   </g>
   <g id="text_75">
    <!-- 23 -->
    <g style="fill: #c586c0" transform="translate(309.81888 379.05357)scale(0.12 -0.12)">
     <use xlink:href="#FiraCode-Regular-32"/>
     <use xlink:href="#FiraCode-Regular-33" x="60.000015"/>
    </g>
   </g>
   <g id="text_76">
    <!-- 24 -->
    <g style="fill: #c586c0" transform="translate(309.81888 437.18157)scale(0.12 -0.12)">
     <use xlink:href="#FiraCode-Regular-32"/>
     <use xlink:href="#FiraCode-Regular-34" x="60.000015"/>
    </g>
   </g>
   <g id="text_77">
    <!-- Mesh -->
    <g transform="translate(427.003125 53.7888)scale(0.12 -0.12)">
     <defs>
      <path id="DejaVuSans-4d" d="M 628 4666 
L 1569 4666 
L 2759 1491 
L 3956 4666 
L 4897 4666 
L 4897 0 
L 4281 0 
L 4281 4097 
L 3078 897 
L 2444 897 
L 1241 4097 
L 1241 0 
L 628 0 
L 628 4666 
z
" transform="scale(0.015625)"/>
      <path id="DejaVuSans-65" d="M 3597 1894 
L 3597 1613 
L 953 1613 
Q 991 1019 1311 708 
Q 1631 397 2203 397 
Q 2534 397 2845 478 
Q 3156 559 3463 722 
L 3463 178 
Q 3153 47 2828 -22 
Q 2503 -91 2169 -91 
Q 1331 -91 842 396 
Q 353 884 353 1716 
Q 353 2575 817 3079 
Q 1281 3584 2069 3584 
Q 2775 3584 3186 3129 
Q 3597 2675 3597 1894 
z
M 3022 2063 
Q 3016 2534 2758 2815 
Q 2500 3097 2075 3097 
Q 1594 3097 1305 2825 
Q 1016 2553 972 2059 
L 3022 2063 
z
" transform="scale(0.015625)"/>
      <path id="DejaVuSans-73" d="M 2834 3397 
L 2834 2853 
Q 2591 2978 2328 3040 
Q 2066 3103 1784 3103 
Q 1356 3103 1142 2972 
Q 928 2841 928 2578 
Q 928 2378 1081 2264 
Q 1234 2150 1697 2047 
L 1894 2003 
Q 2506 1872 2764 1633 
Q 3022 1394 3022 966 
Q 3022 478 2636 193 
Q 2250 -91 1575 -91 
Q 1294 -91 989 -36 
Q 684 19 347 128 
L 347 722 
Q 666 556 975 473 
Q 1284 391 1588 391 
Q 1994 391 2212 530 
Q 2431 669 2431 922 
Q 2431 1156 2273 1281 
Q 2116 1406 1581 1522 
L 1381 1569 
Q 847 1681 609 1914 
Q 372 2147 372 2553 
Q 372 3047 722 3315 
Q 1072 3584 1716 3584 
Q 2034 3584 2315 3537 
Q 2597 3491 2834 3397 
z
" transform="scale(0.015625)"/>
      <path id="DejaVuSans-68" d="M 3513 2113 
L 3513 0 
L 2938 0 
L 2938 2094 
Q 2938 2591 2744 2837 
Q 2550 3084 2163 3084 
Q 1697 3084 1428 2787 
Q 1159 2491 1159 1978 
L 1159 0 
L 581 0 
L 581 4863 
L 1159 4863 
L 1159 2956 
Q 1366 3272 1645 3428 
Q 1925 3584 2291 3584 
Q 2894 3584 3203 3211 
Q 3513 2838 3513 2113 
z
" transform="scale(0.015625)"/>
     </defs>
     <use xlink:href="#DejaVuSans-4d"/>
     <use xlink:href="#DejaVuSans-65" x="86.279297"/>
     <use xlink:href="#DejaVuSans-73" x="147.802734"/>
     <use xlink:href="#DejaVuSans-68" x="199.902344"/>
    </g>
   </g>
   <g id="legend_1">
    <g id="patch_7">
     <path d="M 485.070662 275.128388 
L 563.6816 275.128388 
Q 565.6816 275.128388 565.6816 273.128388 
L 565.6816 230.094013 
Q 565.6816 228.094013 563.6816 228.094013 
L 485.070662 228.094013 
Q 483.070662 228.094013 483.070662 230.094013 
L 483.070662 273.128388 
Q 483.070662 275.128388 485.070662 275.128388 
z
" style="fill: #ffffff; opacity: 0.8; stroke: #cccccc; stroke-linejoin: miter"/>
    </g>
    <g id="line2d_51">
     <path d="M 487.070662 236.19245 
L 497.070662 236.19245 
L 507.070662 236.19245 
" style="fill: none; stroke: #252525; stroke-width: 3; stroke-linecap: square"/>
    </g>
    <g id="text_78">
     <!-- Elements -->
     <g transform="translate(515.070662 239.69245)scale(0.1 -0.1)">
      <defs>
       <path id="DejaVuSans-45" d="M 628 4666 
L 3578 4666 
L 3578 4134 
L 1259 4134 
L 1259 2753 
L 3481 2753 
L 3481 2222 
L 1259 2222 
L 1259 531 
L 3634 531 
L 3634 0 
L 628 0 
L 628 4666 
z
" transform="scale(0.015625)"/>
       <path id="DejaVuSans-6c" d="M 603 4863 
L 1178 4863 
L 1178 0 
L 603 0 
L 603 4863 
z
" transform="scale(0.015625)"/>
       <path id="DejaVuSans-6d" d="M 3328 2828 
Q 3544 3216 3844 3400 
Q 4144 3584 4550 3584 
Q 5097 3584 5394 3201 
Q 5691 2819 5691 2113 
L 5691 0 
L 5113 0 
L 5113 2094 
Q 5113 2597 4934 2840 
Q 4756 3084 4391 3084 
Q 3944 3084 3684 2787 
Q 3425 2491 3425 1978 
L 3425 0 
L 2847 0 
L 2847 2094 
Q 2847 2600 2669 2842 
Q 2491 3084 2119 3084 
Q 1678 3084 1418 2786 
Q 1159 2488 1159 1978 
L 1159 0 
L 581 0 
L 581 3500 
L 1159 3500 
L 1159 2956 
Q 1356 3278 1631 3431 
Q 1906 3584 2284 3584 
Q 2666 3584 2933 3390 
Q 3200 3197 3328 2828 
z
" transform="scale(0.015625)"/>
       <path id="DejaVuSans-6e" d="M 3513 2113 
L 3513 0 
L 2938 0 
L 2938 2094 
Q 2938 2591 2744 2837 
Q 2550 3084 2163 3084 
Q 1697 3084 1428 2787 
Q 1159 2491 1159 1978 
L 1159 0 
L 581 0 
L 581 3500 
L 1159 3500 
L 1159 2956 
Q 1366 3272 1645 3428 
Q 1925 3584 2291 3584 
Q 2894 3584 3203 3211 
Q 3513 2838 3513 2113 
z
" transform="scale(0.015625)"/>
       <path id="DejaVuSans-74" d="M 1172 4494 
L 1172 3500 
L 2356 3500 
L 2356 3053 
L 1172 3053 
L 1172 1153 
Q 1172 725 1289 603 
Q 1406 481 1766 481 
L 2356 481 
L 2356 0 
L 1766 0 
Q 1100 0 847 248 
Q 594 497 594 1153 
L 594 3053 
L 172 3053 
L 172 3500 
L 594 3500 
L 594 4494 
L 1172 4494 
z
" transform="scale(0.015625)"/>
      </defs>
      <use xlink:href="#DejaVuSans-45"/>
      <use xlink:href="#DejaVuSans-6c" x="63.183594"/>
      <use xlink:href="#DejaVuSans-65" x="90.966797"/>
      <use xlink:href="#DejaVuSans-6d" x="152.490234"/>
      <use xlink:href="#DejaVuSans-65" x="249.902344"/>
      <use xlink:href="#DejaVuSans-6e" x="311.425781"/>
      <use xlink:href="#DejaVuSans-74" x="374.804688"/>
      <use xlink:href="#DejaVuSans-73" x="414.013672"/>
     </g>
    </g>
    <g id="line2d_52">
     <path d="M 487.070662 250.870575 
L 497.070662 250.870575 
L 507.070662 250.870575 
" style="fill: none; stroke: #569cd6; stroke-linecap: square"/>
    </g>
    <g id="text_79">
     <!-- Faces -->
     <g transform="translate(515.070662 254.370575)scale(0.1 -0.1)">
      <defs>
       <path id="DejaVuSans-46" d="M 628 4666 
L 3309 4666 
L 3309 4134 
L 1259 4134 
L 1259 2759 
L 3109 2759 
L 3109 2228 
L 1259 2228 
L 1259 0 
L 628 0 
L 628 4666 
z
" transform="scale(0.015625)"/>
       <path id="DejaVuSans-61" d="M 2194 1759 
Q 1497 1759 1228 1600 
Q 959 1441 959 1056 
Q 959 750 1161 570 
Q 1363 391 1709 391 
Q 2188 391 2477 730 
Q 2766 1069 2766 1631 
L 2766 1759 
L 2194 1759 
z
M 3341 1997 
L 3341 0 
L 2766 0 
L 2766 531 
Q 2569 213 2275 61 
Q 1981 -91 1556 -91 
Q 1019 -91 701 211 
Q 384 513 384 1019 
Q 384 1609 779 1909 
Q 1175 2209 1959 2209 
L 2766 2209 
L 2766 2266 
Q 2766 2663 2505 2880 
Q 2244 3097 1772 3097 
Q 1472 3097 1187 3025 
Q 903 2953 641 2809 
L 641 3341 
Q 956 3463 1253 3523 
Q 1550 3584 1831 3584 
Q 2591 3584 2966 3190 
Q 3341 2797 3341 1997 
z
" transform="scale(0.015625)"/>
       <path id="DejaVuSans-63" d="M 3122 3366 
L 3122 2828 
Q 2878 2963 2633 3030 
Q 2388 3097 2138 3097 
Q 1578 3097 1268 2742 
Q 959 2388 959 1747 
Q 959 1106 1268 751 
Q 1578 397 2138 397 
Q 2388 397 2633 464 
Q 2878 531 3122 666 
L 3122 134 
Q 2881 22 2623 -34 
Q 2366 -91 2075 -91 
Q 1284 -91 818 406 
Q 353 903 353 1747 
Q 353 2603 823 3093 
Q 1294 3584 2113 3584 
Q 2378 3584 2631 3529 
Q 2884 3475 3122 3366 
z
" transform="scale(0.015625)"/>
      </defs>
      <use xlink:href="#DejaVuSans-46"/>
      <use xlink:href="#DejaVuSans-61" x="48.394531"/>
      <use xlink:href="#DejaVuSans-63" x="109.673828"/>
      <use xlink:href="#DejaVuSans-65" x="164.654297"/>
      <use xlink:href="#DejaVuSans-73" x="226.177734"/>
     </g>
    </g>
    <g id="line2d_53">
     <g>
      <use xlink:href="#m5002bf40cc" x="497.070662" y="265.5487" style="fill: #c586c0; stroke: #c586c0"/>
     </g>
    </g>
    <g id="text_80">
     <!-- Nodes -->
     <g transform="translate(515.070662 269.0487)scale(0.1 -0.1)">
      <defs>
       <path id="DejaVuSans-4e" d="M 628 4666 
L 1478 4666 
L 3547 763 
L 3547 4666 
L 4159 4666 
L 4159 0 
L 3309 0 
L 1241 3903 
L 1241 0 
L 628 0 
L 628 4666 
z
" transform="scale(0.015625)"/>
       <path id="DejaVuSans-6f" d="M 1959 3097 
Q 1497 3097 1228 2736 
Q 959 2375 959 1747 
Q 959 1119 1226 758 
Q 1494 397 1959 397 
Q 2419 397 2687 759 
Q 2956 1122 2956 1747 
Q 2956 2369 2687 2733 
Q 2419 3097 1959 3097 
z
M 1959 3584 
Q 2709 3584 3137 3096 
Q 3566 2609 3566 1747 
Q 3566 888 3137 398 
Q 2709 -91 1959 -91 
Q 1206 -91 779 398 
Q 353 888 353 1747 
Q 353 2609 779 3096 
Q 1206 3584 1959 3584 
z
" transform="scale(0.015625)"/>
       <path id="DejaVuSans-64" d="M 2906 2969 
L 2906 4863 
L 3481 4863 
L 3481 0 
L 2906 0 
L 2906 525 
Q 2725 213 2448 61 
Q 2172 -91 1784 -91 
Q 1150 -91 751 415 
Q 353 922 353 1747 
Q 353 2572 751 3078 
Q 1150 3584 1784 3584 
Q 2172 3584 2448 3432 
Q 2725 3281 2906 2969 
z
M 947 1747 
Q 947 1113 1208 752 
Q 1469 391 1925 391 
Q 2381 391 2643 752 
Q 2906 1113 2906 1747 
Q 2906 2381 2643 2742 
Q 2381 3103 1925 3103 
Q 1469 3103 1208 2742 
Q 947 2381 947 1747 
z
" transform="scale(0.015625)"/>
      </defs>
      <use xlink:href="#DejaVuSans-4e"/>
      <use xlink:href="#DejaVuSans-6f" x="74.804688"/>
      <use xlink:href="#DejaVuSans-64" x="135.986328"/>
      <use xlink:href="#DejaVuSans-65" x="199.462891"/>
      <use xlink:href="#DejaVuSans-73" x="260.986328"/>
     </g>
    </g>
   </g>
  </g>
 </g>
 <defs>
  <clipPath id="pb4fbd62025">
   <rect x="314.9184" y="59.7888" width="255.7632" height="383.6448"/>
  </clipPath>
 </defs>
</svg>
