<?xml version="1.0" encoding="utf-8" standalone="no"?>
<!DOCTYPE svg PUBLIC "-//W3C//DTD SVG 1.1//EN"
  "http://www.w3.org/Graphics/SVG/1.1/DTD/svg11.dtd">
<svg xmlns:xlink="http://www.w3.org/1999/xlink" width="171.84pt" height="345.6pt" viewBox="0 0 171.84 345.6" xmlns="http://www.w3.org/2000/svg" version="1.1">
 <metadata>
  <rdf:RDF xmlns:dc="http://purl.org/dc/elements/1.1/" xmlns:cc="http://creativecommons.org/ns#" xmlns:rdf="http://www.w3.org/1999/02/22-rdf-syntax-ns#">
   <cc:Work>
    <dc:type rdf:resource="http://purl.org/dc/dcmitype/StillImage"/>
    <dc:date>2022-01-14T14:16:58.955549</dc:date>
    <dc:format>image/svg+xml</dc:format>
    <dc:creator>
     <cc:Agent>
      <dc:title>Matplotlib v3.5.0, https://matplotlib.org/</dc:title>
     </cc:Agent>
    </dc:creator>
   </cc:Work>
  </rdf:RDF>
 </metadata>
 <defs>
  <style type="text/css">*{stroke-linejoin: round; stroke-linecap: butt}</style>
 </defs>
 <g id="figure_1">
  <g id="patch_1">
   <path d="M 0 345.6 
L 171.84 345.6 
L 171.84 0 
L 0 0 
z
" style="fill: #ffffff"/>
  </g>
  <g id="axes_1">
   <g id="line2d_1">
    <path d="M 88.068 174.528 
L 88.068 114.048 
L 27.588 114.048 
L 27.588 174.528 
L 88.068 174.528 
" clip-path="url(#pbe900db776)" style="fill: none; stroke: #252525; stroke-width: 3; stroke-linecap: square"/>
   </g>
   <g id="line2d_2">
    <path d="M 88.068 114.048 
L 88.068 53.568 
L 27.588 53.568 
L 27.588 114.048 
L 88.068 114.048 
" clip-path="url(#pbe900db776)" style="fill: none; stroke: #252525; stroke-width: 3; stroke-linecap: square"/>
   </g>
   <g id="line2d_3">
    <path d="M 148.548 114.048 
L 148.548 53.568 
L 88.068 53.568 
L 88.068 114.048 
L 148.548 114.048 
" clip-path="url(#pbe900db776)" style="fill: none; stroke: #252525; stroke-width: 3; stroke-linecap: square"/>
   </g>
   <g id="line2d_4">
    <path d="M 148.548 174.528 
L 148.548 114.048 
L 88.068 114.048 
L 88.068 174.528 
L 148.548 174.528 
" clip-path="url(#pbe900db776)" style="fill: none; stroke: #252525; stroke-width: 3; stroke-linecap: square"/>
   </g>
   <g id="line2d_5">
    <path d="M 148.548 235.008 
L 148.548 174.528 
L 88.068 174.528 
L 88.068 235.008 
L 148.548 235.008 
" clip-path="url(#pbe900db776)" style="fill: none; stroke: #252525; stroke-width: 3; stroke-linecap: square"/>
   </g>
   <g id="line2d_6">
    <path d="M 88.068 235.008 
L 88.068 174.528 
L 27.588 174.528 
L 27.588 235.008 
L 88.068 235.008 
" clip-path="url(#pbe900db776)" style="fill: none; stroke: #252525; stroke-width: 3; stroke-linecap: square"/>
   </g>
   <g id="line2d_7">
    <path d="M 88.068 265.248 
L 88.068 235.008 
L 57.828 235.008 
L 57.828 265.248 
L 88.068 265.248 
" clip-path="url(#pbe900db776)" style="fill: none; stroke: #252525; stroke-width: 3; stroke-linecap: square"/>
   </g>
   <g id="line2d_8">
    <path d="M 57.828 265.248 
L 57.828 235.008 
L 27.588 235.008 
L 27.588 265.248 
L 57.828 265.248 
" clip-path="url(#pbe900db776)" style="fill: none; stroke: #252525; stroke-width: 3; stroke-linecap: square"/>
   </g>
   <g id="line2d_9">
    <path d="M 57.828 295.488 
L 57.828 265.248 
L 27.588 265.248 
L 27.588 295.488 
L 57.828 295.488 
" clip-path="url(#pbe900db776)" style="fill: none; stroke: #252525; stroke-width: 3; stroke-linecap: square"/>
   </g>
   <g id="line2d_10">
    <path d="M 88.068 295.488 
L 88.068 265.248 
L 57.828 265.248 
L 57.828 295.488 
L 88.068 295.488 
" clip-path="url(#pbe900db776)" style="fill: none; stroke: #252525; stroke-width: 3; stroke-linecap: square"/>
   </g>
   <g id="line2d_11">
    <path d="M 148.548 295.488 
L 148.548 235.008 
L 88.068 235.008 
L 88.068 295.488 
L 148.548 295.488 
" clip-path="url(#pbe900db776)" style="fill: none; stroke: #252525; stroke-width: 3; stroke-linecap: square"/>
   </g>
   <g id="line2d_12">
    <path d="M 57.828 144.288 
L 57.828 83.808 
L 118.308 83.808 
L 118.308 144.288 
L 118.308 204.768 
L 57.828 204.768 
L 72.948 250.128 
L 42.708 250.128 
L 42.708 280.368 
L 72.948 280.368 
L 118.308 265.248 
" clip-path="url(#pbe900db776)" style="fill: none; stroke: #6a9955; stroke-width: 5; stroke-linecap: square"/>
   </g>
   <g id="text_1">
    <!-- 0 -->
    <g style="fill: #252525" transform="translate(53.628 147.972844)scale(0.14 -0.14)">
     <defs>
      <path id="FiraCode-Regular-30" d="M 1920 4477 
Q 2630 4477 2996 3888 
Q 3363 3299 3363 2205 
Q 3363 1107 2996 516 
Q 2630 -74 1920 -74 
Q 1210 -74 843 516 
Q 477 1107 477 2205 
Q 477 3299 843 3888 
Q 1210 4477 1920 4477 
z
M 1920 4045 
Q 1514 4045 1280 3614 
Q 1046 3184 1046 2205 
Q 1046 1472 1158 1053 
L 2506 3760 
Q 2304 4045 1920 4045 
z
M 2797 2205 
Q 2797 2944 2682 3360 
L 1341 643 
Q 1542 362 1920 362 
Q 2330 362 2563 794 
Q 2797 1226 2797 2205 
z
" transform="scale(0.015625)"/>
     </defs>
     <use xlink:href="#FiraCode-Regular-30"/>
    </g>
   </g>
   <g id="text_2">
    <!-- 1 -->
    <g style="fill: #252525" transform="translate(53.628 87.492844)scale(0.14 -0.14)">
     <defs>
      <path id="FiraCode-Regular-31" d="M 3312 438 
L 3312 0 
L 768 0 
L 768 438 
L 1853 438 
L 1853 3824 
L 842 3210 
L 608 3594 
L 1920 4406 
L 2390 4406 
L 2390 438 
L 3312 438 
z
" transform="scale(0.015625)"/>
     </defs>
     <use xlink:href="#FiraCode-Regular-31"/>
    </g>
   </g>
   <g id="text_3">
    <!-- 2 -->
    <g style="fill: #252525" transform="translate(114.108 87.492844)scale(0.14 -0.14)">
     <defs>
      <path id="FiraCode-Regular-32" d="M 1725 4477 
Q 2141 4477 2438 4315 
Q 2736 4154 2894 3875 
Q 3053 3597 3053 3248 
Q 3053 2944 2947 2654 
Q 2842 2365 2610 2046 
Q 2378 1728 2000 1341 
Q 1622 954 1078 458 
L 3155 458 
L 3088 0 
L 467 0 
L 467 438 
Q 1091 1037 1486 1449 
Q 1882 1862 2099 2161 
Q 2317 2461 2401 2710 
Q 2486 2960 2486 3229 
Q 2486 3600 2278 3814 
Q 2070 4029 1699 4029 
Q 1373 4029 1165 3917 
Q 957 3805 749 3558 
L 378 3846 
Q 640 4166 958 4321 
Q 1277 4477 1725 4477 
z
" transform="scale(0.015625)"/>
     </defs>
     <use xlink:href="#FiraCode-Regular-32"/>
    </g>
   </g>
   <g id="text_4">
    <!-- 3 -->
    <g style="fill: #252525" transform="translate(114.108 147.972844)scale(0.14 -0.14)">
     <defs>
      <path id="FiraCode-Regular-33" d="M 1718 4477 
Q 2134 4477 2438 4326 
Q 2742 4176 2907 3926 
Q 3072 3677 3072 3376 
Q 3072 3107 2953 2891 
Q 2835 2675 2640 2534 
Q 2445 2394 2211 2349 
Q 2470 2330 2699 2203 
Q 2928 2077 3070 1843 
Q 3213 1610 3213 1270 
Q 3213 890 3021 584 
Q 2829 278 2485 102 
Q 2141 -74 1683 -74 
Q 1312 -74 947 67 
Q 582 208 330 515 
L 691 810 
Q 880 589 1141 480 
Q 1402 371 1670 371 
Q 2131 371 2390 612 
Q 2650 854 2650 1270 
Q 2650 1741 2389 1923 
Q 2128 2106 1738 2106 
L 1366 2106 
L 1434 2531 
L 1693 2531 
Q 1907 2531 2097 2614 
Q 2288 2698 2409 2867 
Q 2531 3037 2531 3299 
Q 2531 3664 2288 3856 
Q 2045 4048 1699 4048 
Q 1411 4048 1196 3947 
Q 982 3846 765 3642 
L 467 3971 
Q 749 4237 1065 4357 
Q 1382 4477 1718 4477 
z
" transform="scale(0.015625)"/>
     </defs>
     <use xlink:href="#FiraCode-Regular-33"/>
    </g>
   </g>
   <g id="text_5">
    <!-- 4 -->
    <g style="fill: #252525" transform="translate(114.108 208.452844)scale(0.14 -0.14)">
     <defs>
      <path id="FiraCode-Regular-34" d="M 2813 2752 
L 2813 1501 
L 3382 1501 
L 3382 1072 
L 2813 1072 
L 2813 0 
L 2294 0 
L 2291 1072 
L 461 1072 
L 461 1462 
L 1754 4477 
L 2202 4288 
L 1030 1501 
L 2294 1501 
L 2365 2752 
L 2813 2752 
z
" transform="scale(0.015625)"/>
     </defs>
     <use xlink:href="#FiraCode-Regular-34"/>
    </g>
   </g>
   <g id="text_6">
    <!-- 5 -->
    <g style="fill: #252525" transform="translate(53.628 208.452844)scale(0.14 -0.14)">
     <defs>
      <path id="FiraCode-Regular-35" d="M 3117 4406 
L 3037 3978 
L 1296 3978 
L 1296 2589 
Q 1498 2694 1678 2736 
Q 1859 2778 2058 2778 
Q 2595 2778 2928 2416 
Q 3261 2054 3261 1395 
Q 3261 954 3077 624 
Q 2893 294 2558 110 
Q 2224 -74 1770 -74 
Q 1373 -74 1061 67 
Q 749 208 493 458 
L 826 778 
Q 1219 371 1776 371 
Q 2211 371 2454 635 
Q 2698 899 2698 1411 
Q 2698 1766 2592 1971 
Q 2486 2176 2305 2264 
Q 2125 2352 1904 2352 
Q 1709 2352 1558 2313 
Q 1408 2275 1216 2205 
L 784 2205 
L 784 4406 
L 3117 4406 
z
" transform="scale(0.015625)"/>
     </defs>
     <use xlink:href="#FiraCode-Regular-35"/>
    </g>
   </g>
   <g id="text_7">
    <!-- 6 -->
    <g style="fill: #252525" transform="translate(68.748 253.812844)scale(0.14 -0.14)">
     <defs>
      <path id="FiraCode-Regular-36" d="M 2147 4477 
Q 2400 4477 2616 4411 
Q 2832 4346 3018 4221 
L 2806 3856 
Q 2499 4042 2138 4042 
Q 1629 4042 1347 3562 
Q 1066 3082 1046 2275 
Q 1258 2589 1522 2729 
Q 1786 2870 2109 2870 
Q 2448 2870 2733 2718 
Q 3018 2566 3187 2259 
Q 3357 1952 3357 1482 
Q 3357 995 3169 646 
Q 2982 298 2667 112 
Q 2352 -74 1971 -74 
Q 1437 -74 1115 192 
Q 794 458 651 942 
Q 509 1427 509 2083 
Q 509 2813 702 3350 
Q 896 3888 1264 4182 
Q 1632 4477 2147 4477 
z
M 2026 2429 
Q 1709 2429 1462 2256 
Q 1216 2083 1053 1805 
Q 1069 1059 1285 710 
Q 1501 362 1968 362 
Q 2387 362 2596 658 
Q 2806 954 2806 1469 
Q 2806 2010 2592 2219 
Q 2378 2429 2026 2429 
z
" transform="scale(0.015625)"/>
     </defs>
     <use xlink:href="#FiraCode-Regular-36"/>
    </g>
   </g>
   <g id="text_8">
    <!-- 7 -->
    <g style="fill: #252525" transform="translate(38.508 253.812844)scale(0.14 -0.14)">
     <defs>
      <path id="FiraCode-Regular-37" d="M 1475 -61 
L 973 93 
L 2691 3958 
L 624 3958 
L 624 4406 
L 3232 4406 
L 3232 3994 
L 1475 -61 
z
" transform="scale(0.015625)"/>
     </defs>
     <use xlink:href="#FiraCode-Regular-37"/>
    </g>
   </g>
   <g id="text_9">
    <!-- 8 -->
    <g style="fill: #252525" transform="translate(38.508 284.052844)scale(0.14 -0.14)">
     <defs>
      <path id="FiraCode-Regular-38" d="M 3242 3357 
Q 3242 3034 3043 2800 
Q 2845 2566 2477 2365 
Q 2909 2186 3165 1886 
Q 3421 1587 3421 1181 
Q 3421 822 3235 537 
Q 3050 253 2710 89 
Q 2371 -74 1907 -74 
Q 1437 -74 1104 91 
Q 771 256 595 537 
Q 419 819 419 1171 
Q 419 1578 660 1856 
Q 902 2134 1302 2320 
Q 954 2486 776 2723 
Q 598 2960 598 3328 
Q 598 3632 721 3849 
Q 845 4067 1041 4206 
Q 1238 4346 1470 4411 
Q 1702 4477 1920 4477 
Q 2240 4477 2544 4360 
Q 2848 4243 3045 3995 
Q 3242 3747 3242 3357 
z
M 1130 3322 
Q 1130 3069 1246 2923 
Q 1363 2778 1580 2686 
Q 1798 2595 2096 2499 
Q 2403 2672 2556 2854 
Q 2710 3037 2710 3338 
Q 2710 3670 2504 3865 
Q 2298 4061 1920 4061 
Q 1546 4061 1338 3865 
Q 1130 3670 1130 3322 
z
M 2854 1174 
Q 2854 1472 2704 1645 
Q 2554 1818 2288 1933 
Q 2022 2048 1674 2166 
Q 1402 2042 1194 1813 
Q 986 1584 986 1168 
Q 986 794 1216 578 
Q 1446 362 1904 362 
Q 2365 362 2609 594 
Q 2854 826 2854 1174 
z
" transform="scale(0.015625)"/>
     </defs>
     <use xlink:href="#FiraCode-Regular-38"/>
    </g>
   </g>
   <g id="text_10">
    <!-- 9 -->
    <g style="fill: #252525" transform="translate(68.748 284.052844)scale(0.14 -0.14)">
     <defs>
      <path id="FiraCode-Regular-39" d="M 1853 4470 
Q 2573 4470 2931 3984 
Q 3290 3498 3290 2669 
Q 3290 2000 3154 1539 
Q 3018 1078 2733 768 
Q 2448 458 2003 246 
Q 1558 35 941 -134 
L 816 275 
Q 1427 445 1838 678 
Q 2250 912 2467 1265 
Q 2685 1619 2717 2141 
Q 2525 1907 2272 1761 
Q 2019 1616 1686 1616 
Q 1318 1616 1035 1784 
Q 752 1952 589 2267 
Q 426 2582 426 3024 
Q 426 3494 618 3817 
Q 810 4141 1133 4305 
Q 1456 4470 1853 4470 
z
M 982 3005 
Q 982 2499 1195 2272 
Q 1408 2045 1786 2045 
Q 2083 2045 2308 2198 
Q 2534 2352 2730 2618 
Q 2720 3395 2505 3715 
Q 2291 4035 1853 4035 
Q 982 4035 982 3005 
z
" transform="scale(0.015625)"/>
     </defs>
     <use xlink:href="#FiraCode-Regular-39"/>
    </g>
   </g>
   <g id="text_11">
    <!-- 10 -->
    <g style="fill: #252525" transform="translate(109.908 268.932844)scale(0.14 -0.14)">
     <use xlink:href="#FiraCode-Regular-31"/>
     <use xlink:href="#FiraCode-Regular-30" x="60.000015"/>
    </g>
   </g>
  </g>
 </g>
 <defs>
  <clipPath id="pbe900db776">
   <rect x="21.54" y="41.472" width="133.056" height="266.112"/>
  </clipPath>
 </defs>
</svg>
