<?xml version="1.0" encoding="utf-8" standalone="no"?>
<!DOCTYPE svg PUBLIC "-//W3C//DTD SVG 1.1//EN"
  "http://www.w3.org/Graphics/SVG/1.1/DTD/svg11.dtd">
<svg xmlns:xlink="http://www.w3.org/1999/xlink" width="956.16pt" height="952.8pt" viewBox="0 0 956.16 952.8" xmlns="http://www.w3.org/2000/svg" version="1.1">
 <metadata>
  <rdf:RDF xmlns:dc="http://purl.org/dc/elements/1.1/" xmlns:cc="http://creativecommons.org/ns#" xmlns:rdf="http://www.w3.org/1999/02/22-rdf-syntax-ns#">
   <cc:Work>
    <dc:type rdf:resource="http://purl.org/dc/dcmitype/StillImage"/>
    <dc:date>2022-01-17T17:06:00.205619</dc:date>
    <dc:format>image/svg+xml</dc:format>
    <dc:creator>
     <cc:Agent>
      <dc:title>Matplotlib v3.5.0, https://matplotlib.org/</dc:title>
     </cc:Agent>
    </dc:creator>
   </cc:Work>
  </rdf:RDF>
 </metadata>
 <defs>
  <style type="text/css">*{stroke-linejoin: round; stroke-linecap: butt}</style>
 </defs>
 <g id="figure_1">
  <g id="patch_1">
   <path d="M 0 952.8 
L 956.16 952.8 
L 956.16 0 
L 0 0 
z
" style="fill: #ffffff"/>
  </g>
  <g id="axes_1">
   <g id="patch_2">
    <path d="M 123.204 847.992 
L 856.86 847.992 
L 856.86 114.336 
L 123.204 114.336 
z
" style="fill: #ffffff"/>
   </g>
   <g id="matplotlib.axis_1">
    <g id="xtick_1">
     <g id="line2d_1">
      <defs>
       <path id="m246a459385" d="M 0 0 
L 0 3.5 
" style="stroke: #000000; stroke-width: 0.8"/>
      </defs>
      <g>
       <use xlink:href="#m246a459385" x="156.552" y="847.992" style="stroke: #000000; stroke-width: 0.8"/>
      </g>
     </g>
     <g id="text_1">
      <!-- 0.0 -->
      <g transform="translate(148.600438 862.590438)scale(0.1 -0.1)">
       <defs>
        <path id="DejaVuSans-30" d="M 2034 4250 
Q 1547 4250 1301 3770 
Q 1056 3291 1056 2328 
Q 1056 1369 1301 889 
Q 1547 409 2034 409 
Q 2525 409 2770 889 
Q 3016 1369 3016 2328 
Q 3016 3291 2770 3770 
Q 2525 4250 2034 4250 
z
M 2034 4750 
Q 2819 4750 3233 4129 
Q 3647 3509 3647 2328 
Q 3647 1150 3233 529 
Q 2819 -91 2034 -91 
Q 1250 -91 836 529 
Q 422 1150 422 2328 
Q 422 3509 836 4129 
Q 1250 4750 2034 4750 
z
" transform="scale(0.015625)"/>
        <path id="DejaVuSans-2e" d="M 684 794 
L 1344 794 
L 1344 0 
L 684 0 
L 684 794 
z
" transform="scale(0.015625)"/>
       </defs>
       <use xlink:href="#DejaVuSans-30"/>
       <use xlink:href="#DejaVuSans-2e" x="63.623047"/>
       <use xlink:href="#DejaVuSans-30" x="95.410156"/>
      </g>
     </g>
    </g>
    <g id="xtick_2">
     <g id="line2d_2">
      <g>
       <use xlink:href="#m246a459385" x="289.944" y="847.992" style="stroke: #000000; stroke-width: 0.8"/>
      </g>
     </g>
     <g id="text_2">
      <!-- 0.2 -->
      <g transform="translate(281.992437 862.590438)scale(0.1 -0.1)">
       <defs>
        <path id="DejaVuSans-32" d="M 1228 531 
L 3431 531 
L 3431 0 
L 469 0 
L 469 531 
Q 828 903 1448 1529 
Q 2069 2156 2228 2338 
Q 2531 2678 2651 2914 
Q 2772 3150 2772 3378 
Q 2772 3750 2511 3984 
Q 2250 4219 1831 4219 
Q 1534 4219 1204 4116 
Q 875 4013 500 3803 
L 500 4441 
Q 881 4594 1212 4672 
Q 1544 4750 1819 4750 
Q 2544 4750 2975 4387 
Q 3406 4025 3406 3419 
Q 3406 3131 3298 2873 
Q 3191 2616 2906 2266 
Q 2828 2175 2409 1742 
Q 1991 1309 1228 531 
z
" transform="scale(0.015625)"/>
       </defs>
       <use xlink:href="#DejaVuSans-30"/>
       <use xlink:href="#DejaVuSans-2e" x="63.623047"/>
       <use xlink:href="#DejaVuSans-32" x="95.410156"/>
      </g>
     </g>
    </g>
    <g id="xtick_3">
     <g id="line2d_3">
      <g>
       <use xlink:href="#m246a459385" x="423.336" y="847.992" style="stroke: #000000; stroke-width: 0.8"/>
      </g>
     </g>
     <g id="text_3">
      <!-- 0.4 -->
      <g transform="translate(415.384438 862.590438)scale(0.1 -0.1)">
       <defs>
        <path id="DejaVuSans-34" d="M 2419 4116 
L 825 1625 
L 2419 1625 
L 2419 4116 
z
M 2253 4666 
L 3047 4666 
L 3047 1625 
L 3713 1625 
L 3713 1100 
L 3047 1100 
L 3047 0 
L 2419 0 
L 2419 1100 
L 313 1100 
L 313 1709 
L 2253 4666 
z
" transform="scale(0.015625)"/>
       </defs>
       <use xlink:href="#DejaVuSans-30"/>
       <use xlink:href="#DejaVuSans-2e" x="63.623047"/>
       <use xlink:href="#DejaVuSans-34" x="95.410156"/>
      </g>
     </g>
    </g>
    <g id="xtick_4">
     <g id="line2d_4">
      <g>
       <use xlink:href="#m246a459385" x="556.728" y="847.992" style="stroke: #000000; stroke-width: 0.8"/>
      </g>
     </g>
     <g id="text_4">
      <!-- 0.6 -->
      <g transform="translate(548.776438 862.590438)scale(0.1 -0.1)">
       <defs>
        <path id="DejaVuSans-36" d="M 2113 2584 
Q 1688 2584 1439 2293 
Q 1191 2003 1191 1497 
Q 1191 994 1439 701 
Q 1688 409 2113 409 
Q 2538 409 2786 701 
Q 3034 994 3034 1497 
Q 3034 2003 2786 2293 
Q 2538 2584 2113 2584 
z
M 3366 4563 
L 3366 3988 
Q 3128 4100 2886 4159 
Q 2644 4219 2406 4219 
Q 1781 4219 1451 3797 
Q 1122 3375 1075 2522 
Q 1259 2794 1537 2939 
Q 1816 3084 2150 3084 
Q 2853 3084 3261 2657 
Q 3669 2231 3669 1497 
Q 3669 778 3244 343 
Q 2819 -91 2113 -91 
Q 1303 -91 875 529 
Q 447 1150 447 2328 
Q 447 3434 972 4092 
Q 1497 4750 2381 4750 
Q 2619 4750 2861 4703 
Q 3103 4656 3366 4563 
z
" transform="scale(0.015625)"/>
       </defs>
       <use xlink:href="#DejaVuSans-30"/>
       <use xlink:href="#DejaVuSans-2e" x="63.623047"/>
       <use xlink:href="#DejaVuSans-36" x="95.410156"/>
      </g>
     </g>
    </g>
    <g id="xtick_5">
     <g id="line2d_5">
      <g>
       <use xlink:href="#m246a459385" x="690.12" y="847.992" style="stroke: #000000; stroke-width: 0.8"/>
      </g>
     </g>
     <g id="text_5">
      <!-- 0.8 -->
      <g transform="translate(682.168437 862.590438)scale(0.1 -0.1)">
       <defs>
        <path id="DejaVuSans-38" d="M 2034 2216 
Q 1584 2216 1326 1975 
Q 1069 1734 1069 1313 
Q 1069 891 1326 650 
Q 1584 409 2034 409 
Q 2484 409 2743 651 
Q 3003 894 3003 1313 
Q 3003 1734 2745 1975 
Q 2488 2216 2034 2216 
z
M 1403 2484 
Q 997 2584 770 2862 
Q 544 3141 544 3541 
Q 544 4100 942 4425 
Q 1341 4750 2034 4750 
Q 2731 4750 3128 4425 
Q 3525 4100 3525 3541 
Q 3525 3141 3298 2862 
Q 3072 2584 2669 2484 
Q 3125 2378 3379 2068 
Q 3634 1759 3634 1313 
Q 3634 634 3220 271 
Q 2806 -91 2034 -91 
Q 1263 -91 848 271 
Q 434 634 434 1313 
Q 434 1759 690 2068 
Q 947 2378 1403 2484 
z
M 1172 3481 
Q 1172 3119 1398 2916 
Q 1625 2713 2034 2713 
Q 2441 2713 2670 2916 
Q 2900 3119 2900 3481 
Q 2900 3844 2670 4047 
Q 2441 4250 2034 4250 
Q 1625 4250 1398 4047 
Q 1172 3844 1172 3481 
z
" transform="scale(0.015625)"/>
       </defs>
       <use xlink:href="#DejaVuSans-30"/>
       <use xlink:href="#DejaVuSans-2e" x="63.623047"/>
       <use xlink:href="#DejaVuSans-38" x="95.410156"/>
      </g>
     </g>
    </g>
    <g id="xtick_6">
     <g id="line2d_6">
      <g>
       <use xlink:href="#m246a459385" x="823.512" y="847.992" style="stroke: #000000; stroke-width: 0.8"/>
      </g>
     </g>
     <g id="text_6">
      <!-- 1.0 -->
      <g transform="translate(815.560438 862.590438)scale(0.1 -0.1)">
       <defs>
        <path id="DejaVuSans-31" d="M 794 531 
L 1825 531 
L 1825 4091 
L 703 3866 
L 703 4441 
L 1819 4666 
L 2450 4666 
L 2450 531 
L 3481 531 
L 3481 0 
L 794 0 
L 794 531 
z
" transform="scale(0.015625)"/>
       </defs>
       <use xlink:href="#DejaVuSans-31"/>
       <use xlink:href="#DejaVuSans-2e" x="63.623047"/>
       <use xlink:href="#DejaVuSans-30" x="95.410156"/>
      </g>
     </g>
    </g>
    <g id="text_7">
     <!-- x -->
     <g transform="translate(487.072625 876.268563)scale(0.1 -0.1)">
      <defs>
       <path id="DejaVuSans-78" d="M 3513 3500 
L 2247 1797 
L 3578 0 
L 2900 0 
L 1881 1375 
L 863 0 
L 184 0 
L 1544 1831 
L 300 3500 
L 978 3500 
L 1906 2253 
L 2834 3500 
L 3513 3500 
z
" transform="scale(0.015625)"/>
      </defs>
      <use xlink:href="#DejaVuSans-78"/>
     </g>
    </g>
   </g>
   <g id="matplotlib.axis_2">
    <g id="ytick_1">
     <g id="line2d_7">
      <defs>
       <path id="mcf127c8ab2" d="M 0 0 
L -3.5 0 
" style="stroke: #000000; stroke-width: 0.8"/>
      </defs>
      <g>
       <use xlink:href="#mcf127c8ab2" x="123.204" y="814.644" style="stroke: #000000; stroke-width: 0.8"/>
      </g>
     </g>
     <g id="text_8">
      <!-- 0.0 -->
      <g transform="translate(100.300875 818.443219)scale(0.1 -0.1)">
       <use xlink:href="#DejaVuSans-30"/>
       <use xlink:href="#DejaVuSans-2e" x="63.623047"/>
       <use xlink:href="#DejaVuSans-30" x="95.410156"/>
      </g>
     </g>
    </g>
    <g id="ytick_2">
     <g id="line2d_8">
      <g>
       <use xlink:href="#mcf127c8ab2" x="123.204" y="681.252" style="stroke: #000000; stroke-width: 0.8"/>
      </g>
     </g>
     <g id="text_9">
      <!-- 0.2 -->
      <g transform="translate(100.300875 685.051219)scale(0.1 -0.1)">
       <use xlink:href="#DejaVuSans-30"/>
       <use xlink:href="#DejaVuSans-2e" x="63.623047"/>
       <use xlink:href="#DejaVuSans-32" x="95.410156"/>
      </g>
     </g>
    </g>
    <g id="ytick_3">
     <g id="line2d_9">
      <g>
       <use xlink:href="#mcf127c8ab2" x="123.204" y="547.86" style="stroke: #000000; stroke-width: 0.8"/>
      </g>
     </g>
     <g id="text_10">
      <!-- 0.4 -->
      <g transform="translate(100.300875 551.659219)scale(0.1 -0.1)">
       <use xlink:href="#DejaVuSans-30"/>
       <use xlink:href="#DejaVuSans-2e" x="63.623047"/>
       <use xlink:href="#DejaVuSans-34" x="95.410156"/>
      </g>
     </g>
    </g>
    <g id="ytick_4">
     <g id="line2d_10">
      <g>
       <use xlink:href="#mcf127c8ab2" x="123.204" y="414.468" style="stroke: #000000; stroke-width: 0.8"/>
      </g>
     </g>
     <g id="text_11">
      <!-- 0.6 -->
      <g transform="translate(100.300875 418.267219)scale(0.1 -0.1)">
       <use xlink:href="#DejaVuSans-30"/>
       <use xlink:href="#DejaVuSans-2e" x="63.623047"/>
       <use xlink:href="#DejaVuSans-36" x="95.410156"/>
      </g>
     </g>
    </g>
    <g id="ytick_5">
     <g id="line2d_11">
      <g>
       <use xlink:href="#mcf127c8ab2" x="123.204" y="281.076" style="stroke: #000000; stroke-width: 0.8"/>
      </g>
     </g>
     <g id="text_12">
      <!-- 0.8 -->
      <g transform="translate(100.300875 284.875219)scale(0.1 -0.1)">
       <use xlink:href="#DejaVuSans-30"/>
       <use xlink:href="#DejaVuSans-2e" x="63.623047"/>
       <use xlink:href="#DejaVuSans-38" x="95.410156"/>
      </g>
     </g>
    </g>
    <g id="ytick_6">
     <g id="line2d_12">
      <g>
       <use xlink:href="#mcf127c8ab2" x="123.204" y="147.684" style="stroke: #000000; stroke-width: 0.8"/>
      </g>
     </g>
     <g id="text_13">
      <!-- 1.0 -->
      <g transform="translate(100.300875 151.483219)scale(0.1 -0.1)">
       <use xlink:href="#DejaVuSans-31"/>
       <use xlink:href="#DejaVuSans-2e" x="63.623047"/>
       <use xlink:href="#DejaVuSans-30" x="95.410156"/>
      </g>
     </g>
    </g>
    <g id="text_14">
     <!-- y -->
     <g transform="translate(94.221187 484.123375)rotate(-90)scale(0.1 -0.1)">
      <defs>
       <path id="DejaVuSans-79" d="M 2059 -325 
Q 1816 -950 1584 -1140 
Q 1353 -1331 966 -1331 
L 506 -1331 
L 506 -850 
L 844 -850 
Q 1081 -850 1212 -737 
Q 1344 -625 1503 -206 
L 1606 56 
L 191 3500 
L 800 3500 
L 1894 763 
L 2988 3500 
L 3597 3500 
L 2059 -325 
z
" transform="scale(0.015625)"/>
      </defs>
      <use xlink:href="#DejaVuSans-79"/>
     </g>
    </g>
   </g>
   <g id="line2d_13">
    <path d="M 644.2665 814.644 
L 585.9075 814.644 
" clip-path="url(#pa8f269ffce)" style="fill: none; stroke: #f44747; stroke-width: 5; stroke-linecap: square"/>
   </g>
   <g id="line2d_14">
    <path d="M 560.8965 814.644 
L 502.5375 814.644 
" clip-path="url(#pa8f269ffce)" style="fill: none; stroke: #f44747; stroke-width: 5; stroke-linecap: square"/>
   </g>
   <g id="line2d_15">
    <path d="M 798.501 814.644 
L 681.783 814.644 
" clip-path="url(#pa8f269ffce)" style="fill: none; stroke: #f44747; stroke-width: 5; stroke-linecap: square"/>
   </g>
   <g id="line2d_16">
    <path d="M 681.783 147.684 
L 798.501 147.684 
" clip-path="url(#pa8f269ffce)" style="fill: none; stroke: #f44747; stroke-width: 5; stroke-linecap: square"/>
   </g>
   <g id="line2d_17">
    <path d="M 515.043 147.684 
L 631.761 147.684 
" clip-path="url(#pa8f269ffce)" style="fill: none; stroke: #f44747; stroke-width: 5; stroke-linecap: square"/>
   </g>
   <g id="line2d_18">
    <path d="M 823.512 672.915 
L 823.512 789.633 
" clip-path="url(#pa8f269ffce)" style="fill: none; stroke: #f44747; stroke-width: 5; stroke-linecap: square"/>
   </g>
   <g id="line2d_19">
    <path d="M 823.512 506.175 
L 823.512 622.893 
" clip-path="url(#pa8f269ffce)" style="fill: none; stroke: #f44747; stroke-width: 5; stroke-linecap: square"/>
   </g>
   <g id="line2d_20">
    <path d="M 823.512 339.435 
L 823.512 456.153 
" clip-path="url(#pa8f269ffce)" style="fill: none; stroke: #f44747; stroke-width: 5; stroke-linecap: square"/>
   </g>
   <g id="line2d_21">
    <path d="M 823.512 172.695 
L 823.512 289.413 
" clip-path="url(#pa8f269ffce)" style="fill: none; stroke: #f44747; stroke-width: 5; stroke-linecap: square"/>
   </g>
   <g id="line2d_22">
    <path d="M 490.032 802.1385 
L 490.032 743.7795 
" clip-path="url(#pa8f269ffce)" style="fill: none; stroke: #f44747; stroke-width: 5; stroke-linecap: square"/>
   </g>
   <g id="line2d_23">
    <path d="M 490.032 718.7685 
L 490.032 660.4095 
" clip-path="url(#pa8f269ffce)" style="fill: none; stroke: #f44747; stroke-width: 5; stroke-linecap: square"/>
   </g>
   <g id="line2d_24">
    <path d="M 490.032 635.3985 
L 490.032 577.0395 
" clip-path="url(#pa8f269ffce)" style="fill: none; stroke: #f44747; stroke-width: 5; stroke-linecap: square"/>
   </g>
   <g id="line2d_25">
    <path d="M 490.032 552.0285 
L 490.032 493.6695 
" clip-path="url(#pa8f269ffce)" style="fill: none; stroke: #f44747; stroke-width: 5; stroke-linecap: square"/>
   </g>
   <g id="line2d_26">
    <path d="M 239.922 468.6585 
L 239.922 410.2995 
" clip-path="url(#pa8f269ffce)" style="fill: none; stroke: #f44747; stroke-width: 5; stroke-linecap: square"/>
   </g>
   <g id="line2d_27">
    <path d="M 310.7865 481.164 
L 252.4275 481.164 
" clip-path="url(#pa8f269ffce)" style="fill: none; stroke: #f44747; stroke-width: 5; stroke-linecap: square"/>
   </g>
   <g id="line2d_28">
    <path d="M 227.4165 397.794 
L 169.0575 397.794 
" clip-path="url(#pa8f269ffce)" style="fill: none; stroke: #f44747; stroke-width: 5; stroke-linecap: square"/>
   </g>
   <g id="line2d_29">
    <path d="M 477.5265 481.164 
L 419.1675 481.164 
" clip-path="url(#pa8f269ffce)" style="fill: none; stroke: #f44747; stroke-width: 5; stroke-linecap: square"/>
   </g>
   <g id="line2d_30">
    <path d="M 394.1565 481.164 
L 335.7975 481.164 
" clip-path="url(#pa8f269ffce)" style="fill: none; stroke: #f44747; stroke-width: 5; stroke-linecap: square"/>
   </g>
   <g id="line2d_31">
    <path d="M 156.552 385.2885 
L 156.552 326.9295 
" clip-path="url(#pa8f269ffce)" style="fill: none; stroke: #f44747; stroke-width: 5; stroke-linecap: square"/>
   </g>
   <g id="line2d_32">
    <path d="M 181.563 147.684 
L 298.281 147.684 
" clip-path="url(#pa8f269ffce)" style="fill: none; stroke: #f44747; stroke-width: 5; stroke-linecap: square"/>
   </g>
   <g id="line2d_33">
    <path d="M 156.552 289.413 
L 156.552 172.695 
" clip-path="url(#pa8f269ffce)" style="fill: none; stroke: #f44747; stroke-width: 5; stroke-linecap: square"/>
   </g>
   <g id="line2d_34">
    <path d="M 348.303 147.684 
L 465.021 147.684 
" clip-path="url(#pa8f269ffce)" style="fill: none; stroke: #f44747; stroke-width: 5; stroke-linecap: square"/>
   </g>
   <g id="line2d_35">
    <path d="M 323.292 481.164 
L 323.292 397.794 
L 239.922 397.794 
L 239.922 481.164 
L 323.292 481.164 
" clip-path="url(#pa8f269ffce)" style="fill: none; stroke: #252525; stroke-width: 3; stroke-linecap: square"/>
   </g>
   <g id="line2d_36">
    <path d="M 323.292 397.794 
L 323.292 314.424 
L 239.922 314.424 
L 239.922 397.794 
L 323.292 397.794 
" clip-path="url(#pa8f269ffce)" style="fill: none; stroke: #252525; stroke-width: 3; stroke-linecap: square"/>
   </g>
   <g id="line2d_37">
    <path d="M 239.922 397.794 
L 239.922 314.424 
L 156.552 314.424 
L 156.552 397.794 
L 239.922 397.794 
" clip-path="url(#pa8f269ffce)" style="fill: none; stroke: #252525; stroke-width: 3; stroke-linecap: square"/>
   </g>
   <g id="line2d_38">
    <path d="M 323.292 314.424 
L 323.292 147.684 
L 156.552 147.684 
L 156.552 314.424 
L 323.292 314.424 
" clip-path="url(#pa8f269ffce)" style="fill: none; stroke: #252525; stroke-width: 3; stroke-linecap: square"/>
   </g>
   <g id="line2d_39">
    <path d="M 490.032 314.424 
L 490.032 147.684 
L 323.292 147.684 
L 323.292 314.424 
L 490.032 314.424 
" clip-path="url(#pa8f269ffce)" style="fill: none; stroke: #252525; stroke-width: 3; stroke-linecap: square"/>
   </g>
   <g id="line2d_40">
    <path d="M 490.032 481.164 
L 490.032 314.424 
L 323.292 314.424 
L 323.292 481.164 
L 490.032 481.164 
" clip-path="url(#pa8f269ffce)" style="fill: none; stroke: #252525; stroke-width: 3; stroke-linecap: square"/>
   </g>
   <g id="line2d_41">
    <path d="M 656.772 481.164 
L 656.772 314.424 
L 490.032 314.424 
L 490.032 481.164 
L 656.772 481.164 
" clip-path="url(#pa8f269ffce)" style="fill: none; stroke: #252525; stroke-width: 3; stroke-linecap: square"/>
   </g>
   <g id="line2d_42">
    <path d="M 656.772 314.424 
L 656.772 147.684 
L 490.032 147.684 
L 490.032 314.424 
L 656.772 314.424 
" clip-path="url(#pa8f269ffce)" style="fill: none; stroke: #252525; stroke-width: 3; stroke-linecap: square"/>
   </g>
   <g id="line2d_43">
    <path d="M 823.512 314.424 
L 823.512 147.684 
L 656.772 147.684 
L 656.772 314.424 
L 823.512 314.424 
" clip-path="url(#pa8f269ffce)" style="fill: none; stroke: #252525; stroke-width: 3; stroke-linecap: square"/>
   </g>
   <g id="line2d_44">
    <path d="M 823.512 481.164 
L 823.512 314.424 
L 656.772 314.424 
L 656.772 481.164 
L 823.512 481.164 
" clip-path="url(#pa8f269ffce)" style="fill: none; stroke: #252525; stroke-width: 3; stroke-linecap: square"/>
   </g>
   <g id="line2d_45">
    <path d="M 823.512 647.904 
L 823.512 481.164 
L 656.772 481.164 
L 656.772 647.904 
L 823.512 647.904 
" clip-path="url(#pa8f269ffce)" style="fill: none; stroke: #252525; stroke-width: 3; stroke-linecap: square"/>
   </g>
   <g id="line2d_46">
    <path d="M 656.772 647.904 
L 656.772 481.164 
L 490.032 481.164 
L 490.032 647.904 
L 656.772 647.904 
" clip-path="url(#pa8f269ffce)" style="fill: none; stroke: #252525; stroke-width: 3; stroke-linecap: square"/>
   </g>
   <g id="line2d_47">
    <path d="M 656.772 731.274 
L 656.772 647.904 
L 573.402 647.904 
L 573.402 731.274 
L 656.772 731.274 
" clip-path="url(#pa8f269ffce)" style="fill: none; stroke: #252525; stroke-width: 3; stroke-linecap: square"/>
   </g>
   <g id="line2d_48">
    <path d="M 573.402 731.274 
L 573.402 647.904 
L 490.032 647.904 
L 490.032 731.274 
L 573.402 731.274 
" clip-path="url(#pa8f269ffce)" style="fill: none; stroke: #252525; stroke-width: 3; stroke-linecap: square"/>
   </g>
   <g id="line2d_49">
    <path d="M 573.402 814.644 
L 573.402 731.274 
L 490.032 731.274 
L 490.032 814.644 
L 573.402 814.644 
" clip-path="url(#pa8f269ffce)" style="fill: none; stroke: #252525; stroke-width: 3; stroke-linecap: square"/>
   </g>
   <g id="line2d_50">
    <path d="M 656.772 814.644 
L 656.772 731.274 
L 573.402 731.274 
L 573.402 814.644 
L 656.772 814.644 
" clip-path="url(#pa8f269ffce)" style="fill: none; stroke: #252525; stroke-width: 3; stroke-linecap: square"/>
   </g>
   <g id="line2d_51">
    <path d="M 823.512 814.644 
L 823.512 647.904 
L 656.772 647.904 
L 656.772 814.644 
L 823.512 814.644 
" clip-path="url(#pa8f269ffce)" style="fill: none; stroke: #252525; stroke-width: 3; stroke-linecap: square"/>
   </g>
   <g id="line2d_52">
    <path d="M 656.772 464.49 
L 656.772 331.098 
" clip-path="url(#pa8f269ffce)" style="fill: none; stroke: #569cd6; stroke-linecap: square"/>
   </g>
   <g id="line2d_53">
    <path d="M 640.098 314.424 
L 506.706 314.424 
" clip-path="url(#pa8f269ffce)" style="fill: none; stroke: #569cd6; stroke-linecap: square"/>
   </g>
   <g id="line2d_54">
    <path d="M 490.032 331.098 
L 490.032 464.49 
" clip-path="url(#pa8f269ffce)" style="fill: none; stroke: #569cd6; stroke-linecap: square"/>
   </g>
   <g id="line2d_55">
    <path d="M 506.706 481.164 
L 640.098 481.164 
" clip-path="url(#pa8f269ffce)" style="fill: none; stroke: #569cd6; stroke-linecap: square"/>
   </g>
   <g id="line2d_56">
    <path d="M 656.772 297.75 
L 656.772 164.358 
" clip-path="url(#pa8f269ffce)" style="fill: none; stroke: #569cd6; stroke-linecap: square"/>
   </g>
   <g id="line2d_57">
    <path d="M 640.098 147.684 
L 506.706 147.684 
" clip-path="url(#pa8f269ffce)" style="fill: none; stroke: #569cd6; stroke-linecap: square"/>
   </g>
   <g id="line2d_58">
    <path d="M 490.032 164.358 
L 490.032 297.75 
" clip-path="url(#pa8f269ffce)" style="fill: none; stroke: #569cd6; stroke-linecap: square"/>
   </g>
   <g id="line2d_59">
    <path d="M 823.512 297.75 
L 823.512 164.358 
" clip-path="url(#pa8f269ffce)" style="fill: none; stroke: #569cd6; stroke-linecap: square"/>
   </g>
   <g id="line2d_60">
    <path d="M 806.838 147.684 
L 673.446 147.684 
" clip-path="url(#pa8f269ffce)" style="fill: none; stroke: #569cd6; stroke-linecap: square"/>
   </g>
   <g id="line2d_61">
    <path d="M 673.446 314.424 
L 806.838 314.424 
" clip-path="url(#pa8f269ffce)" style="fill: none; stroke: #569cd6; stroke-linecap: square"/>
   </g>
   <g id="line2d_62">
    <path d="M 823.512 464.49 
L 823.512 331.098 
" clip-path="url(#pa8f269ffce)" style="fill: none; stroke: #569cd6; stroke-linecap: square"/>
   </g>
   <g id="line2d_63">
    <path d="M 673.446 481.164 
L 806.838 481.164 
" clip-path="url(#pa8f269ffce)" style="fill: none; stroke: #569cd6; stroke-linecap: square"/>
   </g>
   <g id="line2d_64">
    <path d="M 823.512 631.23 
L 823.512 497.838 
" clip-path="url(#pa8f269ffce)" style="fill: none; stroke: #569cd6; stroke-linecap: square"/>
   </g>
   <g id="line2d_65">
    <path d="M 656.772 497.838 
L 656.772 631.23 
" clip-path="url(#pa8f269ffce)" style="fill: none; stroke: #569cd6; stroke-linecap: square"/>
   </g>
   <g id="line2d_66">
    <path d="M 673.446 647.904 
L 806.838 647.904 
" clip-path="url(#pa8f269ffce)" style="fill: none; stroke: #569cd6; stroke-linecap: square"/>
   </g>
   <g id="line2d_67">
    <path d="M 490.032 489.501 
L 490.032 556.197 
" clip-path="url(#pa8f269ffce)" style="fill: none; stroke: #569cd6; stroke-linecap: square"/>
   </g>
   <g id="line2d_68">
    <path d="M 498.369 647.904 
L 565.065 647.904 
" clip-path="url(#pa8f269ffce)" style="fill: none; stroke: #569cd6; stroke-linecap: square"/>
   </g>
   <g id="line2d_69">
    <path d="M 656.772 806.307 
L 656.772 739.611 
" clip-path="url(#pa8f269ffce)" style="fill: none; stroke: #569cd6; stroke-linecap: square"/>
   </g>
   <g id="line2d_70">
    <path d="M 490.032 656.241 
L 490.032 722.937 
" clip-path="url(#pa8f269ffce)" style="fill: none; stroke: #569cd6; stroke-linecap: square"/>
   </g>
   <g id="line2d_71">
    <path d="M 498.369 814.644 
L 565.065 814.644 
" clip-path="url(#pa8f269ffce)" style="fill: none; stroke: #569cd6; stroke-linecap: square"/>
   </g>
   <g id="line2d_72">
    <path d="M 823.512 797.97 
L 823.512 664.578 
" clip-path="url(#pa8f269ffce)" style="fill: none; stroke: #569cd6; stroke-linecap: square"/>
   </g>
   <g id="line2d_73">
    <path d="M 673.446 814.644 
L 806.838 814.644 
" clip-path="url(#pa8f269ffce)" style="fill: none; stroke: #569cd6; stroke-linecap: square"/>
   </g>
   <g id="line2d_74">
    <path d="M 648.435 731.274 
L 581.739 731.274 
" clip-path="url(#pa8f269ffce)" style="fill: none; stroke: #569cd6; stroke-linecap: square"/>
   </g>
   <g id="line2d_75">
    <path d="M 573.402 656.241 
L 573.402 722.937 
" clip-path="url(#pa8f269ffce)" style="fill: none; stroke: #569cd6; stroke-linecap: square"/>
   </g>
   <g id="line2d_76">
    <path d="M 498.369 731.274 
L 565.065 731.274 
" clip-path="url(#pa8f269ffce)" style="fill: none; stroke: #569cd6; stroke-linecap: square"/>
   </g>
   <g id="line2d_77">
    <path d="M 573.402 806.307 
L 573.402 739.611 
" clip-path="url(#pa8f269ffce)" style="fill: none; stroke: #569cd6; stroke-linecap: square"/>
   </g>
   <g id="line2d_78">
    <path d="M 490.032 572.871 
L 490.032 639.567 
" clip-path="url(#pa8f269ffce)" style="fill: none; stroke: #569cd6; stroke-linecap: square"/>
   </g>
   <g id="line2d_79">
    <path d="M 581.739 647.904 
L 648.435 647.904 
" clip-path="url(#pa8f269ffce)" style="fill: none; stroke: #569cd6; stroke-linecap: square"/>
   </g>
   <g id="line2d_80">
    <path d="M 656.772 722.937 
L 656.772 656.241 
" clip-path="url(#pa8f269ffce)" style="fill: none; stroke: #569cd6; stroke-linecap: square"/>
   </g>
   <g id="line2d_81">
    <path d="M 490.032 739.611 
L 490.032 806.307 
" clip-path="url(#pa8f269ffce)" style="fill: none; stroke: #569cd6; stroke-linecap: square"/>
   </g>
   <g id="line2d_82">
    <path d="M 581.739 814.644 
L 648.435 814.644 
" clip-path="url(#pa8f269ffce)" style="fill: none; stroke: #569cd6; stroke-linecap: square"/>
   </g>
   <g id="line2d_83">
    <path d="M 323.292 472.827 
L 323.292 406.131 
" clip-path="url(#pa8f269ffce)" style="fill: none; stroke: #569cd6; stroke-linecap: square"/>
   </g>
   <g id="line2d_84">
    <path d="M 314.955 397.794 
L 248.259 397.794 
" clip-path="url(#pa8f269ffce)" style="fill: none; stroke: #569cd6; stroke-linecap: square"/>
   </g>
   <g id="line2d_85">
    <path d="M 239.922 406.131 
L 239.922 472.827 
" clip-path="url(#pa8f269ffce)" style="fill: none; stroke: #569cd6; stroke-linecap: square"/>
   </g>
   <g id="line2d_86">
    <path d="M 248.259 481.164 
L 314.955 481.164 
" clip-path="url(#pa8f269ffce)" style="fill: none; stroke: #569cd6; stroke-linecap: square"/>
   </g>
   <g id="line2d_87">
    <path d="M 323.292 389.457 
L 323.292 322.761 
" clip-path="url(#pa8f269ffce)" style="fill: none; stroke: #569cd6; stroke-linecap: square"/>
   </g>
   <g id="line2d_88">
    <path d="M 314.955 314.424 
L 248.259 314.424 
" clip-path="url(#pa8f269ffce)" style="fill: none; stroke: #569cd6; stroke-linecap: square"/>
   </g>
   <g id="line2d_89">
    <path d="M 239.922 322.761 
L 239.922 389.457 
" clip-path="url(#pa8f269ffce)" style="fill: none; stroke: #569cd6; stroke-linecap: square"/>
   </g>
   <g id="line2d_90">
    <path d="M 231.585 314.424 
L 164.889 314.424 
" clip-path="url(#pa8f269ffce)" style="fill: none; stroke: #569cd6; stroke-linecap: square"/>
   </g>
   <g id="line2d_91">
    <path d="M 156.552 322.761 
L 156.552 389.457 
" clip-path="url(#pa8f269ffce)" style="fill: none; stroke: #569cd6; stroke-linecap: square"/>
   </g>
   <g id="line2d_92">
    <path d="M 164.889 397.794 
L 231.585 397.794 
" clip-path="url(#pa8f269ffce)" style="fill: none; stroke: #569cd6; stroke-linecap: square"/>
   </g>
   <g id="line2d_93">
    <path d="M 323.292 297.75 
L 323.292 164.358 
" clip-path="url(#pa8f269ffce)" style="fill: none; stroke: #569cd6; stroke-linecap: square"/>
   </g>
   <g id="line2d_94">
    <path d="M 306.618 147.684 
L 173.226 147.684 
" clip-path="url(#pa8f269ffce)" style="fill: none; stroke: #569cd6; stroke-linecap: square"/>
   </g>
   <g id="line2d_95">
    <path d="M 156.552 164.358 
L 156.552 297.75 
" clip-path="url(#pa8f269ffce)" style="fill: none; stroke: #569cd6; stroke-linecap: square"/>
   </g>
   <g id="line2d_96">
    <path d="M 473.358 147.684 
L 339.966 147.684 
" clip-path="url(#pa8f269ffce)" style="fill: none; stroke: #569cd6; stroke-linecap: square"/>
   </g>
   <g id="line2d_97">
    <path d="M 339.966 314.424 
L 473.358 314.424 
" clip-path="url(#pa8f269ffce)" style="fill: none; stroke: #569cd6; stroke-linecap: square"/>
   </g>
   <g id="line2d_98">
    <path d="M 414.999 481.164 
L 481.695 481.164 
" clip-path="url(#pa8f269ffce)" style="fill: none; stroke: #569cd6; stroke-linecap: square"/>
   </g>
   <g id="line2d_99">
    <path d="M 331.629 481.164 
L 398.325 481.164 
" clip-path="url(#pa8f269ffce)" style="fill: none; stroke: #569cd6; stroke-linecap: square"/>
   </g>
   <g id="line2d_100">
    <defs>
     <path id="m37767ca5fb" d="M 0 3 
C 0.795609 3 1.55874 2.683901 2.12132 2.12132 
C 2.683901 1.55874 3 0.795609 3 0 
C 3 -0.795609 2.683901 -1.55874 2.12132 -2.12132 
C 1.55874 -2.683901 0.795609 -3 0 -3 
C -0.795609 -3 -1.55874 -2.683901 -2.12132 -2.12132 
C -2.683901 -1.55874 -3 -0.795609 -3 0 
C -3 0.795609 -2.683901 1.55874 -2.12132 2.12132 
C -1.55874 2.683901 -0.795609 3 0 3 
z
" style="stroke: #c586c0"/>
    </defs>
    <g clip-path="url(#pa8f269ffce)">
     <use xlink:href="#m37767ca5fb" x="490.032" y="814.644" style="fill: #c586c0; stroke: #c586c0"/>
     <use xlink:href="#m37767ca5fb" x="490.032" y="647.904" style="fill: #c586c0; stroke: #c586c0"/>
     <use xlink:href="#m37767ca5fb" x="490.032" y="481.164" style="fill: #c586c0; stroke: #c586c0"/>
     <use xlink:href="#m37767ca5fb" x="490.032" y="314.424" style="fill: #c586c0; stroke: #c586c0"/>
     <use xlink:href="#m37767ca5fb" x="490.032" y="147.684" style="fill: #c586c0; stroke: #c586c0"/>
     <use xlink:href="#m37767ca5fb" x="656.772" y="814.644" style="fill: #c586c0; stroke: #c586c0"/>
     <use xlink:href="#m37767ca5fb" x="656.772" y="647.904" style="fill: #c586c0; stroke: #c586c0"/>
     <use xlink:href="#m37767ca5fb" x="656.772" y="481.164" style="fill: #c586c0; stroke: #c586c0"/>
     <use xlink:href="#m37767ca5fb" x="656.772" y="314.424" style="fill: #c586c0; stroke: #c586c0"/>
     <use xlink:href="#m37767ca5fb" x="656.772" y="147.684" style="fill: #c586c0; stroke: #c586c0"/>
     <use xlink:href="#m37767ca5fb" x="823.512" y="814.644" style="fill: #c586c0; stroke: #c586c0"/>
     <use xlink:href="#m37767ca5fb" x="823.512" y="647.904" style="fill: #c586c0; stroke: #c586c0"/>
     <use xlink:href="#m37767ca5fb" x="823.512" y="481.164" style="fill: #c586c0; stroke: #c586c0"/>
     <use xlink:href="#m37767ca5fb" x="823.512" y="314.424" style="fill: #c586c0; stroke: #c586c0"/>
     <use xlink:href="#m37767ca5fb" x="823.512" y="147.684" style="fill: #c586c0; stroke: #c586c0"/>
     <use xlink:href="#m37767ca5fb" x="573.402" y="731.274" style="fill: #c586c0; stroke: #c586c0"/>
     <use xlink:href="#m37767ca5fb" x="490.032" y="564.534" style="fill: #c586c0; stroke: #c586c0"/>
     <use xlink:href="#m37767ca5fb" x="573.402" y="647.904" style="fill: #c586c0; stroke: #c586c0"/>
     <use xlink:href="#m37767ca5fb" x="656.772" y="731.274" style="fill: #c586c0; stroke: #c586c0"/>
     <use xlink:href="#m37767ca5fb" x="490.032" y="731.274" style="fill: #c586c0; stroke: #c586c0"/>
     <use xlink:href="#m37767ca5fb" x="573.402" y="814.644" style="fill: #c586c0; stroke: #c586c0"/>
     <use xlink:href="#m37767ca5fb" x="323.292" y="481.164" style="fill: #c586c0; stroke: #c586c0"/>
     <use xlink:href="#m37767ca5fb" x="323.292" y="397.794" style="fill: #c586c0; stroke: #c586c0"/>
     <use xlink:href="#m37767ca5fb" x="239.922" y="397.794" style="fill: #c586c0; stroke: #c586c0"/>
     <use xlink:href="#m37767ca5fb" x="239.922" y="481.164" style="fill: #c586c0; stroke: #c586c0"/>
     <use xlink:href="#m37767ca5fb" x="323.292" y="314.424" style="fill: #c586c0; stroke: #c586c0"/>
     <use xlink:href="#m37767ca5fb" x="239.922" y="314.424" style="fill: #c586c0; stroke: #c586c0"/>
     <use xlink:href="#m37767ca5fb" x="156.552" y="314.424" style="fill: #c586c0; stroke: #c586c0"/>
     <use xlink:href="#m37767ca5fb" x="156.552" y="397.794" style="fill: #c586c0; stroke: #c586c0"/>
     <use xlink:href="#m37767ca5fb" x="323.292" y="147.684" style="fill: #c586c0; stroke: #c586c0"/>
     <use xlink:href="#m37767ca5fb" x="156.552" y="147.684" style="fill: #c586c0; stroke: #c586c0"/>
     <use xlink:href="#m37767ca5fb" x="406.662" y="481.164" style="fill: #c586c0; stroke: #c586c0"/>
    </g>
   </g>
   <g id="line2d_101">
    <path d="M 281.607 439.479 
L 281.607 356.109 
L 198.237 356.109 
L 239.922 231.054 
L 406.662 231.054 
L 406.662 397.794 
L 573.402 397.794 
L 573.402 231.054 
L 740.142 231.054 
L 740.142 397.794 
L 740.142 564.534 
L 573.402 564.534 
L 615.087 689.589 
L 531.717 689.589 
L 531.717 772.959 
L 615.087 772.959 
L 740.142 731.274 
" clip-path="url(#pa8f269ffce)" style="fill: none; stroke: #6a9955; stroke-width: 5; stroke-linecap: square"/>
   </g>
   <g id="patch_3">
    <path d="M 123.204 847.992 
L 123.204 114.336 
" style="fill: none; stroke: #000000; stroke-width: 0.8; stroke-linejoin: miter; stroke-linecap: square"/>
   </g>
   <g id="patch_4">
    <path d="M 856.86 847.992 
L 856.86 114.336 
" style="fill: none; stroke: #000000; stroke-width: 0.8; stroke-linejoin: miter; stroke-linecap: square"/>
   </g>
   <g id="patch_5">
    <path d="M 123.204 847.992 
L 856.86 847.992 
" style="fill: none; stroke: #000000; stroke-width: 0.8; stroke-linejoin: miter; stroke-linecap: square"/>
   </g>
   <g id="patch_6">
    <path d="M 123.204 114.336 
L 856.86 114.336 
" style="fill: none; stroke: #000000; stroke-width: 0.8; stroke-linejoin: miter; stroke-linecap: square"/>
   </g>
   <g id="text_15">
    <!-- 0 -->
    <g style="fill: #252525" transform="translate(277.407 443.163844)scale(0.14 -0.14)">
     <defs>
      <path id="FiraCode-Regular-30" d="M 1920 4477 
Q 2630 4477 2996 3888 
Q 3363 3299 3363 2205 
Q 3363 1107 2996 516 
Q 2630 -74 1920 -74 
Q 1210 -74 843 516 
Q 477 1107 477 2205 
Q 477 3299 843 3888 
Q 1210 4477 1920 4477 
z
M 1920 4045 
Q 1514 4045 1280 3614 
Q 1046 3184 1046 2205 
Q 1046 1472 1158 1053 
L 2506 3760 
Q 2304 4045 1920 4045 
z
M 2797 2205 
Q 2797 2944 2682 3360 
L 1341 643 
Q 1542 362 1920 362 
Q 2330 362 2563 794 
Q 2797 1226 2797 2205 
z
" transform="scale(0.015625)"/>
     </defs>
     <use xlink:href="#FiraCode-Regular-30"/>
    </g>
   </g>
   <g id="text_16">
    <!-- 1 -->
    <g style="fill: #252525" transform="translate(277.407 359.793844)scale(0.14 -0.14)">
     <defs>
      <path id="FiraCode-Regular-31" d="M 3312 438 
L 3312 0 
L 768 0 
L 768 438 
L 1853 438 
L 1853 3824 
L 842 3210 
L 608 3594 
L 1920 4406 
L 2390 4406 
L 2390 438 
L 3312 438 
z
" transform="scale(0.015625)"/>
     </defs>
     <use xlink:href="#FiraCode-Regular-31"/>
    </g>
   </g>
   <g id="text_17">
    <!-- 2 -->
    <g style="fill: #252525" transform="translate(194.037 359.793844)scale(0.14 -0.14)">
     <defs>
      <path id="FiraCode-Regular-32" d="M 1725 4477 
Q 2141 4477 2438 4315 
Q 2736 4154 2894 3875 
Q 3053 3597 3053 3248 
Q 3053 2944 2947 2654 
Q 2842 2365 2610 2046 
Q 2378 1728 2000 1341 
Q 1622 954 1078 458 
L 3155 458 
L 3088 0 
L 467 0 
L 467 438 
Q 1091 1037 1486 1449 
Q 1882 1862 2099 2161 
Q 2317 2461 2401 2710 
Q 2486 2960 2486 3229 
Q 2486 3600 2278 3814 
Q 2070 4029 1699 4029 
Q 1373 4029 1165 3917 
Q 957 3805 749 3558 
L 378 3846 
Q 640 4166 958 4321 
Q 1277 4477 1725 4477 
z
" transform="scale(0.015625)"/>
     </defs>
     <use xlink:href="#FiraCode-Regular-32"/>
    </g>
   </g>
   <g id="text_18">
    <!-- 3 -->
    <g style="fill: #252525" transform="translate(235.722 234.738844)scale(0.14 -0.14)">
     <defs>
      <path id="FiraCode-Regular-33" d="M 1718 4477 
Q 2134 4477 2438 4326 
Q 2742 4176 2907 3926 
Q 3072 3677 3072 3376 
Q 3072 3107 2953 2891 
Q 2835 2675 2640 2534 
Q 2445 2394 2211 2349 
Q 2470 2330 2699 2203 
Q 2928 2077 3070 1843 
Q 3213 1610 3213 1270 
Q 3213 890 3021 584 
Q 2829 278 2485 102 
Q 2141 -74 1683 -74 
Q 1312 -74 947 67 
Q 582 208 330 515 
L 691 810 
Q 880 589 1141 480 
Q 1402 371 1670 371 
Q 2131 371 2390 612 
Q 2650 854 2650 1270 
Q 2650 1741 2389 1923 
Q 2128 2106 1738 2106 
L 1366 2106 
L 1434 2531 
L 1693 2531 
Q 1907 2531 2097 2614 
Q 2288 2698 2409 2867 
Q 2531 3037 2531 3299 
Q 2531 3664 2288 3856 
Q 2045 4048 1699 4048 
Q 1411 4048 1196 3947 
Q 982 3846 765 3642 
L 467 3971 
Q 749 4237 1065 4357 
Q 1382 4477 1718 4477 
z
" transform="scale(0.015625)"/>
     </defs>
     <use xlink:href="#FiraCode-Regular-33"/>
    </g>
   </g>
   <g id="text_19">
    <!-- 4 -->
    <g style="fill: #252525" transform="translate(402.462 234.738844)scale(0.14 -0.14)">
     <defs>
      <path id="FiraCode-Regular-34" d="M 2813 2752 
L 2813 1501 
L 3382 1501 
L 3382 1072 
L 2813 1072 
L 2813 0 
L 2294 0 
L 2291 1072 
L 461 1072 
L 461 1462 
L 1754 4477 
L 2202 4288 
L 1030 1501 
L 2294 1501 
L 2365 2752 
L 2813 2752 
z
" transform="scale(0.015625)"/>
     </defs>
     <use xlink:href="#FiraCode-Regular-34"/>
    </g>
   </g>
   <g id="text_20">
    <!-- 5 -->
    <g style="fill: #252525" transform="translate(402.462 401.478844)scale(0.14 -0.14)">
     <defs>
      <path id="FiraCode-Regular-35" d="M 3117 4406 
L 3037 3978 
L 1296 3978 
L 1296 2589 
Q 1498 2694 1678 2736 
Q 1859 2778 2058 2778 
Q 2595 2778 2928 2416 
Q 3261 2054 3261 1395 
Q 3261 954 3077 624 
Q 2893 294 2558 110 
Q 2224 -74 1770 -74 
Q 1373 -74 1061 67 
Q 749 208 493 458 
L 826 778 
Q 1219 371 1776 371 
Q 2211 371 2454 635 
Q 2698 899 2698 1411 
Q 2698 1766 2592 1971 
Q 2486 2176 2305 2264 
Q 2125 2352 1904 2352 
Q 1709 2352 1558 2313 
Q 1408 2275 1216 2205 
L 784 2205 
L 784 4406 
L 3117 4406 
z
" transform="scale(0.015625)"/>
     </defs>
     <use xlink:href="#FiraCode-Regular-35"/>
    </g>
   </g>
   <g id="text_21">
    <!-- 6 -->
    <g style="fill: #252525" transform="translate(569.202 401.478844)scale(0.14 -0.14)">
     <defs>
      <path id="FiraCode-Regular-36" d="M 2147 4477 
Q 2400 4477 2616 4411 
Q 2832 4346 3018 4221 
L 2806 3856 
Q 2499 4042 2138 4042 
Q 1629 4042 1347 3562 
Q 1066 3082 1046 2275 
Q 1258 2589 1522 2729 
Q 1786 2870 2109 2870 
Q 2448 2870 2733 2718 
Q 3018 2566 3187 2259 
Q 3357 1952 3357 1482 
Q 3357 995 3169 646 
Q 2982 298 2667 112 
Q 2352 -74 1971 -74 
Q 1437 -74 1115 192 
Q 794 458 651 942 
Q 509 1427 509 2083 
Q 509 2813 702 3350 
Q 896 3888 1264 4182 
Q 1632 4477 2147 4477 
z
M 2026 2429 
Q 1709 2429 1462 2256 
Q 1216 2083 1053 1805 
Q 1069 1059 1285 710 
Q 1501 362 1968 362 
Q 2387 362 2596 658 
Q 2806 954 2806 1469 
Q 2806 2010 2592 2219 
Q 2378 2429 2026 2429 
z
" transform="scale(0.015625)"/>
     </defs>
     <use xlink:href="#FiraCode-Regular-36"/>
    </g>
   </g>
   <g id="text_22">
    <!-- 7 -->
    <g style="fill: #252525" transform="translate(569.202 234.738844)scale(0.14 -0.14)">
     <defs>
      <path id="FiraCode-Regular-37" d="M 1475 -61 
L 973 93 
L 2691 3958 
L 624 3958 
L 624 4406 
L 3232 4406 
L 3232 3994 
L 1475 -61 
z
" transform="scale(0.015625)"/>
     </defs>
     <use xlink:href="#FiraCode-Regular-37"/>
    </g>
   </g>
   <g id="text_23">
    <!-- 8 -->
    <g style="fill: #252525" transform="translate(735.942 234.738844)scale(0.14 -0.14)">
     <defs>
      <path id="FiraCode-Regular-38" d="M 3242 3357 
Q 3242 3034 3043 2800 
Q 2845 2566 2477 2365 
Q 2909 2186 3165 1886 
Q 3421 1587 3421 1181 
Q 3421 822 3235 537 
Q 3050 253 2710 89 
Q 2371 -74 1907 -74 
Q 1437 -74 1104 91 
Q 771 256 595 537 
Q 419 819 419 1171 
Q 419 1578 660 1856 
Q 902 2134 1302 2320 
Q 954 2486 776 2723 
Q 598 2960 598 3328 
Q 598 3632 721 3849 
Q 845 4067 1041 4206 
Q 1238 4346 1470 4411 
Q 1702 4477 1920 4477 
Q 2240 4477 2544 4360 
Q 2848 4243 3045 3995 
Q 3242 3747 3242 3357 
z
M 1130 3322 
Q 1130 3069 1246 2923 
Q 1363 2778 1580 2686 
Q 1798 2595 2096 2499 
Q 2403 2672 2556 2854 
Q 2710 3037 2710 3338 
Q 2710 3670 2504 3865 
Q 2298 4061 1920 4061 
Q 1546 4061 1338 3865 
Q 1130 3670 1130 3322 
z
M 2854 1174 
Q 2854 1472 2704 1645 
Q 2554 1818 2288 1933 
Q 2022 2048 1674 2166 
Q 1402 2042 1194 1813 
Q 986 1584 986 1168 
Q 986 794 1216 578 
Q 1446 362 1904 362 
Q 2365 362 2609 594 
Q 2854 826 2854 1174 
z
" transform="scale(0.015625)"/>
     </defs>
     <use xlink:href="#FiraCode-Regular-38"/>
    </g>
   </g>
   <g id="text_24">
    <!-- 9 -->
    <g style="fill: #252525" transform="translate(735.942 401.478844)scale(0.14 -0.14)">
     <defs>
      <path id="FiraCode-Regular-39" d="M 1853 4470 
Q 2573 4470 2931 3984 
Q 3290 3498 3290 2669 
Q 3290 2000 3154 1539 
Q 3018 1078 2733 768 
Q 2448 458 2003 246 
Q 1558 35 941 -134 
L 816 275 
Q 1427 445 1838 678 
Q 2250 912 2467 1265 
Q 2685 1619 2717 2141 
Q 2525 1907 2272 1761 
Q 2019 1616 1686 1616 
Q 1318 1616 1035 1784 
Q 752 1952 589 2267 
Q 426 2582 426 3024 
Q 426 3494 618 3817 
Q 810 4141 1133 4305 
Q 1456 4470 1853 4470 
z
M 982 3005 
Q 982 2499 1195 2272 
Q 1408 2045 1786 2045 
Q 2083 2045 2308 2198 
Q 2534 2352 2730 2618 
Q 2720 3395 2505 3715 
Q 2291 4035 1853 4035 
Q 982 4035 982 3005 
z
" transform="scale(0.015625)"/>
     </defs>
     <use xlink:href="#FiraCode-Regular-39"/>
    </g>
   </g>
   <g id="text_25">
    <!-- 10 -->
    <g style="fill: #252525" transform="translate(731.742 568.218844)scale(0.14 -0.14)">
     <use xlink:href="#FiraCode-Regular-31"/>
     <use xlink:href="#FiraCode-Regular-30" x="60.000015"/>
    </g>
   </g>
   <g id="text_26">
    <!-- 11 -->
    <g style="fill: #252525" transform="translate(565.002 568.218844)scale(0.14 -0.14)">
     <use xlink:href="#FiraCode-Regular-31"/>
     <use xlink:href="#FiraCode-Regular-31" x="60.000015"/>
    </g>
   </g>
   <g id="text_27">
    <!-- 12 -->
    <g style="fill: #252525" transform="translate(606.687 693.273844)scale(0.14 -0.14)">
     <use xlink:href="#FiraCode-Regular-31"/>
     <use xlink:href="#FiraCode-Regular-32" x="60.000015"/>
    </g>
   </g>
   <g id="text_28">
    <!-- 13 -->
    <g style="fill: #252525" transform="translate(523.317 693.273844)scale(0.14 -0.14)">
     <use xlink:href="#FiraCode-Regular-31"/>
     <use xlink:href="#FiraCode-Regular-33" x="60.000015"/>
    </g>
   </g>
   <g id="text_29">
    <!-- 14 -->
    <g style="fill: #252525" transform="translate(523.317 776.643844)scale(0.14 -0.14)">
     <use xlink:href="#FiraCode-Regular-31"/>
     <use xlink:href="#FiraCode-Regular-34" x="60.000015"/>
    </g>
   </g>
   <g id="text_30">
    <!-- 15 -->
    <g style="fill: #252525" transform="translate(606.687 776.643844)scale(0.14 -0.14)">
     <use xlink:href="#FiraCode-Regular-31"/>
     <use xlink:href="#FiraCode-Regular-35" x="60.000015"/>
    </g>
   </g>
   <g id="text_31">
    <!-- 16 -->
    <g style="fill: #252525" transform="translate(731.742 734.958844)scale(0.14 -0.14)">
     <use xlink:href="#FiraCode-Regular-31"/>
     <use xlink:href="#FiraCode-Regular-36" x="60.000015"/>
    </g>
   </g>
   <g id="legend_1">
    <g id="patch_7">
     <path d="M 130.204 842.992 
L 241.161812 842.992 
Q 243.161812 842.992 243.161812 840.992 
L 243.161812 768.601375 
Q 243.161812 766.601375 241.161812 766.601375 
L 130.204 766.601375 
Q 128.204 766.601375 128.204 768.601375 
L 128.204 840.992 
Q 128.204 842.992 130.204 842.992 
z
" style="fill: #ffffff; opacity: 0.8; stroke: #cccccc; stroke-linejoin: miter"/>
    </g>
    <g id="line2d_102">
     <path d="M 132.204 774.699813 
L 142.204 774.699813 
L 152.204 774.699813 
" style="fill: none; stroke: #f44747; stroke-width: 5; stroke-linecap: square"/>
    </g>
    <g id="text_32">
     <!-- Ghost elements -->
     <g transform="translate(160.204 778.199813)scale(0.1 -0.1)">
      <defs>
       <path id="DejaVuSans-47" d="M 3809 666 
L 3809 1919 
L 2778 1919 
L 2778 2438 
L 4434 2438 
L 4434 434 
Q 4069 175 3628 42 
Q 3188 -91 2688 -91 
Q 1594 -91 976 548 
Q 359 1188 359 2328 
Q 359 3472 976 4111 
Q 1594 4750 2688 4750 
Q 3144 4750 3555 4637 
Q 3966 4525 4313 4306 
L 4313 3634 
Q 3963 3931 3569 4081 
Q 3175 4231 2741 4231 
Q 1884 4231 1454 3753 
Q 1025 3275 1025 2328 
Q 1025 1384 1454 906 
Q 1884 428 2741 428 
Q 3075 428 3337 486 
Q 3600 544 3809 666 
z
" transform="scale(0.015625)"/>
       <path id="DejaVuSans-68" d="M 3513 2113 
L 3513 0 
L 2938 0 
L 2938 2094 
Q 2938 2591 2744 2837 
Q 2550 3084 2163 3084 
Q 1697 3084 1428 2787 
Q 1159 2491 1159 1978 
L 1159 0 
L 581 0 
L 581 4863 
L 1159 4863 
L 1159 2956 
Q 1366 3272 1645 3428 
Q 1925 3584 2291 3584 
Q 2894 3584 3203 3211 
Q 3513 2838 3513 2113 
z
" transform="scale(0.015625)"/>
       <path id="DejaVuSans-6f" d="M 1959 3097 
Q 1497 3097 1228 2736 
Q 959 2375 959 1747 
Q 959 1119 1226 758 
Q 1494 397 1959 397 
Q 2419 397 2687 759 
Q 2956 1122 2956 1747 
Q 2956 2369 2687 2733 
Q 2419 3097 1959 3097 
z
M 1959 3584 
Q 2709 3584 3137 3096 
Q 3566 2609 3566 1747 
Q 3566 888 3137 398 
Q 2709 -91 1959 -91 
Q 1206 -91 779 398 
Q 353 888 353 1747 
Q 353 2609 779 3096 
Q 1206 3584 1959 3584 
z
" transform="scale(0.015625)"/>
       <path id="DejaVuSans-73" d="M 2834 3397 
L 2834 2853 
Q 2591 2978 2328 3040 
Q 2066 3103 1784 3103 
Q 1356 3103 1142 2972 
Q 928 2841 928 2578 
Q 928 2378 1081 2264 
Q 1234 2150 1697 2047 
L 1894 2003 
Q 2506 1872 2764 1633 
Q 3022 1394 3022 966 
Q 3022 478 2636 193 
Q 2250 -91 1575 -91 
Q 1294 -91 989 -36 
Q 684 19 347 128 
L 347 722 
Q 666 556 975 473 
Q 1284 391 1588 391 
Q 1994 391 2212 530 
Q 2431 669 2431 922 
Q 2431 1156 2273 1281 
Q 2116 1406 1581 1522 
L 1381 1569 
Q 847 1681 609 1914 
Q 372 2147 372 2553 
Q 372 3047 722 3315 
Q 1072 3584 1716 3584 
Q 2034 3584 2315 3537 
Q 2597 3491 2834 3397 
z
" transform="scale(0.015625)"/>
       <path id="DejaVuSans-74" d="M 1172 4494 
L 1172 3500 
L 2356 3500 
L 2356 3053 
L 1172 3053 
L 1172 1153 
Q 1172 725 1289 603 
Q 1406 481 1766 481 
L 2356 481 
L 2356 0 
L 1766 0 
Q 1100 0 847 248 
Q 594 497 594 1153 
L 594 3053 
L 172 3053 
L 172 3500 
L 594 3500 
L 594 4494 
L 1172 4494 
z
" transform="scale(0.015625)"/>
       <path id="DejaVuSans-20" transform="scale(0.015625)"/>
       <path id="DejaVuSans-65" d="M 3597 1894 
L 3597 1613 
L 953 1613 
Q 991 1019 1311 708 
Q 1631 397 2203 397 
Q 2534 397 2845 478 
Q 3156 559 3463 722 
L 3463 178 
Q 3153 47 2828 -22 
Q 2503 -91 2169 -91 
Q 1331 -91 842 396 
Q 353 884 353 1716 
Q 353 2575 817 3079 
Q 1281 3584 2069 3584 
Q 2775 3584 3186 3129 
Q 3597 2675 3597 1894 
z
M 3022 2063 
Q 3016 2534 2758 2815 
Q 2500 3097 2075 3097 
Q 1594 3097 1305 2825 
Q 1016 2553 972 2059 
L 3022 2063 
z
" transform="scale(0.015625)"/>
       <path id="DejaVuSans-6c" d="M 603 4863 
L 1178 4863 
L 1178 0 
L 603 0 
L 603 4863 
z
" transform="scale(0.015625)"/>
       <path id="DejaVuSans-6d" d="M 3328 2828 
Q 3544 3216 3844 3400 
Q 4144 3584 4550 3584 
Q 5097 3584 5394 3201 
Q 5691 2819 5691 2113 
L 5691 0 
L 5113 0 
L 5113 2094 
Q 5113 2597 4934 2840 
Q 4756 3084 4391 3084 
Q 3944 3084 3684 2787 
Q 3425 2491 3425 1978 
L 3425 0 
L 2847 0 
L 2847 2094 
Q 2847 2600 2669 2842 
Q 2491 3084 2119 3084 
Q 1678 3084 1418 2786 
Q 1159 2488 1159 1978 
L 1159 0 
L 581 0 
L 581 3500 
L 1159 3500 
L 1159 2956 
Q 1356 3278 1631 3431 
Q 1906 3584 2284 3584 
Q 2666 3584 2933 3390 
Q 3200 3197 3328 2828 
z
" transform="scale(0.015625)"/>
       <path id="DejaVuSans-6e" d="M 3513 2113 
L 3513 0 
L 2938 0 
L 2938 2094 
Q 2938 2591 2744 2837 
Q 2550 3084 2163 3084 
Q 1697 3084 1428 2787 
Q 1159 2491 1159 1978 
L 1159 0 
L 581 0 
L 581 3500 
L 1159 3500 
L 1159 2956 
Q 1366 3272 1645 3428 
Q 1925 3584 2291 3584 
Q 2894 3584 3203 3211 
Q 3513 2838 3513 2113 
z
" transform="scale(0.015625)"/>
      </defs>
      <use xlink:href="#DejaVuSans-47"/>
      <use xlink:href="#DejaVuSans-68" x="77.490234"/>
      <use xlink:href="#DejaVuSans-6f" x="140.869141"/>
      <use xlink:href="#DejaVuSans-73" x="202.050781"/>
      <use xlink:href="#DejaVuSans-74" x="254.150391"/>
      <use xlink:href="#DejaVuSans-20" x="293.359375"/>
      <use xlink:href="#DejaVuSans-65" x="325.146484"/>
      <use xlink:href="#DejaVuSans-6c" x="386.669922"/>
      <use xlink:href="#DejaVuSans-65" x="414.453125"/>
      <use xlink:href="#DejaVuSans-6d" x="475.976562"/>
      <use xlink:href="#DejaVuSans-65" x="573.388672"/>
      <use xlink:href="#DejaVuSans-6e" x="634.912109"/>
      <use xlink:href="#DejaVuSans-74" x="698.291016"/>
      <use xlink:href="#DejaVuSans-73" x="737.5"/>
     </g>
    </g>
    <g id="line2d_103">
     <path d="M 132.204 789.377937 
L 142.204 789.377937 
L 152.204 789.377937 
" style="fill: none; stroke: #252525; stroke-width: 3; stroke-linecap: square"/>
    </g>
    <g id="text_33">
     <!-- Elements -->
     <g transform="translate(160.204 792.877937)scale(0.1 -0.1)">
      <defs>
       <path id="DejaVuSans-45" d="M 628 4666 
L 3578 4666 
L 3578 4134 
L 1259 4134 
L 1259 2753 
L 3481 2753 
L 3481 2222 
L 1259 2222 
L 1259 531 
L 3634 531 
L 3634 0 
L 628 0 
L 628 4666 
z
" transform="scale(0.015625)"/>
      </defs>
      <use xlink:href="#DejaVuSans-45"/>
      <use xlink:href="#DejaVuSans-6c" x="63.183594"/>
      <use xlink:href="#DejaVuSans-65" x="90.966797"/>
      <use xlink:href="#DejaVuSans-6d" x="152.490234"/>
      <use xlink:href="#DejaVuSans-65" x="249.902344"/>
      <use xlink:href="#DejaVuSans-6e" x="311.425781"/>
      <use xlink:href="#DejaVuSans-74" x="374.804688"/>
      <use xlink:href="#DejaVuSans-73" x="414.013672"/>
     </g>
    </g>
    <g id="line2d_104">
     <path d="M 132.204 804.056063 
L 142.204 804.056063 
L 152.204 804.056063 
" style="fill: none; stroke: #569cd6; stroke-linecap: square"/>
    </g>
    <g id="text_34">
     <!-- Faces -->
     <g transform="translate(160.204 807.556063)scale(0.1 -0.1)">
      <defs>
       <path id="DejaVuSans-46" d="M 628 4666 
L 3309 4666 
L 3309 4134 
L 1259 4134 
L 1259 2759 
L 3109 2759 
L 3109 2228 
L 1259 2228 
L 1259 0 
L 628 0 
L 628 4666 
z
" transform="scale(0.015625)"/>
       <path id="DejaVuSans-61" d="M 2194 1759 
Q 1497 1759 1228 1600 
Q 959 1441 959 1056 
Q 959 750 1161 570 
Q 1363 391 1709 391 
Q 2188 391 2477 730 
Q 2766 1069 2766 1631 
L 2766 1759 
L 2194 1759 
z
M 3341 1997 
L 3341 0 
L 2766 0 
L 2766 531 
Q 2569 213 2275 61 
Q 1981 -91 1556 -91 
Q 1019 -91 701 211 
Q 384 513 384 1019 
Q 384 1609 779 1909 
Q 1175 2209 1959 2209 
L 2766 2209 
L 2766 2266 
Q 2766 2663 2505 2880 
Q 2244 3097 1772 3097 
Q 1472 3097 1187 3025 
Q 903 2953 641 2809 
L 641 3341 
Q 956 3463 1253 3523 
Q 1550 3584 1831 3584 
Q 2591 3584 2966 3190 
Q 3341 2797 3341 1997 
z
" transform="scale(0.015625)"/>
       <path id="DejaVuSans-63" d="M 3122 3366 
L 3122 2828 
Q 2878 2963 2633 3030 
Q 2388 3097 2138 3097 
Q 1578 3097 1268 2742 
Q 959 2388 959 1747 
Q 959 1106 1268 751 
Q 1578 397 2138 397 
Q 2388 397 2633 464 
Q 2878 531 3122 666 
L 3122 134 
Q 2881 22 2623 -34 
Q 2366 -91 2075 -91 
Q 1284 -91 818 406 
Q 353 903 353 1747 
Q 353 2603 823 3093 
Q 1294 3584 2113 3584 
Q 2378 3584 2631 3529 
Q 2884 3475 3122 3366 
z
" transform="scale(0.015625)"/>
      </defs>
      <use xlink:href="#DejaVuSans-46"/>
      <use xlink:href="#DejaVuSans-61" x="48.394531"/>
      <use xlink:href="#DejaVuSans-63" x="109.673828"/>
      <use xlink:href="#DejaVuSans-65" x="164.654297"/>
      <use xlink:href="#DejaVuSans-73" x="226.177734"/>
     </g>
    </g>
    <g id="line2d_105">
     <g>
      <use xlink:href="#m37767ca5fb" x="142.204" y="818.734187" style="fill: #c586c0; stroke: #c586c0"/>
     </g>
    </g>
    <g id="text_35">
     <!-- Nodes -->
     <g transform="translate(160.204 822.234187)scale(0.1 -0.1)">
      <defs>
       <path id="DejaVuSans-4e" d="M 628 4666 
L 1478 4666 
L 3547 763 
L 3547 4666 
L 4159 4666 
L 4159 0 
L 3309 0 
L 1241 3903 
L 1241 0 
L 628 0 
L 628 4666 
z
" transform="scale(0.015625)"/>
       <path id="DejaVuSans-64" d="M 2906 2969 
L 2906 4863 
L 3481 4863 
L 3481 0 
L 2906 0 
L 2906 525 
Q 2725 213 2448 61 
Q 2172 -91 1784 -91 
Q 1150 -91 751 415 
Q 353 922 353 1747 
Q 353 2572 751 3078 
Q 1150 3584 1784 3584 
Q 2172 3584 2448 3432 
Q 2725 3281 2906 2969 
z
M 947 1747 
Q 947 1113 1208 752 
Q 1469 391 1925 391 
Q 2381 391 2643 752 
Q 2906 1113 2906 1747 
Q 2906 2381 2643 2742 
Q 2381 3103 1925 3103 
Q 1469 3103 1208 2742 
Q 947 2381 947 1747 
z
" transform="scale(0.015625)"/>
      </defs>
      <use xlink:href="#DejaVuSans-4e"/>
      <use xlink:href="#DejaVuSans-6f" x="74.804688"/>
      <use xlink:href="#DejaVuSans-64" x="135.986328"/>
      <use xlink:href="#DejaVuSans-65" x="199.462891"/>
      <use xlink:href="#DejaVuSans-73" x="260.986328"/>
     </g>
    </g>
    <g id="line2d_106">
     <path d="M 132.204 833.412312 
L 142.204 833.412312 
L 152.204 833.412312 
" style="fill: none; stroke: #6a9955; stroke-width: 5; stroke-linecap: square"/>
    </g>
    <g id="text_36">
     <!-- Hilbert curve -->
     <g transform="translate(160.204 836.912312)scale(0.1 -0.1)">
      <defs>
       <path id="DejaVuSans-48" d="M 628 4666 
L 1259 4666 
L 1259 2753 
L 3553 2753 
L 3553 4666 
L 4184 4666 
L 4184 0 
L 3553 0 
L 3553 2222 
L 1259 2222 
L 1259 0 
L 628 0 
L 628 4666 
z
" transform="scale(0.015625)"/>
       <path id="DejaVuSans-69" d="M 603 3500 
L 1178 3500 
L 1178 0 
L 603 0 
L 603 3500 
z
M 603 4863 
L 1178 4863 
L 1178 4134 
L 603 4134 
L 603 4863 
z
" transform="scale(0.015625)"/>
       <path id="DejaVuSans-62" d="M 3116 1747 
Q 3116 2381 2855 2742 
Q 2594 3103 2138 3103 
Q 1681 3103 1420 2742 
Q 1159 2381 1159 1747 
Q 1159 1113 1420 752 
Q 1681 391 2138 391 
Q 2594 391 2855 752 
Q 3116 1113 3116 1747 
z
M 1159 2969 
Q 1341 3281 1617 3432 
Q 1894 3584 2278 3584 
Q 2916 3584 3314 3078 
Q 3713 2572 3713 1747 
Q 3713 922 3314 415 
Q 2916 -91 2278 -91 
Q 1894 -91 1617 61 
Q 1341 213 1159 525 
L 1159 0 
L 581 0 
L 581 4863 
L 1159 4863 
L 1159 2969 
z
" transform="scale(0.015625)"/>
       <path id="DejaVuSans-72" d="M 2631 2963 
Q 2534 3019 2420 3045 
Q 2306 3072 2169 3072 
Q 1681 3072 1420 2755 
Q 1159 2438 1159 1844 
L 1159 0 
L 581 0 
L 581 3500 
L 1159 3500 
L 1159 2956 
Q 1341 3275 1631 3429 
Q 1922 3584 2338 3584 
Q 2397 3584 2469 3576 
Q 2541 3569 2628 3553 
L 2631 2963 
z
" transform="scale(0.015625)"/>
       <path id="DejaVuSans-75" d="M 544 1381 
L 544 3500 
L 1119 3500 
L 1119 1403 
Q 1119 906 1312 657 
Q 1506 409 1894 409 
Q 2359 409 2629 706 
Q 2900 1003 2900 1516 
L 2900 3500 
L 3475 3500 
L 3475 0 
L 2900 0 
L 2900 538 
Q 2691 219 2414 64 
Q 2138 -91 1772 -91 
Q 1169 -91 856 284 
Q 544 659 544 1381 
z
M 1991 3584 
L 1991 3584 
z
" transform="scale(0.015625)"/>
       <path id="DejaVuSans-76" d="M 191 3500 
L 800 3500 
L 1894 563 
L 2988 3500 
L 3597 3500 
L 2284 0 
L 1503 0 
L 191 3500 
z
" transform="scale(0.015625)"/>
      </defs>
      <use xlink:href="#DejaVuSans-48"/>
      <use xlink:href="#DejaVuSans-69" x="75.195312"/>
      <use xlink:href="#DejaVuSans-6c" x="102.978516"/>
      <use xlink:href="#DejaVuSans-62" x="130.761719"/>
      <use xlink:href="#DejaVuSans-65" x="194.238281"/>
      <use xlink:href="#DejaVuSans-72" x="255.761719"/>
      <use xlink:href="#DejaVuSans-74" x="296.875"/>
      <use xlink:href="#DejaVuSans-20" x="336.083984"/>
      <use xlink:href="#DejaVuSans-63" x="367.871094"/>
      <use xlink:href="#DejaVuSans-75" x="422.851562"/>
      <use xlink:href="#DejaVuSans-72" x="486.230469"/>
      <use xlink:href="#DejaVuSans-76" x="527.34375"/>
      <use xlink:href="#DejaVuSans-65" x="586.523438"/>
     </g>
    </g>
   </g>
  </g>
 </g>
 <defs>
  <clipPath id="pa8f269ffce">
   <rect x="123.204" y="114.336" width="733.656" height="733.656"/>
  </clipPath>
 </defs>
</svg>
