<?xml version="1.0" encoding="utf-8" standalone="no"?>
<!DOCTYPE svg PUBLIC "-//W3C//DTD SVG 1.1//EN"
  "http://www.w3.org/Graphics/SVG/1.1/DTD/svg11.dtd">
<svg xmlns:xlink="http://www.w3.org/1999/xlink" width="247.2pt" height="345.6pt" viewBox="0 0 247.2 345.6" xmlns="http://www.w3.org/2000/svg" version="1.1">
 <metadata>
  <rdf:RDF xmlns:dc="http://purl.org/dc/elements/1.1/" xmlns:cc="http://creativecommons.org/ns#" xmlns:rdf="http://www.w3.org/1999/02/22-rdf-syntax-ns#">
   <cc:Work>
    <dc:type rdf:resource="http://purl.org/dc/dcmitype/StillImage"/>
    <dc:date>2022-01-17T16:47:17.814844</dc:date>
    <dc:format>image/svg+xml</dc:format>
    <dc:creator>
     <cc:Agent>
      <dc:title>Matplotlib v3.5.0, https://matplotlib.org/</dc:title>
     </cc:Agent>
    </dc:creator>
   </cc:Work>
  </rdf:RDF>
 </metadata>
 <defs>
  <style type="text/css">*{stroke-linejoin: round; stroke-linecap: butt}</style>
 </defs>
 <g id="figure_1">
  <g id="patch_1">
   <path d="M 0 345.6 
L 247.2 345.6 
L 247.2 0 
L 0 0 
z
" style="fill: #ffffff"/>
  </g>
  <g id="axes_1">
   <g id="patch_2">
    <path d="M 37.986 307.584 
L 215.394 307.584 
L 215.394 41.472 
L 37.986 41.472 
z
" style="fill: #ffffff"/>
   </g>
   <g id="matplotlib.axis_1">
    <g id="xtick_1">
     <g id="line2d_1">
      <defs>
       <path id="m2b9eadd966" d="M 0 0 
L 0 3.5 
" style="stroke: #000000; stroke-width: 0.8"/>
      </defs>
      <g>
       <use xlink:href="#m2b9eadd966" x="78.306" y="307.584" style="stroke: #000000; stroke-width: 0.8"/>
      </g>
     </g>
     <g id="text_1">
      <!-- 0.6 -->
      <g transform="translate(70.354438 322.182437)scale(0.1 -0.1)">
       <defs>
        <path id="DejaVuSans-30" d="M 2034 4250 
Q 1547 4250 1301 3770 
Q 1056 3291 1056 2328 
Q 1056 1369 1301 889 
Q 1547 409 2034 409 
Q 2525 409 2770 889 
Q 3016 1369 3016 2328 
Q 3016 3291 2770 3770 
Q 2525 4250 2034 4250 
z
M 2034 4750 
Q 2819 4750 3233 4129 
Q 3647 3509 3647 2328 
Q 3647 1150 3233 529 
Q 2819 -91 2034 -91 
Q 1250 -91 836 529 
Q 422 1150 422 2328 
Q 422 3509 836 4129 
Q 1250 4750 2034 4750 
z
" transform="scale(0.015625)"/>
        <path id="DejaVuSans-2e" d="M 684 794 
L 1344 794 
L 1344 0 
L 684 0 
L 684 794 
z
" transform="scale(0.015625)"/>
        <path id="DejaVuSans-36" d="M 2113 2584 
Q 1688 2584 1439 2293 
Q 1191 2003 1191 1497 
Q 1191 994 1439 701 
Q 1688 409 2113 409 
Q 2538 409 2786 701 
Q 3034 994 3034 1497 
Q 3034 2003 2786 2293 
Q 2538 2584 2113 2584 
z
M 3366 4563 
L 3366 3988 
Q 3128 4100 2886 4159 
Q 2644 4219 2406 4219 
Q 1781 4219 1451 3797 
Q 1122 3375 1075 2522 
Q 1259 2794 1537 2939 
Q 1816 3084 2150 3084 
Q 2853 3084 3261 2657 
Q 3669 2231 3669 1497 
Q 3669 778 3244 343 
Q 2819 -91 2113 -91 
Q 1303 -91 875 529 
Q 447 1150 447 2328 
Q 447 3434 972 4092 
Q 1497 4750 2381 4750 
Q 2619 4750 2861 4703 
Q 3103 4656 3366 4563 
z
" transform="scale(0.015625)"/>
       </defs>
       <use xlink:href="#DejaVuSans-30"/>
       <use xlink:href="#DejaVuSans-2e" x="63.623047"/>
       <use xlink:href="#DejaVuSans-36" x="95.410156"/>
      </g>
     </g>
    </g>
    <g id="xtick_2">
     <g id="line2d_2">
      <g>
       <use xlink:href="#m2b9eadd966" x="142.818" y="307.584" style="stroke: #000000; stroke-width: 0.8"/>
      </g>
     </g>
     <g id="text_2">
      <!-- 0.8 -->
      <g transform="translate(134.866437 322.182437)scale(0.1 -0.1)">
       <defs>
        <path id="DejaVuSans-38" d="M 2034 2216 
Q 1584 2216 1326 1975 
Q 1069 1734 1069 1313 
Q 1069 891 1326 650 
Q 1584 409 2034 409 
Q 2484 409 2743 651 
Q 3003 894 3003 1313 
Q 3003 1734 2745 1975 
Q 2488 2216 2034 2216 
z
M 1403 2484 
Q 997 2584 770 2862 
Q 544 3141 544 3541 
Q 544 4100 942 4425 
Q 1341 4750 2034 4750 
Q 2731 4750 3128 4425 
Q 3525 4100 3525 3541 
Q 3525 3141 3298 2862 
Q 3072 2584 2669 2484 
Q 3125 2378 3379 2068 
Q 3634 1759 3634 1313 
Q 3634 634 3220 271 
Q 2806 -91 2034 -91 
Q 1263 -91 848 271 
Q 434 634 434 1313 
Q 434 1759 690 2068 
Q 947 2378 1403 2484 
z
M 1172 3481 
Q 1172 3119 1398 2916 
Q 1625 2713 2034 2713 
Q 2441 2713 2670 2916 
Q 2900 3119 2900 3481 
Q 2900 3844 2670 4047 
Q 2441 4250 2034 4250 
Q 1625 4250 1398 4047 
Q 1172 3844 1172 3481 
z
" transform="scale(0.015625)"/>
       </defs>
       <use xlink:href="#DejaVuSans-30"/>
       <use xlink:href="#DejaVuSans-2e" x="63.623047"/>
       <use xlink:href="#DejaVuSans-38" x="95.410156"/>
      </g>
     </g>
    </g>
    <g id="xtick_3">
     <g id="line2d_3">
      <g>
       <use xlink:href="#m2b9eadd966" x="207.33" y="307.584" style="stroke: #000000; stroke-width: 0.8"/>
      </g>
     </g>
     <g id="text_3">
      <!-- 1.0 -->
      <g transform="translate(199.378437 322.182437)scale(0.1 -0.1)">
       <defs>
        <path id="DejaVuSans-31" d="M 794 531 
L 1825 531 
L 1825 4091 
L 703 3866 
L 703 4441 
L 1819 4666 
L 2450 4666 
L 2450 531 
L 3481 531 
L 3481 0 
L 794 0 
L 794 531 
z
" transform="scale(0.015625)"/>
       </defs>
       <use xlink:href="#DejaVuSans-31"/>
       <use xlink:href="#DejaVuSans-2e" x="63.623047"/>
       <use xlink:href="#DejaVuSans-30" x="95.410156"/>
      </g>
     </g>
    </g>
    <g id="text_4">
     <!-- x -->
     <g transform="translate(123.730625 335.860562)scale(0.1 -0.1)">
      <defs>
       <path id="DejaVuSans-78" d="M 3513 3500 
L 2247 1797 
L 3578 0 
L 2900 0 
L 1881 1375 
L 863 0 
L 184 0 
L 1544 1831 
L 300 3500 
L 978 3500 
L 1906 2253 
L 2834 3500 
L 3513 3500 
z
" transform="scale(0.015625)"/>
      </defs>
      <use xlink:href="#DejaVuSans-78"/>
     </g>
    </g>
   </g>
   <g id="matplotlib.axis_2">
    <g id="ytick_1">
     <g id="line2d_4">
      <defs>
       <path id="ma017648077" d="M 0 0 
L -3.5 0 
" style="stroke: #000000; stroke-width: 0.8"/>
      </defs>
      <g>
       <use xlink:href="#ma017648077" x="37.986" y="295.488" style="stroke: #000000; stroke-width: 0.8"/>
      </g>
     </g>
     <g id="text_5">
      <!-- 0.0 -->
      <g transform="translate(15.082875 299.287219)scale(0.1 -0.1)">
       <use xlink:href="#DejaVuSans-30"/>
       <use xlink:href="#DejaVuSans-2e" x="63.623047"/>
       <use xlink:href="#DejaVuSans-30" x="95.410156"/>
      </g>
     </g>
    </g>
    <g id="ytick_2">
     <g id="line2d_5">
      <g>
       <use xlink:href="#ma017648077" x="37.986" y="263.232" style="stroke: #000000; stroke-width: 0.8"/>
      </g>
     </g>
     <g id="text_6">
      <!-- 0.1 -->
      <g transform="translate(15.082875 267.031219)scale(0.1 -0.1)">
       <use xlink:href="#DejaVuSans-30"/>
       <use xlink:href="#DejaVuSans-2e" x="63.623047"/>
       <use xlink:href="#DejaVuSans-31" x="95.410156"/>
      </g>
     </g>
    </g>
    <g id="ytick_3">
     <g id="line2d_6">
      <g>
       <use xlink:href="#ma017648077" x="37.986" y="230.976" style="stroke: #000000; stroke-width: 0.8"/>
      </g>
     </g>
     <g id="text_7">
      <!-- 0.2 -->
      <g transform="translate(15.082875 234.775219)scale(0.1 -0.1)">
       <defs>
        <path id="DejaVuSans-32" d="M 1228 531 
L 3431 531 
L 3431 0 
L 469 0 
L 469 531 
Q 828 903 1448 1529 
Q 2069 2156 2228 2338 
Q 2531 2678 2651 2914 
Q 2772 3150 2772 3378 
Q 2772 3750 2511 3984 
Q 2250 4219 1831 4219 
Q 1534 4219 1204 4116 
Q 875 4013 500 3803 
L 500 4441 
Q 881 4594 1212 4672 
Q 1544 4750 1819 4750 
Q 2544 4750 2975 4387 
Q 3406 4025 3406 3419 
Q 3406 3131 3298 2873 
Q 3191 2616 2906 2266 
Q 2828 2175 2409 1742 
Q 1991 1309 1228 531 
z
" transform="scale(0.015625)"/>
       </defs>
       <use xlink:href="#DejaVuSans-30"/>
       <use xlink:href="#DejaVuSans-2e" x="63.623047"/>
       <use xlink:href="#DejaVuSans-32" x="95.410156"/>
      </g>
     </g>
    </g>
    <g id="ytick_4">
     <g id="line2d_7">
      <g>
       <use xlink:href="#ma017648077" x="37.986" y="198.72" style="stroke: #000000; stroke-width: 0.8"/>
      </g>
     </g>
     <g id="text_8">
      <!-- 0.3 -->
      <g transform="translate(15.082875 202.519219)scale(0.1 -0.1)">
       <defs>
        <path id="DejaVuSans-33" d="M 2597 2516 
Q 3050 2419 3304 2112 
Q 3559 1806 3559 1356 
Q 3559 666 3084 287 
Q 2609 -91 1734 -91 
Q 1441 -91 1130 -33 
Q 819 25 488 141 
L 488 750 
Q 750 597 1062 519 
Q 1375 441 1716 441 
Q 2309 441 2620 675 
Q 2931 909 2931 1356 
Q 2931 1769 2642 2001 
Q 2353 2234 1838 2234 
L 1294 2234 
L 1294 2753 
L 1863 2753 
Q 2328 2753 2575 2939 
Q 2822 3125 2822 3475 
Q 2822 3834 2567 4026 
Q 2313 4219 1838 4219 
Q 1578 4219 1281 4162 
Q 984 4106 628 3988 
L 628 4550 
Q 988 4650 1302 4700 
Q 1616 4750 1894 4750 
Q 2613 4750 3031 4423 
Q 3450 4097 3450 3541 
Q 3450 3153 3228 2886 
Q 3006 2619 2597 2516 
z
" transform="scale(0.015625)"/>
       </defs>
       <use xlink:href="#DejaVuSans-30"/>
       <use xlink:href="#DejaVuSans-2e" x="63.623047"/>
       <use xlink:href="#DejaVuSans-33" x="95.410156"/>
      </g>
     </g>
    </g>
    <g id="ytick_5">
     <g id="line2d_8">
      <g>
       <use xlink:href="#ma017648077" x="37.986" y="166.464" style="stroke: #000000; stroke-width: 0.8"/>
      </g>
     </g>
     <g id="text_9">
      <!-- 0.4 -->
      <g transform="translate(15.082875 170.263219)scale(0.1 -0.1)">
       <defs>
        <path id="DejaVuSans-34" d="M 2419 4116 
L 825 1625 
L 2419 1625 
L 2419 4116 
z
M 2253 4666 
L 3047 4666 
L 3047 1625 
L 3713 1625 
L 3713 1100 
L 3047 1100 
L 3047 0 
L 2419 0 
L 2419 1100 
L 313 1100 
L 313 1709 
L 2253 4666 
z
" transform="scale(0.015625)"/>
       </defs>
       <use xlink:href="#DejaVuSans-30"/>
       <use xlink:href="#DejaVuSans-2e" x="63.623047"/>
       <use xlink:href="#DejaVuSans-34" x="95.410156"/>
      </g>
     </g>
    </g>
    <g id="ytick_6">
     <g id="line2d_9">
      <g>
       <use xlink:href="#ma017648077" x="37.986" y="134.208" style="stroke: #000000; stroke-width: 0.8"/>
      </g>
     </g>
     <g id="text_10">
      <!-- 0.5 -->
      <g transform="translate(15.082875 138.007219)scale(0.1 -0.1)">
       <defs>
        <path id="DejaVuSans-35" d="M 691 4666 
L 3169 4666 
L 3169 4134 
L 1269 4134 
L 1269 2991 
Q 1406 3038 1543 3061 
Q 1681 3084 1819 3084 
Q 2600 3084 3056 2656 
Q 3513 2228 3513 1497 
Q 3513 744 3044 326 
Q 2575 -91 1722 -91 
Q 1428 -91 1123 -41 
Q 819 9 494 109 
L 494 744 
Q 775 591 1075 516 
Q 1375 441 1709 441 
Q 2250 441 2565 725 
Q 2881 1009 2881 1497 
Q 2881 1984 2565 2268 
Q 2250 2553 1709 2553 
Q 1456 2553 1204 2497 
Q 953 2441 691 2322 
L 691 4666 
z
" transform="scale(0.015625)"/>
       </defs>
       <use xlink:href="#DejaVuSans-30"/>
       <use xlink:href="#DejaVuSans-2e" x="63.623047"/>
       <use xlink:href="#DejaVuSans-35" x="95.410156"/>
      </g>
     </g>
    </g>
    <g id="ytick_7">
     <g id="line2d_10">
      <g>
       <use xlink:href="#ma017648077" x="37.986" y="101.952" style="stroke: #000000; stroke-width: 0.8"/>
      </g>
     </g>
     <g id="text_11">
      <!-- 0.6 -->
      <g transform="translate(15.082875 105.751219)scale(0.1 -0.1)">
       <use xlink:href="#DejaVuSans-30"/>
       <use xlink:href="#DejaVuSans-2e" x="63.623047"/>
       <use xlink:href="#DejaVuSans-36" x="95.410156"/>
      </g>
     </g>
    </g>
    <g id="ytick_8">
     <g id="line2d_11">
      <g>
       <use xlink:href="#ma017648077" x="37.986" y="69.696" style="stroke: #000000; stroke-width: 0.8"/>
      </g>
     </g>
     <g id="text_12">
      <!-- 0.7 -->
      <g transform="translate(15.082875 73.495219)scale(0.1 -0.1)">
       <defs>
        <path id="DejaVuSans-37" d="M 525 4666 
L 3525 4666 
L 3525 4397 
L 1831 0 
L 1172 0 
L 2766 4134 
L 525 4134 
L 525 4666 
z
" transform="scale(0.015625)"/>
       </defs>
       <use xlink:href="#DejaVuSans-30"/>
       <use xlink:href="#DejaVuSans-2e" x="63.623047"/>
       <use xlink:href="#DejaVuSans-37" x="95.410156"/>
      </g>
     </g>
    </g>
    <g id="text_13">
     <!-- y -->
     <g transform="translate(9.003188 177.487375)rotate(-90)scale(0.1 -0.1)">
      <defs>
       <path id="DejaVuSans-79" d="M 2059 -325 
Q 1816 -950 1584 -1140 
Q 1353 -1331 966 -1331 
L 506 -1331 
L 506 -850 
L 844 -850 
Q 1081 -850 1212 -737 
Q 1344 -625 1503 -206 
L 1606 56 
L 191 3500 
L 800 3500 
L 1894 763 
L 2988 3500 
L 3597 3500 
L 2059 -325 
z
" transform="scale(0.015625)"/>
      </defs>
      <use xlink:href="#DejaVuSans-79"/>
     </g>
    </g>
   </g>
   <g id="line2d_12">
    <path d="M 123.666 295.488 
L 109.554 295.488 
" clip-path="url(#p81191d5ea0)" style="fill: none; stroke: #f44747; stroke-width: 5; stroke-linecap: square"/>
   </g>
   <g id="line2d_13">
    <path d="M 103.506 295.488 
L 89.394 295.488 
" clip-path="url(#p81191d5ea0)" style="fill: none; stroke: #f44747; stroke-width: 5; stroke-linecap: square"/>
   </g>
   <g id="line2d_14">
    <path d="M 83.346 295.488 
L 69.234 295.488 
" clip-path="url(#p81191d5ea0)" style="fill: none; stroke: #f44747; stroke-width: 5; stroke-linecap: square"/>
   </g>
   <g id="line2d_15">
    <path d="M 63.186 295.488 
L 49.074 295.488 
" clip-path="url(#p81191d5ea0)" style="fill: none; stroke: #f44747; stroke-width: 5; stroke-linecap: square"/>
   </g>
   <g id="line2d_16">
    <path d="M 195.234 295.488 
L 138.786 295.488 
" clip-path="url(#p81191d5ea0)" style="fill: none; stroke: #f44747; stroke-width: 5; stroke-linecap: square"/>
   </g>
   <g id="line2d_17">
    <path d="M 207.33 226.944 
L 207.33 283.392 
" clip-path="url(#p81191d5ea0)" style="fill: none; stroke: #f44747; stroke-width: 5; stroke-linecap: square"/>
   </g>
   <g id="line2d_18">
    <path d="M 207.33 146.304 
L 207.33 202.752 
" clip-path="url(#p81191d5ea0)" style="fill: none; stroke: #f44747; stroke-width: 5; stroke-linecap: square"/>
   </g>
   <g id="line2d_19">
    <path d="M 207.33 65.664 
L 207.33 122.112 
" clip-path="url(#p81191d5ea0)" style="fill: none; stroke: #f44747; stroke-width: 5; stroke-linecap: square"/>
   </g>
   <g id="line2d_20">
    <path d="M 46.05 292.464 
L 46.05 278.352 
" clip-path="url(#p81191d5ea0)" style="fill: none; stroke: #f44747; stroke-width: 5; stroke-linecap: square"/>
   </g>
   <g id="line2d_21">
    <path d="M 46.05 272.304 
L 46.05 258.192 
" clip-path="url(#p81191d5ea0)" style="fill: none; stroke: #f44747; stroke-width: 5; stroke-linecap: square"/>
   </g>
   <g id="line2d_22">
    <path d="M 46.05 252.144 
L 46.05 238.032 
" clip-path="url(#p81191d5ea0)" style="fill: none; stroke: #f44747; stroke-width: 5; stroke-linecap: square"/>
   </g>
   <g id="line2d_23">
    <path d="M 46.05 231.984 
L 46.05 217.872 
" clip-path="url(#p81191d5ea0)" style="fill: none; stroke: #f44747; stroke-width: 5; stroke-linecap: square"/>
   </g>
   <g id="line2d_24">
    <path d="M 46.05 211.824 
L 46.05 197.712 
" clip-path="url(#p81191d5ea0)" style="fill: none; stroke: #f44747; stroke-width: 5; stroke-linecap: square"/>
   </g>
   <g id="line2d_25">
    <path d="M 46.05 191.664 
L 46.05 177.552 
" clip-path="url(#p81191d5ea0)" style="fill: none; stroke: #f44747; stroke-width: 5; stroke-linecap: square"/>
   </g>
   <g id="line2d_26">
    <path d="M 46.05 168.48 
L 46.05 140.256 
" clip-path="url(#p81191d5ea0)" style="fill: none; stroke: #f44747; stroke-width: 5; stroke-linecap: square"/>
   </g>
   <g id="line2d_27">
    <path d="M 58.146 134.208 
L 114.594 134.208 
" clip-path="url(#p81191d5ea0)" style="fill: none; stroke: #f44747; stroke-width: 5; stroke-linecap: square"/>
   </g>
   <g id="line2d_28">
    <path d="M 138.786 53.568 
L 195.234 53.568 
" clip-path="url(#p81191d5ea0)" style="fill: none; stroke: #f44747; stroke-width: 5; stroke-linecap: square"/>
   </g>
   <g id="line2d_29">
    <path d="M 126.69 122.112 
L 126.69 65.664 
" clip-path="url(#p81191d5ea0)" style="fill: none; stroke: #f44747; stroke-width: 5; stroke-linecap: square"/>
   </g>
   <g id="line2d_30">
    <path d="M 207.33 134.208 
L 207.33 53.568 
L 126.69 53.568 
L 126.69 134.208 
L 207.33 134.208 
" clip-path="url(#p81191d5ea0)" style="fill: none; stroke: #252525; stroke-width: 3; stroke-linecap: square"/>
   </g>
   <g id="line2d_31">
    <path d="M 207.33 214.848 
L 207.33 134.208 
L 126.69 134.208 
L 126.69 214.848 
L 207.33 214.848 
" clip-path="url(#p81191d5ea0)" style="fill: none; stroke: #252525; stroke-width: 3; stroke-linecap: square"/>
   </g>
   <g id="line2d_32">
    <path d="M 126.69 214.848 
L 126.69 134.208 
L 46.05 134.208 
L 46.05 214.848 
L 126.69 214.848 
" clip-path="url(#p81191d5ea0)" style="fill: none; stroke: #252525; stroke-width: 3; stroke-linecap: square"/>
   </g>
   <g id="line2d_33">
    <path d="M 126.69 255.168 
L 126.69 214.848 
L 86.37 214.848 
L 86.37 255.168 
L 126.69 255.168 
" clip-path="url(#p81191d5ea0)" style="fill: none; stroke: #252525; stroke-width: 3; stroke-linecap: square"/>
   </g>
   <g id="line2d_34">
    <path d="M 86.37 235.008 
L 86.37 214.848 
L 66.21 214.848 
L 66.21 235.008 
L 86.37 235.008 
" clip-path="url(#p81191d5ea0)" style="fill: none; stroke: #252525; stroke-width: 3; stroke-linecap: square"/>
   </g>
   <g id="line2d_35">
    <path d="M 66.21 235.008 
L 66.21 214.848 
L 46.05 214.848 
L 46.05 235.008 
L 66.21 235.008 
" clip-path="url(#p81191d5ea0)" style="fill: none; stroke: #252525; stroke-width: 3; stroke-linecap: square"/>
   </g>
   <g id="line2d_36">
    <path d="M 66.21 255.168 
L 66.21 235.008 
L 46.05 235.008 
L 46.05 255.168 
L 66.21 255.168 
" clip-path="url(#p81191d5ea0)" style="fill: none; stroke: #252525; stroke-width: 3; stroke-linecap: square"/>
   </g>
   <g id="line2d_37">
    <path d="M 86.37 255.168 
L 86.37 235.008 
L 66.21 235.008 
L 66.21 255.168 
L 86.37 255.168 
" clip-path="url(#p81191d5ea0)" style="fill: none; stroke: #252525; stroke-width: 3; stroke-linecap: square"/>
   </g>
   <g id="line2d_38">
    <path d="M 86.37 275.328 
L 86.37 255.168 
L 66.21 255.168 
L 66.21 275.328 
L 86.37 275.328 
" clip-path="url(#p81191d5ea0)" style="fill: none; stroke: #252525; stroke-width: 3; stroke-linecap: square"/>
   </g>
   <g id="line2d_39">
    <path d="M 66.21 275.328 
L 66.21 255.168 
L 46.05 255.168 
L 46.05 275.328 
L 66.21 275.328 
" clip-path="url(#p81191d5ea0)" style="fill: none; stroke: #252525; stroke-width: 3; stroke-linecap: square"/>
   </g>
   <g id="line2d_40">
    <path d="M 66.21 295.488 
L 66.21 275.328 
L 46.05 275.328 
L 46.05 295.488 
L 66.21 295.488 
" clip-path="url(#p81191d5ea0)" style="fill: none; stroke: #252525; stroke-width: 3; stroke-linecap: square"/>
   </g>
   <g id="line2d_41">
    <path d="M 86.37 295.488 
L 86.37 275.328 
L 66.21 275.328 
L 66.21 295.488 
L 86.37 295.488 
" clip-path="url(#p81191d5ea0)" style="fill: none; stroke: #252525; stroke-width: 3; stroke-linecap: square"/>
   </g>
   <g id="line2d_42">
    <path d="M 106.53 295.488 
L 106.53 275.328 
L 86.37 275.328 
L 86.37 295.488 
L 106.53 295.488 
" clip-path="url(#p81191d5ea0)" style="fill: none; stroke: #252525; stroke-width: 3; stroke-linecap: square"/>
   </g>
   <g id="line2d_43">
    <path d="M 106.53 275.328 
L 106.53 255.168 
L 86.37 255.168 
L 86.37 275.328 
L 106.53 275.328 
" clip-path="url(#p81191d5ea0)" style="fill: none; stroke: #252525; stroke-width: 3; stroke-linecap: square"/>
   </g>
   <g id="line2d_44">
    <path d="M 126.69 275.328 
L 126.69 255.168 
L 106.53 255.168 
L 106.53 275.328 
L 126.69 275.328 
" clip-path="url(#p81191d5ea0)" style="fill: none; stroke: #252525; stroke-width: 3; stroke-linecap: square"/>
   </g>
   <g id="line2d_45">
    <path d="M 126.69 295.488 
L 126.69 275.328 
L 106.53 275.328 
L 106.53 295.488 
L 126.69 295.488 
" clip-path="url(#p81191d5ea0)" style="fill: none; stroke: #252525; stroke-width: 3; stroke-linecap: square"/>
   </g>
   <g id="line2d_46">
    <path d="M 207.33 295.488 
L 207.33 214.848 
L 126.69 214.848 
L 126.69 295.488 
L 207.33 295.488 
" clip-path="url(#p81191d5ea0)" style="fill: none; stroke: #252525; stroke-width: 3; stroke-linecap: square"/>
   </g>
   <g id="line2d_47">
    <path d="M 207.33 206.784 
L 207.33 142.272 
" clip-path="url(#p81191d5ea0)" style="fill: none; stroke: #569cd6; stroke-linecap: square"/>
   </g>
   <g id="line2d_48">
    <path d="M 199.266 134.208 
L 134.754 134.208 
" clip-path="url(#p81191d5ea0)" style="fill: none; stroke: #569cd6; stroke-linecap: square"/>
   </g>
   <g id="line2d_49">
    <path d="M 126.69 142.272 
L 126.69 206.784 
" clip-path="url(#p81191d5ea0)" style="fill: none; stroke: #569cd6; stroke-linecap: square"/>
   </g>
   <g id="line2d_50">
    <path d="M 134.754 214.848 
L 199.266 214.848 
" clip-path="url(#p81191d5ea0)" style="fill: none; stroke: #569cd6; stroke-linecap: square"/>
   </g>
   <g id="line2d_51">
    <path d="M 118.626 134.208 
L 54.114 134.208 
" clip-path="url(#p81191d5ea0)" style="fill: none; stroke: #569cd6; stroke-linecap: square"/>
   </g>
   <g id="line2d_52">
    <path d="M 46.05 138.24 
L 46.05 170.496 
" clip-path="url(#p81191d5ea0)" style="fill: none; stroke: #569cd6; stroke-linecap: square"/>
   </g>
   <g id="line2d_53">
    <path d="M 48.066 214.848 
L 64.194 214.848 
" clip-path="url(#p81191d5ea0)" style="fill: none; stroke: #569cd6; stroke-linecap: square"/>
   </g>
   <g id="line2d_54">
    <path d="M 126.69 293.472 
L 126.69 277.344 
" clip-path="url(#p81191d5ea0)" style="fill: none; stroke: #569cd6; stroke-linecap: square"/>
   </g>
   <g id="line2d_55">
    <path d="M 46.05 216.864 
L 46.05 232.992 
" clip-path="url(#p81191d5ea0)" style="fill: none; stroke: #569cd6; stroke-linecap: square"/>
   </g>
   <g id="line2d_56">
    <path d="M 48.066 295.488 
L 64.194 295.488 
" clip-path="url(#p81191d5ea0)" style="fill: none; stroke: #569cd6; stroke-linecap: square"/>
   </g>
   <g id="line2d_57">
    <path d="M 207.33 287.424 
L 207.33 222.912 
" clip-path="url(#p81191d5ea0)" style="fill: none; stroke: #569cd6; stroke-linecap: square"/>
   </g>
   <g id="line2d_58">
    <path d="M 134.754 295.488 
L 199.266 295.488 
" clip-path="url(#p81191d5ea0)" style="fill: none; stroke: #569cd6; stroke-linecap: square"/>
   </g>
   <g id="line2d_59">
    <path d="M 124.674 255.168 
L 108.546 255.168 
" clip-path="url(#p81191d5ea0)" style="fill: none; stroke: #569cd6; stroke-linecap: square"/>
   </g>
   <g id="line2d_60">
    <path d="M 86.37 216.864 
L 86.37 232.992 
" clip-path="url(#p81191d5ea0)" style="fill: none; stroke: #569cd6; stroke-linecap: square"/>
   </g>
   <g id="line2d_61">
    <path d="M 48.066 255.168 
L 64.194 255.168 
" clip-path="url(#p81191d5ea0)" style="fill: none; stroke: #569cd6; stroke-linecap: square"/>
   </g>
   <g id="line2d_62">
    <path d="M 86.37 293.472 
L 86.37 277.344 
" clip-path="url(#p81191d5ea0)" style="fill: none; stroke: #569cd6; stroke-linecap: square"/>
   </g>
   <g id="line2d_63">
    <path d="M 46.05 176.544 
L 46.05 192.672 
" clip-path="url(#p81191d5ea0)" style="fill: none; stroke: #569cd6; stroke-linecap: square"/>
   </g>
   <g id="line2d_64">
    <path d="M 90.402 214.848 
L 122.658 214.848 
" clip-path="url(#p81191d5ea0)" style="fill: none; stroke: #569cd6; stroke-linecap: square"/>
   </g>
   <g id="line2d_65">
    <path d="M 126.69 251.136 
L 126.69 218.88 
" clip-path="url(#p81191d5ea0)" style="fill: none; stroke: #569cd6; stroke-linecap: square"/>
   </g>
   <g id="line2d_66">
    <path d="M 46.05 257.184 
L 46.05 273.312 
" clip-path="url(#p81191d5ea0)" style="fill: none; stroke: #569cd6; stroke-linecap: square"/>
   </g>
   <g id="line2d_67">
    <path d="M 88.386 295.488 
L 104.514 295.488 
" clip-path="url(#p81191d5ea0)" style="fill: none; stroke: #569cd6; stroke-linecap: square"/>
   </g>
   <g id="line2d_68">
    <path d="M 207.33 126.144 
L 207.33 61.632 
" clip-path="url(#p81191d5ea0)" style="fill: none; stroke: #569cd6; stroke-linecap: square"/>
   </g>
   <g id="line2d_69">
    <path d="M 199.266 53.568 
L 134.754 53.568 
" clip-path="url(#p81191d5ea0)" style="fill: none; stroke: #569cd6; stroke-linecap: square"/>
   </g>
   <g id="line2d_70">
    <path d="M 126.69 61.632 
L 126.69 126.144 
" clip-path="url(#p81191d5ea0)" style="fill: none; stroke: #569cd6; stroke-linecap: square"/>
   </g>
   <g id="line2d_71">
    <path d="M 84.354 235.008 
L 68.226 235.008 
" clip-path="url(#p81191d5ea0)" style="fill: none; stroke: #569cd6; stroke-linecap: square"/>
   </g>
   <g id="line2d_72">
    <path d="M 66.21 216.864 
L 66.21 232.992 
" clip-path="url(#p81191d5ea0)" style="fill: none; stroke: #569cd6; stroke-linecap: square"/>
   </g>
   <g id="line2d_73">
    <path d="M 48.066 235.008 
L 64.194 235.008 
" clip-path="url(#p81191d5ea0)" style="fill: none; stroke: #569cd6; stroke-linecap: square"/>
   </g>
   <g id="line2d_74">
    <path d="M 66.21 253.152 
L 66.21 237.024 
" clip-path="url(#p81191d5ea0)" style="fill: none; stroke: #569cd6; stroke-linecap: square"/>
   </g>
   <g id="line2d_75">
    <path d="M 84.354 275.328 
L 68.226 275.328 
" clip-path="url(#p81191d5ea0)" style="fill: none; stroke: #569cd6; stroke-linecap: square"/>
   </g>
   <g id="line2d_76">
    <path d="M 66.21 257.184 
L 66.21 273.312 
" clip-path="url(#p81191d5ea0)" style="fill: none; stroke: #569cd6; stroke-linecap: square"/>
   </g>
   <g id="line2d_77">
    <path d="M 48.066 275.328 
L 64.194 275.328 
" clip-path="url(#p81191d5ea0)" style="fill: none; stroke: #569cd6; stroke-linecap: square"/>
   </g>
   <g id="line2d_78">
    <path d="M 66.21 293.472 
L 66.21 277.344 
" clip-path="url(#p81191d5ea0)" style="fill: none; stroke: #569cd6; stroke-linecap: square"/>
   </g>
   <g id="line2d_79">
    <path d="M 124.674 275.328 
L 108.546 275.328 
" clip-path="url(#p81191d5ea0)" style="fill: none; stroke: #569cd6; stroke-linecap: square"/>
   </g>
   <g id="line2d_80">
    <path d="M 106.53 257.184 
L 106.53 273.312 
" clip-path="url(#p81191d5ea0)" style="fill: none; stroke: #569cd6; stroke-linecap: square"/>
   </g>
   <g id="line2d_81">
    <path d="M 88.386 275.328 
L 104.514 275.328 
" clip-path="url(#p81191d5ea0)" style="fill: none; stroke: #569cd6; stroke-linecap: square"/>
   </g>
   <g id="line2d_82">
    <path d="M 106.53 293.472 
L 106.53 277.344 
" clip-path="url(#p81191d5ea0)" style="fill: none; stroke: #569cd6; stroke-linecap: square"/>
   </g>
   <g id="line2d_83">
    <path d="M 68.226 214.848 
L 84.354 214.848 
" clip-path="url(#p81191d5ea0)" style="fill: none; stroke: #569cd6; stroke-linecap: square"/>
   </g>
   <g id="line2d_84">
    <path d="M 126.69 273.312 
L 126.69 257.184 
" clip-path="url(#p81191d5ea0)" style="fill: none; stroke: #569cd6; stroke-linecap: square"/>
   </g>
   <g id="line2d_85">
    <path d="M 46.05 237.024 
L 46.05 253.152 
" clip-path="url(#p81191d5ea0)" style="fill: none; stroke: #569cd6; stroke-linecap: square"/>
   </g>
   <g id="line2d_86">
    <path d="M 68.226 295.488 
L 84.354 295.488 
" clip-path="url(#p81191d5ea0)" style="fill: none; stroke: #569cd6; stroke-linecap: square"/>
   </g>
   <g id="line2d_87">
    <path d="M 104.514 255.168 
L 88.386 255.168 
" clip-path="url(#p81191d5ea0)" style="fill: none; stroke: #569cd6; stroke-linecap: square"/>
   </g>
   <g id="line2d_88">
    <path d="M 86.37 237.024 
L 86.37 253.152 
" clip-path="url(#p81191d5ea0)" style="fill: none; stroke: #569cd6; stroke-linecap: square"/>
   </g>
   <g id="line2d_89">
    <path d="M 68.226 255.168 
L 84.354 255.168 
" clip-path="url(#p81191d5ea0)" style="fill: none; stroke: #569cd6; stroke-linecap: square"/>
   </g>
   <g id="line2d_90">
    <path d="M 86.37 273.312 
L 86.37 257.184 
" clip-path="url(#p81191d5ea0)" style="fill: none; stroke: #569cd6; stroke-linecap: square"/>
   </g>
   <g id="line2d_91">
    <path d="M 46.05 196.704 
L 46.05 212.832 
" clip-path="url(#p81191d5ea0)" style="fill: none; stroke: #569cd6; stroke-linecap: square"/>
   </g>
   <g id="line2d_92">
    <path d="M 46.05 277.344 
L 46.05 293.472 
" clip-path="url(#p81191d5ea0)" style="fill: none; stroke: #569cd6; stroke-linecap: square"/>
   </g>
   <g id="line2d_93">
    <path d="M 108.546 295.488 
L 124.674 295.488 
" clip-path="url(#p81191d5ea0)" style="fill: none; stroke: #569cd6; stroke-linecap: square"/>
   </g>
   <g id="line2d_94">
    <defs>
     <path id="md00d460fd9" d="M 0 3 
C 0.795609 3 1.55874 2.683901 2.12132 2.12132 
C 2.683901 1.55874 3 0.795609 3 0 
C 3 -0.795609 2.683901 -1.55874 2.12132 -2.12132 
C 1.55874 -2.683901 0.795609 -3 0 -3 
C -0.795609 -3 -1.55874 -2.683901 -2.12132 -2.12132 
C -2.683901 -1.55874 -3 -0.795609 -3 0 
C -3 0.795609 -2.683901 1.55874 -2.12132 2.12132 
C -1.55874 2.683901 -0.795609 3 0 3 
z
" style="stroke: #c586c0"/>
    </defs>
    <g clip-path="url(#p81191d5ea0)">
     <use xlink:href="#md00d460fd9" x="46.05" y="295.488" style="fill: #c586c0; stroke: #c586c0"/>
     <use xlink:href="#md00d460fd9" x="46.05" y="214.848" style="fill: #c586c0; stroke: #c586c0"/>
     <use xlink:href="#md00d460fd9" x="46.05" y="134.208" style="fill: #c586c0; stroke: #c586c0"/>
     <use xlink:href="#md00d460fd9" x="126.69" y="295.488" style="fill: #c586c0; stroke: #c586c0"/>
     <use xlink:href="#md00d460fd9" x="126.69" y="214.848" style="fill: #c586c0; stroke: #c586c0"/>
     <use xlink:href="#md00d460fd9" x="126.69" y="134.208" style="fill: #c586c0; stroke: #c586c0"/>
     <use xlink:href="#md00d460fd9" x="207.33" y="295.488" style="fill: #c586c0; stroke: #c586c0"/>
     <use xlink:href="#md00d460fd9" x="207.33" y="214.848" style="fill: #c586c0; stroke: #c586c0"/>
     <use xlink:href="#md00d460fd9" x="207.33" y="134.208" style="fill: #c586c0; stroke: #c586c0"/>
     <use xlink:href="#md00d460fd9" x="86.37" y="255.168" style="fill: #c586c0; stroke: #c586c0"/>
     <use xlink:href="#md00d460fd9" x="46.05" y="174.528" style="fill: #c586c0; stroke: #c586c0"/>
     <use xlink:href="#md00d460fd9" x="86.37" y="214.848" style="fill: #c586c0; stroke: #c586c0"/>
     <use xlink:href="#md00d460fd9" x="126.69" y="255.168" style="fill: #c586c0; stroke: #c586c0"/>
     <use xlink:href="#md00d460fd9" x="46.05" y="255.168" style="fill: #c586c0; stroke: #c586c0"/>
     <use xlink:href="#md00d460fd9" x="86.37" y="295.488" style="fill: #c586c0; stroke: #c586c0"/>
     <use xlink:href="#md00d460fd9" x="207.33" y="53.568" style="fill: #c586c0; stroke: #c586c0"/>
     <use xlink:href="#md00d460fd9" x="126.69" y="53.568" style="fill: #c586c0; stroke: #c586c0"/>
     <use xlink:href="#md00d460fd9" x="66.21" y="235.008" style="fill: #c586c0; stroke: #c586c0"/>
     <use xlink:href="#md00d460fd9" x="66.21" y="275.328" style="fill: #c586c0; stroke: #c586c0"/>
     <use xlink:href="#md00d460fd9" x="106.53" y="275.328" style="fill: #c586c0; stroke: #c586c0"/>
     <use xlink:href="#md00d460fd9" x="66.21" y="214.848" style="fill: #c586c0; stroke: #c586c0"/>
     <use xlink:href="#md00d460fd9" x="126.69" y="275.328" style="fill: #c586c0; stroke: #c586c0"/>
     <use xlink:href="#md00d460fd9" x="46.05" y="235.008" style="fill: #c586c0; stroke: #c586c0"/>
     <use xlink:href="#md00d460fd9" x="66.21" y="295.488" style="fill: #c586c0; stroke: #c586c0"/>
     <use xlink:href="#md00d460fd9" x="106.53" y="255.168" style="fill: #c586c0; stroke: #c586c0"/>
     <use xlink:href="#md00d460fd9" x="86.37" y="235.008" style="fill: #c586c0; stroke: #c586c0"/>
     <use xlink:href="#md00d460fd9" x="66.21" y="255.168" style="fill: #c586c0; stroke: #c586c0"/>
     <use xlink:href="#md00d460fd9" x="86.37" y="275.328" style="fill: #c586c0; stroke: #c586c0"/>
     <use xlink:href="#md00d460fd9" x="46.05" y="194.688" style="fill: #c586c0; stroke: #c586c0"/>
     <use xlink:href="#md00d460fd9" x="46.05" y="275.328" style="fill: #c586c0; stroke: #c586c0"/>
     <use xlink:href="#md00d460fd9" x="106.53" y="295.488" style="fill: #c586c0; stroke: #c586c0"/>
    </g>
   </g>
   <g id="line2d_95">
    <path d="M 167.01 93.888 
L 167.01 174.528 
L 86.37 174.528 
L 106.53 235.008 
L 76.29 224.928 
L 56.13 224.928 
L 56.13 245.088 
L 76.29 245.088 
L 76.29 265.248 
L 56.13 265.248 
L 56.13 285.408 
L 76.29 285.408 
L 96.45 285.408 
L 96.45 265.248 
L 116.61 265.248 
L 116.61 285.408 
L 167.01 255.168 
" clip-path="url(#p81191d5ea0)" style="fill: none; stroke: #6a9955; stroke-width: 5; stroke-linecap: square"/>
   </g>
   <g id="patch_3">
    <path d="M 37.986 307.584 
L 37.986 41.472 
" style="fill: none; stroke: #000000; stroke-width: 0.8; stroke-linejoin: miter; stroke-linecap: square"/>
   </g>
   <g id="patch_4">
    <path d="M 215.394 307.584 
L 215.394 41.472 
" style="fill: none; stroke: #000000; stroke-width: 0.8; stroke-linejoin: miter; stroke-linecap: square"/>
   </g>
   <g id="patch_5">
    <path d="M 37.986 307.584 
L 215.394 307.584 
" style="fill: none; stroke: #000000; stroke-width: 0.8; stroke-linejoin: miter; stroke-linecap: square"/>
   </g>
   <g id="patch_6">
    <path d="M 37.986 41.472 
L 215.394 41.472 
" style="fill: none; stroke: #000000; stroke-width: 0.8; stroke-linejoin: miter; stroke-linecap: square"/>
   </g>
   <g id="text_14">
    <!-- 0 -->
    <g style="fill: #252525" transform="translate(162.81 97.572844)scale(0.14 -0.14)">
     <defs>
      <path id="FiraCode-Regular-30" d="M 1920 4477 
Q 2630 4477 2996 3888 
Q 3363 3299 3363 2205 
Q 3363 1107 2996 516 
Q 2630 -74 1920 -74 
Q 1210 -74 843 516 
Q 477 1107 477 2205 
Q 477 3299 843 3888 
Q 1210 4477 1920 4477 
z
M 1920 4045 
Q 1514 4045 1280 3614 
Q 1046 3184 1046 2205 
Q 1046 1472 1158 1053 
L 2506 3760 
Q 2304 4045 1920 4045 
z
M 2797 2205 
Q 2797 2944 2682 3360 
L 1341 643 
Q 1542 362 1920 362 
Q 2330 362 2563 794 
Q 2797 1226 2797 2205 
z
" transform="scale(0.015625)"/>
     </defs>
     <use xlink:href="#FiraCode-Regular-30"/>
    </g>
   </g>
   <g id="text_15">
    <!-- 1 -->
    <g style="fill: #252525" transform="translate(162.81 178.212844)scale(0.14 -0.14)">
     <defs>
      <path id="FiraCode-Regular-31" d="M 3312 438 
L 3312 0 
L 768 0 
L 768 438 
L 1853 438 
L 1853 3824 
L 842 3210 
L 608 3594 
L 1920 4406 
L 2390 4406 
L 2390 438 
L 3312 438 
z
" transform="scale(0.015625)"/>
     </defs>
     <use xlink:href="#FiraCode-Regular-31"/>
    </g>
   </g>
   <g id="text_16">
    <!-- 2 -->
    <g style="fill: #252525" transform="translate(82.17 178.212844)scale(0.14 -0.14)">
     <defs>
      <path id="FiraCode-Regular-32" d="M 1725 4477 
Q 2141 4477 2438 4315 
Q 2736 4154 2894 3875 
Q 3053 3597 3053 3248 
Q 3053 2944 2947 2654 
Q 2842 2365 2610 2046 
Q 2378 1728 2000 1341 
Q 1622 954 1078 458 
L 3155 458 
L 3088 0 
L 467 0 
L 467 438 
Q 1091 1037 1486 1449 
Q 1882 1862 2099 2161 
Q 2317 2461 2401 2710 
Q 2486 2960 2486 3229 
Q 2486 3600 2278 3814 
Q 2070 4029 1699 4029 
Q 1373 4029 1165 3917 
Q 957 3805 749 3558 
L 378 3846 
Q 640 4166 958 4321 
Q 1277 4477 1725 4477 
z
" transform="scale(0.015625)"/>
     </defs>
     <use xlink:href="#FiraCode-Regular-32"/>
    </g>
   </g>
   <g id="text_17">
    <!-- 3 -->
    <g style="fill: #252525" transform="translate(102.33 238.692844)scale(0.14 -0.14)">
     <defs>
      <path id="FiraCode-Regular-33" d="M 1718 4477 
Q 2134 4477 2438 4326 
Q 2742 4176 2907 3926 
Q 3072 3677 3072 3376 
Q 3072 3107 2953 2891 
Q 2835 2675 2640 2534 
Q 2445 2394 2211 2349 
Q 2470 2330 2699 2203 
Q 2928 2077 3070 1843 
Q 3213 1610 3213 1270 
Q 3213 890 3021 584 
Q 2829 278 2485 102 
Q 2141 -74 1683 -74 
Q 1312 -74 947 67 
Q 582 208 330 515 
L 691 810 
Q 880 589 1141 480 
Q 1402 371 1670 371 
Q 2131 371 2390 612 
Q 2650 854 2650 1270 
Q 2650 1741 2389 1923 
Q 2128 2106 1738 2106 
L 1366 2106 
L 1434 2531 
L 1693 2531 
Q 1907 2531 2097 2614 
Q 2288 2698 2409 2867 
Q 2531 3037 2531 3299 
Q 2531 3664 2288 3856 
Q 2045 4048 1699 4048 
Q 1411 4048 1196 3947 
Q 982 3846 765 3642 
L 467 3971 
Q 749 4237 1065 4357 
Q 1382 4477 1718 4477 
z
" transform="scale(0.015625)"/>
     </defs>
     <use xlink:href="#FiraCode-Regular-33"/>
    </g>
   </g>
   <g id="text_18">
    <!-- 4 -->
    <g style="fill: #252525" transform="translate(72.09 228.612844)scale(0.14 -0.14)">
     <defs>
      <path id="FiraCode-Regular-34" d="M 2813 2752 
L 2813 1501 
L 3382 1501 
L 3382 1072 
L 2813 1072 
L 2813 0 
L 2294 0 
L 2291 1072 
L 461 1072 
L 461 1462 
L 1754 4477 
L 2202 4288 
L 1030 1501 
L 2294 1501 
L 2365 2752 
L 2813 2752 
z
" transform="scale(0.015625)"/>
     </defs>
     <use xlink:href="#FiraCode-Regular-34"/>
    </g>
   </g>
   <g id="text_19">
    <!-- 5 -->
    <g style="fill: #252525" transform="translate(51.93 228.612844)scale(0.14 -0.14)">
     <defs>
      <path id="FiraCode-Regular-35" d="M 3117 4406 
L 3037 3978 
L 1296 3978 
L 1296 2589 
Q 1498 2694 1678 2736 
Q 1859 2778 2058 2778 
Q 2595 2778 2928 2416 
Q 3261 2054 3261 1395 
Q 3261 954 3077 624 
Q 2893 294 2558 110 
Q 2224 -74 1770 -74 
Q 1373 -74 1061 67 
Q 749 208 493 458 
L 826 778 
Q 1219 371 1776 371 
Q 2211 371 2454 635 
Q 2698 899 2698 1411 
Q 2698 1766 2592 1971 
Q 2486 2176 2305 2264 
Q 2125 2352 1904 2352 
Q 1709 2352 1558 2313 
Q 1408 2275 1216 2205 
L 784 2205 
L 784 4406 
L 3117 4406 
z
" transform="scale(0.015625)"/>
     </defs>
     <use xlink:href="#FiraCode-Regular-35"/>
    </g>
   </g>
   <g id="text_20">
    <!-- 6 -->
    <g style="fill: #252525" transform="translate(51.93 248.772844)scale(0.14 -0.14)">
     <defs>
      <path id="FiraCode-Regular-36" d="M 2147 4477 
Q 2400 4477 2616 4411 
Q 2832 4346 3018 4221 
L 2806 3856 
Q 2499 4042 2138 4042 
Q 1629 4042 1347 3562 
Q 1066 3082 1046 2275 
Q 1258 2589 1522 2729 
Q 1786 2870 2109 2870 
Q 2448 2870 2733 2718 
Q 3018 2566 3187 2259 
Q 3357 1952 3357 1482 
Q 3357 995 3169 646 
Q 2982 298 2667 112 
Q 2352 -74 1971 -74 
Q 1437 -74 1115 192 
Q 794 458 651 942 
Q 509 1427 509 2083 
Q 509 2813 702 3350 
Q 896 3888 1264 4182 
Q 1632 4477 2147 4477 
z
M 2026 2429 
Q 1709 2429 1462 2256 
Q 1216 2083 1053 1805 
Q 1069 1059 1285 710 
Q 1501 362 1968 362 
Q 2387 362 2596 658 
Q 2806 954 2806 1469 
Q 2806 2010 2592 2219 
Q 2378 2429 2026 2429 
z
" transform="scale(0.015625)"/>
     </defs>
     <use xlink:href="#FiraCode-Regular-36"/>
    </g>
   </g>
   <g id="text_21">
    <!-- 7 -->
    <g style="fill: #252525" transform="translate(72.09 248.772844)scale(0.14 -0.14)">
     <defs>
      <path id="FiraCode-Regular-37" d="M 1475 -61 
L 973 93 
L 2691 3958 
L 624 3958 
L 624 4406 
L 3232 4406 
L 3232 3994 
L 1475 -61 
z
" transform="scale(0.015625)"/>
     </defs>
     <use xlink:href="#FiraCode-Regular-37"/>
    </g>
   </g>
   <g id="text_22">
    <!-- 8 -->
    <g style="fill: #252525" transform="translate(72.09 268.932844)scale(0.14 -0.14)">
     <defs>
      <path id="FiraCode-Regular-38" d="M 3242 3357 
Q 3242 3034 3043 2800 
Q 2845 2566 2477 2365 
Q 2909 2186 3165 1886 
Q 3421 1587 3421 1181 
Q 3421 822 3235 537 
Q 3050 253 2710 89 
Q 2371 -74 1907 -74 
Q 1437 -74 1104 91 
Q 771 256 595 537 
Q 419 819 419 1171 
Q 419 1578 660 1856 
Q 902 2134 1302 2320 
Q 954 2486 776 2723 
Q 598 2960 598 3328 
Q 598 3632 721 3849 
Q 845 4067 1041 4206 
Q 1238 4346 1470 4411 
Q 1702 4477 1920 4477 
Q 2240 4477 2544 4360 
Q 2848 4243 3045 3995 
Q 3242 3747 3242 3357 
z
M 1130 3322 
Q 1130 3069 1246 2923 
Q 1363 2778 1580 2686 
Q 1798 2595 2096 2499 
Q 2403 2672 2556 2854 
Q 2710 3037 2710 3338 
Q 2710 3670 2504 3865 
Q 2298 4061 1920 4061 
Q 1546 4061 1338 3865 
Q 1130 3670 1130 3322 
z
M 2854 1174 
Q 2854 1472 2704 1645 
Q 2554 1818 2288 1933 
Q 2022 2048 1674 2166 
Q 1402 2042 1194 1813 
Q 986 1584 986 1168 
Q 986 794 1216 578 
Q 1446 362 1904 362 
Q 2365 362 2609 594 
Q 2854 826 2854 1174 
z
" transform="scale(0.015625)"/>
     </defs>
     <use xlink:href="#FiraCode-Regular-38"/>
    </g>
   </g>
   <g id="text_23">
    <!-- 9 -->
    <g style="fill: #252525" transform="translate(51.93 268.932844)scale(0.14 -0.14)">
     <defs>
      <path id="FiraCode-Regular-39" d="M 1853 4470 
Q 2573 4470 2931 3984 
Q 3290 3498 3290 2669 
Q 3290 2000 3154 1539 
Q 3018 1078 2733 768 
Q 2448 458 2003 246 
Q 1558 35 941 -134 
L 816 275 
Q 1427 445 1838 678 
Q 2250 912 2467 1265 
Q 2685 1619 2717 2141 
Q 2525 1907 2272 1761 
Q 2019 1616 1686 1616 
Q 1318 1616 1035 1784 
Q 752 1952 589 2267 
Q 426 2582 426 3024 
Q 426 3494 618 3817 
Q 810 4141 1133 4305 
Q 1456 4470 1853 4470 
z
M 982 3005 
Q 982 2499 1195 2272 
Q 1408 2045 1786 2045 
Q 2083 2045 2308 2198 
Q 2534 2352 2730 2618 
Q 2720 3395 2505 3715 
Q 2291 4035 1853 4035 
Q 982 4035 982 3005 
z
" transform="scale(0.015625)"/>
     </defs>
     <use xlink:href="#FiraCode-Regular-39"/>
    </g>
   </g>
   <g id="text_24">
    <!-- 10 -->
    <g style="fill: #252525" transform="translate(47.73 289.092844)scale(0.14 -0.14)">
     <use xlink:href="#FiraCode-Regular-31"/>
     <use xlink:href="#FiraCode-Regular-30" x="60.000015"/>
    </g>
   </g>
   <g id="text_25">
    <!-- 11 -->
    <g style="fill: #252525" transform="translate(67.89 289.092844)scale(0.14 -0.14)">
     <use xlink:href="#FiraCode-Regular-31"/>
     <use xlink:href="#FiraCode-Regular-31" x="60.000015"/>
    </g>
   </g>
   <g id="text_26">
    <!-- 12 -->
    <g style="fill: #252525" transform="translate(88.05 289.092844)scale(0.14 -0.14)">
     <use xlink:href="#FiraCode-Regular-31"/>
     <use xlink:href="#FiraCode-Regular-32" x="60.000015"/>
    </g>
   </g>
   <g id="text_27">
    <!-- 13 -->
    <g style="fill: #252525" transform="translate(88.05 268.932844)scale(0.14 -0.14)">
     <use xlink:href="#FiraCode-Regular-31"/>
     <use xlink:href="#FiraCode-Regular-33" x="60.000015"/>
    </g>
   </g>
   <g id="text_28">
    <!-- 14 -->
    <g style="fill: #252525" transform="translate(108.21 268.932844)scale(0.14 -0.14)">
     <use xlink:href="#FiraCode-Regular-31"/>
     <use xlink:href="#FiraCode-Regular-34" x="60.000015"/>
    </g>
   </g>
   <g id="text_29">
    <!-- 15 -->
    <g style="fill: #252525" transform="translate(108.21 289.092844)scale(0.14 -0.14)">
     <use xlink:href="#FiraCode-Regular-31"/>
     <use xlink:href="#FiraCode-Regular-35" x="60.000015"/>
    </g>
   </g>
   <g id="text_30">
    <!-- 16 -->
    <g style="fill: #252525" transform="translate(158.61 258.852844)scale(0.14 -0.14)">
     <use xlink:href="#FiraCode-Regular-31"/>
     <use xlink:href="#FiraCode-Regular-36" x="60.000015"/>
    </g>
   </g>
  </g>
 </g>
 <defs>
  <clipPath id="p81191d5ea0">
   <rect x="37.986" y="41.472" width="177.408" height="266.112"/>
  </clipPath>
 </defs>
</svg>
