<?xml version="1.0" encoding="utf-8" standalone="no"?>
<!DOCTYPE svg PUBLIC "-//W3C//DTD SVG 1.1//EN"
  "http://www.w3.org/Graphics/SVG/1.1/DTD/svg11.dtd">
<svg xmlns:xlink="http://www.w3.org/1999/xlink" width="945.6pt" height="952.8pt" viewBox="0 0 945.6 952.8" xmlns="http://www.w3.org/2000/svg" version="1.1">
 <metadata>
  <rdf:RDF xmlns:dc="http://purl.org/dc/elements/1.1/" xmlns:cc="http://creativecommons.org/ns#" xmlns:rdf="http://www.w3.org/1999/02/22-rdf-syntax-ns#">
   <cc:Work>
    <dc:type rdf:resource="http://purl.org/dc/dcmitype/StillImage"/>
    <dc:date>2022-01-17T11:10:29.242499</dc:date>
    <dc:format>image/svg+xml</dc:format>
    <dc:creator>
     <cc:Agent>
      <dc:title>Matplotlib v3.5.0, https://matplotlib.org/</dc:title>
     </cc:Agent>
    </dc:creator>
   </cc:Work>
  </rdf:RDF>
 </metadata>
 <defs>
  <style type="text/css">*{stroke-linejoin: round; stroke-linecap: butt}</style>
 </defs>
 <g id="figure_1">
  <g id="patch_1">
   <path d="M 0 952.8 
L 945.6 952.8 
L 945.6 0 
L 0 0 
z
" style="fill: #ffffff"/>
  </g>
  <g id="axes_1">
   <g id="line2d_1">
    <path d="M 234.788182 564.441273 
L 234.788182 522.802636 
L 193.149545 522.802636 
L 193.149545 564.441273 
L 234.788182 564.441273 
" clip-path="url(#pbd4e0e9dc8)" style="fill: none; stroke: #252525; stroke-width: 3; stroke-linecap: square"/>
   </g>
   <g id="line2d_2">
    <path d="M 213.968864 522.802636 
L 213.968864 501.983318 
L 193.149545 501.983318 
L 193.149545 522.802636 
L 213.968864 522.802636 
" clip-path="url(#pbd4e0e9dc8)" style="fill: none; stroke: #252525; stroke-width: 3; stroke-linecap: square"/>
   </g>
   <g id="line2d_3">
    <path d="M 234.788182 522.802636 
L 234.788182 501.983318 
L 213.968864 501.983318 
L 213.968864 522.802636 
L 234.788182 522.802636 
" clip-path="url(#pbd4e0e9dc8)" style="fill: none; stroke: #252525; stroke-width: 3; stroke-linecap: square"/>
   </g>
   <g id="line2d_4">
    <path d="M 234.788182 501.983318 
L 234.788182 481.164 
L 213.968864 481.164 
L 213.968864 501.983318 
L 234.788182 501.983318 
" clip-path="url(#pbd4e0e9dc8)" style="fill: none; stroke: #252525; stroke-width: 3; stroke-linecap: square"/>
   </g>
   <g id="line2d_5">
    <path d="M 213.968864 501.983318 
L 213.968864 481.164 
L 193.149545 481.164 
L 193.149545 501.983318 
L 213.968864 501.983318 
" clip-path="url(#pbd4e0e9dc8)" style="fill: none; stroke: #252525; stroke-width: 3; stroke-linecap: square"/>
   </g>
   <g id="line2d_6">
    <path d="M 193.149545 522.802636 
L 193.149545 481.164 
L 151.510909 481.164 
L 151.510909 522.802636 
L 193.149545 522.802636 
" clip-path="url(#pbd4e0e9dc8)" style="fill: none; stroke: #252525; stroke-width: 3; stroke-linecap: square"/>
   </g>
   <g id="line2d_7">
    <path d="M 193.149545 481.164 
L 193.149545 439.525364 
L 151.510909 439.525364 
L 151.510909 481.164 
L 193.149545 481.164 
" clip-path="url(#pbd4e0e9dc8)" style="fill: none; stroke: #252525; stroke-width: 3; stroke-linecap: square"/>
   </g>
   <g id="line2d_8">
    <path d="M 193.149545 439.525364 
L 193.149545 397.886727 
L 151.510909 397.886727 
L 151.510909 439.525364 
L 193.149545 439.525364 
" clip-path="url(#pbd4e0e9dc8)" style="fill: none; stroke: #252525; stroke-width: 3; stroke-linecap: square"/>
   </g>
   <g id="line2d_9">
    <path d="M 234.788182 439.525364 
L 234.788182 397.886727 
L 193.149545 397.886727 
L 193.149545 439.525364 
L 234.788182 439.525364 
" clip-path="url(#pbd4e0e9dc8)" style="fill: none; stroke: #252525; stroke-width: 3; stroke-linecap: square"/>
   </g>
   <g id="line2d_10">
    <path d="M 234.788182 460.344682 
L 234.788182 439.525364 
L 213.968864 439.525364 
L 213.968864 460.344682 
L 234.788182 460.344682 
" clip-path="url(#pbd4e0e9dc8)" style="fill: none; stroke: #252525; stroke-width: 3; stroke-linecap: square"/>
   </g>
   <g id="line2d_11">
    <path d="M 213.968864 460.344682 
L 213.968864 439.525364 
L 193.149545 439.525364 
L 193.149545 460.344682 
L 213.968864 460.344682 
" clip-path="url(#pbd4e0e9dc8)" style="fill: none; stroke: #252525; stroke-width: 3; stroke-linecap: square"/>
   </g>
   <g id="line2d_12">
    <path d="M 213.968864 481.164 
L 213.968864 460.344682 
L 193.149545 460.344682 
L 193.149545 481.164 
L 213.968864 481.164 
" clip-path="url(#pbd4e0e9dc8)" style="fill: none; stroke: #252525; stroke-width: 3; stroke-linecap: square"/>
   </g>
   <g id="line2d_13">
    <path d="M 234.788182 481.164 
L 234.788182 460.344682 
L 213.968864 460.344682 
L 213.968864 481.164 
L 234.788182 481.164 
" clip-path="url(#pbd4e0e9dc8)" style="fill: none; stroke: #252525; stroke-width: 3; stroke-linecap: square"/>
   </g>
   <g id="line2d_14">
    <path d="M 255.6075 481.164 
L 255.6075 460.344682 
L 234.788182 460.344682 
L 234.788182 481.164 
L 255.6075 481.164 
" clip-path="url(#pbd4e0e9dc8)" style="fill: none; stroke: #252525; stroke-width: 3; stroke-linecap: square"/>
   </g>
   <g id="line2d_15">
    <path d="M 255.6075 460.344682 
L 255.6075 439.525364 
L 234.788182 439.525364 
L 234.788182 460.344682 
L 255.6075 460.344682 
" clip-path="url(#pbd4e0e9dc8)" style="fill: none; stroke: #252525; stroke-width: 3; stroke-linecap: square"/>
   </g>
   <g id="line2d_16">
    <path d="M 276.426818 460.344682 
L 276.426818 439.525364 
L 255.6075 439.525364 
L 255.6075 460.344682 
L 276.426818 460.344682 
" clip-path="url(#pbd4e0e9dc8)" style="fill: none; stroke: #252525; stroke-width: 3; stroke-linecap: square"/>
   </g>
   <g id="line2d_17">
    <path d="M 276.426818 481.164 
L 276.426818 460.344682 
L 255.6075 460.344682 
L 255.6075 481.164 
L 276.426818 481.164 
" clip-path="url(#pbd4e0e9dc8)" style="fill: none; stroke: #252525; stroke-width: 3; stroke-linecap: square"/>
   </g>
   <g id="line2d_18">
    <path d="M 297.246136 481.164 
L 297.246136 460.344682 
L 276.426818 460.344682 
L 276.426818 481.164 
L 297.246136 481.164 
" clip-path="url(#pbd4e0e9dc8)" style="fill: none; stroke: #252525; stroke-width: 3; stroke-linecap: square"/>
   </g>
   <g id="line2d_19">
    <path d="M 318.065455 481.164 
L 318.065455 460.344682 
L 297.246136 460.344682 
L 297.246136 481.164 
L 318.065455 481.164 
" clip-path="url(#pbd4e0e9dc8)" style="fill: none; stroke: #252525; stroke-width: 3; stroke-linecap: square"/>
   </g>
   <g id="line2d_20">
    <path d="M 318.065455 460.344682 
L 318.065455 439.525364 
L 297.246136 439.525364 
L 297.246136 460.344682 
L 318.065455 460.344682 
" clip-path="url(#pbd4e0e9dc8)" style="fill: none; stroke: #252525; stroke-width: 3; stroke-linecap: square"/>
   </g>
   <g id="line2d_21">
    <path d="M 297.246136 460.344682 
L 297.246136 439.525364 
L 276.426818 439.525364 
L 276.426818 460.344682 
L 297.246136 460.344682 
" clip-path="url(#pbd4e0e9dc8)" style="fill: none; stroke: #252525; stroke-width: 3; stroke-linecap: square"/>
   </g>
   <g id="line2d_22">
    <path d="M 318.065455 439.525364 
L 318.065455 397.886727 
L 276.426818 397.886727 
L 276.426818 439.525364 
L 318.065455 439.525364 
" clip-path="url(#pbd4e0e9dc8)" style="fill: none; stroke: #252525; stroke-width: 3; stroke-linecap: square"/>
   </g>
   <g id="line2d_23">
    <path d="M 276.426818 439.525364 
L 276.426818 397.886727 
L 234.788182 397.886727 
L 234.788182 439.525364 
L 276.426818 439.525364 
" clip-path="url(#pbd4e0e9dc8)" style="fill: none; stroke: #252525; stroke-width: 3; stroke-linecap: square"/>
   </g>
   <g id="line2d_24">
    <path d="M 318.065455 397.886727 
L 318.065455 314.609455 
L 234.788182 314.609455 
L 234.788182 397.886727 
L 318.065455 397.886727 
" clip-path="url(#pbd4e0e9dc8)" style="fill: none; stroke: #252525; stroke-width: 3; stroke-linecap: square"/>
   </g>
   <g id="line2d_25">
    <path d="M 234.788182 356.248091 
L 234.788182 314.609455 
L 193.149545 314.609455 
L 193.149545 356.248091 
L 234.788182 356.248091 
" clip-path="url(#pbd4e0e9dc8)" style="fill: none; stroke: #252525; stroke-width: 3; stroke-linecap: square"/>
   </g>
   <g id="line2d_26">
    <path d="M 234.788182 397.886727 
L 234.788182 356.248091 
L 193.149545 356.248091 
L 193.149545 397.886727 
L 234.788182 397.886727 
" clip-path="url(#pbd4e0e9dc8)" style="fill: none; stroke: #252525; stroke-width: 3; stroke-linecap: square"/>
   </g>
   <g id="line2d_27">
    <path d="M 193.149545 377.067409 
L 193.149545 356.248091 
L 172.330227 356.248091 
L 172.330227 377.067409 
L 193.149545 377.067409 
" clip-path="url(#pbd4e0e9dc8)" style="fill: none; stroke: #252525; stroke-width: 3; stroke-linecap: square"/>
   </g>
   <g id="line2d_28">
    <path d="M 193.149545 397.886727 
L 193.149545 377.067409 
L 172.330227 377.067409 
L 172.330227 397.886727 
L 193.149545 397.886727 
" clip-path="url(#pbd4e0e9dc8)" style="fill: none; stroke: #252525; stroke-width: 3; stroke-linecap: square"/>
   </g>
   <g id="line2d_29">
    <path d="M 172.330227 397.886727 
L 172.330227 377.067409 
L 151.510909 377.067409 
L 151.510909 397.886727 
L 172.330227 397.886727 
" clip-path="url(#pbd4e0e9dc8)" style="fill: none; stroke: #252525; stroke-width: 3; stroke-linecap: square"/>
   </g>
   <g id="line2d_30">
    <path d="M 172.330227 377.067409 
L 172.330227 356.248091 
L 151.510909 356.248091 
L 151.510909 377.067409 
L 172.330227 377.067409 
" clip-path="url(#pbd4e0e9dc8)" style="fill: none; stroke: #252525; stroke-width: 3; stroke-linecap: square"/>
   </g>
   <g id="line2d_31">
    <path d="M 193.149545 356.248091 
L 193.149545 314.609455 
L 151.510909 314.609455 
L 151.510909 356.248091 
L 193.149545 356.248091 
" clip-path="url(#pbd4e0e9dc8)" style="fill: none; stroke: #252525; stroke-width: 3; stroke-linecap: square"/>
   </g>
   <g id="line2d_32">
    <path d="M 318.065455 314.609455 
L 318.065455 148.054909 
L 151.510909 148.054909 
L 151.510909 314.609455 
L 318.065455 314.609455 
" clip-path="url(#pbd4e0e9dc8)" style="fill: none; stroke: #252525; stroke-width: 3; stroke-linecap: square"/>
   </g>
   <g id="line2d_33">
    <path d="M 484.62 314.609455 
L 484.62 148.054909 
L 318.065455 148.054909 
L 318.065455 314.609455 
L 484.62 314.609455 
" clip-path="url(#pbd4e0e9dc8)" style="fill: none; stroke: #252525; stroke-width: 3; stroke-linecap: square"/>
   </g>
   <g id="line2d_34">
    <path d="M 484.62 481.164 
L 484.62 314.609455 
L 318.065455 314.609455 
L 318.065455 481.164 
L 484.62 481.164 
" clip-path="url(#pbd4e0e9dc8)" style="fill: none; stroke: #252525; stroke-width: 3; stroke-linecap: square"/>
   </g>
   <g id="line2d_35">
    <path d="M 651.174545 481.164 
L 651.174545 314.609455 
L 484.62 314.609455 
L 484.62 481.164 
L 651.174545 481.164 
" clip-path="url(#pbd4e0e9dc8)" style="fill: none; stroke: #252525; stroke-width: 3; stroke-linecap: square"/>
   </g>
   <g id="line2d_36">
    <path d="M 651.174545 314.609455 
L 651.174545 148.054909 
L 484.62 148.054909 
L 484.62 314.609455 
L 651.174545 314.609455 
" clip-path="url(#pbd4e0e9dc8)" style="fill: none; stroke: #252525; stroke-width: 3; stroke-linecap: square"/>
   </g>
   <g id="line2d_37">
    <path d="M 817.729091 314.609455 
L 817.729091 148.054909 
L 651.174545 148.054909 
L 651.174545 314.609455 
L 817.729091 314.609455 
" clip-path="url(#pbd4e0e9dc8)" style="fill: none; stroke: #252525; stroke-width: 3; stroke-linecap: square"/>
   </g>
   <g id="line2d_38">
    <path d="M 817.729091 481.164 
L 817.729091 314.609455 
L 651.174545 314.609455 
L 651.174545 481.164 
L 817.729091 481.164 
" clip-path="url(#pbd4e0e9dc8)" style="fill: none; stroke: #252525; stroke-width: 3; stroke-linecap: square"/>
   </g>
   <g id="line2d_39">
    <path d="M 817.729091 647.718545 
L 817.729091 481.164 
L 651.174545 481.164 
L 651.174545 647.718545 
L 817.729091 647.718545 
" clip-path="url(#pbd4e0e9dc8)" style="fill: none; stroke: #252525; stroke-width: 3; stroke-linecap: square"/>
   </g>
   <g id="line2d_40">
    <path d="M 651.174545 647.718545 
L 651.174545 481.164 
L 484.62 481.164 
L 484.62 647.718545 
L 651.174545 647.718545 
" clip-path="url(#pbd4e0e9dc8)" style="fill: none; stroke: #252525; stroke-width: 3; stroke-linecap: square"/>
   </g>
   <g id="line2d_41">
    <path d="M 651.174545 730.995818 
L 651.174545 647.718545 
L 567.897273 647.718545 
L 567.897273 730.995818 
L 651.174545 730.995818 
" clip-path="url(#pbd4e0e9dc8)" style="fill: none; stroke: #252525; stroke-width: 3; stroke-linecap: square"/>
   </g>
   <g id="line2d_42">
    <path d="M 567.897273 689.357182 
L 567.897273 647.718545 
L 526.258636 647.718545 
L 526.258636 689.357182 
L 567.897273 689.357182 
" clip-path="url(#pbd4e0e9dc8)" style="fill: none; stroke: #252525; stroke-width: 3; stroke-linecap: square"/>
   </g>
   <g id="line2d_43">
    <path d="M 526.258636 668.537864 
L 526.258636 647.718545 
L 505.439318 647.718545 
L 505.439318 668.537864 
L 526.258636 668.537864 
" clip-path="url(#pbd4e0e9dc8)" style="fill: none; stroke: #252525; stroke-width: 3; stroke-linecap: square"/>
   </g>
   <g id="line2d_44">
    <path d="M 505.439318 668.537864 
L 505.439318 647.718545 
L 484.62 647.718545 
L 484.62 668.537864 
L 505.439318 668.537864 
" clip-path="url(#pbd4e0e9dc8)" style="fill: none; stroke: #252525; stroke-width: 3; stroke-linecap: square"/>
   </g>
   <g id="line2d_45">
    <path d="M 505.439318 689.357182 
L 505.439318 668.537864 
L 484.62 668.537864 
L 484.62 689.357182 
L 505.439318 689.357182 
" clip-path="url(#pbd4e0e9dc8)" style="fill: none; stroke: #252525; stroke-width: 3; stroke-linecap: square"/>
   </g>
   <g id="line2d_46">
    <path d="M 526.258636 689.357182 
L 526.258636 668.537864 
L 505.439318 668.537864 
L 505.439318 689.357182 
L 526.258636 689.357182 
" clip-path="url(#pbd4e0e9dc8)" style="fill: none; stroke: #252525; stroke-width: 3; stroke-linecap: square"/>
   </g>
   <g id="line2d_47">
    <path d="M 526.258636 710.1765 
L 526.258636 689.357182 
L 505.439318 689.357182 
L 505.439318 710.1765 
L 526.258636 710.1765 
" clip-path="url(#pbd4e0e9dc8)" style="fill: none; stroke: #252525; stroke-width: 3; stroke-linecap: square"/>
   </g>
   <g id="line2d_48">
    <path d="M 505.439318 710.1765 
L 505.439318 689.357182 
L 484.62 689.357182 
L 484.62 710.1765 
L 505.439318 710.1765 
" clip-path="url(#pbd4e0e9dc8)" style="fill: none; stroke: #252525; stroke-width: 3; stroke-linecap: square"/>
   </g>
   <g id="line2d_49">
    <path d="M 505.439318 730.995818 
L 505.439318 710.1765 
L 484.62 710.1765 
L 484.62 730.995818 
L 505.439318 730.995818 
" clip-path="url(#pbd4e0e9dc8)" style="fill: none; stroke: #252525; stroke-width: 3; stroke-linecap: square"/>
   </g>
   <g id="line2d_50">
    <path d="M 526.258636 730.995818 
L 526.258636 710.1765 
L 505.439318 710.1765 
L 505.439318 730.995818 
L 526.258636 730.995818 
" clip-path="url(#pbd4e0e9dc8)" style="fill: none; stroke: #252525; stroke-width: 3; stroke-linecap: square"/>
   </g>
   <g id="line2d_51">
    <path d="M 567.897273 730.995818 
L 567.897273 689.357182 
L 526.258636 689.357182 
L 526.258636 730.995818 
L 567.897273 730.995818 
" clip-path="url(#pbd4e0e9dc8)" style="fill: none; stroke: #252525; stroke-width: 3; stroke-linecap: square"/>
   </g>
   <g id="line2d_52">
    <path d="M 567.897273 772.634455 
L 567.897273 730.995818 
L 526.258636 730.995818 
L 526.258636 772.634455 
L 567.897273 772.634455 
" clip-path="url(#pbd4e0e9dc8)" style="fill: none; stroke: #252525; stroke-width: 3; stroke-linecap: square"/>
   </g>
   <g id="line2d_53">
    <path d="M 526.258636 751.815136 
L 526.258636 730.995818 
L 505.439318 730.995818 
L 505.439318 751.815136 
L 526.258636 751.815136 
" clip-path="url(#pbd4e0e9dc8)" style="fill: none; stroke: #252525; stroke-width: 3; stroke-linecap: square"/>
   </g>
   <g id="line2d_54">
    <path d="M 505.439318 751.815136 
L 505.439318 730.995818 
L 484.62 730.995818 
L 484.62 751.815136 
L 505.439318 751.815136 
" clip-path="url(#pbd4e0e9dc8)" style="fill: none; stroke: #252525; stroke-width: 3; stroke-linecap: square"/>
   </g>
   <g id="line2d_55">
    <path d="M 505.439318 772.634455 
L 505.439318 751.815136 
L 484.62 751.815136 
L 484.62 772.634455 
L 505.439318 772.634455 
" clip-path="url(#pbd4e0e9dc8)" style="fill: none; stroke: #252525; stroke-width: 3; stroke-linecap: square"/>
   </g>
   <g id="line2d_56">
    <path d="M 526.258636 772.634455 
L 526.258636 751.815136 
L 505.439318 751.815136 
L 505.439318 772.634455 
L 526.258636 772.634455 
" clip-path="url(#pbd4e0e9dc8)" style="fill: none; stroke: #252525; stroke-width: 3; stroke-linecap: square"/>
   </g>
   <g id="line2d_57">
    <path d="M 526.258636 814.273091 
L 526.258636 772.634455 
L 484.62 772.634455 
L 484.62 814.273091 
L 526.258636 814.273091 
" clip-path="url(#pbd4e0e9dc8)" style="fill: none; stroke: #252525; stroke-width: 3; stroke-linecap: square"/>
   </g>
   <g id="line2d_58">
    <path d="M 567.897273 814.273091 
L 567.897273 772.634455 
L 526.258636 772.634455 
L 526.258636 814.273091 
L 567.897273 814.273091 
" clip-path="url(#pbd4e0e9dc8)" style="fill: none; stroke: #252525; stroke-width: 3; stroke-linecap: square"/>
   </g>
   <g id="line2d_59">
    <path d="M 588.716591 814.273091 
L 588.716591 793.453773 
L 567.897273 793.453773 
L 567.897273 814.273091 
L 588.716591 814.273091 
" clip-path="url(#pbd4e0e9dc8)" style="fill: none; stroke: #252525; stroke-width: 3; stroke-linecap: square"/>
   </g>
   <g id="line2d_60">
    <path d="M 609.535909 814.273091 
L 609.535909 793.453773 
L 588.716591 793.453773 
L 588.716591 814.273091 
L 609.535909 814.273091 
" clip-path="url(#pbd4e0e9dc8)" style="fill: none; stroke: #252525; stroke-width: 3; stroke-linecap: square"/>
   </g>
   <g id="line2d_61">
    <path d="M 609.535909 793.453773 
L 609.535909 772.634455 
L 588.716591 772.634455 
L 588.716591 793.453773 
L 609.535909 793.453773 
" clip-path="url(#pbd4e0e9dc8)" style="fill: none; stroke: #252525; stroke-width: 3; stroke-linecap: square"/>
   </g>
   <g id="line2d_62">
    <path d="M 588.716591 793.453773 
L 588.716591 772.634455 
L 567.897273 772.634455 
L 567.897273 793.453773 
L 588.716591 793.453773 
" clip-path="url(#pbd4e0e9dc8)" style="fill: none; stroke: #252525; stroke-width: 3; stroke-linecap: square"/>
   </g>
   <g id="line2d_63">
    <path d="M 609.535909 772.634455 
L 609.535909 730.995818 
L 567.897273 730.995818 
L 567.897273 772.634455 
L 609.535909 772.634455 
" clip-path="url(#pbd4e0e9dc8)" style="fill: none; stroke: #252525; stroke-width: 3; stroke-linecap: square"/>
   </g>
   <g id="line2d_64">
    <path d="M 651.174545 772.634455 
L 651.174545 730.995818 
L 609.535909 730.995818 
L 609.535909 772.634455 
L 651.174545 772.634455 
" clip-path="url(#pbd4e0e9dc8)" style="fill: none; stroke: #252525; stroke-width: 3; stroke-linecap: square"/>
   </g>
   <g id="line2d_65">
    <path d="M 651.174545 814.273091 
L 651.174545 772.634455 
L 609.535909 772.634455 
L 609.535909 814.273091 
L 651.174545 814.273091 
" clip-path="url(#pbd4e0e9dc8)" style="fill: none; stroke: #252525; stroke-width: 3; stroke-linecap: square"/>
   </g>
   <g id="line2d_66">
    <path d="M 817.729091 814.273091 
L 817.729091 647.718545 
L 651.174545 647.718545 
L 651.174545 814.273091 
L 817.729091 814.273091 
" clip-path="url(#pbd4e0e9dc8)" style="fill: none; stroke: #252525; stroke-width: 3; stroke-linecap: square"/>
   </g>
   <g id="line2d_67">
    <defs>
     <path id="mb2ec6149c0" d="M 0 3 
C 0.795609 3 1.55874 2.683901 2.12132 2.12132 
C 2.683901 1.55874 3 0.795609 3 0 
C 3 -0.795609 2.683901 -1.55874 2.12132 -2.12132 
C 1.55874 -2.683901 0.795609 -3 0 -3 
C -0.795609 -3 -1.55874 -2.683901 -2.12132 -2.12132 
C -2.683901 -1.55874 -3 -0.795609 -3 0 
C -3 0.795609 -2.683901 1.55874 -2.12132 2.12132 
C -1.55874 2.683901 -0.795609 3 0 3 
z
" style="stroke: #c586c0"/>
    </defs>
    <g clip-path="url(#pbd4e0e9dc8)">
     <use xlink:href="#mb2ec6149c0" x="484.62" y="814.273091" style="fill: #c586c0; stroke: #c586c0"/>
     <use xlink:href="#mb2ec6149c0" x="484.62" y="647.718545" style="fill: #c586c0; stroke: #c586c0"/>
     <use xlink:href="#mb2ec6149c0" x="484.62" y="481.164" style="fill: #c586c0; stroke: #c586c0"/>
     <use xlink:href="#mb2ec6149c0" x="484.62" y="314.609455" style="fill: #c586c0; stroke: #c586c0"/>
     <use xlink:href="#mb2ec6149c0" x="484.62" y="148.054909" style="fill: #c586c0; stroke: #c586c0"/>
     <use xlink:href="#mb2ec6149c0" x="651.174545" y="814.273091" style="fill: #c586c0; stroke: #c586c0"/>
     <use xlink:href="#mb2ec6149c0" x="651.174545" y="647.718545" style="fill: #c586c0; stroke: #c586c0"/>
     <use xlink:href="#mb2ec6149c0" x="651.174545" y="481.164" style="fill: #c586c0; stroke: #c586c0"/>
     <use xlink:href="#mb2ec6149c0" x="651.174545" y="314.609455" style="fill: #c586c0; stroke: #c586c0"/>
     <use xlink:href="#mb2ec6149c0" x="651.174545" y="148.054909" style="fill: #c586c0; stroke: #c586c0"/>
     <use xlink:href="#mb2ec6149c0" x="817.729091" y="814.273091" style="fill: #c586c0; stroke: #c586c0"/>
     <use xlink:href="#mb2ec6149c0" x="817.729091" y="647.718545" style="fill: #c586c0; stroke: #c586c0"/>
     <use xlink:href="#mb2ec6149c0" x="817.729091" y="481.164" style="fill: #c586c0; stroke: #c586c0"/>
     <use xlink:href="#mb2ec6149c0" x="817.729091" y="314.609455" style="fill: #c586c0; stroke: #c586c0"/>
     <use xlink:href="#mb2ec6149c0" x="817.729091" y="148.054909" style="fill: #c586c0; stroke: #c586c0"/>
     <use xlink:href="#mb2ec6149c0" x="567.897273" y="730.995818" style="fill: #c586c0; stroke: #c586c0"/>
     <use xlink:href="#mb2ec6149c0" x="484.62" y="564.441273" style="fill: #c586c0; stroke: #c586c0"/>
     <use xlink:href="#mb2ec6149c0" x="567.897273" y="647.718545" style="fill: #c586c0; stroke: #c586c0"/>
     <use xlink:href="#mb2ec6149c0" x="651.174545" y="730.995818" style="fill: #c586c0; stroke: #c586c0"/>
     <use xlink:href="#mb2ec6149c0" x="484.62" y="730.995818" style="fill: #c586c0; stroke: #c586c0"/>
     <use xlink:href="#mb2ec6149c0" x="567.897273" y="814.273091" style="fill: #c586c0; stroke: #c586c0"/>
     <use xlink:href="#mb2ec6149c0" x="318.065455" y="481.164" style="fill: #c586c0; stroke: #c586c0"/>
     <use xlink:href="#mb2ec6149c0" x="318.065455" y="397.886727" style="fill: #c586c0; stroke: #c586c0"/>
     <use xlink:href="#mb2ec6149c0" x="234.788182" y="397.886727" style="fill: #c586c0; stroke: #c586c0"/>
     <use xlink:href="#mb2ec6149c0" x="234.788182" y="481.164" style="fill: #c586c0; stroke: #c586c0"/>
     <use xlink:href="#mb2ec6149c0" x="318.065455" y="314.609455" style="fill: #c586c0; stroke: #c586c0"/>
     <use xlink:href="#mb2ec6149c0" x="234.788182" y="314.609455" style="fill: #c586c0; stroke: #c586c0"/>
     <use xlink:href="#mb2ec6149c0" x="151.510909" y="314.609455" style="fill: #c586c0; stroke: #c586c0"/>
     <use xlink:href="#mb2ec6149c0" x="151.510909" y="397.886727" style="fill: #c586c0; stroke: #c586c0"/>
     <use xlink:href="#mb2ec6149c0" x="318.065455" y="148.054909" style="fill: #c586c0; stroke: #c586c0"/>
     <use xlink:href="#mb2ec6149c0" x="151.510909" y="148.054909" style="fill: #c586c0; stroke: #000000"/>
     <use xlink:href="#mb2ec6149c0" x="401.342727" y="481.164" style="fill: #c586c0; stroke: #c586c0"/>
     <use xlink:href="#mb2ec6149c0" x="276.426818" y="439.525364" style="fill: #c586c0; stroke: #c586c0"/>
     <use xlink:href="#mb2ec6149c0" x="193.149545" y="356.248091" style="fill: #c586c0; stroke: #c586c0"/>
     <use xlink:href="#mb2ec6149c0" x="526.258636" y="689.357182" style="fill: #c586c0; stroke: #c586c0"/>
     <use xlink:href="#mb2ec6149c0" x="526.258636" y="772.634455" style="fill: #c586c0; stroke: #c586c0"/>
     <use xlink:href="#mb2ec6149c0" x="609.535909" y="772.634455" style="fill: #c586c0; stroke: #c586c0"/>
     <use xlink:href="#mb2ec6149c0" x="526.258636" y="647.718545" style="fill: #c586c0; stroke: #c586c0"/>
     <use xlink:href="#mb2ec6149c0" x="651.174545" y="772.634455" style="fill: #c586c0; stroke: #c586c0"/>
     <use xlink:href="#mb2ec6149c0" x="484.62" y="689.357182" style="fill: #c586c0; stroke: #c586c0"/>
     <use xlink:href="#mb2ec6149c0" x="526.258636" y="814.273091" style="fill: #c586c0; stroke: #c586c0"/>
     <use xlink:href="#mb2ec6149c0" x="609.535909" y="730.995818" style="fill: #c586c0; stroke: #c586c0"/>
     <use xlink:href="#mb2ec6149c0" x="567.897273" y="689.357182" style="fill: #c586c0; stroke: #c586c0"/>
     <use xlink:href="#mb2ec6149c0" x="526.258636" y="730.995818" style="fill: #c586c0; stroke: #c586c0"/>
     <use xlink:href="#mb2ec6149c0" x="567.897273" y="772.634455" style="fill: #c586c0; stroke: #c586c0"/>
     <use xlink:href="#mb2ec6149c0" x="484.62" y="606.079909" style="fill: #c586c0; stroke: #c586c0"/>
     <use xlink:href="#mb2ec6149c0" x="484.62" y="772.634455" style="fill: #c586c0; stroke: #c586c0"/>
     <use xlink:href="#mb2ec6149c0" x="609.535909" y="814.273091" style="fill: #c586c0; stroke: #c586c0"/>
     <use xlink:href="#mb2ec6149c0" x="318.065455" y="439.525364" style="fill: #c586c0; stroke: #c586c0"/>
     <use xlink:href="#mb2ec6149c0" x="276.426818" y="397.886727" style="fill: #c586c0; stroke: #c586c0"/>
     <use xlink:href="#mb2ec6149c0" x="234.788182" y="439.525364" style="fill: #c586c0; stroke: #c586c0"/>
     <use xlink:href="#mb2ec6149c0" x="276.426818" y="481.164" style="fill: #c586c0; stroke: #c586c0"/>
     <use xlink:href="#mb2ec6149c0" x="234.788182" y="356.248091" style="fill: #c586c0; stroke: #c586c0"/>
     <use xlink:href="#mb2ec6149c0" x="193.149545" y="314.609455" style="fill: #c586c0; stroke: #c586c0"/>
     <use xlink:href="#mb2ec6149c0" x="151.510909" y="356.248091" style="fill: #c586c0; stroke: #c586c0"/>
     <use xlink:href="#mb2ec6149c0" x="193.149545" y="397.886727" style="fill: #c586c0; stroke: #c586c0"/>
     <use xlink:href="#mb2ec6149c0" x="359.704091" y="481.164" style="fill: #c586c0; stroke: #c586c0"/>
     <use xlink:href="#mb2ec6149c0" x="234.788182" y="564.441273" style="fill: #c586c0; stroke: #c586c0"/>
     <use xlink:href="#mb2ec6149c0" x="234.788182" y="522.802636" style="fill: #c586c0; stroke: #c586c0"/>
     <use xlink:href="#mb2ec6149c0" x="193.149545" y="522.802636" style="fill: #c586c0; stroke: #c586c0"/>
     <use xlink:href="#mb2ec6149c0" x="193.149545" y="564.441273" style="fill: #c586c0; stroke: #c586c0"/>
     <use xlink:href="#mb2ec6149c0" x="193.149545" y="481.164" style="fill: #c586c0; stroke: #c586c0"/>
     <use xlink:href="#mb2ec6149c0" x="151.510909" y="481.164" style="fill: #c586c0; stroke: #c586c0"/>
     <use xlink:href="#mb2ec6149c0" x="151.510909" y="522.802636" style="fill: #c586c0; stroke: #c586c0"/>
     <use xlink:href="#mb2ec6149c0" x="193.149545" y="439.525364" style="fill: #c586c0; stroke: #c586c0"/>
     <use xlink:href="#mb2ec6149c0" x="151.510909" y="439.525364" style="fill: #c586c0; stroke: #c586c0"/>
     <use xlink:href="#mb2ec6149c0" x="213.968864" y="501.983318" style="fill: #c586c0; stroke: #c586c0"/>
     <use xlink:href="#mb2ec6149c0" x="213.968864" y="460.344682" style="fill: #c586c0; stroke: #c586c0"/>
     <use xlink:href="#mb2ec6149c0" x="255.6075" y="460.344682" style="fill: #c586c0; stroke: #c586c0"/>
     <use xlink:href="#mb2ec6149c0" x="297.246136" y="460.344682" style="fill: #c586c0; stroke: #c586c0"/>
     <use xlink:href="#mb2ec6149c0" x="172.330227" y="377.067409" style="fill: #c586c0; stroke: #c586c0"/>
     <use xlink:href="#mb2ec6149c0" x="505.439318" y="668.537864" style="fill: #c586c0; stroke: #c586c0"/>
     <use xlink:href="#mb2ec6149c0" x="505.439318" y="710.1765" style="fill: #c586c0; stroke: #c586c0"/>
     <use xlink:href="#mb2ec6149c0" x="505.439318" y="751.815136" style="fill: #c586c0; stroke: #c586c0"/>
     <use xlink:href="#mb2ec6149c0" x="588.716591" y="793.453773" style="fill: #c586c0; stroke: #c586c0"/>
     <use xlink:href="#mb2ec6149c0" x="505.439318" y="647.718545" style="fill: #c586c0; stroke: #c586c0"/>
     <use xlink:href="#mb2ec6149c0" x="484.62" y="668.537864" style="fill: #c586c0; stroke: #c586c0"/>
     <use xlink:href="#mb2ec6149c0" x="505.439318" y="730.995818" style="fill: #c586c0; stroke: #c586c0"/>
     <use xlink:href="#mb2ec6149c0" x="567.897273" y="793.453773" style="fill: #c586c0; stroke: #c586c0"/>
     <use xlink:href="#mb2ec6149c0" x="484.62" y="751.815136" style="fill: #c586c0; stroke: #c586c0"/>
     <use xlink:href="#mb2ec6149c0" x="588.716591" y="814.273091" style="fill: #c586c0; stroke: #c586c0"/>
     <use xlink:href="#mb2ec6149c0" x="318.065455" y="460.344682" style="fill: #c586c0; stroke: #c586c0"/>
     <use xlink:href="#mb2ec6149c0" x="255.6075" y="481.164" style="fill: #c586c0; stroke: #c586c0"/>
     <use xlink:href="#mb2ec6149c0" x="172.330227" y="397.886727" style="fill: #c586c0; stroke: #c586c0"/>
     <use xlink:href="#mb2ec6149c0" x="297.246136" y="439.525364" style="fill: #c586c0; stroke: #c586c0"/>
     <use xlink:href="#mb2ec6149c0" x="255.6075" y="439.525364" style="fill: #c586c0; stroke: #c586c0"/>
     <use xlink:href="#mb2ec6149c0" x="276.426818" y="460.344682" style="fill: #c586c0; stroke: #c586c0"/>
     <use xlink:href="#mb2ec6149c0" x="172.330227" y="356.248091" style="fill: #c586c0; stroke: #c586c0"/>
     <use xlink:href="#mb2ec6149c0" x="193.149545" y="377.067409" style="fill: #c586c0; stroke: #c586c0"/>
     <use xlink:href="#mb2ec6149c0" x="526.258636" y="668.537864" style="fill: #c586c0; stroke: #c586c0"/>
     <use xlink:href="#mb2ec6149c0" x="505.439318" y="689.357182" style="fill: #c586c0; stroke: #c586c0"/>
     <use xlink:href="#mb2ec6149c0" x="526.258636" y="710.1765" style="fill: #c586c0; stroke: #c586c0"/>
     <use xlink:href="#mb2ec6149c0" x="526.258636" y="751.815136" style="fill: #c586c0; stroke: #c586c0"/>
     <use xlink:href="#mb2ec6149c0" x="505.439318" y="772.634455" style="fill: #c586c0; stroke: #c586c0"/>
     <use xlink:href="#mb2ec6149c0" x="588.716591" y="772.634455" style="fill: #c586c0; stroke: #c586c0"/>
     <use xlink:href="#mb2ec6149c0" x="609.535909" y="793.453773" style="fill: #c586c0; stroke: #c586c0"/>
     <use xlink:href="#mb2ec6149c0" x="484.62" y="710.1765" style="fill: #c586c0; stroke: #c586c0"/>
     <use xlink:href="#mb2ec6149c0" x="234.788182" y="460.344682" style="fill: #c586c0; stroke: #c586c0"/>
     <use xlink:href="#mb2ec6149c0" x="297.246136" y="481.164" style="fill: #c586c0; stroke: #c586c0"/>
     <use xlink:href="#mb2ec6149c0" x="151.510909" y="377.067409" style="fill: #c586c0; stroke: #c586c0"/>
     <use xlink:href="#mb2ec6149c0" x="234.788182" y="543.621955" style="fill: #c586c0; stroke: #c586c0"/>
     <use xlink:href="#mb2ec6149c0" x="213.968864" y="522.802636" style="fill: #c586c0; stroke: #c586c0"/>
     <use xlink:href="#mb2ec6149c0" x="234.788182" y="501.983318" style="fill: #c586c0; stroke: #c586c0"/>
     <use xlink:href="#mb2ec6149c0" x="213.968864" y="481.164" style="fill: #c586c0; stroke: #c586c0"/>
     <use xlink:href="#mb2ec6149c0" x="193.149545" y="501.983318" style="fill: #c586c0; stroke: #c586c0"/>
     <use xlink:href="#mb2ec6149c0" x="193.149545" y="460.344682" style="fill: #c586c0; stroke: #c586c0"/>
     <use xlink:href="#mb2ec6149c0" x="213.968864" y="439.525364" style="fill: #c586c0; stroke: #c586c0"/>
    </g>
   </g>
   <g id="line2d_68">
    <path d="M 213.968864 543.621955 
L 203.559205 512.392977 
L 224.378523 512.392977 
L 224.378523 491.573659 
L 203.559205 491.573659 
L 172.330227 501.983318 
L 172.330227 460.344682 
L 172.330227 418.706045 
L 213.968864 418.706045 
L 224.378523 449.935023 
L 203.559205 449.935023 
L 203.559205 470.754341 
L 224.378523 470.754341 
L 245.197841 470.754341 
L 245.197841 449.935023 
L 266.017159 449.935023 
L 266.017159 470.754341 
L 286.836477 470.754341 
L 307.655795 470.754341 
L 307.655795 449.935023 
L 286.836477 449.935023 
L 297.246136 418.706045 
L 255.6075 418.706045 
L 276.426818 356.248091 
L 213.968864 335.428773 
L 213.968864 377.067409 
L 182.739886 366.65775 
L 182.739886 387.477068 
L 161.920568 387.477068 
L 161.920568 366.65775 
L 172.330227 335.428773 
L 234.788182 231.332182 
L 401.342727 231.332182 
L 401.342727 397.886727 
L 567.897273 397.886727 
L 567.897273 231.332182 
L 734.451818 231.332182 
L 734.451818 397.886727 
L 734.451818 564.441273 
L 567.897273 564.441273 
L 609.535909 689.357182 
L 547.077955 668.537864 
L 515.848977 658.128205 
L 495.029659 658.128205 
L 495.029659 678.947523 
L 515.848977 678.947523 
L 515.848977 699.766841 
L 495.029659 699.766841 
L 495.029659 720.586159 
L 515.848977 720.586159 
L 547.077955 710.1765 
L 547.077955 751.815136 
L 515.848977 741.405477 
L 495.029659 741.405477 
L 495.029659 762.224795 
L 515.848977 762.224795 
L 505.439318 793.453773 
L 547.077955 793.453773 
L 578.306932 803.863432 
L 599.12625 803.863432 
L 599.12625 783.044114 
L 578.306932 783.044114 
L 588.716591 751.815136 
L 630.355227 751.815136 
L 630.355227 793.453773 
L 734.451818 730.995818 
" clip-path="url(#pbd4e0e9dc8)" style="fill: none; stroke: #6a9955; stroke-width: 5; stroke-linecap: square"/>
   </g>
  </g>
 </g>
 <defs>
  <clipPath id="pbd4e0e9dc8">
   <rect x="118.2" y="114.744" width="732.84" height="732.84"/>
  </clipPath>
 </defs>
</svg>
