<?xml version="1.0" encoding="utf-8" standalone="no"?>
<!DOCTYPE svg PUBLIC "-//W3C//DTD SVG 1.1//EN"
  "http://www.w3.org/Graphics/SVG/1.1/DTD/svg11.dtd">
<svg xmlns:xlink="http://www.w3.org/1999/xlink" width="250.56pt" height="459.84pt" viewBox="0 0 250.56 459.84" xmlns="http://www.w3.org/2000/svg" version="1.1">
 <metadata>
  <rdf:RDF xmlns:dc="http://purl.org/dc/elements/1.1/" xmlns:cc="http://creativecommons.org/ns#" xmlns:rdf="http://www.w3.org/1999/02/22-rdf-syntax-ns#">
   <cc:Work>
    <dc:type rdf:resource="http://purl.org/dc/dcmitype/StillImage"/>
    <dc:date>2022-01-17T16:52:00.173845</dc:date>
    <dc:format>image/svg+xml</dc:format>
    <dc:creator>
     <cc:Agent>
      <dc:title>Matplotlib v3.5.0, https://matplotlib.org/</dc:title>
     </cc:Agent>
    </dc:creator>
   </cc:Work>
  </rdf:RDF>
 </metadata>
 <defs>
  <style type="text/css">*{stroke-linejoin: round; stroke-linecap: butt}</style>
 </defs>
 <g id="figure_1">
  <g id="patch_1">
   <path d="M 0 459.84 
L 250.56 459.84 
L 250.56 0 
L 0 0 
z
" style="fill: #ffffff"/>
  </g>
  <g id="axes_1">
   <g id="patch_2">
    <path d="M 39.8928 409.2576 
L 216.9312 409.2576 
L 216.9312 55.1808 
L 39.8928 55.1808 
z
" style="fill: #ffffff"/>
   </g>
   <g id="matplotlib.axis_1">
    <g id="xtick_1">
     <g id="line2d_1">
      <defs>
       <path id="mae0d8a11f7" d="M 0 0 
L 0 3.5 
" style="stroke: #000000; stroke-width: 0.8"/>
      </defs>
      <g>
       <use xlink:href="#mae0d8a11f7" x="80.1288" y="409.2576" style="stroke: #000000; stroke-width: 0.8"/>
      </g>
     </g>
     <g id="text_1">
      <!-- 0.6 -->
      <g transform="translate(72.177238 423.856038)scale(0.1 -0.1)">
       <defs>
        <path id="DejaVuSans-30" d="M 2034 4250 
Q 1547 4250 1301 3770 
Q 1056 3291 1056 2328 
Q 1056 1369 1301 889 
Q 1547 409 2034 409 
Q 2525 409 2770 889 
Q 3016 1369 3016 2328 
Q 3016 3291 2770 3770 
Q 2525 4250 2034 4250 
z
M 2034 4750 
Q 2819 4750 3233 4129 
Q 3647 3509 3647 2328 
Q 3647 1150 3233 529 
Q 2819 -91 2034 -91 
Q 1250 -91 836 529 
Q 422 1150 422 2328 
Q 422 3509 836 4129 
Q 1250 4750 2034 4750 
z
" transform="scale(0.015625)"/>
        <path id="DejaVuSans-2e" d="M 684 794 
L 1344 794 
L 1344 0 
L 684 0 
L 684 794 
z
" transform="scale(0.015625)"/>
        <path id="DejaVuSans-36" d="M 2113 2584 
Q 1688 2584 1439 2293 
Q 1191 2003 1191 1497 
Q 1191 994 1439 701 
Q 1688 409 2113 409 
Q 2538 409 2786 701 
Q 3034 994 3034 1497 
Q 3034 2003 2786 2293 
Q 2538 2584 2113 2584 
z
M 3366 4563 
L 3366 3988 
Q 3128 4100 2886 4159 
Q 2644 4219 2406 4219 
Q 1781 4219 1451 3797 
Q 1122 3375 1075 2522 
Q 1259 2794 1537 2939 
Q 1816 3084 2150 3084 
Q 2853 3084 3261 2657 
Q 3669 2231 3669 1497 
Q 3669 778 3244 343 
Q 2819 -91 2113 -91 
Q 1303 -91 875 529 
Q 447 1150 447 2328 
Q 447 3434 972 4092 
Q 1497 4750 2381 4750 
Q 2619 4750 2861 4703 
Q 3103 4656 3366 4563 
z
" transform="scale(0.015625)"/>
       </defs>
       <use xlink:href="#DejaVuSans-30"/>
       <use xlink:href="#DejaVuSans-2e" x="63.623047"/>
       <use xlink:href="#DejaVuSans-36" x="95.410156"/>
      </g>
     </g>
    </g>
    <g id="xtick_2">
     <g id="line2d_2">
      <g>
       <use xlink:href="#mae0d8a11f7" x="144.5064" y="409.2576" style="stroke: #000000; stroke-width: 0.8"/>
      </g>
     </g>
     <g id="text_2">
      <!-- 0.8 -->
      <g transform="translate(136.554838 423.856038)scale(0.1 -0.1)">
       <defs>
        <path id="DejaVuSans-38" d="M 2034 2216 
Q 1584 2216 1326 1975 
Q 1069 1734 1069 1313 
Q 1069 891 1326 650 
Q 1584 409 2034 409 
Q 2484 409 2743 651 
Q 3003 894 3003 1313 
Q 3003 1734 2745 1975 
Q 2488 2216 2034 2216 
z
M 1403 2484 
Q 997 2584 770 2862 
Q 544 3141 544 3541 
Q 544 4100 942 4425 
Q 1341 4750 2034 4750 
Q 2731 4750 3128 4425 
Q 3525 4100 3525 3541 
Q 3525 3141 3298 2862 
Q 3072 2584 2669 2484 
Q 3125 2378 3379 2068 
Q 3634 1759 3634 1313 
Q 3634 634 3220 271 
Q 2806 -91 2034 -91 
Q 1263 -91 848 271 
Q 434 634 434 1313 
Q 434 1759 690 2068 
Q 947 2378 1403 2484 
z
M 1172 3481 
Q 1172 3119 1398 2916 
Q 1625 2713 2034 2713 
Q 2441 2713 2670 2916 
Q 2900 3119 2900 3481 
Q 2900 3844 2670 4047 
Q 2441 4250 2034 4250 
Q 1625 4250 1398 4047 
Q 1172 3844 1172 3481 
z
" transform="scale(0.015625)"/>
       </defs>
       <use xlink:href="#DejaVuSans-30"/>
       <use xlink:href="#DejaVuSans-2e" x="63.623047"/>
       <use xlink:href="#DejaVuSans-38" x="95.410156"/>
      </g>
     </g>
    </g>
    <g id="xtick_3">
     <g id="line2d_3">
      <g>
       <use xlink:href="#mae0d8a11f7" x="208.884" y="409.2576" style="stroke: #000000; stroke-width: 0.8"/>
      </g>
     </g>
     <g id="text_3">
      <!-- 1.0 -->
      <g transform="translate(200.932438 423.856038)scale(0.1 -0.1)">
       <defs>
        <path id="DejaVuSans-31" d="M 794 531 
L 1825 531 
L 1825 4091 
L 703 3866 
L 703 4441 
L 1819 4666 
L 2450 4666 
L 2450 531 
L 3481 531 
L 3481 0 
L 794 0 
L 794 531 
z
" transform="scale(0.015625)"/>
       </defs>
       <use xlink:href="#DejaVuSans-31"/>
       <use xlink:href="#DejaVuSans-2e" x="63.623047"/>
       <use xlink:href="#DejaVuSans-30" x="95.410156"/>
      </g>
     </g>
    </g>
    <g id="text_4">
     <!-- x -->
     <g transform="translate(125.452625 437.534163)scale(0.1 -0.1)">
      <defs>
       <path id="DejaVuSans-78" d="M 3513 3500 
L 2247 1797 
L 3578 0 
L 2900 0 
L 1881 1375 
L 863 0 
L 184 0 
L 1544 1831 
L 300 3500 
L 978 3500 
L 1906 2253 
L 2834 3500 
L 3513 3500 
z
" transform="scale(0.015625)"/>
      </defs>
      <use xlink:href="#DejaVuSans-78"/>
     </g>
    </g>
   </g>
   <g id="matplotlib.axis_2">
    <g id="ytick_1">
     <g id="line2d_4">
      <defs>
       <path id="mb9521a903f" d="M 0 0 
L -3.5 0 
" style="stroke: #000000; stroke-width: 0.8"/>
      </defs>
      <g>
       <use xlink:href="#mb9521a903f" x="39.8928" y="393.1632" style="stroke: #000000; stroke-width: 0.8"/>
      </g>
     </g>
     <g id="text_5">
      <!-- 0.0 -->
      <g transform="translate(16.989675 396.962419)scale(0.1 -0.1)">
       <use xlink:href="#DejaVuSans-30"/>
       <use xlink:href="#DejaVuSans-2e" x="63.623047"/>
       <use xlink:href="#DejaVuSans-30" x="95.410156"/>
      </g>
     </g>
    </g>
    <g id="ytick_2">
     <g id="line2d_5">
      <g>
       <use xlink:href="#mb9521a903f" x="39.8928" y="328.7856" style="stroke: #000000; stroke-width: 0.8"/>
      </g>
     </g>
     <g id="text_6">
      <!-- 0.2 -->
      <g transform="translate(16.989675 332.584819)scale(0.1 -0.1)">
       <defs>
        <path id="DejaVuSans-32" d="M 1228 531 
L 3431 531 
L 3431 0 
L 469 0 
L 469 531 
Q 828 903 1448 1529 
Q 2069 2156 2228 2338 
Q 2531 2678 2651 2914 
Q 2772 3150 2772 3378 
Q 2772 3750 2511 3984 
Q 2250 4219 1831 4219 
Q 1534 4219 1204 4116 
Q 875 4013 500 3803 
L 500 4441 
Q 881 4594 1212 4672 
Q 1544 4750 1819 4750 
Q 2544 4750 2975 4387 
Q 3406 4025 3406 3419 
Q 3406 3131 3298 2873 
Q 3191 2616 2906 2266 
Q 2828 2175 2409 1742 
Q 1991 1309 1228 531 
z
" transform="scale(0.015625)"/>
       </defs>
       <use xlink:href="#DejaVuSans-30"/>
       <use xlink:href="#DejaVuSans-2e" x="63.623047"/>
       <use xlink:href="#DejaVuSans-32" x="95.410156"/>
      </g>
     </g>
    </g>
    <g id="ytick_3">
     <g id="line2d_6">
      <g>
       <use xlink:href="#mb9521a903f" x="39.8928" y="264.408" style="stroke: #000000; stroke-width: 0.8"/>
      </g>
     </g>
     <g id="text_7">
      <!-- 0.4 -->
      <g transform="translate(16.989675 268.207219)scale(0.1 -0.1)">
       <defs>
        <path id="DejaVuSans-34" d="M 2419 4116 
L 825 1625 
L 2419 1625 
L 2419 4116 
z
M 2253 4666 
L 3047 4666 
L 3047 1625 
L 3713 1625 
L 3713 1100 
L 3047 1100 
L 3047 0 
L 2419 0 
L 2419 1100 
L 313 1100 
L 313 1709 
L 2253 4666 
z
" transform="scale(0.015625)"/>
       </defs>
       <use xlink:href="#DejaVuSans-30"/>
       <use xlink:href="#DejaVuSans-2e" x="63.623047"/>
       <use xlink:href="#DejaVuSans-34" x="95.410156"/>
      </g>
     </g>
    </g>
    <g id="ytick_4">
     <g id="line2d_7">
      <g>
       <use xlink:href="#mb9521a903f" x="39.8928" y="200.0304" style="stroke: #000000; stroke-width: 0.8"/>
      </g>
     </g>
     <g id="text_8">
      <!-- 0.6 -->
      <g transform="translate(16.989675 203.829619)scale(0.1 -0.1)">
       <use xlink:href="#DejaVuSans-30"/>
       <use xlink:href="#DejaVuSans-2e" x="63.623047"/>
       <use xlink:href="#DejaVuSans-36" x="95.410156"/>
      </g>
     </g>
    </g>
    <g id="ytick_5">
     <g id="line2d_8">
      <g>
       <use xlink:href="#mb9521a903f" x="39.8928" y="135.6528" style="stroke: #000000; stroke-width: 0.8"/>
      </g>
     </g>
     <g id="text_9">
      <!-- 0.8 -->
      <g transform="translate(16.989675 139.452019)scale(0.1 -0.1)">
       <use xlink:href="#DejaVuSans-30"/>
       <use xlink:href="#DejaVuSans-2e" x="63.623047"/>
       <use xlink:href="#DejaVuSans-38" x="95.410156"/>
      </g>
     </g>
    </g>
    <g id="ytick_6">
     <g id="line2d_9">
      <g>
       <use xlink:href="#mb9521a903f" x="39.8928" y="71.2752" style="stroke: #000000; stroke-width: 0.8"/>
      </g>
     </g>
     <g id="text_10">
      <!-- 1.0 -->
      <g transform="translate(16.989675 75.074419)scale(0.1 -0.1)">
       <use xlink:href="#DejaVuSans-31"/>
       <use xlink:href="#DejaVuSans-2e" x="63.623047"/>
       <use xlink:href="#DejaVuSans-30" x="95.410156"/>
      </g>
     </g>
    </g>
    <g id="text_11">
     <!-- y -->
     <g transform="translate(10.909988 235.178575)rotate(-90)scale(0.1 -0.1)">
      <defs>
       <path id="DejaVuSans-79" d="M 2059 -325 
Q 1816 -950 1584 -1140 
Q 1353 -1331 966 -1331 
L 506 -1331 
L 506 -850 
L 844 -850 
Q 1081 -850 1212 -737 
Q 1344 -625 1503 -206 
L 1606 56 
L 191 3500 
L 800 3500 
L 1894 763 
L 2988 3500 
L 3597 3500 
L 2059 -325 
z
" transform="scale(0.015625)"/>
      </defs>
      <use xlink:href="#DejaVuSans-79"/>
     </g>
    </g>
   </g>
   <g id="line2d_10">
    <path d="M 125.3943 393.1632 
L 111.3117 393.1632 
" clip-path="url(#p5d8f60d5e3)" style="fill: none; stroke: #f44747; stroke-width: 5; stroke-linecap: square"/>
   </g>
   <g id="line2d_11">
    <path d="M 105.2763 393.1632 
L 91.1937 393.1632 
" clip-path="url(#p5d8f60d5e3)" style="fill: none; stroke: #f44747; stroke-width: 5; stroke-linecap: square"/>
   </g>
   <g id="line2d_12">
    <path d="M 85.1583 393.1632 
L 71.0757 393.1632 
" clip-path="url(#p5d8f60d5e3)" style="fill: none; stroke: #f44747; stroke-width: 5; stroke-linecap: square"/>
   </g>
   <g id="line2d_13">
    <path d="M 65.0403 393.1632 
L 50.9577 393.1632 
" clip-path="url(#p5d8f60d5e3)" style="fill: none; stroke: #f44747; stroke-width: 5; stroke-linecap: square"/>
   </g>
   <g id="line2d_14">
    <path d="M 196.8132 393.1632 
L 140.4828 393.1632 
" clip-path="url(#p5d8f60d5e3)" style="fill: none; stroke: #f44747; stroke-width: 5; stroke-linecap: square"/>
   </g>
   <g id="line2d_15">
    <path d="M 208.884 324.762 
L 208.884 381.0924 
" clip-path="url(#p5d8f60d5e3)" style="fill: none; stroke: #f44747; stroke-width: 5; stroke-linecap: square"/>
   </g>
   <g id="line2d_16">
    <path d="M 208.884 244.29 
L 208.884 300.6204 
" clip-path="url(#p5d8f60d5e3)" style="fill: none; stroke: #f44747; stroke-width: 5; stroke-linecap: square"/>
   </g>
   <g id="line2d_17">
    <path d="M 208.884 163.818 
L 208.884 220.1484 
" clip-path="url(#p5d8f60d5e3)" style="fill: none; stroke: #f44747; stroke-width: 5; stroke-linecap: square"/>
   </g>
   <g id="line2d_18">
    <path d="M 47.94 390.1455 
L 47.94 376.0629 
" clip-path="url(#p5d8f60d5e3)" style="fill: none; stroke: #f44747; stroke-width: 5; stroke-linecap: square"/>
   </g>
   <g id="line2d_19">
    <path d="M 47.94 370.0275 
L 47.94 355.9449 
" clip-path="url(#p5d8f60d5e3)" style="fill: none; stroke: #f44747; stroke-width: 5; stroke-linecap: square"/>
   </g>
   <g id="line2d_20">
    <path d="M 47.94 349.9095 
L 47.94 335.8269 
" clip-path="url(#p5d8f60d5e3)" style="fill: none; stroke: #f44747; stroke-width: 5; stroke-linecap: square"/>
   </g>
   <g id="line2d_21">
    <path d="M 47.94 329.7915 
L 47.94 315.7089 
" clip-path="url(#p5d8f60d5e3)" style="fill: none; stroke: #f44747; stroke-width: 5; stroke-linecap: square"/>
   </g>
   <g id="line2d_22">
    <path d="M 47.94 309.6735 
L 47.94 295.5909 
" clip-path="url(#p5d8f60d5e3)" style="fill: none; stroke: #f44747; stroke-width: 5; stroke-linecap: square"/>
   </g>
   <g id="line2d_23">
    <path d="M 47.94 289.5555 
L 47.94 275.4729 
" clip-path="url(#p5d8f60d5e3)" style="fill: none; stroke: #f44747; stroke-width: 5; stroke-linecap: square"/>
   </g>
   <g id="line2d_24">
    <path d="M 47.94 266.4198 
L 47.94 238.2546 
" clip-path="url(#p5d8f60d5e3)" style="fill: none; stroke: #f44747; stroke-width: 5; stroke-linecap: square"/>
   </g>
   <g id="line2d_25">
    <path d="M 60.0108 232.2192 
L 116.3412 232.2192 
" clip-path="url(#p5d8f60d5e3)" style="fill: none; stroke: #f44747; stroke-width: 5; stroke-linecap: square"/>
   </g>
   <g id="line2d_26">
    <path d="M 128.412 220.1484 
L 128.412 163.818 
" clip-path="url(#p5d8f60d5e3)" style="fill: none; stroke: #f44747; stroke-width: 5; stroke-linecap: square"/>
   </g>
   <g id="line2d_27">
    <path d="M 47.94 139.6764 
L 47.94 83.346 
" clip-path="url(#p5d8f60d5e3)" style="fill: none; stroke: #f44747; stroke-width: 5; stroke-linecap: square"/>
   </g>
   <g id="line2d_28">
    <path d="M 116.3412 151.7472 
L 60.0108 151.7472 
" clip-path="url(#p5d8f60d5e3)" style="fill: none; stroke: #f44747; stroke-width: 5; stroke-linecap: square"/>
   </g>
   <g id="line2d_29">
    <path d="M 60.0108 71.2752 
L 116.3412 71.2752 
" clip-path="url(#p5d8f60d5e3)" style="fill: none; stroke: #f44747; stroke-width: 5; stroke-linecap: square"/>
   </g>
   <g id="line2d_30">
    <path d="M 208.884 83.346 
L 208.884 139.6764 
" clip-path="url(#p5d8f60d5e3)" style="fill: none; stroke: #f44747; stroke-width: 5; stroke-linecap: square"/>
   </g>
   <g id="line2d_31">
    <path d="M 140.4828 71.2752 
L 196.8132 71.2752 
" clip-path="url(#p5d8f60d5e3)" style="fill: none; stroke: #f44747; stroke-width: 5; stroke-linecap: square"/>
   </g>
   <g id="line2d_32">
    <path d="M 128.412 151.7472 
L 128.412 71.2752 
L 47.94 71.2752 
L 47.94 151.7472 
L 128.412 151.7472 
" clip-path="url(#p5d8f60d5e3)" style="fill: none; stroke: #252525; stroke-width: 3; stroke-linecap: square"/>
   </g>
   <g id="line2d_33">
    <path d="M 208.884 151.7472 
L 208.884 71.2752 
L 128.412 71.2752 
L 128.412 151.7472 
L 208.884 151.7472 
" clip-path="url(#p5d8f60d5e3)" style="fill: none; stroke: #252525; stroke-width: 3; stroke-linecap: square"/>
   </g>
   <g id="line2d_34">
    <path d="M 208.884 232.2192 
L 208.884 151.7472 
L 128.412 151.7472 
L 128.412 232.2192 
L 208.884 232.2192 
" clip-path="url(#p5d8f60d5e3)" style="fill: none; stroke: #252525; stroke-width: 3; stroke-linecap: square"/>
   </g>
   <g id="line2d_35">
    <path d="M 208.884 312.6912 
L 208.884 232.2192 
L 128.412 232.2192 
L 128.412 312.6912 
L 208.884 312.6912 
" clip-path="url(#p5d8f60d5e3)" style="fill: none; stroke: #252525; stroke-width: 3; stroke-linecap: square"/>
   </g>
   <g id="line2d_36">
    <path d="M 128.412 312.6912 
L 128.412 232.2192 
L 47.94 232.2192 
L 47.94 312.6912 
L 128.412 312.6912 
" clip-path="url(#p5d8f60d5e3)" style="fill: none; stroke: #252525; stroke-width: 3; stroke-linecap: square"/>
   </g>
   <g id="line2d_37">
    <path d="M 128.412 352.9272 
L 128.412 312.6912 
L 88.176 312.6912 
L 88.176 352.9272 
L 128.412 352.9272 
" clip-path="url(#p5d8f60d5e3)" style="fill: none; stroke: #252525; stroke-width: 3; stroke-linecap: square"/>
   </g>
   <g id="line2d_38">
    <path d="M 88.176 332.8092 
L 88.176 312.6912 
L 68.058 312.6912 
L 68.058 332.8092 
L 88.176 332.8092 
" clip-path="url(#p5d8f60d5e3)" style="fill: none; stroke: #252525; stroke-width: 3; stroke-linecap: square"/>
   </g>
   <g id="line2d_39">
    <path d="M 68.058 332.8092 
L 68.058 312.6912 
L 47.94 312.6912 
L 47.94 332.8092 
L 68.058 332.8092 
" clip-path="url(#p5d8f60d5e3)" style="fill: none; stroke: #252525; stroke-width: 3; stroke-linecap: square"/>
   </g>
   <g id="line2d_40">
    <path d="M 68.058 352.9272 
L 68.058 332.8092 
L 47.94 332.8092 
L 47.94 352.9272 
L 68.058 352.9272 
" clip-path="url(#p5d8f60d5e3)" style="fill: none; stroke: #252525; stroke-width: 3; stroke-linecap: square"/>
   </g>
   <g id="line2d_41">
    <path d="M 88.176 352.9272 
L 88.176 332.8092 
L 68.058 332.8092 
L 68.058 352.9272 
L 88.176 352.9272 
" clip-path="url(#p5d8f60d5e3)" style="fill: none; stroke: #252525; stroke-width: 3; stroke-linecap: square"/>
   </g>
   <g id="line2d_42">
    <path d="M 88.176 373.0452 
L 88.176 352.9272 
L 68.058 352.9272 
L 68.058 373.0452 
L 88.176 373.0452 
" clip-path="url(#p5d8f60d5e3)" style="fill: none; stroke: #252525; stroke-width: 3; stroke-linecap: square"/>
   </g>
   <g id="line2d_43">
    <path d="M 68.058 373.0452 
L 68.058 352.9272 
L 47.94 352.9272 
L 47.94 373.0452 
L 68.058 373.0452 
" clip-path="url(#p5d8f60d5e3)" style="fill: none; stroke: #252525; stroke-width: 3; stroke-linecap: square"/>
   </g>
   <g id="line2d_44">
    <path d="M 68.058 393.1632 
L 68.058 373.0452 
L 47.94 373.0452 
L 47.94 393.1632 
L 68.058 393.1632 
" clip-path="url(#p5d8f60d5e3)" style="fill: none; stroke: #252525; stroke-width: 3; stroke-linecap: square"/>
   </g>
   <g id="line2d_45">
    <path d="M 88.176 393.1632 
L 88.176 373.0452 
L 68.058 373.0452 
L 68.058 393.1632 
L 88.176 393.1632 
" clip-path="url(#p5d8f60d5e3)" style="fill: none; stroke: #252525; stroke-width: 3; stroke-linecap: square"/>
   </g>
   <g id="line2d_46">
    <path d="M 108.294 393.1632 
L 108.294 373.0452 
L 88.176 373.0452 
L 88.176 393.1632 
L 108.294 393.1632 
" clip-path="url(#p5d8f60d5e3)" style="fill: none; stroke: #252525; stroke-width: 3; stroke-linecap: square"/>
   </g>
   <g id="line2d_47">
    <path d="M 108.294 373.0452 
L 108.294 352.9272 
L 88.176 352.9272 
L 88.176 373.0452 
L 108.294 373.0452 
" clip-path="url(#p5d8f60d5e3)" style="fill: none; stroke: #252525; stroke-width: 3; stroke-linecap: square"/>
   </g>
   <g id="line2d_48">
    <path d="M 128.412 373.0452 
L 128.412 352.9272 
L 108.294 352.9272 
L 108.294 373.0452 
L 128.412 373.0452 
" clip-path="url(#p5d8f60d5e3)" style="fill: none; stroke: #252525; stroke-width: 3; stroke-linecap: square"/>
   </g>
   <g id="line2d_49">
    <path d="M 128.412 393.1632 
L 128.412 373.0452 
L 108.294 373.0452 
L 108.294 393.1632 
L 128.412 393.1632 
" clip-path="url(#p5d8f60d5e3)" style="fill: none; stroke: #252525; stroke-width: 3; stroke-linecap: square"/>
   </g>
   <g id="line2d_50">
    <path d="M 208.884 393.1632 
L 208.884 312.6912 
L 128.412 312.6912 
L 128.412 393.1632 
L 208.884 393.1632 
" clip-path="url(#p5d8f60d5e3)" style="fill: none; stroke: #252525; stroke-width: 3; stroke-linecap: square"/>
   </g>
   <g id="line2d_51">
    <path d="M 208.884 304.644 
L 208.884 240.2664 
" clip-path="url(#p5d8f60d5e3)" style="fill: none; stroke: #569cd6; stroke-linecap: square"/>
   </g>
   <g id="line2d_52">
    <path d="M 200.8368 232.2192 
L 136.4592 232.2192 
" clip-path="url(#p5d8f60d5e3)" style="fill: none; stroke: #569cd6; stroke-linecap: square"/>
   </g>
   <g id="line2d_53">
    <path d="M 128.412 240.2664 
L 128.412 304.644 
" clip-path="url(#p5d8f60d5e3)" style="fill: none; stroke: #569cd6; stroke-linecap: square"/>
   </g>
   <g id="line2d_54">
    <path d="M 136.4592 312.6912 
L 200.8368 312.6912 
" clip-path="url(#p5d8f60d5e3)" style="fill: none; stroke: #569cd6; stroke-linecap: square"/>
   </g>
   <g id="line2d_55">
    <path d="M 120.3648 232.2192 
L 55.9872 232.2192 
" clip-path="url(#p5d8f60d5e3)" style="fill: none; stroke: #569cd6; stroke-linecap: square"/>
   </g>
   <g id="line2d_56">
    <path d="M 47.94 236.2428 
L 47.94 268.4316 
" clip-path="url(#p5d8f60d5e3)" style="fill: none; stroke: #569cd6; stroke-linecap: square"/>
   </g>
   <g id="line2d_57">
    <path d="M 49.9518 312.6912 
L 66.0462 312.6912 
" clip-path="url(#p5d8f60d5e3)" style="fill: none; stroke: #569cd6; stroke-linecap: square"/>
   </g>
   <g id="line2d_58">
    <path d="M 128.412 391.1514 
L 128.412 375.057 
" clip-path="url(#p5d8f60d5e3)" style="fill: none; stroke: #569cd6; stroke-linecap: square"/>
   </g>
   <g id="line2d_59">
    <path d="M 47.94 314.703 
L 47.94 330.7974 
" clip-path="url(#p5d8f60d5e3)" style="fill: none; stroke: #569cd6; stroke-linecap: square"/>
   </g>
   <g id="line2d_60">
    <path d="M 49.9518 393.1632 
L 66.0462 393.1632 
" clip-path="url(#p5d8f60d5e3)" style="fill: none; stroke: #569cd6; stroke-linecap: square"/>
   </g>
   <g id="line2d_61">
    <path d="M 208.884 385.116 
L 208.884 320.7384 
" clip-path="url(#p5d8f60d5e3)" style="fill: none; stroke: #569cd6; stroke-linecap: square"/>
   </g>
   <g id="line2d_62">
    <path d="M 136.4592 393.1632 
L 200.8368 393.1632 
" clip-path="url(#p5d8f60d5e3)" style="fill: none; stroke: #569cd6; stroke-linecap: square"/>
   </g>
   <g id="line2d_63">
    <path d="M 126.4002 352.9272 
L 110.3058 352.9272 
" clip-path="url(#p5d8f60d5e3)" style="fill: none; stroke: #569cd6; stroke-linecap: square"/>
   </g>
   <g id="line2d_64">
    <path d="M 88.176 314.703 
L 88.176 330.7974 
" clip-path="url(#p5d8f60d5e3)" style="fill: none; stroke: #569cd6; stroke-linecap: square"/>
   </g>
   <g id="line2d_65">
    <path d="M 49.9518 352.9272 
L 66.0462 352.9272 
" clip-path="url(#p5d8f60d5e3)" style="fill: none; stroke: #569cd6; stroke-linecap: square"/>
   </g>
   <g id="line2d_66">
    <path d="M 88.176 391.1514 
L 88.176 375.057 
" clip-path="url(#p5d8f60d5e3)" style="fill: none; stroke: #569cd6; stroke-linecap: square"/>
   </g>
   <g id="line2d_67">
    <path d="M 47.94 274.467 
L 47.94 290.5614 
" clip-path="url(#p5d8f60d5e3)" style="fill: none; stroke: #569cd6; stroke-linecap: square"/>
   </g>
   <g id="line2d_68">
    <path d="M 92.1996 312.6912 
L 124.3884 312.6912 
" clip-path="url(#p5d8f60d5e3)" style="fill: none; stroke: #569cd6; stroke-linecap: square"/>
   </g>
   <g id="line2d_69">
    <path d="M 128.412 348.9036 
L 128.412 316.7148 
" clip-path="url(#p5d8f60d5e3)" style="fill: none; stroke: #569cd6; stroke-linecap: square"/>
   </g>
   <g id="line2d_70">
    <path d="M 47.94 354.939 
L 47.94 371.0334 
" clip-path="url(#p5d8f60d5e3)" style="fill: none; stroke: #569cd6; stroke-linecap: square"/>
   </g>
   <g id="line2d_71">
    <path d="M 90.1878 393.1632 
L 106.2822 393.1632 
" clip-path="url(#p5d8f60d5e3)" style="fill: none; stroke: #569cd6; stroke-linecap: square"/>
   </g>
   <g id="line2d_72">
    <path d="M 208.884 224.172 
L 208.884 159.7944 
" clip-path="url(#p5d8f60d5e3)" style="fill: none; stroke: #569cd6; stroke-linecap: square"/>
   </g>
   <g id="line2d_73">
    <path d="M 200.8368 151.7472 
L 136.4592 151.7472 
" clip-path="url(#p5d8f60d5e3)" style="fill: none; stroke: #569cd6; stroke-linecap: square"/>
   </g>
   <g id="line2d_74">
    <path d="M 128.412 159.7944 
L 128.412 224.172 
" clip-path="url(#p5d8f60d5e3)" style="fill: none; stroke: #569cd6; stroke-linecap: square"/>
   </g>
   <g id="line2d_75">
    <path d="M 86.1642 332.8092 
L 70.0698 332.8092 
" clip-path="url(#p5d8f60d5e3)" style="fill: none; stroke: #569cd6; stroke-linecap: square"/>
   </g>
   <g id="line2d_76">
    <path d="M 68.058 314.703 
L 68.058 330.7974 
" clip-path="url(#p5d8f60d5e3)" style="fill: none; stroke: #569cd6; stroke-linecap: square"/>
   </g>
   <g id="line2d_77">
    <path d="M 49.9518 332.8092 
L 66.0462 332.8092 
" clip-path="url(#p5d8f60d5e3)" style="fill: none; stroke: #569cd6; stroke-linecap: square"/>
   </g>
   <g id="line2d_78">
    <path d="M 68.058 350.9154 
L 68.058 334.821 
" clip-path="url(#p5d8f60d5e3)" style="fill: none; stroke: #569cd6; stroke-linecap: square"/>
   </g>
   <g id="line2d_79">
    <path d="M 86.1642 373.0452 
L 70.0698 373.0452 
" clip-path="url(#p5d8f60d5e3)" style="fill: none; stroke: #569cd6; stroke-linecap: square"/>
   </g>
   <g id="line2d_80">
    <path d="M 68.058 354.939 
L 68.058 371.0334 
" clip-path="url(#p5d8f60d5e3)" style="fill: none; stroke: #569cd6; stroke-linecap: square"/>
   </g>
   <g id="line2d_81">
    <path d="M 49.9518 373.0452 
L 66.0462 373.0452 
" clip-path="url(#p5d8f60d5e3)" style="fill: none; stroke: #569cd6; stroke-linecap: square"/>
   </g>
   <g id="line2d_82">
    <path d="M 68.058 391.1514 
L 68.058 375.057 
" clip-path="url(#p5d8f60d5e3)" style="fill: none; stroke: #569cd6; stroke-linecap: square"/>
   </g>
   <g id="line2d_83">
    <path d="M 126.4002 373.0452 
L 110.3058 373.0452 
" clip-path="url(#p5d8f60d5e3)" style="fill: none; stroke: #569cd6; stroke-linecap: square"/>
   </g>
   <g id="line2d_84">
    <path d="M 108.294 354.939 
L 108.294 371.0334 
" clip-path="url(#p5d8f60d5e3)" style="fill: none; stroke: #569cd6; stroke-linecap: square"/>
   </g>
   <g id="line2d_85">
    <path d="M 90.1878 373.0452 
L 106.2822 373.0452 
" clip-path="url(#p5d8f60d5e3)" style="fill: none; stroke: #569cd6; stroke-linecap: square"/>
   </g>
   <g id="line2d_86">
    <path d="M 108.294 391.1514 
L 108.294 375.057 
" clip-path="url(#p5d8f60d5e3)" style="fill: none; stroke: #569cd6; stroke-linecap: square"/>
   </g>
   <g id="line2d_87">
    <path d="M 70.0698 312.6912 
L 86.1642 312.6912 
" clip-path="url(#p5d8f60d5e3)" style="fill: none; stroke: #569cd6; stroke-linecap: square"/>
   </g>
   <g id="line2d_88">
    <path d="M 128.412 371.0334 
L 128.412 354.939 
" clip-path="url(#p5d8f60d5e3)" style="fill: none; stroke: #569cd6; stroke-linecap: square"/>
   </g>
   <g id="line2d_89">
    <path d="M 47.94 334.821 
L 47.94 350.9154 
" clip-path="url(#p5d8f60d5e3)" style="fill: none; stroke: #569cd6; stroke-linecap: square"/>
   </g>
   <g id="line2d_90">
    <path d="M 70.0698 393.1632 
L 86.1642 393.1632 
" clip-path="url(#p5d8f60d5e3)" style="fill: none; stroke: #569cd6; stroke-linecap: square"/>
   </g>
   <g id="line2d_91">
    <path d="M 106.2822 352.9272 
L 90.1878 352.9272 
" clip-path="url(#p5d8f60d5e3)" style="fill: none; stroke: #569cd6; stroke-linecap: square"/>
   </g>
   <g id="line2d_92">
    <path d="M 88.176 334.821 
L 88.176 350.9154 
" clip-path="url(#p5d8f60d5e3)" style="fill: none; stroke: #569cd6; stroke-linecap: square"/>
   </g>
   <g id="line2d_93">
    <path d="M 70.0698 352.9272 
L 86.1642 352.9272 
" clip-path="url(#p5d8f60d5e3)" style="fill: none; stroke: #569cd6; stroke-linecap: square"/>
   </g>
   <g id="line2d_94">
    <path d="M 88.176 371.0334 
L 88.176 354.939 
" clip-path="url(#p5d8f60d5e3)" style="fill: none; stroke: #569cd6; stroke-linecap: square"/>
   </g>
   <g id="line2d_95">
    <path d="M 47.94 294.585 
L 47.94 310.6794 
" clip-path="url(#p5d8f60d5e3)" style="fill: none; stroke: #569cd6; stroke-linecap: square"/>
   </g>
   <g id="line2d_96">
    <path d="M 47.94 375.057 
L 47.94 391.1514 
" clip-path="url(#p5d8f60d5e3)" style="fill: none; stroke: #569cd6; stroke-linecap: square"/>
   </g>
   <g id="line2d_97">
    <path d="M 110.3058 393.1632 
L 126.4002 393.1632 
" clip-path="url(#p5d8f60d5e3)" style="fill: none; stroke: #569cd6; stroke-linecap: square"/>
   </g>
   <g id="line2d_98">
    <path d="M 128.412 143.7 
L 128.412 79.3224 
" clip-path="url(#p5d8f60d5e3)" style="fill: none; stroke: #569cd6; stroke-linecap: square"/>
   </g>
   <g id="line2d_99">
    <path d="M 120.3648 71.2752 
L 55.9872 71.2752 
" clip-path="url(#p5d8f60d5e3)" style="fill: none; stroke: #569cd6; stroke-linecap: square"/>
   </g>
   <g id="line2d_100">
    <path d="M 47.94 79.3224 
L 47.94 143.7 
" clip-path="url(#p5d8f60d5e3)" style="fill: none; stroke: #569cd6; stroke-linecap: square"/>
   </g>
   <g id="line2d_101">
    <path d="M 55.9872 151.7472 
L 120.3648 151.7472 
" clip-path="url(#p5d8f60d5e3)" style="fill: none; stroke: #569cd6; stroke-linecap: square"/>
   </g>
   <g id="line2d_102">
    <path d="M 208.884 143.7 
L 208.884 79.3224 
" clip-path="url(#p5d8f60d5e3)" style="fill: none; stroke: #569cd6; stroke-linecap: square"/>
   </g>
   <g id="line2d_103">
    <path d="M 200.8368 71.2752 
L 136.4592 71.2752 
" clip-path="url(#p5d8f60d5e3)" style="fill: none; stroke: #569cd6; stroke-linecap: square"/>
   </g>
   <g id="line2d_104">
    <defs>
     <path id="m8233a8f023" d="M 0 3 
C 0.795609 3 1.55874 2.683901 2.12132 2.12132 
C 2.683901 1.55874 3 0.795609 3 0 
C 3 -0.795609 2.683901 -1.55874 2.12132 -2.12132 
C 1.55874 -2.683901 0.795609 -3 0 -3 
C -0.795609 -3 -1.55874 -2.683901 -2.12132 -2.12132 
C -2.683901 -1.55874 -3 -0.795609 -3 0 
C -3 0.795609 -2.683901 1.55874 -2.12132 2.12132 
C -1.55874 2.683901 -0.795609 3 0 3 
z
" style="stroke: #c586c0"/>
    </defs>
    <g clip-path="url(#p5d8f60d5e3)">
     <use xlink:href="#m8233a8f023" x="47.94" y="393.1632" style="fill: #c586c0; stroke: #c586c0"/>
     <use xlink:href="#m8233a8f023" x="47.94" y="312.6912" style="fill: #c586c0; stroke: #c586c0"/>
     <use xlink:href="#m8233a8f023" x="47.94" y="232.2192" style="fill: #c586c0; stroke: #c586c0"/>
     <use xlink:href="#m8233a8f023" x="128.412" y="393.1632" style="fill: #c586c0; stroke: #c586c0"/>
     <use xlink:href="#m8233a8f023" x="128.412" y="312.6912" style="fill: #c586c0; stroke: #c586c0"/>
     <use xlink:href="#m8233a8f023" x="128.412" y="232.2192" style="fill: #c586c0; stroke: #c586c0"/>
     <use xlink:href="#m8233a8f023" x="208.884" y="393.1632" style="fill: #c586c0; stroke: #c586c0"/>
     <use xlink:href="#m8233a8f023" x="208.884" y="312.6912" style="fill: #c586c0; stroke: #c586c0"/>
     <use xlink:href="#m8233a8f023" x="208.884" y="232.2192" style="fill: #c586c0; stroke: #c586c0"/>
     <use xlink:href="#m8233a8f023" x="88.176" y="352.9272" style="fill: #c586c0; stroke: #c586c0"/>
     <use xlink:href="#m8233a8f023" x="47.94" y="272.4552" style="fill: #c586c0; stroke: #c586c0"/>
     <use xlink:href="#m8233a8f023" x="88.176" y="312.6912" style="fill: #c586c0; stroke: #c586c0"/>
     <use xlink:href="#m8233a8f023" x="128.412" y="352.9272" style="fill: #c586c0; stroke: #c586c0"/>
     <use xlink:href="#m8233a8f023" x="47.94" y="352.9272" style="fill: #c586c0; stroke: #c586c0"/>
     <use xlink:href="#m8233a8f023" x="88.176" y="393.1632" style="fill: #c586c0; stroke: #c586c0"/>
     <use xlink:href="#m8233a8f023" x="208.884" y="151.7472" style="fill: #c586c0; stroke: #c586c0"/>
     <use xlink:href="#m8233a8f023" x="128.412" y="151.7472" style="fill: #c586c0; stroke: #c586c0"/>
     <use xlink:href="#m8233a8f023" x="68.058" y="332.8092" style="fill: #c586c0; stroke: #c586c0"/>
     <use xlink:href="#m8233a8f023" x="68.058" y="373.0452" style="fill: #c586c0; stroke: #c586c0"/>
     <use xlink:href="#m8233a8f023" x="108.294" y="373.0452" style="fill: #c586c0; stroke: #c586c0"/>
     <use xlink:href="#m8233a8f023" x="68.058" y="312.6912" style="fill: #c586c0; stroke: #c586c0"/>
     <use xlink:href="#m8233a8f023" x="128.412" y="373.0452" style="fill: #c586c0; stroke: #c586c0"/>
     <use xlink:href="#m8233a8f023" x="47.94" y="332.8092" style="fill: #c586c0; stroke: #c586c0"/>
     <use xlink:href="#m8233a8f023" x="68.058" y="393.1632" style="fill: #c586c0; stroke: #c586c0"/>
     <use xlink:href="#m8233a8f023" x="108.294" y="352.9272" style="fill: #c586c0; stroke: #c586c0"/>
     <use xlink:href="#m8233a8f023" x="88.176" y="332.8092" style="fill: #c586c0; stroke: #c586c0"/>
     <use xlink:href="#m8233a8f023" x="68.058" y="352.9272" style="fill: #c586c0; stroke: #c586c0"/>
     <use xlink:href="#m8233a8f023" x="88.176" y="373.0452" style="fill: #c586c0; stroke: #c586c0"/>
     <use xlink:href="#m8233a8f023" x="47.94" y="292.5732" style="fill: #c586c0; stroke: #c586c0"/>
     <use xlink:href="#m8233a8f023" x="47.94" y="373.0452" style="fill: #c586c0; stroke: #c586c0"/>
     <use xlink:href="#m8233a8f023" x="108.294" y="393.1632" style="fill: #c586c0; stroke: #c586c0"/>
     <use xlink:href="#m8233a8f023" x="128.412" y="71.2752" style="fill: #c586c0; stroke: #c586c0"/>
     <use xlink:href="#m8233a8f023" x="47.94" y="71.2752" style="fill: #c586c0; stroke: #c586c0"/>
     <use xlink:href="#m8233a8f023" x="47.94" y="151.7472" style="fill: #c586c0; stroke: #c586c0"/>
     <use xlink:href="#m8233a8f023" x="208.884" y="71.2752" style="fill: #c586c0; stroke: #c586c0"/>
    </g>
   </g>
   <g id="line2d_105">
    <path d="M 88.176 111.5112 
L 168.648 111.5112 
L 168.648 191.9832 
L 168.648 272.4552 
L 88.176 272.4552 
L 108.294 332.8092 
L 78.117 322.7502 
L 57.999 322.7502 
L 57.999 342.8682 
L 78.117 342.8682 
L 78.117 362.9862 
L 57.999 362.9862 
L 57.999 383.1042 
L 78.117 383.1042 
L 98.235 383.1042 
L 98.235 362.9862 
L 118.353 362.9862 
L 118.353 383.1042 
L 168.648 352.9272 
" clip-path="url(#p5d8f60d5e3)" style="fill: none; stroke: #6a9955; stroke-width: 5; stroke-linecap: square"/>
   </g>
   <g id="patch_3">
    <path d="M 39.8928 409.2576 
L 39.8928 55.1808 
" style="fill: none; stroke: #000000; stroke-width: 0.8; stroke-linejoin: miter; stroke-linecap: square"/>
   </g>
   <g id="patch_4">
    <path d="M 216.9312 409.2576 
L 216.9312 55.1808 
" style="fill: none; stroke: #000000; stroke-width: 0.8; stroke-linejoin: miter; stroke-linecap: square"/>
   </g>
   <g id="patch_5">
    <path d="M 39.8928 409.2576 
L 216.9312 409.2576 
" style="fill: none; stroke: #000000; stroke-width: 0.8; stroke-linejoin: miter; stroke-linecap: square"/>
   </g>
   <g id="patch_6">
    <path d="M 39.8928 55.1808 
L 216.9312 55.1808 
" style="fill: none; stroke: #000000; stroke-width: 0.8; stroke-linejoin: miter; stroke-linecap: square"/>
   </g>
   <g id="text_12">
    <!-- 0 -->
    <g style="fill: #252525" transform="translate(83.976 115.196044)scale(0.14 -0.14)">
     <defs>
      <path id="FiraCode-Regular-30" d="M 1920 4477 
Q 2630 4477 2996 3888 
Q 3363 3299 3363 2205 
Q 3363 1107 2996 516 
Q 2630 -74 1920 -74 
Q 1210 -74 843 516 
Q 477 1107 477 2205 
Q 477 3299 843 3888 
Q 1210 4477 1920 4477 
z
M 1920 4045 
Q 1514 4045 1280 3614 
Q 1046 3184 1046 2205 
Q 1046 1472 1158 1053 
L 2506 3760 
Q 2304 4045 1920 4045 
z
M 2797 2205 
Q 2797 2944 2682 3360 
L 1341 643 
Q 1542 362 1920 362 
Q 2330 362 2563 794 
Q 2797 1226 2797 2205 
z
" transform="scale(0.015625)"/>
     </defs>
     <use xlink:href="#FiraCode-Regular-30"/>
    </g>
   </g>
   <g id="text_13">
    <!-- 1 -->
    <g style="fill: #252525" transform="translate(164.448 115.196044)scale(0.14 -0.14)">
     <defs>
      <path id="FiraCode-Regular-31" d="M 3312 438 
L 3312 0 
L 768 0 
L 768 438 
L 1853 438 
L 1853 3824 
L 842 3210 
L 608 3594 
L 1920 4406 
L 2390 4406 
L 2390 438 
L 3312 438 
z
" transform="scale(0.015625)"/>
     </defs>
     <use xlink:href="#FiraCode-Regular-31"/>
    </g>
   </g>
   <g id="text_14">
    <!-- 2 -->
    <g style="fill: #252525" transform="translate(164.448 195.668044)scale(0.14 -0.14)">
     <defs>
      <path id="FiraCode-Regular-32" d="M 1725 4477 
Q 2141 4477 2438 4315 
Q 2736 4154 2894 3875 
Q 3053 3597 3053 3248 
Q 3053 2944 2947 2654 
Q 2842 2365 2610 2046 
Q 2378 1728 2000 1341 
Q 1622 954 1078 458 
L 3155 458 
L 3088 0 
L 467 0 
L 467 438 
Q 1091 1037 1486 1449 
Q 1882 1862 2099 2161 
Q 2317 2461 2401 2710 
Q 2486 2960 2486 3229 
Q 2486 3600 2278 3814 
Q 2070 4029 1699 4029 
Q 1373 4029 1165 3917 
Q 957 3805 749 3558 
L 378 3846 
Q 640 4166 958 4321 
Q 1277 4477 1725 4477 
z
" transform="scale(0.015625)"/>
     </defs>
     <use xlink:href="#FiraCode-Regular-32"/>
    </g>
   </g>
   <g id="text_15">
    <!-- 3 -->
    <g style="fill: #252525" transform="translate(164.448 276.140044)scale(0.14 -0.14)">
     <defs>
      <path id="FiraCode-Regular-33" d="M 1718 4477 
Q 2134 4477 2438 4326 
Q 2742 4176 2907 3926 
Q 3072 3677 3072 3376 
Q 3072 3107 2953 2891 
Q 2835 2675 2640 2534 
Q 2445 2394 2211 2349 
Q 2470 2330 2699 2203 
Q 2928 2077 3070 1843 
Q 3213 1610 3213 1270 
Q 3213 890 3021 584 
Q 2829 278 2485 102 
Q 2141 -74 1683 -74 
Q 1312 -74 947 67 
Q 582 208 330 515 
L 691 810 
Q 880 589 1141 480 
Q 1402 371 1670 371 
Q 2131 371 2390 612 
Q 2650 854 2650 1270 
Q 2650 1741 2389 1923 
Q 2128 2106 1738 2106 
L 1366 2106 
L 1434 2531 
L 1693 2531 
Q 1907 2531 2097 2614 
Q 2288 2698 2409 2867 
Q 2531 3037 2531 3299 
Q 2531 3664 2288 3856 
Q 2045 4048 1699 4048 
Q 1411 4048 1196 3947 
Q 982 3846 765 3642 
L 467 3971 
Q 749 4237 1065 4357 
Q 1382 4477 1718 4477 
z
" transform="scale(0.015625)"/>
     </defs>
     <use xlink:href="#FiraCode-Regular-33"/>
    </g>
   </g>
   <g id="text_16">
    <!-- 4 -->
    <g style="fill: #252525" transform="translate(83.976 276.140044)scale(0.14 -0.14)">
     <defs>
      <path id="FiraCode-Regular-34" d="M 2813 2752 
L 2813 1501 
L 3382 1501 
L 3382 1072 
L 2813 1072 
L 2813 0 
L 2294 0 
L 2291 1072 
L 461 1072 
L 461 1462 
L 1754 4477 
L 2202 4288 
L 1030 1501 
L 2294 1501 
L 2365 2752 
L 2813 2752 
z
" transform="scale(0.015625)"/>
     </defs>
     <use xlink:href="#FiraCode-Regular-34"/>
    </g>
   </g>
   <g id="text_17">
    <!-- 5 -->
    <g style="fill: #252525" transform="translate(104.094 336.494044)scale(0.14 -0.14)">
     <defs>
      <path id="FiraCode-Regular-35" d="M 3117 4406 
L 3037 3978 
L 1296 3978 
L 1296 2589 
Q 1498 2694 1678 2736 
Q 1859 2778 2058 2778 
Q 2595 2778 2928 2416 
Q 3261 2054 3261 1395 
Q 3261 954 3077 624 
Q 2893 294 2558 110 
Q 2224 -74 1770 -74 
Q 1373 -74 1061 67 
Q 749 208 493 458 
L 826 778 
Q 1219 371 1776 371 
Q 2211 371 2454 635 
Q 2698 899 2698 1411 
Q 2698 1766 2592 1971 
Q 2486 2176 2305 2264 
Q 2125 2352 1904 2352 
Q 1709 2352 1558 2313 
Q 1408 2275 1216 2205 
L 784 2205 
L 784 4406 
L 3117 4406 
z
" transform="scale(0.015625)"/>
     </defs>
     <use xlink:href="#FiraCode-Regular-35"/>
    </g>
   </g>
   <g id="text_18">
    <!-- 6 -->
    <g style="fill: #252525" transform="translate(73.917 326.435044)scale(0.14 -0.14)">
     <defs>
      <path id="FiraCode-Regular-36" d="M 2147 4477 
Q 2400 4477 2616 4411 
Q 2832 4346 3018 4221 
L 2806 3856 
Q 2499 4042 2138 4042 
Q 1629 4042 1347 3562 
Q 1066 3082 1046 2275 
Q 1258 2589 1522 2729 
Q 1786 2870 2109 2870 
Q 2448 2870 2733 2718 
Q 3018 2566 3187 2259 
Q 3357 1952 3357 1482 
Q 3357 995 3169 646 
Q 2982 298 2667 112 
Q 2352 -74 1971 -74 
Q 1437 -74 1115 192 
Q 794 458 651 942 
Q 509 1427 509 2083 
Q 509 2813 702 3350 
Q 896 3888 1264 4182 
Q 1632 4477 2147 4477 
z
M 2026 2429 
Q 1709 2429 1462 2256 
Q 1216 2083 1053 1805 
Q 1069 1059 1285 710 
Q 1501 362 1968 362 
Q 2387 362 2596 658 
Q 2806 954 2806 1469 
Q 2806 2010 2592 2219 
Q 2378 2429 2026 2429 
z
" transform="scale(0.015625)"/>
     </defs>
     <use xlink:href="#FiraCode-Regular-36"/>
    </g>
   </g>
   <g id="text_19">
    <!-- 7 -->
    <g style="fill: #252525" transform="translate(53.799 326.435044)scale(0.14 -0.14)">
     <defs>
      <path id="FiraCode-Regular-37" d="M 1475 -61 
L 973 93 
L 2691 3958 
L 624 3958 
L 624 4406 
L 3232 4406 
L 3232 3994 
L 1475 -61 
z
" transform="scale(0.015625)"/>
     </defs>
     <use xlink:href="#FiraCode-Regular-37"/>
    </g>
   </g>
   <g id="text_20">
    <!-- 8 -->
    <g style="fill: #252525" transform="translate(53.799 346.553044)scale(0.14 -0.14)">
     <defs>
      <path id="FiraCode-Regular-38" d="M 3242 3357 
Q 3242 3034 3043 2800 
Q 2845 2566 2477 2365 
Q 2909 2186 3165 1886 
Q 3421 1587 3421 1181 
Q 3421 822 3235 537 
Q 3050 253 2710 89 
Q 2371 -74 1907 -74 
Q 1437 -74 1104 91 
Q 771 256 595 537 
Q 419 819 419 1171 
Q 419 1578 660 1856 
Q 902 2134 1302 2320 
Q 954 2486 776 2723 
Q 598 2960 598 3328 
Q 598 3632 721 3849 
Q 845 4067 1041 4206 
Q 1238 4346 1470 4411 
Q 1702 4477 1920 4477 
Q 2240 4477 2544 4360 
Q 2848 4243 3045 3995 
Q 3242 3747 3242 3357 
z
M 1130 3322 
Q 1130 3069 1246 2923 
Q 1363 2778 1580 2686 
Q 1798 2595 2096 2499 
Q 2403 2672 2556 2854 
Q 2710 3037 2710 3338 
Q 2710 3670 2504 3865 
Q 2298 4061 1920 4061 
Q 1546 4061 1338 3865 
Q 1130 3670 1130 3322 
z
M 2854 1174 
Q 2854 1472 2704 1645 
Q 2554 1818 2288 1933 
Q 2022 2048 1674 2166 
Q 1402 2042 1194 1813 
Q 986 1584 986 1168 
Q 986 794 1216 578 
Q 1446 362 1904 362 
Q 2365 362 2609 594 
Q 2854 826 2854 1174 
z
" transform="scale(0.015625)"/>
     </defs>
     <use xlink:href="#FiraCode-Regular-38"/>
    </g>
   </g>
   <g id="text_21">
    <!-- 9 -->
    <g style="fill: #252525" transform="translate(73.917 346.553044)scale(0.14 -0.14)">
     <defs>
      <path id="FiraCode-Regular-39" d="M 1853 4470 
Q 2573 4470 2931 3984 
Q 3290 3498 3290 2669 
Q 3290 2000 3154 1539 
Q 3018 1078 2733 768 
Q 2448 458 2003 246 
Q 1558 35 941 -134 
L 816 275 
Q 1427 445 1838 678 
Q 2250 912 2467 1265 
Q 2685 1619 2717 2141 
Q 2525 1907 2272 1761 
Q 2019 1616 1686 1616 
Q 1318 1616 1035 1784 
Q 752 1952 589 2267 
Q 426 2582 426 3024 
Q 426 3494 618 3817 
Q 810 4141 1133 4305 
Q 1456 4470 1853 4470 
z
M 982 3005 
Q 982 2499 1195 2272 
Q 1408 2045 1786 2045 
Q 2083 2045 2308 2198 
Q 2534 2352 2730 2618 
Q 2720 3395 2505 3715 
Q 2291 4035 1853 4035 
Q 982 4035 982 3005 
z
" transform="scale(0.015625)"/>
     </defs>
     <use xlink:href="#FiraCode-Regular-39"/>
    </g>
   </g>
   <g id="text_22">
    <!-- 10 -->
    <g style="fill: #252525" transform="translate(69.717 366.671044)scale(0.14 -0.14)">
     <use xlink:href="#FiraCode-Regular-31"/>
     <use xlink:href="#FiraCode-Regular-30" x="60.000015"/>
    </g>
   </g>
   <g id="text_23">
    <!-- 11 -->
    <g style="fill: #252525" transform="translate(49.599 366.671044)scale(0.14 -0.14)">
     <use xlink:href="#FiraCode-Regular-31"/>
     <use xlink:href="#FiraCode-Regular-31" x="60.000015"/>
    </g>
   </g>
   <g id="text_24">
    <!-- 12 -->
    <g style="fill: #252525" transform="translate(49.599 386.789044)scale(0.14 -0.14)">
     <use xlink:href="#FiraCode-Regular-31"/>
     <use xlink:href="#FiraCode-Regular-32" x="60.000015"/>
    </g>
   </g>
   <g id="text_25">
    <!-- 13 -->
    <g style="fill: #252525" transform="translate(69.717 386.789044)scale(0.14 -0.14)">
     <use xlink:href="#FiraCode-Regular-31"/>
     <use xlink:href="#FiraCode-Regular-33" x="60.000015"/>
    </g>
   </g>
   <g id="text_26">
    <!-- 14 -->
    <g style="fill: #252525" transform="translate(89.835 386.789044)scale(0.14 -0.14)">
     <use xlink:href="#FiraCode-Regular-31"/>
     <use xlink:href="#FiraCode-Regular-34" x="60.000015"/>
    </g>
   </g>
   <g id="text_27">
    <!-- 15 -->
    <g style="fill: #252525" transform="translate(89.835 366.671044)scale(0.14 -0.14)">
     <use xlink:href="#FiraCode-Regular-31"/>
     <use xlink:href="#FiraCode-Regular-35" x="60.000015"/>
    </g>
   </g>
   <g id="text_28">
    <!-- 16 -->
    <g style="fill: #252525" transform="translate(109.953 366.671044)scale(0.14 -0.14)">
     <use xlink:href="#FiraCode-Regular-31"/>
     <use xlink:href="#FiraCode-Regular-36" x="60.000015"/>
    </g>
   </g>
   <g id="text_29">
    <!-- 17 -->
    <g style="fill: #252525" transform="translate(109.953 386.789044)scale(0.14 -0.14)">
     <use xlink:href="#FiraCode-Regular-31"/>
     <use xlink:href="#FiraCode-Regular-37" x="60.000015"/>
    </g>
   </g>
   <g id="text_30">
    <!-- 18 -->
    <g style="fill: #252525" transform="translate(160.248 356.612044)scale(0.14 -0.14)">
     <use xlink:href="#FiraCode-Regular-31"/>
     <use xlink:href="#FiraCode-Regular-38" x="60.000015"/>
    </g>
   </g>
  </g>
 </g>
 <defs>
  <clipPath id="p5d8f60d5e3">
   <rect x="39.8928" y="55.1808" width="177.0384" height="354.0768"/>
  </clipPath>
 </defs>
</svg>
