<?xml version="1.0" encoding="utf-8" standalone="no"?>
<!DOCTYPE svg PUBLIC "-//W3C//DTD SVG 1.1//EN"
  "http://www.w3.org/Graphics/SVG/1.1/DTD/svg11.dtd">
<svg xmlns:xlink="http://www.w3.org/1999/xlink" width="504pt" height="504pt" viewBox="0 0 504 504" xmlns="http://www.w3.org/2000/svg" version="1.1">
 <metadata>
  <rdf:RDF xmlns:dc="http://purl.org/dc/elements/1.1/" xmlns:cc="http://creativecommons.org/ns#" xmlns:rdf="http://www.w3.org/1999/02/22-rdf-syntax-ns#">
   <cc:Work>
    <dc:type rdf:resource="http://purl.org/dc/dcmitype/StillImage"/>
    <dc:date>2022-01-21T13:42:06.155915</dc:date>
    <dc:format>image/svg+xml</dc:format>
    <dc:creator>
     <cc:Agent>
      <dc:title>Matplotlib v3.5.0, https://matplotlib.org/</dc:title>
     </cc:Agent>
    </dc:creator>
   </cc:Work>
  </rdf:RDF>
 </metadata>
 <defs>
  <style type="text/css">*{stroke-linejoin: round; stroke-linecap: butt}</style>
 </defs>
 <g id="figure_1">
  <g id="patch_1">
   <path d="M 0 504 
L 504 504 
L 504 0 
L 0 0 
L 0 504 
z
" style="fill: none"/>
  </g>
  <g id="axes_1">
   <g id="patch_2">
    <path d="M 64.26 448.56 
L 452.34 448.56 
L 452.34 60.48 
L 64.26 60.48 
L 64.26 448.56 
z
" style="fill: none"/>
   </g>
   <g id="matplotlib.axis_1">
    <g id="xtick_1">
     <g id="line2d_1">
      <path d="M 81.9 448.56 
L 81.9 60.48 
" clip-path="url(#pc50a429244)" style="fill: none; stroke: #b0b0b0; stroke-width: 0.8; stroke-linecap: square"/>
     </g>
     <g id="line2d_2">
      <defs>
       <path id="m98a489042e" d="M 0 0 
L 0 3.5 
" style="stroke: #000000; stroke-width: 0.8"/>
      </defs>
      <g>
       <use xlink:href="#m98a489042e" x="81.9" y="448.56" style="stroke: #000000; stroke-width: 0.8"/>
      </g>
     </g>
     <g id="text_1">
      <!-- −1.00 -->
      <g transform="translate(66.577344 463.158437)scale(0.1 -0.1)">
       <defs>
        <path id="DejaVuSans-2212" d="M 678 2272 
L 4684 2272 
L 4684 1741 
L 678 1741 
L 678 2272 
z
" transform="scale(0.015625)"/>
        <path id="DejaVuSans-31" d="M 794 531 
L 1825 531 
L 1825 4091 
L 703 3866 
L 703 4441 
L 1819 4666 
L 2450 4666 
L 2450 531 
L 3481 531 
L 3481 0 
L 794 0 
L 794 531 
z
" transform="scale(0.015625)"/>
        <path id="DejaVuSans-2e" d="M 684 794 
L 1344 794 
L 1344 0 
L 684 0 
L 684 794 
z
" transform="scale(0.015625)"/>
        <path id="DejaVuSans-30" d="M 2034 4250 
Q 1547 4250 1301 3770 
Q 1056 3291 1056 2328 
Q 1056 1369 1301 889 
Q 1547 409 2034 409 
Q 2525 409 2770 889 
Q 3016 1369 3016 2328 
Q 3016 3291 2770 3770 
Q 2525 4250 2034 4250 
z
M 2034 4750 
Q 2819 4750 3233 4129 
Q 3647 3509 3647 2328 
Q 3647 1150 3233 529 
Q 2819 -91 2034 -91 
Q 1250 -91 836 529 
Q 422 1150 422 2328 
Q 422 3509 836 4129 
Q 1250 4750 2034 4750 
z
" transform="scale(0.015625)"/>
       </defs>
       <use xlink:href="#DejaVuSans-2212"/>
       <use xlink:href="#DejaVuSans-31" x="83.789062"/>
       <use xlink:href="#DejaVuSans-2e" x="147.412109"/>
       <use xlink:href="#DejaVuSans-30" x="179.199219"/>
       <use xlink:href="#DejaVuSans-30" x="242.822266"/>
      </g>
     </g>
    </g>
    <g id="xtick_2">
     <g id="line2d_3">
      <path d="M 126 448.56 
L 126 60.48 
" clip-path="url(#pc50a429244)" style="fill: none; stroke: #b0b0b0; stroke-width: 0.8; stroke-linecap: square"/>
     </g>
     <g id="line2d_4">
      <g>
       <use xlink:href="#m98a489042e" x="126" y="448.56" style="stroke: #000000; stroke-width: 0.8"/>
      </g>
     </g>
     <g id="text_2">
      <!-- −0.75 -->
      <g transform="translate(110.677344 463.158437)scale(0.1 -0.1)">
       <defs>
        <path id="DejaVuSans-37" d="M 525 4666 
L 3525 4666 
L 3525 4397 
L 1831 0 
L 1172 0 
L 2766 4134 
L 525 4134 
L 525 4666 
z
" transform="scale(0.015625)"/>
        <path id="DejaVuSans-35" d="M 691 4666 
L 3169 4666 
L 3169 4134 
L 1269 4134 
L 1269 2991 
Q 1406 3038 1543 3061 
Q 1681 3084 1819 3084 
Q 2600 3084 3056 2656 
Q 3513 2228 3513 1497 
Q 3513 744 3044 326 
Q 2575 -91 1722 -91 
Q 1428 -91 1123 -41 
Q 819 9 494 109 
L 494 744 
Q 775 591 1075 516 
Q 1375 441 1709 441 
Q 2250 441 2565 725 
Q 2881 1009 2881 1497 
Q 2881 1984 2565 2268 
Q 2250 2553 1709 2553 
Q 1456 2553 1204 2497 
Q 953 2441 691 2322 
L 691 4666 
z
" transform="scale(0.015625)"/>
       </defs>
       <use xlink:href="#DejaVuSans-2212"/>
       <use xlink:href="#DejaVuSans-30" x="83.789062"/>
       <use xlink:href="#DejaVuSans-2e" x="147.412109"/>
       <use xlink:href="#DejaVuSans-37" x="179.199219"/>
       <use xlink:href="#DejaVuSans-35" x="242.822266"/>
      </g>
     </g>
    </g>
    <g id="xtick_3">
     <g id="line2d_5">
      <path d="M 170.1 448.56 
L 170.1 60.48 
" clip-path="url(#pc50a429244)" style="fill: none; stroke: #b0b0b0; stroke-width: 0.8; stroke-linecap: square"/>
     </g>
     <g id="line2d_6">
      <g>
       <use xlink:href="#m98a489042e" x="170.1" y="448.56" style="stroke: #000000; stroke-width: 0.8"/>
      </g>
     </g>
     <g id="text_3">
      <!-- −0.50 -->
      <g transform="translate(154.777344 463.158437)scale(0.1 -0.1)">
       <use xlink:href="#DejaVuSans-2212"/>
       <use xlink:href="#DejaVuSans-30" x="83.789062"/>
       <use xlink:href="#DejaVuSans-2e" x="147.412109"/>
       <use xlink:href="#DejaVuSans-35" x="179.199219"/>
       <use xlink:href="#DejaVuSans-30" x="242.822266"/>
      </g>
     </g>
    </g>
    <g id="xtick_4">
     <g id="line2d_7">
      <path d="M 214.2 448.56 
L 214.2 60.48 
" clip-path="url(#pc50a429244)" style="fill: none; stroke: #b0b0b0; stroke-width: 0.8; stroke-linecap: square"/>
     </g>
     <g id="line2d_8">
      <g>
       <use xlink:href="#m98a489042e" x="214.2" y="448.56" style="stroke: #000000; stroke-width: 0.8"/>
      </g>
     </g>
     <g id="text_4">
      <!-- −0.25 -->
      <g transform="translate(198.877344 463.158437)scale(0.1 -0.1)">
       <defs>
        <path id="DejaVuSans-32" d="M 1228 531 
L 3431 531 
L 3431 0 
L 469 0 
L 469 531 
Q 828 903 1448 1529 
Q 2069 2156 2228 2338 
Q 2531 2678 2651 2914 
Q 2772 3150 2772 3378 
Q 2772 3750 2511 3984 
Q 2250 4219 1831 4219 
Q 1534 4219 1204 4116 
Q 875 4013 500 3803 
L 500 4441 
Q 881 4594 1212 4672 
Q 1544 4750 1819 4750 
Q 2544 4750 2975 4387 
Q 3406 4025 3406 3419 
Q 3406 3131 3298 2873 
Q 3191 2616 2906 2266 
Q 2828 2175 2409 1742 
Q 1991 1309 1228 531 
z
" transform="scale(0.015625)"/>
       </defs>
       <use xlink:href="#DejaVuSans-2212"/>
       <use xlink:href="#DejaVuSans-30" x="83.789062"/>
       <use xlink:href="#DejaVuSans-2e" x="147.412109"/>
       <use xlink:href="#DejaVuSans-32" x="179.199219"/>
       <use xlink:href="#DejaVuSans-35" x="242.822266"/>
      </g>
     </g>
    </g>
    <g id="xtick_5">
     <g id="line2d_9">
      <path d="M 258.3 448.56 
L 258.3 60.48 
" clip-path="url(#pc50a429244)" style="fill: none; stroke: #b0b0b0; stroke-width: 0.8; stroke-linecap: square"/>
     </g>
     <g id="line2d_10">
      <g>
       <use xlink:href="#m98a489042e" x="258.3" y="448.56" style="stroke: #000000; stroke-width: 0.8"/>
      </g>
     </g>
     <g id="text_5">
      <!-- 0.00 -->
      <g transform="translate(247.167188 463.158437)scale(0.1 -0.1)">
       <use xlink:href="#DejaVuSans-30"/>
       <use xlink:href="#DejaVuSans-2e" x="63.623047"/>
       <use xlink:href="#DejaVuSans-30" x="95.410156"/>
       <use xlink:href="#DejaVuSans-30" x="159.033203"/>
      </g>
     </g>
    </g>
    <g id="xtick_6">
     <g id="line2d_11">
      <path d="M 302.4 448.56 
L 302.4 60.48 
" clip-path="url(#pc50a429244)" style="fill: none; stroke: #b0b0b0; stroke-width: 0.8; stroke-linecap: square"/>
     </g>
     <g id="line2d_12">
      <g>
       <use xlink:href="#m98a489042e" x="302.4" y="448.56" style="stroke: #000000; stroke-width: 0.8"/>
      </g>
     </g>
     <g id="text_6">
      <!-- 0.25 -->
      <g transform="translate(291.267187 463.158437)scale(0.1 -0.1)">
       <use xlink:href="#DejaVuSans-30"/>
       <use xlink:href="#DejaVuSans-2e" x="63.623047"/>
       <use xlink:href="#DejaVuSans-32" x="95.410156"/>
       <use xlink:href="#DejaVuSans-35" x="159.033203"/>
      </g>
     </g>
    </g>
    <g id="xtick_7">
     <g id="line2d_13">
      <path d="M 346.5 448.56 
L 346.5 60.48 
" clip-path="url(#pc50a429244)" style="fill: none; stroke: #b0b0b0; stroke-width: 0.8; stroke-linecap: square"/>
     </g>
     <g id="line2d_14">
      <g>
       <use xlink:href="#m98a489042e" x="346.5" y="448.56" style="stroke: #000000; stroke-width: 0.8"/>
      </g>
     </g>
     <g id="text_7">
      <!-- 0.50 -->
      <g transform="translate(335.367188 463.158437)scale(0.1 -0.1)">
       <use xlink:href="#DejaVuSans-30"/>
       <use xlink:href="#DejaVuSans-2e" x="63.623047"/>
       <use xlink:href="#DejaVuSans-35" x="95.410156"/>
       <use xlink:href="#DejaVuSans-30" x="159.033203"/>
      </g>
     </g>
    </g>
    <g id="xtick_8">
     <g id="line2d_15">
      <path d="M 390.6 448.56 
L 390.6 60.48 
" clip-path="url(#pc50a429244)" style="fill: none; stroke: #b0b0b0; stroke-width: 0.8; stroke-linecap: square"/>
     </g>
     <g id="line2d_16">
      <g>
       <use xlink:href="#m98a489042e" x="390.6" y="448.56" style="stroke: #000000; stroke-width: 0.8"/>
      </g>
     </g>
     <g id="text_8">
      <!-- 0.75 -->
      <g transform="translate(379.467188 463.158437)scale(0.1 -0.1)">
       <use xlink:href="#DejaVuSans-30"/>
       <use xlink:href="#DejaVuSans-2e" x="63.623047"/>
       <use xlink:href="#DejaVuSans-37" x="95.410156"/>
       <use xlink:href="#DejaVuSans-35" x="159.033203"/>
      </g>
     </g>
    </g>
    <g id="xtick_9">
     <g id="line2d_17">
      <path d="M 434.7 448.56 
L 434.7 60.48 
" clip-path="url(#pc50a429244)" style="fill: none; stroke: #b0b0b0; stroke-width: 0.8; stroke-linecap: square"/>
     </g>
     <g id="line2d_18">
      <g>
       <use xlink:href="#m98a489042e" x="434.7" y="448.56" style="stroke: #000000; stroke-width: 0.8"/>
      </g>
     </g>
     <g id="text_9">
      <!-- 1.00 -->
      <g transform="translate(423.567187 463.158437)scale(0.1 -0.1)">
       <use xlink:href="#DejaVuSans-31"/>
       <use xlink:href="#DejaVuSans-2e" x="63.623047"/>
       <use xlink:href="#DejaVuSans-30" x="95.410156"/>
       <use xlink:href="#DejaVuSans-30" x="159.033203"/>
      </g>
     </g>
    </g>
    <g id="text_10">
     <!-- x -->
     <g transform="translate(255.340625 476.836563)scale(0.1 -0.1)">
      <defs>
       <path id="DejaVuSans-78" d="M 3513 3500 
L 2247 1797 
L 3578 0 
L 2900 0 
L 1881 1375 
L 863 0 
L 184 0 
L 1544 1831 
L 300 3500 
L 978 3500 
L 1906 2253 
L 2834 3500 
L 3513 3500 
z
" transform="scale(0.015625)"/>
      </defs>
      <use xlink:href="#DejaVuSans-78"/>
     </g>
    </g>
   </g>
   <g id="matplotlib.axis_2">
    <g id="ytick_1">
     <g id="line2d_19">
      <path d="M 64.26 430.92 
L 452.34 430.92 
" clip-path="url(#pc50a429244)" style="fill: none; stroke: #b0b0b0; stroke-width: 0.8; stroke-linecap: square"/>
     </g>
     <g id="line2d_20">
      <defs>
       <path id="m10ce81dc45" d="M 0 0 
L -3.5 0 
" style="stroke: #000000; stroke-width: 0.8"/>
      </defs>
      <g>
       <use xlink:href="#m10ce81dc45" x="64.26" y="430.92" style="stroke: #000000; stroke-width: 0.8"/>
      </g>
     </g>
     <g id="text_11">
      <!-- −1.00 -->
      <g transform="translate(26.614688 434.719219)scale(0.1 -0.1)">
       <use xlink:href="#DejaVuSans-2212"/>
       <use xlink:href="#DejaVuSans-31" x="83.789062"/>
       <use xlink:href="#DejaVuSans-2e" x="147.412109"/>
       <use xlink:href="#DejaVuSans-30" x="179.199219"/>
       <use xlink:href="#DejaVuSans-30" x="242.822266"/>
      </g>
     </g>
    </g>
    <g id="ytick_2">
     <g id="line2d_21">
      <path d="M 64.26 386.82 
L 452.34 386.82 
" clip-path="url(#pc50a429244)" style="fill: none; stroke: #b0b0b0; stroke-width: 0.8; stroke-linecap: square"/>
     </g>
     <g id="line2d_22">
      <g>
       <use xlink:href="#m10ce81dc45" x="64.26" y="386.82" style="stroke: #000000; stroke-width: 0.8"/>
      </g>
     </g>
     <g id="text_12">
      <!-- −0.75 -->
      <g transform="translate(26.614688 390.619219)scale(0.1 -0.1)">
       <use xlink:href="#DejaVuSans-2212"/>
       <use xlink:href="#DejaVuSans-30" x="83.789062"/>
       <use xlink:href="#DejaVuSans-2e" x="147.412109"/>
       <use xlink:href="#DejaVuSans-37" x="179.199219"/>
       <use xlink:href="#DejaVuSans-35" x="242.822266"/>
      </g>
     </g>
    </g>
    <g id="ytick_3">
     <g id="line2d_23">
      <path d="M 64.26 342.72 
L 452.34 342.72 
" clip-path="url(#pc50a429244)" style="fill: none; stroke: #b0b0b0; stroke-width: 0.8; stroke-linecap: square"/>
     </g>
     <g id="line2d_24">
      <g>
       <use xlink:href="#m10ce81dc45" x="64.26" y="342.72" style="stroke: #000000; stroke-width: 0.8"/>
      </g>
     </g>
     <g id="text_13">
      <!-- −0.50 -->
      <g transform="translate(26.614688 346.519219)scale(0.1 -0.1)">
       <use xlink:href="#DejaVuSans-2212"/>
       <use xlink:href="#DejaVuSans-30" x="83.789062"/>
       <use xlink:href="#DejaVuSans-2e" x="147.412109"/>
       <use xlink:href="#DejaVuSans-35" x="179.199219"/>
       <use xlink:href="#DejaVuSans-30" x="242.822266"/>
      </g>
     </g>
    </g>
    <g id="ytick_4">
     <g id="line2d_25">
      <path d="M 64.26 298.62 
L 452.34 298.62 
" clip-path="url(#pc50a429244)" style="fill: none; stroke: #b0b0b0; stroke-width: 0.8; stroke-linecap: square"/>
     </g>
     <g id="line2d_26">
      <g>
       <use xlink:href="#m10ce81dc45" x="64.26" y="298.62" style="stroke: #000000; stroke-width: 0.8"/>
      </g>
     </g>
     <g id="text_14">
      <!-- −0.25 -->
      <g transform="translate(26.614688 302.419219)scale(0.1 -0.1)">
       <use xlink:href="#DejaVuSans-2212"/>
       <use xlink:href="#DejaVuSans-30" x="83.789062"/>
       <use xlink:href="#DejaVuSans-2e" x="147.412109"/>
       <use xlink:href="#DejaVuSans-32" x="179.199219"/>
       <use xlink:href="#DejaVuSans-35" x="242.822266"/>
      </g>
     </g>
    </g>
    <g id="ytick_5">
     <g id="line2d_27">
      <path d="M 64.26 254.52 
L 452.34 254.52 
" clip-path="url(#pc50a429244)" style="fill: none; stroke: #b0b0b0; stroke-width: 0.8; stroke-linecap: square"/>
     </g>
     <g id="line2d_28">
      <g>
       <use xlink:href="#m10ce81dc45" x="64.26" y="254.52" style="stroke: #000000; stroke-width: 0.8"/>
      </g>
     </g>
     <g id="text_15">
      <!-- 0.00 -->
      <g transform="translate(34.994375 258.319219)scale(0.1 -0.1)">
       <use xlink:href="#DejaVuSans-30"/>
       <use xlink:href="#DejaVuSans-2e" x="63.623047"/>
       <use xlink:href="#DejaVuSans-30" x="95.410156"/>
       <use xlink:href="#DejaVuSans-30" x="159.033203"/>
      </g>
     </g>
    </g>
    <g id="ytick_6">
     <g id="line2d_29">
      <path d="M 64.26 210.42 
L 452.34 210.42 
" clip-path="url(#pc50a429244)" style="fill: none; stroke: #b0b0b0; stroke-width: 0.8; stroke-linecap: square"/>
     </g>
     <g id="line2d_30">
      <g>
       <use xlink:href="#m10ce81dc45" x="64.26" y="210.42" style="stroke: #000000; stroke-width: 0.8"/>
      </g>
     </g>
     <g id="text_16">
      <!-- 0.25 -->
      <g transform="translate(34.994375 214.219219)scale(0.1 -0.1)">
       <use xlink:href="#DejaVuSans-30"/>
       <use xlink:href="#DejaVuSans-2e" x="63.623047"/>
       <use xlink:href="#DejaVuSans-32" x="95.410156"/>
       <use xlink:href="#DejaVuSans-35" x="159.033203"/>
      </g>
     </g>
    </g>
    <g id="ytick_7">
     <g id="line2d_31">
      <path d="M 64.26 166.32 
L 452.34 166.32 
" clip-path="url(#pc50a429244)" style="fill: none; stroke: #b0b0b0; stroke-width: 0.8; stroke-linecap: square"/>
     </g>
     <g id="line2d_32">
      <g>
       <use xlink:href="#m10ce81dc45" x="64.26" y="166.32" style="stroke: #000000; stroke-width: 0.8"/>
      </g>
     </g>
     <g id="text_17">
      <!-- 0.50 -->
      <g transform="translate(34.994375 170.119219)scale(0.1 -0.1)">
       <use xlink:href="#DejaVuSans-30"/>
       <use xlink:href="#DejaVuSans-2e" x="63.623047"/>
       <use xlink:href="#DejaVuSans-35" x="95.410156"/>
       <use xlink:href="#DejaVuSans-30" x="159.033203"/>
      </g>
     </g>
    </g>
    <g id="ytick_8">
     <g id="line2d_33">
      <path d="M 64.26 122.22 
L 452.34 122.22 
" clip-path="url(#pc50a429244)" style="fill: none; stroke: #b0b0b0; stroke-width: 0.8; stroke-linecap: square"/>
     </g>
     <g id="line2d_34">
      <g>
       <use xlink:href="#m10ce81dc45" x="64.26" y="122.22" style="stroke: #000000; stroke-width: 0.8"/>
      </g>
     </g>
     <g id="text_18">
      <!-- 0.75 -->
      <g transform="translate(34.994375 126.019219)scale(0.1 -0.1)">
       <use xlink:href="#DejaVuSans-30"/>
       <use xlink:href="#DejaVuSans-2e" x="63.623047"/>
       <use xlink:href="#DejaVuSans-37" x="95.410156"/>
       <use xlink:href="#DejaVuSans-35" x="159.033203"/>
      </g>
     </g>
    </g>
    <g id="ytick_9">
     <g id="line2d_35">
      <path d="M 64.26 78.12 
L 452.34 78.12 
" clip-path="url(#pc50a429244)" style="fill: none; stroke: #b0b0b0; stroke-width: 0.8; stroke-linecap: square"/>
     </g>
     <g id="line2d_36">
      <g>
       <use xlink:href="#m10ce81dc45" x="64.26" y="78.12" style="stroke: #000000; stroke-width: 0.8"/>
      </g>
     </g>
     <g id="text_19">
      <!-- 1.00 -->
      <g transform="translate(34.994375 81.919219)scale(0.1 -0.1)">
       <use xlink:href="#DejaVuSans-31"/>
       <use xlink:href="#DejaVuSans-2e" x="63.623047"/>
       <use xlink:href="#DejaVuSans-30" x="95.410156"/>
       <use xlink:href="#DejaVuSans-30" x="159.033203"/>
      </g>
     </g>
    </g>
    <g id="text_20">
     <!-- $l_n(x)$ -->
     <g transform="translate(20.535 265.17)rotate(-90)scale(0.1 -0.1)">
      <defs>
       <path id="DejaVuSans-Oblique-6c" d="M 1172 4863 
L 1747 4863 
L 800 0 
L 225 0 
L 1172 4863 
z
" transform="scale(0.015625)"/>
       <path id="DejaVuSans-Oblique-6e" d="M 3566 2113 
L 3156 0 
L 2578 0 
L 2988 2091 
Q 3016 2238 3031 2350 
Q 3047 2463 3047 2528 
Q 3047 2791 2881 2937 
Q 2716 3084 2419 3084 
Q 1956 3084 1622 2776 
Q 1288 2469 1184 1941 
L 800 0 
L 225 0 
L 903 3500 
L 1478 3500 
L 1363 2950 
Q 1603 3253 1940 3418 
Q 2278 3584 2650 3584 
Q 3113 3584 3367 3334 
Q 3622 3084 3622 2631 
Q 3622 2519 3608 2391 
Q 3594 2263 3566 2113 
z
" transform="scale(0.015625)"/>
       <path id="DejaVuSans-28" d="M 1984 4856 
Q 1566 4138 1362 3434 
Q 1159 2731 1159 2009 
Q 1159 1288 1364 580 
Q 1569 -128 1984 -844 
L 1484 -844 
Q 1016 -109 783 600 
Q 550 1309 550 2009 
Q 550 2706 781 3412 
Q 1013 4119 1484 4856 
L 1984 4856 
z
" transform="scale(0.015625)"/>
       <path id="DejaVuSans-Oblique-78" d="M 3841 3500 
L 2234 1784 
L 3219 0 
L 2559 0 
L 1819 1388 
L 531 0 
L -166 0 
L 1556 1844 
L 641 3500 
L 1300 3500 
L 1972 2234 
L 3144 3500 
L 3841 3500 
z
" transform="scale(0.015625)"/>
       <path id="DejaVuSans-29" d="M 513 4856 
L 1013 4856 
Q 1481 4119 1714 3412 
Q 1947 2706 1947 2009 
Q 1947 1309 1714 600 
Q 1481 -109 1013 -844 
L 513 -844 
Q 928 -128 1133 580 
Q 1338 1288 1338 2009 
Q 1338 2731 1133 3434 
Q 928 4138 513 4856 
z
" transform="scale(0.015625)"/>
      </defs>
      <use xlink:href="#DejaVuSans-Oblique-6c" transform="translate(0 0.015625)"/>
      <use xlink:href="#DejaVuSans-Oblique-6e" transform="translate(27.783203 -16.390625)scale(0.7)"/>
      <use xlink:href="#DejaVuSans-28" transform="translate(74.882812 0.015625)"/>
      <use xlink:href="#DejaVuSans-Oblique-78" transform="translate(113.896484 0.015625)"/>
      <use xlink:href="#DejaVuSans-29" transform="translate(173.076172 0.015625)"/>
     </g>
    </g>
   </g>
   <g id="line2d_37">
    <path d="M 84.089563 -1 
L 87.197297 26.469822 
L 90.022523 49.625448 
L 92.847748 71.137271 
L 95.672973 91.084829 
L 98.498198 109.545268 
L 101.323423 126.593377 
L 104.148649 142.301623 
L 106.973874 156.740185 
L 109.799099 169.976987 
L 112.624324 182.077732 
L 115.44955 193.105937 
L 117.921622 201.924091 
L 120.393694 210.007874 
L 122.865766 217.39584 
L 125.337838 224.125334 
L 127.80991 230.232516 
L 130.281982 235.752369 
L 132.754054 240.718727 
L 135.226126 245.164283 
L 137.698198 249.120613 
L 140.17027 252.618189 
L 142.642342 255.6864 
L 145.114414 258.353568 
L 147.586486 260.646964 
L 150.058559 262.592829 
L 152.530631 264.216387 
L 155.002703 265.541868 
L 157.474775 266.592518 
L 159.946847 267.390625 
L 162.418919 267.957529 
L 164.890991 268.313644 
L 167.716216 268.487504 
L 170.541441 268.439182 
L 173.71982 268.15181 
L 177.251351 267.584174 
L 181.136036 266.709495 
L 185.373874 265.518806 
L 190.671171 263.779172 
L 198.087387 261.072941 
L 212.566667 255.74007 
L 218.923423 253.662844 
L 224.573874 252.048863 
L 229.871171 250.770015 
L 234.815315 249.800021 
L 239.759459 249.05599 
L 244.703604 248.541266 
L 249.647748 248.253378 
L 254.591892 248.184601 
L 259.889189 248.339857 
L 265.53964 248.743706 
L 271.543243 249.408404 
L 278.253153 250.386479 
L 286.375676 251.809238 
L 315.334234 257.117228 
L 322.044144 257.992446 
L 328.047748 258.557343 
L 333.698198 258.872499 
L 339.348649 258.959512 
L 344.645946 258.825301 
L 350.296396 258.451457 
L 355.946847 257.848921 
L 361.95045 256.9817 
L 368.66036 255.785432 
L 378.548649 253.762993 
L 388.79009 251.720756 
L 394.440541 250.826907 
L 399.031532 250.33183 
L 402.916216 250.136622 
L 406.447748 250.183597 
L 409.626126 250.445039 
L 412.451351 250.879769 
L 415.276577 251.530981 
L 418.101802 252.425187 
L 420.573874 253.428931 
L 423.045946 254.65986 
L 425.518018 256.138613 
L 427.99009 257.886757 
L 430.462162 259.926809 
L 432.934234 262.282253 
L 434.7 264.171325 
L 434.7 264.171325 
" clip-path="url(#pc50a429244)" style="fill: none; stroke: #1f77b4; stroke-width: 2; stroke-linecap: square"/>
   </g>
   <g id="line2d_38">
    <path d="M 81.9 420.417646 
L 84.372072 380.116575 
L 86.844144 343.031601 
L 89.316216 309.012011 
L 91.788288 277.911239 
L 94.26036 249.586813 
L 96.732432 223.900305 
L 99.204505 200.717274 
L 101.323423 182.739639 
L 103.442342 166.425439 
L 105.561261 151.696839 
L 107.68018 138.478048 
L 109.799099 126.6953 
L 111.918018 116.276828 
L 113.683784 108.586512 
L 115.44955 101.755755 
L 117.215315 95.746133 
L 118.981081 90.520146 
L 120.746847 86.041202 
L 122.159459 82.971906 
L 123.572072 80.339998 
L 124.984685 78.127978 
L 126.397297 76.318707 
L 127.80991 74.895399 
L 129.222523 73.841621 
L 130.281982 73.284104 
L 131.341441 72.918736 
L 132.400901 72.738968 
L 133.46036 72.738361 
L 134.51982 72.91058 
L 135.932432 73.398299 
L 137.345045 74.167738 
L 138.757658 75.204759 
L 140.17027 76.495552 
L 141.936036 78.445395 
L 143.701802 80.745071 
L 145.820721 83.931515 
L 147.93964 87.544451 
L 150.411712 92.245373 
L 152.883784 97.411692 
L 155.709009 103.811649 
L 158.887387 111.545569 
L 162.772072 121.611674 
L 167.716216 135.123696 
L 175.132432 156.161162 
L 185.020721 184.117109 
L 190.318018 198.443916 
L 194.909009 210.252363 
L 199.146847 220.53704 
L 203.031532 229.373906 
L 206.563063 236.872237 
L 210.094595 243.82853 
L 213.272973 249.605397 
L 216.451351 254.90988 
L 219.276577 259.220677 
L 222.101802 263.146589 
L 224.927027 266.685763 
L 227.752252 269.838505 
L 230.224324 272.281973 
L 232.696396 274.43418 
L 235.168468 276.299041 
L 237.640541 277.88151 
L 240.112613 279.187532 
L 242.584685 280.223986 
L 245.056757 280.998638 
L 247.528829 281.520084 
L 250.000901 281.797697 
L 252.472973 281.841578 
L 254.945045 281.662501 
L 257.417117 281.27186 
L 260.242342 280.581726 
L 263.067568 279.64958 
L 265.892793 278.494875 
L 269.071171 276.954886 
L 272.602703 274.979237 
L 276.487387 272.532403 
L 280.725225 269.600536 
L 286.022523 265.660344 
L 296.617117 257.410283 
L 303.327027 252.343044 
L 308.271171 248.878001 
L 312.509009 246.173609 
L 316.393694 243.961118 
L 319.925225 242.20518 
L 323.103604 240.855385 
L 326.281982 239.741472 
L 329.46036 238.877809 
L 332.285586 238.32977 
L 335.110811 237.995225 
L 337.936036 237.87876 
L 340.761261 237.98302 
L 343.586486 238.308604 
L 346.411712 238.853964 
L 349.236937 239.615301 
L 352.415315 240.72221 
L 355.593694 242.082125 
L 358.772072 243.678444 
L 362.303604 245.703817 
L 366.188288 248.196675 
L 370.779279 251.424124 
L 377.489189 256.457111 
L 384.905405 261.965294 
L 388.79009 264.588876 
L 391.968468 266.48693 
L 394.793694 267.919827 
L 397.265766 268.929721 
L 399.384685 269.581189 
L 401.503604 270.005858 
L 403.622523 270.174732 
L 405.388288 270.098194 
L 407.154054 269.804636 
L 408.91982 269.275054 
L 410.685586 268.489747 
L 412.451351 267.42831 
L 414.217117 266.06962 
L 415.982883 264.391833 
L 417.748649 262.372367 
L 419.514414 259.987896 
L 421.28018 257.214341 
L 423.045946 254.026857 
L 424.811712 250.399826 
L 426.577477 246.306845 
L 428.343243 241.72072 
L 430.462162 235.526939 
L 432.581081 228.532738 
L 434.7 220.686478 
L 434.7 220.686478 
" clip-path="url(#pc50a429244)" style="fill: none; stroke: #ff7f0e; stroke-width: 2; stroke-linecap: square"/>
   </g>
   <g id="line2d_39">
    <path d="M 81.9 145.693538 
L 84.018919 170.205474 
L 86.137838 192.350126 
L 88.256757 212.24286 
L 90.375676 229.995986 
L 92.494595 245.71879 
L 94.26036 257.346962 
L 96.026126 267.699005 
L 97.791892 276.833457 
L 99.557658 284.807461 
L 101.323423 291.676781 
L 102.736036 296.413465 
L 104.148649 300.505221 
L 105.561261 303.978726 
L 106.973874 306.860117 
L 108.386486 309.174989 
L 109.445946 310.554461 
L 110.505405 311.639752 
L 111.564865 312.441071 
L 112.624324 312.968464 
L 113.683784 313.231812 
L 114.743243 313.240831 
L 115.802703 313.005078 
L 116.862162 312.533946 
L 117.921622 311.836672 
L 119.334234 310.570858 
L 120.746847 308.940208 
L 122.159459 306.965306 
L 123.925225 304.043145 
L 125.690991 300.652646 
L 127.80991 296.017888 
L 129.928829 290.823765 
L 132.400901 284.136142 
L 135.226126 275.775579 
L 138.404505 265.607764 
L 141.936036 253.564583 
L 146.527027 237.083134 
L 154.64955 206.882848 
L 162.065766 179.641536 
L 167.00991 162.340124 
L 171.247748 148.350472 
L 174.779279 137.418233 
L 177.957658 128.22017 
L 181.136036 119.685923 
L 183.961261 112.695159 
L 186.786486 106.293879 
L 189.258559 101.194918 
L 191.730631 96.578416 
L 194.202703 92.455006 
L 196.321622 89.319452 
L 198.440541 86.556166 
L 200.559459 84.167835 
L 202.678378 82.155989 
L 204.444144 80.76737 
L 206.20991 79.64016 
L 207.975676 78.77351 
L 209.741441 78.166076 
L 211.507207 77.816034 
L 213.272973 77.721094 
L 215.038739 77.878516 
L 216.804505 78.285122 
L 218.57027 78.937313 
L 220.336036 79.831082 
L 222.101802 80.962028 
L 223.867568 82.325371 
L 225.986486 84.260879 
L 228.105405 86.514061 
L 230.224324 89.074675 
L 232.696396 92.436045 
L 235.168468 96.182646 
L 237.993694 100.911218 
L 240.818919 106.086961 
L 243.997297 112.404138 
L 247.528829 119.98106 
L 251.413514 128.914742 
L 255.651351 139.268411 
L 260.595495 151.984587 
L 266.952252 169.023975 
L 285.316216 218.731438 
L 290.26036 231.273174 
L 294.498198 241.453429 
L 298.382883 250.222579 
L 301.914414 257.657731 
L 305.092793 263.86434 
L 308.271171 269.572445 
L 311.096396 274.200063 
L 313.921622 278.38501 
L 316.393694 281.668466 
L 318.865766 284.586818 
L 321.337838 287.13027 
L 323.456757 289.005748 
L 325.575676 290.595623 
L 327.694595 291.896718 
L 329.813514 292.906848 
L 331.579279 293.525499 
L 333.345045 293.941176 
L 335.110811 294.15431 
L 336.876577 294.165875 
L 338.642342 293.977405 
L 340.408108 293.591006 
L 342.173874 293.009375 
L 344.292793 292.058394 
L 346.411712 290.837928 
L 348.530631 289.356163 
L 350.64955 287.622634 
L 353.121622 285.296632 
L 355.593694 282.66267 
L 358.418919 279.304335 
L 361.244144 275.611322 
L 364.422523 271.110348 
L 368.307207 265.209112 
L 373.604505 256.701344 
L 382.786486 241.895171 
L 386.318018 236.644986 
L 389.143243 232.806024 
L 391.615315 229.794877 
L 393.734234 227.528519 
L 395.853153 225.601989 
L 397.618919 224.291456 
L 399.384685 223.280474 
L 400.797297 222.707899 
L 402.20991 222.36278 
L 403.622523 222.261734 
L 405.035135 222.421836 
L 406.447748 222.860618 
L 407.86036 223.596074 
L 409.272973 224.646667 
L 410.685586 226.03133 
L 412.098198 227.769476 
L 413.510811 229.880998 
L 414.923423 232.386276 
L 416.336036 235.30618 
L 417.748649 238.66208 
L 419.514414 243.503433 
L 421.28018 249.104056 
L 423.045946 255.50902 
L 424.811712 262.764658 
L 426.577477 270.918582 
L 428.343243 280.019694 
L 430.462162 292.262106 
L 432.581081 306.030114 
L 434.7 321.415767 
L 434.7 321.415767 
" clip-path="url(#pc50a429244)" style="fill: none; stroke: #2ca02c; stroke-width: 2; stroke-linecap: square"/>
   </g>
   <g id="line2d_40">
    <path d="M 81.9 321.415767 
L 84.018919 306.030114 
L 86.137838 292.262106 
L 88.256757 280.019694 
L 90.375676 269.213605 
L 92.141441 261.243209 
L 93.907207 254.161474 
L 95.672973 247.921045 
L 97.438739 242.475841 
L 99.204505 237.781043 
L 100.97027 233.793076 
L 102.382883 231.083124 
L 103.795495 228.777303 
L 105.208108 226.854986 
L 106.620721 225.296038 
L 108.033333 224.080806 
L 109.445946 223.190119 
L 110.858559 222.605279 
L 112.271171 222.308057 
L 113.683784 222.280691 
L 115.096396 222.50588 
L 116.509009 222.966776 
L 117.921622 223.646985 
L 119.687387 224.781401 
L 121.453153 226.203425 
L 123.572072 228.248573 
L 125.690991 230.61768 
L 128.163063 233.729593 
L 130.988288 237.659868 
L 134.51982 242.990785 
L 139.463964 250.920648 
L 148.999099 266.309197 
L 152.883784 272.13906 
L 156.415315 277.032803 
L 159.240541 280.605081 
L 162.065766 283.82784 
L 164.537838 286.332415 
L 167.00991 288.520219 
L 169.128829 290.129144 
L 171.247748 291.481366 
L 173.366667 292.56803 
L 175.485586 293.381611 
L 177.251351 293.846459 
L 179.017117 294.114386 
L 180.782883 294.183051 
L 182.548649 294.050693 
L 184.314414 293.716115 
L 186.08018 293.178671 
L 187.845946 292.43825 
L 189.964865 291.282428 
L 192.083784 289.836608 
L 194.202703 288.103472 
L 196.321622 286.086687 
L 198.440541 283.79086 
L 200.912613 280.767123 
L 203.384685 277.381372 
L 205.856757 273.645397 
L 208.681982 268.963923 
L 211.507207 263.86434 
L 214.685586 257.657731 
L 218.217117 250.222579 
L 221.748649 242.274217 
L 225.633333 233.009943 
L 230.224324 221.470715 
L 235.874775 206.600388 
L 243.997297 184.489832 
L 254.591892 155.716795 
L 259.889189 141.941707 
L 264.48018 130.599443 
L 268.364865 121.561202 
L 271.896396 113.874519 
L 275.074775 107.447035 
L 278.253153 101.534375 
L 281.078378 96.748202 
L 283.55045 92.94813 
L 286.022523 89.530577 
L 288.494595 86.514061 
L 290.613514 84.260879 
L 292.732432 82.325371 
L 294.851351 80.717089 
L 296.617117 79.633208 
L 298.382883 78.787415 
L 300.148649 78.184033 
L 301.914414 77.826989 
L 303.68018 77.719799 
L 305.445946 77.865554 
L 307.211712 78.266906 
L 308.977477 78.926053 
L 310.743243 79.844723 
L 312.509009 81.024163 
L 314.274775 82.465121 
L 316.040541 84.167835 
L 318.159459 86.556166 
L 320.278378 89.319452 
L 322.397297 92.455006 
L 324.516216 95.95895 
L 326.988288 100.505605 
L 329.46036 105.536386 
L 331.932432 111.038581 
L 334.757658 117.884419 
L 337.582883 125.299201 
L 340.761261 134.281651 
L 344.292793 144.996697 
L 348.177477 157.580483 
L 352.415315 172.115115 
L 357.359459 189.886862 
L 365.481982 220.074329 
L 372.545045 246.050395 
L 376.782883 260.872917 
L 380.314414 272.467997 
L 383.492793 282.113149 
L 385.964865 288.978427 
L 388.436937 295.189412 
L 390.555856 299.921624 
L 392.321622 303.401311 
L 394.087387 306.420157 
L 395.5 308.477963 
L 396.912613 310.196587 
L 398.325225 311.555566 
L 399.384685 312.326197 
L 400.444144 312.873728 
L 401.503604 313.188976 
L 402.563063 313.262602 
L 403.622523 313.085102 
L 404.681982 312.646814 
L 405.741441 311.937911 
L 406.800901 310.948404 
L 407.86036 309.668137 
L 408.91982 308.086789 
L 410.332432 305.491823 
L 411.745045 302.317608 
L 413.157658 298.538279 
L 414.57027 294.127428 
L 415.982883 289.058103 
L 417.748649 281.753513 
L 419.514414 273.322098 
L 421.28018 263.707545 
L 423.045946 252.852154 
L 424.811712 240.696824 
L 426.577477 227.181041 
L 428.696396 209.078984 
L 430.815315 188.818811 
L 432.934234 166.287707 
L 434.7 145.693538 
L 434.7 145.693538 
" clip-path="url(#pc50a429244)" style="fill: none; stroke: #d62728; stroke-width: 2; stroke-linecap: square"/>
   </g>
   <g id="line2d_41">
    <path d="M 81.9 220.686478 
L 84.018919 228.532738 
L 86.137838 235.526939 
L 88.256757 241.72072 
L 90.375676 247.164011 
L 92.494595 251.905056 
L 94.26036 255.353144 
L 96.026126 258.372026 
L 97.791892 260.987009 
L 99.557658 263.222631 
L 101.323423 265.102668 
L 103.089189 266.650148 
L 104.854955 267.887356 
L 106.620721 268.835847 
L 108.386486 269.516455 
L 110.152252 269.949303 
L 111.918018 270.153811 
L 113.683784 270.148709 
L 115.802703 269.891263 
L 117.921622 269.387841 
L 120.040541 268.666981 
L 122.512613 267.58737 
L 125.337838 266.088768 
L 128.516216 264.133405 
L 132.400901 261.461691 
L 138.051351 257.262052 
L 147.586486 250.152891 
L 152.177477 247.032347 
L 156.062162 244.659924 
L 159.593694 242.763555 
L 162.772072 241.29627 
L 165.95045 240.075133 
L 168.775676 239.207964 
L 171.600901 238.553996 
L 174.426126 238.118192 
L 177.251351 237.903213 
L 180.076577 237.909521 
L 182.901802 238.13548 
L 185.727027 238.577463 
L 188.552252 239.229948 
L 191.730631 240.206446 
L 194.909009 241.427117 
L 198.087387 242.876498 
L 201.618919 244.733447 
L 205.503604 247.043871 
L 209.741441 249.83763 
L 214.685586 253.381682 
L 221.042342 258.233605 
L 234.815315 268.833104 
L 239.759459 272.297607 
L 243.644144 274.767872 
L 247.175676 276.769236 
L 250.354054 278.335884 
L 253.532432 279.64958 
L 256.357658 280.581726 
L 259.182883 281.27186 
L 261.654955 281.662501 
L 264.127027 281.841578 
L 266.599099 281.797697 
L 269.071171 281.520084 
L 271.543243 280.998638 
L 274.015315 280.223986 
L 276.487387 279.187532 
L 278.959459 277.88151 
L 281.431532 276.299041 
L 283.903604 274.43418 
L 286.375676 272.281973 
L 288.847748 269.838505 
L 291.31982 267.100959 
L 294.145045 263.61015 
L 296.97027 259.732523 
L 299.795495 255.469659 
L 302.620721 250.825388 
L 305.799099 245.152477 
L 308.977477 239.017278 
L 312.509009 231.678599 
L 316.040541 223.818952 
L 319.925225 214.614763 
L 324.163063 203.973084 
L 328.754054 191.839773 
L 334.404505 176.242526 
L 343.93964 149.09853 
L 351.355856 128.288964 
L 355.946847 116.047503 
L 359.831532 106.331916 
L 363.00991 98.965078 
L 365.835135 92.956308 
L 368.307207 88.185244 
L 370.426126 84.505151 
L 372.545045 81.244786 
L 374.310811 78.87815 
L 376.076577 76.856314 
L 377.842342 75.204759 
L 379.254955 74.167738 
L 380.667568 73.398299 
L 382.08018 72.91058 
L 383.492793 72.71905 
L 384.552252 72.778668 
L 385.611712 73.019582 
L 386.671171 73.448266 
L 387.730631 74.071308 
L 388.79009 74.895399 
L 390.202703 76.318707 
L 391.615315 78.127978 
L 393.027928 80.339998 
L 394.440541 82.971906 
L 395.853153 86.041202 
L 397.265766 89.565749 
L 399.031532 94.639429 
L 400.797297 100.489353 
L 402.563063 107.152839 
L 404.328829 114.668125 
L 406.094595 123.074377 
L 408.213514 134.39449 
L 410.332432 147.126503 
L 412.451351 161.343513 
L 414.57027 177.120632 
L 416.689189 194.535013 
L 418.808108 213.665871 
L 420.927027 234.594512 
L 423.399099 261.394863 
L 425.871171 290.891966 
L 428.343243 323.225978 
L 430.815315 358.541116 
L 433.287387 396.985719 
L 434.7 420.417646 
L 434.7 420.417646 
" clip-path="url(#pc50a429244)" style="fill: none; stroke: #9467bd; stroke-width: 2; stroke-linecap: square"/>
   </g>
   <g id="line2d_42">
    <path d="M 81.9 264.171325 
L 84.372072 261.575678 
L 86.844144 259.3128 
L 89.316216 257.358504 
L 91.788288 255.689584 
L 94.26036 254.283798 
L 96.732432 253.119844 
L 99.204505 252.177349 
L 102.02973 251.346458 
L 104.854955 250.751794 
L 108.033333 250.332669 
L 111.211712 250.144441 
L 114.743243 250.166331 
L 118.627928 250.423257 
L 122.865766 250.923788 
L 128.163063 251.784326 
L 135.579279 253.2459 
L 151.471171 256.440809 
L 158.181081 257.518293 
L 164.184685 258.251446 
L 169.835135 258.712747 
L 175.132432 258.931097 
L 180.42973 258.939402 
L 186.08018 258.722337 
L 191.730631 258.286151 
L 197.734234 257.607157 
L 204.444144 256.627115 
L 212.566667 255.20922 
L 242.231532 249.793426 
L 248.588288 248.990235 
L 254.238739 248.487897 
L 259.536036 248.228665 
L 264.833333 248.197695 
L 269.777477 248.390446 
L 274.721622 248.807333 
L 279.665766 249.453147 
L 284.60991 250.327105 
L 289.554054 251.422289 
L 294.851351 252.825583 
L 300.501802 254.555521 
L 307.211712 256.860839 
L 316.746847 260.407701 
L 326.635135 264.023515 
L 331.932432 265.731684 
L 336.17027 266.885616 
L 340.054955 267.716537 
L 343.586486 268.235275 
L 346.764865 268.470634 
L 349.59009 268.465925 
L 352.415315 268.232252 
L 354.887387 267.817941 
L 357.359459 267.187102 
L 359.831532 266.319059 
L 362.303604 265.192201 
L 364.775676 263.783971 
L 366.894595 262.335159 
L 369.013514 260.646964 
L 371.132432 258.703456 
L 373.251351 256.488158 
L 375.37027 253.984036 
L 377.489189 251.173492 
L 379.608108 248.038357 
L 382.08018 243.945405 
L 384.552252 239.354319 
L 387.024324 234.233206 
L 389.496396 228.549046 
L 391.968468 222.267682 
L 394.440541 215.353794 
L 396.912613 207.770887 
L 399.384685 199.481271 
L 401.856757 190.446044 
L 404.328829 180.625075 
L 406.800901 169.976987 
L 409.626126 156.740185 
L 412.451351 142.301623 
L 415.276577 126.593377 
L 418.101802 109.545268 
L 420.927027 91.084829 
L 423.752252 71.137271 
L 426.577477 49.625448 
L 429.402703 26.469822 
L 432.510437 -1 
L 432.510437 -1 
" clip-path="url(#pc50a429244)" style="fill: none; stroke: #8c564b; stroke-width: 2; stroke-linecap: square"/>
   </g>
   <g id="LineCollection_1">
    <path d="M 93.812378 430.92 
L 93.812378 78.12 
" clip-path="url(#pc50a429244)" style="fill: none; stroke-dasharray: 7.4,3.2; stroke-dashoffset: 0; stroke: #f4473d; stroke-width: 2"/>
    <path d="M 141.662664 430.92 
L 141.662664 78.12 
" clip-path="url(#pc50a429244)" style="fill: none; stroke-dasharray: 7.4,3.2; stroke-dashoffset: 0; stroke: #f4473d; stroke-width: 2"/>
    <path d="M 216.207576 430.92 
L 216.207576 78.12 
" clip-path="url(#pc50a429244)" style="fill: none; stroke-dasharray: 7.4,3.2; stroke-dashoffset: 0; stroke: #f4473d; stroke-width: 2"/>
    <path d="M 300.392424 430.92 
L 300.392424 78.12 
" clip-path="url(#pc50a429244)" style="fill: none; stroke-dasharray: 7.4,3.2; stroke-dashoffset: 0; stroke: #f4473d; stroke-width: 2"/>
    <path d="M 374.937336 430.92 
L 374.937336 78.12 
" clip-path="url(#pc50a429244)" style="fill: none; stroke-dasharray: 7.4,3.2; stroke-dashoffset: 0; stroke: #f4473d; stroke-width: 2"/>
    <path d="M 422.787622 430.92 
L 422.787622 78.12 
" clip-path="url(#pc50a429244)" style="fill: none; stroke-dasharray: 7.4,3.2; stroke-dashoffset: 0; stroke: #f4473d; stroke-width: 2"/>
   </g>
   <g id="patch_3">
    <path d="M 64.26 448.56 
L 64.26 60.48 
" style="fill: none; stroke: #000000; stroke-width: 0.8; stroke-linejoin: miter; stroke-linecap: square"/>
   </g>
   <g id="patch_4">
    <path d="M 452.34 448.56 
L 452.34 60.48 
" style="fill: none; stroke: #000000; stroke-width: 0.8; stroke-linejoin: miter; stroke-linecap: square"/>
   </g>
   <g id="patch_5">
    <path d="M 64.26 448.56 
L 452.34 448.56 
" style="fill: none; stroke: #000000; stroke-width: 0.8; stroke-linejoin: miter; stroke-linecap: square"/>
   </g>
   <g id="patch_6">
    <path d="M 64.26 60.48 
L 452.34 60.48 
" style="fill: none; stroke: #000000; stroke-width: 0.8; stroke-linejoin: miter; stroke-linecap: square"/>
   </g>
   <g id="legend_1">
    <g id="patch_7">
     <path d="M 198.317969 443.56 
L 318.282031 443.56 
Q 320.282031 443.56 320.282031 441.56 
L 320.282031 339.813125 
Q 320.282031 337.813125 318.282031 337.813125 
L 198.317969 337.813125 
Q 196.317969 337.813125 196.317969 339.813125 
L 196.317969 441.56 
Q 196.317969 443.56 198.317969 443.56 
z
" style="fill: #ffffff; opacity: 0.8; stroke: #cccccc; stroke-linejoin: miter"/>
    </g>
    <g id="line2d_43">
     <path d="M 200.317969 345.911563 
L 210.317969 345.911563 
L 220.317969 345.911563 
" style="fill: none; stroke: #1f77b4; stroke-width: 2; stroke-linecap: square"/>
    </g>
    <g id="text_21">
     <!-- $l_0(x)$ -->
     <g transform="translate(228.317969 349.411563)scale(0.1 -0.1)">
      <use xlink:href="#DejaVuSans-Oblique-6c" transform="translate(0 0.015625)"/>
      <use xlink:href="#DejaVuSans-30" transform="translate(27.783203 -16.390625)scale(0.7)"/>
      <use xlink:href="#DejaVuSans-28" transform="translate(75.053711 0.015625)"/>
      <use xlink:href="#DejaVuSans-Oblique-78" transform="translate(114.067383 0.015625)"/>
      <use xlink:href="#DejaVuSans-29" transform="translate(173.24707 0.015625)"/>
     </g>
    </g>
    <g id="line2d_44">
     <path d="M 200.317969 360.589688 
L 210.317969 360.589688 
L 220.317969 360.589688 
" style="fill: none; stroke: #ff7f0e; stroke-width: 2; stroke-linecap: square"/>
    </g>
    <g id="text_22">
     <!-- $l_1(x)$ -->
     <g transform="translate(228.317969 364.089688)scale(0.1 -0.1)">
      <use xlink:href="#DejaVuSans-Oblique-6c" transform="translate(0 0.015625)"/>
      <use xlink:href="#DejaVuSans-31" transform="translate(27.783203 -16.390625)scale(0.7)"/>
      <use xlink:href="#DejaVuSans-28" transform="translate(75.053711 0.015625)"/>
      <use xlink:href="#DejaVuSans-Oblique-78" transform="translate(114.067383 0.015625)"/>
      <use xlink:href="#DejaVuSans-29" transform="translate(173.24707 0.015625)"/>
     </g>
    </g>
    <g id="line2d_45">
     <path d="M 200.317969 375.267813 
L 210.317969 375.267813 
L 220.317969 375.267813 
" style="fill: none; stroke: #2ca02c; stroke-width: 2; stroke-linecap: square"/>
    </g>
    <g id="text_23">
     <!-- $l_2(x)$ -->
     <g transform="translate(228.317969 378.767813)scale(0.1 -0.1)">
      <use xlink:href="#DejaVuSans-Oblique-6c" transform="translate(0 0.015625)"/>
      <use xlink:href="#DejaVuSans-32" transform="translate(27.783203 -16.390625)scale(0.7)"/>
      <use xlink:href="#DejaVuSans-28" transform="translate(75.053711 0.015625)"/>
      <use xlink:href="#DejaVuSans-Oblique-78" transform="translate(114.067383 0.015625)"/>
      <use xlink:href="#DejaVuSans-29" transform="translate(173.24707 0.015625)"/>
     </g>
    </g>
    <g id="line2d_46">
     <path d="M 200.317969 389.945938 
L 210.317969 389.945938 
L 220.317969 389.945938 
" style="fill: none; stroke: #d62728; stroke-width: 2; stroke-linecap: square"/>
    </g>
    <g id="text_24">
     <!-- $l_3(x)$ -->
     <g transform="translate(228.317969 393.445938)scale(0.1 -0.1)">
      <defs>
       <path id="DejaVuSans-33" d="M 2597 2516 
Q 3050 2419 3304 2112 
Q 3559 1806 3559 1356 
Q 3559 666 3084 287 
Q 2609 -91 1734 -91 
Q 1441 -91 1130 -33 
Q 819 25 488 141 
L 488 750 
Q 750 597 1062 519 
Q 1375 441 1716 441 
Q 2309 441 2620 675 
Q 2931 909 2931 1356 
Q 2931 1769 2642 2001 
Q 2353 2234 1838 2234 
L 1294 2234 
L 1294 2753 
L 1863 2753 
Q 2328 2753 2575 2939 
Q 2822 3125 2822 3475 
Q 2822 3834 2567 4026 
Q 2313 4219 1838 4219 
Q 1578 4219 1281 4162 
Q 984 4106 628 3988 
L 628 4550 
Q 988 4650 1302 4700 
Q 1616 4750 1894 4750 
Q 2613 4750 3031 4423 
Q 3450 4097 3450 3541 
Q 3450 3153 3228 2886 
Q 3006 2619 2597 2516 
z
" transform="scale(0.015625)"/>
      </defs>
      <use xlink:href="#DejaVuSans-Oblique-6c" transform="translate(0 0.015625)"/>
      <use xlink:href="#DejaVuSans-33" transform="translate(27.783203 -16.390625)scale(0.7)"/>
      <use xlink:href="#DejaVuSans-28" transform="translate(75.053711 0.015625)"/>
      <use xlink:href="#DejaVuSans-Oblique-78" transform="translate(114.067383 0.015625)"/>
      <use xlink:href="#DejaVuSans-29" transform="translate(173.24707 0.015625)"/>
     </g>
    </g>
    <g id="line2d_47">
     <path d="M 200.317969 404.624063 
L 210.317969 404.624063 
L 220.317969 404.624063 
" style="fill: none; stroke: #9467bd; stroke-width: 2; stroke-linecap: square"/>
    </g>
    <g id="text_25">
     <!-- $l_4(x)$ -->
     <g transform="translate(228.317969 408.124063)scale(0.1 -0.1)">
      <defs>
       <path id="DejaVuSans-34" d="M 2419 4116 
L 825 1625 
L 2419 1625 
L 2419 4116 
z
M 2253 4666 
L 3047 4666 
L 3047 1625 
L 3713 1625 
L 3713 1100 
L 3047 1100 
L 3047 0 
L 2419 0 
L 2419 1100 
L 313 1100 
L 313 1709 
L 2253 4666 
z
" transform="scale(0.015625)"/>
      </defs>
      <use xlink:href="#DejaVuSans-Oblique-6c" transform="translate(0 0.015625)"/>
      <use xlink:href="#DejaVuSans-34" transform="translate(27.783203 -16.390625)scale(0.7)"/>
      <use xlink:href="#DejaVuSans-28" transform="translate(75.053711 0.015625)"/>
      <use xlink:href="#DejaVuSans-Oblique-78" transform="translate(114.067383 0.015625)"/>
      <use xlink:href="#DejaVuSans-29" transform="translate(173.24707 0.015625)"/>
     </g>
    </g>
    <g id="line2d_48">
     <path d="M 200.317969 419.302188 
L 210.317969 419.302188 
L 220.317969 419.302188 
" style="fill: none; stroke: #8c564b; stroke-width: 2; stroke-linecap: square"/>
    </g>
    <g id="text_26">
     <!-- $l_5(x)$ -->
     <g transform="translate(228.317969 422.802188)scale(0.1 -0.1)">
      <use xlink:href="#DejaVuSans-Oblique-6c" transform="translate(0 0.015625)"/>
      <use xlink:href="#DejaVuSans-35" transform="translate(27.783203 -16.390625)scale(0.7)"/>
      <use xlink:href="#DejaVuSans-28" transform="translate(75.053711 0.015625)"/>
      <use xlink:href="#DejaVuSans-Oblique-78" transform="translate(114.067383 0.015625)"/>
      <use xlink:href="#DejaVuSans-29" transform="translate(173.24707 0.015625)"/>
     </g>
    </g>
    <g id="line2d_49">
     <path d="M 200.317969 433.980313 
L 220.317969 433.980313 
" style="fill: none; stroke-dasharray: 7.4,3.2; stroke-dashoffset: 0; stroke: #f4473d; stroke-width: 2"/>
    </g>
    <g id="text_27">
     <!-- collocation points -->
     <g transform="translate(228.317969 437.480313)scale(0.1 -0.1)">
      <defs>
       <path id="DejaVuSans-63" d="M 3122 3366 
L 3122 2828 
Q 2878 2963 2633 3030 
Q 2388 3097 2138 3097 
Q 1578 3097 1268 2742 
Q 959 2388 959 1747 
Q 959 1106 1268 751 
Q 1578 397 2138 397 
Q 2388 397 2633 464 
Q 2878 531 3122 666 
L 3122 134 
Q 2881 22 2623 -34 
Q 2366 -91 2075 -91 
Q 1284 -91 818 406 
Q 353 903 353 1747 
Q 353 2603 823 3093 
Q 1294 3584 2113 3584 
Q 2378 3584 2631 3529 
Q 2884 3475 3122 3366 
z
" transform="scale(0.015625)"/>
       <path id="DejaVuSans-6f" d="M 1959 3097 
Q 1497 3097 1228 2736 
Q 959 2375 959 1747 
Q 959 1119 1226 758 
Q 1494 397 1959 397 
Q 2419 397 2687 759 
Q 2956 1122 2956 1747 
Q 2956 2369 2687 2733 
Q 2419 3097 1959 3097 
z
M 1959 3584 
Q 2709 3584 3137 3096 
Q 3566 2609 3566 1747 
Q 3566 888 3137 398 
Q 2709 -91 1959 -91 
Q 1206 -91 779 398 
Q 353 888 353 1747 
Q 353 2609 779 3096 
Q 1206 3584 1959 3584 
z
" transform="scale(0.015625)"/>
       <path id="DejaVuSans-6c" d="M 603 4863 
L 1178 4863 
L 1178 0 
L 603 0 
L 603 4863 
z
" transform="scale(0.015625)"/>
       <path id="DejaVuSans-61" d="M 2194 1759 
Q 1497 1759 1228 1600 
Q 959 1441 959 1056 
Q 959 750 1161 570 
Q 1363 391 1709 391 
Q 2188 391 2477 730 
Q 2766 1069 2766 1631 
L 2766 1759 
L 2194 1759 
z
M 3341 1997 
L 3341 0 
L 2766 0 
L 2766 531 
Q 2569 213 2275 61 
Q 1981 -91 1556 -91 
Q 1019 -91 701 211 
Q 384 513 384 1019 
Q 384 1609 779 1909 
Q 1175 2209 1959 2209 
L 2766 2209 
L 2766 2266 
Q 2766 2663 2505 2880 
Q 2244 3097 1772 3097 
Q 1472 3097 1187 3025 
Q 903 2953 641 2809 
L 641 3341 
Q 956 3463 1253 3523 
Q 1550 3584 1831 3584 
Q 2591 3584 2966 3190 
Q 3341 2797 3341 1997 
z
" transform="scale(0.015625)"/>
       <path id="DejaVuSans-74" d="M 1172 4494 
L 1172 3500 
L 2356 3500 
L 2356 3053 
L 1172 3053 
L 1172 1153 
Q 1172 725 1289 603 
Q 1406 481 1766 481 
L 2356 481 
L 2356 0 
L 1766 0 
Q 1100 0 847 248 
Q 594 497 594 1153 
L 594 3053 
L 172 3053 
L 172 3500 
L 594 3500 
L 594 4494 
L 1172 4494 
z
" transform="scale(0.015625)"/>
       <path id="DejaVuSans-69" d="M 603 3500 
L 1178 3500 
L 1178 0 
L 603 0 
L 603 3500 
z
M 603 4863 
L 1178 4863 
L 1178 4134 
L 603 4134 
L 603 4863 
z
" transform="scale(0.015625)"/>
       <path id="DejaVuSans-6e" d="M 3513 2113 
L 3513 0 
L 2938 0 
L 2938 2094 
Q 2938 2591 2744 2837 
Q 2550 3084 2163 3084 
Q 1697 3084 1428 2787 
Q 1159 2491 1159 1978 
L 1159 0 
L 581 0 
L 581 3500 
L 1159 3500 
L 1159 2956 
Q 1366 3272 1645 3428 
Q 1925 3584 2291 3584 
Q 2894 3584 3203 3211 
Q 3513 2838 3513 2113 
z
" transform="scale(0.015625)"/>
       <path id="DejaVuSans-20" transform="scale(0.015625)"/>
       <path id="DejaVuSans-70" d="M 1159 525 
L 1159 -1331 
L 581 -1331 
L 581 3500 
L 1159 3500 
L 1159 2969 
Q 1341 3281 1617 3432 
Q 1894 3584 2278 3584 
Q 2916 3584 3314 3078 
Q 3713 2572 3713 1747 
Q 3713 922 3314 415 
Q 2916 -91 2278 -91 
Q 1894 -91 1617 61 
Q 1341 213 1159 525 
z
M 3116 1747 
Q 3116 2381 2855 2742 
Q 2594 3103 2138 3103 
Q 1681 3103 1420 2742 
Q 1159 2381 1159 1747 
Q 1159 1113 1420 752 
Q 1681 391 2138 391 
Q 2594 391 2855 752 
Q 3116 1113 3116 1747 
z
" transform="scale(0.015625)"/>
       <path id="DejaVuSans-73" d="M 2834 3397 
L 2834 2853 
Q 2591 2978 2328 3040 
Q 2066 3103 1784 3103 
Q 1356 3103 1142 2972 
Q 928 2841 928 2578 
Q 928 2378 1081 2264 
Q 1234 2150 1697 2047 
L 1894 2003 
Q 2506 1872 2764 1633 
Q 3022 1394 3022 966 
Q 3022 478 2636 193 
Q 2250 -91 1575 -91 
Q 1294 -91 989 -36 
Q 684 19 347 128 
L 347 722 
Q 666 556 975 473 
Q 1284 391 1588 391 
Q 1994 391 2212 530 
Q 2431 669 2431 922 
Q 2431 1156 2273 1281 
Q 2116 1406 1581 1522 
L 1381 1569 
Q 847 1681 609 1914 
Q 372 2147 372 2553 
Q 372 3047 722 3315 
Q 1072 3584 1716 3584 
Q 2034 3584 2315 3537 
Q 2597 3491 2834 3397 
z
" transform="scale(0.015625)"/>
      </defs>
      <use xlink:href="#DejaVuSans-63"/>
      <use xlink:href="#DejaVuSans-6f" x="54.980469"/>
      <use xlink:href="#DejaVuSans-6c" x="116.162109"/>
      <use xlink:href="#DejaVuSans-6c" x="143.945312"/>
      <use xlink:href="#DejaVuSans-6f" x="171.728516"/>
      <use xlink:href="#DejaVuSans-63" x="232.910156"/>
      <use xlink:href="#DejaVuSans-61" x="287.890625"/>
      <use xlink:href="#DejaVuSans-74" x="349.169922"/>
      <use xlink:href="#DejaVuSans-69" x="388.378906"/>
      <use xlink:href="#DejaVuSans-6f" x="416.162109"/>
      <use xlink:href="#DejaVuSans-6e" x="477.34375"/>
      <use xlink:href="#DejaVuSans-20" x="540.722656"/>
      <use xlink:href="#DejaVuSans-70" x="572.509766"/>
      <use xlink:href="#DejaVuSans-6f" x="635.986328"/>
      <use xlink:href="#DejaVuSans-69" x="697.167969"/>
      <use xlink:href="#DejaVuSans-6e" x="724.951172"/>
      <use xlink:href="#DejaVuSans-74" x="788.330078"/>
      <use xlink:href="#DejaVuSans-73" x="827.539062"/>
     </g>
    </g>
   </g>
  </g>
 </g>
 <defs>
  <clipPath id="pc50a429244">
   <rect x="64.26" y="60.48" width="388.08" height="388.08"/>
  </clipPath>
 </defs>
</svg>
