<?xml version="1.0" encoding="utf-8" standalone="no"?>
<!DOCTYPE svg PUBLIC "-//W3C//DTD SVG 1.1//EN"
  "http://www.w3.org/Graphics/SVG/1.1/DTD/svg11.dtd">
<svg xmlns:xlink="http://www.w3.org/1999/xlink" width="756pt" height="504pt" viewBox="0 0 756 504" xmlns="http://www.w3.org/2000/svg" version="1.1">
 <metadata>
  <rdf:RDF xmlns:dc="http://purl.org/dc/elements/1.1/" xmlns:cc="http://creativecommons.org/ns#" xmlns:rdf="http://www.w3.org/1999/02/22-rdf-syntax-ns#">
   <cc:Work>
    <dc:type rdf:resource="http://purl.org/dc/dcmitype/StillImage"/>
    <dc:date>2022-01-26T13:41:09.182636</dc:date>
    <dc:format>image/svg+xml</dc:format>
    <dc:creator>
     <cc:Agent>
      <dc:title>Matplotlib v3.5.0, https://matplotlib.org/</dc:title>
     </cc:Agent>
    </dc:creator>
   </cc:Work>
  </rdf:RDF>
 </metadata>
 <defs>
  <style type="text/css">*{stroke-linejoin: round; stroke-linecap: butt}</style>
 </defs>
 <g id="figure_1">
  <g id="patch_1">
   <path d="M 0 504 
L 756 504 
L 756 0 
L 0 0 
L 0 504 
z
" style="fill: none"/>
  </g>
  <g id="axes_1">
   <g id="patch_2">
    <path d="M 96.535457 448.56 
L 678.364543 448.56 
L 678.364543 60.48 
L 96.535457 60.48 
L 96.535457 448.56 
z
" style="fill: none"/>
   </g>
   <g id="matplotlib.axis_1">
    <g id="xtick_1">
     <g id="line2d_1">
      <path d="M 122.982234 448.56 
L 122.982234 60.48 
" clip-path="url(#pa2a98212a9)" style="fill: none; stroke: #b0b0b0; stroke-width: 0.8; stroke-linecap: square"/>
     </g>
     <g id="line2d_2">
      <defs>
       <path id="m2ed848191f" d="M 0 0 
L 0 3.5 
" style="stroke: #000000; stroke-width: 0.8"/>
      </defs>
      <g>
       <use xlink:href="#m2ed848191f" x="122.982234" y="448.56" style="stroke: #000000; stroke-width: 0.8"/>
      </g>
     </g>
     <g id="text_1">
      <!-- −1.00 -->
      <g transform="translate(107.659578 463.158437)scale(0.1 -0.1)">
       <defs>
        <path id="DejaVuSans-2212" d="M 678 2272 
L 4684 2272 
L 4684 1741 
L 678 1741 
L 678 2272 
z
" transform="scale(0.015625)"/>
        <path id="DejaVuSans-31" d="M 794 531 
L 1825 531 
L 1825 4091 
L 703 3866 
L 703 4441 
L 1819 4666 
L 2450 4666 
L 2450 531 
L 3481 531 
L 3481 0 
L 794 0 
L 794 531 
z
" transform="scale(0.015625)"/>
        <path id="DejaVuSans-2e" d="M 684 794 
L 1344 794 
L 1344 0 
L 684 0 
L 684 794 
z
" transform="scale(0.015625)"/>
        <path id="DejaVuSans-30" d="M 2034 4250 
Q 1547 4250 1301 3770 
Q 1056 3291 1056 2328 
Q 1056 1369 1301 889 
Q 1547 409 2034 409 
Q 2525 409 2770 889 
Q 3016 1369 3016 2328 
Q 3016 3291 2770 3770 
Q 2525 4250 2034 4250 
z
M 2034 4750 
Q 2819 4750 3233 4129 
Q 3647 3509 3647 2328 
Q 3647 1150 3233 529 
Q 2819 -91 2034 -91 
Q 1250 -91 836 529 
Q 422 1150 422 2328 
Q 422 3509 836 4129 
Q 1250 4750 2034 4750 
z
" transform="scale(0.015625)"/>
       </defs>
       <use xlink:href="#DejaVuSans-2212"/>
       <use xlink:href="#DejaVuSans-31" x="83.789062"/>
       <use xlink:href="#DejaVuSans-2e" x="147.412109"/>
       <use xlink:href="#DejaVuSans-30" x="179.199219"/>
       <use xlink:href="#DejaVuSans-30" x="242.822266"/>
      </g>
     </g>
    </g>
    <g id="xtick_2">
     <g id="line2d_3">
      <path d="M 189.099175 448.56 
L 189.099175 60.48 
" clip-path="url(#pa2a98212a9)" style="fill: none; stroke: #b0b0b0; stroke-width: 0.8; stroke-linecap: square"/>
     </g>
     <g id="line2d_4">
      <g>
       <use xlink:href="#m2ed848191f" x="189.099175" y="448.56" style="stroke: #000000; stroke-width: 0.8"/>
      </g>
     </g>
     <g id="text_2">
      <!-- −0.75 -->
      <g transform="translate(173.776519 463.158437)scale(0.1 -0.1)">
       <defs>
        <path id="DejaVuSans-37" d="M 525 4666 
L 3525 4666 
L 3525 4397 
L 1831 0 
L 1172 0 
L 2766 4134 
L 525 4134 
L 525 4666 
z
" transform="scale(0.015625)"/>
        <path id="DejaVuSans-35" d="M 691 4666 
L 3169 4666 
L 3169 4134 
L 1269 4134 
L 1269 2991 
Q 1406 3038 1543 3061 
Q 1681 3084 1819 3084 
Q 2600 3084 3056 2656 
Q 3513 2228 3513 1497 
Q 3513 744 3044 326 
Q 2575 -91 1722 -91 
Q 1428 -91 1123 -41 
Q 819 9 494 109 
L 494 744 
Q 775 591 1075 516 
Q 1375 441 1709 441 
Q 2250 441 2565 725 
Q 2881 1009 2881 1497 
Q 2881 1984 2565 2268 
Q 2250 2553 1709 2553 
Q 1456 2553 1204 2497 
Q 953 2441 691 2322 
L 691 4666 
z
" transform="scale(0.015625)"/>
       </defs>
       <use xlink:href="#DejaVuSans-2212"/>
       <use xlink:href="#DejaVuSans-30" x="83.789062"/>
       <use xlink:href="#DejaVuSans-2e" x="147.412109"/>
       <use xlink:href="#DejaVuSans-37" x="179.199219"/>
       <use xlink:href="#DejaVuSans-35" x="242.822266"/>
      </g>
     </g>
    </g>
    <g id="xtick_3">
     <g id="line2d_5">
      <path d="M 255.216117 448.56 
L 255.216117 60.48 
" clip-path="url(#pa2a98212a9)" style="fill: none; stroke: #b0b0b0; stroke-width: 0.8; stroke-linecap: square"/>
     </g>
     <g id="line2d_6">
      <g>
       <use xlink:href="#m2ed848191f" x="255.216117" y="448.56" style="stroke: #000000; stroke-width: 0.8"/>
      </g>
     </g>
     <g id="text_3">
      <!-- −0.50 -->
      <g transform="translate(239.893461 463.158437)scale(0.1 -0.1)">
       <use xlink:href="#DejaVuSans-2212"/>
       <use xlink:href="#DejaVuSans-30" x="83.789062"/>
       <use xlink:href="#DejaVuSans-2e" x="147.412109"/>
       <use xlink:href="#DejaVuSans-35" x="179.199219"/>
       <use xlink:href="#DejaVuSans-30" x="242.822266"/>
      </g>
     </g>
    </g>
    <g id="xtick_4">
     <g id="line2d_7">
      <path d="M 321.333058 448.56 
L 321.333058 60.48 
" clip-path="url(#pa2a98212a9)" style="fill: none; stroke: #b0b0b0; stroke-width: 0.8; stroke-linecap: square"/>
     </g>
     <g id="line2d_8">
      <g>
       <use xlink:href="#m2ed848191f" x="321.333058" y="448.56" style="stroke: #000000; stroke-width: 0.8"/>
      </g>
     </g>
     <g id="text_4">
      <!-- −0.25 -->
      <g transform="translate(306.010402 463.158437)scale(0.1 -0.1)">
       <defs>
        <path id="DejaVuSans-32" d="M 1228 531 
L 3431 531 
L 3431 0 
L 469 0 
L 469 531 
Q 828 903 1448 1529 
Q 2069 2156 2228 2338 
Q 2531 2678 2651 2914 
Q 2772 3150 2772 3378 
Q 2772 3750 2511 3984 
Q 2250 4219 1831 4219 
Q 1534 4219 1204 4116 
Q 875 4013 500 3803 
L 500 4441 
Q 881 4594 1212 4672 
Q 1544 4750 1819 4750 
Q 2544 4750 2975 4387 
Q 3406 4025 3406 3419 
Q 3406 3131 3298 2873 
Q 3191 2616 2906 2266 
Q 2828 2175 2409 1742 
Q 1991 1309 1228 531 
z
" transform="scale(0.015625)"/>
       </defs>
       <use xlink:href="#DejaVuSans-2212"/>
       <use xlink:href="#DejaVuSans-30" x="83.789062"/>
       <use xlink:href="#DejaVuSans-2e" x="147.412109"/>
       <use xlink:href="#DejaVuSans-32" x="179.199219"/>
       <use xlink:href="#DejaVuSans-35" x="242.822266"/>
      </g>
     </g>
    </g>
    <g id="xtick_5">
     <g id="line2d_9">
      <path d="M 387.45 448.56 
L 387.45 60.48 
" clip-path="url(#pa2a98212a9)" style="fill: none; stroke: #b0b0b0; stroke-width: 0.8; stroke-linecap: square"/>
     </g>
     <g id="line2d_10">
      <g>
       <use xlink:href="#m2ed848191f" x="387.45" y="448.56" style="stroke: #000000; stroke-width: 0.8"/>
      </g>
     </g>
     <g id="text_5">
      <!-- 0.00 -->
      <g transform="translate(376.317187 463.158437)scale(0.1 -0.1)">
       <use xlink:href="#DejaVuSans-30"/>
       <use xlink:href="#DejaVuSans-2e" x="63.623047"/>
       <use xlink:href="#DejaVuSans-30" x="95.410156"/>
       <use xlink:href="#DejaVuSans-30" x="159.033203"/>
      </g>
     </g>
    </g>
    <g id="xtick_6">
     <g id="line2d_11">
      <path d="M 453.566942 448.56 
L 453.566942 60.48 
" clip-path="url(#pa2a98212a9)" style="fill: none; stroke: #b0b0b0; stroke-width: 0.8; stroke-linecap: square"/>
     </g>
     <g id="line2d_12">
      <g>
       <use xlink:href="#m2ed848191f" x="453.566942" y="448.56" style="stroke: #000000; stroke-width: 0.8"/>
      </g>
     </g>
     <g id="text_6">
      <!-- 0.25 -->
      <g transform="translate(442.434129 463.158437)scale(0.1 -0.1)">
       <use xlink:href="#DejaVuSans-30"/>
       <use xlink:href="#DejaVuSans-2e" x="63.623047"/>
       <use xlink:href="#DejaVuSans-32" x="95.410156"/>
       <use xlink:href="#DejaVuSans-35" x="159.033203"/>
      </g>
     </g>
    </g>
    <g id="xtick_7">
     <g id="line2d_13">
      <path d="M 519.683883 448.56 
L 519.683883 60.48 
" clip-path="url(#pa2a98212a9)" style="fill: none; stroke: #b0b0b0; stroke-width: 0.8; stroke-linecap: square"/>
     </g>
     <g id="line2d_14">
      <g>
       <use xlink:href="#m2ed848191f" x="519.683883" y="448.56" style="stroke: #000000; stroke-width: 0.8"/>
      </g>
     </g>
     <g id="text_7">
      <!-- 0.50 -->
      <g transform="translate(508.551071 463.158437)scale(0.1 -0.1)">
       <use xlink:href="#DejaVuSans-30"/>
       <use xlink:href="#DejaVuSans-2e" x="63.623047"/>
       <use xlink:href="#DejaVuSans-35" x="95.410156"/>
       <use xlink:href="#DejaVuSans-30" x="159.033203"/>
      </g>
     </g>
    </g>
    <g id="xtick_8">
     <g id="line2d_15">
      <path d="M 585.800825 448.56 
L 585.800825 60.48 
" clip-path="url(#pa2a98212a9)" style="fill: none; stroke: #b0b0b0; stroke-width: 0.8; stroke-linecap: square"/>
     </g>
     <g id="line2d_16">
      <g>
       <use xlink:href="#m2ed848191f" x="585.800825" y="448.56" style="stroke: #000000; stroke-width: 0.8"/>
      </g>
     </g>
     <g id="text_8">
      <!-- 0.75 -->
      <g transform="translate(574.668012 463.158437)scale(0.1 -0.1)">
       <use xlink:href="#DejaVuSans-30"/>
       <use xlink:href="#DejaVuSans-2e" x="63.623047"/>
       <use xlink:href="#DejaVuSans-37" x="95.410156"/>
       <use xlink:href="#DejaVuSans-35" x="159.033203"/>
      </g>
     </g>
    </g>
    <g id="xtick_9">
     <g id="line2d_17">
      <path d="M 651.917766 448.56 
L 651.917766 60.48 
" clip-path="url(#pa2a98212a9)" style="fill: none; stroke: #b0b0b0; stroke-width: 0.8; stroke-linecap: square"/>
     </g>
     <g id="line2d_18">
      <g>
       <use xlink:href="#m2ed848191f" x="651.917766" y="448.56" style="stroke: #000000; stroke-width: 0.8"/>
      </g>
     </g>
     <g id="text_9">
      <!-- 1.00 -->
      <g transform="translate(640.784954 463.158437)scale(0.1 -0.1)">
       <use xlink:href="#DejaVuSans-31"/>
       <use xlink:href="#DejaVuSans-2e" x="63.623047"/>
       <use xlink:href="#DejaVuSans-30" x="95.410156"/>
       <use xlink:href="#DejaVuSans-30" x="159.033203"/>
      </g>
     </g>
    </g>
    <g id="text_10">
     <!-- x -->
     <g transform="translate(384.490625 476.836563)scale(0.1 -0.1)">
      <defs>
       <path id="DejaVuSans-78" d="M 3513 3500 
L 2247 1797 
L 3578 0 
L 2900 0 
L 1881 1375 
L 863 0 
L 184 0 
L 1544 1831 
L 300 3500 
L 978 3500 
L 1906 2253 
L 2834 3500 
L 3513 3500 
z
" transform="scale(0.015625)"/>
      </defs>
      <use xlink:href="#DejaVuSans-78"/>
     </g>
    </g>
   </g>
   <g id="matplotlib.axis_2">
    <g id="ytick_1">
     <g id="line2d_19">
      <path d="M 96.535457 430.92 
L 678.364543 430.92 
" clip-path="url(#pa2a98212a9)" style="fill: none; stroke: #b0b0b0; stroke-width: 0.8; stroke-linecap: square"/>
     </g>
     <g id="line2d_20">
      <defs>
       <path id="m2baf1c8436" d="M 0 0 
L -3.5 0 
" style="stroke: #000000; stroke-width: 0.8"/>
      </defs>
      <g>
       <use xlink:href="#m2baf1c8436" x="96.535457" y="430.92" style="stroke: #000000; stroke-width: 0.8"/>
      </g>
     </g>
     <g id="text_11">
      <!-- −1.00 -->
      <g transform="translate(58.890145 434.719219)scale(0.1 -0.1)">
       <use xlink:href="#DejaVuSans-2212"/>
       <use xlink:href="#DejaVuSans-31" x="83.789062"/>
       <use xlink:href="#DejaVuSans-2e" x="147.412109"/>
       <use xlink:href="#DejaVuSans-30" x="179.199219"/>
       <use xlink:href="#DejaVuSans-30" x="242.822266"/>
      </g>
     </g>
    </g>
    <g id="ytick_2">
     <g id="line2d_21">
      <path d="M 96.535457 386.82 
L 678.364543 386.82 
" clip-path="url(#pa2a98212a9)" style="fill: none; stroke: #b0b0b0; stroke-width: 0.8; stroke-linecap: square"/>
     </g>
     <g id="line2d_22">
      <g>
       <use xlink:href="#m2baf1c8436" x="96.535457" y="386.82" style="stroke: #000000; stroke-width: 0.8"/>
      </g>
     </g>
     <g id="text_12">
      <!-- −0.75 -->
      <g transform="translate(58.890145 390.619219)scale(0.1 -0.1)">
       <use xlink:href="#DejaVuSans-2212"/>
       <use xlink:href="#DejaVuSans-30" x="83.789062"/>
       <use xlink:href="#DejaVuSans-2e" x="147.412109"/>
       <use xlink:href="#DejaVuSans-37" x="179.199219"/>
       <use xlink:href="#DejaVuSans-35" x="242.822266"/>
      </g>
     </g>
    </g>
    <g id="ytick_3">
     <g id="line2d_23">
      <path d="M 96.535457 342.72 
L 678.364543 342.72 
" clip-path="url(#pa2a98212a9)" style="fill: none; stroke: #b0b0b0; stroke-width: 0.8; stroke-linecap: square"/>
     </g>
     <g id="line2d_24">
      <g>
       <use xlink:href="#m2baf1c8436" x="96.535457" y="342.72" style="stroke: #000000; stroke-width: 0.8"/>
      </g>
     </g>
     <g id="text_13">
      <!-- −0.50 -->
      <g transform="translate(58.890145 346.519219)scale(0.1 -0.1)">
       <use xlink:href="#DejaVuSans-2212"/>
       <use xlink:href="#DejaVuSans-30" x="83.789062"/>
       <use xlink:href="#DejaVuSans-2e" x="147.412109"/>
       <use xlink:href="#DejaVuSans-35" x="179.199219"/>
       <use xlink:href="#DejaVuSans-30" x="242.822266"/>
      </g>
     </g>
    </g>
    <g id="ytick_4">
     <g id="line2d_25">
      <path d="M 96.535457 298.62 
L 678.364543 298.62 
" clip-path="url(#pa2a98212a9)" style="fill: none; stroke: #b0b0b0; stroke-width: 0.8; stroke-linecap: square"/>
     </g>
     <g id="line2d_26">
      <g>
       <use xlink:href="#m2baf1c8436" x="96.535457" y="298.62" style="stroke: #000000; stroke-width: 0.8"/>
      </g>
     </g>
     <g id="text_14">
      <!-- −0.25 -->
      <g transform="translate(58.890145 302.419219)scale(0.1 -0.1)">
       <use xlink:href="#DejaVuSans-2212"/>
       <use xlink:href="#DejaVuSans-30" x="83.789062"/>
       <use xlink:href="#DejaVuSans-2e" x="147.412109"/>
       <use xlink:href="#DejaVuSans-32" x="179.199219"/>
       <use xlink:href="#DejaVuSans-35" x="242.822266"/>
      </g>
     </g>
    </g>
    <g id="ytick_5">
     <g id="line2d_27">
      <path d="M 96.535457 254.52 
L 678.364543 254.52 
" clip-path="url(#pa2a98212a9)" style="fill: none; stroke: #b0b0b0; stroke-width: 0.8; stroke-linecap: square"/>
     </g>
     <g id="line2d_28">
      <g>
       <use xlink:href="#m2baf1c8436" x="96.535457" y="254.52" style="stroke: #000000; stroke-width: 0.8"/>
      </g>
     </g>
     <g id="text_15">
      <!-- 0.00 -->
      <g transform="translate(67.269832 258.319219)scale(0.1 -0.1)">
       <use xlink:href="#DejaVuSans-30"/>
       <use xlink:href="#DejaVuSans-2e" x="63.623047"/>
       <use xlink:href="#DejaVuSans-30" x="95.410156"/>
       <use xlink:href="#DejaVuSans-30" x="159.033203"/>
      </g>
     </g>
    </g>
    <g id="ytick_6">
     <g id="line2d_29">
      <path d="M 96.535457 210.42 
L 678.364543 210.42 
" clip-path="url(#pa2a98212a9)" style="fill: none; stroke: #b0b0b0; stroke-width: 0.8; stroke-linecap: square"/>
     </g>
     <g id="line2d_30">
      <g>
       <use xlink:href="#m2baf1c8436" x="96.535457" y="210.42" style="stroke: #000000; stroke-width: 0.8"/>
      </g>
     </g>
     <g id="text_16">
      <!-- 0.25 -->
      <g transform="translate(67.269832 214.219219)scale(0.1 -0.1)">
       <use xlink:href="#DejaVuSans-30"/>
       <use xlink:href="#DejaVuSans-2e" x="63.623047"/>
       <use xlink:href="#DejaVuSans-32" x="95.410156"/>
       <use xlink:href="#DejaVuSans-35" x="159.033203"/>
      </g>
     </g>
    </g>
    <g id="ytick_7">
     <g id="line2d_31">
      <path d="M 96.535457 166.32 
L 678.364543 166.32 
" clip-path="url(#pa2a98212a9)" style="fill: none; stroke: #b0b0b0; stroke-width: 0.8; stroke-linecap: square"/>
     </g>
     <g id="line2d_32">
      <g>
       <use xlink:href="#m2baf1c8436" x="96.535457" y="166.32" style="stroke: #000000; stroke-width: 0.8"/>
      </g>
     </g>
     <g id="text_17">
      <!-- 0.50 -->
      <g transform="translate(67.269832 170.119219)scale(0.1 -0.1)">
       <use xlink:href="#DejaVuSans-30"/>
       <use xlink:href="#DejaVuSans-2e" x="63.623047"/>
       <use xlink:href="#DejaVuSans-35" x="95.410156"/>
       <use xlink:href="#DejaVuSans-30" x="159.033203"/>
      </g>
     </g>
    </g>
    <g id="ytick_8">
     <g id="line2d_33">
      <path d="M 96.535457 122.22 
L 678.364543 122.22 
" clip-path="url(#pa2a98212a9)" style="fill: none; stroke: #b0b0b0; stroke-width: 0.8; stroke-linecap: square"/>
     </g>
     <g id="line2d_34">
      <g>
       <use xlink:href="#m2baf1c8436" x="96.535457" y="122.22" style="stroke: #000000; stroke-width: 0.8"/>
      </g>
     </g>
     <g id="text_18">
      <!-- 0.75 -->
      <g transform="translate(67.269832 126.019219)scale(0.1 -0.1)">
       <use xlink:href="#DejaVuSans-30"/>
       <use xlink:href="#DejaVuSans-2e" x="63.623047"/>
       <use xlink:href="#DejaVuSans-37" x="95.410156"/>
       <use xlink:href="#DejaVuSans-35" x="159.033203"/>
      </g>
     </g>
    </g>
    <g id="ytick_9">
     <g id="line2d_35">
      <path d="M 96.535457 78.12 
L 678.364543 78.12 
" clip-path="url(#pa2a98212a9)" style="fill: none; stroke: #b0b0b0; stroke-width: 0.8; stroke-linecap: square"/>
     </g>
     <g id="line2d_36">
      <g>
       <use xlink:href="#m2baf1c8436" x="96.535457" y="78.12" style="stroke: #000000; stroke-width: 0.8"/>
      </g>
     </g>
     <g id="text_19">
      <!-- 1.00 -->
      <g transform="translate(67.269832 81.919219)scale(0.1 -0.1)">
       <use xlink:href="#DejaVuSans-31"/>
       <use xlink:href="#DejaVuSans-2e" x="63.623047"/>
       <use xlink:href="#DejaVuSans-30" x="95.410156"/>
       <use xlink:href="#DejaVuSans-30" x="159.033203"/>
      </g>
     </g>
    </g>
    <g id="text_20">
     <!-- $l_n(x)$ -->
     <g transform="translate(52.810457 265.17)rotate(-90)scale(0.1 -0.1)">
      <defs>
       <path id="DejaVuSans-Oblique-6c" d="M 1172 4863 
L 1747 4863 
L 800 0 
L 225 0 
L 1172 4863 
z
" transform="scale(0.015625)"/>
       <path id="DejaVuSans-Oblique-6e" d="M 3566 2113 
L 3156 0 
L 2578 0 
L 2988 2091 
Q 3016 2238 3031 2350 
Q 3047 2463 3047 2528 
Q 3047 2791 2881 2937 
Q 2716 3084 2419 3084 
Q 1956 3084 1622 2776 
Q 1288 2469 1184 1941 
L 800 0 
L 225 0 
L 903 3500 
L 1478 3500 
L 1363 2950 
Q 1603 3253 1940 3418 
Q 2278 3584 2650 3584 
Q 3113 3584 3367 3334 
Q 3622 3084 3622 2631 
Q 3622 2519 3608 2391 
Q 3594 2263 3566 2113 
z
" transform="scale(0.015625)"/>
       <path id="DejaVuSans-28" d="M 1984 4856 
Q 1566 4138 1362 3434 
Q 1159 2731 1159 2009 
Q 1159 1288 1364 580 
Q 1569 -128 1984 -844 
L 1484 -844 
Q 1016 -109 783 600 
Q 550 1309 550 2009 
Q 550 2706 781 3412 
Q 1013 4119 1484 4856 
L 1984 4856 
z
" transform="scale(0.015625)"/>
       <path id="DejaVuSans-Oblique-78" d="M 3841 3500 
L 2234 1784 
L 3219 0 
L 2559 0 
L 1819 1388 
L 531 0 
L -166 0 
L 1556 1844 
L 641 3500 
L 1300 3500 
L 1972 2234 
L 3144 3500 
L 3841 3500 
z
" transform="scale(0.015625)"/>
       <path id="DejaVuSans-29" d="M 513 4856 
L 1013 4856 
Q 1481 4119 1714 3412 
Q 1947 2706 1947 2009 
Q 1947 1309 1714 600 
Q 1481 -109 1013 -844 
L 513 -844 
Q 928 -128 1133 580 
Q 1338 1288 1338 2009 
Q 1338 2731 1133 3434 
Q 928 4138 513 4856 
z
" transform="scale(0.015625)"/>
      </defs>
      <use xlink:href="#DejaVuSans-Oblique-6c" transform="translate(0 0.015625)"/>
      <use xlink:href="#DejaVuSans-Oblique-6e" transform="translate(27.783203 -16.390625)scale(0.7)"/>
      <use xlink:href="#DejaVuSans-28" transform="translate(74.882812 0.015625)"/>
      <use xlink:href="#DejaVuSans-Oblique-78" transform="translate(113.896484 0.015625)"/>
      <use xlink:href="#DejaVuSans-29" transform="translate(173.076172 0.015625)"/>
     </g>
    </g>
   </g>
   <g id="line2d_37">
    <path d="M 126.264937 -1 
L 129.865279 20.414521 
L 133.571534 41.13907 
L 137.277789 60.581807 
L 140.984044 78.796722 
L 144.690299 95.836395 
L 148.396554 111.75201 
L 152.102809 126.593377 
L 155.809064 140.408946 
L 159.515319 153.245825 
L 162.692109 163.504648 
L 165.868899 173.10616 
L 169.045689 182.077732 
L 172.222479 190.446044 
L 175.399269 198.237096 
L 178.576059 205.476217 
L 181.752849 212.188068 
L 184.929639 218.396654 
L 188.106429 224.125334 
L 191.283219 229.396823 
L 194.460009 234.233206 
L 197.636798 238.65594 
L 200.813588 242.68587 
L 203.990378 246.343231 
L 207.167168 249.647656 
L 210.343958 252.618189 
L 213.520748 255.273287 
L 216.697538 257.630833 
L 219.874328 259.708141 
L 223.051118 261.521967 
L 226.227908 263.088513 
L 229.404698 264.423439 
L 232.581488 265.541868 
L 236.287743 266.592518 
L 239.993998 267.390625 
L 243.700253 267.957529 
L 247.406508 268.313644 
L 251.642228 268.487504 
L 255.877948 268.439182 
L 260.643133 268.15181 
L 265.937783 267.584174 
L 271.761898 266.709495 
L 278.115478 265.518806 
L 285.527988 263.901744 
L 296.117288 261.33796 
L 319.413748 255.618516 
L 328.944118 253.555043 
L 337.415558 251.956252 
L 345.357533 250.693405 
L 352.770043 249.739308 
L 360.182553 249.011617 
L 367.595063 248.513242 
L 375.007573 248.24132 
L 382.420083 248.187771 
L 390.362057 248.358167 
L 398.833497 248.776458 
L 407.834402 249.454197 
L 417.894237 250.443651 
L 430.071932 251.875236 
L 472.429132 257.064947 
L 482.488967 257.952421 
L 491.489872 258.530434 
L 499.961312 258.859341 
L 508.432752 258.960982 
L 516.374727 258.840799 
L 524.846167 258.481676 
L 533.317607 257.892945 
L 542.318512 257.038557 
L 552.378347 255.853211 
L 566.673902 253.911405 
L 583.087316 251.720756 
L 591.558756 250.826907 
L 598.441801 250.33183 
L 604.265916 250.136622 
L 609.560566 250.183597 
L 614.325751 250.445039 
L 618.561471 250.879769 
L 622.797191 251.530981 
L 627.032911 252.425187 
L 630.739166 253.428931 
L 634.445421 254.65986 
L 638.151676 256.138613 
L 641.857931 257.886757 
L 645.034721 259.616622 
L 648.211511 261.575678 
L 651.388301 263.779201 
L 651.917766 264.171325 
L 651.917766 264.171325 
" clip-path="url(#pa2a98212a9)" style="fill: none; stroke: #8000ff; stroke-width: 2; stroke-linecap: square"/>
   </g>
   <g id="line2d_38">
    <path d="M 122.982234 420.417646 
L 126.159024 385.6734 
L 129.335814 353.308001 
L 132.512604 323.225978 
L 135.689394 295.334103 
L 138.866184 269.541374 
L 142.042974 245.758986 
L 145.219764 223.900305 
L 147.867089 207.093223 
L 150.514414 191.515581 
L 153.161739 177.120632 
L 155.809064 163.862634 
L 158.456389 151.696839 
L 161.103714 140.579488 
L 163.751039 130.467794 
L 166.398364 121.319938 
L 169.045689 113.095057 
L 171.163549 107.152839 
L 173.281409 101.755755 
L 175.399269 96.88418 
L 177.517129 92.518867 
L 179.634989 88.640942 
L 181.752849 85.231903 
L 183.870709 82.273613 
L 185.988569 79.748304 
L 188.106429 77.638565 
L 190.224289 75.927344 
L 191.812684 74.895399 
L 193.401079 74.071308 
L 194.989474 73.448266 
L 196.577868 73.019582 
L 198.166263 72.778668 
L 199.754658 72.71905 
L 201.343053 72.834357 
L 203.460913 73.249399 
L 205.578773 73.949746 
L 207.696633 74.921179 
L 209.814493 76.149806 
L 211.932353 77.622059 
L 214.050213 79.324695 
L 216.697538 81.757301 
L 219.344863 84.505151 
L 221.992188 87.544451 
L 225.168978 91.543931 
L 228.345768 95.891545 
L 232.052023 101.354617 
L 236.287743 108.045161 
L 241.052928 116.047503 
L 246.347578 125.405433 
L 252.701158 137.099408 
L 262.760993 156.161162 
L 275.997618 181.179886 
L 283.410128 194.689101 
L 289.763708 205.786751 
L 295.058358 214.614763 
L 300.353008 223.005657 
L 305.118193 230.147297 
L 309.883378 236.872237 
L 314.119098 242.481902 
L 318.354818 247.731682 
L 322.590538 252.611346 
L 326.296793 256.571321 
L 330.003048 260.238348 
L 333.709303 263.61015 
L 337.415558 266.685763 
L 341.121813 269.465484 
L 344.828068 271.950816 
L 348.534323 274.144417 
L 352.240578 276.050048 
L 355.946833 277.672517 
L 359.653088 279.017632 
L 363.359343 280.09214 
L 367.065598 280.903685 
L 370.771853 281.460747 
L 374.478108 281.772591 
L 378.184363 281.849218 
L 381.890618 281.701308 
L 385.596873 281.340171 
L 389.303127 280.777691 
L 393.538847 279.904253 
L 397.774567 278.803326 
L 402.539752 277.317747 
L 407.304937 275.598862 
L 412.599587 273.451984 
L 418.423702 270.850957 
L 425.306747 267.529149 
L 434.837117 262.654173 
L 453.368392 253.120309 
L 460.780902 249.59525 
L 467.134482 246.823235 
L 472.958597 244.536797 
L 478.253247 242.704696 
L 483.018432 241.279889 
L 487.783617 240.085629 
L 492.548802 239.137109 
L 496.784522 238.510572 
L 501.020242 238.095328 
L 505.255962 237.896667 
L 509.491682 237.917973 
L 513.727402 238.160624 
L 517.963122 238.62389 
L 522.198842 239.304828 
L 526.434562 240.19818 
L 531.199747 241.447448 
L 535.964932 242.94102 
L 540.730117 244.659924 
L 546.024767 246.80551 
L 551.848882 249.407062 
L 559.261392 252.987576 
L 580.439991 263.430792 
L 585.734641 265.676397 
L 589.970361 267.237125 
L 593.676616 268.383114 
L 597.382871 269.282046 
L 600.559661 269.823653 
L 603.736451 270.124135 
L 606.383776 270.168972 
L 609.031101 270.007862 
L 611.678426 269.622214 
L 614.325751 268.992745 
L 616.973076 268.099474 
L 619.620401 266.921711 
L 621.738261 265.760303 
L 623.856121 264.391833 
L 625.973981 262.804703 
L 628.091841 260.987009 
L 630.209701 258.926539 
L 632.327561 256.610767 
L 634.445421 254.026857 
L 637.092746 250.399826 
L 639.740071 246.306845 
L 642.387396 241.72072 
L 645.034721 236.613451 
L 647.682046 230.956226 
L 650.329371 224.71941 
L 651.917766 220.686478 
L 651.917766 220.686478 
" clip-path="url(#pa2a98212a9)" style="fill: none; stroke: #1996f3; stroke-width: 2; stroke-linecap: square"/>
   </g>
   <g id="line2d_39">
    <path d="M 122.982234 145.693538 
L 125.629559 166.287707 
L 128.276884 185.224422 
L 130.924209 202.570892 
L 133.571534 218.392844 
L 136.218859 232.754541 
L 138.866184 245.71879 
L 140.984044 255.125316 
L 143.101904 263.707545 
L 145.219764 271.495665 
L 147.337624 278.519289 
L 149.455484 284.807461 
L 151.573344 290.388661 
L 153.691204 295.290811 
L 155.809064 299.541276 
L 157.926924 303.166872 
L 159.515319 305.491823 
L 161.103714 307.490958 
L 162.692109 309.174989 
L 164.280504 310.554461 
L 165.868899 311.639752 
L 167.457294 312.441071 
L 169.045689 312.968464 
L 170.634084 313.231812 
L 172.222479 313.240831 
L 173.810874 313.005078 
L 175.399269 312.533946 
L 176.987664 311.836672 
L 178.576059 310.92233 
L 180.164454 309.79984 
L 182.282314 307.994521 
L 184.400174 305.85506 
L 186.518034 303.401311 
L 188.635894 300.652646 
L 191.283219 296.830832 
L 193.930544 292.613575 
L 197.107333 287.079704 
L 200.284123 281.084236 
L 203.990378 273.580155 
L 208.226098 264.435354 
L 212.991283 253.564583 
L 218.815398 239.663607 
L 227.286838 218.755795 
L 241.052928 184.737604 
L 247.406508 169.641618 
L 252.701158 157.580483 
L 257.466343 147.225753 
L 262.231528 137.418233 
L 266.467248 129.210324 
L 270.702968 121.522545 
L 274.409223 115.249018 
L 278.115478 109.419261 
L 281.821733 104.050315 
L 284.998523 99.826177 
L 288.175313 95.95895 
L 291.352103 92.455006 
L 294.528893 89.319452 
L 297.176218 86.990733 
L 299.823543 84.922166 
L 302.470868 83.1148 
L 305.118193 81.569139 
L 307.765518 80.285153 
L 310.412843 79.262297 
L 313.060168 78.499522 
L 315.707493 77.99529 
L 318.354818 77.747589 
L 321.002143 77.753948 
L 323.649468 78.011448 
L 326.296793 78.516744 
L 328.944118 79.266069 
L 331.591443 80.255259 
L 334.238768 81.479758 
L 336.886093 82.934639 
L 339.533418 84.614617 
L 342.710208 86.919767 
L 345.886998 89.530577 
L 349.063788 92.436045 
L 352.240578 95.624557 
L 355.946833 99.685931 
L 359.653088 104.095661 
L 363.359343 108.832541 
L 367.595063 114.618385 
L 371.830783 120.768559 
L 376.595968 128.079002 
L 381.890618 136.627073 
L 387.714732 146.462748 
L 394.597777 158.53926 
L 404.128147 175.773338 
L 423.188887 210.373036 
L 430.601397 223.282245 
L 436.425512 233.009943 
L 441.720162 241.453429 
L 446.485347 248.672101 
L 451.250532 255.484479 
L 455.486252 261.165233 
L 459.721972 266.464934 
L 463.428227 270.769703 
L 467.134482 274.747809 
L 470.840737 278.38501 
L 474.017527 281.221505 
L 477.194317 283.79086 
L 480.371107 286.086687 
L 483.547897 288.103472 
L 486.724687 289.836608 
L 489.901477 291.282428 
L 492.548802 292.265835 
L 495.196127 293.046819 
L 497.843452 293.624867 
L 500.490777 293.999983 
L 503.138102 294.172707 
L 505.785427 294.144124 
L 508.432752 293.915881 
L 511.080077 293.490202 
L 513.727402 292.8699 
L 516.904192 291.873493 
L 520.080982 290.608873 
L 523.257772 289.084447 
L 526.434562 287.309982 
L 529.611352 285.296632 
L 533.317607 282.66267 
L 537.023862 279.743256 
L 541.259582 276.089831 
L 545.495302 272.13906 
L 550.260487 267.398238 
L 556.084602 261.285111 
L 567.732832 248.621366 
L 574.086412 241.895171 
L 578.851596 237.149955 
L 582.557851 233.729593 
L 586.264106 230.61768 
L 589.440896 228.248573 
L 592.088221 226.519762 
L 594.735546 225.043744 
L 597.382871 223.849427 
L 599.500731 223.116898 
L 601.618591 222.599654 
L 603.736451 222.313977 
L 605.854311 222.2766 
L 607.972171 222.504711 
L 610.090031 223.015956 
L 612.207891 223.828447 
L 614.325751 224.960763 
L 616.443611 226.431959 
L 618.561471 228.261565 
L 620.679331 230.469596 
L 622.797191 233.076554 
L 624.915051 236.103435 
L 627.032911 239.57173 
L 629.150771 243.503433 
L 631.268631 247.921045 
L 633.386491 252.847576 
L 635.504351 258.306556 
L 637.622211 264.322033 
L 639.740071 270.918582 
L 641.857931 278.121306 
L 644.505256 288.016256 
L 647.152581 298.949722 
L 649.799906 310.9743 
L 651.917766 321.415767 
L 651.917766 321.415767 
" clip-path="url(#pa2a98212a9)" style="fill: none; stroke: #4df3ce; stroke-width: 2; stroke-linecap: square"/>
   </g>
   <g id="line2d_40">
    <path d="M 122.982234 321.415767 
L 125.629559 308.479526 
L 128.276884 296.677443 
L 130.924209 285.955845 
L 133.571534 276.262403 
L 136.218859 267.546117 
L 138.336719 261.243209 
L 140.454579 255.50902 
L 142.572439 250.319237 
L 144.690299 245.650074 
L 146.808159 241.478261 
L 148.926019 237.781043 
L 151.043879 234.536173 
L 153.161739 231.721909 
L 155.279599 229.317007 
L 157.397459 227.300721 
L 159.515319 225.652792 
L 161.633179 224.353447 
L 163.751039 223.383396 
L 165.868899 222.72382 
L 167.986759 222.356377 
L 170.104619 222.263187 
L 172.222479 222.426834 
L 174.340339 222.830359 
L 176.458199 223.457252 
L 178.576059 224.291456 
L 181.223384 225.601989 
L 183.870709 227.182534 
L 186.518034 229.004604 
L 189.694824 231.471331 
L 193.401079 234.678318 
L 197.636798 238.693784 
L 202.401983 243.543153 
L 209.285028 250.920648 
L 223.051118 265.760479 
L 228.345768 271.110348 
L 233.110953 275.611322 
L 237.346673 279.304335 
L 241.052928 282.262528 
L 244.759183 284.938711 
L 247.935973 286.990691 
L 251.112763 288.805783 
L 254.289553 290.372597 
L 257.466343 291.681138 
L 260.643133 292.722775 
L 263.290458 293.381611 
L 265.937783 293.846459 
L 268.585108 294.114386 
L 271.232433 294.183051 
L 273.879758 294.050693 
L 276.527083 293.716115 
L 279.174408 293.178671 
L 281.821733 292.43825 
L 284.469058 291.495262 
L 287.116383 290.350625 
L 290.293173 288.712902 
L 293.469963 286.7902 
L 296.646753 284.586818 
L 299.823543 282.107972 
L 303.000333 279.359762 
L 306.177123 276.349135 
L 309.883378 272.515467 
L 313.589633 268.348865 
L 317.295888 263.86434 
L 321.531608 258.370832 
L 325.767328 252.509635 
L 330.532513 245.511396 
L 335.297698 238.126173 
L 340.592348 229.5216 
L 346.416463 219.647368 
L 353.299508 207.546452 
L 362.829878 190.299892 
L 381.361153 156.655524 
L 388.244197 144.644948 
L 394.068312 134.884924 
L 399.362962 126.421102 
L 404.128147 119.198772 
L 408.363867 113.136414 
L 412.599587 107.447035 
L 416.305842 102.801411 
L 420.012097 98.489087 
L 423.718352 94.531012 
L 426.895142 91.435521 
L 430.071932 88.627011 
L 433.248722 86.116896 
L 436.425512 83.915967 
L 439.072837 82.325371 
L 441.720162 80.962028 
L 444.367487 79.831082 
L 447.014812 78.937313 
L 449.662137 78.285122 
L 452.309462 77.878516 
L 454.956787 77.721094 
L 457.604112 77.816034 
L 460.251437 78.166076 
L 462.898762 78.77351 
L 465.546087 79.64016 
L 468.193412 80.76737 
L 470.840737 82.155989 
L 473.488062 83.806358 
L 476.135387 85.718295 
L 478.782712 87.89108 
L 481.430037 90.32344 
L 484.606827 93.582282 
L 487.783617 97.207949 
L 490.960407 101.194918 
L 494.137197 105.536386 
L 497.313987 110.22424 
L 501.020242 116.118496 
L 504.726497 122.453876 
L 508.432752 129.210324 
L 512.668472 137.418233 
L 516.904192 146.107797 
L 521.669377 156.405052 
L 526.964027 168.412022 
L 532.788142 182.182397 
L 540.200652 200.31017 
L 559.790857 248.575197 
L 565.085507 260.872917 
L 569.321227 270.215985 
L 573.027482 277.930864 
L 576.733737 285.129711 
L 579.910526 290.823765 
L 583.087316 296.017888 
L 585.734641 299.921624 
L 588.381966 303.401311 
L 590.499826 305.85506 
L 592.617686 307.994521 
L 594.735546 309.79984 
L 596.853406 311.250675 
L 598.441801 312.09366 
L 600.030196 312.71657 
L 601.618591 313.110276 
L 603.206986 313.26549 
L 604.795381 313.172764 
L 606.383776 312.82249 
L 607.972171 312.204894 
L 609.560566 311.310042 
L 611.148961 310.127833 
L 612.737356 308.648002 
L 614.325751 306.860117 
L 615.914146 304.753575 
L 617.502541 302.317608 
L 619.090936 299.541276 
L 620.679331 296.413465 
L 622.797191 291.676781 
L 624.915051 286.267939 
L 627.032911 280.159158 
L 629.150771 273.322098 
L 631.268631 265.727856 
L 633.386491 257.346962 
L 635.504351 248.149371 
L 637.622211 238.104465 
L 640.269536 224.309204 
L 642.916861 209.078984 
L 645.564186 192.350126 
L 648.211511 174.057491 
L 650.858836 154.134464 
L 651.917766 145.693538 
L 651.917766 145.693538 
" clip-path="url(#pa2a98212a9)" style="fill: none; stroke: #b2f396; stroke-width: 2; stroke-linecap: square"/>
   </g>
   <g id="line2d_41">
    <path d="M 122.982234 220.686478 
L 125.629559 227.285618 
L 128.276884 233.286989 
L 130.924209 238.720721 
L 133.571534 243.616121 
L 136.218859 248.001674 
L 138.866184 251.905056 
L 141.513509 255.353144 
L 144.160834 258.372026 
L 146.808159 260.987009 
L 149.455484 263.222631 
L 152.102809 265.102668 
L 154.750134 266.650148 
L 157.397459 267.887356 
L 160.044784 268.835847 
L 162.692109 269.516455 
L 165.339434 269.949303 
L 167.986759 270.153811 
L 170.634084 270.148709 
L 173.810874 269.891263 
L 176.987664 269.387841 
L 180.164454 268.666981 
L 183.870709 267.58737 
L 188.106429 266.088768 
L 192.871614 264.133405 
L 198.166263 261.714329 
L 205.578773 258.064521 
L 221.992188 249.902766 
L 228.345768 247.032347 
L 233.640418 244.863851 
L 238.935068 242.94102 
L 243.700253 241.447448 
L 248.465438 240.19818 
L 252.701158 239.304828 
L 256.936878 238.62389 
L 261.172598 238.160624 
L 265.408318 237.917973 
L 269.644038 237.896667 
L 273.879758 238.095328 
L 278.115478 238.510572 
L 282.351198 239.137109 
L 286.586918 239.967848 
L 291.352103 241.135509 
L 296.117288 242.535525 
L 301.411938 244.342506 
L 306.706588 246.388072 
L 312.530703 248.878001 
L 318.884283 251.830953 
L 326.826258 255.778037 
L 340.592348 262.929763 
L 351.181648 268.315042 
L 358.064693 271.582141 
L 363.888808 274.119896 
L 369.183458 276.195902 
L 373.948643 277.840328 
L 378.713828 279.241579 
L 382.949548 280.259503 
L 387.185268 281.042624 
L 390.891522 281.520304 
L 394.597777 281.791481 
L 398.304032 281.84451 
L 402.010287 281.668345 
L 405.716542 281.25259 
L 409.422797 280.587555 
L 413.129052 279.664302 
L 416.835307 278.474704 
L 420.012097 277.237528 
L 423.718352 275.534706 
L 427.424607 273.547243 
L 431.130862 271.270627 
L 434.837117 268.701405 
L 438.543372 265.837245 
L 442.249627 262.676983 
L 445.955882 259.220677 
L 449.662137 255.469659 
L 453.368392 251.426592 
L 457.604112 246.453579 
L 461.839832 241.112769 
L 466.075552 235.415035 
L 470.840737 228.595399 
L 475.605922 221.364661 
L 480.900572 212.882595 
L 486.195222 203.973084 
L 492.019337 193.742381 
L 498.902382 181.179886 
L 507.903287 164.233732 
L 525.375632 131.201381 
L 531.729212 119.739005 
L 537.023862 110.6616 
L 541.259582 103.811649 
L 544.965837 98.184312 
L 548.672092 92.956308 
L 551.848882 88.83659 
L 555.025672 85.090443 
L 557.672997 82.282424 
L 560.320322 79.784829 
L 562.967647 77.622059 
L 565.085507 76.149806 
L 567.203367 74.921179 
L 569.321227 73.949746 
L 571.439087 73.249399 
L 573.556947 72.834357 
L 575.145342 72.71905 
L 576.733737 72.778668 
L 578.322132 73.019582 
L 579.910526 73.448266 
L 581.498921 74.071308 
L 583.087316 74.895399 
L 584.675711 75.927344 
L 586.264106 77.174056 
L 587.852501 78.642562 
L 589.970361 80.957933 
L 592.088221 83.697533 
L 594.206081 86.878954 
L 596.323941 90.520146 
L 598.441801 94.639429 
L 600.559661 99.25549 
L 602.677521 104.38739 
L 604.795381 110.054565 
L 606.913241 116.276828 
L 609.031101 123.074377 
L 611.678426 132.411701 
L 614.325751 142.72115 
L 616.973076 154.044737 
L 619.620401 166.425439 
L 622.267726 179.907217 
L 624.915051 194.535013 
L 627.562376 210.354771 
L 630.209701 227.41344 
L 632.857026 245.758986 
L 635.504351 265.440402 
L 638.681141 290.891966 
L 641.857931 318.427723 
L 645.034721 348.138308 
L 648.211511 380.116575 
L 651.388301 414.45762 
L 651.917766 420.417646 
L 651.917766 420.417646 
" clip-path="url(#pa2a98212a9)" style="fill: none; stroke: #ff964f; stroke-width: 2; stroke-linecap: square"/>
   </g>
   <g id="line2d_42">
    <path d="M 122.982234 264.171325 
L 126.159024 261.925535 
L 129.335814 259.926809 
L 132.512604 258.159784 
L 136.218859 256.37134 
L 139.925114 254.855445 
L 143.631369 253.590397 
L 147.337624 252.555427 
L 151.043879 251.730683 
L 155.279599 251.021266 
L 159.515319 250.534821 
L 164.280504 250.222505 
L 169.045689 250.12625 
L 174.340339 250.234128 
L 180.164454 250.567461 
L 187.047499 251.186212 
L 195.518939 252.180052 
L 209.285028 254.05981 
L 225.698443 256.2497 
L 235.758278 257.364966 
L 244.759183 258.139609 
L 253.230623 258.643962 
L 261.172598 258.904259 
L 269.114573 258.954413 
L 277.586013 258.780268 
L 286.057453 258.383717 
L 295.058358 257.741743 
L 305.118193 256.795251 
L 316.766423 255.469505 
L 335.297698 253.096371 
L 353.299508 250.857254 
L 364.418273 249.693263 
L 373.948643 248.915743 
L 382.420083 248.440917 
L 390.362057 248.210905 
L 398.304032 248.211829 
L 405.716542 248.43611 
L 413.129052 248.885531 
L 420.541562 249.564123 
L 427.954072 250.470258 
L 435.366582 251.596097 
L 443.308557 253.029408 
L 451.779997 254.786665 
L 461.839832 257.115745 
L 477.723782 261.072941 
L 490.430942 264.144453 
L 498.372917 265.836126 
L 504.726497 266.970992 
L 510.550612 267.779342 
L 515.845262 268.272951 
L 520.610447 268.481645 
L 524.846167 268.449798 
L 529.081887 268.185563 
L 532.788142 267.74155 
L 536.494397 267.078112 
L 540.200652 266.174441 
L 543.377442 265.192201 
L 546.554232 264.003255 
L 549.731022 262.592829 
L 552.907812 260.945623 
L 556.084602 259.045797 
L 559.261392 256.876965 
L 562.438182 254.422187 
L 565.614972 251.663959 
L 568.791762 248.584209 
L 571.968552 245.164283 
L 575.145342 241.384944 
L 578.322132 237.226357 
L 581.498921 232.668086 
L 584.675711 227.689083 
L 587.852501 222.267682 
L 591.029291 216.381589 
L 594.206081 210.007874 
L 597.382871 203.122966 
L 600.559661 195.702642 
L 603.736451 187.722016 
L 606.913241 179.15554 
L 610.090031 169.976987 
L 613.266821 160.159447 
L 616.443611 149.675317 
L 619.620401 138.496297 
L 622.797191 126.593377 
L 625.973981 113.936831 
L 629.680236 98.177697 
L 633.386491 81.301706 
L 637.092746 63.257869 
L 640.799001 43.993808 
L 644.505256 23.455734 
L 648.211511 1.588433 
L 648.635063 -1 
L 648.635063 -1 
" clip-path="url(#pa2a98212a9)" style="fill: none; stroke: #ff0000; stroke-width: 2; stroke-linecap: square"/>
   </g>
   <g id="LineCollection_1">
    <path d="M 140.841871 430.92 
L 140.841871 78.12 
" clip-path="url(#pa2a98212a9)" style="fill: none; stroke-dasharray: 7.4,3.2; stroke-dashoffset: 0; stroke: #c586c0; stroke-width: 2"/>
    <path d="M 212.581431 430.92 
L 212.581431 78.12 
" clip-path="url(#pa2a98212a9)" style="fill: none; stroke-dasharray: 7.4,3.2; stroke-dashoffset: 0; stroke: #c586c0; stroke-width: 2"/>
    <path d="M 324.342917 430.92 
L 324.342917 78.12 
" clip-path="url(#pa2a98212a9)" style="fill: none; stroke-dasharray: 7.4,3.2; stroke-dashoffset: 0; stroke: #c586c0; stroke-width: 2"/>
    <path d="M 450.557083 430.92 
L 450.557083 78.12 
" clip-path="url(#pa2a98212a9)" style="fill: none; stroke-dasharray: 7.4,3.2; stroke-dashoffset: 0; stroke: #c586c0; stroke-width: 2"/>
    <path d="M 562.318569 430.92 
L 562.318569 78.12 
" clip-path="url(#pa2a98212a9)" style="fill: none; stroke-dasharray: 7.4,3.2; stroke-dashoffset: 0; stroke: #c586c0; stroke-width: 2"/>
    <path d="M 634.058129 430.92 
L 634.058129 78.12 
" clip-path="url(#pa2a98212a9)" style="fill: none; stroke-dasharray: 7.4,3.2; stroke-dashoffset: 0; stroke: #c586c0; stroke-width: 2"/>
   </g>
   <g id="patch_3">
    <path d="M 96.535457 448.56 
L 96.535457 60.48 
" style="fill: none; stroke: #000000; stroke-width: 0.8; stroke-linejoin: miter; stroke-linecap: square"/>
   </g>
   <g id="patch_4">
    <path d="M 678.364543 448.56 
L 678.364543 60.48 
" style="fill: none; stroke: #000000; stroke-width: 0.8; stroke-linejoin: miter; stroke-linecap: square"/>
   </g>
   <g id="patch_5">
    <path d="M 96.535457 448.56 
L 678.364543 448.56 
" style="fill: none; stroke: #000000; stroke-width: 0.8; stroke-linejoin: miter; stroke-linecap: square"/>
   </g>
   <g id="patch_6">
    <path d="M 96.535457 60.48 
L 678.364543 60.48 
" style="fill: none; stroke: #000000; stroke-width: 0.8; stroke-linejoin: miter; stroke-linecap: square"/>
   </g>
   <g id="legend_1">
    <g id="patch_7">
     <path d="M 327.467969 443.56 
L 447.432031 443.56 
Q 449.432031 443.56 449.432031 441.56 
L 449.432031 339.813125 
Q 449.432031 337.813125 447.432031 337.813125 
L 327.467969 337.813125 
Q 325.467969 337.813125 325.467969 339.813125 
L 325.467969 441.56 
Q 325.467969 443.56 327.467969 443.56 
z
" style="fill: #ffffff; opacity: 0.8; stroke: #cccccc; stroke-linejoin: miter"/>
    </g>
    <g id="line2d_43">
     <path d="M 329.467969 345.911563 
L 339.467969 345.911563 
L 349.467969 345.911563 
" style="fill: none; stroke: #8000ff; stroke-width: 2; stroke-linecap: square"/>
    </g>
    <g id="text_21">
     <!-- $l_0(x)$ -->
     <g transform="translate(357.467969 349.411563)scale(0.1 -0.1)">
      <use xlink:href="#DejaVuSans-Oblique-6c" transform="translate(0 0.015625)"/>
      <use xlink:href="#DejaVuSans-30" transform="translate(27.783203 -16.390625)scale(0.7)"/>
      <use xlink:href="#DejaVuSans-28" transform="translate(75.053711 0.015625)"/>
      <use xlink:href="#DejaVuSans-Oblique-78" transform="translate(114.067383 0.015625)"/>
      <use xlink:href="#DejaVuSans-29" transform="translate(173.24707 0.015625)"/>
     </g>
    </g>
    <g id="line2d_44">
     <path d="M 329.467969 360.589688 
L 339.467969 360.589688 
L 349.467969 360.589688 
" style="fill: none; stroke: #1996f3; stroke-width: 2; stroke-linecap: square"/>
    </g>
    <g id="text_22">
     <!-- $l_1(x)$ -->
     <g transform="translate(357.467969 364.089688)scale(0.1 -0.1)">
      <use xlink:href="#DejaVuSans-Oblique-6c" transform="translate(0 0.015625)"/>
      <use xlink:href="#DejaVuSans-31" transform="translate(27.783203 -16.390625)scale(0.7)"/>
      <use xlink:href="#DejaVuSans-28" transform="translate(75.053711 0.015625)"/>
      <use xlink:href="#DejaVuSans-Oblique-78" transform="translate(114.067383 0.015625)"/>
      <use xlink:href="#DejaVuSans-29" transform="translate(173.24707 0.015625)"/>
     </g>
    </g>
    <g id="line2d_45">
     <path d="M 329.467969 375.267813 
L 339.467969 375.267813 
L 349.467969 375.267813 
" style="fill: none; stroke: #4df3ce; stroke-width: 2; stroke-linecap: square"/>
    </g>
    <g id="text_23">
     <!-- $l_2(x)$ -->
     <g transform="translate(357.467969 378.767813)scale(0.1 -0.1)">
      <use xlink:href="#DejaVuSans-Oblique-6c" transform="translate(0 0.015625)"/>
      <use xlink:href="#DejaVuSans-32" transform="translate(27.783203 -16.390625)scale(0.7)"/>
      <use xlink:href="#DejaVuSans-28" transform="translate(75.053711 0.015625)"/>
      <use xlink:href="#DejaVuSans-Oblique-78" transform="translate(114.067383 0.015625)"/>
      <use xlink:href="#DejaVuSans-29" transform="translate(173.24707 0.015625)"/>
     </g>
    </g>
    <g id="line2d_46">
     <path d="M 329.467969 389.945938 
L 339.467969 389.945938 
L 349.467969 389.945938 
" style="fill: none; stroke: #b2f396; stroke-width: 2; stroke-linecap: square"/>
    </g>
    <g id="text_24">
     <!-- $l_3(x)$ -->
     <g transform="translate(357.467969 393.445938)scale(0.1 -0.1)">
      <defs>
       <path id="DejaVuSans-33" d="M 2597 2516 
Q 3050 2419 3304 2112 
Q 3559 1806 3559 1356 
Q 3559 666 3084 287 
Q 2609 -91 1734 -91 
Q 1441 -91 1130 -33 
Q 819 25 488 141 
L 488 750 
Q 750 597 1062 519 
Q 1375 441 1716 441 
Q 2309 441 2620 675 
Q 2931 909 2931 1356 
Q 2931 1769 2642 2001 
Q 2353 2234 1838 2234 
L 1294 2234 
L 1294 2753 
L 1863 2753 
Q 2328 2753 2575 2939 
Q 2822 3125 2822 3475 
Q 2822 3834 2567 4026 
Q 2313 4219 1838 4219 
Q 1578 4219 1281 4162 
Q 984 4106 628 3988 
L 628 4550 
Q 988 4650 1302 4700 
Q 1616 4750 1894 4750 
Q 2613 4750 3031 4423 
Q 3450 4097 3450 3541 
Q 3450 3153 3228 2886 
Q 3006 2619 2597 2516 
z
" transform="scale(0.015625)"/>
      </defs>
      <use xlink:href="#DejaVuSans-Oblique-6c" transform="translate(0 0.015625)"/>
      <use xlink:href="#DejaVuSans-33" transform="translate(27.783203 -16.390625)scale(0.7)"/>
      <use xlink:href="#DejaVuSans-28" transform="translate(75.053711 0.015625)"/>
      <use xlink:href="#DejaVuSans-Oblique-78" transform="translate(114.067383 0.015625)"/>
      <use xlink:href="#DejaVuSans-29" transform="translate(173.24707 0.015625)"/>
     </g>
    </g>
    <g id="line2d_47">
     <path d="M 329.467969 404.624063 
L 339.467969 404.624063 
L 349.467969 404.624063 
" style="fill: none; stroke: #ff964f; stroke-width: 2; stroke-linecap: square"/>
    </g>
    <g id="text_25">
     <!-- $l_4(x)$ -->
     <g transform="translate(357.467969 408.124063)scale(0.1 -0.1)">
      <defs>
       <path id="DejaVuSans-34" d="M 2419 4116 
L 825 1625 
L 2419 1625 
L 2419 4116 
z
M 2253 4666 
L 3047 4666 
L 3047 1625 
L 3713 1625 
L 3713 1100 
L 3047 1100 
L 3047 0 
L 2419 0 
L 2419 1100 
L 313 1100 
L 313 1709 
L 2253 4666 
z
" transform="scale(0.015625)"/>
      </defs>
      <use xlink:href="#DejaVuSans-Oblique-6c" transform="translate(0 0.015625)"/>
      <use xlink:href="#DejaVuSans-34" transform="translate(27.783203 -16.390625)scale(0.7)"/>
      <use xlink:href="#DejaVuSans-28" transform="translate(75.053711 0.015625)"/>
      <use xlink:href="#DejaVuSans-Oblique-78" transform="translate(114.067383 0.015625)"/>
      <use xlink:href="#DejaVuSans-29" transform="translate(173.24707 0.015625)"/>
     </g>
    </g>
    <g id="line2d_48">
     <path d="M 329.467969 419.302188 
L 339.467969 419.302188 
L 349.467969 419.302188 
" style="fill: none; stroke: #ff0000; stroke-width: 2; stroke-linecap: square"/>
    </g>
    <g id="text_26">
     <!-- $l_5(x)$ -->
     <g transform="translate(357.467969 422.802188)scale(0.1 -0.1)">
      <use xlink:href="#DejaVuSans-Oblique-6c" transform="translate(0 0.015625)"/>
      <use xlink:href="#DejaVuSans-35" transform="translate(27.783203 -16.390625)scale(0.7)"/>
      <use xlink:href="#DejaVuSans-28" transform="translate(75.053711 0.015625)"/>
      <use xlink:href="#DejaVuSans-Oblique-78" transform="translate(114.067383 0.015625)"/>
      <use xlink:href="#DejaVuSans-29" transform="translate(173.24707 0.015625)"/>
     </g>
    </g>
    <g id="line2d_49">
     <path d="M 329.467969 433.980313 
L 349.467969 433.980313 
" style="fill: none; stroke-dasharray: 7.4,3.2; stroke-dashoffset: 0; stroke: #c586c0; stroke-width: 2"/>
    </g>
    <g id="text_27">
     <!-- collocation points -->
     <g transform="translate(357.467969 437.480313)scale(0.1 -0.1)">
      <defs>
       <path id="DejaVuSans-63" d="M 3122 3366 
L 3122 2828 
Q 2878 2963 2633 3030 
Q 2388 3097 2138 3097 
Q 1578 3097 1268 2742 
Q 959 2388 959 1747 
Q 959 1106 1268 751 
Q 1578 397 2138 397 
Q 2388 397 2633 464 
Q 2878 531 3122 666 
L 3122 134 
Q 2881 22 2623 -34 
Q 2366 -91 2075 -91 
Q 1284 -91 818 406 
Q 353 903 353 1747 
Q 353 2603 823 3093 
Q 1294 3584 2113 3584 
Q 2378 3584 2631 3529 
Q 2884 3475 3122 3366 
z
" transform="scale(0.015625)"/>
       <path id="DejaVuSans-6f" d="M 1959 3097 
Q 1497 3097 1228 2736 
Q 959 2375 959 1747 
Q 959 1119 1226 758 
Q 1494 397 1959 397 
Q 2419 397 2687 759 
Q 2956 1122 2956 1747 
Q 2956 2369 2687 2733 
Q 2419 3097 1959 3097 
z
M 1959 3584 
Q 2709 3584 3137 3096 
Q 3566 2609 3566 1747 
Q 3566 888 3137 398 
Q 2709 -91 1959 -91 
Q 1206 -91 779 398 
Q 353 888 353 1747 
Q 353 2609 779 3096 
Q 1206 3584 1959 3584 
z
" transform="scale(0.015625)"/>
       <path id="DejaVuSans-6c" d="M 603 4863 
L 1178 4863 
L 1178 0 
L 603 0 
L 603 4863 
z
" transform="scale(0.015625)"/>
       <path id="DejaVuSans-61" d="M 2194 1759 
Q 1497 1759 1228 1600 
Q 959 1441 959 1056 
Q 959 750 1161 570 
Q 1363 391 1709 391 
Q 2188 391 2477 730 
Q 2766 1069 2766 1631 
L 2766 1759 
L 2194 1759 
z
M 3341 1997 
L 3341 0 
L 2766 0 
L 2766 531 
Q 2569 213 2275 61 
Q 1981 -91 1556 -91 
Q 1019 -91 701 211 
Q 384 513 384 1019 
Q 384 1609 779 1909 
Q 1175 2209 1959 2209 
L 2766 2209 
L 2766 2266 
Q 2766 2663 2505 2880 
Q 2244 3097 1772 3097 
Q 1472 3097 1187 3025 
Q 903 2953 641 2809 
L 641 3341 
Q 956 3463 1253 3523 
Q 1550 3584 1831 3584 
Q 2591 3584 2966 3190 
Q 3341 2797 3341 1997 
z
" transform="scale(0.015625)"/>
       <path id="DejaVuSans-74" d="M 1172 4494 
L 1172 3500 
L 2356 3500 
L 2356 3053 
L 1172 3053 
L 1172 1153 
Q 1172 725 1289 603 
Q 1406 481 1766 481 
L 2356 481 
L 2356 0 
L 1766 0 
Q 1100 0 847 248 
Q 594 497 594 1153 
L 594 3053 
L 172 3053 
L 172 3500 
L 594 3500 
L 594 4494 
L 1172 4494 
z
" transform="scale(0.015625)"/>
       <path id="DejaVuSans-69" d="M 603 3500 
L 1178 3500 
L 1178 0 
L 603 0 
L 603 3500 
z
M 603 4863 
L 1178 4863 
L 1178 4134 
L 603 4134 
L 603 4863 
z
" transform="scale(0.015625)"/>
       <path id="DejaVuSans-6e" d="M 3513 2113 
L 3513 0 
L 2938 0 
L 2938 2094 
Q 2938 2591 2744 2837 
Q 2550 3084 2163 3084 
Q 1697 3084 1428 2787 
Q 1159 2491 1159 1978 
L 1159 0 
L 581 0 
L 581 3500 
L 1159 3500 
L 1159 2956 
Q 1366 3272 1645 3428 
Q 1925 3584 2291 3584 
Q 2894 3584 3203 3211 
Q 3513 2838 3513 2113 
z
" transform="scale(0.015625)"/>
       <path id="DejaVuSans-20" transform="scale(0.015625)"/>
       <path id="DejaVuSans-70" d="M 1159 525 
L 1159 -1331 
L 581 -1331 
L 581 3500 
L 1159 3500 
L 1159 2969 
Q 1341 3281 1617 3432 
Q 1894 3584 2278 3584 
Q 2916 3584 3314 3078 
Q 3713 2572 3713 1747 
Q 3713 922 3314 415 
Q 2916 -91 2278 -91 
Q 1894 -91 1617 61 
Q 1341 213 1159 525 
z
M 3116 1747 
Q 3116 2381 2855 2742 
Q 2594 3103 2138 3103 
Q 1681 3103 1420 2742 
Q 1159 2381 1159 1747 
Q 1159 1113 1420 752 
Q 1681 391 2138 391 
Q 2594 391 2855 752 
Q 3116 1113 3116 1747 
z
" transform="scale(0.015625)"/>
       <path id="DejaVuSans-73" d="M 2834 3397 
L 2834 2853 
Q 2591 2978 2328 3040 
Q 2066 3103 1784 3103 
Q 1356 3103 1142 2972 
Q 928 2841 928 2578 
Q 928 2378 1081 2264 
Q 1234 2150 1697 2047 
L 1894 2003 
Q 2506 1872 2764 1633 
Q 3022 1394 3022 966 
Q 3022 478 2636 193 
Q 2250 -91 1575 -91 
Q 1294 -91 989 -36 
Q 684 19 347 128 
L 347 722 
Q 666 556 975 473 
Q 1284 391 1588 391 
Q 1994 391 2212 530 
Q 2431 669 2431 922 
Q 2431 1156 2273 1281 
Q 2116 1406 1581 1522 
L 1381 1569 
Q 847 1681 609 1914 
Q 372 2147 372 2553 
Q 372 3047 722 3315 
Q 1072 3584 1716 3584 
Q 2034 3584 2315 3537 
Q 2597 3491 2834 3397 
z
" transform="scale(0.015625)"/>
      </defs>
      <use xlink:href="#DejaVuSans-63"/>
      <use xlink:href="#DejaVuSans-6f" x="54.980469"/>
      <use xlink:href="#DejaVuSans-6c" x="116.162109"/>
      <use xlink:href="#DejaVuSans-6c" x="143.945312"/>
      <use xlink:href="#DejaVuSans-6f" x="171.728516"/>
      <use xlink:href="#DejaVuSans-63" x="232.910156"/>
      <use xlink:href="#DejaVuSans-61" x="287.890625"/>
      <use xlink:href="#DejaVuSans-74" x="349.169922"/>
      <use xlink:href="#DejaVuSans-69" x="388.378906"/>
      <use xlink:href="#DejaVuSans-6f" x="416.162109"/>
      <use xlink:href="#DejaVuSans-6e" x="477.34375"/>
      <use xlink:href="#DejaVuSans-20" x="540.722656"/>
      <use xlink:href="#DejaVuSans-70" x="572.509766"/>
      <use xlink:href="#DejaVuSans-6f" x="635.986328"/>
      <use xlink:href="#DejaVuSans-69" x="697.167969"/>
      <use xlink:href="#DejaVuSans-6e" x="724.951172"/>
      <use xlink:href="#DejaVuSans-74" x="788.330078"/>
      <use xlink:href="#DejaVuSans-73" x="827.539062"/>
     </g>
    </g>
   </g>
  </g>
 </g>
 <defs>
  <clipPath id="pa2a98212a9">
   <rect x="96.535457" y="60.48" width="581.829085" height="388.08"/>
  </clipPath>
 </defs>
</svg>
