<?xml version="1.0" encoding="utf-8" standalone="no"?>
<!DOCTYPE svg PUBLIC "-//W3C//DTD SVG 1.1//EN"
  "http://www.w3.org/Graphics/SVG/1.1/DTD/svg11.dtd">
<svg xmlns:xlink="http://www.w3.org/1999/xlink" width="756pt" height="504pt" viewBox="0 0 756 504" xmlns="http://www.w3.org/2000/svg" version="1.1">
 <metadata>
  <rdf:RDF xmlns:dc="http://purl.org/dc/elements/1.1/" xmlns:cc="http://creativecommons.org/ns#" xmlns:rdf="http://www.w3.org/1999/02/22-rdf-syntax-ns#">
   <cc:Work>
    <dc:type rdf:resource="http://purl.org/dc/dcmitype/StillImage"/>
    <dc:date>2022-01-24T11:05:40.198383</dc:date>
    <dc:format>image/svg+xml</dc:format>
    <dc:creator>
     <cc:Agent>
      <dc:title>Matplotlib v3.5.0, https://matplotlib.org/</dc:title>
     </cc:Agent>
    </dc:creator>
   </cc:Work>
  </rdf:RDF>
 </metadata>
 <defs>
  <style type="text/css">*{stroke-linejoin: round; stroke-linecap: butt}</style>
 </defs>
 <g id="figure_1">
  <g id="patch_1">
   <path d="M 0 504 
L 756 504 
L 756 0 
L 0 0 
L 0 504 
z
" style="fill: none"/>
  </g>
  <g id="axes_1">
   <g id="patch_2">
    <path d="M 96.535457 448.56 
L 678.364543 448.56 
L 678.364543 60.48 
L 96.535457 60.48 
L 96.535457 448.56 
z
" style="fill: none"/>
   </g>
   <g id="matplotlib.axis_1">
    <g id="xtick_1">
     <g id="line2d_1">
      <path d="M 122.982234 448.56 
L 122.982234 60.48 
" clip-path="url(#pac607a0001)" style="fill: none; stroke: #b0b0b0; stroke-width: 0.8; stroke-linecap: square"/>
     </g>
     <g id="line2d_2">
      <defs>
       <path id="m7361c5aa52" d="M 0 0 
L 0 3.5 
" style="stroke: #000000; stroke-width: 0.8"/>
      </defs>
      <g>
       <use xlink:href="#m7361c5aa52" x="122.982234" y="448.56" style="stroke: #000000; stroke-width: 0.8"/>
      </g>
     </g>
     <g id="text_1">
      <!-- −1.00 -->
      <g transform="translate(107.659578 463.158437)scale(0.1 -0.1)">
       <defs>
        <path id="DejaVuSans-2212" d="M 678 2272 
L 4684 2272 
L 4684 1741 
L 678 1741 
L 678 2272 
z
" transform="scale(0.015625)"/>
        <path id="DejaVuSans-31" d="M 794 531 
L 1825 531 
L 1825 4091 
L 703 3866 
L 703 4441 
L 1819 4666 
L 2450 4666 
L 2450 531 
L 3481 531 
L 3481 0 
L 794 0 
L 794 531 
z
" transform="scale(0.015625)"/>
        <path id="DejaVuSans-2e" d="M 684 794 
L 1344 794 
L 1344 0 
L 684 0 
L 684 794 
z
" transform="scale(0.015625)"/>
        <path id="DejaVuSans-30" d="M 2034 4250 
Q 1547 4250 1301 3770 
Q 1056 3291 1056 2328 
Q 1056 1369 1301 889 
Q 1547 409 2034 409 
Q 2525 409 2770 889 
Q 3016 1369 3016 2328 
Q 3016 3291 2770 3770 
Q 2525 4250 2034 4250 
z
M 2034 4750 
Q 2819 4750 3233 4129 
Q 3647 3509 3647 2328 
Q 3647 1150 3233 529 
Q 2819 -91 2034 -91 
Q 1250 -91 836 529 
Q 422 1150 422 2328 
Q 422 3509 836 4129 
Q 1250 4750 2034 4750 
z
" transform="scale(0.015625)"/>
       </defs>
       <use xlink:href="#DejaVuSans-2212"/>
       <use xlink:href="#DejaVuSans-31" x="83.789062"/>
       <use xlink:href="#DejaVuSans-2e" x="147.412109"/>
       <use xlink:href="#DejaVuSans-30" x="179.199219"/>
       <use xlink:href="#DejaVuSans-30" x="242.822266"/>
      </g>
     </g>
    </g>
    <g id="xtick_2">
     <g id="line2d_3">
      <path d="M 189.099175 448.56 
L 189.099175 60.48 
" clip-path="url(#pac607a0001)" style="fill: none; stroke: #b0b0b0; stroke-width: 0.8; stroke-linecap: square"/>
     </g>
     <g id="line2d_4">
      <g>
       <use xlink:href="#m7361c5aa52" x="189.099175" y="448.56" style="stroke: #000000; stroke-width: 0.8"/>
      </g>
     </g>
     <g id="text_2">
      <!-- −0.75 -->
      <g transform="translate(173.776519 463.158437)scale(0.1 -0.1)">
       <defs>
        <path id="DejaVuSans-37" d="M 525 4666 
L 3525 4666 
L 3525 4397 
L 1831 0 
L 1172 0 
L 2766 4134 
L 525 4134 
L 525 4666 
z
" transform="scale(0.015625)"/>
        <path id="DejaVuSans-35" d="M 691 4666 
L 3169 4666 
L 3169 4134 
L 1269 4134 
L 1269 2991 
Q 1406 3038 1543 3061 
Q 1681 3084 1819 3084 
Q 2600 3084 3056 2656 
Q 3513 2228 3513 1497 
Q 3513 744 3044 326 
Q 2575 -91 1722 -91 
Q 1428 -91 1123 -41 
Q 819 9 494 109 
L 494 744 
Q 775 591 1075 516 
Q 1375 441 1709 441 
Q 2250 441 2565 725 
Q 2881 1009 2881 1497 
Q 2881 1984 2565 2268 
Q 2250 2553 1709 2553 
Q 1456 2553 1204 2497 
Q 953 2441 691 2322 
L 691 4666 
z
" transform="scale(0.015625)"/>
       </defs>
       <use xlink:href="#DejaVuSans-2212"/>
       <use xlink:href="#DejaVuSans-30" x="83.789062"/>
       <use xlink:href="#DejaVuSans-2e" x="147.412109"/>
       <use xlink:href="#DejaVuSans-37" x="179.199219"/>
       <use xlink:href="#DejaVuSans-35" x="242.822266"/>
      </g>
     </g>
    </g>
    <g id="xtick_3">
     <g id="line2d_5">
      <path d="M 255.216117 448.56 
L 255.216117 60.48 
" clip-path="url(#pac607a0001)" style="fill: none; stroke: #b0b0b0; stroke-width: 0.8; stroke-linecap: square"/>
     </g>
     <g id="line2d_6">
      <g>
       <use xlink:href="#m7361c5aa52" x="255.216117" y="448.56" style="stroke: #000000; stroke-width: 0.8"/>
      </g>
     </g>
     <g id="text_3">
      <!-- −0.50 -->
      <g transform="translate(239.893461 463.158437)scale(0.1 -0.1)">
       <use xlink:href="#DejaVuSans-2212"/>
       <use xlink:href="#DejaVuSans-30" x="83.789062"/>
       <use xlink:href="#DejaVuSans-2e" x="147.412109"/>
       <use xlink:href="#DejaVuSans-35" x="179.199219"/>
       <use xlink:href="#DejaVuSans-30" x="242.822266"/>
      </g>
     </g>
    </g>
    <g id="xtick_4">
     <g id="line2d_7">
      <path d="M 321.333058 448.56 
L 321.333058 60.48 
" clip-path="url(#pac607a0001)" style="fill: none; stroke: #b0b0b0; stroke-width: 0.8; stroke-linecap: square"/>
     </g>
     <g id="line2d_8">
      <g>
       <use xlink:href="#m7361c5aa52" x="321.333058" y="448.56" style="stroke: #000000; stroke-width: 0.8"/>
      </g>
     </g>
     <g id="text_4">
      <!-- −0.25 -->
      <g transform="translate(306.010402 463.158437)scale(0.1 -0.1)">
       <defs>
        <path id="DejaVuSans-32" d="M 1228 531 
L 3431 531 
L 3431 0 
L 469 0 
L 469 531 
Q 828 903 1448 1529 
Q 2069 2156 2228 2338 
Q 2531 2678 2651 2914 
Q 2772 3150 2772 3378 
Q 2772 3750 2511 3984 
Q 2250 4219 1831 4219 
Q 1534 4219 1204 4116 
Q 875 4013 500 3803 
L 500 4441 
Q 881 4594 1212 4672 
Q 1544 4750 1819 4750 
Q 2544 4750 2975 4387 
Q 3406 4025 3406 3419 
Q 3406 3131 3298 2873 
Q 3191 2616 2906 2266 
Q 2828 2175 2409 1742 
Q 1991 1309 1228 531 
z
" transform="scale(0.015625)"/>
       </defs>
       <use xlink:href="#DejaVuSans-2212"/>
       <use xlink:href="#DejaVuSans-30" x="83.789062"/>
       <use xlink:href="#DejaVuSans-2e" x="147.412109"/>
       <use xlink:href="#DejaVuSans-32" x="179.199219"/>
       <use xlink:href="#DejaVuSans-35" x="242.822266"/>
      </g>
     </g>
    </g>
    <g id="xtick_5">
     <g id="line2d_9">
      <path d="M 387.45 448.56 
L 387.45 60.48 
" clip-path="url(#pac607a0001)" style="fill: none; stroke: #b0b0b0; stroke-width: 0.8; stroke-linecap: square"/>
     </g>
     <g id="line2d_10">
      <g>
       <use xlink:href="#m7361c5aa52" x="387.45" y="448.56" style="stroke: #000000; stroke-width: 0.8"/>
      </g>
     </g>
     <g id="text_5">
      <!-- 0.00 -->
      <g transform="translate(376.317187 463.158437)scale(0.1 -0.1)">
       <use xlink:href="#DejaVuSans-30"/>
       <use xlink:href="#DejaVuSans-2e" x="63.623047"/>
       <use xlink:href="#DejaVuSans-30" x="95.410156"/>
       <use xlink:href="#DejaVuSans-30" x="159.033203"/>
      </g>
     </g>
    </g>
    <g id="xtick_6">
     <g id="line2d_11">
      <path d="M 453.566942 448.56 
L 453.566942 60.48 
" clip-path="url(#pac607a0001)" style="fill: none; stroke: #b0b0b0; stroke-width: 0.8; stroke-linecap: square"/>
     </g>
     <g id="line2d_12">
      <g>
       <use xlink:href="#m7361c5aa52" x="453.566942" y="448.56" style="stroke: #000000; stroke-width: 0.8"/>
      </g>
     </g>
     <g id="text_6">
      <!-- 0.25 -->
      <g transform="translate(442.434129 463.158437)scale(0.1 -0.1)">
       <use xlink:href="#DejaVuSans-30"/>
       <use xlink:href="#DejaVuSans-2e" x="63.623047"/>
       <use xlink:href="#DejaVuSans-32" x="95.410156"/>
       <use xlink:href="#DejaVuSans-35" x="159.033203"/>
      </g>
     </g>
    </g>
    <g id="xtick_7">
     <g id="line2d_13">
      <path d="M 519.683883 448.56 
L 519.683883 60.48 
" clip-path="url(#pac607a0001)" style="fill: none; stroke: #b0b0b0; stroke-width: 0.8; stroke-linecap: square"/>
     </g>
     <g id="line2d_14">
      <g>
       <use xlink:href="#m7361c5aa52" x="519.683883" y="448.56" style="stroke: #000000; stroke-width: 0.8"/>
      </g>
     </g>
     <g id="text_7">
      <!-- 0.50 -->
      <g transform="translate(508.551071 463.158437)scale(0.1 -0.1)">
       <use xlink:href="#DejaVuSans-30"/>
       <use xlink:href="#DejaVuSans-2e" x="63.623047"/>
       <use xlink:href="#DejaVuSans-35" x="95.410156"/>
       <use xlink:href="#DejaVuSans-30" x="159.033203"/>
      </g>
     </g>
    </g>
    <g id="xtick_8">
     <g id="line2d_15">
      <path d="M 585.800825 448.56 
L 585.800825 60.48 
" clip-path="url(#pac607a0001)" style="fill: none; stroke: #b0b0b0; stroke-width: 0.8; stroke-linecap: square"/>
     </g>
     <g id="line2d_16">
      <g>
       <use xlink:href="#m7361c5aa52" x="585.800825" y="448.56" style="stroke: #000000; stroke-width: 0.8"/>
      </g>
     </g>
     <g id="text_8">
      <!-- 0.75 -->
      <g transform="translate(574.668012 463.158437)scale(0.1 -0.1)">
       <use xlink:href="#DejaVuSans-30"/>
       <use xlink:href="#DejaVuSans-2e" x="63.623047"/>
       <use xlink:href="#DejaVuSans-37" x="95.410156"/>
       <use xlink:href="#DejaVuSans-35" x="159.033203"/>
      </g>
     </g>
    </g>
    <g id="xtick_9">
     <g id="line2d_17">
      <path d="M 651.917766 448.56 
L 651.917766 60.48 
" clip-path="url(#pac607a0001)" style="fill: none; stroke: #b0b0b0; stroke-width: 0.8; stroke-linecap: square"/>
     </g>
     <g id="line2d_18">
      <g>
       <use xlink:href="#m7361c5aa52" x="651.917766" y="448.56" style="stroke: #000000; stroke-width: 0.8"/>
      </g>
     </g>
     <g id="text_9">
      <!-- 1.00 -->
      <g transform="translate(640.784954 463.158437)scale(0.1 -0.1)">
       <use xlink:href="#DejaVuSans-31"/>
       <use xlink:href="#DejaVuSans-2e" x="63.623047"/>
       <use xlink:href="#DejaVuSans-30" x="95.410156"/>
       <use xlink:href="#DejaVuSans-30" x="159.033203"/>
      </g>
     </g>
    </g>
    <g id="text_10">
     <!-- x -->
     <g transform="translate(384.490625 476.836563)scale(0.1 -0.1)">
      <defs>
       <path id="DejaVuSans-78" d="M 3513 3500 
L 2247 1797 
L 3578 0 
L 2900 0 
L 1881 1375 
L 863 0 
L 184 0 
L 1544 1831 
L 300 3500 
L 978 3500 
L 1906 2253 
L 2834 3500 
L 3513 3500 
z
" transform="scale(0.015625)"/>
      </defs>
      <use xlink:href="#DejaVuSans-78"/>
     </g>
    </g>
   </g>
   <g id="matplotlib.axis_2">
    <g id="ytick_1">
     <g id="line2d_19">
      <path d="M 96.535457 430.92 
L 678.364543 430.92 
" clip-path="url(#pac607a0001)" style="fill: none; stroke: #b0b0b0; stroke-width: 0.8; stroke-linecap: square"/>
     </g>
     <g id="line2d_20">
      <defs>
       <path id="m429f9b9bdc" d="M 0 0 
L -3.5 0 
" style="stroke: #000000; stroke-width: 0.8"/>
      </defs>
      <g>
       <use xlink:href="#m429f9b9bdc" x="96.535457" y="430.92" style="stroke: #000000; stroke-width: 0.8"/>
      </g>
     </g>
     <g id="text_11">
      <!-- −1.00 -->
      <g transform="translate(58.890145 434.719219)scale(0.1 -0.1)">
       <use xlink:href="#DejaVuSans-2212"/>
       <use xlink:href="#DejaVuSans-31" x="83.789062"/>
       <use xlink:href="#DejaVuSans-2e" x="147.412109"/>
       <use xlink:href="#DejaVuSans-30" x="179.199219"/>
       <use xlink:href="#DejaVuSans-30" x="242.822266"/>
      </g>
     </g>
    </g>
    <g id="ytick_2">
     <g id="line2d_21">
      <path d="M 96.535457 386.82 
L 678.364543 386.82 
" clip-path="url(#pac607a0001)" style="fill: none; stroke: #b0b0b0; stroke-width: 0.8; stroke-linecap: square"/>
     </g>
     <g id="line2d_22">
      <g>
       <use xlink:href="#m429f9b9bdc" x="96.535457" y="386.82" style="stroke: #000000; stroke-width: 0.8"/>
      </g>
     </g>
     <g id="text_12">
      <!-- −0.75 -->
      <g transform="translate(58.890145 390.619219)scale(0.1 -0.1)">
       <use xlink:href="#DejaVuSans-2212"/>
       <use xlink:href="#DejaVuSans-30" x="83.789062"/>
       <use xlink:href="#DejaVuSans-2e" x="147.412109"/>
       <use xlink:href="#DejaVuSans-37" x="179.199219"/>
       <use xlink:href="#DejaVuSans-35" x="242.822266"/>
      </g>
     </g>
    </g>
    <g id="ytick_3">
     <g id="line2d_23">
      <path d="M 96.535457 342.72 
L 678.364543 342.72 
" clip-path="url(#pac607a0001)" style="fill: none; stroke: #b0b0b0; stroke-width: 0.8; stroke-linecap: square"/>
     </g>
     <g id="line2d_24">
      <g>
       <use xlink:href="#m429f9b9bdc" x="96.535457" y="342.72" style="stroke: #000000; stroke-width: 0.8"/>
      </g>
     </g>
     <g id="text_13">
      <!-- −0.50 -->
      <g transform="translate(58.890145 346.519219)scale(0.1 -0.1)">
       <use xlink:href="#DejaVuSans-2212"/>
       <use xlink:href="#DejaVuSans-30" x="83.789062"/>
       <use xlink:href="#DejaVuSans-2e" x="147.412109"/>
       <use xlink:href="#DejaVuSans-35" x="179.199219"/>
       <use xlink:href="#DejaVuSans-30" x="242.822266"/>
      </g>
     </g>
    </g>
    <g id="ytick_4">
     <g id="line2d_25">
      <path d="M 96.535457 298.62 
L 678.364543 298.62 
" clip-path="url(#pac607a0001)" style="fill: none; stroke: #b0b0b0; stroke-width: 0.8; stroke-linecap: square"/>
     </g>
     <g id="line2d_26">
      <g>
       <use xlink:href="#m429f9b9bdc" x="96.535457" y="298.62" style="stroke: #000000; stroke-width: 0.8"/>
      </g>
     </g>
     <g id="text_14">
      <!-- −0.25 -->
      <g transform="translate(58.890145 302.419219)scale(0.1 -0.1)">
       <use xlink:href="#DejaVuSans-2212"/>
       <use xlink:href="#DejaVuSans-30" x="83.789062"/>
       <use xlink:href="#DejaVuSans-2e" x="147.412109"/>
       <use xlink:href="#DejaVuSans-32" x="179.199219"/>
       <use xlink:href="#DejaVuSans-35" x="242.822266"/>
      </g>
     </g>
    </g>
    <g id="ytick_5">
     <g id="line2d_27">
      <path d="M 96.535457 254.52 
L 678.364543 254.52 
" clip-path="url(#pac607a0001)" style="fill: none; stroke: #b0b0b0; stroke-width: 0.8; stroke-linecap: square"/>
     </g>
     <g id="line2d_28">
      <g>
       <use xlink:href="#m429f9b9bdc" x="96.535457" y="254.52" style="stroke: #000000; stroke-width: 0.8"/>
      </g>
     </g>
     <g id="text_15">
      <!-- 0.00 -->
      <g transform="translate(67.269832 258.319219)scale(0.1 -0.1)">
       <use xlink:href="#DejaVuSans-30"/>
       <use xlink:href="#DejaVuSans-2e" x="63.623047"/>
       <use xlink:href="#DejaVuSans-30" x="95.410156"/>
       <use xlink:href="#DejaVuSans-30" x="159.033203"/>
      </g>
     </g>
    </g>
    <g id="ytick_6">
     <g id="line2d_29">
      <path d="M 96.535457 210.42 
L 678.364543 210.42 
" clip-path="url(#pac607a0001)" style="fill: none; stroke: #b0b0b0; stroke-width: 0.8; stroke-linecap: square"/>
     </g>
     <g id="line2d_30">
      <g>
       <use xlink:href="#m429f9b9bdc" x="96.535457" y="210.42" style="stroke: #000000; stroke-width: 0.8"/>
      </g>
     </g>
     <g id="text_16">
      <!-- 0.25 -->
      <g transform="translate(67.269832 214.219219)scale(0.1 -0.1)">
       <use xlink:href="#DejaVuSans-30"/>
       <use xlink:href="#DejaVuSans-2e" x="63.623047"/>
       <use xlink:href="#DejaVuSans-32" x="95.410156"/>
       <use xlink:href="#DejaVuSans-35" x="159.033203"/>
      </g>
     </g>
    </g>
    <g id="ytick_7">
     <g id="line2d_31">
      <path d="M 96.535457 166.32 
L 678.364543 166.32 
" clip-path="url(#pac607a0001)" style="fill: none; stroke: #b0b0b0; stroke-width: 0.8; stroke-linecap: square"/>
     </g>
     <g id="line2d_32">
      <g>
       <use xlink:href="#m429f9b9bdc" x="96.535457" y="166.32" style="stroke: #000000; stroke-width: 0.8"/>
      </g>
     </g>
     <g id="text_17">
      <!-- 0.50 -->
      <g transform="translate(67.269832 170.119219)scale(0.1 -0.1)">
       <use xlink:href="#DejaVuSans-30"/>
       <use xlink:href="#DejaVuSans-2e" x="63.623047"/>
       <use xlink:href="#DejaVuSans-35" x="95.410156"/>
       <use xlink:href="#DejaVuSans-30" x="159.033203"/>
      </g>
     </g>
    </g>
    <g id="ytick_8">
     <g id="line2d_33">
      <path d="M 96.535457 122.22 
L 678.364543 122.22 
" clip-path="url(#pac607a0001)" style="fill: none; stroke: #b0b0b0; stroke-width: 0.8; stroke-linecap: square"/>
     </g>
     <g id="line2d_34">
      <g>
       <use xlink:href="#m429f9b9bdc" x="96.535457" y="122.22" style="stroke: #000000; stroke-width: 0.8"/>
      </g>
     </g>
     <g id="text_18">
      <!-- 0.75 -->
      <g transform="translate(67.269832 126.019219)scale(0.1 -0.1)">
       <use xlink:href="#DejaVuSans-30"/>
       <use xlink:href="#DejaVuSans-2e" x="63.623047"/>
       <use xlink:href="#DejaVuSans-37" x="95.410156"/>
       <use xlink:href="#DejaVuSans-35" x="159.033203"/>
      </g>
     </g>
    </g>
    <g id="ytick_9">
     <g id="line2d_35">
      <path d="M 96.535457 78.12 
L 678.364543 78.12 
" clip-path="url(#pac607a0001)" style="fill: none; stroke: #b0b0b0; stroke-width: 0.8; stroke-linecap: square"/>
     </g>
     <g id="line2d_36">
      <g>
       <use xlink:href="#m429f9b9bdc" x="96.535457" y="78.12" style="stroke: #000000; stroke-width: 0.8"/>
      </g>
     </g>
     <g id="text_19">
      <!-- 1.00 -->
      <g transform="translate(67.269832 81.919219)scale(0.1 -0.1)">
       <use xlink:href="#DejaVuSans-31"/>
       <use xlink:href="#DejaVuSans-2e" x="63.623047"/>
       <use xlink:href="#DejaVuSans-30" x="95.410156"/>
       <use xlink:href="#DejaVuSans-30" x="159.033203"/>
      </g>
     </g>
    </g>
    <g id="text_20">
     <!-- $L_n(x)$ -->
     <g transform="translate(52.810457 266.57)rotate(-90)scale(0.1 -0.1)">
      <defs>
       <path id="DejaVuSans-Oblique-4c" d="M 1075 4666 
L 1709 4666 
L 909 525 
L 3181 525 
L 3078 0 
L 172 0 
L 1075 4666 
z
" transform="scale(0.015625)"/>
       <path id="DejaVuSans-Oblique-6e" d="M 3566 2113 
L 3156 0 
L 2578 0 
L 2988 2091 
Q 3016 2238 3031 2350 
Q 3047 2463 3047 2528 
Q 3047 2791 2881 2937 
Q 2716 3084 2419 3084 
Q 1956 3084 1622 2776 
Q 1288 2469 1184 1941 
L 800 0 
L 225 0 
L 903 3500 
L 1478 3500 
L 1363 2950 
Q 1603 3253 1940 3418 
Q 2278 3584 2650 3584 
Q 3113 3584 3367 3334 
Q 3622 3084 3622 2631 
Q 3622 2519 3608 2391 
Q 3594 2263 3566 2113 
z
" transform="scale(0.015625)"/>
       <path id="DejaVuSans-28" d="M 1984 4856 
Q 1566 4138 1362 3434 
Q 1159 2731 1159 2009 
Q 1159 1288 1364 580 
Q 1569 -128 1984 -844 
L 1484 -844 
Q 1016 -109 783 600 
Q 550 1309 550 2009 
Q 550 2706 781 3412 
Q 1013 4119 1484 4856 
L 1984 4856 
z
" transform="scale(0.015625)"/>
       <path id="DejaVuSans-Oblique-78" d="M 3841 3500 
L 2234 1784 
L 3219 0 
L 2559 0 
L 1819 1388 
L 531 0 
L -166 0 
L 1556 1844 
L 641 3500 
L 1300 3500 
L 1972 2234 
L 3144 3500 
L 3841 3500 
z
" transform="scale(0.015625)"/>
       <path id="DejaVuSans-29" d="M 513 4856 
L 1013 4856 
Q 1481 4119 1714 3412 
Q 1947 2706 1947 2009 
Q 1947 1309 1714 600 
Q 1481 -109 1013 -844 
L 513 -844 
Q 928 -128 1133 580 
Q 1338 1288 1338 2009 
Q 1338 2731 1133 3434 
Q 928 4138 513 4856 
z
" transform="scale(0.015625)"/>
      </defs>
      <use xlink:href="#DejaVuSans-Oblique-4c" transform="translate(0 0.125)"/>
      <use xlink:href="#DejaVuSans-Oblique-6e" transform="translate(55.712891 -16.28125)scale(0.7)"/>
      <use xlink:href="#DejaVuSans-28" transform="translate(102.8125 0.125)"/>
      <use xlink:href="#DejaVuSans-Oblique-78" transform="translate(141.826172 0.125)"/>
      <use xlink:href="#DejaVuSans-29" transform="translate(201.005859 0.125)"/>
     </g>
    </g>
   </g>
   <g id="line2d_37">
    <path d="M 122.982234 78.12 
L 651.917766 78.12 
L 651.917766 78.12 
" clip-path="url(#pac607a0001)" style="fill: none; stroke: #440154; stroke-width: 2; stroke-linecap: square"/>
   </g>
   <g id="line2d_38">
    <path d="M 122.982234 430.92 
L 651.917766 78.12 
L 651.917766 78.12 
" clip-path="url(#pac607a0001)" style="fill: none; stroke: #414487; stroke-width: 2; stroke-linecap: square"/>
   </g>
   <g id="line2d_39">
    <path d="M 122.982234 78.12 
L 130.924209 93.773275 
L 138.866184 108.949316 
L 146.808159 123.648123 
L 154.750134 137.869696 
L 162.692109 151.614035 
L 170.104619 164.011513 
L 177.517129 175.993268 
L 184.929639 187.559299 
L 192.342149 198.709606 
L 199.754658 209.444189 
L 206.637703 219.039774 
L 213.520748 228.276903 
L 220.403793 237.155576 
L 227.286838 245.675794 
L 234.169883 253.837555 
L 241.052928 261.640861 
L 247.935973 269.085712 
L 254.289553 275.639725 
L 260.643133 281.888309 
L 266.996713 287.831463 
L 273.350293 293.469187 
L 279.703873 298.801481 
L 286.057453 303.828346 
L 291.881568 308.167994 
L 297.705683 312.250996 
L 303.529798 316.077352 
L 309.353913 319.647062 
L 315.178028 322.960127 
L 321.002143 326.016545 
L 326.826258 328.816318 
L 332.650373 331.359445 
L 338.474488 333.645926 
L 344.298603 335.675761 
L 350.122718 337.448951 
L 355.417368 338.838232 
L 360.712018 340.015409 
L 366.006668 340.980482 
L 371.301318 341.733451 
L 376.595968 342.274316 
L 381.890618 342.603078 
L 387.185268 342.719735 
L 392.479917 342.624288 
L 397.774567 342.316737 
L 403.069217 341.797082 
L 408.363867 341.065324 
L 413.658517 340.121461 
L 418.953167 338.965494 
L 424.247817 337.597423 
L 429.542467 336.017249 
L 435.366582 334.034076 
L 441.190697 331.794258 
L 447.014812 329.297794 
L 452.838927 326.544684 
L 458.663042 323.534928 
L 464.487157 320.268527 
L 470.311272 316.74548 
L 476.135387 312.965786 
L 481.959502 308.929447 
L 487.783617 304.636462 
L 493.607732 300.086832 
L 499.961312 294.830895 
L 506.314892 289.269528 
L 512.668472 283.402731 
L 519.022052 277.230505 
L 525.375632 270.752849 
L 531.729212 263.969763 
L 538.082792 256.881248 
L 544.965837 248.857354 
L 551.848882 240.475004 
L 558.731927 231.734198 
L 565.614972 222.634937 
L 572.498017 213.177219 
L 579.381061 203.361046 
L 586.793571 192.388907 
L 594.206081 181.001043 
L 601.618591 169.197456 
L 609.031101 156.978145 
L 616.443611 144.34311 
L 623.856121 131.292351 
L 631.798096 116.848069 
L 639.740071 101.926552 
L 647.682046 86.527802 
L 651.917766 78.12 
L 651.917766 78.12 
" clip-path="url(#pac607a0001)" style="fill: none; stroke: #2a788e; stroke-width: 2; stroke-linecap: square"/>
   </g>
   <g id="line2d_40">
    <path d="M 122.982234 430.92 
L 127.747419 412.276661 
L 132.512604 394.476865 
L 137.277789 377.505134 
L 142.042974 361.345991 
L 146.808159 345.983958 
L 151.573344 331.403557 
L 156.338529 317.589309 
L 161.103714 304.525738 
L 165.339434 293.53136 
L 169.575154 283.107008 
L 173.810874 273.241813 
L 178.046594 263.924903 
L 182.282314 255.145409 
L 186.518034 246.892458 
L 190.753754 239.155182 
L 194.989474 231.922709 
L 198.695728 225.999846 
L 202.401983 220.447867 
L 206.108238 215.259491 
L 209.814493 210.427435 
L 213.520748 205.944416 
L 217.227003 201.803152 
L 220.933258 197.99636 
L 224.639513 194.516759 
L 228.345768 191.357065 
L 232.052023 188.509996 
L 235.758278 185.96827 
L 239.464533 183.724605 
L 243.170788 181.771717 
L 246.877043 180.102324 
L 250.583298 178.709145 
L 254.289553 177.584895 
L 257.995808 176.722294 
L 261.702063 176.114059 
L 265.408318 175.752906 
L 269.114573 175.631554 
L 272.820828 175.74272 
L 276.527083 176.079123 
L 280.233338 176.633478 
L 283.939593 177.398504 
L 287.645848 178.366919 
L 291.881568 179.713384 
L 296.117288 181.305116 
L 300.353008 183.131246 
L 304.588728 185.180902 
L 309.353913 187.740415 
L 314.119098 190.553592 
L 319.413748 193.958028 
L 324.708398 197.63529 
L 330.532513 201.970052 
L 336.356628 206.580985 
L 342.710208 211.892859 
L 349.593253 217.937776 
L 357.535228 225.228501 
L 366.536133 233.813759 
L 377.654898 244.742405 
L 412.070122 278.796645 
L 421.071027 287.251785 
L 428.483537 293.926889 
L 435.366582 299.837664 
L 441.720162 305.006607 
L 447.544277 309.470404 
L 453.368392 313.642618 
L 458.663042 317.158732 
L 463.428227 320.079681 
L 468.193412 322.753844 
L 472.958597 325.165743 
L 477.194317 327.07697 
L 481.430037 328.757875 
L 485.665757 330.197589 
L 489.901477 331.385241 
L 493.607732 332.209122 
L 497.313987 332.824412 
L 501.020242 333.223829 
L 504.726497 333.400092 
L 508.432752 333.345917 
L 512.139007 333.054022 
L 515.845262 332.517125 
L 519.551517 331.727942 
L 523.257772 330.679193 
L 526.964027 329.363594 
L 530.670282 327.773862 
L 534.376537 325.902716 
L 538.082792 323.742873 
L 541.789047 321.28705 
L 545.495302 318.527965 
L 549.201557 315.458336 
L 552.907812 312.07088 
L 556.614067 308.358314 
L 560.320322 304.313357 
L 564.026577 299.928725 
L 567.732832 295.197137 
L 571.439087 290.11131 
L 575.145342 284.663961 
L 578.851596 278.847808 
L 582.557851 272.655568 
L 586.793571 265.108867 
L 591.029291 257.050568 
L 595.265011 248.469802 
L 599.500731 239.355696 
L 603.736451 229.697382 
L 607.972171 219.483988 
L 612.207891 208.704644 
L 616.443611 197.348478 
L 620.679331 185.404621 
L 625.444516 171.251772 
L 630.209701 156.325889 
L 634.974886 140.611496 
L 639.740071 124.093114 
L 644.505256 106.755265 
L 649.270441 88.582472 
L 651.917766 78.12 
L 651.917766 78.12 
" clip-path="url(#pac607a0001)" style="fill: none; stroke: #22a884; stroke-width: 2; stroke-linecap: square"/>
   </g>
   <g id="line2d_41">
    <path d="M 122.982234 78.12 
L 126.688489 102.069705 
L 130.394744 124.511006 
L 134.100999 145.493809 
L 137.807254 165.067304 
L 140.984044 180.759658 
L 144.160834 195.482339 
L 147.337624 209.265073 
L 150.514414 222.137197 
L 153.691204 234.127665 
L 156.867994 245.265044 
L 160.044784 255.577515 
L 163.221574 265.092877 
L 166.398364 273.838538 
L 169.575154 281.841523 
L 172.222479 287.962587 
L 174.869804 293.601623 
L 177.517129 298.773656 
L 180.164454 303.493526 
L 182.811779 307.775886 
L 185.459104 311.635206 
L 188.106429 315.085767 
L 190.753754 318.141664 
L 193.401079 320.816808 
L 196.048404 323.124923 
L 198.695728 325.079547 
L 200.813588 326.397711 
L 202.931448 327.504941 
L 205.049308 328.40791 
L 207.167168 329.113217 
L 209.285028 329.627385 
L 211.402888 329.956858 
L 214.050213 330.11867 
L 216.697538 330.014118 
L 219.344863 329.65529 
L 221.992188 329.054087 
L 224.639513 328.222226 
L 227.286838 327.171235 
L 230.463628 325.636754 
L 233.640418 323.822301 
L 236.817208 321.746737 
L 239.993998 319.428542 
L 243.700253 316.441435 
L 247.406508 313.176753 
L 251.642228 309.140853 
L 256.407413 304.259145 
L 261.702063 298.475145 
L 267.526178 291.758373 
L 274.409223 283.463384 
L 283.939593 271.593211 
L 302.470868 248.441276 
L 309.883378 239.562217 
L 316.236958 232.275503 
L 322.061073 225.924242 
L 327.355723 220.467312 
L 332.120908 215.844431 
L 336.886093 211.519306 
L 341.651278 207.513626 
L 345.886998 204.237198 
L 350.122718 201.241363 
L 354.358438 198.537469 
L 358.064693 196.41904 
L 361.770948 194.537924 
L 365.477203 192.899429 
L 369.183458 191.508146 
L 372.889713 190.367955 
L 376.595968 189.482019 
L 380.302223 188.852788 
L 384.008478 188.481995 
L 387.714732 188.370663 
L 390.891522 188.481995 
L 394.597777 188.852788 
L 398.304032 189.482019 
L 402.010287 190.367955 
L 405.716542 191.508146 
L 409.422797 192.899429 
L 413.129052 194.537924 
L 416.835307 196.41904 
L 420.541562 198.537469 
L 424.247817 200.887191 
L 428.483537 203.847129 
L 432.719257 207.089145 
L 436.954977 210.600823 
L 441.720162 214.856766 
L 446.485347 219.415453 
L 451.779997 224.807436 
L 457.074647 230.509813 
L 462.898762 237.095921 
L 469.781807 245.23046 
L 478.253247 255.625848 
L 507.373822 291.758373 
L 513.197937 298.475145 
L 518.492587 304.259145 
L 523.257772 309.140853 
L 527.493492 313.176753 
L 531.729212 316.885806 
L 535.435467 319.830985 
L 539.141722 322.466455 
L 542.318512 324.457054 
L 545.495302 326.180298 
L 548.672092 327.617196 
L 551.319417 328.581907 
L 553.966742 329.322899 
L 556.614067 329.828568 
L 559.261392 330.087125 
L 561.908717 330.086592 
L 564.556042 329.814808 
L 566.673902 329.393789 
L 568.791762 328.784862 
L 570.909622 327.981544 
L 573.027482 326.977274 
L 575.145342 325.765416 
L 577.263202 324.339258 
L 579.381061 322.69201 
L 582.028386 320.311578 
L 584.675711 317.561387 
L 587.323036 314.427676 
L 589.970361 310.896497 
L 592.617686 306.953718 
L 595.265011 302.585019 
L 597.912336 297.775894 
L 600.559661 292.511654 
L 603.206986 286.777421 
L 605.854311 280.558132 
L 608.501636 273.838538 
L 611.678426 265.092877 
L 614.855216 255.577515 
L 618.032006 245.265044 
L 621.208796 234.127665 
L 624.385586 222.137197 
L 627.562376 209.265073 
L 630.739166 195.482339 
L 633.915956 180.759658 
L 637.092746 165.067304 
L 640.269536 148.375168 
L 643.975791 127.59669 
L 647.682046 105.366785 
L 651.388301 81.635648 
L 651.917766 78.12 
L 651.917766 78.12 
" clip-path="url(#pac607a0001)" style="fill: none; stroke: #7ad151; stroke-width: 2; stroke-linecap: square"/>
   </g>
   <g id="line2d_42">
    <path d="M 122.982234 430.92 
L 126.159024 400.451214 
L 128.806349 377.010782 
L 131.453674 355.266932 
L 134.100999 335.149811 
L 136.748324 316.591184 
L 139.395649 299.524418 
L 142.042974 283.884469 
L 144.690299 269.607862 
L 147.337624 256.632674 
L 149.984949 244.898519 
L 152.632274 234.34653 
L 154.750134 226.717502 
L 156.867994 219.779634 
L 158.985854 213.504845 
L 161.103714 207.865652 
L 163.221574 202.835164 
L 165.339434 198.387074 
L 167.457294 194.49566 
L 169.575154 191.135774 
L 171.693014 188.282838 
L 173.281409 186.461356 
L 174.869804 184.90159 
L 176.458199 183.593794 
L 178.046594 182.528393 
L 179.634989 181.695986 
L 181.223384 181.087345 
L 182.811779 180.693411 
L 184.400174 180.505295 
L 185.988569 180.514275 
L 187.576964 180.711797 
L 189.165359 181.08947 
L 191.283219 181.859075 
L 193.401079 182.915296 
L 195.518939 184.239592 
L 197.636798 185.813924 
L 200.284123 188.106781 
L 202.931448 190.729771 
L 205.578773 193.650902 
L 208.755563 197.506482 
L 211.932353 201.695971 
L 215.638608 206.94084 
L 219.874328 213.316363 
L 225.168978 221.708 
L 232.581488 233.91587 
L 245.818113 255.772585 
L 251.642228 264.959972 
L 256.936878 272.898941 
L 261.702063 279.625485 
L 265.937783 285.220744 
L 269.644038 289.789757 
L 273.350293 294.031103 
L 277.056548 297.926163 
L 280.233338 300.977087 
L 283.410128 303.753506 
L 286.586918 306.248422 
L 289.763708 308.456202 
L 292.940498 310.372537 
L 296.117288 311.994399 
L 298.764613 313.11968 
L 301.411938 314.038806 
L 304.059263 314.751943 
L 306.706588 315.2598 
L 309.353913 315.563612 
L 312.001238 315.665128 
L 314.648563 315.566589 
L 317.295888 315.270716 
L 319.943213 314.780688 
L 323.120003 313.941503 
L 326.296793 312.835047 
L 329.473583 311.469237 
L 332.650373 309.852789 
L 335.827163 307.995184 
L 339.003953 305.906618 
L 342.710208 303.192594 
L 346.416463 300.197394 
L 350.652183 296.455 
L 354.887903 292.401396 
L 359.653088 287.509167 
L 364.947738 281.717335 
L 370.771853 274.992386 
L 377.654898 266.691679 
L 388.773662 252.864788 
L 400.421892 238.47877 
L 407.304937 230.338727 
L 413.129052 223.806092 
L 417.894237 218.772122 
L 422.659422 214.070327 
L 426.895142 210.207556 
L 430.601397 207.097743 
L 434.307652 204.260902 
L 438.013907 201.715866 
L 441.190697 199.780106 
L 444.367487 198.082183 
L 447.544277 196.63182 
L 450.721067 195.437993 
L 453.897857 194.508889 
L 456.545182 193.94219 
L 459.192507 193.568248 
L 461.839832 193.390423 
L 464.487157 193.411621 
L 467.134482 193.634277 
L 469.781807 194.060338 
L 472.429132 194.691248 
L 475.076457 195.527928 
L 477.723782 196.570763 
L 480.371107 197.819583 
L 483.547897 199.588981 
L 486.724687 201.651496 
L 489.901477 204.003465 
L 493.078267 206.639921 
L 496.255057 209.554554 
L 499.431847 212.739667 
L 503.138102 216.785235 
L 506.844357 221.169455 
L 510.550612 225.87249 
L 514.786332 231.608468 
L 519.551517 238.475128 
L 524.846167 246.543836 
L 530.670282 255.837681 
L 539.141722 269.828741 
L 550.789952 289.039752 
L 556.084602 297.350328 
L 560.320322 303.632949 
L 564.026577 308.77457 
L 567.203367 312.858286 
L 570.380157 316.591328 
L 573.027482 319.396967 
L 575.674807 321.891809 
L 578.322132 324.043389 
L 580.439991 325.494926 
L 582.557851 326.687471 
L 584.675711 327.602733 
L 586.793571 328.22192 
L 588.381966 328.480416 
L 589.970361 328.553185 
L 591.558756 328.431729 
L 593.147151 328.10738 
L 594.735546 327.571306 
L 596.323941 326.814505 
L 597.912336 325.827805 
L 599.500731 324.601862 
L 601.089126 323.127161 
L 602.677521 321.394011 
L 604.265916 319.392549 
L 605.854311 317.112731 
L 607.972171 313.62229 
L 610.090031 309.594087 
L 612.207891 305.002832 
L 614.325751 299.822656 
L 616.443611 294.027108 
L 618.561471 287.58915 
L 620.679331 280.481148 
L 622.797191 272.67487 
L 624.915051 264.141481 
L 627.562376 252.407326 
L 630.209701 239.432138 
L 632.857026 225.155531 
L 635.504351 209.515582 
L 638.151676 192.448816 
L 640.799001 173.890189 
L 643.446326 153.773068 
L 646.093651 132.029218 
L 648.740976 108.588786 
L 651.388301 83.380278 
L 651.917766 78.12 
L 651.917766 78.12 
" clip-path="url(#pac607a0001)" style="fill: none; stroke: #fde725; stroke-width: 2; stroke-linecap: square"/>
   </g>
   <g id="patch_3">
    <path d="M 96.535457 448.56 
L 96.535457 60.48 
" style="fill: none; stroke: #000000; stroke-width: 0.8; stroke-linejoin: miter; stroke-linecap: square"/>
   </g>
   <g id="patch_4">
    <path d="M 678.364543 448.56 
L 678.364543 60.48 
" style="fill: none; stroke: #000000; stroke-width: 0.8; stroke-linejoin: miter; stroke-linecap: square"/>
   </g>
   <g id="patch_5">
    <path d="M 96.535457 448.56 
L 678.364543 448.56 
" style="fill: none; stroke: #000000; stroke-width: 0.8; stroke-linejoin: miter; stroke-linecap: square"/>
   </g>
   <g id="patch_6">
    <path d="M 96.535457 60.48 
L 678.364543 60.48 
" style="fill: none; stroke: #000000; stroke-width: 0.8; stroke-linejoin: miter; stroke-linecap: square"/>
   </g>
   <g id="legend_1">
    <g id="patch_7">
     <path d="M 615.264543 443.56 
L 671.364543 443.56 
Q 673.364543 443.56 673.364543 441.56 
L 673.364543 354.49125 
Q 673.364543 352.49125 671.364543 352.49125 
L 615.264543 352.49125 
Q 613.264543 352.49125 613.264543 354.49125 
L 613.264543 441.56 
Q 613.264543 443.56 615.264543 443.56 
z
" style="fill: #ffffff; opacity: 0.8; stroke: #cccccc; stroke-linejoin: miter"/>
    </g>
    <g id="line2d_43">
     <path d="M 617.264543 360.589688 
L 627.264543 360.589688 
L 637.264543 360.589688 
" style="fill: none; stroke: #440154; stroke-width: 2; stroke-linecap: square"/>
    </g>
    <g id="text_21">
     <!-- $L_0(x)$ -->
     <g transform="translate(645.264543 364.089688)scale(0.1 -0.1)">
      <use xlink:href="#DejaVuSans-Oblique-4c" transform="translate(0 0.125)"/>
      <use xlink:href="#DejaVuSans-30" transform="translate(55.712891 -16.28125)scale(0.7)"/>
      <use xlink:href="#DejaVuSans-28" transform="translate(102.983398 0.125)"/>
      <use xlink:href="#DejaVuSans-Oblique-78" transform="translate(141.99707 0.125)"/>
      <use xlink:href="#DejaVuSans-29" transform="translate(201.176758 0.125)"/>
     </g>
    </g>
    <g id="line2d_44">
     <path d="M 617.264543 375.267812 
L 627.264543 375.267812 
L 637.264543 375.267812 
" style="fill: none; stroke: #414487; stroke-width: 2; stroke-linecap: square"/>
    </g>
    <g id="text_22">
     <!-- $L_1(x)$ -->
     <g transform="translate(645.264543 378.767812)scale(0.1 -0.1)">
      <use xlink:href="#DejaVuSans-Oblique-4c" transform="translate(0 0.125)"/>
      <use xlink:href="#DejaVuSans-31" transform="translate(55.712891 -16.28125)scale(0.7)"/>
      <use xlink:href="#DejaVuSans-28" transform="translate(102.983398 0.125)"/>
      <use xlink:href="#DejaVuSans-Oblique-78" transform="translate(141.99707 0.125)"/>
      <use xlink:href="#DejaVuSans-29" transform="translate(201.176758 0.125)"/>
     </g>
    </g>
    <g id="line2d_45">
     <path d="M 617.264543 389.945938 
L 627.264543 389.945938 
L 637.264543 389.945938 
" style="fill: none; stroke: #2a788e; stroke-width: 2; stroke-linecap: square"/>
    </g>
    <g id="text_23">
     <!-- $L_2(x)$ -->
     <g transform="translate(645.264543 393.445938)scale(0.1 -0.1)">
      <use xlink:href="#DejaVuSans-Oblique-4c" transform="translate(0 0.125)"/>
      <use xlink:href="#DejaVuSans-32" transform="translate(55.712891 -16.28125)scale(0.7)"/>
      <use xlink:href="#DejaVuSans-28" transform="translate(102.983398 0.125)"/>
      <use xlink:href="#DejaVuSans-Oblique-78" transform="translate(141.99707 0.125)"/>
      <use xlink:href="#DejaVuSans-29" transform="translate(201.176758 0.125)"/>
     </g>
    </g>
    <g id="line2d_46">
     <path d="M 617.264543 404.624063 
L 627.264543 404.624063 
L 637.264543 404.624063 
" style="fill: none; stroke: #22a884; stroke-width: 2; stroke-linecap: square"/>
    </g>
    <g id="text_24">
     <!-- $L_3(x)$ -->
     <g transform="translate(645.264543 408.124063)scale(0.1 -0.1)">
      <defs>
       <path id="DejaVuSans-33" d="M 2597 2516 
Q 3050 2419 3304 2112 
Q 3559 1806 3559 1356 
Q 3559 666 3084 287 
Q 2609 -91 1734 -91 
Q 1441 -91 1130 -33 
Q 819 25 488 141 
L 488 750 
Q 750 597 1062 519 
Q 1375 441 1716 441 
Q 2309 441 2620 675 
Q 2931 909 2931 1356 
Q 2931 1769 2642 2001 
Q 2353 2234 1838 2234 
L 1294 2234 
L 1294 2753 
L 1863 2753 
Q 2328 2753 2575 2939 
Q 2822 3125 2822 3475 
Q 2822 3834 2567 4026 
Q 2313 4219 1838 4219 
Q 1578 4219 1281 4162 
Q 984 4106 628 3988 
L 628 4550 
Q 988 4650 1302 4700 
Q 1616 4750 1894 4750 
Q 2613 4750 3031 4423 
Q 3450 4097 3450 3541 
Q 3450 3153 3228 2886 
Q 3006 2619 2597 2516 
z
" transform="scale(0.015625)"/>
      </defs>
      <use xlink:href="#DejaVuSans-Oblique-4c" transform="translate(0 0.125)"/>
      <use xlink:href="#DejaVuSans-33" transform="translate(55.712891 -16.28125)scale(0.7)"/>
      <use xlink:href="#DejaVuSans-28" transform="translate(102.983398 0.125)"/>
      <use xlink:href="#DejaVuSans-Oblique-78" transform="translate(141.99707 0.125)"/>
      <use xlink:href="#DejaVuSans-29" transform="translate(201.176758 0.125)"/>
     </g>
    </g>
    <g id="line2d_47">
     <path d="M 617.264543 419.302188 
L 627.264543 419.302188 
L 637.264543 419.302188 
" style="fill: none; stroke: #7ad151; stroke-width: 2; stroke-linecap: square"/>
    </g>
    <g id="text_25">
     <!-- $L_4(x)$ -->
     <g transform="translate(645.264543 422.802188)scale(0.1 -0.1)">
      <defs>
       <path id="DejaVuSans-34" d="M 2419 4116 
L 825 1625 
L 2419 1625 
L 2419 4116 
z
M 2253 4666 
L 3047 4666 
L 3047 1625 
L 3713 1625 
L 3713 1100 
L 3047 1100 
L 3047 0 
L 2419 0 
L 2419 1100 
L 313 1100 
L 313 1709 
L 2253 4666 
z
" transform="scale(0.015625)"/>
      </defs>
      <use xlink:href="#DejaVuSans-Oblique-4c" transform="translate(0 0.125)"/>
      <use xlink:href="#DejaVuSans-34" transform="translate(55.712891 -16.28125)scale(0.7)"/>
      <use xlink:href="#DejaVuSans-28" transform="translate(102.983398 0.125)"/>
      <use xlink:href="#DejaVuSans-Oblique-78" transform="translate(141.99707 0.125)"/>
      <use xlink:href="#DejaVuSans-29" transform="translate(201.176758 0.125)"/>
     </g>
    </g>
    <g id="line2d_48">
     <path d="M 617.264543 433.980313 
L 627.264543 433.980313 
L 637.264543 433.980313 
" style="fill: none; stroke: #fde725; stroke-width: 2; stroke-linecap: square"/>
    </g>
    <g id="text_26">
     <!-- $L_5(x)$ -->
     <g transform="translate(645.264543 437.480313)scale(0.1 -0.1)">
      <use xlink:href="#DejaVuSans-Oblique-4c" transform="translate(0 0.125)"/>
      <use xlink:href="#DejaVuSans-35" transform="translate(55.712891 -16.28125)scale(0.7)"/>
      <use xlink:href="#DejaVuSans-28" transform="translate(102.983398 0.125)"/>
      <use xlink:href="#DejaVuSans-Oblique-78" transform="translate(141.99707 0.125)"/>
      <use xlink:href="#DejaVuSans-29" transform="translate(201.176758 0.125)"/>
     </g>
    </g>
   </g>
  </g>
 </g>
 <defs>
  <clipPath id="pac607a0001">
   <rect x="96.535457" y="60.48" width="581.829085" height="388.08"/>
  </clipPath>
 </defs>
</svg>
