<?xml version="1.0" encoding="utf-8" standalone="no"?>
<!DOCTYPE svg PUBLIC "-//W3C//DTD SVG 1.1//EN"
  "http://www.w3.org/Graphics/SVG/1.1/DTD/svg11.dtd">
<svg xmlns:xlink="http://www.w3.org/1999/xlink" width="158.4pt" height="288pt" viewBox="0 0 158.4 288" xmlns="http://www.w3.org/2000/svg" version="1.1">
 <metadata>
  <rdf:RDF xmlns:dc="http://purl.org/dc/elements/1.1/" xmlns:cc="http://creativecommons.org/ns#" xmlns:rdf="http://www.w3.org/1999/02/22-rdf-syntax-ns#">
   <cc:Work>
    <dc:type rdf:resource="http://purl.org/dc/dcmitype/StillImage"/>
    <dc:date>2022-01-26T13:41:09.975636</dc:date>
    <dc:format>image/svg+xml</dc:format>
    <dc:creator>
     <cc:Agent>
      <dc:title>Matplotlib v3.5.0, https://matplotlib.org/</dc:title>
     </cc:Agent>
    </dc:creator>
   </cc:Work>
  </rdf:RDF>
 </metadata>
 <defs>
  <style type="text/css">*{stroke-linejoin: round; stroke-linecap: butt}</style>
 </defs>
 <g id="figure_1">
  <g id="patch_1">
   <path d="M 0 288 
L 158.4 288 
L 158.4 0 
L 0 0 
L 0 288 
z
" style="fill: none"/>
  </g>
  <g id="axes_1">
   <g id="patch_2">
    <path d="M 131.58 221.04 
L 126.54 224.82 
L 126.54 222.3 
L 91.26 222.3 
L 91.26 219.78 
L 126.54 219.78 
L 126.54 217.26 
z
" clip-path="url(#pba5fcf4d5a)" style="fill: #4ec9b0; stroke: #4ec9b0; stroke-linejoin: miter"/>
   </g>
   <g id="patch_3">
    <path d="M 71.1 79.92 
L 66.06 83.7 
L 66.06 81.18 
L 30.78 81.18 
L 30.78 78.66 
L 66.06 78.66 
L 66.06 76.14 
z
" clip-path="url(#pba5fcf4d5a)" style="fill: #252525; stroke: #252525; stroke-linejoin: miter"/>
   </g>
   <g id="patch_4">
    <path d="M 91.26 79.92 
L 96.3 76.14 
L 96.3 78.66 
L 131.58 78.66 
L 131.58 81.18 
L 96.3 81.18 
L 96.3 83.7 
z
" clip-path="url(#pba5fcf4d5a)" style="fill: #252525; stroke: #252525; stroke-linejoin: miter"/>
   </g>
   <g id="line2d_1">
    <path d="M 81.18 246.24 
L 81.18 44.64 
" clip-path="url(#pba5fcf4d5a)" style="fill: none; stroke: #252525; stroke-width: 3; stroke-linecap: square"/>
   </g>
   <g id="text_1">
    <!-- $\mathbf{Q}^L$ -->
    <g style="fill: #569cd6" transform="translate(25.02 156.706875)scale(0.36 -0.36)">
     <defs>
      <path id="DejaVuSans-Bold-51" d="M 2847 -84 
L 2753 -84 
Q 1600 -84 959 553 
Q 319 1191 319 2328 
Q 319 3463 958 4106 
Q 1597 4750 2719 4750 
Q 3853 4750 4486 4112 
Q 5119 3475 5119 2328 
Q 5119 1541 4783 972 
Q 4447 403 3816 116 
L 4756 -934 
L 3609 -934 
L 2847 -84 
z
M 2719 3878 
Q 2169 3878 1866 3472 
Q 1563 3066 1563 2328 
Q 1563 1578 1859 1179 
Q 2156 781 2719 781 
Q 3272 781 3575 1187 
Q 3878 1594 3878 2328 
Q 3878 3066 3575 3472 
Q 3272 3878 2719 3878 
z
" transform="scale(0.015625)"/>
      <path id="DejaVuSans-Oblique-4c" d="M 1075 4666 
L 1709 4666 
L 909 525 
L 3181 525 
L 3078 0 
L 172 0 
L 1075 4666 
z
" transform="scale(0.015625)"/>
     </defs>
     <use xlink:href="#DejaVuSans-Bold-51" transform="translate(0 0.684375)"/>
     <use xlink:href="#DejaVuSans-Oblique-4c" transform="translate(85.966797 38.965625)scale(0.7)"/>
    </g>
   </g>
   <g id="text_2">
    <!-- $\mathbf{Q}^R$ -->
    <g style="fill: #f44747" transform="translate(91.26 156.706875)scale(0.36 -0.36)">
     <defs>
      <path id="DejaVuSans-Oblique-52" d="M 1613 4147 
L 1294 2491 
L 2106 2491 
Q 2584 2491 2879 2755 
Q 3175 3019 3175 3444 
Q 3175 3784 2976 3965 
Q 2778 4147 2406 4147 
L 1613 4147 
z
M 2772 2241 
Q 2972 2194 3105 2009 
Q 3238 1825 3413 1275 
L 3809 0 
L 3144 0 
L 2778 1197 
Q 2638 1659 2453 1815 
Q 2269 1972 1888 1972 
L 1191 1972 
L 806 0 
L 172 0 
L 1081 4666 
L 2503 4666 
Q 3150 4666 3495 4373 
Q 3841 4081 3841 3531 
Q 3841 3044 3547 2687 
Q 3253 2331 2772 2241 
z
" transform="scale(0.015625)"/>
     </defs>
     <use xlink:href="#DejaVuSans-Bold-51" transform="translate(0 0.684375)"/>
     <use xlink:href="#DejaVuSans-Oblique-52" transform="translate(85.966797 38.965625)scale(0.7)"/>
    </g>
   </g>
   <g id="text_3">
    <!-- $\widehat{n}$ -->
    <g style="fill: #4ec9b0" transform="translate(103.74 210.91125)scale(0.24 -0.24)">
     <defs>
      <path id="STIXSizeTwoSym-Regular-302" d="M -1094 3610 
L -1728 3610 
L -4224 4538 
L -6726 3610 
L -7360 3610 
L -4378 4973 
L -4070 4973 
L -1094 3610 
z
" transform="scale(0.015625)"/>
      <path id="DejaVuSans-Oblique-6e" d="M 3566 2113 
L 3156 0 
L 2578 0 
L 2988 2091 
Q 3016 2238 3031 2350 
Q 3047 2463 3047 2528 
Q 3047 2791 2881 2937 
Q 2716 3084 2419 3084 
Q 1956 3084 1622 2776 
Q 1288 2469 1184 1941 
L 800 0 
L 225 0 
L 903 3500 
L 1478 3500 
L 1363 2950 
Q 1603 3253 1940 3418 
Q 2278 3584 2650 3584 
Q 3113 3584 3367 3334 
Q 3622 3084 3622 2631 
Q 3622 2519 3608 2391 
Q 3594 2263 3566 2113 
z
" transform="scale(0.015625)"/>
     </defs>
     <use xlink:href="#STIXSizeTwoSym-Regular-302" transform="translate(82.313477 32.5)scale(0.647343)"/>
     <use xlink:href="#DejaVuSans-Oblique-6e" transform="translate(0 0.65625)"/>
    </g>
   </g>
   <g id="text_4">
    <!-- $w^+$ -->
    <g style="fill: #252525" transform="translate(29.94 69.79125)scale(0.24 -0.24)">
     <defs>
      <path id="DejaVuSans-Oblique-77" d="M 544 3500 
L 1113 3500 
L 1259 684 
L 2566 3500 
L 3231 3500 
L 3425 684 
L 4666 3500 
L 5241 3500 
L 3641 0 
L 2969 0 
L 2797 2900 
L 1459 0 
L 781 0 
L 544 3500 
z
" transform="scale(0.015625)"/>
      <path id="DejaVuSans-2b" d="M 2944 4013 
L 2944 2272 
L 4684 2272 
L 4684 1741 
L 2944 1741 
L 2944 0 
L 2419 0 
L 2419 1741 
L 678 1741 
L 678 2272 
L 2419 2272 
L 2419 4013 
L 2944 4013 
z
" transform="scale(0.015625)"/>
     </defs>
     <use xlink:href="#DejaVuSans-Oblique-77" transform="translate(0 0.826562)"/>
     <use xlink:href="#DejaVuSans-2b" transform="translate(99.890951 39.107812)scale(0.7)"/>
    </g>
   </g>
   <g id="text_5">
    <!-- $w^-$ -->
    <g style="fill: #252525" transform="translate(90.42 69.79125)scale(0.24 -0.24)">
     <defs>
      <path id="DejaVuSans-2212" d="M 678 2272 
L 4684 2272 
L 4684 1741 
L 678 1741 
L 678 2272 
z
" transform="scale(0.015625)"/>
     </defs>
     <use xlink:href="#DejaVuSans-Oblique-77" transform="translate(0 0.86875)"/>
     <use xlink:href="#DejaVuSans-2212" transform="translate(99.890951 39.15)scale(0.7)"/>
    </g>
   </g>
  </g>
 </g>
 <defs>
  <clipPath id="pba5fcf4d5a">
   <rect x="20.7" y="34.56" width="120.96" height="221.76"/>
  </clipPath>
 </defs>
</svg>
