<?xml version="1.0" encoding="utf-8"?>
<!-- Generator: Adobe Illustrator 25.0.1, SVG Export Plug-In . SVG Version: 6.00 Build 0)  -->
<svg version="1.1" id="Capa_1" xmlns="http://www.w3.org/2000/svg" xmlns:xlink="http://www.w3.org/1999/xlink" x="0px" y="0px"
	 viewBox="0 0 512 512" style="enable-background:new 0 0 512 512;" xml:space="preserve">
<style type="text/css">
	.st0{fill:#FFFFFF;}
	.st1{fill:#FFD608;}
	.st2{fill:#FFF2B1;}
	.st3{fill:#591200;}
</style>
<metadata><?xpacket begin="﻿" id="W5M0MpCehiHzreSzNTczkc9d"?>
<x:xmpmeta xmlns:x="adobe:ns:meta/" x:xmptk="Adobe XMP Core 6.0-c002 79.164519, 2020/08/25-17:54:00        ">
   <rdf:RDF xmlns:rdf="http://www.w3.org/1999/02/22-rdf-syntax-ns#">
      <rdf:Description rdf:about=""
            xmlns:xmp="http://ns.adobe.com/xap/1.0/"
            xmlns:xmpGImg="http://ns.adobe.com/xap/1.0/g/img/"
            xmlns:xmpTPg="http://ns.adobe.com/xap/1.0/t/pg/"
            xmlns:stDim="http://ns.adobe.com/xap/1.0/sType/Dimensions#"
            xmlns:xmpG="http://ns.adobe.com/xap/1.0/g/"
            xmlns:dc="http://purl.org/dc/elements/1.1/"
            xmlns:xmpMM="http://ns.adobe.com/xap/1.0/mm/"
            xmlns:stEvt="http://ns.adobe.com/xap/1.0/sType/ResourceEvent#">
         <xmp:CreatorTool>Adobe Illustrator 25.0 (Windows)</xmp:CreatorTool>
         <xmp:CreateDate>2022-03-30T10:36:51-04:00</xmp:CreateDate>
         <xmp:Thumbnails>
            <rdf:Alt>
               <rdf:li rdf:parseType="Resource">
                  <xmpGImg:width>256</xmpGImg:width>
                  <xmpGImg:height>216</xmpGImg:height>
                  <xmpGImg:format>JPEG</xmpGImg:format>
                  <xmpGImg:image>/9j/4AAQSkZJRgABAgEASABIAAD/7QAsUGhvdG9zaG9wIDMuMAA4QklNA+0AAAAAABAASAAAAAEA&#xA;AQBIAAAAAQAB/+4ADkFkb2JlAGTAAAAAAf/bAIQABgQEBAUEBgUFBgkGBQYJCwgGBggLDAoKCwoK&#xA;DBAMDAwMDAwQDA4PEA8ODBMTFBQTExwbGxscHx8fHx8fHx8fHwEHBwcNDA0YEBAYGhURFRofHx8f&#xA;Hx8fHx8fHx8fHx8fHx8fHx8fHx8fHx8fHx8fHx8fHx8fHx8fHx8fHx8fHx8f/8AAEQgA2AEAAwER&#xA;AAIRAQMRAf/EAaIAAAAHAQEBAQEAAAAAAAAAAAQFAwIGAQAHCAkKCwEAAgIDAQEBAQEAAAAAAAAA&#xA;AQACAwQFBgcICQoLEAACAQMDAgQCBgcDBAIGAnMBAgMRBAAFIRIxQVEGE2EicYEUMpGhBxWxQiPB&#xA;UtHhMxZi8CRygvElQzRTkqKyY3PCNUQnk6OzNhdUZHTD0uIIJoMJChgZhJRFRqS0VtNVKBry4/PE&#xA;1OT0ZXWFlaW1xdXl9WZ2hpamtsbW5vY3R1dnd4eXp7fH1+f3OEhYaHiImKi4yNjo+Ck5SVlpeYmZ&#xA;qbnJ2en5KjpKWmp6ipqqusra6voRAAICAQIDBQUEBQYECAMDbQEAAhEDBCESMUEFURNhIgZxgZEy&#xA;obHwFMHR4SNCFVJicvEzJDRDghaSUyWiY7LCB3PSNeJEgxdUkwgJChgZJjZFGidkdFU38qOzwygp&#xA;0+PzhJSktMTU5PRldYWVpbXF1eX1RlZmdoaWprbG1ub2R1dnd4eXp7fH1+f3OEhYaHiImKi4yNjo&#xA;+DlJWWl5iZmpucnZ6fkqOkpaanqKmqq6ytrq+v/aAAwDAQACEQMRAD8A9U4q7FXYq7FXYq7FXYq7&#xA;FUs1/wAzeX/L1kb7W7+HT7bcK8zhSxG/FF+07eygnAZAc2UYGRoB4z5r/wCcrtBtWeDyzpkupODQ&#xA;Xl0fq8PzVAGkYf63DMeWoHRzIaEn6jTyvXv+cifzT1YsqakmmQN/umxiWOnykf1Jf+Hyo5pFyo6S&#xA;A6WwrUPN3mrUmLahrN9dljU+tcyyf8SY+GVmRPVuGOI5BKSa7nrkWbsVdirsVdirsVdirsVdirsV&#xA;diqZaR5l8xaNIsmk6ndWDr0NvNJF3rQhSAR7ZISI5MZQB5h695E/5yi8y6bJHa+a4Rq9jUA3kQWK&#xA;7QeNBxjkp4EKf8rLoagjm4mXRRP07PpXy35m0PzJpMWq6LdpeWU3R02KsOqOp+JGHcHMuMgRYdbO&#xA;BiaKZ4WLsVdirsVdirsVdirsVdirsVdirsVWyyxxRvLK4jijBZ3YgKqgVJJPQDFXgn5mf85OWdi0&#xA;2l+SlS8ulJSTWJRWBSNj6CH+8P8AlH4fZhmNkz9A5+HR3vJ866zruu+YNSa91a8m1G+mNPUlYu25&#xA;2VB+yPBVFMxZSvcuwjERFBlvln8lPOmtKk08K6VaNv6t3VZCP8mEfH/wXHNXqO1sOPYHiPl+tnT0&#xA;vRv+cffKNoA2p3Fxqcg+0vL0Ij/sY/j/AOHzUZe28svpAj9v4+SaZfY/l15FsQBb6HZ7dGliWZh/&#xA;spebZgT12aXOZ+77lpM10DQlUKum2oUCgAhjAAH+xynxp/zj80t/oLQ/+rdbf8iY/wCmPjT7z81d&#xA;+gtD/wCrdbf8iY/6Y+NPvPzVa/l/QXUq+m2rKeqmCMg/8LhGef8AOPzVKtQ/LXyHfgi40O0HLq0K&#xA;egxr/lQ+mcuhr88eUz9/3oph2t/848+WbkM+k3lxp0p6I9LiL5UPF/8Ah8z8PbmQfUBL7Fp5l5n/&#xA;ACe866CrTG1GoWa1JuLOslB1q0dBINuppT3zcaftTDl2vhPmimJ6Zql/pd7He2UnpXERqCVV1Psy&#xA;OGVh7MKZsSLYkW98/Lf86PJeqtFpnmzSbDTr9qLHqKwRi1lPT94CP3THx+z/AKvTMeeMjk42TFIb&#xA;gvaV8veXGUMumWZUioIgiIIP+xyiy43EW/8ADnl7/q12n/IiL/mnGyvEUk1/8q/y/wBdhZL3RLZJ&#xA;GBpcWyC3mBPfnFxJ/wBlUZIZCOrKOSQ6vn/80vyI1TypBJq+kSvqWhJvNyH+kW48ZAuzJ/lj6QOu&#xA;ZEMt7FyseYS2PNjX5X/mVq3kTzAl9bM0umzlU1OwB+GaIdxXYSJWqt9HQnMnHMxKc2ETFdX25pOq&#xA;2Gr6Za6np8wnsryNZreVejI4qPkfEdszwbdLKJBoovCh2KuxV2KuxV2KuxV2KuxV2KoXVNU0/StP&#xA;uNR1G4S1sbVDJPPIaKqj/PYd8BNJjEk0HyJ+b/546t50uJdM0xnsfLKNRYAeMlzxOzz0/Z7iPoO9&#xA;T0wsmUy9ztsGmENz9TE/JP5e+YPNt1wsY/SsozS4v5QREniB/O/+SPpoN81ur12PAPVz7nKp9DeT&#xA;Pyy8seVY0ktYBc6kB8eozgNJUjfgOkY/1fpJzltV2hkzczUe78c2VMtzBS7FXYq7FXYq7FXYq7FX&#xA;Yq7FWE+dvym8s+Z1e4Ef6P1U1IvYFA5N/wAWpsH+ex982Ok7SyYdvqj3fqRT5583eSde8q3/ANV1&#xA;SGkb1+r3cdWhlA7q3j4qdxnU6XVwzRuJ+HVjTOvyi/O7UPK80Oj65I935dYhEc1aW0HSqd2j8U7f&#xA;s+BsyYr3HNoy4eLcc31JaXdreWsV1aypPbToJIZoyGR0YVDKR1BzEcIhWxVa6JIjI6h0cFWVhUEH&#xA;Ygg4q+QPzr8gR+T/ADay2ScdH1JTc2C9o96SQ1/yGO3+SRmZinYc/DPiD1n/AJxR84S3Wl6n5VuZ&#xA;CzWBF5YAmpEMp4yoPBVko3zc5n6eW1OFrsdESe/ZkuA7FXYq7FXYq7FXYq7FXYqtllihieWV1jij&#xA;UvJI5CqqqKkknYADFXx3+eH5wXHnTVm03TJWj8sWLkW6iq/WZF29dx4f77B6DfqdsHLk4j5O302D&#xA;gFn6kr/K/wDK6682XP1295W+hQNSWUbPM4/3XHX/AIZu3zzTdo9ojAKG8z9jlgPpPTtOsdNsobGw&#xA;gS2tIF4xQxiigf1PUnvnJTySmeKRslkicgrsVdirsVdirsVdirsVdirsVdirsVQOtaJpet6dLp2p&#xA;263NpMPijbsezKRurDsRlmLNLHLiiaKvmT8xvy51HyfqP7VxpFwx+p3lPp9OSmwcD7+o7gdhoddH&#xA;PHukOYYkMo/I/wDNyXyzqCaFrMxby9dvSN3NRaSsftivSNifjHb7XjXKy473HNx82K9xzfVAIIBB&#xA;qDuCMxHCbxV47/zk/pkc/kixv+NZrK+VQ9Okc0bhx9LKmXYDu5GnO7zH/nGq/e2/NewgVqC+t7q3&#xA;ceIWIz0++EZsMB9TLWC8ZfY2ZzqHYq7FXYq7FXYq7FXYq7FXgH/OTn5nPZ2o8k6XLxuLpFl1mVTu&#xA;sLbxwVHeT7Tf5NOzHMbPk6Bz9Hhv1F4d+Xfki683a+lktY7GGkt/cD9iOv2R/lP0X7+2ajXasYIX&#xA;/F0dkH1Tp2nWWm2MFhYwrBaWyCOGJOiqP89z3zipzM5GUjZLNE5FXYq7FXYq7FXYq7FXYq7FXYq7&#xA;FXYq7FXYqgNc0TTtb0u40zUYhNaXK8XXuD1DKezKdwcsw5ZY5CUeYV8o+dfKV/5V16fS7qroPjtb&#xA;ilBLCxPFx91COxzttJqY5oCQ+PvYPfv+cdfzHfWNKbytqcvLUNMjDWEjn4pbUbcN+pi2H+rTwODN&#xA;Ct3Dz46Nh7PlLjvLv+ckP/JZzf8AMXb/AKzluH6m7T/U8U/5x4/8nD5f/wCjv/qCnzYYfqDdq/7s&#xA;/jq+0WZUUsxCqoqzHYADucz3TPlz85/+cgtR1O9m0LyfePaaTA3GfVLdiktyw6iNxRkjB7qat8ts&#xA;w8ua9g7PT6UAXLmlv5Rfn9rXl3Ul0/zPdz6loFwwDTzM009qx/3YjNV2T+ZPpXfYjHmI58mWfSiQ&#xA;uOxfWNneWt7aw3dpMlxa3CLJBPGwZHRhVWVhsQRmaC6silXFDsVdirsVSrzV5isvLflzUNcvf959&#xA;PhaZlrQuw2RAT3dyFHucEpULZQgZEAPgvWtX1LXtau9UvXM9/qEzSykVNXc7Ko32HRR4bZrZSvcu&#xA;9jEAUH1B+Wvk2Lyr5YgtGUfpC4An1CTuZWH2K+EY+Eff3ziNfqjmyE/wjk2BleYSXYq7FXYq7FXY&#xA;q7FXYq7FXYq7FXYq7FXYq7FXYqwb83PJK+ZvLEklvHy1bTg09kQPiYAVki/2ajb/ACgM2PZmr8HJ&#xA;v9Muf60F85eV/MN95d8wWOtWRpcWUqyBa0Dr0eM+zqSpzsZCxTXKNin3Fo+q2er6VZ6pZNztL2FJ&#xA;4W78ZFDAHwIrQjMEinXEUaYt+b/lDUvNfka70vTOJvw8c9vG5CiQxNUpyOwJBNK7VyWOVFnikIys&#xA;vMfyE/J3zrpnnm28x63ZNptlpqTemsrIXmklieDiqqWPFQ5Ysfalc2ungSeLonVZ4mPCOaZ/85I/&#xA;m56CS+SNDm/fOKa5cofsqRUWykd2G8nt8PdgJ58nQMdJg/iPweH+RfJeo+bdbTT7X93bpR726I+G&#xA;KKu592PRR4+1c1Ws1ccEOI8+gdiEd+ZP5eXnk/VeClp9JuSTY3TddusclABzX8Rv7CrQa4Z490hz&#xA;CSHo/wDzjd+bEum6jF5M1iYtpt69NJlc19G4Y/3O/wCxKeng3+sc3GDJWxcDV4LHEOb6hzLdY7FX&#xA;Yq7FXgP/ADlh5ra30nSvK8D0e9c3t4B/vqH4YlPszkn/AGOY2oltTn6GG5k8m/JDywus+co7qdOV&#xA;ppK/WnqNjLWkK/Pl8f8Asc0Ha+o8PDQ5y2/W7MPpnOQZOxVJPNvm7R/K2lNqOpyEKTwggQVklkpU&#xA;Ig+jqdhmRptLPNLhih4Rr/58edb+dv0c8elWvRI4kWWSn+VJIG3/ANUDOlw9jYYj1eootAad+dX5&#xA;h2c4kfUVvI/2oLiKMofpRUcfQ2WT7JwSHKvcVt7P+XX5q6V5uU2kqCx1mNeT2paqyAdWhY7mndTu&#xA;Pfrmg13ZssG43h3/AK0gs6zWpdirsVdirsVdirsVdirsVdirsVdir5Y/NzywNA863ccKcLO+/wBM&#xA;tQOgWUnmo8OMgYAeFM7PszUeLhF8xsWJe1f84yeaGv8AyreaDM1ZtIm5wV/5Z7mrAD/VkV/vGXZ4&#xA;724WojRt7LlLjsB/OX837byRoK6fpzrJ5mvoz9Vj6iCNiR9YcdO1EB6n2BzbYsnDiHejFg45Wfpf&#xA;JNjY6rrurx2tur3epX0ppUlmd3NWZmP0lmPzzGy5RCJlI7B2oD6p8h+S7HyloMenwUkuXpJfXNN5&#xA;ZSN/9ivRR4e9c4rWauWefEeXRkjPNXlrT/Mmh3Ok3y/u5lrHIB8Ucg+xIvup+8bZXptRLFMTir5J&#xA;1XTL/RdXuNPugYb2ylKOVJFGU7Mp22PVTnc4sonESjyLF9p/k356PnPyNZ6jOwbU7atpqQ8Z4gPj&#xA;/wCeiFX+ZI7Zs8U+IOl1GLglXRnGWNDD/Mv5vflz5bne21TW4Vu4yVe2gD3EisOqusKvwP8ArUyE&#xA;skRzLdDBOXIJB/0Mj+Uv/Vzm/wCkW4/5oyHjxZ/lMnc+bvzn862fnDz7earYSNLpiRxW9gzqUPpx&#xA;oC3wtQisjOcxcsuKVux0+PghR5vVfyA0RbLybJqLLSbVLhnDeMUP7tB9Dhz9Och21l4s3D/NH3/g&#xA;OSHpuadLsVfL35yeZbjWvO15AWP1TSmazto67AxmkrU8WkB+gDwzsuytOMeEHrLf9TEs2/JP8grP&#xA;zXpK+Y/Mc0selyuy2NlAQjzCM8WkdyDxTkCoC7mnUd9ziw2LLg6jVcBoc2a+ef8AnF7yzPpE0/lJ&#xA;prLVYVLw2ssplhmIFfTJf4kZuzcqeI7iyenFbNOPWyv1cnzPp2oaho+qw3tqzW99ZSh0J2Kuh3DD&#xA;w7EZgZMYnExlyLs32Fo2pRappFlqUQpFewR3CL1oJEDUPyrnB5cZhMxPQ0zRmVq7FXYq7FXYq7FX&#xA;Yq7FXYq7FXYq8k/5yJ0VZ9A0/V0X97ZTmGQj/fc61qfk6D783nYeWpmHePuQWF/849+YotG/MOKO&#xA;5mWC01G2mt5pJGCxrxX1lZiaAbxU+nOizC4uPnjcXqv5i/8AORGgaRDLY+V3TVdUNV+tje0iPjyF&#xA;PVPhx+H37ZVDCTzaceAnm+bbu71nXtXa4uZJtQ1S+kALGrySO2yqB+AA+QzIJERZ2AcsCtg+ivyo&#xA;/LKLyrZG/wBQVZNeulpIRRhBGd/SQ9z/ADsPkNtzyXaXaHjHhj9A+3zZgPQs1aXYq8L/AOciPLKx&#xA;XNh5jgSguP8ARLwgftqC0TH3Khh/sRnSdh6iwcZ6bj9LEqv/ADiv5oNh50utBlelvrNuWiT/AJeL&#xA;YGRafOL1K/IZ0+nlRpwdbC433Mk/5yI/Oa/tL2Xyb5cuTbtGoGsXsRIk5OKi3jcfZ+E1cjf9nxyW&#xA;bL0DXpNOCOIvn/SNC1nWro22l2c17ON2WJS3EHux6KPc5g5c0MYuRAdiyD/lUf5jf9WSX/g4f+a8&#xA;xf5T0/8AO+9NKkH5PfmNNMkf6IaPkaGSSWFVX3J55E9qacD6vvWn0l5W0RdC8u6dpAYObOBI5HXY&#xA;M9Kuwr2LEnOS1ObxMhn3lkmuUq7FXyF57sprPzprlvMCHF7O4LdSskhdG/2SsDndaOYlhiR/NDAv&#xA;rP8A5x/8zaZrP5a6Za2zqLvSU+qXtuD8SMhPBiPCRaNXxr4ZuMMri6fVQImfNnurarp+kabc6nqM&#xA;621jaRmWeZzQKq/xPQDucsJpx4xJNB8Aa7qCalreoaiiGNL25muFjPVRLIXC7eFc1pNl30RQAfV/&#xA;kW0mtPJmiW868Zo7KASKeoJjBIPuM4TWSEs0iP5xbE9zGS7FXYq7FXYq7FXYq7FXYq7FXYqxf8zt&#xA;Kk1TyHrFpFGZJfQ9aNAKsWgYS0Wnf4MzOz8nBniT3/fsgvk3O3Ysj8sfl75s8ySoNOsXFs3W9mBj&#xA;gUePMj4vktTmJqNdixD1Hfu6rT3/APL78qtF8pILpiL7WWWj3rrQJXqsK78R2r1Py2zmNb2jPPty&#xA;h3frZAM4zXJdirsVYh+bOlLqX5f6xGRV7eL63Ge4NuRIxH+wVhmd2bk4M8fM180F86/l7q76P560&#xA;HUlbiLe+gMprT920gWQV90YjO4gaIacsbiR5JTq+pXGqarealcktcXs8lxMSannKxc7/ADORJss4&#xA;ihTJ/K35q+YvLGmDT9Kt7JIuReSR4maSRj3dg4rQbD2zX6js7HmlxSMvmytOP+hgPPf8ll/yJf8A&#xA;6qZj/wAi4P6Xz/Ytr4f+cg/O6yo0kNlJGCC6ek61HcVD7YD2JhrnJbe/aFq0WsaLY6pEhjjvYI51&#xA;jbcrzUNxJ9s5jNiOOZiehZI/K1diryH86/yzu9Vb/EmjRGa9jQJf2qCryomyyIB9plGxHcUp0ze9&#xA;k9oCH7ufLoUEPE9G17XNBvvrmkXs+n3i/CZYHaNiO6tTqPY504kRya5REhRTDzJ+YHnTzMixa7rF&#xA;xfQIeSwO3GIMBQN6aBUr70wymTzYwxRjyDIvyp/LO98yanDqN9C0eg2zh5JHFBcMh/ukr1BP2j4b&#xA;dc1PaXaAxRMYn1n7PNtAfTHTOQZOxV2KuxV2KuxV2KuxV2KuxV2KuxV2KpWnlfyyly10mkWS3THk&#xA;04t4hIWPcsFrXLjqMlVxSr3lU06ZSrsVdirsVdiqX+Yo1k8v6nG26vaTqw9jGwy3AanH3hXxsjvG&#xA;6uh4uhDKR2I3Gd8wTvzv5auPLPmzVNDnUqbK4dIif2oSeUT/AOzjKtkpxo0wxz4ogsj8geVPy88w&#xA;2vo6rrM+maupIMLvCkUgJ+ExM69fFSa5qtbqc+I3GIlH4/a2BnX/ACoPySf+l5cf8HB/zTmt/lrN&#xA;/NH2ppWtfyC8j/WI+WrXM613hEkILe1QlfuyMu2s1fSB81p6raWltZ2sNpbRiK2t0WKGJeiog4qo&#xA;+QGaWUjIknmUq2RV2KuxVjmu/l55L12Vp9S0qKS4fdriPlDIx8WeIoW/2Vcy8OuzYxUZGvmikBpv&#xA;5Qfl5YSiaPSEmkU1BuHkmX/gHZkP0rlmTtTPIVxfLZaZhHHHFGscahI0AVEUAAAdAAMwCbSuxV2K&#xA;uxV2KuxV2KuxV2KuxV2KuxV2KqN3d21nazXdzIIra3RpZpW6KiDkzH5AZKMTIgDmVecp/wA5BeRW&#xA;uDEYr5IwSPrBhj4EA9aCQvT/AGObU9iZqv0/P9iLZl5f85eV/MC10jUYrl6VMIJSUDxMT8XH3ZgZ&#xA;tLkxfXEhU6zHS7FXYq7FUr81XKWvljV7l/sw2Vw5r/kxMaZdpo8WSI/pD71fH1pbvc3UNtH/AHk7&#xA;rGnfdyFH6874NZNPsP8AOn8mLbz3ax6hp7paeY7NOEMr7Rzx1qIpSKkUJJVqbdD7ZuXFxe91Gn1H&#xA;BseT5R8yeTPNXlq5a31zTJ7FlNBJIh9Jt6VSUVRx/qnMOUSObtYZIy5FJcizbR3R1dGKupBVgaEE&#xA;bggjEhX1r+XOty615J0nUJ5DLcPD6dxI27NJExjZm9yUrnD67EMeaURytkGSZiJdirsVdirsVdir&#xA;sVdirsVdirsVdirsVdirsVdirsVdirCvzj1IWP5eaoa0kuRHbRjpUyyAMP8AgOWbDsvHxZ4+W6C+&#xA;ZdJ0nUtX1CLTtNt2ur2fl6MEe7NwUu1K/wCSpOdmTTAmubpoNV0jUPTmjn0/UbVgeLh4Zo3G4NDx&#xA;ZTgIEhR3CgvY/wAtfzvd5ItI81yj4qJb6saL8hcdv9n/AMF45z2v7I/jxf6X9X6mQL2sEMAQag7g&#xA;joRnPMm8VdirAvzt1pdN8g3kQNJtReO0i33ox5v/AMk0YfTmz7JxcecH+bugvEvyg0RtZ/Mvy9Zh&#xA;SyLeJcyjt6dr+/avsRHTO0xi5Bx88qgS+6M2DpHEAggioOxBxVD/AKN07/llh/5Fr/TBSbL5F/5y&#xA;V8tjSPzIlu4Y/TtdXt4rmPiKIHQejIop7xhj/rZhZ41J22jncPcyb/nHbXVm0bUdEkb95ZzC4hUn&#xA;f05hRgB4K6V/2Wcn25hqYn3ivk5gevZokuxV2KuxV2KuxV2KuxV2KuxV2KuxV2KuxV2KuxV2KuxV&#xA;4n/zkZro4aVoUbbkte3C+FKxxfrfOh7Cw/VP4fr/AEMSgf8AnGXQGvfO1zq7rWHSbZuL06TXP7tR&#xA;9MfqZvM52px9RL009888fl75a85ac1rq1uPrCqRa38YAnhPbi3da9VOxzHjMx5OLCZjyfJX5gfl9&#xA;rnknWTYaknO3lq9hfKCI54waVXwYftL2+VCc4bgHvc3HkEhs9D/JX80HWSHytrU1Y2pHpNy53B6C&#xA;3Y+B/Y/4Hwzn+1uz+eWA/rfr/W2gvcM5xk7FXzl+fHmxdV8zJpNs4a00cNG5HQ3D09X/AICgX51z&#xA;q+xtNwY+M85fcxLOf+cT/KLvd6r5snSkUS/o+xJ7u1JJmH+qoQV9znRaePV12uycovpLMp1zsVdi&#xA;rx3/AJye8oNrHkeLWrdOV3oMplegqTbTUSX/AIFgjfIHKM8bF9zmaPJUq73zn+WfmkeWvOFnfStx&#xA;spSba9Pb0ZSAWP8AqMFf6M0vaGm8bEYjnzHvdsH1eCCAQag9DnEsm8VdirsVdirsVdirsVdirsVd&#xA;irsVdirsVdirsVdiqyaaKGF5pnEcUSl5JGNFVVFSST2AwgEmgr5F88eZH8x+ab/ViT6M0nG2U7cY&#xA;U+GMU7HiKn3zudHg8LEI/i2BfTP/ADj95UOheQILqdON5rL/AF2SooRERxgX5cBz/wBlkc0rLg55&#xA;XJ6YSAKnplTSkvmzyl5Z/MHynNpM80U3Gptr2Fkle2uBXi44n/glruNs3OCAliALUMksc7fFnmfy&#xA;3q/ljXrrRtUj9G+s34sVrxYdUkQ7VVh8SnKJRo0XbQmJCw9//J/8xx5l0z9GajLXXLJBzZjvPENh&#xA;KP8AKHR/v75x/amg8GXFH6D9jaCmf5oefoPKehMYXVtYvA0dhDsSp6GZh/Kn4nbxyrs/RHPPf6Bz&#xA;/UpL5o0jStU8wa3babZI1zqOozCOMGpLO53ZjvsPtMew3ztIx6BrlIAWX3b5K8q2XlXyvp+g2dDH&#xA;ZRBXlpQySt8Ukh/13JObGMaFOjyTMpElO8kwdirsVUb2ztr2zns7qMS21zG8M8TdGjkUqyn5g4kJ&#xA;Brd8JfmN5Lu/J3m+/wBDnDGGJzJZTN/u22ckxP8AOmzf5QIzXTjwmneYsnHG3tX5I+el1vQhot5J&#xA;XVNLQKvI/FLbDZH36lPst9HjnIdr6Pw58Y+mX3twL0vNQl2KuxV2KuxV2KuxV2KuxV2KuxV2KuxV&#xA;2KuxV2KvJPz389LY6b/hiyf/AEy+UNfMv+67euyfOSn/AAPzzedjaPil4kuQ5e/9iCXlv5XeSJvO&#xA;Pm+00sgixjP1jUpB+zbxkchXxckIPc1zpJy4Q05J8It9pxxpHGscahEQBUUbAACgAzCde83/AOch&#xA;L+8s/wAs7z6rM0JuJoYJihoWidviSo7NSh8RtlmEepuwD1PF/wDnG3VL60/NfTbSCUpb6jHcw3cY&#xA;PwukdvJMtR7PGCM2WA+ps1cQcZe8/nl+U0fnbQxe6cir5k01CbRth68fVrdm9+qE9G8AScyMuPiH&#xA;m4Omz8Bo8i+RLC+1bQtXS6tmez1KxkNKji6OpKsrKfpDKflmuy4oziYyGxdwCq+YfMWreYtWl1PU&#xA;5TNdS7ADZUQfZRF7KK9P45HBgjijwxGyvpz/AJx6/KB/LViPM2uQ8ddvo6Wtu4+K1t3Fdx2kkH2u&#xA;6jb+bNlhx1uebqtVn4jwjk9py9w3Yq7FXYq7FXl/58/lcfOflsXmnR8vMGkhpLMDrPEd5IPmaVT/&#xA;ACtv2jlObHxDzcnTZuCVHkXyRoet6n5f1mDUrFzDeWj14sDQ9mRxt8LDYjNZmwxyRMZci7h9VeS/&#xA;OWlea9GTULFgsgot3ak1eGTurdKg/st3GcVq9LLDPhl8D3sk/wAxkuxV2KuxV2KuxV2KuxV2KuxV&#xA;2KuxV2KuxVi35g+e9P8AKGjNdS0lv5qpYWld3en2mpvwX9o/R1OZmi0cs86H09Sgl8tXl3qetatJ&#xA;czs93qN9LU0BZ3kc0Cqo+5QPkM7THCMIiI2AYl9c/k7+XKeS/LIjuVU61f8AGbUpAa8SB8EII7Rg&#xA;/SxPamY2SfEXAy5OI+TPcranlv8AzkgQPy0lqet5bgfectw/U3af6niv/OPH/k4fL/8A0d/9QU+b&#xA;DD9QbtX/AHZ/HV9pZnumeRfnB+QVj5ynOs6JLFp3mAgCcyAiC5A2Bk4BmVwP2wDXoR3FGTDxbjm5&#xA;eDVGGx3CW/lL/wA45w+W9Qj1zzRLBqGpwHlZWkPJ7eFhuJGLqheQdvhovXc0IGPBW5ZZ9XxCo8nt&#xA;+ZDhOxV2KuxV2KuxV2Kvnf8A5yD/ACTeZrjzl5aty0prJrNhGNz3a5jUd/8AfgH+t45i5sXUOw0u&#xA;o/hl8HhPlLzdrHlfVU1DTJaHZZ4G3jlStSjj9R6jtmt1Omhmjwy/sdi+m/JPn3Q/Nth69i/p3cYH&#xA;1qxcj1Iif+JLXow/A7Zx+r0U8Eqly6FlbJcxEuxV2KuxV2KuxV2KuxV2KuxV2KuxViHn78ydF8o2&#xA;hWRhc6tItbbT0Pxb9HkP7Cfie2Z2i0E8522j3oJfM/mLzFq3mLVpdT1OX1bmXZVGyIo+yka78VH+&#xA;e+dfgwRxR4YjZi+gPyI/Jx9JWLzV5hg46m6102ykG8CMP72QHpIw6D9kdfi+zDLkvYOJmy3sHt+U&#xA;OM7FXh3/ADlLr0MWhaToSsDPdXBvJFHURwoyLX2Zpdv9XL8A3tydNHclhv8Azi7pUl3+ZRvQD6em&#xA;2U0rN25ScYVX6RIT9GbDTj1LrZVCu99c5mupdirsVdirsVdirsVdirsVdirsVeA/nJ/zjsmoPP5g&#xA;8mQrFetV7zR1oiSnqXt+gV/FOh7UPXGy4b3Dn6fV1tJ85W9zrGh6oJYWm0/U7Ryp+1FLG42ZWBoR&#xA;4EHMLJjEhwyFh2QL2jyV+f1rMsdn5qj9CXZRqUKkxt7yRipU+61HsM53V9ikb4t/Jlb1zT9S0/Ub&#xA;VbuwuYru2f7M0Lq6H2qpO+aOeOUDUhRSicgrsVdirsVdirsVdirsVQWra1pOkWpu9Tu4rO3X/dkr&#xA;BakdlB3Y+w3yzHilM1EWVeOedvz/AGdZLLypEUBqp1Odd/nFEenzf/gc32k7F65fl+ssbeQqmra1&#xA;qgVRNqGp3smwHKWaWRvvZjm/jERFDYBBL6O/KL8hoNDaHXfNCJcawtHtbDZ4rZtiGYjZ5R/wK+53&#xA;GPky3sHDy5r2D2jKXHdiqXeYPMGk+X9IuNW1WcW9lbLydz1J7Ig/aZjsBhAJNJjEk0Hxh5+85Xvn&#xA;DzPda1dAxpJSO0t61EUCfYT8an3JzNhGhTsIQ4RT6Z/5xr8iy+XvJbaveRmPUNfKT8WFCtqgPoA/&#xA;63Jn+TDM/BChfe6zWZeKVDo9dy9xHYq7FXYq7FXYq7FXYq7FXYq7FXYqwf8AMT8n/KHniIy38Jtd&#xA;WC8YtVtwFmFBQLIOkijwbfwIyueISb8WolDlyfM3nr8hvPnlQyTrbHVtLWpF9ZKzlVHeWL7ae53X&#xA;/KzEnhkHZYtVCXkWDaTrmsaPcfWNLvZrKb9poXZOQHZgNmHscxsuGGQVIAuQ9B0X/nIHzfZqseow&#xA;2+poOrsvoyn/AGUfwf8ACZq8vYmKX0kx+38fNNsvsf8AnI3y7Io+v6Vd27d/RaOYfexh/VmBPsLI&#xA;PpkD9n602msf5+eQWWrNdxn+Vod/+FYjKT2Ln8vmtrv+V8/l/wD79uf+RB/rg/kbP5fNbd/yvn8v&#xA;/wDftz/yIP8AXH+Rs/l81tbJ+fnkFFqpu5DWnFYRX5/Ey4R2Ln8vmtpPf/8AOR2hoD+j9Iupz29d&#xA;44P+Ietl8Owp/wAUgPdv+pbYdrX5+edb4NHYrb6ZGagNEnqS0P8Alycl+5Rmfi7Fwx+q5It5/qWq&#xA;6nqdybnUbuW8uD1lmdnangCxNB7ZtMeOMBURQQu0m2064vUj1G8+o2fWWcRtMwH+Si0qfmQMmUF7&#xA;x5F/MH8iPJlvTTEu5L5l4z6jPb8p3r1ANaIv+StPeuY8oTk404TlzZb/ANDIfln/AL+u/wDpHP8A&#xA;XIeDJr/Lyd/0Mh+Wf+/rv/pHP9cfBkv5eSQa9/zlJ5fhiZNC0q5vJ+iyXZSCIHxohldvl8OSGA9W&#xA;cdOerxDzp+YHmfzjfC61q55pGT9XtIxwgiB/kSp3/wApiT75fGAjyciEBHk9F/I38jrzzFeW/mLz&#xA;DbmHy7CRJbW8go14woV+Ej+58W/a6DuRlYsV7nk42p1IiKHN9YKqqoVQAoFABsABmY6p2KuxV2Ku&#xA;xV2KuxV2KuxV2KuxV2KuxV2KuxViHmr8pfy+80M8uq6PD9bkqWvbesE5Y/tM8fHmf9euQljiebdD&#xA;POPIvKtd/wCcSLB2Z9B1+WAfswXsSy/8lYjHT/gDlJ03cXKjrj1DCtQ/5xb/ADLtifqz2F8v7Poz&#xA;shP0SpGK/TlZ08m4a2B70ok/5x2/OBXKroQcDo63dnQ/8FMD+GR8GXcy/N4+9b/0Lx+cP/Uv/wDT&#xA;3Zf9V8fBl3J/N4+/73f9C8fnD/1L/wD092X/AFXx8GXcv5vH3/e7/oXj84f+pf8A+nuy/wCq+Pgy&#xA;7l/N4+/73f8AQvH5w/8AUv8A/T3Zf9V8fBl3L+bx9/3u/wChePzh/wCpf/6e7L/qvj4Mu5fzePv+&#xA;93/QvH5w/wDUv/8AT3Zf9V8fBl3L+bx9/wB7v+hePzh/6l//AKe7L/qvj4Mu5fzePv8Avd/0Lx+c&#xA;P/Uv/wDT3Zf9V8fBl3L+bx9/3u/6F4/OH/qX/wDp7sv+q+Pgy7l/N4+/73f9C8fnD/1L/wD092X/&#xA;AFXx8GXcv5vH3/em2kf84wfmbeuv11LTS0/aM84kYD2EAlBP05IYJMJayA5bvXfIn/ONXk3y/LFe&#xA;6y7a9qEdGVZlCWiMN6iGrc/9mxH+Tl0MAHPdxMuslLYbPX1VVUKoAUCgA2AAy9xHYq7FXYq7FXYq&#xA;7FXYq7FXYq7FXYq7FXYq7FXYq7FXYq7FXYq7FXYq7FXYq7FXYq7FXYq7FXYq7FXYq7FXYq7FXYq7&#xA;FXYq7FXYq7FXYq7FXYq7FXYq7FXYq7FXYq7FXYq7FXYq7FXYq7FXYq7FXYq7FXYq7FXYq7FXYq7F&#xA;XYq7FXYq7FXYq7FVC7vrW0VWnfiGNFFCSafLMTV63FpwDkNW2Y8Up/Shf8QaX/vw/wDAt/TMH+Xt&#xA;L/OPyLd+TydyMtru3uU5wOHUbGnUfMHfNjp9VjzR4sZsNE8coGiFiX9o901qslZ16rQ9uu/TIQ12&#xA;KWU4hL1joyOGQjxVsiMy2p2KuxV2KuxVxNNz0xVD2moWt20iwPyMZ+LYjr3GYel1+LOSIG+FtyYZ&#xA;Qq+qIzManYq7FUPBf2k8zwxScpI/tCh7GmxzEwa7FlmYQNyjzbZ4ZRAJGxRGZbUhl1G0a8NoHrOO&#xA;1DSoFSK5hR7QwnN4IPrbTglw8XRE5mtTsVdirsVdirsVWTzxQRNLK3GNftN/tZVmzQxRM5mohlCB&#xA;kaHNA/4g0v8A34f+Bb+mav8Al7S/zj8i5H5PJ3Iiz1Kzu2ZYH5MoqQQRt9OZmk7Rw6gkYzZDXkwS&#xA;hzCJzNaXYqo3d5BaRerM3Fa0Hck+2Y2q1ePBDimaDZjxymaCpFKksSyxmqOAyn2OW4ssckRKPIsJ&#xA;RINFdliHYqgdYgs2tGmuU5eiCU3I3OwG3ic1Xa2HDLEZ5BfANnI005iVR6sYsjYj1DdhmHH92q92&#xA;8a5xOjOAcRy2dtgO92+Xj24UfoUrW0F5dN/dooAr0L9hm17EynDjy5T9IHzPT8ebjauPHKMeqv5a&#xA;t2eSa8k3J+FSe5O7HMr2d05lKWaXu/SWvXToCAT/ADrHWuxV2KuxV2Kpfrl39XsHANHl/dr9PU/d&#xA;mo7a1Xg6c19Uth+n7HJ0mPin7lLy7aejZeqwo855f7EbL/XKfZ/S+Hg4zznv8OjPW5OKddya5vXD&#xA;diqF1S7+q2MkoNHpxT/WOw+7rmB2nqvAwSl15D3n8W3afHxzAS/yzacIJLlhvIeKf6o6/ec1Ps5p&#xA;eGByn+LYe4ft+5ydfksiPcmt3cLb20k7dEWtPE9h9+b3VagYccpn+EOHjhxSASTy3btLPNeybkEq&#xA;pPdm3Y5zXs9gM8ks0vd8Tz/Hm7DXToCAZBnWusUbi8trcoJpAhkNErmNqNXiwkCZri5NkMUpXQ5K&#xA;2ZLW7FXYq7FUh8z3R/dWi9T8bj8FH685T2k1P04h7z+j9LsdBj5yRFt5esRBH6yFpeI5nkRv36Zm&#xA;6fsDAMY4xc633PNrnrZ2aOynectJMa2FsCJf7xjycmnRevvlGrvQGI0+O+Lmdz8GWP8AfXxnkmlx&#xA;eQW0SyXDempoN6nc9tq5vM+rx4YCWQ8IP46OJDHKRqO6qrKyhlNVYVB9jmRGQIsciwIpj2uSNd6l&#xA;FZRn7BAP+s3X7hnIdtZDqNTHBHp95/UP0uz0kRDGZlkEUaxRpGgoqAKo9gKZ1uPGIRERyAp1kpWb&#xA;KE1TU47GEMRylfaNP4n2zA7T7RjpYXzkeQ/HRu0+A5D5JGi63qdXDMIieteCfQO+cxCOu1vqBPD7&#xA;+GP7ftdiThxbdftU9QW6tIFsppvULESFQSQoGwG+U6+OXBAYJy4ifVXOu78e5lhMZnjAronNnoNi&#xA;tvH68XKbiC5LN1PagNNs6LSdh4Bjjxxudb7n9bg5NZPiNHZB+YZUjSGwgUKv22RRT2UbZr+38kYR&#xA;hp8Yoc6H2N2iiSTOTeoTyadZW9hbnjM61kcddzvT5nDr88tJghp8e0yNz+r3lcMBlmZy5IC8s7nT&#xA;RGxnImmB5qhIIHue/XNXq9Jl0YieP1zuwP19XIxZI5b22CPuru5sNHtoQx+sTAkseqr1+/4gM2up&#xA;1WTS6PHC/wB5Pr3Dn+kBx8eOOTKT0CDk03UbYW9yjM80u/wVLKdiATmtydn6nDwZIkmc+67Hvb45&#xA;8crieQVtd1Kdrj6qrlI0oJCvdiKn6BmV232jM5PCB4Yx511P6h3NekwAR4uqho8kkepxx2zs8TH4&#xA;6jjVabkip6Zi9k5JR1UY4yTE8+m3u35NmpAOMmQ3V9ZeS+1RLOLfh8A8OR3Y/RmT2vOWp1Qww/h2&#xA;+PX5foa9KBjxmRQ8ME9trMcEUvqOjqpcVAptUEewzExYZ4dbHHCXERIC/v8AsbZTEsRJFbI/Wb26&#xA;mvV062YrWgcg0qWFdz4AZte19ZlyZxp8Rrv87/RTjaXFGMOOSBnhutIuomWXkzDkwFQDvuD45q8+&#xA;HL2fliRKyd/1hyISjnidkX5hme4vIbGLcgio/wAt+n3DM/t7McuaOCPT7z+z72nRxEYmZXarcSwe&#xA;hpdoSp4qrEbEk7AfxOT7Uzzx8Glw7bD+z9JRp4CV5JJdqNlJYusHrGQyqGkQAgVrt33zUdoaOWmI&#xA;x8XEZCyPxzcrBlGQXVUmF/PJpun29nCeEzrylcdRXrT6c22uzy0enhhhtOQsn8ef3ONhgMszM8ko&#xA;WRo5I5LeVzOftbUIbwBqeWc/HIYyjLHKXH+n57uaYggiQFI7WTNPfP6oMccCAVpUdK7fNjmz7XM8&#xA;uc8fpjCP4+ZLj6WowFbklvR9LurnjcGUxRKw4nerUO9N8l2T2ZlzVk4jGIPzpGp1EYemrLKM7h1C&#xA;S6przRym2sxylB4tJ1ofBR3Oc12n24YS8PDvLlfn3Bz9PpLHFLkhf0dr1wpkmmMa0qQ7kCnXotaZ&#xA;g/kNflHFOfCPORH2Dk3eNhjsBfwQFlZXV/OyxsCyjkXcmmxp1oTmq0ejy6qZETuOptycuWOMWWS6&#xA;TY3FpE4nl9RnINASQKeFc7PsvRZNPEjJLiJ99D5up1GWMyOEUllrcTX2veojkQxEkAHbgu3/AAxz&#xA;S6bPPVa/iiTwR+4frcvJAY8NHmVmvm5uL4wojGOBC3TbpyZv4ZX26cuXPwAHhhG/ssn9DLR8MYWT&#xA;uSj9L1RG0tpJPtWq0f3AHw/fm27M7TjLSmUueMb/AKPn97jajTkZKH8SSQWk93Hc3rSCNY+TMx/a&#xA;Y7kDOZw6WeeOTOZcIjZvvPc7CeQQMYVdpn5WMxScEn0Rx4g/zb1pm69mTOp/zNvm4mvqx3oPX256&#xA;qEc0RQi18Adz+vNf27Li1fDLkAA3aMVjsMlLQ28FSQkMS/QAM7Myhhx39MIj7HVUZS8yxuxVtS1k&#xA;zuP3an1CD2C7KucboonWaw5D9IPF8B9I/Hm7XKfCxUObKM7h1DHtQ0vVW1JrmFQ/xBo2qu1KU2bw&#xA;zkNf2bq5ak5YC97B26eRdnhz4xj4S3faTqtxHBOxD3aDi4BC7BiVp0HfJa3svVZYwyEiWUbHkOtj&#xA;yRi1GOJMf4VC40nXJ2E8wEkvTiWWoA9vs0zFz9l67KROY4pe8f2NsNRhjsNgibnS9UvLNWuGU3Ub&#xA;HgvwiqkDaq7VqMzdT2ZqtRhByEHLEmhtyNd2zTj1GOEvT9JWRReaI1WNdlFAKmI0A+dTleLH2pEC&#xA;I2H+Yf1spS053/W6+0bUTcC5h4ySMAZB8I+OlG2bahwa3sfU+IMsKlIgXy51vz2pcWqx8PCdgvtI&#xA;PMKTL8KRpUc/hiAI8PgFcs0uDtGMxtGI67Q/3u7HJPAR1Pz/AEquiaZcw3Et1drSVqhQSCak1Zts&#xA;yOxuzcuPJLLlHqPL48yx1WeMoiMeSCXS9cgvGmhUGQk/vaoQeXU0bNbHszXY8xnAeqz6vT197edR&#xA;hlGjy7t1a90jUzPHdwsHuCqmTiQtHAoSK0GZGs7K1JyRzQN5KF1Q9QHya8Wpx0Yn6f0N2uj6hPeL&#xA;cagdlIPEkEmm4G2wGHS9kajLmGTUHl53fltsAuTUwjHhgpTaXrKai9zCoZi7MklU6H2b2ynN2brI&#xA;6g5ICzxEg+nr5HyZx1GIwET+lUvdK1VpYbqMh7kKvqEECjr33oMt1nZeqlOOWNSyUL5DcfYwxajG&#xA;AYn6VCXSdceVbpgHnqDTktQR02Pw5i5OytdKQyn1TvvG1f7FsjqMIHCOSIvNJ1O6t4pZWVrpKhl2&#xA;Hwk7bjaozM1nZWqz44ymQcovu5dOWzXi1OOEiB9KnFa+YkYFI0Qjo3GCo+kCuUY9L2jEjhjEedY2&#xA;UsmA8z/ukz1GyubvTVhLA3A4s3YFgN83naGiyZ9MIEjxBR8ieriYcsYZL/hS+ytvMcPpwrSOBTvy&#xA;MbACtT4tmo0en7Rx8MB6YDv4T+suTlnglZ5n4p3eSNHaTyL9pI2ZfmFJzpdXMwxTkOYiT9jgYxcg&#xA;PNIPLMUT3Usj7yRqOFffqc5T2bxRlllI/VEbfHmfx3uy18iIgDkUw8wXqwWZhU/vZvhA7he5/hm3&#xA;7e1gxYeAH1T2+HX9TjaPFxSvoHeXbT0bL1WFHnPL/Yj7P9cHYGl8PBxnnPf4dP1rrcnFOu5H3Uck&#xA;ltLHGeMjoQp9yM22phKeOUYmpEGnGxkCQJ5MfsdO121lPpKIlcjmxKMKD7znJ6Ls/X4JegCIPM+k&#xA;/rLss2fDMb7/ADVrhPM8pdKUjaoopjAoff7WZGeHac7H8J7uD+1hA6cb9fisbRb6HTWijAeaZ1Mq&#xA;gjZVrQb07nK5dj58emMY7znIcXuHL7UjVQlks8gNkXNpU66KtpBQy1DSCtORrUiuZ+bszINEMMPq&#xA;5nz/AB+hpjqInLxHkpaPZ6zbSrG4EdqCWdTwNaj2qcx+ydJrcMhGVRxXZ+k/duz1OTFIWN5fFX1n&#xA;R2vCJoSBMooVOwYf1zK7Y7IOoqcPrH2/ta9LqeDY8ksGj65KqwyEiIdA8gKj6AT+rNKOyddMCEr4&#xA;fOW3ysuX+Zwjcc/cn2m6dFYwemnxO28j+J/pnU9n6COmhwjcnme912fMchsorM9pdirsVdirsVdi&#xA;rsVdirsVdirsVdirsVdirsVdirsVdirsVaZVZSrCqkUI9jglEEUeRSDTHJ9B1G3uOdkxZf2SGCsB&#xA;4GpGcbn7D1GHJxYDY6b0R9ztIauEo1Nfa6DeTz+rqDHjWrKW5M3tUV2yzS9h5smTj1B299kscmsj&#xA;EVBkIAAAAoBsAM64AAUHWOwq7FXYq7FXYq7FX//Z</xmpGImg:image>
               </rdf:li>
            </rdf:Alt>
         </xmp:Thumbnails>
         <xmp:MetadataDate>2022-03-30T10:36:51-04:00</xmp:MetadataDate>
         <xmp:ModifyDate>2022-03-30T10:36:51-04:00</xmp:ModifyDate>
         <xmpTPg:MaxPageSize rdf:parseType="Resource">
            <stDim:w>7.111111</stDim:w>
            <stDim:h>7.111111</stDim:h>
            <stDim:unit>Inches</stDim:unit>
         </xmpTPg:MaxPageSize>
         <xmpTPg:NPages>1</xmpTPg:NPages>
         <xmpTPg:HasVisibleTransparency>False</xmpTPg:HasVisibleTransparency>
         <xmpTPg:HasVisibleOverprint>False</xmpTPg:HasVisibleOverprint>
         <xmpTPg:PlateNames>
            <rdf:Seq>
               <rdf:li>Cyan</rdf:li>
               <rdf:li>Magenta</rdf:li>
               <rdf:li>Yellow</rdf:li>
               <rdf:li>Black</rdf:li>
            </rdf:Seq>
         </xmpTPg:PlateNames>
         <xmpTPg:SwatchGroups>
            <rdf:Seq>
               <rdf:li rdf:parseType="Resource">
                  <xmpG:groupName>Groupe de nuances par défaut</xmpG:groupName>
                  <xmpG:groupType>0</xmpG:groupType>
               </rdf:li>
            </rdf:Seq>
         </xmpTPg:SwatchGroups>
         <dc:format>image/svg+xml</dc:format>
         <xmpMM:DerivedFrom rdf:parseType="Resource"/>
         <xmpMM:DocumentID>xmp.did:8f26bd05-911c-4249-b1ee-3e5b227c5cc6</xmpMM:DocumentID>
         <xmpMM:InstanceID>xmp.iid:8f26bd05-911c-4249-b1ee-3e5b227c5cc6</xmpMM:InstanceID>
         <xmpMM:OriginalDocumentID>xmp.did:8f26bd05-911c-4249-b1ee-3e5b227c5cc6</xmpMM:OriginalDocumentID>
         <xmpMM:History>
            <rdf:Seq>
               <rdf:li rdf:parseType="Resource">
                  <stEvt:action>saved</stEvt:action>
                  <stEvt:instanceID>xmp.iid:8f26bd05-911c-4249-b1ee-3e5b227c5cc6</stEvt:instanceID>
                  <stEvt:when>2022-03-30T10:36:51-04:00</stEvt:when>
                  <stEvt:softwareAgent>Adobe Illustrator 25.0 (Windows)</stEvt:softwareAgent>
                  <stEvt:changed>/</stEvt:changed>
               </rdf:li>
            </rdf:Seq>
         </xmpMM:History>
      </rdf:Description>
   </rdf:RDF>
</x:xmpmeta>
                                                                                                    
                                                                                                    
                                                                                                    
                                                                                                    
                                                                                                    
                                                                                                    
                                                                                                    
                                                                                                    
                                                                                                    
                                                                                                    
                                                                                                    
                                                                                                    
                                                                                                    
                                                                                                    
                                                                                                    
                                                                                                    
                                                                                                    
                                                                                                    
                                                                                                    
                                                                                                    
                           
<?xpacket end="w"?>
	</metadata>
<g>
	<path class="st0" d="M146.1567383,152.8499298c13.2679596,0,24.0144501,10.7575073,24.0144501,24.0144501
		c0,13.2679596-10.7464905,24.0254517-24.0144501,24.0254517c-13.2569427,0-24.0144501-10.7575073-24.0144501-24.0254669
		C122.1422806,163.6074371,132.8997803,152.8499298,146.1567383,152.8499298z"/>
	<path class="st1" d="M8.2580643,202.8607635c0-14.3580017,11.6383667-25.9853821,25.9853783-25.9853821h23.860302
		C70.413765,106.6157761,131.7106171,53.2246284,205.4936829,53.2246284h36.0602264
		c75.7319489,0,138.3170624,56.2649345,148.2487946,129.2772522c11.6383667-1.2001648,21.2507324-6.1439972,29.5528564-12.8715668
		c19.015564-15.382019,31.2265015-40.1121826,45.5074158-50.6824951
		c23.5409851,20.4469604,38.8789673,50.2751007,38.8789673,83.9129486s-15.3379822,63.4659882-38.8789673,83.9129486
		c-14.2809448-10.570343-26.4918518-35.3004761-45.5074463-50.6824951
		c-8.302124-6.7275543-17.9144897-11.671402-29.5528564-12.871582
		c-9.9317017,73.0122986-72.5168152,129.2772522-148.248764,129.2772522h-36.0602264
		c-73.7830505,0-135.0799103-53.3911133-147.3899384-123.6507721H34.2434425
		C19.896431,228.8461456,8.2580643,217.2187805,8.2580643,202.8607635z M170.1711884,176.8643799
		c0-13.2569427-10.7464905-24.0144501-24.0144501-24.0144501c-13.2569427,0-24.0144501,10.7575073-24.0144501,24.0144501
		c0,13.2679596,10.7575073,24.0254517,24.0144501,24.0254517
		C159.4246826,200.8898468,170.1711884,190.1323395,170.1711884,176.8643799z"/>
	<path class="st2" d="M419.3555298,236.091217v60.9885864c0,30.6098633-24.8182678,55.4171143-55.4171448,55.4171143H241.5539093
		c75.7319489,0,138.3170624-56.2649536,148.2487946-129.2772369
		C401.44104,224.4198303,411.0534363,229.3636627,419.3555298,236.091217z"/>
	<path class="st2" d="M419.3555298,108.6417465v60.9885635c-8.302124,6.7275696-17.9144897,11.671402-29.5528564,12.8715668
		c-9.9317017-73.0122986-72.5168152-129.2772369-148.248764-129.2772369h122.3845062
		C394.5372925,53.2246361,419.3555298,78.0318604,419.3555298,108.6417465z"/>
	<path class="st3" d="M146.1600342,144.5962677c-17.795578,0-32.2736206,14.4780426-32.2736206,32.2736206
		s14.476944,32.2736206,32.2736206,32.2736206s32.2736206-14.4769287,32.2736206-32.2736206
		S163.9556122,144.5962677,146.1600342,144.5962677z M146.1600342,192.6273651
		c-8.6885834,0-15.7574921-7.0688934-15.7574921-15.7574921c0-8.6885834,7.0689087-15.7574921,15.7574921-15.7574921
		c8.6885986,0,15.7574921,7.0689087,15.7574921,15.7574921
		C161.9175262,185.5584717,154.8486328,192.6273651,146.1600342,192.6273651z"/>
	<path class="st3" d="M470.2758484,112.710228c-2.9222412-2.540184-7.2186584-2.7064362-10.3280945-0.4029922
		c-7.7945251,5.7696457-14.5848389,14.6487122-21.7737427,24.0485992
		c-11.7870178,15.4139404-23.9296875,31.2892456-41.5997314,36.4400787
		c-6.5965576-34.1542511-24.4152527-65.3245926-50.7661743-88.5154419
		c-10.3589172-9.115799-21.7836609-16.7506561-33.9494629-22.8010635h52.0775452
		c26.0052185,0,47.1612549,21.1571655,47.1612549,47.1623535v20.7156296c0,4.5606537,3.6963196,8.2580566,8.2580872,8.2580566
		c4.5617371,0,8.2580566-3.697403,8.2580566-8.2580566v-20.7156296c0-35.1121902-28.5651855-63.6784859-63.6773987-63.6784859
		H241.5957336c-0.0583496,0-36.1053619,0-36.1053619,0c-37.3726959,0-73.6289062,13.2965813-102.0883942,37.4398613
		c-26.3432236,22.348526-44.660717,52.7536163-52.0775604,86.2086945H34.2478447
		C15.3633032,168.6118317,0,183.9762268,0,202.8607635s15.3633032,34.2489624,34.2478447,34.2489624h17.0765762
		c7.4168434,33.4550629,25.734333,63.8601837,52.0775642,86.2086945
		c28.4594955,24.14328,64.7146072,37.4398804,102.0884018,37.4398804h36.0470123c0.0583496,0,122.3977509,0,122.3977509,0
		c35.1122131,0,63.6773987-28.5652161,63.6773987-63.6784973v-20.7145386c0-4.5606384-3.6963196-8.2580566-8.2580566-8.2580566
		c-4.5617676,0-8.2580872,3.6974182-8.2580872,8.2580566v20.7145386c0,26.005188-21.1560364,47.1623535-47.1612549,47.1623535
		H311.857605c12.165802-6.0515137,23.5905151-13.6852417,33.9494629-22.8010864
		c26.3520508-23.1908569,44.1696167-54.3623047,50.7661743-88.5154419
		c17.6700439,5.1497192,29.8126831,21.0261383,41.5997314,36.440094c7.1889038,9.3998413,13.979248,18.2789612,21.7737427,24.048584
		c3.109436,2.3045349,7.4058533,2.1349792,10.3280945-0.4029846C496.7919312,269.9801331,512,237.1218262,512,202.8607635
		S496.7919312,135.7414246,470.2758484,112.710228z M464.7198486,275.644043
		c-4.3349609-4.4241333-8.7866211-10.2477112-13.425415-16.3113403
		c-14.081665-18.413269-31.6063538-41.3288574-60.6428223-44.3215637c-4.4285278-0.4525299-8.4276123,2.6855164-9.0288086,7.1008453
		c-9.4736633,69.6110992-69.6672668,122.1092377-140.0270691,122.1312408h-36.1042633
		c-68.833725,0-127.3966217-49.1288452-139.2518921-116.8163757c-0.6925812-3.9506531-4.1235275-6.8332672-8.1347466-6.8332672
		h-23.856987c-6.7958355,0-12.7031021-3.847168-15.6793098-9.4747467h39.5352058
		c4.5617561,0,8.2580605-3.6974182,8.2580605-8.2580719s-3.6963043-8.2580566-8.2580605-8.2580566H18.5696354
		c2.9762077-5.627594,8.8834724-9.4747467,15.6793118-9.4747467h23.855896c4.011219,0,7.4421692-2.8826141,8.1347427-6.8332672
		c11.8552856-67.6875076,70.4181747-116.816391,139.2518921-116.816391h36.104248
		c70.3598022,0.0231285,130.5534058,52.5201988,140.0270691,122.1312714
		c0.6022644,4.4164124,4.5936584,7.5566864,9.0288086,7.1008453c29.0364685-2.9927216,46.5611572-25.9083099,60.6428223-44.3215942
		c4.638855-6.0647125,9.0915527-11.8883057,13.425415-16.3113251
		c19.6332397,19.5011292,30.7640381,45.6505737,30.7640381,72.7832642S484.3530884,256.1428833,464.7198486,275.644043z"/>
</g>
<g>
	<path class="st1" d="M52.0058594,432.6259766l-5.8359375,14.4140625c-2.90625,7.125-5.1503906,12.0351562-6.7324219,14.7304688
		s-3.5805664,4.9921875-5.9941406,6.890625c-3.515625,2.765625-7.59375,4.1484375-12.234375,4.1484375
		c-4.8989258,0-8.871582-1.546875-11.9179688-4.640625c-3.046875-3.09375-4.5703125-7.1132812-4.5703125-12.0585938
		c0-6.609375,2.4135742-12.3867188,7.2421875-17.3320312c2.6015625-2.671875,5.8588867-4.8222656,9.7734375-6.4511719
		c3.9140625-1.6289062,7.7924805-2.4433594,11.6367188-2.4433594c1.8510742,0,3.3398438,0.4160156,4.4648438,1.2480469
		s1.6875,1.9277344,1.6875,3.2871094c0,1.4296875-0.6098633,2.578125-1.828125,3.4453125
		c-0.703125,0.515625-2.0512695,0.8671875-4.0429688,1.0546875c-4.640625,0.421875-8.4023438,1.4882812-11.2851562,3.1992188
		c-2.390625,1.4296875-4.2773438,3.2988281-5.6601562,5.6074219c-1.3833008,2.3085938-2.0742188,4.7402344-2.0742188,7.2949219
		c0,2.6015625,0.6733398,4.6699219,2.0214844,6.2050781c1.3476562,1.5351562,3.1582031,2.3027344,5.4316406,2.3027344
		c2.859375,0,5.331543-1.2070312,7.4179688-3.6210938c2.0859375-2.4140625,4.3823242-6.703125,6.890625-12.8671875
		l12.1992188-29.9882812h-3.8320312c-3.234375,0-4.8515625-1.125-4.8515625-3.375
		c0-1.59375,0.5678711-2.8300781,1.7050781-3.7089844c1.1367188-0.8789062,2.7363281-1.3183594,4.7988281-1.3183594h13.3945312
		c4.5,0,7.8222656,0.8496094,9.9667969,2.5488281s3.2167969,4.3183594,3.2167969,7.8574219
		c0,4.3125-1.6645508,7.8398438-4.9921875,10.5820312c-2.4140625,1.9921875-6.140625,2.9882812-11.1796875,2.9882812H52.0058594z
		 M55.4160156,424.2236328h2.8476562c3.7495117,0,5.625-1.5234375,5.625-4.5703125
		c0-1.734375-1.0668945-2.6015625-3.1992188-2.6015625h-2.3554688L55.4160156,424.2236328z"/>
	<path class="st1" d="M76.5800781,448.9736328h3.6914062c2.9760742,0,4.4648438,1.0429688,4.4648438,3.1289062
		c0,1.4296875-0.5219727,2.5429688-1.5644531,3.3398438c-1.0429688,0.796875-2.5019531,1.1953125-4.3769531,1.1953125h-6.328125
		c-1.7348633,0-3.105957-0.4101562-4.1132812-1.2304688c-1.0078125-0.8203125-1.5117188-1.921875-1.5117188-3.3046875
		c0-0.7265625,0.3393555-1.9335938,1.0195312-3.6210938l14.203125-34.9453125l0.3867188-0.9492188
		c1.0776367-2.625,2.800293-3.9375,5.1679688-3.9375c0.984375,0,1.8222656,0.328125,2.5136719,0.984375
		c0.690918,0.65625,1.0371094,1.4414062,1.0371094,2.3554688c0,0.703125-0.1757812,1.5-0.5273438,2.390625l-0.3867188,0.9492188
		L76.5800781,448.9736328z"/>
	<path class="st1" d="M110.2949219,448.9736328h3.8671875c2.953125,0,4.4296875,1.03125,4.4296875,3.09375
		c0,1.4296875-0.5273438,2.5488281-1.5820312,3.3574219s-2.5083008,1.2128906-4.359375,1.2128906h-4.5
		c-2.0161133,0-3.387207-0.7851562-4.1132812-2.3554688c-1.7578125,1.5703125-3.4575195,2.3554688-5.0976562,2.3554688h-4.0078125
		c-2.5786133,0-4.6582031-0.9199219-6.2402344-2.7597656s-2.3730469-4.2480469-2.3730469-7.2246094
		c0-4.5,1.5522461-8.5253906,4.6582031-12.0761719c3.1054688-3.5507812,6.6147461-5.3261719,10.5292969-5.3261719
		c3,0,5.190918,1.0429688,6.5742188,3.1289062c1.171875-1.7578125,2.7070312-2.6367188,4.6054688-2.6367188
		c1.03125,0,1.8925781,0.328125,2.5839844,0.984375c0.690918,0.65625,1.0371094,1.4648438,1.0371094,2.4257812
		c0,0.65625-0.1879883,1.4414062-0.5625,2.3554688l-0.3867188,0.9492188L110.2949219,448.9736328z M97.5332031,449.1494141
		h0.8789062c1.9213867,0,3.1992188-0.7851562,3.8320312-2.3554688l2.4609375-6.0820312
		c0.328125-0.796875,0.4921875-1.4648438,0.4921875-2.0039062c0-0.6328125-0.3110352-1.1835938-0.9316406-1.6523438
		c-0.6210938-0.46875-1.3657227-0.703125-2.2324219-0.703125c-1.7109375,0-3.375,0.9960938-4.9921875,2.9882812
		s-2.4257812,4.0546875-2.4257812,6.1875C94.6152344,447.9423828,95.5874023,449.1494141,97.5332031,449.1494141z"/>
	<path class="st1" d="M140.0722656,456.6376953h-10.1953125c-2.9301758,0-5.3144531-1.03125-7.1542969-3.09375
		c-1.840332-2.0625-2.7597656-4.734375-2.7597656-8.015625c0-4.3828125,1.5117188-8.1914062,4.5351562-11.4257812
		s6.5742188-4.8515625,10.6523438-4.8515625c2.7651367,0,5.0151367,0.7734375,6.75,2.3203125
		c1.734375,1.546875,2.6015625,3.5625,2.6015625,6.046875c0,1.734375-0.434082,3.1582031-1.3007812,4.2714844
		c-0.8671875,1.1132812-1.980957,1.6699219-3.3398438,1.6699219c-2.1567383,0-3.234375-1.0078125-3.234375-3.0234375
		c0-0.3046875,0-0.5625,0-0.7734375c0.0229492-0.2578125,0.0351562-0.5039062,0.0351562-0.7382812
		c0-1.640625-0.8085938-2.4609375-2.4257812-2.4609375c-1.5239258,0-2.9125977,0.8085938-4.1660156,2.4257812
		c-1.2539062,1.6171875-1.8808594,3.421875-1.8808594,5.4140625c0,1.6640625,0.5097656,2.8417969,1.5292969,3.5332031
		s2.7475586,1.0371094,5.1855469,1.0371094h6.6445312c2.9760742,0,4.4648438,1.0429688,4.4648438,3.1289062
		c0,1.40625-0.5332031,2.5136719-1.5996094,3.3222656C143.347168,456.2333984,141.9003906,456.6376953,140.0722656,456.6376953z"/>
	<path class="st1" d="M155.7519531,446.3369141c0,1.7578125,1.3237305,2.6367188,3.9726562,2.6367188h10.4414062
		c2.953125,0,4.4296875,1.0429688,4.4296875,3.1289062c0,1.4296875-0.5219727,2.5429688-1.5644531,3.3398438
		c-1.0429688,0.796875-2.5019531,1.1953125-4.3769531,1.1953125h-9.9492188c-3.7036133,0-6.5214844-0.9140625-8.4550781-2.7421875
		s-2.9003906-4.5-2.9003906-8.015625c0-4.5234375,1.5292969-8.4257812,4.5878906-11.7070312s6.6972656-4.921875,10.9160156-4.921875
		c3.0703125,0,5.5371094,0.8027344,7.4003906,2.4082031s2.7949219,3.7207031,2.7949219,6.3457031
		c0,3.1640625-1.2890625,5.5078125-3.8671875,7.03125c-1.4296875,0.8671875-3.5629883,1.3007812-6.3984375,1.3007812H155.7519531z
		 M157.4394531,439.9384766h3.8671875c2.5078125,0,3.7265625-0.5507812,3.65625-1.6523438
		c-0.0703125-1.2421875-0.8789062-1.8632812-2.4257812-1.8632812
		C160.3803711,436.4228516,158.6816406,437.5947266,157.4394531,439.9384766z"/>
	<path class="st1" d="M192.8417969,431.2548828c2.4609375-1.3359375,4.487793-2.0039062,6.0820312-2.0039062
		c2.25,0,4.0957031,0.6269531,5.5371094,1.8808594s2.1621094,2.8535156,2.1621094,4.7988281
		c0,1.171875-0.28125,2.4492188-0.84375,3.8320312l-3.6914062,9.2109375h4.0429688
		c2.953125,0,4.4296875,1.0429688,4.4296875,3.1289062c0,1.4296875-0.5219727,2.5429688-1.5644531,3.3398438
		c-1.0429688,0.796875-2.5019531,1.1953125-4.3769531,1.1953125h-7.0664062c-1.5,0-2.7597656-0.4277344-3.7792969-1.2832031
		s-1.5292969-1.9042969-1.5292969-3.1464844c0-0.84375,0.269043-1.921875,0.8085938-3.234375l3.234375-7.9453125
		c0.3984375-1.0078125,0.5976562-1.7695312,0.5976562-2.2851562c0-1.3359375-0.8911133-2.0039062-2.671875-2.0039062
		c-2.390625,0-4.4067383,2.0390625-6.046875,6.1171875l-3.9375,9.6679688
		c-1.2426758,3.0703125-3.0820312,4.6054688-5.5195312,4.6054688c-0.9614258,0-1.78125-0.3046875-2.4609375-0.9140625
		c-0.6801758-0.609375-1.0195312-1.3476562-1.0195312-2.2148438c0-0.65625,0.1757812-1.4296875,0.5273438-2.3203125
		l0.3867188-0.9492188l15.2929688-37.7226562c1.3359375-3.234375,3.1640625-4.8515625,5.484375-4.8515625
		c0.9609375,0,1.7871094,0.3222656,2.4785156,0.9667969c0.690918,0.6445312,1.0371094,1.4238281,1.0371094,2.3378906
		c0,0.75-0.3046875,1.8632812-0.9140625,3.3398438L192.8417969,431.2548828z"/>
	<path class="st1" d="M228.1738281,429.2509766c3.3979492,0,6.1928711,1.078125,8.3847656,3.234375
		c2.1914062,2.15625,3.2871094,4.8984375,3.2871094,8.2265625c0,2.5078125-0.574707,4.9980469-1.7226562,7.4707031
		c-1.1484375,2.4726562-2.6367188,4.4472656-4.4648438,5.9238281c-1.21875,0.9609375-2.4785156,1.6230469-3.7792969,1.9863281
		s-3.1235352,0.5449219-5.4667969,0.5449219c-3.8203125,0-6.3984375-0.4570312-7.734375-1.3710938
		c-3.1411133-2.15625-4.7109375-5.34375-4.7109375-9.5625c0-4.453125,1.6049805-8.3085938,4.8164062-11.5664062
		C219.9941406,430.8798828,223.7910156,429.2509766,228.1738281,429.2509766z M227.3300781,436.7392578
		c-1.7348633,0-3.3168945,0.8554688-4.7460938,2.5664062c-1.4296875,1.7109375-2.1445312,3.5976562-2.1445312,5.6601562
		c0,2.71875,1.5234375,4.078125,4.5703125,4.078125c1.7807617,0,3.1518555-0.5507812,4.1132812-1.6523438
		c1.59375-1.8046875,2.390625-3.8671875,2.390625-6.1875c0-1.3359375-0.3867188-2.4140625-1.1601562-3.234375
		S228.5722656,436.7392578,227.3300781,436.7392578z"/>
	<path class="st1" d="M251.1308594,448.9736328h3.6914062c2.9765625,0,4.4648438,1.0429688,4.4648438,3.1289062
		c0,1.4296875-0.5214844,2.5429688-1.5644531,3.3398438s-2.5019531,1.1953125-4.3769531,1.1953125h-6.328125
		c-1.7348633,0-3.105957-0.4101562-4.1132812-1.2304688c-1.0078125-0.8203125-1.5117188-1.921875-1.5117188-3.3046875
		c0-0.7265625,0.3393555-1.9335938,1.0195312-3.6210938l14.203125-34.9453125l0.3867188-0.9492188
		c1.078125-2.625,2.8007812-3.9375,5.1679688-3.9375c0.984375,0,1.8222656,0.328125,2.5136719,0.984375
		s1.0371094,1.4414062,1.0371094,2.3554688c0,0.703125-0.1757812,1.5-0.5273438,2.390625l-0.3867188,0.9492188
		L251.1308594,448.9736328z"/>
	<path class="st1" d="M284.9863281,448.9736328h4.0078125c2.9765625,0,4.4648438,1.0429688,4.4648438,3.1289062
		c0,1.4296875-0.5273438,2.5429688-1.5820312,3.3398438s-2.5078125,1.1953125-4.359375,1.1953125h-4.7460938
		c-1.828125,0-3.1640625-0.75-4.0078125-2.25c-1.5,1.5-3.1054688,2.25-4.8164062,2.25h-4.4648438
		c-2.6015625,0-4.6816406-0.890625-6.2402344-2.671875s-2.3378906-4.1484375-2.3378906-7.1015625
		c0-4.5234375,1.5410156-8.5898438,4.6230469-12.1992188s6.5449219-5.4140625,10.3886719-5.4140625
		c2.8359375,0,5.0976562,1.0195312,6.7851562,3.0585938l7.8398438-19.2304688
		c1.3359375-3.28125,3.1992188-4.921875,5.5898438-4.921875c1.0078125,0,1.8632812,0.3222656,2.5664062,0.9667969
		s1.0546875,1.4355469,1.0546875,2.3730469c0,0.7265625-0.1757812,1.546875-0.5273438,2.4609375l-0.421875,0.9492188
		L284.9863281,448.9736328z M272.1191406,449.1494141h1.3359375c1.6171875,0,2.6835938-0.6445312,3.1992188-1.9335938
		l2.6367188-6.5039062c0.328125-0.796875,0.4921875-1.40625,0.4921875-1.828125c0-0.703125-0.2988281-1.3007812-0.8964844-1.7929688
		s-1.3417969-0.7382812-2.2324219-0.7382812c-1.828125,0-3.5332031,1.0195312-5.1152344,3.0585938
		s-2.3730469,4.2421875-2.3730469,6.609375C269.1660156,448.1064453,270.1503906,449.1494141,272.1191406,449.1494141z"/>
	<path class="st1" d="M303.3027344,446.3369141c0,1.7578125,1.3242188,2.6367188,3.9726562,2.6367188h10.4414062
		c2.953125,0,4.4296875,1.0429688,4.4296875,3.1289062c0,1.4296875-0.5214844,2.5429688-1.5644531,3.3398438
		s-2.5019531,1.1953125-4.3769531,1.1953125h-9.9492188c-3.703125,0-6.5214844-0.9140625-8.4550781-2.7421875
		s-2.9003906-4.5-2.9003906-8.015625c0-4.5234375,1.5292969-8.4257812,4.5878906-11.7070312s6.6972656-4.921875,10.9160156-4.921875
		c3.0703125,0,5.5371094,0.8027344,7.4003906,2.4082031s2.7949219,3.7207031,2.7949219,6.3457031
		c0,3.1640625-1.2890625,5.5078125-3.8671875,7.03125c-1.4296875,0.8671875-3.5625,1.3007812-6.3984375,1.3007812H303.3027344z
		 M304.9902344,439.9384766h3.8671875c2.5078125,0,3.7265625-0.5507812,3.65625-1.6523438
		c-0.0703125-1.2421875-0.8789062-1.8632812-2.4257812-1.8632812
		C307.9316406,436.4228516,306.2324219,437.5947266,304.9902344,439.9384766z"/>
	<path class="st1" d="M332.2714844,437.4423828l-1.1953125,2.953125c-1.078125,2.625-2.484375,3.9375-4.21875,3.9375
		c-1.0546875,0-1.9335938-0.3164062-2.6367188-0.9492188s-1.0546875-1.4179688-1.0546875-2.3554688
		c0-0.5390625,0.2578125-1.453125,0.7734375-2.7421875l3.9726562-9.8085938
		c0.9609375-2.3671875,2.3203125-3.5507812,4.078125-3.5507812c1.734375,0,2.8007812,0.8203125,3.1992188,2.4609375
		l0.28125,1.0898438c0.140625,0.5625,0.3515625,0.9140625,0.6328125,1.0546875s0.9726562,0.2109375,2.0742188,0.2109375h8.2265625
		c3.0703125,0,4.6054688,1.078125,4.6054688,3.234375c0,2.9765625-1.9453125,4.4648438-5.8359375,4.4648438l-0.3867188,0.3515625
		c-3.7265625,3.5625-5.5898438,6.3164062-5.5898438,8.2617188s1.078125,2.9179688,3.234375,2.9179688h4.4296875
		c2.9765625,0,4.4648438,1.03125,4.4648438,3.09375c0,1.453125-0.5214844,2.578125-1.5644531,3.375
		s-2.5019531,1.1953125-4.3769531,1.1953125h-6.890625c-2.34375,0-4.2597656-0.8085938-5.7480469-2.4257812
		s-2.2324219-3.7148438-2.2324219-6.2929688c0-1.640625,0.3984375-3.234375,1.1953125-4.78125s2.203125-3.4453125,4.21875-5.6953125
		H332.2714844z"/>
	<path class="st1" d="M414.2207031,430.2353516h4.5351562h0.9140625c2.625,0,3.9375,1.125,3.9375,3.375
		c0,1.40625-0.5332031,2.5957031-1.5996094,3.5683594s-2.3847656,1.4589844-3.9550781,1.4589844h-0.9140625h-6.328125
		l-6.8203125,16.8398438c-4.734375,11.625-11.7421875,17.4375-21.0234375,17.4375
		c-4.8515625,0-8.8710938-1.5644531-12.0585938-4.6933594s-4.78125-7.0722656-4.78125-11.8300781
		c0-3.703125,0.9433594-7.2421875,2.8300781-10.6171875s4.5292969-6.28125,7.9277344-8.71875
		c2.8828125-2.0390625,6.2402344-3.65625,10.0722656-4.8515625s7.6113281-1.7929688,11.3378906-1.7929688l4.9570312-0.140625
		l1.546875-0.0351562l6.75-16.9804688l0.3867188-0.984375c0.5390625-1.453125,1.2246094-2.4199219,2.0566406-2.9003906
		s2.2324219-0.7207031,4.2011719-0.7207031h18.0351562c3.2578125,0,4.8867188,1.1484375,4.8867188,3.4453125
		c0,1.359375-0.5390625,2.5253906-1.6171875,3.4980469s-2.390625,1.4589844-3.9375,1.4589844h-0.9492188h-15.0117188
		L414.2207031,430.2353516z M401.3886719,438.6376953h-1.8984375c-6.9375,0-12.4804688,1.5820312-16.6289062,4.7460938
		c-4.640625,3.5390625-6.9609375,7.5351562-6.9609375,11.9882812c0,2.390625,0.7324219,4.3945312,2.1972656,6.0117188
		s3.2871094,2.4257812,5.4667969,2.4257812c5.0625,0,9.2226562-4.0195312,12.4804688-12.0585938L401.3886719,438.6376953z"/>
	<path class="st1" d="M439.2519531,448.9736328h3.9726562c2.953125,0,4.4296875,1.0429688,4.4296875,3.1289062
		c0,1.4296875-0.5214844,2.5429688-1.5644531,3.3398438s-2.5019531,1.1953125-4.3769531,1.1953125h-5.5898438
		c-2.0625,0-3.6855469-0.421875-4.8691406-1.265625s-1.7753906-1.9921875-1.7753906-3.4453125
		c0-0.7734375,0.2460938-1.7578125,0.7382812-2.953125l5.8007812-14.2734375l0.3867188-0.984375
		c1.078125-2.6484375,2.8125-3.9726562,5.203125-3.9726562c0.984375,0,1.8339844,0.328125,2.5488281,0.984375
		s1.0722656,1.4414062,1.0722656,2.3554688c0,0.75-0.3164062,1.8984375-0.9492188,3.4453125L439.2519531,448.9736328z
		 M443.8925781,418.5283203c1.359375,0,2.5136719,0.4746094,3.4628906,1.4238281s1.4238281,2.1035156,1.4238281,3.4628906
		s-0.4746094,2.5136719-1.4238281,3.4628906s-2.1035156,1.4238281-3.4628906,1.4238281s-2.5136719-0.4746094-3.4628906-1.4238281
		s-1.4238281-2.1035156-1.4238281-3.4628906s0.4746094-2.5136719,1.4238281-3.4628906
		S442.5332031,418.5283203,443.8925781,418.5283203z"/>
	<path class="st1" d="M460.6972656,439.3408203l-0.6679688,1.6171875c-1.03125,2.3203125-2.4960938,3.4804688-4.3945312,3.4804688
		c-0.9609375,0-1.8222656-0.3339844-2.5839844-1.0019531s-1.1425781-1.4355469-1.1425781-2.3027344
		c0-0.8203125,0.3398438-1.9101562,1.0195312-3.2695312l4.6757812-9.4921875
		c1.1484375-2.2734375,2.578125-3.4101562,4.2890625-3.4101562c0.9140625,0,1.6992188,0.2988281,2.3554688,0.8964844
		s0.984375,1.3066406,0.984375,2.1269531c0,0.2109375-0.0703125,0.6679688-0.2109375,1.3710938
		c-0.09375,0.515625-0.140625,0.9726562-0.140625,1.3710938c0,1.4765625,0.5507812,2.9882812,1.6523438,4.5351562
		l2.0039062,2.7773438c2.0390625,2.8359375,3.0585938,5.578125,3.0585938,8.2265625
		c0,2.953125-1.1015625,5.4199219-3.3046875,7.4003906s-4.9453125,2.9707031-8.2265625,2.9707031h-7.3476562
		c-2.9765625,0-4.4648438-1.03125-4.4648438-3.09375c0-1.4296875,0.5273438-2.5488281,1.5820312-3.3574219
		s2.5078125-1.2128906,4.359375-1.2128906h4.078125c3.2578125,0,4.8867188-1.1835938,4.8867188-3.5507812
		c0-0.8671875-0.3046875-1.8867188-0.9140625-3.0585938L460.6972656,439.3408203z"/>
	<path class="st1" d="M491.0371094,431.2548828c2.4609375-1.3359375,4.4882812-2.0039062,6.0820312-2.0039062
		c2.25,0,4.0957031,0.6269531,5.5371094,1.8808594s2.1621094,2.8535156,2.1621094,4.7988281
		c0,1.171875-0.28125,2.4492188-0.84375,3.8320312l-3.6914062,9.2109375h4.0429688
		c2.953125,0,4.4296875,1.0429688,4.4296875,3.1289062c0,1.4296875-0.5214844,2.5429688-1.5644531,3.3398438
		s-2.5019531,1.1953125-4.3769531,1.1953125h-7.0664062c-1.5,0-2.7597656-0.4277344-3.7792969-1.2832031
		s-1.5292969-1.9042969-1.5292969-3.1464844c0-0.84375,0.2695312-1.921875,0.8085938-3.234375l3.234375-7.9453125
		c0.3984375-1.0078125,0.5976562-1.7695312,0.5976562-2.2851562c0-1.3359375-0.890625-2.0039062-2.671875-2.0039062
		c-2.390625,0-4.40625,2.0390625-6.046875,6.1171875l-3.9375,9.6679688
		c-1.2421875,3.0703125-3.0820312,4.6054688-5.5195312,4.6054688c-0.9609375,0-1.78125-0.3046875-2.4609375-0.9140625
		s-1.0195312-1.3476562-1.0195312-2.2148438c0-0.65625,0.1757812-1.4296875,0.5273438-2.3203125l0.3867188-0.9492188
		l15.2929688-37.7226562c1.3359375-3.234375,3.1640625-4.8515625,5.484375-4.8515625
		c0.9609375,0,1.7871094,0.3222656,2.4785156,0.9667969s1.0371094,1.4238281,1.0371094,2.3378906
		c0,0.75-0.3046875,1.8632812-0.9140625,3.3398438L491.0371094,431.2548828z"/>
</g>
</svg>
